<svg enable-background="new 0 0 120.775 117.793" height="117.793" viewBox="0 0 120.775 117.793" width="120.775" xmlns="http://www.w3.org/2000/svg"><g fill="#fff"><path clip-rule="evenodd" d="m60.388 0c-33.347 0-60.388 27.035-60.388 60.388 0 26.681 17.303 49.316 41.297 57.302 3.018.559 4.126-1.311 4.126-2.905 0-1.439-.056-6.197-.082-11.243-16.8 3.653-20.345-7.125-20.345-7.125-2.747-6.979-6.705-8.836-6.705-8.836-5.479-3.748.413-3.671.413-3.671 6.063.426 9.257 6.224 9.257 6.224 5.386 9.231 14.127 6.563 17.573 5.02.542-3.902 2.106-6.567 3.834-8.075-13.413-1.526-27.514-6.705-27.514-29.844 0-6.593 2.359-11.979 6.223-16.209-.627-1.521-2.694-7.663.585-15.981 0 0 5.071-1.622 16.61 6.19 4.817-1.338 9.983-2.009 15.115-2.032 5.132.023 10.302.694 15.128 2.032 11.526-7.813 16.59-6.19 16.59-6.19 3.287 8.318 1.22 14.46.593 15.981 3.872 4.229 6.215 9.616 6.215 16.209 0 23.194-14.127 28.301-27.574 29.796 2.166 1.874 4.096 5.549 4.096 11.183 0 8.08-.069 14.583-.069 16.572 0 1.607 1.087 3.49 4.147 2.897 23.981-7.994 41.263-30.622 41.263-57.294-.001-33.354-27.038-60.389-60.388-60.389z" fill-rule="evenodd"/><path d="m22.872 86.703c-.133.301-.605.391-1.035.185-.438-.197-.684-.606-.542-.907.13-.309.603-.395 1.04-.188.438.196.688.609.537.91zm-.743-.551"/><path d="m25.318 89.432c-.288.267-.852.143-1.233-.279-.396-.421-.469-.984-.177-1.255.297-.267.843-.142 1.238.279.396.426.473.984.172 1.255zm-.576-.619"/><path d="m27.699 92.909c-.37.258-.976.017-1.35-.521-.37-.537-.37-1.182.009-1.439.374-.258.971-.025 1.35.507.369.546.369 1.19-.009 1.453zm0 0"/><path d="m30.961 96.27c-.331.365-1.036.267-1.552-.231-.528-.486-.675-1.178-.344-1.543.336-.365 1.045-.263 1.564.231.525.486.684 1.181.332 1.543zm0 0"/><path d="m35.461 98.221c-.146.473-.825.688-1.509.486-.684-.207-1.13-.761-.992-1.238.142-.477.824-.7 1.513-.485.682.205 1.13.755.988 1.237zm0 0"/><path d="m40.403 98.582c.017.498-.563.911-1.281.92-.722.017-1.307-.387-1.314-.877 0-.503.567-.911 1.289-.924.717-.013 1.306.387 1.306.881zm0 0"/><path d="m45.002 97.8c.086.485-.413.984-1.126 1.117-.701.129-1.35-.172-1.439-.653-.087-.498.421-.997 1.121-1.126.713-.124 1.353.168 1.444.662zm0 0"/></g></svg>