<svg enable-background="new 0 0 191.328 263.398" height="263.398" viewBox="0 0 191.328 263.398" width="191.328" xmlns="http://www.w3.org/2000/svg"><path d="m190.919 72.352-72.257-72.352-102.872.569s-4.114-.436-10.256 5.056c-3.856 3.872-4.259 8.565-4.297 9.782-.115.893-.099 1.443-.099 1.443l-1.138 229.753s1.515 15.152 14.016 16.289 160.615 0 160.615 0 15.271.363 16.26-15.154c.056-.488.098-.991.123-1.514.757-15.909-.095-173.872-.095-173.872zm-135.9 55.75c4.956 0 8.973 4.017 8.973 8.973s-4.018 8.974-8.973 8.974-8.973-4.018-8.973-8.974 4.017-8.973 8.973-8.973zm0 29.999c4.956 0 8.973 4.018 8.973 8.974s-4.018 8.974-8.973 8.974-8.973-4.018-8.973-8.974 4.017-8.974 8.973-8.974zm.268 46.875c-4.956 0-8.974-4.018-8.974-8.973 0-4.956 4.018-8.974 8.974-8.974s8.973 4.018 8.973 8.974c0 4.955-4.018 8.973-8.973 8.973zm88.795-2.41h-65.358v-12.054h65.358zm.267-29.733h-65.357v-12.053h65.357zm.268-29.732h-65.357v-12.053h65.357z" fill="#fff"/><path d="m118.945 0v54.927s.758 17.046 18.184 17.425c17.425.379 53.791 0 53.791 0z" opacity=".2"/></svg>