<?xml version="1.0" encoding="utf-8"?>
<!-- Generator: Adobe Illustrator 16.0.0, SVG Export Plug-In . SVG Version: 6.00 Build 0)  -->
<!DOCTYPE svg PUBLIC "-//W3C//DTD SVG 1.1//EN" "http://www.w3.org/Graphics/SVG/1.1/DTD/svg11.dtd">
<svg version="1.1"
	 id="svg1055" xmlns:dc="http://purl.org/dc/elements/1.1/" xmlns:cc="http://creativecommons.org/ns#" xmlns:rdf="http://www.w3.org/1999/02/22-rdf-syntax-ns#" xmlns:svg="http://www.w3.org/2000/svg" xmlns:sodipodi="http://sodipodi.sourceforge.net/DTD/sodipodi-0.dtd" xmlns:inkscape="http://www.inkscape.org/namespaces/inkscape" sodipodi:docname="ahold delhaize.svg" inkscape:version="0.92.0 r15299"
	 xmlns="http://www.w3.org/2000/svg" xmlns:xlink="http://www.w3.org/1999/xlink" x="0px" y="0px" width="84px" height="84px"
	 viewBox="-10.113 -0.78 84 84" enable-background="new -10.113 -0.78 84 84" xml:space="preserve">
<sodipodi:namedview  units="px" fit-margin-left="0" fit-margin-top="0" showgrid="false" inkscape:cy="41.220444" inkscape:cx="126.00001" inkscape:zoom="3.1825395" borderopacity="1.0" bordercolor="#666666" pagecolor="#ffffff" id="base" inkscape:window-maximized="1" inkscape:window-y="-4" inkscape:window-x="-4" inkscape:window-height="744" inkscape:window-width="1280" fit-margin-bottom="0" inkscape:current-layer="layer1" inkscape:document-units="mm" inkscape:pageopacity="0.0" fit-margin-right="0" inkscape:pageshadow="2">
	</sodipodi:namedview>
<path id="path895" inkscape:connector-curvature="0" fill="#00C81E" d="M31.878,5.292c1.183,0,2.146-0.964,2.146-2.146
	C34.024,1.964,33.061,1,31.835,1c-1.183,0-2.146,0.964-2.146,2.146C29.733,4.328,30.696,5.292,31.878,5.292"/>
<path id="path897" inkscape:connector-curvature="0" fill="#00C81E" d="M31.878,5.292c1.183,0,2.146-0.964,2.146-2.146
	C34.024,1.964,33.061,1,31.835,1c-1.183,0-2.146,0.964-2.146,2.146C29.733,4.328,30.696,5.292,31.878,5.292"/>
<path id="path899" inkscape:connector-curvature="0" fill="#00C81E" d="M16.333,16.502h4.335c0,0-0.701-0.701-3.372-3.547
	c-1.533-1.621-1.664-2.891,0.263-2.891h0.438l2.19-3.284c0,0-1.883-0.044-2.671-0.044c-5.167,0-6.087,5.08-3.503,7.532
	C15.983,16.063,16.333,16.502,16.333,16.502"/>
<path id="path901" inkscape:connector-curvature="0" fill="#00C81E" d="M16.333,16.502h4.335c0,0-0.701-0.701-3.372-3.547
	c-1.533-1.621-1.664-2.891,0.263-2.891h0.438l2.19-3.284c0,0-1.883-0.044-2.671-0.044c-5.167,0-6.087,5.08-3.503,7.532
	C15.983,16.063,16.333,16.502,16.333,16.502"/>
<path id="path903" inkscape:connector-curvature="0" fill="#00C81E" d="M46.241,9.933c1.927,0,1.795,1.27,0.263,2.89
	c-2.671,2.847-3.328,3.547-3.328,3.547h4.335c0,0,0.394-0.394,2.321-2.277c2.583-2.452,1.62-7.531-3.503-7.531
	c-0.832,0-2.671,0.088-2.671,0.088l2.189,3.284H46.241z"/>
<path id="path905" inkscape:connector-curvature="0" fill="#00C81E" d="M46.241,9.933c1.927,0,1.795,1.27,0.263,2.89
	c-2.671,2.847-3.328,3.547-3.328,3.547h4.335c0,0,0.394-0.394,2.321-2.277c2.583-2.452,1.62-7.531-3.503-7.531
	c-0.832,0-2.671,0.088-2.671,0.088l2.189,3.284H46.241z"/>
<polygon id="polygon907" fill="#00C81E" points="31.922,16.282 33.586,14.838 33.542,6.649 30.214,6.649 30.258,14.882 "/>
<polygon id="polygon909" fill="#00C81E" points="31.922,16.282 33.586,14.838 33.542,6.649 30.214,6.649 30.258,14.882 "/>
<path id="path911" inkscape:connector-curvature="0" fill="#00C81E" d="M58.064,50.306c0.832,3.941,0.569,7.882-0.788,11.735
	c-1.708,4.729-4.335,7.927-7.62,9.152c-0.744,0.263-2.102,0.7-3.81,0.744c-1.095,0-2.54-0.394-3.459-0.832
	c-0.525-0.219-1.62-0.744-1.62-0.744c-2.934-1.62-7.094-4.904-7.05-7.094c0-0.744,1.708-1.971,3.153-2.015
	c2.014,0,3.634-1.664,3.634-3.678V57.4l-0.744-3.196l-0.044-0.088c-0.525-1.751-1.883-7.707,2.759-10.378l4.028-1.927l-1.445-3.021
	l-4.116,1.971l-0.131,0.044c-4.598,2.627-6.218,7.926-4.379,14.231l0.613,2.715c-0.043,0.088-0.131,0.175-0.263,0.175
	c-1.357,0-2.89,0.526-4.116,1.401c-0.263,0.176-0.481,0.351-0.7,0.569c-1.358-1.226-3.328-1.927-4.861-1.883
	c-0.131,0-0.219-0.088-0.263-0.175l0.613-2.715c1.795-6.306,0.131-11.604-4.51-14.188l-4.204-1.97l-1.401,3.021l4.029,1.883
	c4.642,2.627,3.372,8.582,2.846,10.378l-0.744,3.284v0.175c0,2.015,1.664,3.635,3.678,3.635c1.401,0,3.153,1.183,3.153,1.971
	c0.043,2.189-4.073,5.474-7.006,7.138c-0.263,0.131-0.569,0.307-0.832,0.438c-0.963,0.569-2.409,1.183-4.116,1.183
	c-0.438,0-2.014,0.044-3.985-0.701c-3.284-1.27-5.999-4.379-7.707-9.107c-1.664-4.511-1.795-9.108-0.394-13.706
	c0.394-1.401,1.357-3.46,1.314-3.504c2.146-4.598,5.692-8.889,10.247-12.523c0.087-0.044,6.831-5.299,12.436-9.021l-7.619-5.167
	h-4.642c0,0-0.394,0-0.613,0l0,0l0,0c-4.51,0.438-8.451,2.146-11.604,5.167c-3.197,2.934-5.124,8.407-4.729,13.662
	c0.175,2.233,0.701,4.292,1.577,6.219c0.525-1.052,1.226-2.409,2.146-3.985c-0.219-0.876-0.35-1.708-0.394-2.496
	c-0.307-4.204,1.182-8.714,3.634-10.947c2.627-2.496,5.868-3.897,9.59-4.291l9.415-0.044c-5.386,3.678-11.167,8.188-11.254,8.232
	c-3.766,3.021-6.875,6.394-9.152,10.071c-1.445,2.408-2.847,5.518-2.803,5.562c-2.277,5.955-2.365,12.13-0.263,17.909
	c2.627,7.182,6.7,9.984,9.677,11.079c1.445,0.525,3.021,0.788,4.598,0.788c2.408,0,4.51-0.788,4.466-0.788
	c0.701-0.263,2.014-0.744,2.671-1.139l0,0c0.613-0.351,4.729-2.715,7.05-5.824c2.321,3.021,6.306,5.299,7.05,5.737
	c0,0,1.795,1.051,3.24,1.488c1.62,0.438,3.372,0.438,3.941,0.438c1.577,0,3.109-0.306,4.598-0.831
	c2.978-1.139,7.05-3.985,9.59-11.167c1.839-5.123,1.927-10.509,0.35-15.808C60.079,48.293,59.203,49.3,58.064,50.306"/>
<path id="path913" inkscape:connector-curvature="0" fill="#00C81E" d="M58.064,50.306c0.832,3.941,0.569,7.882-0.788,11.735
	c-1.708,4.729-4.335,7.927-7.62,9.152c-0.744,0.263-2.102,0.7-3.81,0.744c-1.095,0-2.54-0.394-3.459-0.832
	c-0.525-0.219-1.62-0.744-1.62-0.744c-2.934-1.62-7.094-4.904-7.05-7.094c0-0.744,1.708-1.971,3.153-2.015
	c2.014,0,3.634-1.664,3.634-3.678V57.4l-0.744-3.196l-0.044-0.088c-0.525-1.751-1.883-7.707,2.759-10.378l4.028-1.927l-1.445-3.021
	l-4.116,1.971l-0.131,0.044c-4.598,2.627-6.218,7.926-4.379,14.231l0.613,2.715c-0.043,0.088-0.131,0.175-0.263,0.175
	c-1.357,0-2.89,0.526-4.116,1.401c-0.263,0.176-0.481,0.351-0.7,0.569c-1.358-1.226-3.328-1.927-4.861-1.883
	c-0.131,0-0.219-0.088-0.263-0.175l0.613-2.715c1.795-6.306,0.131-11.604-4.51-14.188l-4.204-1.97l-1.401,3.021l4.029,1.883
	c4.642,2.627,3.372,8.582,2.846,10.378l-0.744,3.284v0.175c0,2.015,1.664,3.635,3.678,3.635c1.401,0,3.153,1.183,3.153,1.971
	c0.043,2.189-4.073,5.474-7.006,7.138c-0.263,0.131-0.569,0.307-0.832,0.438c-0.963,0.569-2.409,1.183-4.116,1.183
	c-0.438,0-2.014,0.044-3.985-0.701c-3.284-1.27-5.999-4.379-7.707-9.107c-1.664-4.511-1.795-9.108-0.394-13.706
	c0.394-1.401,1.357-3.46,1.314-3.504c2.146-4.598,5.692-8.889,10.247-12.523c0.087-0.044,6.831-5.299,12.436-9.021l-7.619-5.167
	h-4.642c0,0-0.394,0-0.613,0l0,0l0,0c-4.51,0.438-8.451,2.146-11.604,5.167c-3.197,2.934-5.124,8.407-4.729,13.662
	c0.175,2.233,0.701,4.292,1.577,6.219c0.525-1.052,1.226-2.409,2.146-3.985c-0.219-0.876-0.35-1.708-0.394-2.496
	c-0.307-4.204,1.182-8.714,3.634-10.947c2.627-2.496,5.868-3.897,9.59-4.291l9.415-0.044c-5.386,3.678-11.167,8.188-11.254,8.232
	c-3.766,3.021-6.875,6.394-9.152,10.071c-1.445,2.408-2.847,5.518-2.803,5.562c-2.277,5.955-2.365,12.13-0.263,17.909
	c2.627,7.182,6.7,9.984,9.677,11.079c1.445,0.525,3.021,0.788,4.598,0.788c2.408,0,4.51-0.788,4.466-0.788
	c0.701-0.263,2.014-0.744,2.671-1.139l0,0c0.613-0.351,4.729-2.715,7.05-5.824c2.321,3.021,6.306,5.299,7.05,5.737
	c0,0,1.795,1.051,3.24,1.488c1.62,0.438,3.372,0.438,3.941,0.438c1.577,0,3.109-0.306,4.598-0.831
	c2.978-1.139,7.05-3.985,9.59-11.167c1.839-5.123,1.927-10.509,0.35-15.808C60.079,48.293,59.203,49.3,58.064,50.306"/>
<path id="path915" inkscape:connector-curvature="0" fill="#00C81E" d="M24.741,17.334l10.641,7.619
	c0.131,0.087,0.832,0.525,0.832,0.525c4.86,3.328,9.59,6.919,9.633,6.962c4.029,3.109,7.226,6.788,9.458,10.729
	c0.92-1.313,1.445-2.759,1.708-3.678c-2.321-3.547-5.386-6.831-9.108-9.722c-0.043-0.044-4.248-3.24-8.845-6.437
	c-1.927-1.183-7.62-5.036-7.62-5.036c-2.715-1.752-6.612-5.342-6.612-5.342c-1.445-1.401-1.621-2.935,0.131-2.935h3.416V6.692
	h-3.372c-5.474,0.044-6.306,4.555-3.328,7.751C22.814,15.713,24.741,17.334,24.741,17.334"/>
<path id="path917" inkscape:connector-curvature="0" fill="#00C81E" d="M24.741,17.334l10.641,7.619
	c0.131,0.087,0.832,0.525,0.832,0.525c4.86,3.328,9.59,6.919,9.633,6.962c4.029,3.109,7.226,6.788,9.458,10.729
	c0.92-1.313,1.445-2.759,1.708-3.678c-2.321-3.547-5.386-6.831-9.108-9.722c-0.043-0.044-4.248-3.24-8.845-6.437
	c-1.927-1.183-7.62-5.036-7.62-5.036c-2.715-1.752-6.612-5.342-6.612-5.342c-1.445-1.401-1.621-2.935,0.131-2.935h3.416V6.692
	h-3.372c-5.474,0.044-6.306,4.555-3.328,7.751C22.814,15.713,24.741,17.334,24.741,17.334"/>
<path id="path919" inkscape:connector-curvature="0" fill="#00C81E" d="M39.892,75.661c-2.015,1.664-5.124,2.364-7.838,2.408
	c-2.671-0.044-5.693-0.7-7.707-2.233c-0.919,0.351-2.277,0.832-3.634,1.139c1.226,1.489,2.934,2.627,5.123,3.415
	c2.233,0.789,4.467,1.008,5.912,1.052l0,0c0.131,0,0.219,0,0.351,0s0.263,0,0.394,0l0,0c1.445-0.044,3.678-0.307,5.912-1.095
	c2.189-0.788,3.897-1.971,5.123-3.504C42.038,76.493,40.724,76.01,39.892,75.661"/>
<path id="path921" inkscape:connector-curvature="0" fill="#00C81E" d="M39.892,75.661c-2.015,1.664-5.124,2.364-7.838,2.408
	c-2.671-0.044-5.693-0.7-7.707-2.233c-0.919,0.351-2.277,0.832-3.634,1.139c1.226,1.489,2.934,2.627,5.123,3.415
	c2.233,0.789,4.467,1.008,5.912,1.052l0,0c0.131,0,0.219,0,0.351,0s0.263,0,0.394,0l0,0c1.445-0.044,3.678-0.307,5.912-1.095
	c2.189-0.788,3.897-1.971,5.123-3.504C42.038,76.493,40.724,76.01,39.892,75.661"/>
<path id="path923" inkscape:connector-curvature="0" fill="#00C81E" d="M57.846,23.289c-3.153-2.891-6.963-4.598-11.342-5.036
	l-0.394-0.044c-0.219,0-0.613,0-0.613,0l-7.707,0.044c0.788-0.613,1.577-1.226,2.365-1.883c0,0,0.131-0.044,0.481-0.394
	c0.351-0.307,0.963-1.052,0.963-1.052c0.175-0.175,0.351-0.394,0.569-0.612c3.021-3.197,2.146-7.707-3.328-7.707h-3.372v3.328h3.416
	c1.839,0,1.27,1.576,0,3.196c-1.708,1.488-3.547,2.89-5.518,4.247c2.321,1.664,4.686,3.153,6.394,4.204l6.218-0.044
	c3.722,0.351,6.962,1.752,9.634,4.204c2.452,2.233,3.985,6.699,3.722,10.903c-0.088,1.27-0.351,2.803-0.919,4.335
	c-0.613,1.62-1.708,3.81-3.635,5.343l-0.044,0.044c-0.481,0.438-0.963,0.832-1.532,1.226c-8.802,6.175-9.458,14.057-9.809,18.261
	c-0.044,0.35-0.044,0.7-0.087,1.007c0,0.175-0.044,0.394-0.044,0.569c-0.044,0.525-0.087,1.182-0.219,1.839
	c0.832,0.438,2.014,0.832,3.284,0.701c0.131-0.876,0.219-1.621,0.263-2.277c0-0.176,0.043-0.395,0.043-0.525
	c0.044-0.351,0.044-0.701,0.088-1.095c0.35-4.16,0.919-10.51,8.32-15.765c0.044-0.044,0.131-0.131,0.175-0.175
	c4.072-2.934,5.649-6.48,5.649-6.524c0.043-0.088,0.087-0.132,0.131-0.176c1.007-2.058,1.576-4.335,1.751-6.699
	C63.013,31.652,61.042,26.178,57.846,23.289"/>
<path id="path925" inkscape:connector-curvature="0" fill="#00C81E" d="M57.846,23.289c-3.153-2.891-6.963-4.598-11.342-5.036
	l-0.394-0.044c-0.219,0-0.613,0-0.613,0l-7.707,0.044c0.788-0.613,1.577-1.226,2.365-1.883c0,0,0.131-0.044,0.481-0.394
	c0.351-0.307,0.963-1.052,0.963-1.052c0.175-0.175,0.351-0.394,0.569-0.612c3.021-3.197,2.146-7.707-3.328-7.707h-3.372v3.328h3.416
	c1.839,0,1.27,1.576,0,3.196c-1.708,1.488-3.547,2.89-5.518,4.247c2.321,1.664,4.686,3.153,6.394,4.204l6.218-0.044
	c3.722,0.351,6.962,1.752,9.634,4.204c2.452,2.233,3.985,6.699,3.722,10.903c-0.088,1.27-0.351,2.803-0.919,4.335
	c-0.613,1.62-1.708,3.81-3.635,5.343l-0.044,0.044c-0.481,0.438-0.963,0.832-1.532,1.226c-8.802,6.175-9.458,14.057-9.809,18.261
	c-0.044,0.35-0.044,0.7-0.087,1.007c0,0.175-0.044,0.394-0.044,0.569c-0.044,0.525-0.087,1.182-0.219,1.839
	c0.832,0.438,2.014,0.832,3.284,0.701c0.131-0.876,0.219-1.621,0.263-2.277c0-0.176,0.043-0.395,0.043-0.525
	c0.044-0.351,0.044-0.701,0.088-1.095c0.35-4.16,0.919-10.51,8.32-15.765c0.044-0.044,0.131-0.131,0.175-0.175
	c4.072-2.934,5.649-6.48,5.649-6.524c0.043-0.088,0.087-0.132,0.131-0.176c1.007-2.058,1.576-4.335,1.751-6.699
	C63.013,31.652,61.042,26.178,57.846,23.289"/>
<path id="path927" inkscape:connector-curvature="0" fill="#00C81E" d="M21.063,69.574c-0.131-0.7-0.175-1.401-0.263-1.927
	c0-0.219-0.044-0.395-0.044-0.569c-0.043-0.307-0.087-0.657-0.087-1.007c-0.394-4.204-1.139-12.086-9.984-18.173
	c-0.613-0.395-1.139-0.832-1.62-1.27c-0.525,1.313-0.876,2.539-1.051,3.459c0.263,0.175,0.482,0.395,0.745,0.569
	c7.576,5.211,8.145,11.561,8.539,15.721c0.043,0.394,0.087,0.744,0.087,1.095c0,0.175,0.044,0.35,0.044,0.525
	c0.043,0.612,0.131,1.401,0.306,2.233C19.048,70.362,20.187,70.011,21.063,69.574"/>
<path id="path929" inkscape:connector-curvature="0" fill="#00C81E" d="M21.063,69.574c-0.131-0.7-0.175-1.401-0.263-1.927
	c0-0.219-0.044-0.395-0.044-0.569c-0.043-0.307-0.087-0.657-0.087-1.007c-0.394-4.204-1.139-12.086-9.984-18.173
	c-0.613-0.395-1.139-0.832-1.62-1.27c-0.525,1.313-0.876,2.539-1.051,3.459c0.263,0.175,0.482,0.395,0.745,0.569
	c7.576,5.211,8.145,11.561,8.539,15.721c0.043,0.394,0.087,0.744,0.087,1.095c0,0.175,0.044,0.35,0.044,0.525
	c0.043,0.612,0.131,1.401,0.306,2.233C19.048,70.362,20.187,70.011,21.063,69.574"/>
</svg>
