<svg enable-background="new -10.113 -0.78 84 84" height="84" viewBox="-10.113 -.78 84 84" width="84" xmlns="http://www.w3.org/2000/svg"><g fill="#00c81e"><path d="m31.878 5.292c1.183 0 2.146-.964 2.146-2.146s-.963-2.146-2.189-2.146c-1.183 0-2.146.964-2.146 2.146.044 1.182 1.007 2.146 2.189 2.146"/><path d="m31.878 5.292c1.183 0 2.146-.964 2.146-2.146s-.963-2.146-2.189-2.146c-1.183 0-2.146.964-2.146 2.146.044 1.182 1.007 2.146 2.189 2.146"/><path d="m16.333 16.502h4.335s-.701-.701-3.372-3.547c-1.533-1.621-1.664-2.891.263-2.891h.438l2.19-3.284s-1.883-.044-2.671-.044c-5.167 0-6.087 5.08-3.503 7.532 1.97 1.795 2.32 2.234 2.32 2.234"/><path d="m16.333 16.502h4.335s-.701-.701-3.372-3.547c-1.533-1.621-1.664-2.891.263-2.891h.438l2.19-3.284s-1.883-.044-2.671-.044c-5.167 0-6.087 5.08-3.503 7.532 1.97 1.795 2.32 2.234 2.32 2.234"/><path d="m46.241 9.933c1.927 0 1.795 1.27.263 2.89-2.671 2.847-3.328 3.547-3.328 3.547h4.335s.394-.394 2.321-2.277c2.583-2.452 1.62-7.531-3.503-7.531-.832 0-2.671.088-2.671.088l2.189 3.284h.394z"/><path d="m46.241 9.933c1.927 0 1.795 1.27.263 2.89-2.671 2.847-3.328 3.547-3.328 3.547h4.335s.394-.394 2.321-2.277c2.583-2.452 1.62-7.531-3.503-7.531-.832 0-2.671.088-2.671.088l2.189 3.284h.394z"/><path d="m31.922 16.282 1.664-1.444-.044-8.189h-3.328l.044 8.233z"/><path d="m31.922 16.282 1.664-1.444-.044-8.189h-3.328l.044 8.233z"/><path d="m58.064 50.306c.832 3.941.569 7.882-.788 11.735-1.708 4.729-4.335 7.927-7.62 9.152-.744.263-2.102.7-3.81.744-1.095 0-2.54-.394-3.459-.832-.525-.219-1.62-.744-1.62-.744-2.934-1.62-7.094-4.904-7.05-7.094 0-.744 1.708-1.971 3.153-2.015 2.014 0 3.634-1.664 3.634-3.678v-.174l-.744-3.196-.044-.088c-.525-1.751-1.883-7.707 2.759-10.378l4.028-1.927-1.445-3.021-4.116 1.971-.131.044c-4.598 2.627-6.218 7.926-4.379 14.231l.613 2.715c-.043.088-.131.175-.263.175-1.357 0-2.89.526-4.116 1.401-.263.176-.481.351-.7.569-1.358-1.226-3.328-1.927-4.861-1.883-.131 0-.219-.088-.263-.175l.613-2.715c1.795-6.306.131-11.604-4.51-14.188l-4.204-1.97-1.401 3.021 4.029 1.883c4.642 2.627 3.372 8.582 2.846 10.378l-.744 3.284v.175c0 2.015 1.664 3.635 3.678 3.635 1.401 0 3.153 1.183 3.153 1.971.043 2.189-4.073 5.474-7.006 7.138-.263.131-.569.307-.832.438-.963.569-2.409 1.183-4.116 1.183-.438 0-2.014.044-3.985-.701-3.284-1.27-5.999-4.379-7.707-9.107-1.664-4.511-1.795-9.108-.394-13.706.394-1.401 1.357-3.46 1.314-3.504 2.146-4.598 5.692-8.889 10.247-12.523.087-.044 6.831-5.299 12.436-9.021l-7.619-5.167h-4.642s-.394 0-.613 0c-4.51.438-8.451 2.146-11.604 5.167-3.197 2.934-5.124 8.407-4.729 13.662.175 2.233.701 4.292 1.577 6.219.525-1.052 1.226-2.409 2.146-3.985-.219-.876-.35-1.708-.394-2.496-.307-4.204 1.182-8.714 3.634-10.947 2.627-2.496 5.868-3.897 9.59-4.291l9.415-.044c-5.386 3.678-11.167 8.188-11.254 8.232-3.766 3.021-6.875 6.394-9.152 10.071-1.445 2.408-2.847 5.518-2.803 5.562-2.277 5.955-2.365 12.13-.263 17.909 2.627 7.182 6.7 9.984 9.677 11.079 1.445.525 3.021.788 4.598.788 2.408 0 4.51-.788 4.466-.788.701-.263 2.014-.744 2.671-1.139.613-.351 4.729-2.715 7.05-5.824 2.321 3.021 6.306 5.299 7.05 5.737 0 0 1.795 1.051 3.24 1.488 1.62.438 3.372.438 3.941.438 1.577 0 3.109-.306 4.598-.831 2.978-1.139 7.05-3.985 9.59-11.167 1.839-5.123 1.927-10.509.35-15.808-.7.919-1.576 1.926-2.715 2.932"/><path d="m58.064 50.306c.832 3.941.569 7.882-.788 11.735-1.708 4.729-4.335 7.927-7.62 9.152-.744.263-2.102.7-3.81.744-1.095 0-2.54-.394-3.459-.832-.525-.219-1.62-.744-1.62-.744-2.934-1.62-7.094-4.904-7.05-7.094 0-.744 1.708-1.971 3.153-2.015 2.014 0 3.634-1.664 3.634-3.678v-.174l-.744-3.196-.044-.088c-.525-1.751-1.883-7.707 2.759-10.378l4.028-1.927-1.445-3.021-4.116 1.971-.131.044c-4.598 2.627-6.218 7.926-4.379 14.231l.613 2.715c-.043.088-.131.175-.263.175-1.357 0-2.89.526-4.116 1.401-.263.176-.481.351-.7.569-1.358-1.226-3.328-1.927-4.861-1.883-.131 0-.219-.088-.263-.175l.613-2.715c1.795-6.306.131-11.604-4.51-14.188l-4.204-1.97-1.401 3.021 4.029 1.883c4.642 2.627 3.372 8.582 2.846 10.378l-.744 3.284v.175c0 2.015 1.664 3.635 3.678 3.635 1.401 0 3.153 1.183 3.153 1.971.043 2.189-4.073 5.474-7.006 7.138-.263.131-.569.307-.832.438-.963.569-2.409 1.183-4.116 1.183-.438 0-2.014.044-3.985-.701-3.284-1.27-5.999-4.379-7.707-9.107-1.664-4.511-1.795-9.108-.394-13.706.394-1.401 1.357-3.46 1.314-3.504 2.146-4.598 5.692-8.889 10.247-12.523.087-.044 6.831-5.299 12.436-9.021l-7.619-5.167h-4.642s-.394 0-.613 0c-4.51.438-8.451 2.146-11.604 5.167-3.197 2.934-5.124 8.407-4.729 13.662.175 2.233.701 4.292 1.577 6.219.525-1.052 1.226-2.409 2.146-3.985-.219-.876-.35-1.708-.394-2.496-.307-4.204 1.182-8.714 3.634-10.947 2.627-2.496 5.868-3.897 9.59-4.291l9.415-.044c-5.386 3.678-11.167 8.188-11.254 8.232-3.766 3.021-6.875 6.394-9.152 10.071-1.445 2.408-2.847 5.518-2.803 5.562-2.277 5.955-2.365 12.13-.263 17.909 2.627 7.182 6.7 9.984 9.677 11.079 1.445.525 3.021.788 4.598.788 2.408 0 4.51-.788 4.466-.788.701-.263 2.014-.744 2.671-1.139.613-.351 4.729-2.715 7.05-5.824 2.321 3.021 6.306 5.299 7.05 5.737 0 0 1.795 1.051 3.24 1.488 1.62.438 3.372.438 3.941.438 1.577 0 3.109-.306 4.598-.831 2.978-1.139 7.05-3.985 9.59-11.167 1.839-5.123 1.927-10.509.35-15.808-.7.919-1.576 1.926-2.715 2.932"/><path d="m24.741 17.334 10.641 7.619c.131.087.832.525.832.525 4.86 3.328 9.59 6.919 9.633 6.962 4.029 3.109 7.226 6.788 9.458 10.729.92-1.313 1.445-2.759 1.708-3.678-2.321-3.547-5.386-6.831-9.108-9.722-.043-.044-4.248-3.24-8.845-6.437-1.927-1.183-7.62-5.036-7.62-5.036-2.715-1.752-6.612-5.342-6.612-5.342-1.445-1.401-1.621-2.935.131-2.935h3.416v-3.327h-3.372c-5.474.044-6.306 4.555-3.328 7.751 1.139 1.27 3.066 2.891 3.066 2.891"/><path d="m24.741 17.334 10.641 7.619c.131.087.832.525.832.525 4.86 3.328 9.59 6.919 9.633 6.962 4.029 3.109 7.226 6.788 9.458 10.729.92-1.313 1.445-2.759 1.708-3.678-2.321-3.547-5.386-6.831-9.108-9.722-.043-.044-4.248-3.24-8.845-6.437-1.927-1.183-7.62-5.036-7.62-5.036-2.715-1.752-6.612-5.342-6.612-5.342-1.445-1.401-1.621-2.935.131-2.935h3.416v-3.327h-3.372c-5.474.044-6.306 4.555-3.328 7.751 1.139 1.27 3.066 2.891 3.066 2.891"/><path d="m39.892 75.661c-2.015 1.664-5.124 2.364-7.838 2.408-2.671-.044-5.693-.7-7.707-2.233-.919.351-2.277.832-3.634 1.139 1.226 1.489 2.934 2.627 5.123 3.415 2.233.789 4.467 1.008 5.912 1.052h.351s.263 0 .394 0c1.445-.044 3.678-.307 5.912-1.095 2.189-.788 3.897-1.971 5.123-3.504-1.49-.35-2.804-.833-3.636-1.182"/><path d="m39.892 75.661c-2.015 1.664-5.124 2.364-7.838 2.408-2.671-.044-5.693-.7-7.707-2.233-.919.351-2.277.832-3.634 1.139 1.226 1.489 2.934 2.627 5.123 3.415 2.233.789 4.467 1.008 5.912 1.052h.351s.263 0 .394 0c1.445-.044 3.678-.307 5.912-1.095 2.189-.788 3.897-1.971 5.123-3.504-1.49-.35-2.804-.833-3.636-1.182"/><path d="m57.846 23.289c-3.153-2.891-6.963-4.598-11.342-5.036l-.394-.044c-.219 0-.613 0-.613 0l-7.707.044c.788-.613 1.577-1.226 2.365-1.883 0 0 .131-.044.481-.394.351-.307.963-1.052.963-1.052.175-.175.351-.394.569-.612 3.021-3.197 2.146-7.707-3.328-7.707h-3.372v3.328h3.416c1.839 0 1.27 1.576 0 3.196-1.708 1.488-3.547 2.89-5.518 4.247 2.321 1.664 4.686 3.153 6.394 4.204l6.218-.044c3.722.351 6.962 1.752 9.634 4.204 2.452 2.233 3.985 6.699 3.722 10.903-.088 1.27-.351 2.803-.919 4.335-.613 1.62-1.708 3.81-3.635 5.343l-.044.044c-.481.438-.963.832-1.532 1.226-8.802 6.175-9.458 14.057-9.809 18.261-.044.35-.044.7-.087 1.007 0 .175-.044.394-.044.569-.044.525-.087 1.182-.219 1.839.832.438 2.014.832 3.284.701.131-.876.219-1.621.263-2.277 0-.176.043-.395.043-.525.044-.351.044-.701.088-1.095.35-4.16.919-10.51 8.32-15.765l.175-.175c4.072-2.934 5.649-6.48 5.649-6.524.043-.088.087-.132.131-.176 1.007-2.058 1.576-4.335 1.751-6.699.264-5.08-1.707-10.554-4.903-13.443"/><path d="m57.846 23.289c-3.153-2.891-6.963-4.598-11.342-5.036l-.394-.044c-.219 0-.613 0-.613 0l-7.707.044c.788-.613 1.577-1.226 2.365-1.883 0 0 .131-.044.481-.394.351-.307.963-1.052.963-1.052.175-.175.351-.394.569-.612 3.021-3.197 2.146-7.707-3.328-7.707h-3.372v3.328h3.416c1.839 0 1.27 1.576 0 3.196-1.708 1.488-3.547 2.89-5.518 4.247 2.321 1.664 4.686 3.153 6.394 4.204l6.218-.044c3.722.351 6.962 1.752 9.634 4.204 2.452 2.233 3.985 6.699 3.722 10.903-.088 1.27-.351 2.803-.919 4.335-.613 1.62-1.708 3.81-3.635 5.343l-.044.044c-.481.438-.963.832-1.532 1.226-8.802 6.175-9.458 14.057-9.809 18.261-.044.35-.044.7-.087 1.007 0 .175-.044.394-.044.569-.044.525-.087 1.182-.219 1.839.832.438 2.014.832 3.284.701.131-.876.219-1.621.263-2.277 0-.176.043-.395.043-.525.044-.351.044-.701.088-1.095.35-4.16.919-10.51 8.32-15.765l.175-.175c4.072-2.934 5.649-6.48 5.649-6.524.043-.088.087-.132.131-.176 1.007-2.058 1.576-4.335 1.751-6.699.264-5.08-1.707-10.554-4.903-13.443"/><path d="m21.063 69.574c-.131-.7-.175-1.401-.263-1.927 0-.219-.044-.395-.044-.569-.043-.307-.087-.657-.087-1.007-.394-4.204-1.139-12.086-9.984-18.173-.613-.395-1.139-.832-1.62-1.27-.525 1.313-.876 2.539-1.051 3.459.263.175.482.395.745.569 7.576 5.211 8.145 11.561 8.539 15.721.043.394.087.744.087 1.095 0 .175.044.35.044.525.043.612.131 1.401.306 2.233 1.313.132 2.452-.219 3.328-.656"/><path d="m21.063 69.574c-.131-.7-.175-1.401-.263-1.927 0-.219-.044-.395-.044-.569-.043-.307-.087-.657-.087-1.007-.394-4.204-1.139-12.086-9.984-18.173-.613-.395-1.139-.832-1.62-1.27-.525 1.313-.876 2.539-1.051 3.459.263.175.482.395.745.569 7.576 5.211 8.145 11.561 8.539 15.721.043.394.087.744.087 1.095 0 .175.044.35.044.525.043.612.131 1.401.306 2.233 1.313.132 2.452-.219 3.328-.656"/></g></svg>