<svg enable-background="new 0 0 512 512" viewBox="0 0 512 512" xmlns="http://www.w3.org/2000/svg"><circle cx="256" cy="256" fill="#fd5c63" r="256"/><path d="m361.2 297.9c-1.9-4.3-3.9-8.4-5.6-12.3l-.2-.2c-16.7-36-34.5-72.6-53.3-108.6l-.7-1.4c-1.9-3.6-3.9-7.4-5.8-11.3-2.4-4.3-4.8-8.9-8.7-13.2-7.7-9.6-18.8-14.9-30.6-14.9-12.1 0-22.9 5.3-30.9 14.4-3.6 4.3-6.3 8.9-8.7 13.2-1.9 3.8-3.9 7.7-5.8 11.3l-.7 1.4c-18.6 36-36.7 72.6-53.3 108.6l-.2.5c-1.7 3.8-3.6 7.9-5.6 12.3-1.2 2.6-2.4 5.5-3.6 8.6-3.1 8.9-4.1 17.3-2.9 25.9 2.7 18 14.7 33.2 31.4 39.9 6.3 2.6 12.8 3.8 19.5 3.8 1.9 0 4.3-.2 6.3-.5 8-1 16.2-3.6 24.1-8.2 9.9-5.5 19.3-13.5 29.9-25 10.6 11.5 20.3 19.5 29.9 25 8 4.6 16.2 7.2 24.1 8.2 1.9.2 4.3.5 6.3.5 6.8 0 13.5-1.2 19.5-3.8 16.9-6.7 28.7-22.1 31.4-39.9 1.9-8.4 1-16.8-2.2-25.7-1.2-2.8-2.4-5.9-3.6-8.6zm-105.2 21.2c-13-16.3-21.5-31.7-24.4-44.7-1.2-5.5-1.4-10.3-.7-14.7.5-3.8 1.9-7.2 3.9-10.1 4.6-6.5 12.3-10.6 21.2-10.6s16.9 3.8 21.2 10.6c1.9 2.9 3.4 6.3 3.9 10.1.7 4.3.5 9.4-.7 14.7-2.9 12.7-11.4 28.1-24.4 44.7zm96.3 11.3c-1.7 12.5-10.1 23.3-22 28.1-5.8 2.4-12.1 3.1-18.3 2.4-6-.7-12.1-2.6-18.3-6.2-8.7-4.8-17.4-12.3-27.5-23.3 15.9-19.5 25.6-37.2 29.2-53.1 1.7-7.4 1.9-14.2 1.2-20.4-1-6-3.1-11.5-6.5-16.3-7.5-10.8-20-17.1-34-17.1s-26.5 6.5-34 17.1c-3.4 4.8-5.6 10.3-6.5 16.3-1 6.2-.7 13.2 1.2 20.4 3.6 15.9 13.5 33.9 29.2 53.3-9.9 11.1-18.8 18.5-27.5 23.3-6.3 3.6-12.3 5.5-18.3 6.2-6.5.7-12.8-.2-18.3-2.4-11.8-4.8-20.3-15.6-22-28.1-.7-6-.2-12 2.2-18.7.7-2.4 1.9-4.8 3.1-7.7 1.7-3.8 3.6-7.9 5.6-12l.2-.5c16.7-35.8 34.5-72.3 53.1-107.9l.7-1.4c1.9-3.6 3.9-7.4 5.8-11 1.9-3.8 4.1-7.4 6.8-10.6 5.1-5.8 11.8-8.9 19.3-8.9s14.2 3.1 19.3 8.9c2.7 3.1 4.8 6.7 6.8 10.6 1.9 3.6 3.9 7.4 5.8 11l.7 1.4c18.3 35.8 36.2 72.3 52.9 108.1v.2c1.9 3.8 3.6 8.2 5.6 12 1.2 2.9 2.4 5.3 3.1 7.7 1.6 6.3 2.4 12.3 1.4 18.6z" fill="#fff"/></svg>