<?xml version="1.0" ?><!DOCTYPE svg  PUBLIC '-//W3C//DTD SVG 1.1//EN'  'http://www.w3.org/Graphics/SVG/1.1/DTD/svg11.dtd'><svg enable-background="new 0 0 512 512" id="Layer_1" version="1.1" viewBox="0 0 512 512" xml:space="preserve" xmlns="http://www.w3.org/2000/svg" xmlns:xlink="http://www.w3.org/1999/xlink"><circle cx="256" cy="256" fill="#FD5C63" r="256"/><g id="Layer_2"><g><path d="M361.2,297.9c-1.9-4.3-3.9-8.4-5.6-12.3l-0.2-0.2c-16.7-36-34.5-72.6-53.3-108.6l-0.7-1.4    c-1.9-3.6-3.9-7.4-5.8-11.3c-2.4-4.3-4.8-8.9-8.7-13.2c-7.7-9.6-18.8-14.9-30.6-14.9c-12.1,0-22.9,5.3-30.9,14.4    c-3.6,4.3-6.3,8.9-8.7,13.2c-1.9,3.8-3.9,7.7-5.8,11.3l-0.7,1.4c-18.6,36-36.7,72.6-53.3,108.6l-0.2,0.5    c-1.7,3.8-3.6,7.9-5.6,12.3c-1.2,2.6-2.4,5.5-3.6,8.6c-3.1,8.9-4.1,17.3-2.9,25.9c2.7,18,14.7,33.2,31.4,39.9    c6.3,2.6,12.8,3.8,19.5,3.8c1.9,0,4.3-0.2,6.3-0.5c8-1,16.2-3.6,24.1-8.2c9.9-5.5,19.3-13.5,29.9-25c10.6,11.5,20.3,19.5,29.9,25    c8,4.6,16.2,7.2,24.1,8.2c1.9,0.2,4.3,0.5,6.3,0.5c6.8,0,13.5-1.2,19.5-3.8c16.9-6.7,28.7-22.1,31.4-39.9c1.9-8.4,1-16.8-2.2-25.7    C363.6,303.7,362.4,300.6,361.2,297.9z M256,319.1c-13-16.3-21.5-31.7-24.4-44.7c-1.2-5.5-1.4-10.3-0.7-14.7    c0.5-3.8,1.9-7.2,3.9-10.1c4.6-6.5,12.3-10.6,21.2-10.6c8.9,0,16.9,3.8,21.2,10.6c1.9,2.9,3.4,6.3,3.9,10.1    c0.7,4.3,0.5,9.4-0.7,14.7C277.5,287.1,269,302.5,256,319.1z M352.3,330.4c-1.7,12.5-10.1,23.3-22,28.1    c-5.8,2.4-12.1,3.1-18.3,2.4c-6-0.7-12.1-2.6-18.3-6.2c-8.7-4.8-17.4-12.3-27.5-23.3c15.9-19.5,25.6-37.2,29.2-53.1    c1.7-7.4,1.9-14.2,1.2-20.4c-1-6-3.1-11.5-6.5-16.3c-7.5-10.8-20-17.1-34-17.1c-14,0-26.5,6.5-34,17.1c-3.4,4.8-5.6,10.3-6.5,16.3    c-1,6.2-0.7,13.2,1.2,20.4c3.6,15.9,13.5,33.9,29.2,53.3c-9.9,11.1-18.8,18.5-27.5,23.3c-6.3,3.6-12.3,5.5-18.3,6.2    c-6.5,0.7-12.8-0.2-18.3-2.4c-11.8-4.8-20.3-15.6-22-28.1c-0.7-6-0.2-12,2.2-18.7c0.7-2.4,1.9-4.8,3.1-7.7c1.7-3.8,3.6-7.9,5.6-12    l0.2-0.5c16.7-35.8,34.5-72.3,53.1-107.9l0.7-1.4c1.9-3.6,3.9-7.4,5.8-11c1.9-3.8,4.1-7.4,6.8-10.6c5.1-5.8,11.8-8.9,19.3-8.9    c7.5,0,14.2,3.1,19.3,8.9c2.7,3.1,4.8,6.7,6.8,10.6c1.9,3.6,3.9,7.4,5.8,11l0.7,1.4c18.3,35.8,36.2,72.3,52.9,108.1v0.2    c1.9,3.8,3.6,8.2,5.6,12c1.2,2.9,2.4,5.3,3.1,7.7C352.5,318.1,353.3,324.1,352.3,330.4z" fill="#FFFFFF"/></g></g></svg>