<?xml version="1.0" encoding="utf-8"?>
<!-- Generator: Adobe Illustrator 16.0.0, SVG Export Plug-In . SVG Version: 6.00 Build 0)  -->
<!DOCTYPE svg PUBLIC "-//W3C//DTD SVG 1.1//EN" "http://www.w3.org/Graphics/SVG/1.1/DTD/svg11.dtd">
<svg version="1.1" id="Layer_1" xmlns="http://www.w3.org/2000/svg" xmlns:xlink="http://www.w3.org/1999/xlink" x="0px" y="0px"
	 width="2850px" height="2850px" viewBox="-75 -75 2850 2850" enable-background="new -75 -75 2850 2850" xml:space="preserve">
<path fill="#FF9900" d="M2247.307,2142.436C1235.311,2624.061,607.254,2221.1,205.216,1976.35
	c-24.878-15.426-67.162,3.605-30.475,45.746c133.939,162.402,572.886,553.844,1145.838,553.844
	c573.35,0,914.438-312.846,957.104-367.418c42.379-54.11,12.443-83.963-30.389-66.086H2247.307z M2531.523,1985.477
	c-27.179-35.389-165.252-41.983-252.146-31.313c-87.029,10.367-217.66,63.557-206.304,95.492c5.827,11.963,17.724,6.598,77.51,1.221
	c59.949-5.98,227.894-27.176,262.888,18.57c35.157,46.063-53.563,265.492-69.769,300.883c-15.656,35.389,5.979,44.514,35.389,20.943
	c29.003-23.563,81.511-84.576,116.744-170.926c34.993-86.816,56.334-207.929,35.678-234.873h0.011V1985.477L2531.523,1985.477z"/>
<path fill="#FF9900" d="M2247.307,2142.436C1235.311,2624.061,607.254,2221.1,205.216,1976.35
	c-24.878-15.426-67.162,3.605-30.475,45.746c133.939,162.402,572.886,553.844,1145.838,553.844
	c573.35,0,914.438-312.846,957.104-367.418c42.379-54.11,12.443-83.963-30.389-66.086H2247.307z M2531.523,1985.477
	c-27.179-35.389-165.252-41.983-252.146-31.313c-87.029,10.367-217.66,63.557-206.304,95.492c5.827,11.963,17.724,6.598,77.51,1.221
	c59.949-5.98,227.894-27.176,262.888,18.57c35.157,46.063-53.563,265.492-69.769,300.883c-15.656,35.389,5.979,44.514,35.389,20.943
	c29.003-23.563,81.511-84.576,116.744-170.926c34.993-86.816,56.334-207.929,35.678-234.873h0.011V1985.477L2531.523,1985.477z"/>
<path d="M2144.409,1649.666c-59.306-82.125-122.265-148.729-122.265-300.651V843.521c0-213.97,15.061-410.599-142.797-557.951
	c-124.554-119.534-330.761-161.51-488.615-161.51c-308.401,0-652.838,114.976-725.375,496.367
	c-7.3,40.611,21.896,62.046,48.354,67.989l314.797,33.754c29.195-1.365,50.633-30.106,56.111-59.313
	c26.917-131.394,137.324-194.806,260.955-194.806c66.612,0,142.344,24.641,182.041,84.404
	c45.158,66.604,39.233,157.847,39.233,234.951v41.977c-187.964,21.438-433.868,35.119-609.978,112.688
	c-203.005,87.587-345.812,266.888-345.812,530.122c0,337.145,212.604,505.49,485.423,505.49
	c230.846,0,356.765-54.283,534.688-235.863c59.307,85.315,78.473,126.832,186.139,216.248c24.175,12.776,55.193,11.401,76.64-7.746
	l0.908,0.906c64.776-57.486,182.481-160.146,248.637-215.345C2169.961,1714.002,2165.393,1678.861,2144.409,1649.666z
	 M1506.17,1503.668c-51.555,91.252-133.218,147.363-224.459,147.363c-124.554,0-197.092-94.896-197.092-234.951
	c0-276.475,247.723-326.654,482.23-326.654v70.26C1566.852,1286.056,1570.043,1391.443,1506.17,1503.668z"/>
</svg>
