<svg enable-background="new -75 -75 2850 2850" height="2850" viewBox="-75 -75 2850 2850" width="2850" xmlns="http://www.w3.org/2000/svg"><path d="m2247.307 2142.436c-1011.996 481.625-1640.053 78.664-2042.091-166.086-24.878-15.426-67.162 3.605-30.475 45.746 133.939 162.402 572.886 553.844 1145.838 553.844 573.35 0 914.438-312.846 957.104-367.418 42.379-54.11 12.443-83.963-30.389-66.086zm284.216-156.959c-27.179-35.389-165.252-41.983-252.146-31.313-87.029 10.367-217.66 63.557-206.304 95.492 5.827 11.963 17.724 6.598 77.51 1.221 59.949-5.98 227.894-27.176 262.888 18.57 35.157 46.063-53.563 265.492-69.769 300.883-15.656 35.389 5.979 44.514 35.389 20.943 29.003-23.563 81.511-84.576 116.744-170.926 34.993-86.816 56.334-207.929 35.678-234.873h.011v.003z" fill="#f90"/><path d="m2247.307 2142.436c-1011.996 481.625-1640.053 78.664-2042.091-166.086-24.878-15.426-67.162 3.605-30.475 45.746 133.939 162.402 572.886 553.844 1145.838 553.844 573.35 0 914.438-312.846 957.104-367.418 42.379-54.11 12.443-83.963-30.389-66.086zm284.216-156.959c-27.179-35.389-165.252-41.983-252.146-31.313-87.029 10.367-217.66 63.557-206.304 95.492 5.827 11.963 17.724 6.598 77.51 1.221 59.949-5.98 227.894-27.176 262.888 18.57 35.157 46.063-53.563 265.492-69.769 300.883-15.656 35.389 5.979 44.514 35.389 20.943 29.003-23.563 81.511-84.576 116.744-170.926 34.993-86.816 56.334-207.929 35.678-234.873h.011v.003z" fill="#f90"/><path d="m2144.409 1649.666c-59.306-82.125-122.265-148.729-122.265-300.651v-505.494c0-213.97 15.061-410.599-142.797-557.951-124.554-119.534-330.761-161.51-488.615-161.51-308.401 0-652.838 114.976-725.375 496.367-7.3 40.611 21.896 62.046 48.354 67.989l314.797 33.754c29.195-1.365 50.633-30.106 56.111-59.313 26.917-131.394 137.324-194.806 260.955-194.806 66.612 0 142.344 24.641 182.041 84.404 45.158 66.604 39.233 157.847 39.233 234.951v41.977c-187.964 21.438-433.868 35.119-609.978 112.688-203.005 87.587-345.812 266.888-345.812 530.122 0 337.145 212.604 505.49 485.423 505.49 230.846 0 356.765-54.283 534.688-235.863 59.307 85.315 78.473 126.832 186.139 216.248 24.175 12.776 55.193 11.401 76.64-7.746l.908.906c64.776-57.486 182.481-160.146 248.637-215.345 26.468-21.881 21.9-57.022.916-86.217zm-638.239-145.998c-51.555 91.252-133.218 147.363-224.459 147.363-124.554 0-197.092-94.896-197.092-234.951 0-276.475 247.723-326.654 482.23-326.654v70.26c.003 126.37 3.194 231.757-60.679 343.982z"/></svg>