<svg height="395.9" viewBox="0 0 395.9 395.9" width="395.9" xmlns="http://www.w3.org/2000/svg"><circle cx="197.9" cy="197.9" fill="#ce2540" r="197.9"/><g fill="#fff"><path d="m363.3 228.6c-.6-1-1.4-1.9-2.5-2.4-1-.6-2.2-.9-3.3-.9s-2.3.3-3.3.9-1.9 1.4-2.5 2.4-.9 2.2-.9 3.3c0 1.2.3 2.3.9 3.4.6 1 1.4 1.9 2.5 2.4 1 .6 2.1.9 3.3.9s2.3-.3 3.3-.9 1.8-1.4 2.5-2.4c.6-1 .9-2.2.9-3.4 0-1.1-.3-2.3-.9-3.3zm-.9 6.2c-.5.9-1.2 1.6-2.1 2-.9.5-1.8.7-2.8.7s-1.9-.2-2.8-.7-1.6-1.2-2.1-2c-.5-.9-.8-1.8-.8-2.9 0-1 .3-2 .8-2.8.5-.9 1.2-1.6 2.1-2.1s1.8-.8 2.8-.8 1.9.3 2.8.8 1.6 1.2 2.1 2.1.8 1.8.8 2.8c-.1 1.1-.3 2-.8 2.9z"/><path d="m125.2 156.9c-.7-.1-17.9-2.5-37.8 4.5-18.5 6.5-43.3 22.3-55 61.3-2 6.6 0 15.5 13.7 14.3h51.1c5.7 0 10.4-4.6 10.4-10.4 0-5.7-4.7-10.4-10.4-10.4h-40.2c15.2-32.4 42.2-38.3 56.3-39v49.8c0 5.7 4.6 10.4 10.4 10.4 5.7 0 10.4-4.6 10.4-10.4v-59.8c0-5.2-3.8-9.6-8.9-10.3z"/><path d="m230.2 156.8c.5 0 .1 0 0 0-.3 0-.7 0-.2 0z"/><path d="m230.1 156.8c-13 .3-21.5 4.5-27.6 11.1-5.5-6.1-14.9-11.2-27.6-11.1-14.2-1-38.8 11.8-37 34.9v35.3c0 5.7 4.6 10.4 10.4 10.4s10.4-4.6 10.4-10.4v-35.2c.1-12.2 13.2-14.1 16.2-14.2 14.8-.4 17 12.4 17 14.2v35.2c0 5.7 4.9 10.4 10.6 10.4s10.6-4.6 10.6-10.4v-35.2c.6-13 12.9-14.4 17-14.2 2.4.2 15.5.9 16.2 14.2v35.2c0 5.7 4.6 10.4 10.4 10.4 5.7 0 10.4-4.6 10.4-10.4v-35.3c.4-2-1.2-33.8-37-34.9z"/><path d="m349.3 203.6c-5.1-2.6-11.4-.6-14 4.6-3.9 7.6-11.6 12.3-20.1 12.3-6 0-11.7-2.3-15.9-6.6-4.3-4.3-6.6-9.9-6.6-15.9s2.3-11.7 6.6-15.9c4.3-4.3 9.9-6.6 15.9-6.6 9.1 0 17.4 5.1 20.6 12.6 2.3 5.3 8.4 7.7 13.7 5.4s7.7-8.4 5.4-13.7c-6.5-15-22.5-25.1-39.7-25.1-23.9 0-43.3 19.4-43.3 43.3 0 11.6 4.5 22.4 12.7 30.6s19 12.7 30.6 12.7c16.4 0 31.2-9.1 38.6-23.7 2.7-5.2.6-11.5-4.5-14z"/><path d="m359.4 233.6c-.3-.6-.6-1-.9-1.2.5-.2 1-.6 1.2-1 .3-.4.4-.9.4-1.3s-.1-.8-.3-1.1c-.2-.4-.5-.6-.8-.8s-.8-.3-1.5-.3h-2.6v8.2h1.3v-3.5h1c.1 0 .4.3.7.8l.3.5 1.1 2.1h1.5zm-2.3-2h-.9v-2.8h1c.5 0 .8.1 1 .2s.3.3.4.5.1.4.1.6c0 .4-.1.7-.4 1-.2.4-.6.5-1.2.5z"/></g></svg>