<svg height="2500" viewBox="0 0 192.756 192.756" width="2500" xmlns="http://www.w3.org/2000/svg"><path d="m0 192.756h192.756v-192.756h-192.756z" fill="none"/><g clip-rule="evenodd" fill-rule="evenodd"><path d="m27.177 161.68h-20.845l33.774-94.725h22.824l33.378 94.725h-21.505l-6.068-19.525h-34.96zm11.875-35.885h24.141l-11.74-37.468h-.265z" fill="#cc2131"/><path d="m117.293 161.68h-20.845l33.773-94.725h22.823l33.379 94.725h-21.504l-6.068-19.525h-34.962zm11.873-35.885h24.142l-11.741-37.468h-.263zm-21.248-42.828-9.314-28.682 2.774-7.54 1.482.953c-.528-1.165-.953-2.542-.741-3.177l1.693-4.448 1.378.847c-.529-1.271-.848-2.225-.637-2.859l1.484-4.237 1.482.848c-.636-1.271-.953-2.648-.742-3.282l4.342-11.652 7.838 23.937c1.165 3.706 1.27 4.977.105 8.367zm2.885 16.734c.317.951.423 2.752-.635 3.389-.849.635-1.907.318-1.907.318s.742-1.271.212-1.908l-6.671-7.73h-2.542l-2.33 6.037 1.06 1.801 2.542.74s.74.213.847.955c0 .635-.637 1.057-.637 1.057s.105-.74-.21-.74h-4.767c-.318 0-.424.848-.424.848s-.741-.638-.741-1.378c0-.424 1.111-1.488 1.111-1.488l-1.25-1.465-2.086-.225-8.261-24.676 1.695-.106c-1.059-.637-2.118-1.061-2.33-1.907l-2.013-6.355h1.589c-1.165-.846-2.012-1.27-2.329-2.012l-1.801-6.354 1.483-.212c-1.165-.635-2.225-1.377-2.436-2.117 0 0-.529-1.272-.847-3.178-.211-.317-.53-3.072-.53-3.072l1.906-.212c-.952-.635-1.906-.741-1.906-1.906-.106-2.859 1.165-5.825 1.906-7.943l1.377.953c-.423-1.165-.635-2.435-.529-3.071l2.224-6.037 1.376.848c-.423-1.271-.74-2.543-.529-3.072l3.601-9.745 25.311 77.739c.212.953-.529 2.224-.529 2.224zm-24.571-4.872-.316-1.165c-.425.529-.743 1.165-1.06 1.165h-3.39l-.317-1.165c-.423.529-.741 1.165-.953 1.165h-3.495l8.532-12.114 4.197 12.199z" fill="#1a3b73"/></g></svg>