<?xml version="1.0" encoding="utf-8"?>
<!-- Generator: Adobe Illustrator 16.0.0, SVG Export Plug-In . SVG Version: 6.00 Build 0)  -->
<!DOCTYPE svg PUBLIC "-//W3C//DTD SVG 1.1//EN" "http://www.w3.org/Graphics/SVG/1.1/DTD/svg11.dtd">
<svg version="1.1" id="Layer_1" xmlns:ev="http://www.w3.org/2001/xml-events"
	 xmlns="http://www.w3.org/2000/svg" xmlns:xlink="http://www.w3.org/1999/xlink" x="0px" y="0px" width="180px" height="180px"
	 viewBox="-89.5 310.5 180 180" enable-background="new -89.5 310.5 180 180" xml:space="preserve">
<circle fill="#FFFFFF" cx="0.496" cy="400.5" r="76.824"/>
<path d="M22.496,429.43l1.208-2.143c4.313-7.609,4.313-16.857,4.278-17.43H8.792l-22.151-32.354
	c-5.359-8.085,0.204-14.84,6.41-14.84c4.789,0,8.677,3.78,8.677,8.44c0,0.609-0.065,1.202-0.189,1.773
	c-0.063,0.362-0.15,0.727-0.254,1.105c-0.525,1.823-1.754,3.539-3.629,5.082l9.272,13.241
	c21.452-15.641,11.704-45.759-14.536-45.759c-16.664,0-35.112,18.488-20.24,42.664l2.519,3.882l-3.161,2.525
	c-8.804,7.015-13.074,15.151-13.074,24.854c0,8.566,3.063,15.676,9.38,21.713c6.325,6.053,13.78,9.002,22.782,9.002
	c6.127,0,11.886-1.898,17.63-5.806l3.141-2.142l4.354,6.4h20.295L22.496,429.43z M-10.818,433.426c-3.499,0-7.009-1.524-9.4-4.053
	c-2.339-2.463-3.524-5.478-3.524-8.964c0-2.69,0.988-7.17,5.72-10.544l3.37-2.405L0.296,428.1
	C0.296,428.102-2.988,433.426-10.818,433.426z"/>
</svg>
