<svg enable-background="new -89.5 310.5 180 180" height="180" viewBox="-89.5 310.5 180 180" width="180" xmlns="http://www.w3.org/2000/svg"><circle cx=".496" cy="400.5" fill="#fff" r="76.824"/><path d="m22.496 429.43 1.208-2.143c4.313-7.609 4.313-16.857 4.278-17.43h-19.19l-22.151-32.354c-5.359-8.085.204-14.84 6.41-14.84 4.789 0 8.677 3.78 8.677 8.44 0 .609-.065 1.202-.189 1.773-.063.362-.15.727-.254 1.105-.525 1.823-1.754 3.539-3.629 5.082l9.272 13.241c21.452-15.641 11.704-45.759-14.536-45.759-16.664 0-35.112 18.488-20.24 42.664l2.519 3.882-3.161 2.525c-8.804 7.015-13.074 15.151-13.074 24.854 0 8.566 3.063 15.676 9.38 21.713 6.325 6.053 13.78 9.002 22.782 9.002 6.127 0 11.886-1.898 17.63-5.806l3.141-2.142 4.354 6.4h20.295zm-33.314 3.996c-3.499 0-7.009-1.524-9.4-4.053-2.339-2.463-3.524-5.478-3.524-8.964 0-2.69.988-7.17 5.72-10.544l3.37-2.405 14.948 20.64c0 .002-3.284 5.326-11.114 5.326z"/></svg>