<?xml version="1.0" encoding="utf-8"?>
<!-- Generator: Adobe Illustrator 16.0.0, SVG Export Plug-In . SVG Version: 6.00 Build 0)  -->
<!DOCTYPE svg PUBLIC "-//W3C//DTD SVG 1.1//EN" "http://www.w3.org/Graphics/SVG/1.1/DTD/svg11.dtd">
<svg version="1.1" id="svg2811" xmlns:svg="http://www.w3.org/2000/svg"
	 xmlns="http://www.w3.org/2000/svg" xmlns:xlink="http://www.w3.org/1999/xlink" x="0px" y="0px" width="1000px" height="1000px"
	 viewBox="-145.5 -64.5 1000 1000" enable-background="new -145.5 -64.5 1000 1000" xml:space="preserve">
<g id="g186" transform="matrix(54.85,0,0,-54.85,-2485.383,4815.859)">
	<path id="path188" fill="#666666" d="M56.105,79.364c-0.018,2.008,1.64,2.972,1.715,3.019c-0.933,1.365-2.385,1.552-2.903,1.574
		c-1.235,0.125-2.411-0.727-3.037-0.727c-0.626,0-1.594,0.709-2.618,0.689c-1.348-0.02-2.589-0.783-3.283-1.989
		c-1.399-2.427-0.357-6.024,1.005-7.994c0.667-0.963,1.461-2.048,2.505-2.008c1.006,0.04,1.386,0.65,2.6,0.65
		c1.214,0,1.556-0.65,2.619-0.631c1.081,0.021,1.767,0.984,2.429,1.95c0.764,1.118,1.08,2.2,1.098,2.257
		C58.211,76.164,56.127,76.963,56.105,79.364"/>
</g>
<path id="path190" fill="#666666" d="M482.438,139.337c30.387-36.804,50.9-87.98,45.25-138.989
	c-43.773,1.757-96.755,29.181-128.186,65.985c-28.138,32.527-52.819,84.633-46.131,134.604
	C402.19,204.722,452.047,176.088,482.438,139.337"/>
</svg>
