<?xml version="1.0" encoding="utf-8"?>
<!-- Generator: Adobe Illustrator 16.0.0, SVG Export Plug-In . SVG Version: 6.00 Build 0)  -->
<!DOCTYPE svg PUBLIC "-//W3C//DTD SVG 1.1//EN" "http://www.w3.org/Graphics/SVG/1.1/DTD/svg11.dtd">
<svg version="1.1" xmlns="http://www.w3.org/2000/svg" xmlns:xlink="http://www.w3.org/1999/xlink" x="0px" y="0px" width="140px"
	 height="140px" viewBox="-19.049 -25.817 140 140" enable-background="new -19.049 -25.817 140 140" xml:space="preserve">
<g id="Layer_2">
	<rect x="-19.049" y="-25.817" width="140" height="140"/>
</g>
<g id="Layer_1">
	<path fill="#FFFFFF" d="M50.951,0c17.037,29.409,33.984,58.869,50.951,88.317c-3.103,0.05-6.215,0.06-9.328,0.02
		c-9.588-9.13-20.17-17.684-32.582-22.606c-11.527-4.645-25.44-3.948-35.924,2.975c-7.21,4.774-11.656,12.401-15.982,19.662
		c-2.695,0-5.391-0.009-8.086-0.05C16.977,58.878,33.954,29.429,50.951,0 M50.961,14.928C42.08,30.195,33.297,45.511,24.416,60.766
		c6.256-3.868,13.755-5.091,21.016-4.832c15.027,0.198,28.941,7.967,39.742,17.962C73.687,54.283,62.408,34.561,50.961,14.928z"/>
</g>
</svg>
