<svg enable-background="new -19.049 -25.817 140 140" height="140" viewBox="-19.049 -25.817 140 140" width="140" xmlns="http://www.w3.org/2000/svg"><path d="m-19.049-25.817h140v140h-140z"/><path d="m50.951 0c17.037 29.409 33.984 58.869 50.951 88.317-3.103.05-6.215.06-9.328.02-9.588-9.13-20.17-17.684-32.582-22.606-11.527-4.645-25.44-3.948-35.924 2.975-7.21 4.774-11.656 12.401-15.982 19.662-2.695 0-5.391-.009-8.086-.05 16.977-29.44 33.954-58.889 50.951-88.318m.01 14.928c-8.881 15.267-17.664 30.583-26.545 45.838 6.256-3.868 13.755-5.091 21.016-4.832 15.027.198 28.941 7.967 39.742 17.962-11.487-19.613-22.766-39.335-34.213-58.968z" fill="#fff"/></svg>