<svg enable-background="new -0.081 -42.213 411.225 411.057" height="411.057" viewBox="-.081 -42.213 411.225 411.057" width="411.225" xmlns="http://www.w3.org/2000/svg"><path d="m79.446 325.647c34.859 26.983 78.613 43.196 126.084 43.196 51.949 0 99.308-19.286 135.453-50.946.438-.388.222-.644-.21-.388-16.22 10.832-62.445 34.478-135.24 34.478-63.262 0-103.241-14.115-125.818-26.717-.433-.212-.593.111-.269.377m140.041 10.506c50.598 0 106.199-13.793 139.454-41.096 9.1-7.439 17.768-17.341 25.53-30.646 4.47-7.656 8.84-16.752 12.4-25.693.158-.436-.111-.648-.439-.158-30.924 45.508-120.473 73.894-212.937 73.894-65.357 0-135.68-20.899-163.212-60.808-.271-.369-.542-.211-.377.213 25.648 54.514 103.458 84.294 199.581 84.294m-55.283-90.436c-105.234 0-154.854-49.012-163.855-82.459-.111-.484-.43-.378-.43.057 0 11.26 1.127 25.791 3.066 35.436.925 4.695 4.746 12.063 10.348 17.936 25.482 26.562 89.012 63.779 199.036 63.779 149.902 0 184.178-49.934 191.177-66.355 5.005-11.743 7.598-32.966 7.598-50.794 0-4.314-.107-7.76-.271-11.143 0-.549-.318-.594-.428-.059-7.491 40.18-135.566 93.602-246.241 93.602m-144.463-170.574c-6.03 11.967-12.714 32.156-14.701 42.605-.871 4.477-.5 6.627 1.07 9.968 12.613 26.761 76.412 69.579 225.23 69.579 90.79 0 161.318-22.305 172.744-63.008 2.104-7.493 2.217-15.404-.486-26.064-3.02-11.912-8.676-25.803-13.463-35.557-.158-.318-.437-.271-.38.105 1.778 53.386-147.099 87.793-222.216 87.793-81.365 0-149.246-32.418-149.246-73.352 0-3.933.814-7.867 1.83-11.961.102-.374-.218-.436-.382-.108m321.574-65.547c.863 1.354 1.295 2.799 1.295 4.744 0 22.836-69.891 63.234-181.148 63.234-81.748 0-97.053-30.326-97.053-49.612 0-6.894 2.644-13.948 8.467-21.112.318-.426.048-.59-.319-.273-10.62 9-20.378 19.127-28.938 30.059-4.09 5.17-6.629 9.75-6.629 12.494 0 39.967 100.216 68.945 193.921 68.945 99.844 0 144.404-32.594 144.404-61.238 0-10.237-3.985-16.213-14.18-27.799-6.616-7.537-12.876-13.674-19.501-19.715-.319-.264-.542-.049-.319.273m-30.609-22.831c-30.814-18.47-66.597-28.978-105.174-28.978-38.846 0-75.707 10.875-106.632 29.834-9.276 5.709-14.497 10.284-14.497 16.165 0 17.336 40.515 35.976 112.394 35.976 71.133 0 126.305-20.417 126.305-40.07 0-4.691-4.1-7.973-12.396-12.927" fill="#00a8e0"/></svg>