<?xml version="1.0" encoding="utf-8"?>
<!-- Generator: Adobe Illustrator 16.0.0, SVG Export Plug-In . SVG Version: 6.00 Build 0)  -->
<!DOCTYPE svg PUBLIC "-//W3C//DTD SVG 1.1//EN" "http://www.w3.org/Graphics/SVG/1.1/DTD/svg11.dtd">
<svg version="1.1" id="Layer_1" xmlns="http://www.w3.org/2000/svg" xmlns:xlink="http://www.w3.org/1999/xlink" x="0px" y="0px"
	 width="411.225px" height="411.057px" viewBox="-0.081 -42.213 411.225 411.057"
	 enable-background="new -0.081 -42.213 411.225 411.057" xml:space="preserve">
<path id="path9" fill="#00A8E0" d="M79.446,325.647c34.859,26.983,78.613,43.196,126.084,43.196
	c51.949,0,99.308-19.286,135.453-50.946c0.438-0.388,0.222-0.644-0.21-0.388c-16.22,10.832-62.445,34.478-135.24,34.478
	c-63.262,0-103.241-14.115-125.818-26.717C79.282,325.058,79.122,325.381,79.446,325.647 M219.487,336.153
	c50.598,0,106.199-13.793,139.454-41.096c9.1-7.439,17.768-17.341,25.53-30.646c4.47-7.656,8.84-16.752,12.4-25.693
	c0.158-0.436-0.111-0.648-0.439-0.158c-30.924,45.508-120.473,73.894-212.937,73.894c-65.357,0-135.68-20.899-163.212-60.808
	c-0.271-0.369-0.542-0.211-0.377,0.213C45.554,306.373,123.364,336.153,219.487,336.153 M164.204,245.717
	c-105.234,0-154.854-49.012-163.855-82.459c-0.111-0.484-0.43-0.378-0.43,0.057c0,11.26,1.127,25.791,3.066,35.436
	c0.925,4.695,4.746,12.063,10.348,17.936c25.482,26.562,89.012,63.779,199.036,63.779c149.902,0,184.178-49.934,191.177-66.355
	c5.005-11.743,7.598-32.966,7.598-50.794c0-4.314-0.107-7.76-0.271-11.143c0-0.549-0.318-0.594-0.428-0.059
	C402.954,192.295,274.879,245.717,164.204,245.717 M19.741,75.143C13.711,87.11,7.027,107.299,5.04,117.748
	c-0.871,4.477-0.5,6.627,1.07,9.968c12.613,26.761,76.412,69.579,225.23,69.579c90.79,0,161.318-22.305,172.744-63.008
	c2.104-7.493,2.217-15.404-0.486-26.064c-3.02-11.912-8.676-25.803-13.463-35.557c-0.158-0.318-0.437-0.271-0.38,0.105
	c1.778,53.386-147.099,87.793-222.216,87.793c-81.365,0-149.246-32.418-149.246-73.352c0-3.933,0.814-7.867,1.83-11.961
	C20.225,74.877,19.905,74.815,19.741,75.143 M341.315,9.596c0.863,1.354,1.295,2.799,1.295,4.744
	c0,22.836-69.891,63.234-181.148,63.234c-81.748,0-97.053-30.326-97.053-49.612c0-6.894,2.644-13.948,8.467-21.112
	c0.318-0.426,0.048-0.59-0.319-0.273c-10.62,9-20.378,19.127-28.938,30.059c-4.09,5.17-6.629,9.75-6.629,12.494
	c0,39.967,100.216,68.945,193.921,68.945c99.844,0,144.404-32.594,144.404-61.238c0-10.237-3.985-16.213-14.18-27.799
	c-6.616-7.537-12.876-13.674-19.501-19.715C341.315,9.059,341.092,9.274,341.315,9.596 M310.706-13.235
	c-30.814-18.47-66.597-28.978-105.174-28.978c-38.846,0-75.707,10.875-106.632,29.834C89.624-6.67,84.403-2.095,84.403,3.786
	c0,17.336,40.515,35.976,112.394,35.976c71.133,0,126.305-20.417,126.305-40.07C323.102-4.999,319.002-8.281,310.706-13.235"/>
</svg>
