<svg enable-background="new 0 0 2500 2500" height="2500" viewBox="0 0 2500 2500" width="2500" xmlns="http://www.w3.org/2000/svg"><path d="m963.265 1118.331c-82.514 0-149.425 71.217-149.425 159.062 0 87.844 66.911 159.087 149.425 159.087s149.425-71.23 149.425-159.087c-.001-87.858-66.912-159.062-149.425-159.062zm81.917 140.009c7.224 3.748 11.569 10.895 11.569 18.948 0 8.055-4.346 15.227-11.569 18.949-3.93 2.049-110.489 60.361-123.382 67.43-3.67 2.023-9.753 2.918-14.383-.402-3.826-2.736-5.552-6.459-5.552-12.788v-146.597c0-6.343 1.726-10.052 5.552-12.788 4.63-3.308 10.713-2.438 14.383-.429.013 0 119.465 65.653 123.382 67.677z" fill="#edbe5e"/><path d="m269.434 1077.502h-65.614l-129.283 337.694h72.358l26.536-75.264h123.485l26.536 75.264h74.304v-.001zm-72.825 198.269 21.711-61.256c6.757-19.779 13.514-40.038 16.886-52.593 3.385 12.542 10.129 32.813 16.887 52.593l21.699 61.256z"/><path d="m558.231 1415.195v-25.459c-11.725 17.963-31.088 30.751-61.049 30.751-64.641 0-93.59-44.382-93.59-115.768v-142.798h66.574v137c0 45.368 15.434 58.87 42.93 58.87 27.509 0 43.423-13.502 43.423-57.404v-138.466h66.574v253.273h-64.862z"/><path d="m664.299 1161.922v-65.121l66.573-33.28v98.401h60.789v62.723h-60.789v101.786c0 24.11 8.379 31.686 24.293 31.815 12.945-.064 25.604-3.826 36.483-10.843v59.22c-15.681 7.419-35.602 13.657-59.816 12.995-42.671-1.141-67.533-30.984-67.533-75.341z"/><path d="m1361.773 1415.195-123.978-184.273c-8.197-12.542-19.299-29.441-23.631-38.105 0 12.542.959 55.005.959 73.798v148.595h-66.573v-337.693h64.642l119.646 178.477c8.21 12.567 19.299 29.441 23.631 38.118 0-12.542-.96-54.992-.96-73.824v-142.771h66.574v337.693h-60.31z"/><path d="m1666.887 1415.183h.001v.013h-.001z"/><path d="m1564.141 1156.617c-41.011 0-65.614 8.69-95.042 25.564l25.563 46.314c19.43-9.896 42.917-18.353 69.479-17.742 22.723.519 36.173 15.33 36.173 33.176v12.556c-8.846-3.84-25.563-7.562-48.715-7.562-57.43 0-102.771 31.296-102.771 87.273 0 59.155 45.666 83.421 89.4 83.421 28.857 0 53.525-12.36 63.811-26.575v22.14h64.849v-169.812c-.001-56.898-41.492-88.753-102.747-88.753zm36.185 184.288c-7.224 12.062-24.746 22.956-46.302 24.02-22.243 1.09-38.65-9.117-38.611-30.505.052-19.935 13.826-33.033 38.611-34.253 20.193-.985 36.834 3.904 46.302 8.897z"/><path d="m1860.071 1161.922h66.574v253.273h-66.574z"/><path d="m2066.032 1156.631c-66.068 0-114.29 54.499-114.29 132.162 0 77.662 48.234 131.694 114.29 131.694 66.106 0 114.834-54.032 114.834-131.694 0-77.663-48.74-132.162-114.834-132.162zm.013 199.695c-31.815 0-46.782-28.442-46.782-67.533 0-39.078 14.968-68.014 46.782-68.014 31.841 0 47.288 29.428 47.288 68.014 0 35.213-15.447 67.533-47.288 67.533z"/><path d="m2358.901 1415.195v-136.986c0-45.368-15.42-58.869-42.942-58.869s-43.423 13.514-43.423 57.404v138.465h-66.574v-253.287h64.875v22.905c11.479-15.059 39.675-28.196 66.198-28.196 64.641 0 88.428 44.369 88.428 115.781v142.797h-66.562z"/><path d="m1702.101 1161.922v-65.121l66.6-33.28v98.401h60.776v62.723h-60.777v101.786c0 24.11 8.365 31.686 24.266 31.815 12.95-.064 25.612-3.827 36.497-10.843v59.22c-15.681 7.419-35.589 13.657-59.804 12.995-42.683-1.141-67.559-30.984-67.559-75.341v-182.355z"/></svg>