<?xml version="1.0" encoding="utf-8"?>
<!-- Generator: Adobe Illustrator 16.0.0, SVG Export Plug-In . SVG Version: 6.00 Build 0)  -->
<!DOCTYPE svg PUBLIC "-//W3C//DTD SVG 1.1//EN" "http://www.w3.org/Graphics/SVG/1.1/DTD/svg11.dtd">
<svg version="1.1" id="Layer_1" xmlns="http://www.w3.org/2000/svg" xmlns:xlink="http://www.w3.org/1999/xlink" x="0px" y="0px"
	 width="2500px" height="2500px" viewBox="0 0 2500 2500" enable-background="new 0 0 2500 2500" xml:space="preserve">
<g>
	<path fill="#EDBE5E" d="M963.265,1118.331c-82.514,0-149.425,71.217-149.425,159.062c0,87.844,66.911,159.087,149.425,159.087
		s149.425-71.23,149.425-159.087C1112.689,1189.535,1045.778,1118.331,963.265,1118.331z M1045.182,1258.34
		c7.224,3.748,11.569,10.895,11.569,18.948c0,8.055-4.346,15.227-11.569,18.949c-3.93,2.049-110.489,60.361-123.382,67.43
		c-3.67,2.023-9.753,2.918-14.383-0.402c-3.826-2.736-5.552-6.459-5.552-12.788V1203.88c0-6.343,1.726-10.052,5.552-12.788
		c4.63-3.308,10.713-2.438,14.383-0.429C921.813,1190.663,1041.265,1256.316,1045.182,1258.34L1045.182,1258.34z"/>
	<path d="M269.434,1077.502H203.82L74.537,1415.196h72.358l26.536-75.264h123.485l26.536,75.264h74.304v-0.001L269.434,1077.502z
		 M196.609,1275.771l21.711-61.256c6.757-19.779,13.514-40.038,16.886-52.593c3.385,12.542,10.129,32.813,16.887,52.593
		l21.699,61.256H196.609z"/>
	<path d="M558.231,1415.195v-25.459c-11.725,17.963-31.088,30.751-61.049,30.751c-64.641,0-93.59-44.382-93.59-115.768v-142.798
		h66.574v137c0,45.368,15.434,58.87,42.93,58.87c27.509,0,43.423-13.502,43.423-57.404v-138.466h66.574v253.273H558.231z"/>
	<path d="M664.299,1161.922v-65.121l66.573-33.28v98.401h60.789v62.723h-60.789v101.786c0,24.11,8.379,31.686,24.293,31.815
		c12.945-0.064,25.604-3.826,36.483-10.843v59.22c-15.681,7.419-35.602,13.657-59.816,12.995
		c-42.671-1.141-67.533-30.984-67.533-75.341V1161.922z"/>
	<path d="M1361.773,1415.195l-123.978-184.273c-8.197-12.542-19.299-29.441-23.631-38.105c0,12.542,0.959,55.005,0.959,73.798
		v148.595h-66.573v-337.693h64.642l119.646,178.477c8.21,12.567,19.299,29.441,23.631,38.118c0-12.542-0.96-54.992-0.96-73.824
		v-142.771h66.574v337.693h-60.31V1415.195L1361.773,1415.195z"/>
	<g>
		<rect x="1666.887" y="1415.183" width="0.001" height="0.013"/>
		<path d="M1564.141,1156.617c-41.011,0-65.614,8.69-95.042,25.564l25.563,46.314c19.43-9.896,42.917-18.353,69.479-17.742
			c22.723,0.519,36.173,15.33,36.173,33.176v12.556c-8.846-3.84-25.563-7.562-48.715-7.562c-57.43,0-102.771,31.296-102.771,87.273
			c0,59.155,45.666,83.421,89.4,83.421c28.857,0,53.525-12.36,63.811-26.575v22.14h64.849V1245.37
			C1666.887,1188.472,1625.396,1156.617,1564.141,1156.617z M1600.326,1340.905c-7.224,12.062-24.746,22.956-46.302,24.02
			c-22.243,1.09-38.65-9.117-38.611-30.505c0.052-19.935,13.826-33.033,38.611-34.253c20.193-0.985,36.834,3.904,46.302,8.897
			V1340.905z"/>
	</g>
	<rect x="1860.071" y="1161.922" width="66.574" height="253.273"/>
	<path d="M2066.032,1156.631c-66.068,0-114.29,54.499-114.29,132.162c0,77.662,48.234,131.694,114.29,131.694
		c66.106,0,114.834-54.032,114.834-131.694C2180.866,1211.13,2132.126,1156.631,2066.032,1156.631z M2066.045,1356.326
		c-31.815,0-46.782-28.442-46.782-67.533c0-39.078,14.968-68.014,46.782-68.014c31.841,0,47.288,29.428,47.288,68.014
		C2113.333,1324.006,2097.886,1356.326,2066.045,1356.326z"/>
	<path d="M2358.901,1415.195v-136.986c0-45.368-15.42-58.869-42.942-58.869s-43.423,13.514-43.423,57.404v138.465h-66.574v-253.287
		h64.875v22.905c11.479-15.059,39.675-28.196,66.198-28.196c64.641,0,88.428,44.369,88.428,115.781v142.797h-66.562V1415.195
		L2358.901,1415.195z"/>
	<path d="M1702.101,1161.922v-65.121l66.6-33.28v98.401h60.776v62.723H1768.7v101.786c0,24.11,8.365,31.686,24.266,31.815
		c12.95-0.064,25.612-3.827,36.497-10.843v59.22c-15.681,7.419-35.589,13.657-59.804,12.995
		c-42.683-1.141-67.559-30.984-67.559-75.341V1161.922z"/>
</g>
</svg>
