<?xml version="1.0" encoding="utf-8"?>
<!-- Generator: Adobe Illustrator 16.0.0, SVG Export Plug-In . SVG Version: 6.00 Build 0)  -->
<!DOCTYPE svg PUBLIC "-//W3C//DTD SVG 1.1//EN" "http://www.w3.org/Graphics/SVG/1.1/DTD/svg11.dtd">
<svg version="1.1" id="Layer_3" xmlns="http://www.w3.org/2000/svg" xmlns:xlink="http://www.w3.org/1999/xlink" x="0px" y="0px"
	 width="400px" height="400px" viewBox="0 0 400 400" enable-background="new 0 0 400 400" xml:space="preserve">
<path fill="#FFFFFF" d="M89.487,173.333H79l-24.833,54h12.417L70.416,219l27.656-0.001l3.833,8.334h12.417L89.487,173.333z
	 M75.414,208.132l8.83-19.201l8.828,19.196L75.414,208.132z"/>
<polygon fill="#FFFFFF" points="118.196,173.263 143.477,227.333 153.945,227.333 170.781,190.725 187.617,227.333 198.5,227.333 
	223.846,173.263 210.148,173.263 193.069,210.02 175.956,173.263 165.593,173.263 148.722,209.029 131.816,173.263 "/>
<polygon fill="#FFFFFF" points="312.124,227.333 312.124,205.653 290.176,173.334 304.46,173.334 318.063,193.364 331.801,173.333 
	346.085,173.333 324.001,205.853 324.001,227.333 "/>
<path fill="#FFFFFF" d="M262.658,173.333h-10.487l-24.833,54h12.416l3.833-8.333l27.656-0.001l3.833,8.334h12.416L262.658,173.333z
	 M248.584,208.132l8.83-19.201l8.828,19.196L248.584,208.132z"/>
</svg>
