<svg enable-background="new 0 0 400 400" height="400" viewBox="0 0 400 400" width="400" xmlns="http://www.w3.org/2000/svg"><g fill="#fff"><path d="m89.487 173.333h-10.487l-24.833 54h12.417l3.832-8.333 27.656-.001 3.833 8.334h12.417zm-14.073 34.799 8.83-19.201 8.828 19.196z"/><path d="m118.196 173.263 25.281 54.07h10.468l16.836-36.608 16.836 36.608h10.883l25.346-54.07h-13.698l-17.079 36.757-17.113-36.757h-10.363l-16.871 35.766-16.906-35.766z"/><path d="m312.124 227.333v-21.68l-21.948-32.319h14.284l13.603 20.03 13.738-20.031h14.284l-22.084 32.52v21.48z"/><path d="m262.658 173.333h-10.487l-24.833 54h12.416l3.833-8.333 27.656-.001 3.833 8.334h12.416zm-14.074 34.799 8.83-19.201 8.828 19.196z"/></g></svg>