<svg enable-background="new -0.784 -9.557 36 36" height="36" viewBox="-.784 -9.557 36 36" width="36" xmlns="http://www.w3.org/2000/svg"><g fill="#2e3192"><path d="m13.804 6.313c.682-.513.854-1.365.854-2.047 0-.853-.172-1.534-.683-2.217-.341-.681-1.021-1.193-1.875-1.534-.853-.341-2.215-.511-4.09-.511h-8.01v.341c.682 0 1.193.17 1.534.341.341.17.512.341.512.512.17.171.341.852.341 1.705v10.911c0 1.022-.171 1.535-.341 1.876 0 .17-.171.342-.512.512s-.852.17-1.534.17v.512h8.521c2.387 0 4.262-.512 5.454-1.533 1.022-.854 1.534-1.876 1.534-3.24 0-1.193-.512-2.046-1.364-2.896-.682-.515-1.875-.856-3.408-1.366 1.534-.343 2.556-.854 3.067-1.536zm-7.668-5.457c1.193 0 2.216.171 2.727.513.512.17 1.023.511 1.193 1.021.341.513.512 1.023.512 1.876 0 .682-.171 1.364-.512 1.705-.342.512-.683.853-1.194 1.194-.682.341-1.533.341-2.726.341zm2.896 8.015c.682.34 1.193.682 1.534 1.363.342.681.512 1.364.512 2.046 0 .684-.17 1.364-.512 1.877-.341.51-.682 1.022-1.193 1.363-.682.17-1.193.34-1.875.34-.341 0-.682 0-1.022-.34-.171-.171-.341-.514-.341-1.023v-.513-5.455c1.364 0 2.217.17 2.897.342z"/><path d="m27.953 8.697v5.287c0 .854 0 1.364-.171 1.535 0 .341-.34.513-.511.683-.17.17-.683.17-1.193.17h-.512v.512h8.864v-.512h-.683c-.341 0-.852 0-1.021-.17-.343-.17-.514-.342-.684-.683 0-.171 0-.683 0-1.535v-11.085c0-.854 0-1.364 0-1.534.17-.342.341-.513.512-.683.342-.172.683-.342 1.192-.342h.683v-.34h-8.864v.341h.512c.511 0 .852.17 1.193.342.341.17.511.341.511.511.171.342.171.853.171 1.706v4.775h-5.966v-4.776c0-.854 0-1.364.17-1.534.171-.342.341-.513.512-.683.342-.172.684-.342 1.195-.342h.511v-.34h-8.864v.341h.682c.341 0 .853.17 1.022.342.341.17.513.341.683.511v1.706 11.085 1.535c-.17.341-.342.512-.512.682-.341.172-.682.172-1.193.172h-.682v.512h8.864v-.512h-.511c-.511 0-.853 0-1.193-.172-.171-.17-.512-.341-.512-.682-.17-.171-.17-.682-.17-1.535v-5.288z"/></g></svg>