<?xml version="1.0" encoding="utf-8"?>
<!-- Generator: Adobe Illustrator 16.0.0, SVG Export Plug-In . SVG Version: 6.00 Build 0)  -->
<!DOCTYPE svg PUBLIC "-//W3C//DTD SVG 1.1//EN" "http://www.w3.org/Graphics/SVG/1.1/DTD/svg11.dtd">
<svg version="1.1" id="Layer_1" xmlns="http://www.w3.org/2000/svg" xmlns:xlink="http://www.w3.org/1999/xlink" x="0px" y="0px"
	 width="36px" height="36px" viewBox="-0.784 -9.557 36 36" enable-background="new -0.784 -9.557 36 36" xml:space="preserve">
<g id="_xB8_ñ_xB5_ã" display="none">
</g>
<g id="Í_xBC__xB2_ã_1">
</g>
<g id="_xD7_ÀÃæ">
</g>
<g id="_xB5__xBC_Ïß">
</g>
<path fill="#2E3192" d="M13.804,6.313c0.682-0.513,0.854-1.365,0.854-2.047c0-0.853-0.172-1.534-0.683-2.217
	c-0.341-0.681-1.021-1.193-1.875-1.534c-0.853-0.341-2.215-0.511-4.09-0.511H0v0.341c0.682,0,1.193,0.17,1.534,0.341
	c0.341,0.17,0.512,0.341,0.512,0.512c0.17,0.171,0.341,0.852,0.341,1.705v10.911c0,1.022-0.171,1.535-0.341,1.876
	c0,0.17-0.171,0.342-0.512,0.512S0.682,16.372,0,16.372v0.512h8.521c2.387,0,4.262-0.512,5.454-1.533
	c1.022-0.854,1.534-1.876,1.534-3.24c0-1.193-0.512-2.046-1.364-2.896C13.463,8.7,12.27,8.359,10.737,7.849
	C12.271,7.506,13.293,6.995,13.804,6.313L13.804,6.313L13.804,6.313z M6.136,0.856c1.193,0,2.216,0.171,2.727,0.513
	c0.512,0.17,1.023,0.511,1.193,1.021c0.341,0.513,0.512,1.023,0.512,1.876c0,0.682-0.171,1.364-0.512,1.705
	C9.714,6.483,9.373,6.824,8.862,7.165C8.18,7.506,7.329,7.506,6.136,7.506V0.856L6.136,0.856z M9.032,8.871
	c0.682,0.34,1.193,0.682,1.534,1.363c0.342,0.681,0.512,1.364,0.512,2.046c0,0.684-0.17,1.364-0.512,1.877
	c-0.341,0.51-0.682,1.022-1.193,1.363c-0.682,0.17-1.193,0.34-1.875,0.34c-0.341,0-0.682,0-1.022-0.34
	c-0.171-0.171-0.341-0.514-0.341-1.023v-0.513V8.529C7.499,8.529,8.352,8.699,9.032,8.871L9.032,8.871L9.032,8.871z"/>
<path fill="#2E3192" d="M27.953,8.697v5.287c0,0.854,0,1.364-0.171,1.535c0,0.341-0.34,0.513-0.511,0.683
	c-0.17,0.17-0.683,0.17-1.193,0.17h-0.512v0.512h8.864v-0.512h-0.683c-0.341,0-0.852,0-1.021-0.17
	c-0.343-0.17-0.514-0.342-0.684-0.683c0-0.171,0-0.683,0-1.535V2.899c0-0.854,0-1.364,0-1.534c0.17-0.342,0.341-0.513,0.512-0.683
	c0.342-0.172,0.683-0.342,1.192-0.342h0.683V0h-8.864v0.341h0.512c0.511,0,0.852,0.17,1.193,0.342
	c0.341,0.17,0.511,0.341,0.511,0.511c0.171,0.342,0.171,0.853,0.171,1.706v4.775h-5.966V2.899c0-0.854,0-1.364,0.17-1.534
	c0.171-0.342,0.341-0.513,0.512-0.683C23.01,0.51,23.352,0.34,23.863,0.34h0.511V0h-8.864v0.341h0.682
	c0.341,0,0.853,0.17,1.022,0.342c0.341,0.17,0.513,0.341,0.683,0.511c0,0.342,0,0.853,0,1.706v11.085c0,0.854,0,1.364,0,1.535
	c-0.17,0.341-0.342,0.512-0.512,0.682c-0.341,0.172-0.682,0.172-1.193,0.172h-0.682v0.512h8.864v-0.512h-0.511
	c-0.511,0-0.853,0-1.193-0.172c-0.171-0.17-0.512-0.341-0.512-0.682c-0.17-0.171-0.17-0.682-0.17-1.535V8.697H27.953L27.953,8.697z"
	/>
</svg>
