<?xml version="1.0" encoding="utf-8"?>
<!-- Generator: Adobe Illustrator 16.0.0, SVG Export Plug-In . SVG Version: 6.00 Build 0)  -->
<!DOCTYPE svg PUBLIC "-//W3C//DTD SVG 1.1//EN" "http://www.w3.org/Graphics/SVG/1.1/DTD/svg11.dtd">
<svg version="1.1" id="Layer_1" xmlns="http://www.w3.org/2000/svg" xmlns:xlink="http://www.w3.org/1999/xlink" x="0px" y="0px"
	 width="1100px" height="1100px" viewBox="-50 -257.758 1100 1100" enable-background="new -50 -257.758 1100 1100"
	 xml:space="preserve">
<g transform="translate(-137.5,-22.390163)">
	<path id="path2998" fill="#1C252C" d="M137.5,29.631v252.321h132.111c51.998,0,100.051-18.25,100.051-71.858
		c0-36.24-26.108-52.784-54.823-61.443c17.495-7.018,37.342-21.761,37.342-52.666c0-39.556-39.249-66.354-92.091-66.354H137.5
		L137.5,29.631z M218.433,88.397h29.755c12.113,0,21.349,9.488,21.349,19.117c0,8.947-9.598,18.522-21.349,18.522h-29.755V88.397
		L218.433,88.397z M218.433,178.406h39.276c13.711,0,25.217,10.414,25.217,22.316c0,12.639-10.761,23.134-27.598,23.134h-36.896
		V178.406z"/>
	<path id="path3005" fill="#1C252C" d="M202.96,309.475v252.32h132.112c51.998,0,100.05-18.25,100.05-71.857
		c0-36.241-26.107-52.784-54.823-61.444c17.496-7.018,37.342-21.76,37.342-52.666c0-39.556-39.248-66.353-92.091-66.353H202.96
		L202.96,309.475z M283.894,368.241h29.755c12.113,0,21.349,9.487,21.349,19.117c0,8.947-9.597,18.522-21.349,18.522h-29.755
		V368.241L283.894,368.241z M283.894,458.249h39.276c13.711,0,25.217,10.414,25.217,22.316c0,12.64-10.761,23.135-27.598,23.135
		h-36.896V458.249L283.894,458.249z"/>
	<path id="path3007" fill="#1C252C" d="M376.015,281.922V29.601h203.522v60.938H456.71v33.088h99.738v57.129H456.71v40.467h122.827
		v60.7H376.015z"/>
	<path id="path3009" fill="#1C252C" d="M689.788,289.144c57.288,0,103.11-32.677,103.11-85.631
		c0-85.461-111.177-72.311-111.177-98.919c0-10.278,10.809-15.732,21.895-15.732c19.104,0,32.907,12.586,32.907,12.586
		l47.831-45.543c-19.131-18.207-49.346-33.514-90.047-33.514c-61.128,0-101.119,36.28-101.119,80.045
		c0,86.548,109.575,73.987,109.575,101.143c0,9.519-9.158,19.096-25.769,19.096c-18.859,0-33.799-11.385-45.426-21.044
		l-48.111,45.869C602.831,266.369,633.933,289.144,689.788,289.144z"/>
	<path id="path3011" fill="#1C252C" d="M855.187,281.922V90.301h-66.651v-60.7h214.235v60.7h-66.651v191.621H855.187z"/>
	<path id="path3013" fill="#1C252C" d="M437.905,309.296H518.6v151.154c0,15.35,15.276,29.494,31.203,29.494
		c15.024,0,30.211-12.773,30.211-30.301V309.296h80.457v149.319c0,59.25-49.192,106.514-112.801,106.514
		c-63.969,0-109.765-51.437-109.765-109.742V309.296z"/>
	<path id="path3015" fill="#1C252C" d="M759.971,561.617v-90.161l-94.845-162.159h81.646l53.666,86.884l53.852-86.884h81.83
		l-95.215,163.086v89.234H759.971z"/>
	<path id="path3017" fill="#FFED31" d="M936.119,447.389l-47.607,47.607v64.271l47.607,47.607H1137.5V447.389H936.119z"/>
	<path id="path3024" fill="#1C252C" d="M928.3,527.101c0,5.916-4.796,10.712-10.712,10.712c-5.915,0-10.711-4.796-10.711-10.712
		s4.796-10.711,10.711-10.711C923.504,516.39,928.3,521.185,928.3,527.101z"/>
</g>
</svg>
