<svg enable-background="new -50 -257.758 1100 1100" height="1100" viewBox="-50 -257.758 1100 1100" width="1100" xmlns="http://www.w3.org/2000/svg"><g transform="translate(-137.5 -22.390163)"><g fill="#1c252c"><path d="m137.5 29.631v252.321h132.111c51.998 0 100.051-18.25 100.051-71.858 0-36.24-26.108-52.784-54.823-61.443 17.495-7.018 37.342-21.761 37.342-52.666 0-39.556-39.249-66.354-92.091-66.354zm80.933 58.766h29.755c12.113 0 21.349 9.488 21.349 19.117 0 8.947-9.598 18.522-21.349 18.522h-29.755zm0 90.009h39.276c13.711 0 25.217 10.414 25.217 22.316 0 12.639-10.761 23.134-27.598 23.134h-36.896v-45.45z"/><path d="m202.96 309.475v252.32h132.112c51.998 0 100.05-18.25 100.05-71.857 0-36.241-26.107-52.784-54.823-61.444 17.496-7.018 37.342-21.76 37.342-52.666 0-39.556-39.248-66.353-92.091-66.353zm80.934 58.766h29.755c12.113 0 21.349 9.487 21.349 19.117 0 8.947-9.597 18.522-21.349 18.522h-29.755zm0 90.008h39.276c13.711 0 25.217 10.414 25.217 22.316 0 12.64-10.761 23.135-27.598 23.135h-36.896v-45.451z"/><path d="m376.015 281.922v-252.321h203.522v60.938h-122.827v33.088h99.738v57.129h-99.738v40.467h122.827v60.7h-203.522z"/><path d="m689.788 289.144c57.288 0 103.11-32.677 103.11-85.631 0-85.461-111.177-72.311-111.177-98.919 0-10.278 10.809-15.732 21.895-15.732 19.104 0 32.907 12.586 32.907 12.586l47.831-45.543c-19.131-18.207-49.346-33.514-90.047-33.514-61.128 0-101.119 36.28-101.119 80.045 0 86.548 109.575 73.987 109.575 101.143 0 9.519-9.158 19.096-25.769 19.096-18.859 0-33.799-11.385-45.426-21.044l-48.111 45.869c19.374 18.869 50.476 41.644 106.331 41.644z"/><path d="m855.187 281.922v-191.621h-66.651v-60.7h214.235v60.7h-66.651v191.621z"/><path d="m437.905 309.296h80.695v151.154c0 15.35 15.276 29.494 31.203 29.494 15.024 0 30.211-12.773 30.211-30.301v-150.347h80.457v149.319c0 59.25-49.192 106.514-112.801 106.514-63.969 0-109.765-51.437-109.765-109.742z"/><path d="m759.971 561.617v-90.161l-94.845-162.159h81.646l53.666 86.884 53.852-86.884h81.83l-95.215 163.086v89.234z"/></g><path d="m936.119 447.389-47.607 47.607v64.271l47.607 47.607h201.381v-159.485z" fill="#ffed31"/><path d="m928.3 527.101c0 5.916-4.796 10.712-10.712 10.712-5.915 0-10.711-4.796-10.711-10.712s4.796-10.711 10.711-10.711c5.916 0 10.712 4.795 10.712 10.711z" fill="#1c252c"/></g></svg>