<svg enable-background="new 0 0 500 500" height="500" viewBox="0 0 500 500" width="500" xmlns="http://www.w3.org/2000/svg"><g clip-rule="evenodd" fill="#b6202d" fill-rule="evenodd"><path d="m265.842 296.837c0-7.788 0-14.024 0-20.044-2.01-1.075-4.734-1.669-5.012-2.839-.859-3.653-.912-7.523-.955-11.313-.006-.533 1.77-1.546 2.734-1.561 7.957-.128 15.916-.072 24.316-.072.596 4.574 1.182 9.067 1.805 13.854-3.314.364-6.078.668-9.49 1.044 1.164 7.292-4.111 15.941 6.984 20.939-8.904 4.636-6.949 12.193-6.975 19.153-.016 3.819-.002 7.639-.002 12.415-5.117 0-10.025.179-14.9-.138-1.084-.07-2.213-1.77-3.053-2.916-7.939-10.847-15.767-21.774-23.761-32.581-1.708-2.31-3.954-4.222-5.953-6.316-.384.184-.767.367-1.149.552.878 8.105 1.757 16.211 2.681 24.74 14.087-2.194 8.321 9.965 12.814 15.886-6.481 0-12.02 0-17.559 0-5.652 0-11.302 0-17.415 0-1.299-4.799-2.565-9.472-4.005-14.79 2.745 0 4.735-.193 6.673.04 4.343.523 4.998-1.677 4.665-5.358-.465-5.16-1.468-9.871-6.353-11.981 1.573-1.966 4.323-4.028 3.987-5.225-1.348-4.806 1.77-10.976-4.349-14.485-1.516-.87-2.449-3.115-3.18-4.918-1.165-2.872-1.937-5.902-3.084-9.531 1.977-.201 3.536-.488 5.096-.497 7.994-.047 15.991.106 23.98-.082 3.509-.082 5.752 1.031 7.815 4.023 6.674 9.684 13.707 19.119 20.623 28.637.563.774 1.282 1.437 3.022 3.364z"/><path d="m418.783 268.147c.787-2.006 1.379-3.52 1.965-5.015h14.328c-.328 7.354-.563 14.43-1.08 21.484-.055.736-1.73 1.796-2.754 1.927-2.293.292-4.688.34-6.965-.012-1.105-.17-2.449-1.25-2.984-2.282-3.787-7.311-14.775-12.511-22.893-10.382-1.57.412-3.629 1.747-4.018 3.078-.363 1.252.779 3.847 1.971 4.457 2.311 1.181 5.145 1.918 7.711 1.798 1.691-.08 3.297-1.981 5.582-3.489-1.729 6.208 1.393 8.232 6.266 9.101 7.252 1.291 12.967 5.387 14.934 12.324 2.258 7.958-.697 15.186-7.193 20.436-5.77 4.665-11.533 9.118-19.469 10.311-7.592 1.141-13.635-1.046-19.408-5.373-1.107-.831-2.326-1.514-3.664-2.375-2.326 8.834-2.406 8.863-15.693 5.96.756-6.949 1.504-13.979 2.314-21 .072-.62.41-1.347.863-1.761 2.08-1.895 14.395-.587 16.305 1.668 5.695 6.718 13.717 9.409 21.252 6.732 2.326-.826 4.307-2.629 6.512-4.026-4.996-6.39-11.016-7.565-19.947-4.28.377-4.771-3.277-4.972-6.445-5.769-8.828-2.223-15.49-6.795-17.188-16.403-.836-4.74.025-9.175 3.316-12.972 9.135-10.535 28.744-13.969 41.279-7.158 1.584.86 3.105 1.835 5.103 3.021z"/><path d="m291.461 316.08c3.016-.519 5.604-.964 8.807-1.516-.264-6.333 2.758-13.254-5.324-18.154 9.566-5.124 4.252-13.364 5.787-20.508-2.168-.406-3.891-.729-6.109-1.146-.461-4.318-.928-8.701-1.424-13.339h69.863c-.674 9.709-1.291 18.564-1.957 28.155-3.768 0-7.535.225-11.238-.168-.854-.091-2.078-2.275-2.121-3.529-.346-10.228-.273-10.23-10.439-10.23-2.662 0-5.363.286-7.982-.061-5.051-.669-6.467 1.685-6.119 6.255.236 3.118.045 6.269.045 9.671 3.781.654 6.869 1.665 8.389-3.387.348-1.155 4.43-1.188 6.539-1.678 0 6.567.414 12.35-.283 17.995-.182 1.46-3.848 2.488-6.6 4.124-.611-3.057-.924-4.617-1.432-7.164-2.617.447-7.068.277-7.455 1.448-1.135 3.443-.744 7.42-.701 11.185.006.438 1.576 1.216 2.432 1.229 6.605.104 13.211.057 19.809.057 1.965-10.472 1.965-10.472 14.609-8.967-1.152 7.435-2.211 14.875-3.611 22.249-.133.69-2.453 1.404-3.738 1.37-18.434-.484-36.861-1.154-55.295-1.625-3.424-.088-4.816-1.303-4.492-4.761.225-2.442.04-4.926.04-7.505z"/><path d="m186.177 277.766c-3.246-.352-5.649-.612-8.044-.872-1.892 5.634 2.586 12.955 10.76 17.555-2.803 4.819-1.437 14.371 2.586 17.899.355.312.872.659 1.298.64 10.283-.469 7.703 8.73 10.978 13.516-.177.48-.354.961-.531 1.441-9.183-.423-18.371-.775-27.542-1.383-.894-.06-1.975-1.555-2.469-2.616-1.385-2.98-2.508-6.084-3.911-9.578 2.369-.349 4.37-.643 6.934-1.02-1.862-3.978-1.469-8.765-7.756-8.783-14.196-.041-14.196-.21-15.732 7.999 2.569.4 5.134.8 8.417 1.311-1.791 4.148-3.264 7.782-4.961 11.308-.334.693-1.527 1.369-2.332 1.378-8.615.099-17.232.062-26.518.062.908-4.836 1.687-8.977 2.543-13.535 4.542.079 8.91-.496 8.593-6.54-.198-3.78-.7-7.545-1.136-12.043 8.785-1.484 6.692-10.95 10.471-17.81-3.864 0-6.818 0-10.86 0 1.659-5.024 2.919-9.535 4.725-13.817.443-1.052 2.658-1.894 4.072-1.914 9.825-.147 19.654-.115 29.479.043 1.277.021 3.168.754 3.696 1.737 2.501 4.646 4.626 9.495 7.24 15.022zm-29.597 19.415h12.379c-2.376-4.133-4.277-7.437-6.911-12.017-2.138 4.697-3.697 8.124-5.468 12.017z"/><path d="m17.179 223.374c-1.205-4.967-2.595-9.881-3.452-14.886-.182-1.064 1.302-3.047 2.491-3.61 9.688-4.591 19.009-10.7 30.038-11.063 5.362-.177 11.045 1.343 16.129 3.283 4.287 1.635 5.364 8.732 3.378 15.823-.707 2.525-1.733 4.961-2.792 7.94 1.561.498 3.048.983 4.542 1.449 7.755 2.414 9.472 6.578 7.744 14.375-4.128 18.626-18.41 27.417-33.763 36.367-2.764-5.735-5.381-11.166-7.478-15.52 1.503-2.939 4-5.796 3.373-6.939-2.864-5.227-2.528-13.692-12.914-13.013 4.235-5.851 4.991-11.541.326-16.384-.792-.824-4.596 1.253-7.622 2.178zm33.079 23.885c2.409-1.94 4.65-2.942 5.546-4.65 1.486-2.832 2.107-6.118 3.092-9.212-3.67.135-7.354.147-10.999.53-.595.062-1.629 1.938-1.417 2.675.973 3.38 2.316 6.653 3.778 10.657zm-12.579-33.395c1.965 4.649 3.303 7.813 4.796 11.344 5.276-3.433 9.562-6.721 10.405-14.457-5.475 1.121-9.962 2.04-15.201 3.113z"/><path d="m89.01 275.403c-14.398-5.351-17.06 7.371-24.785 15.02.491-9.89.821-18.409 1.469-26.904.069-.91 1.989-2.396 3.063-2.407 16.27-.154 32.541-.107 49.159-.107-.515 5.501-.175 10.584-4.661 14.436-2.103 1.805-3.591 4.338-5.307 6.58-5.87 7.672-5.861 7.679 1.826 13.892-4.343 2.063-8.787 3.458-12.337 6.068-3.412 2.508-5.898 6.274-8.984 9.702 16.794 6.32 27.113-1.933 35.957-14.012.443.344.886.688 1.329 1.031-.858 8.631-1.629 17.273-2.72 25.875-.098.771-2.26 1.841-3.454 1.83-17.807-.164-35.615-.42-53.415-.918-1.223-.034-3.192-2.013-3.43-3.335-.709-3.951-.604-7.989 2.932-10.942.125-.105.235-.241.32-.382 3.38-5.651 10.366-10.207 4.533-18.758 12.816.556 13.481-10.092 18.505-16.669z"/><path d="m300.424 188.493c-3.434-.972-5.469-1.547-7.895-2.234-.449 7.26 1.465 12.786 8.441 16.351-4.18 2.889-4.875 6.319-3.146 10.217.453 1.022 1.088 2.527 1.91 2.733 7.668 1.926 4.713 8.603 6.738 13.061-7.512 0-14.43.243-21.299-.223-1.238-.083-2.531-2.966-3.34-4.763-.852-1.891-1.154-4.03-1.771-6.334 2.27-.316 4.031-.562 5.764-.803-.156-6.448-2.072-8.485-7.965-8.715-8.166-.319-9.832.843-10.652 7.612 1.988.44 4 .885 6.049 1.338-2.854 9.336-5.002 10.966-13.781 10.925-6.1-.028-12.202-.005-19.516-.005 2.053-5.17 3.602-9.223 5.308-13.209.267-.625 1.177-1.147 1.898-1.379 7.562-2.431 9.554-6.439 6.71-13.655 5.459-2.024 7.83-5.338 10.361-14.809-2.521.636-4.811 1.213-7.918 1.997 1.906-5.189 3.248-9.923 5.428-14.233.828-1.635 3.543-3.156 5.467-3.247 7.301-.346 14.641-.258 21.945.087 1.543.073 3.684 1.581 4.379 3 2.445 4.993 4.381 10.235 6.885 16.288zm-24.129 2.171c-1.689 3.916-2.924 6.777-4.332 10.039h9.211c-1.68-3.456-3.033-6.242-4.879-10.039z"/><path d="m454.424 271.646c-10.084-6.189-19.775-12.136-29.709-18.23.611-4.226 1.264-8.736 2.002-13.852 3.682 1.646 6.762 3.023 10.148 4.537 2.436-7.266 1.018-12.879-5.533-16.795 5.744-4.435 6.57-7.775 3.391-14.211-.531-1.076-2.115-2.341-3.184-2.315-3.947.092-5.051-1.825-5.418-5.416-.348-3.399-1.557-6.709-2.525-10.609 11.41.256 21.541 3.603 31.379 7.964.904.4 1.508 2.404 1.533 3.678.064 3.312-.27 6.632-.463 10.292-2.461-.549-4.746-1.059-8.063-1.799 1.4 5.826 2.586 10.772 3.969 16.528 5.137-3.16 9.529-5.861 14.135-8.694-7.111-4.837-3.045-11.64-4.906-18.914 8.77 3.917 16.256 7.196 23.654 10.66.771.361 1.535 1.864 1.447 2.753-.482 4.903-1.232 9.78-1.965 15.211-4.213-2.582-7.348-6.594-12.568-2.23-3.875 3.239-6.959 6.084-5.115 11.777-5.387-.521-9.67-.989-12.801 4.13-2.068 3.382-1.572 4.83 1.225 6.783 6.412 4.474 6.41 4.542 3.111 11.589-1.17 2.499-2.553 4.899-3.744 7.163z"/><path d="m157.997 189.437c-3.792.445-7.075 1.136-10.345 1.083-1.605-.026-3.546-1.084-4.716-2.28-3.497-3.574-8.897-4.722-13.201-2.387-4.033 2.186-7.826 8.859-6.228 12.477 1.163 2.632 3.89 4.573 6.27 7.211-2.214 3.033-4.482 7.176-.258 10.729 1.974 1.66 6.206 3.2 7.771 2.207 2.697-1.712 4.11-5.448 6.062-8.334-.461-.459-.922-.918-1.384-1.378-1.986.345-3.972.69-6.625 1.151.396-3.449.67-6.696 1.207-9.899.128-.764 1.027-1.84 1.741-1.996 7.054-1.535 14.145-2.905 21.757-4.429.499 5.059 2.927 9.036-.179 14.035-1.445 2.327.404 6.694.743 10.138.287 2.922.55 5.847.81 8.627-8.945 2.918-11.678 2.556-13.189-.664-4.991 1.994-9.737 4.669-14.821 5.746-8.39 1.776-14.746-1.917-19.231-9.212-2.661-4.326-5.767-8.378-9.229-13.354 2.909-3.238 2.26-8.682 2.204-14.295-.116-11.703 7.78-19.456 20.417-20.661 4.066-.388 8.2-.061 13.246-.061.393-.398 1.498-2.518 2.966-2.81 3.546-.706 7.261-.649 10.908-.651.522 0 1.411 1.335 1.509 2.13.67 5.402 1.173 10.825 1.795 16.877z"/><path d="m187.962 228.332c0-5.563 0-9.796 0-14.132 1.879-.216 3.346-.385 5.016-.577 2.081-5.549.115-10.208-3.68-14.687 6.495-4.145 3.681-10.284 4.048-16.081-1.947-.149-3.548-.272-5.859-.449 0-3.517-.211-6.978.125-10.385.104-1.056 1.572-2.655 2.621-2.839 13.968-2.45 27.749-1.837 40.946 3.779 7.127 3.033 10.512 9.165 10.845 16.555.207 4.604 2.202 7.427 4.768 9.113-2.263 4.307-4.841 8.296-6.547 12.629-5.079 12.895-15.193 17.118-28.036 17.079-7.973-.024-15.946-.005-24.247-.005zm17.458-46.777c.102 7.226-2.831 13.344 4.478 17.158-6.983 4.204-4.13 10.295-4.731 16.164 4.447 0 8.242.093 12.032-.018 9.857-.289 14.124-7.253 10.377-13.981 1.568-3.774 3.998-6.81 3.525-9.294-.452-2.379-3.59-5.251-6.125-6.032-6.048-1.866-12.437-2.624-19.556-3.997z"/><path d="m378.75 196.571c-6.086-2.428-6.354-3.84-3.814-17.722 13.203 2.195 26.521 4.182 37.047 13.417 6.279 5.509 9.379 12.645 7.717 21.403-.549 2.889-.088 5.97-.088 9.195-2.283 2.555-5.383 5.706-8.109 9.151-4.082 5.16-9.75 8.444-15.779 8.291-11.352-.289-22.662-2.163-33.986-3.422-.41-.045-.768-.563-1.545-1.167 1.436-3.753 2.832-7.617 4.436-11.392.314-.741 1.365-1.434 2.203-1.645 6.131-1.549 7.957-7.38 3.592-13.106 6.609-1.853 6.703-7.653 8.326-13.003zm21.385 19.453c5.514-2.501 6.316-4.006 4.09-8.729-1.998-4.237-9.436-8.741-12.447-7.539-2.98 1.19-3.494 9.495-1.428 13.764-2.873 3.944-5.428 7.452-7.982 10.96.336.571.672 1.141 1.008 1.711 3.184.321 6.424 1.159 9.529.808 2.678-.303 5.918-1.344 7.549-3.233 1.116-1.296-.097-4.605-.319-7.742z"/><path d="m366.244 208.95c-1.973 2.679-4.355 5.52-6.299 8.632-4.545 7.268-11.486 11.672-19.42 12.585-10.066 1.158-20.365.28-30.389.28-1.313-9.41.305-12.945 5.771-14.126 2.283-8.947 2.283-8.947-1.547-13.989 4.961-3.217 6.488-8.21 5.852-13.678-.127-1.095-3.375-1.826-5.93-3.095.729-3.896 1.438-8.41 2.521-12.832.199-.81 1.967-1.843 2.93-1.766 11.725.936 23.299 2.381 33.813 8.453 7.389 4.267 10.35 10.618 10.779 18.802.191 3.608 1.255 7.172 1.919 10.734zm-20.596-3.354c6.412-5.766 7.191-8.263 3.879-12.427-2.242-2.819-12.342-6.222-14.422-4.86-3.535 2.315-3.584 11.762.068 16.898-5.416 2.905-6.664 7.551-5.41 14.164 4.143-.696 8.195-.766 11.771-2.107 6.905-2.592 7.796-5.797 4.114-11.668z"/><path d="m77.815 216.504c6.109-6.428 2.333-12.451.524-18.866-2.206.689-3.908 1.221-6.515 2.036-1.01-3.896-2.259-7.752-2.846-11.708-.133-.893 1.858-2.672 3.183-3.116 7.627-2.553 15.347-4.828 23.822-7.438.595 4.832 1.089 8.843 1.583 12.853-.413-.161-.825-.323-1.238-.484-1.683 1.904-5.017 4.089-4.75 5.663.956 5.642-.622 12.913 7.872 15.35-3.099 3.997-4.944 8.343-1.775 12.311.97 1.215 4.747.188 8.158.188.945 3.295 2.129 6.999 2.978 10.778.148.659-.94 2.083-1.749 2.394-7.665 2.937-15.392 5.708-23.538 8.687-.917-3.082-2.111-6.495-2.861-10.002-.21-.982.602-2.541 1.427-3.326 3.951-3.753 4.09-8.207.077-11.951-1.187-1.109-2.573-2.005-4.352-3.369z"/><path d="m371.33 261.392c.645-3.937.949-7.056-3.354-8.9-.711-.304-1.465-2.493-1.207-2.729 1.145-1.049 2.615-2.256 4.033-2.341 1.359-.082 3.617.833 4.018 1.873.701 1.819.793 4.234.195 6.095-.699 2.171-2.411 4.015-3.685 6.002z"/></g></svg>