<?xml version="1.0" encoding="utf-8"?>
<!-- Generator: Adobe Illustrator 16.0.0, SVG Export Plug-In . SVG Version: 6.00 Build 0)  -->
<!DOCTYPE svg PUBLIC "-//W3C//DTD SVG 1.1//EN" "http://www.w3.org/Graphics/SVG/1.1/DTD/svg11.dtd">
<svg version="1.1" id="Layer_1" xmlns="http://www.w3.org/2000/svg" xmlns:xlink="http://www.w3.org/1999/xlink" x="0px" y="0px"
	 width="500px" height="500px" viewBox="0 0 500 500" enable-background="new 0 0 500 500" xml:space="preserve">
<g>
	<path fill-rule="evenodd" clip-rule="evenodd" fill="#B6202D" d="M265.842,296.837c0-7.788,0-14.024,0-20.044
		c-2.01-1.075-4.734-1.669-5.012-2.839c-0.859-3.653-0.912-7.523-0.955-11.313c-0.006-0.533,1.77-1.546,2.734-1.561
		c7.957-0.128,15.916-0.072,24.316-0.072c0.596,4.574,1.182,9.067,1.805,13.854c-3.314,0.364-6.078,0.668-9.49,1.044
		c1.164,7.292-4.111,15.941,6.984,20.939c-8.904,4.636-6.949,12.193-6.975,19.153c-0.016,3.819-0.002,7.639-0.002,12.415
		c-5.117,0-10.025,0.179-14.9-0.138c-1.084-0.07-2.213-1.77-3.053-2.916c-7.939-10.847-15.767-21.774-23.761-32.581
		c-1.708-2.31-3.954-4.222-5.953-6.316c-0.384,0.184-0.767,0.367-1.149,0.552c0.878,8.105,1.757,16.211,2.681,24.74
		c14.087-2.194,8.321,9.965,12.814,15.886c-6.481,0-12.02,0-17.559,0c-5.652,0-11.302,0-17.415,0
		c-1.299-4.799-2.565-9.472-4.005-14.79c2.745,0,4.735-0.193,6.673,0.04c4.343,0.523,4.998-1.677,4.665-5.358
		c-0.465-5.16-1.468-9.871-6.353-11.981c1.573-1.966,4.323-4.028,3.987-5.225c-1.348-4.806,1.77-10.976-4.349-14.485
		c-1.516-0.87-2.449-3.115-3.18-4.918c-1.165-2.872-1.937-5.902-3.084-9.531c1.977-0.201,3.536-0.488,5.096-0.497
		c7.994-0.047,15.991,0.106,23.98-0.082c3.509-0.082,5.752,1.031,7.815,4.023c6.674,9.684,13.707,19.119,20.623,28.637
		C263.383,294.247,264.102,294.91,265.842,296.837z"/>
	<path fill-rule="evenodd" clip-rule="evenodd" fill="#B6202D" d="M418.783,268.147c0.787-2.006,1.379-3.52,1.965-5.015
		c4.744,0,9.348,0,14.328,0c-0.328,7.354-0.563,14.43-1.08,21.484c-0.055,0.736-1.73,1.796-2.754,1.927
		c-2.293,0.292-4.688,0.34-6.965-0.012c-1.105-0.17-2.449-1.25-2.984-2.282c-3.787-7.311-14.775-12.511-22.893-10.382
		c-1.57,0.412-3.629,1.747-4.018,3.078c-0.363,1.252,0.779,3.847,1.971,4.457c2.311,1.181,5.145,1.918,7.711,1.798
		c1.691-0.08,3.297-1.981,5.582-3.489c-1.729,6.208,1.393,8.232,6.266,9.101c7.252,1.291,12.967,5.387,14.934,12.324
		c2.258,7.958-0.697,15.186-7.193,20.436c-5.77,4.665-11.533,9.118-19.469,10.311c-7.592,1.141-13.635-1.046-19.408-5.373
		c-1.107-0.831-2.326-1.514-3.664-2.375c-2.326,8.834-2.406,8.863-15.693,5.96c0.756-6.949,1.504-13.979,2.314-21
		c0.072-0.62,0.41-1.347,0.863-1.761c2.08-1.895,14.395-0.587,16.305,1.668c5.695,6.718,13.717,9.409,21.252,6.732
		c2.326-0.826,4.307-2.629,6.512-4.026c-4.996-6.39-11.016-7.565-19.947-4.28c0.377-4.771-3.277-4.972-6.445-5.769
		c-8.828-2.223-15.49-6.795-17.188-16.403c-0.836-4.74,0.025-9.175,3.316-12.972c9.135-10.535,28.744-13.969,41.279-7.158
		C415.264,265.986,416.785,266.961,418.783,268.147z"/>
	<path fill-rule="evenodd" clip-rule="evenodd" fill="#B6202D" d="M291.461,316.08c3.016-0.519,5.604-0.964,8.807-1.516
		c-0.264-6.333,2.758-13.254-5.324-18.154c9.566-5.124,4.252-13.364,5.787-20.508c-2.168-0.406-3.891-0.729-6.109-1.146
		c-0.461-4.318-0.928-8.701-1.424-13.339c23.486,0,46.496,0,69.863,0c-0.674,9.709-1.291,18.564-1.957,28.155
		c-3.768,0-7.535,0.225-11.238-0.168c-0.854-0.091-2.078-2.275-2.121-3.529c-0.346-10.228-0.273-10.23-10.439-10.23
		c-2.662,0-5.363,0.286-7.982-0.061c-5.051-0.669-6.467,1.685-6.119,6.255c0.236,3.118,0.045,6.269,0.045,9.671
		c3.781,0.654,6.869,1.665,8.389-3.387c0.348-1.155,4.43-1.188,6.539-1.678c0,6.567,0.414,12.35-0.283,17.995
		c-0.182,1.46-3.848,2.488-6.6,4.124c-0.611-3.057-0.924-4.617-1.432-7.164c-2.617,0.447-7.068,0.277-7.455,1.448
		c-1.135,3.443-0.744,7.42-0.701,11.185c0.006,0.438,1.576,1.216,2.432,1.229c6.605,0.104,13.211,0.057,19.809,0.057
		c1.965-10.472,1.965-10.472,14.609-8.967c-1.152,7.435-2.211,14.875-3.611,22.249c-0.133,0.69-2.453,1.404-3.738,1.37
		c-18.434-0.484-36.861-1.154-55.295-1.625c-3.424-0.088-4.816-1.303-4.492-4.761C291.646,321.143,291.461,318.659,291.461,316.08z"
		/>
	<path fill-rule="evenodd" clip-rule="evenodd" fill="#B6202D" d="M186.177,277.766c-3.246-0.352-5.649-0.612-8.044-0.872
		c-1.892,5.634,2.586,12.955,10.76,17.555c-2.803,4.819-1.437,14.371,2.586,17.899c0.355,0.312,0.872,0.659,1.298,0.64
		c10.283-0.469,7.703,8.73,10.978,13.516c-0.177,0.48-0.354,0.961-0.531,1.441c-9.183-0.423-18.371-0.775-27.542-1.383
		c-0.894-0.06-1.975-1.555-2.469-2.616c-1.385-2.98-2.508-6.084-3.911-9.578c2.369-0.349,4.37-0.643,6.934-1.02
		c-1.862-3.978-1.469-8.765-7.756-8.783c-14.196-0.041-14.196-0.21-15.732,7.999c2.569,0.4,5.134,0.8,8.417,1.311
		c-1.791,4.148-3.264,7.782-4.961,11.308c-0.334,0.693-1.527,1.369-2.332,1.378c-8.615,0.099-17.232,0.062-26.518,0.062
		c0.908-4.836,1.687-8.977,2.543-13.535c4.542,0.079,8.91-0.496,8.593-6.54c-0.198-3.78-0.7-7.545-1.136-12.043
		c8.785-1.484,6.692-10.95,10.471-17.81c-3.864,0-6.818,0-10.86,0c1.659-5.024,2.919-9.535,4.725-13.817
		c0.443-1.052,2.658-1.894,4.072-1.914c9.825-0.147,19.654-0.115,29.479,0.043c1.277,0.021,3.168,0.754,3.696,1.737
		C181.438,267.39,183.563,272.239,186.177,277.766z M156.58,297.181c4.569,0,8.025,0,12.379,0
		c-2.376-4.133-4.277-7.437-6.911-12.017C159.91,289.861,158.351,293.288,156.58,297.181z"/>
	<path fill-rule="evenodd" clip-rule="evenodd" fill="#B6202D" d="M17.179,223.374c-1.205-4.967-2.595-9.881-3.452-14.886
		c-0.182-1.064,1.302-3.047,2.491-3.61c9.688-4.591,19.009-10.7,30.038-11.063c5.362-0.177,11.045,1.343,16.129,3.283
		c4.287,1.635,5.364,8.732,3.378,15.823c-0.707,2.525-1.733,4.961-2.792,7.94c1.561,0.498,3.048,0.983,4.542,1.449
		c7.755,2.414,9.472,6.578,7.744,14.375c-4.128,18.626-18.41,27.417-33.763,36.367c-2.764-5.735-5.381-11.166-7.478-15.52
		c1.503-2.939,4-5.796,3.373-6.939c-2.864-5.227-2.528-13.692-12.914-13.013c4.235-5.851,4.991-11.541,0.326-16.384
		C24.009,220.372,20.205,222.449,17.179,223.374z M50.258,247.259c2.409-1.94,4.65-2.942,5.546-4.65
		c1.486-2.832,2.107-6.118,3.092-9.212c-3.67,0.135-7.354,0.147-10.999,0.53c-0.595,0.062-1.629,1.938-1.417,2.675
		C47.453,239.982,48.796,243.255,50.258,247.259z M37.679,213.864c1.965,4.649,3.303,7.813,4.796,11.344
		c5.276-3.433,9.562-6.721,10.405-14.457C47.405,211.872,42.918,212.791,37.679,213.864z"/>
	<path fill-rule="evenodd" clip-rule="evenodd" fill="#B6202D" d="M89.01,275.403c-14.398-5.351-17.06,7.371-24.785,15.02
		c0.491-9.89,0.821-18.409,1.469-26.904c0.069-0.91,1.989-2.396,3.063-2.407c16.27-0.154,32.541-0.107,49.159-0.107
		c-0.515,5.501-0.175,10.584-4.661,14.436c-2.103,1.805-3.591,4.338-5.307,6.58c-5.87,7.672-5.861,7.679,1.826,13.892
		c-4.343,2.063-8.787,3.458-12.337,6.068c-3.412,2.508-5.898,6.274-8.984,9.702c16.794,6.32,27.113-1.933,35.957-14.012
		c0.443,0.344,0.886,0.688,1.329,1.031c-0.858,8.631-1.629,17.273-2.72,25.875c-0.098,0.771-2.26,1.841-3.454,1.83
		c-17.807-0.164-35.615-0.42-53.415-0.918c-1.223-0.034-3.192-2.013-3.43-3.335c-0.709-3.951-0.604-7.989,2.932-10.942
		c0.125-0.105,0.235-0.241,0.32-0.382c3.38-5.651,10.366-10.207,4.533-18.758C83.321,292.628,83.986,281.98,89.01,275.403z"/>
	<path fill-rule="evenodd" clip-rule="evenodd" fill="#B6202D" d="M300.424,188.493c-3.434-0.972-5.469-1.547-7.895-2.234
		c-0.449,7.26,1.465,12.786,8.441,16.351c-4.18,2.889-4.875,6.319-3.146,10.217c0.453,1.022,1.088,2.527,1.91,2.733
		c7.668,1.926,4.713,8.603,6.738,13.061c-7.512,0-14.43,0.243-21.299-0.223c-1.238-0.083-2.531-2.966-3.34-4.763
		c-0.852-1.891-1.154-4.03-1.771-6.334c2.27-0.316,4.031-0.562,5.764-0.803c-0.156-6.448-2.072-8.485-7.965-8.715
		c-8.166-0.319-9.832,0.843-10.652,7.612c1.988,0.44,4,0.885,6.049,1.338c-2.854,9.336-5.002,10.966-13.781,10.925
		c-6.1-0.028-12.202-0.005-19.516-0.005c2.053-5.17,3.602-9.223,5.308-13.209c0.267-0.625,1.177-1.147,1.898-1.379
		c7.562-2.431,9.554-6.439,6.71-13.655c5.459-2.024,7.83-5.338,10.361-14.809c-2.521,0.636-4.811,1.213-7.918,1.997
		c1.906-5.189,3.248-9.923,5.428-14.233c0.828-1.635,3.543-3.156,5.467-3.247c7.301-0.346,14.641-0.258,21.945,0.087
		c1.543,0.073,3.684,1.581,4.379,3C295.984,177.198,297.92,182.44,300.424,188.493z M276.295,190.664
		c-1.689,3.916-2.924,6.777-4.332,10.039c3.189,0,5.711,0,9.211,0C279.494,197.247,278.141,194.461,276.295,190.664z"/>
	<path fill-rule="evenodd" clip-rule="evenodd" fill="#B6202D" d="M454.424,271.646c-10.084-6.189-19.775-12.136-29.709-18.23
		c0.611-4.226,1.264-8.736,2.002-13.852c3.682,1.646,6.762,3.023,10.148,4.537c2.436-7.266,1.018-12.879-5.533-16.795
		c5.744-4.435,6.57-7.775,3.391-14.211c-0.531-1.076-2.115-2.341-3.184-2.315c-3.947,0.092-5.051-1.825-5.418-5.416
		c-0.348-3.399-1.557-6.709-2.525-10.609c11.41,0.256,21.541,3.603,31.379,7.964c0.904,0.4,1.508,2.404,1.533,3.678
		c0.064,3.312-0.27,6.632-0.463,10.292c-2.461-0.549-4.746-1.059-8.063-1.799c1.4,5.826,2.586,10.772,3.969,16.528
		c5.137-3.16,9.529-5.861,14.135-8.694c-7.111-4.837-3.045-11.64-4.906-18.914c8.77,3.917,16.256,7.196,23.654,10.66
		c0.771,0.361,1.535,1.864,1.447,2.753c-0.482,4.903-1.232,9.78-1.965,15.211c-4.213-2.582-7.348-6.594-12.568-2.23
		c-3.875,3.239-6.959,6.084-5.115,11.777c-5.387-0.521-9.67-0.989-12.801,4.13c-2.068,3.382-1.572,4.83,1.225,6.783
		c6.412,4.474,6.41,4.542,3.111,11.589C456.998,266.982,455.615,269.382,454.424,271.646z"/>
	<path fill-rule="evenodd" clip-rule="evenodd" fill="#B6202D" d="M157.997,189.437c-3.792,0.445-7.075,1.136-10.345,1.083
		c-1.605-0.026-3.546-1.084-4.716-2.28c-3.497-3.574-8.897-4.722-13.201-2.387c-4.033,2.186-7.826,8.859-6.228,12.477
		c1.163,2.632,3.89,4.573,6.27,7.211c-2.214,3.033-4.482,7.176-0.258,10.729c1.974,1.66,6.206,3.2,7.771,2.207
		c2.697-1.712,4.11-5.448,6.062-8.334c-0.461-0.459-0.922-0.918-1.384-1.378c-1.986,0.345-3.972,0.69-6.625,1.151
		c0.396-3.449,0.67-6.696,1.207-9.899c0.128-0.764,1.027-1.84,1.741-1.996c7.054-1.535,14.145-2.905,21.757-4.429
		c0.499,5.059,2.927,9.036-0.179,14.035c-1.445,2.327,0.404,6.694,0.743,10.138c0.287,2.922,0.55,5.847,0.81,8.627
		c-8.945,2.918-11.678,2.556-13.189-0.664c-4.991,1.994-9.737,4.669-14.821,5.746c-8.39,1.776-14.746-1.917-19.231-9.212
		c-2.661-4.326-5.767-8.378-9.229-13.354c2.909-3.238,2.26-8.682,2.204-14.295c-0.116-11.703,7.78-19.456,20.417-20.661
		c4.066-0.388,8.2-0.061,13.246-0.061c0.393-0.398,1.498-2.518,2.966-2.81c3.546-0.706,7.261-0.649,10.908-0.651
		c0.522,0,1.411,1.335,1.509,2.13C156.872,177.962,157.375,183.385,157.997,189.437z"/>
	<path fill-rule="evenodd" clip-rule="evenodd" fill="#B6202D" d="M187.962,228.332c0-5.563,0-9.796,0-14.132
		c1.879-0.216,3.346-0.385,5.016-0.577c2.081-5.549,0.115-10.208-3.68-14.687c6.495-4.145,3.681-10.284,4.048-16.081
		c-1.947-0.149-3.548-0.272-5.859-0.449c0-3.517-0.211-6.978,0.125-10.385c0.104-1.056,1.572-2.655,2.621-2.839
		c13.968-2.45,27.749-1.837,40.946,3.779c7.127,3.033,10.512,9.165,10.845,16.555c0.207,4.604,2.202,7.427,4.768,9.113
		c-2.263,4.307-4.841,8.296-6.547,12.629c-5.079,12.895-15.193,17.118-28.036,17.079
		C204.236,228.313,196.263,228.332,187.962,228.332z M205.42,181.555c0.102,7.226-2.831,13.344,4.478,17.158
		c-6.983,4.204-4.13,10.295-4.731,16.164c4.447,0,8.242,0.093,12.032-0.018c9.857-0.289,14.124-7.253,10.377-13.981
		c1.568-3.774,3.998-6.81,3.525-9.294c-0.452-2.379-3.59-5.251-6.125-6.032C218.928,183.686,212.539,182.928,205.42,181.555z"/>
	<path fill-rule="evenodd" clip-rule="evenodd" fill="#B6202D" d="M378.75,196.571c-6.086-2.428-6.354-3.84-3.814-17.722
		c13.203,2.195,26.521,4.182,37.047,13.417c6.279,5.509,9.379,12.645,7.717,21.403c-0.549,2.889-0.088,5.97-0.088,9.195
		c-2.283,2.555-5.383,5.706-8.109,9.151c-4.082,5.16-9.75,8.444-15.779,8.291c-11.352-0.289-22.662-2.163-33.986-3.422
		c-0.41-0.045-0.768-0.563-1.545-1.167c1.436-3.753,2.832-7.617,4.436-11.392c0.314-0.741,1.365-1.434,2.203-1.645
		c6.131-1.549,7.957-7.38,3.592-13.106C377.033,207.721,377.127,201.921,378.75,196.571z M400.135,216.024
		c5.514-2.501,6.316-4.006,4.09-8.729c-1.998-4.237-9.436-8.741-12.447-7.539c-2.98,1.19-3.494,9.495-1.428,13.764
		c-2.873,3.944-5.428,7.452-7.982,10.96c0.336,0.571,0.672,1.141,1.008,1.711c3.184,0.321,6.424,1.159,9.529,0.808
		c2.678-0.303,5.918-1.344,7.549-3.233C401.57,222.47,400.357,219.161,400.135,216.024z"/>
	<path fill-rule="evenodd" clip-rule="evenodd" fill="#B6202D" d="M366.244,208.95c-1.973,2.679-4.355,5.52-6.299,8.632
		c-4.545,7.268-11.486,11.672-19.42,12.585c-10.066,1.158-20.365,0.28-30.389,0.28c-1.313-9.41,0.305-12.945,5.771-14.126
		c2.283-8.947,2.283-8.947-1.547-13.989c4.961-3.217,6.488-8.21,5.852-13.678c-0.127-1.095-3.375-1.826-5.93-3.095
		c0.729-3.896,1.438-8.41,2.521-12.832c0.199-0.81,1.967-1.843,2.93-1.766c11.725,0.936,23.299,2.381,33.813,8.453
		c7.389,4.267,10.35,10.618,10.779,18.802C364.516,201.824,365.58,205.388,366.244,208.95z M345.648,205.596
		c6.412-5.766,7.191-8.263,3.879-12.427c-2.242-2.819-12.342-6.222-14.422-4.86c-3.535,2.315-3.584,11.762,0.068,16.898
		c-5.416,2.905-6.664,7.551-5.41,14.164c4.143-0.696,8.195-0.766,11.771-2.107C348.439,214.672,349.33,211.467,345.648,205.596z"/>
	<path fill-rule="evenodd" clip-rule="evenodd" fill="#B6202D" d="M77.815,216.504c6.109-6.428,2.333-12.451,0.524-18.866
		c-2.206,0.689-3.908,1.221-6.515,2.036c-1.01-3.896-2.259-7.752-2.846-11.708c-0.133-0.893,1.858-2.672,3.183-3.116
		c7.627-2.553,15.347-4.828,23.822-7.438c0.595,4.832,1.089,8.843,1.583,12.853c-0.413-0.161-0.825-0.323-1.238-0.484
		c-1.683,1.904-5.017,4.089-4.75,5.663c0.956,5.642-0.622,12.913,7.872,15.35c-3.099,3.997-4.944,8.343-1.775,12.311
		c0.97,1.215,4.747,0.188,8.158,0.188c0.945,3.295,2.129,6.999,2.978,10.778c0.148,0.659-0.94,2.083-1.749,2.394
		c-7.665,2.937-15.392,5.708-23.538,8.687c-0.917-3.082-2.111-6.495-2.861-10.002c-0.21-0.982,0.602-2.541,1.427-3.326
		c3.951-3.753,4.09-8.207,0.077-11.951C80.98,218.764,79.594,217.868,77.815,216.504z"/>
	<path fill-rule="evenodd" clip-rule="evenodd" fill="#B6202D" d="M371.33,261.392c0.645-3.937,0.949-7.056-3.354-8.9
		c-0.711-0.304-1.465-2.493-1.207-2.729c1.145-1.049,2.615-2.256,4.033-2.341c1.359-0.082,3.617,0.833,4.018,1.873
		c0.701,1.819,0.793,4.234,0.195,6.095C374.316,257.561,372.604,259.405,371.33,261.392z"/>
</g>
</svg>
