<svg enable-background="new -7.462 -45.129 365.048 365.048" height="365.048" viewBox="-7.462 -45.129 365.048 365.048" width="365.048" xmlns="http://www.w3.org/2000/svg"><path d="m235.739 212.205c-16.59 13.456-37.666 21.506-60.646 21.506s-44.119-8.05-60.647-21.506c3.749.86 7.558 1.29 11.429 1.29 1.475 0 2.949-.062 4.424-.185 13.15 7.804 28.449 12.228 44.855 12.228 16.345 0 31.706-4.485 44.855-12.228 1.475.123 2.889.185 4.424.185 3.748 0 7.558-.491 11.306-1.29zm-60.709-171.126c26.606 0 50.632 10.753 68.082 28.203 10.999 10.999 19.355 24.64 24.025 39.939h-8.603c-4.424-13.026-11.675-24.64-21.198-34.163-15.977-15.977-37.974-25.808-62.307-25.808-24.332 0-46.33 9.893-62.305 25.808-9.525 9.462-16.837 21.137-21.199 34.163h-8.603c4.67-15.238 13.026-28.879 24.025-39.939 17.452-17.388 41.539-28.203 68.083-28.203zm0 18.619c21.445 0 40.924 8.725 54.994 22.796 7.559 7.558 13.58 16.651 17.512 26.729h-14.01c-3.194-6.574-7.496-12.596-12.596-17.696-11.736-11.735-27.957-18.986-45.9-18.986-17.941 0-34.163 7.251-45.899 18.986-5.101 5.101-9.401 11.122-12.597 17.696h-14.01c3.934-10.077 9.955-19.232 17.513-26.729 14.132-14.072 33.61-22.796 54.993-22.796zm-30.968 100.462h-80.739-4.793c-8.726-.799-15.73-8.049-16.283-16.713h86.945c3.564.676 6.943 2.458 9.523 5.1 3.136 3.072 5.04 7.19 5.347 11.613zm-42.95 7.62c1.167 4.425 3.502 8.479 6.697 11.613 4.67 4.67 10.998 7.497 18.064 7.497 7.005 0 13.396-2.889 18.065-7.497s7.496-10.998 7.496-18.064-2.888-13.396-7.496-18.065-10.999-7.496-18.065-7.496h-102.735-4.793c-8.726-.799-15.73-8.05-16.283-16.713h123.813c11.675 0 22.244 4.792 29.863 12.411 7.619 7.62 12.412 18.25 12.412 29.863 0 11.675-4.732 22.243-12.412 29.862-7.619 7.619-18.25 12.412-29.863 12.412-11.674 0-22.243-4.793-29.862-12.412-6.206-6.206-10.507-14.378-11.921-23.473h17.021v.062zm105.01-7.62h80.678 4.793c8.726-.799 15.73-8.049 16.283-16.713h-86.884c-3.563.676-6.943 2.458-9.524 5.1-3.196 3.072-5.1 7.19-5.346 11.613zm42.889 7.62c-1.167 4.425-3.502 8.479-6.697 11.613-4.67 4.67-10.998 7.497-18.064 7.497s-13.396-2.889-18.065-7.497-7.496-10.998-7.496-18.064 2.888-13.396 7.496-18.065 10.999-7.496 18.065-7.496h102.736 4.793c8.726-.799 15.73-8.05 16.283-16.713h-123.752c-11.674 0-22.242 4.792-29.861 12.411-7.619 7.62-12.412 18.25-12.412 29.863 0 11.675 4.792 22.243 12.412 29.862 7.619 7.619 18.248 12.412 29.861 12.412 11.676 0 22.244-4.793 29.863-12.412 6.206-6.206 10.507-14.378 11.92-23.473h-17.082z"/></svg>