<?xml version="1.0" encoding="utf-8"?>
<!-- Generator: Adobe Illustrator 16.0.0, SVG Export Plug-In . SVG Version: 6.00 Build 0)  -->
<!DOCTYPE svg PUBLIC "-//W3C//DTD SVG 1.1//EN" "http://www.w3.org/Graphics/SVG/1.1/DTD/svg11.dtd">
<svg version="1.1" id="Layer_1" xmlns="http://www.w3.org/2000/svg" xmlns:xlink="http://www.w3.org/1999/xlink" x="0px" y="0px"
	 width="365.048px" height="365.048px" viewBox="-7.462 -45.129 365.048 365.048"
	 enable-background="new -7.462 -45.129 365.048 365.048" xml:space="preserve">
<path id="path10" d="M235.739,212.205c-16.59,13.456-37.666,21.506-60.646,21.506s-44.119-8.05-60.647-21.506
	c3.749,0.86,7.558,1.29,11.429,1.29c1.475,0,2.949-0.062,4.424-0.185c13.15,7.804,28.449,12.228,44.855,12.228
	c16.345,0,31.706-4.485,44.855-12.228c1.475,0.123,2.889,0.185,4.424,0.185C228.181,213.495,231.991,213.004,235.739,212.205z
	 M175.03,41.079c26.606,0,50.632,10.753,68.082,28.203c10.999,10.999,19.355,24.64,24.025,39.939h-8.603
	c-4.424-13.026-11.675-24.64-21.198-34.163c-15.977-15.977-37.974-25.808-62.307-25.808c-24.332,0-46.33,9.893-62.305,25.808
	c-9.525,9.462-16.837,21.137-21.199,34.163h-8.603c4.67-15.238,13.026-28.879,24.025-39.939
	C124.399,51.894,148.486,41.079,175.03,41.079z M175.03,59.698c21.445,0,40.924,8.725,54.994,22.796
	c7.559,7.558,13.58,16.651,17.512,26.729h-14.01c-3.194-6.574-7.496-12.596-12.596-17.696c-11.736-11.735-27.957-18.986-45.9-18.986
	c-17.941,0-34.163,7.251-45.899,18.986c-5.101,5.101-9.401,11.122-12.597,17.696h-14.01c3.934-10.077,9.955-19.232,17.513-26.729
	C134.169,68.422,153.647,59.698,175.03,59.698z M144.062,160.16H63.323H58.53c-8.726-0.799-15.73-8.049-16.283-16.713h86.945
	c3.564,0.676,6.943,2.458,9.523,5.1C141.851,151.619,143.755,155.737,144.062,160.16L144.062,160.16z M101.112,167.78
	c1.167,4.425,3.502,8.479,6.697,11.613c4.67,4.67,10.998,7.497,18.064,7.497c7.005,0,13.396-2.889,18.065-7.497
	s7.496-10.998,7.496-18.064s-2.888-13.396-7.496-18.065s-10.999-7.496-18.065-7.496H23.138h-4.793
	c-8.726-0.799-15.73-8.05-16.283-16.713h123.813c11.675,0,22.244,4.792,29.863,12.411c7.619,7.62,12.412,18.25,12.412,29.863
	c0,11.675-4.732,22.243-12.412,29.862c-7.619,7.619-18.25,12.412-29.863,12.412c-11.674,0-22.243-4.793-29.862-12.412
	c-6.206-6.206-10.507-14.378-11.921-23.473h17.021V167.78z M206.122,160.16H286.8h4.793c8.726-0.799,15.73-8.049,16.283-16.713
	h-86.884c-3.563,0.676-6.943,2.458-9.524,5.1C208.272,151.619,206.368,155.737,206.122,160.16z M249.011,167.78
	c-1.167,4.425-3.502,8.479-6.697,11.613c-4.67,4.67-10.998,7.497-18.064,7.497s-13.396-2.889-18.065-7.497
	s-7.496-10.998-7.496-18.064s2.888-13.396,7.496-18.065s10.999-7.496,18.065-7.496h102.736h4.793
	c8.726-0.799,15.73-8.05,16.283-16.713H224.31c-11.674,0-22.242,4.792-29.861,12.411c-7.619,7.62-12.412,18.25-12.412,29.863
	c0,11.675,4.792,22.243,12.412,29.862c7.619,7.619,18.248,12.412,29.861,12.412c11.676,0,22.244-4.793,29.863-12.412
	c6.206-6.206,10.507-14.378,11.92-23.473h-17.082V167.78z"/>
</svg>
