<svg viewBox="0 0 53.8027 45.8682" xmlns="http://www.w3.org/2000/svg"><g transform="translate(-313.13038 -500.7516)"><path d="m353.289 508.493 2.05566-.24903c1.98242-2.57324 3.61816-4.49219 3.61816-4.49219s-2.97362 2.18262-5.67382 4.74122" fill="#c23054"/><path d="m363.933 538.21-44.0478 5.41015-3.75487-30.5664 44.0527-5.40528z" fill="#c23054"/><g fill="#fff"><path d="m342.683 540.817c1.84083-2.11914 3.10059-5.625 2.67579-9.09179l-2.33399-18.9795-5.39062.65919 2.2461 17.793c.36132 2.91993-.41504 5.3711-2.33888 6.88476l2.97853 2.99805z"/><path d="m330.75 538.796-8.36913 1.03028-2.96875-24.1895 8.64746-1.06445c3.36914-.41504 6.46972.72266 7.01171 5.16113.26855 2.1875-.41992 4.5996-2.6416 5.75195 2.1289.37109 4.34083 2.03614 4.69726 4.95118.542 4.40917-1.54785 7.76855-6.37695 8.35937zm-3.46191-19.3018-1.87989.22949.56642 4.58009 1.94335-.23927c1.45996-.17577 1.88477-1.28417 1.7334-2.53417-.15625-1.25-.94238-2.21191-2.36328-2.03614zm1.05956 9.2041-1.80663.22461.65918 5.37598 1.875-.22949c1.52832-.19044 2.04589-1.4502 1.86035-2.94434-.14648-1.21093-.75196-2.65137-2.5879-2.42676"/><path d="m354.812 536.271c-2.02148.24414-4.17968-.12212-6.38183-1.08887l1.23535-4.15528c1.25488.62013 3.31543 1.4502 4.74121 1.27441.85937-.10737 1.40136-.62011 1.33301-1.18163-.32227-2.61719-7.02637.1025-7.66114-5.07324-.38573-3.1543 1.61622-5.72266 5.19043-6.16211 2.48536-.30274 4.02344.2002 5.75196.86426l-1.11329 3.91601c-1.23535-.4541-2.2705-.97167-3.43261-.88379-.87402.0635-1.61621.45899-1.52833 1.17675.3125 2.417 7.14844-.41991 7.8125 5.02443.41017 3.33007-2.00683 5.80077-5.94726 6.28906"/><path d="m352.981 508.791c-3.10058 2.98828-5.10742 5.52735-5.10742 5.52735l-2.92481-2.33888 2.64161 8.27149.0195.0928s1.99218-4.11621 5.2002-8.67188c.83984-1.19628 1.71386-2.36816 2.53417-3.42773l-2.05563.25393z"/><path d="m356.672 515.675c.69337-.083 1.3086.41016 1.3916 1.11329.0927.71288-.39062 1.333-1.08886 1.4209-.68847.0879-1.31836-.4004-1.40625-1.11329-.083-.70313.40528-1.333 1.09375-1.4209zm.0195.2002c-.55665.0684-.95703.60059-.87891 1.1914.0684.60059.58105 1.01562 1.14746.94727.56153-.0635.95215-.59571.8789-1.19141-.0781-.5957-.58105-1.01562-1.14257-.94726zm-.0195 1.83105-.21972.0244-.17579-1.40625c.11713-.0341.22461-.0635.39551-.083.20997-.0244.35645 0 .44923.0538.0927.0489.15136.1416.16601.27831.0244.18066-.0879.3125-.2295.37598v.01c.12213.005.22461.10737.27833.3125.0586.21483.1025.29296.13183.33691l-.23926.0293c-.039-.044-.0879-.16603-.13671-.34669-.0586-.17577-.15625-.23437-.33691-.20996l-.15625.0195zm-.0928-.78125.16602-.0195c.18067-.0244.33203-.10738.3125-.2832-.0195-.12696-.12695-.23926-.37598-.20509l-.16112.0293z"/></g></g></svg>