<!-- Created with Inkscape (http://www.inkscape.org/) -->
<svg xmlns:rdf="http://www.w3.org/1999/02/22-rdf-syntax-ns#" xmlns="http://www.w3.org/2000/svg" version="1.1" xmlns:cc="http://creativecommons.org/ns#" xmlns:dc="http://purl.org/dc/elements/1.1/" viewBox="0 0 53.8027 45.8682">
 <metadata>
  <rdf:RDF>
   <cc:Work rdf:about="">
    <dc:format>image/svg+xml</dc:format>
    <dc:type rdf:resource="http://purl.org/dc/dcmitype/StillImage"/>
    <dc:title/>
   </cc:Work>
  </rdf:RDF>
 </metadata>
 <g fill-rule="nonzero" transform="translate(-313.13038,-500.7516)">
  <path d="m353.289,508.493,2.05566-0.24903c1.98242-2.57324,3.61816-4.49219,3.61816-4.49219s-2.97362,2.18262-5.67382,4.74122" fill="#c23054"/>
  <path d="m363.933,538.21-44.0478,5.41015-3.75487-30.5664,44.0527-5.40528z" fill="#c23054"/>
  <path d="m342.683,540.817c1.84083-2.11914,3.10059-5.625,2.67579-9.09179l-2.33399-18.9795-5.39062,0.65919,2.2461,17.793c0.36132,2.91993-0.41504,5.3711-2.33888,6.88476l2.97853,2.99805z" fill="#FFF"/>
  <path d="m330.75,538.796-8.36913,1.03028-2.96875-24.1895,8.64746-1.06445c3.36914-0.41504,6.46972,0.72266,7.01171,5.16113,0.26855,2.1875-0.41992,4.5996-2.6416,5.75195,2.1289,0.37109,4.34083,2.03614,4.69726,4.95118,0.542,4.40917-1.54785,7.76855-6.37695,8.35937zm-3.46191-19.3018-1.87989,0.22949,0.56642,4.58009,1.94335-0.23927c1.45996-0.17577,1.88477-1.28417,1.7334-2.53417-0.15625-1.25-0.94238-2.21191-2.36328-2.03614zm1.05956,9.2041-1.80663,0.22461,0.65918,5.37598,1.875-0.22949c1.52832-0.19044,2.04589-1.4502,1.86035-2.94434-0.14648-1.21093-0.75196-2.65137-2.5879-2.42676" fill="#FFF"/>
  <path d="m354.812,536.271c-2.02148,0.24414-4.17968-0.12212-6.38183-1.08887l1.23535-4.15528c1.25488,0.62013,3.31543,1.4502,4.74121,1.27441,0.85937-0.10737,1.40136-0.62011,1.33301-1.18163-0.32227-2.61719-7.02637,0.1025-7.66114-5.07324-0.38573-3.1543,1.61622-5.72266,5.19043-6.16211,2.48536-0.30274,4.02344,0.2002,5.75196,0.86426l-1.11329,3.91601c-1.23535-0.4541-2.2705-0.97167-3.43261-0.88379-0.87402,0.0635-1.61621,0.45899-1.52833,1.17675,0.3125,2.417,7.14844-0.41991,7.8125,5.02443,0.41017,3.33007-2.00683,5.80077-5.94726,6.28906" fill="#FFF"/>
  <path d="m352.981,508.791c-3.10058,2.98828-5.10742,5.52735-5.10742,5.52735l-2.92481-2.33888,2.64161,8.27149,0.0195,0.0928s1.99218-4.11621,5.2002-8.67188c0.83984-1.19628,1.71386-2.36816,2.53417-3.42773l-2.05563,0.25393z" fill="#FFF"/>
  <path d="m356.672,515.675c0.69337-0.083,1.3086,0.41016,1.3916,1.11329,0.0927,0.71288-0.39062,1.333-1.08886,1.4209-0.68847,0.0879-1.31836-0.4004-1.40625-1.11329-0.083-0.70313,0.40528-1.333,1.09375-1.4209zm0.0195,0.2002c-0.55665,0.0684-0.95703,0.60059-0.87891,1.1914,0.0684,0.60059,0.58105,1.01562,1.14746,0.94727,0.56153-0.0635,0.95215-0.59571,0.8789-1.19141-0.0781-0.5957-0.58105-1.01562-1.14257-0.94726zm-0.0195,1.83105-0.21972,0.0244-0.17579-1.40625c0.11713-0.0341,0.22461-0.0635,0.39551-0.083,0.20997-0.0244,0.35645,0,0.44923,0.0538,0.0927,0.0489,0.15136,0.1416,0.16601,0.27831,0.0244,0.18066-0.0879,0.3125-0.2295,0.37598v0.01c0.12213,0.005,0.22461,0.10737,0.27833,0.3125,0.0586,0.21483,0.1025,0.29296,0.13183,0.33691l-0.23926,0.0293c-0.039-0.044-0.0879-0.16603-0.13671-0.34669-0.0586-0.17577-0.15625-0.23437-0.33691-0.20996l-0.15625,0.0195zm-0.0928-0.78125,0.16602-0.0195c0.18067-0.0244,0.33203-0.10738,0.3125-0.2832-0.0195-0.12696-0.12695-0.23926-0.37598-0.20509l-0.16112,0.0293z" fill="#FFF"/>
 </g>
</svg>
