<svg enable-background="new -0.699 -63.73 149 149" height="149" viewBox="-.699 -63.73 149 149" width="149" xmlns="http://www.w3.org/2000/svg"><path d="m19.337 21.127v-21.127h4.813v21.127zm93.548-7.893c0-5.106-3.961-8.275-8.598-8.275-4.666 0-8.598 3.199-8.598 8.275 0 5.105 3.961 8.304 8.598 8.304s8.598-3.227 8.598-8.304zm-4.754 0c0 2.67-1.789 4.166-3.873 4.166s-3.873-1.496-3.873-4.166c0-2.7 1.789-4.138 3.873-4.138s3.873 1.438 3.873 4.138zm-90.73 1.819c0-2.377-1.232-4.196-3.433-5.017 2.083-1.145 2.817-2.641 2.817-4.402 0-3.081-2.23-5.634-7.219-5.604h-9.566v21.127h9.977c5.018-.03 7.424-2.524 7.424-6.104zm-5.722-8.803c0 1.438-.91 2.26-2.67 2.26h-3.991v-4.402h3.991c1.614 0 2.67.705 2.67 2.142zm.44 8.48c0 1.379-.969 2.289-2.759 2.289h-4.342v-4.578h4.342c1.732 0 2.759.881 2.759 2.289zm47.185-5.458c-1.321-2.758-3.786-4.284-7.512-4.284-4.401 0-8.333 2.758-8.333 8.246 0 5.34 3.462 8.304 8.275 8.304 3.375 0 6.221-1.35 7.571-4.255l-3.874-1.995c-.704 1.291-1.79 2.112-3.521 2.112-2.23 0-3.668-1.584-3.668-4.166 0-2.583 1.644-4.138 3.639-4.138 1.555 0 2.729.704 3.463 2.23zm70.923 0c-1.32-2.758-3.785-4.284-7.512-4.284-4.401 0-8.334 2.758-8.334 8.246 0 5.34 3.463 8.304 8.275 8.304 3.375 0 6.221-1.35 7.57-4.255l-3.873-1.995c-.704 1.291-1.79 2.112-3.521 2.112-2.229 0-3.668-1.584-3.668-4.166 0-2.583 1.644-4.138 3.639-4.138 1.556 0 2.729.704 3.463 2.23zm-40.348 11.855-4.02-7.101h-3.081v7.101h-4.959v-21.127h8.95c4.842 0 8.216 2.318 8.216 6.866 0 2.905-1.438 4.96-3.991 6.222l4.637 8.039zm-7.071-11.297h3.697c2.289 0 3.403-1.291 3.403-2.817 0-1.819-1.056-2.817-3.403-2.817h-3.697zm-40.142 11.033v-3.316c-.206.06-.499.118-.822.118-.616 0-.938-.323-.938-.88v-5.488c0-4.108-2.759-6.28-7.307-6.28-2.964 0-5.487 1.086-7.072 2.494l2.67 2.993c1.057-.939 2.465-1.526 3.844-1.526 2.113 0 3.11 1.057 3.11 2.788v.499c-.998-.234-2.259-.47-3.785-.47-3.844 0-6.338 1.849-6.338 4.9 0 3.14 2.083 4.783 5.311 4.783 2.201 0 4.167-.909 5.194-2.083.616 1.555 1.966 1.966 3.287 1.966.909.031 1.965-.117 2.846-.498zm-6.485-4.959c0 1.438-1.379 2.377-2.964 2.377-1.496 0-2.23-.764-2.23-1.819 0-1.115.822-1.937 2.494-1.937 1.027 0 1.937.176 2.7.352zm111.241 5.223-5.662-9.83 5.311-5.781h-5.341l-5.604 6.221v-11.708h-4.783v21.127h4.783v-3.814l2.289-2.436 3.58 6.25h5.428v-.029zm-70.864 0-5.664-9.83 5.312-5.781h-5.399l-5.546 6.221v-11.708h-4.783v21.127h4.783v-3.814l2.289-2.436 3.58 6.25h5.429v-.029zm73.799-2.934c.997 0 1.584.615 1.584 1.555s-.587 1.556-1.584 1.556c-.998 0-1.585-.616-1.585-1.556s.587-1.555 1.585-1.555zm0 2.905c.791 0 1.32-.469 1.32-1.35 0-.88-.559-1.35-1.32-1.35-.793 0-1.321.47-1.321 1.35-.029.91.528 1.35 1.321 1.35zm-.617-2.142h.646c.381 0 .586.205.586.499 0 .264-.117.41-.322.498l.293.559h-.293l-.264-.5h-.353v.5h-.294v-1.556zm.294.235v.557h.323c.205 0 .322-.059.322-.264 0-.176-.088-.264-.293-.264h-.353v-.029z"/></svg>