<svg enable-background="new 431.322 175.034 100 100" height="100" viewBox="431.322 175.034 100 100" width="100" xmlns="http://www.w3.org/2000/svg"><path d="m-254.058-521.964c-4.889 0-9.381-1.674-12.943-4.481 4.143-9.35 12.583-21.895 24.094-34.146 5.875 3.707 9.778 10.25 9.778 17.707 0 3.185-.718 6.205-1.989 8.906-3.651-1.689-7.057-3.805-9.945-6.474l6.307 11.838c-3.823 4.092-9.26 6.65-15.302 6.65m-20.922-20.921c0-11.561 9.365-20.926 20.922-20.926 3.098 0 6.033.674 8.686 1.879-11.34 10.023-20.121 21.672-25.317 31.74-2.692-3.526-4.291-7.917-4.291-12.693m42.49 10.029c1.424-3.047 2.215-6.447 2.215-10.029 0-8.266-4.219-15.547-10.623-19.809 3.814-3.926 7.942-7.805 12.338-11.51-5.151 3.029-9.99 6.498-14.463 10.245-3.297-1.729-7.053-2.712-11.035-2.712-13.131 0-23.777 10.653-23.777 23.785 0 5.928 2.171 11.357 5.763 15.516-4.557 9.854-5.354 17.766-1.338 20.441 4.296 2.866 13.643-2.33 19.253-10.791 0 0-8.676 7.826-13.44 6.031-2.933-1.109-2.942-5.595-.524-12.025 3.941 2.896 8.801 4.607 14.064 4.607 6.518 0 12.416-2.619 16.713-6.859l.844 1.59c10.364-.842 41.312-1.662 41.312-1.662-.002-1.484-20.492-.136-37.302-6.818" fill="#1d439c" transform="translate(717.83569 765.202)"/></svg>