<?xml version="1.0" encoding="utf-8"?>
<!-- Generator: Adobe Illustrator 16.0.0, SVG Export Plug-In . SVG Version: 6.00 Build 0)  -->
<!DOCTYPE svg PUBLIC "-//W3C//DTD SVG 1.1//EN" "http://www.w3.org/Graphics/SVG/1.1/DTD/svg11.dtd">
<svg version="1.1"
	 id="svg49749" xmlns:cc="http://creativecommons.org/ns#" xmlns:svg="http://www.w3.org/2000/svg" xmlns:rdf="http://www.w3.org/1999/02/22-rdf-syntax-ns#" xmlns:dc="http://purl.org/dc/elements/1.1/"
	 xmlns="http://www.w3.org/2000/svg" xmlns:xlink="http://www.w3.org/1999/xlink" x="0px" y="0px" width="100px" height="100px"
	 viewBox="431.322 175.034 100 100" enable-background="new 431.322 175.034 100 100" xml:space="preserve">
<g id="g49099">
	<g id="g49105" transform="translate(717.83569,765.202)">
		<path id="path49107" fill="#1D439C" d="M-254.058-521.964c-4.889,0-9.381-1.674-12.943-4.481
			c4.143-9.35,12.583-21.895,24.094-34.146c5.875,3.707,9.778,10.25,9.778,17.707c0,3.185-0.718,6.205-1.989,8.906
			c-3.651-1.689-7.057-3.805-9.945-6.474l6.307,11.838C-242.579-524.522-248.016-521.964-254.058-521.964 M-274.98-542.885
			c0-11.561,9.365-20.926,20.922-20.926c3.098,0,6.033,0.674,8.686,1.879c-11.34,10.023-20.121,21.672-25.317,31.74
			C-273.381-533.718-274.98-538.109-274.98-542.885 M-232.49-532.856c1.424-3.047,2.215-6.447,2.215-10.029
			c0-8.266-4.219-15.547-10.623-19.809c3.814-3.926,7.942-7.805,12.338-11.51c-5.151,3.029-9.99,6.498-14.463,10.245
			c-3.297-1.729-7.053-2.712-11.035-2.712c-13.131,0-23.777,10.653-23.777,23.785c0,5.928,2.171,11.357,5.763,15.516
			c-4.557,9.854-5.354,17.766-1.338,20.441c4.296,2.866,13.643-2.33,19.253-10.791c0,0-8.676,7.826-13.44,6.031
			c-2.933-1.109-2.942-5.595-0.524-12.025c3.941,2.896,8.801,4.607,14.064,4.607c6.518,0,12.416-2.619,16.713-6.859l0.844,1.59
			c10.364-0.842,41.312-1.662,41.312-1.662C-195.19-527.522-215.68-526.174-232.49-532.856"/>
	</g>
</g>
</svg>
