<?xml version="1.0" encoding="utf-8"?>
<!-- Generator: Adobe Illustrator 16.0.0, SVG Export Plug-In . SVG Version: 6.00 Build 0)  -->
<!DOCTYPE svg PUBLIC "-//W3C//DTD SVG 1.1//EN" "http://www.w3.org/Graphics/SVG/1.1/DTD/svg11.dtd">
<svg version="1.1" id="Layer_1" xmlns="http://www.w3.org/2000/svg" xmlns:xlink="http://www.w3.org/1999/xlink" x="0px" y="0px"
	 width="320px" height="320px" viewBox="0 0 320 320" enable-background="new 0 0 320 320" xml:space="preserve">
<path fill-rule="evenodd" clip-rule="evenodd" fill="#FFFFFF" d="M239.649,241.116c0-8.497,0-16.104,0-24.147
	c3.281,0,6.307,0,9.659,0c0,12.614,0,25.17,0,37.997c-5.665,0.95-10.412,1.206-13.95-4.966c-3.75-6.543-8.74-12.374-13.62-19.112
	c0,8.32,0,16.028,0,24.119c-3.419,0-6.452,0-9.766,0c0-12.71,0-25.277,0-37.863c6.242-1.782,10.803-0.695,14.332,5.27
	C230.007,228.672,234.736,234.324,239.649,241.116z"/>
<path fill-rule="evenodd" clip-rule="evenodd" fill="#FFFFFF" d="M165.629,216.989c6.142-1.365,10.527-0.544,13.915,5.11
	c3.973,6.633,9.006,12.631,13.756,19.146c0-8.159,0-16.072,0-24.361c3.063,0,5.972,0,9.391,0c0,12.5,0,25.188,0,37.97
	c-6.012,1.709-10.579,0.626-14.119-5.297c-3.809-6.375-8.586-12.172-13.291-18.709c0,8.244,0,16.15,0,24.294
	c-3.445,0-6.361,0-9.651,0C165.629,242.339,165.629,229.779,165.629,216.989z"/>
<path fill-rule="evenodd" clip-rule="evenodd" fill="#FFFFFF" d="M6.837,216.74c6.247,0,12.206-0.282,18.124,0.095
	c4.246,0.271,8.243,1.782,9.625,6.551c1.375,4.743-0.198,8.407-3.67,10.234c1.989,3.087,4.776,5.746,5.506,8.883
	c1.607,6.908-2.488,12.018-9.864,12.573c-6.417,0.483-12.899,0.101-19.72,0.101C6.837,242.457,6.837,229.91,6.837,216.74z
	 M16.217,238.199c0,4.132,0,6.529,0,10.239c3.638-0.975,6.863-1.584,9.812-2.841c0.601-0.257,0.668-4.084,0.124-4.324
	C23.219,239.977,20.016,239.293,16.217,238.199z M16.294,223.55c0,3.48,0,5.861,0,9.607c3.237-1.181,5.944-1.907,8.32-3.23
	c0.544-0.303,0.404-3.603-0.208-3.899C22.072,224.896,19.416,224.43,16.294,223.55z"/>
<path fill-rule="evenodd" clip-rule="evenodd" fill="#FFFFFF" d="M74.164,255.976c-5.298-1.763-10.11,2.033-13.362-3.003
	c-2.336-3.618-4.404-7.408-7.43-12.545c0,5.742,0,10.037,0,14.64c-3.592,0-6.469,0-9.652,0c0-12.777,0-25.33,0-38.844
	c6.933,0.376,13.717,0.311,20.358,1.256c4.419,0.63,7.097,4.067,7.75,8.673c0.667,4.694,0.127,9.003-4.225,11.911
	c-1.069,0.715-2.244,1.271-3.76,2.116C67.049,245.087,70.173,249.868,74.164,255.976z M53.417,236.14
	c3.095-1.403,5.874-2.027,7.629-3.716c0.941-0.906,0.893-4.485-0.073-5.37c-1.775-1.625-4.557-2.149-7.556-3.398
	C53.417,228.299,53.417,231.519,53.417,236.14z"/>
<path fill-rule="evenodd" clip-rule="evenodd" fill="#FFFFFF" d="M161.137,255.163c-3.834,0-6.94,0-9.678,0
	c-1.327-2.419-2.168-6.011-3.686-6.324c-4.144-0.856-8.574-0.368-12.889-0.296c-0.482,0.009-1.062,0.695-1.41,1.197
	c-4.188,6.033-4.179,6.039-11.941,5.247c2.699-7.896,5.352-15.653,8.002-23.411c0.751-2.199,1.495-4.401,2.245-6.601
	c3.1-9.1,4.237-9.826,13.829-8.402c0.974,0.145,2.393,0.836,2.667,1.608C152.606,230.333,156.779,242.539,161.137,255.163z
	 M146.65,240.969c-1.812-5.911-3.397-11.082-5.412-17.655c-1.954,6.696-3.489,11.957-5.152,17.655
	C139.944,240.969,142.886,240.969,146.65,240.969z"/>
<path fill-rule="evenodd" clip-rule="evenodd" fill="#FFFFFF" d="M313.163,255.383c-3.168,0-5.654,0.262-8.039-0.116
	c-1.115-0.176-2.789-1.489-2.915-2.457c-0.566-4.336-3.249-4.782-6.767-4.484c-2.313,0.195-4.674-0.131-6.974,0.127
	c-1.108,0.124-2.941,0.926-3.058,1.646c-1.29,7.968-7.049,4.619-12.163,5.41c4.448-12.901,8.56-24.971,12.85-36.977
	c0.32-0.897,1.855-1.792,2.921-1.924c10.277-1.278,10.433-1.108,13.87,8.973C306.199,235.287,309.571,244.973,313.163,255.383z
	 M293.773,224.871c-0.328-0.048-0.656-0.096-0.984-0.143c-1.531,5.265-3.063,10.529-4.677,16.074c3.859,0,6.872,0,10.379,0
	C296.821,235.162,295.296,230.017,293.773,224.871z"/>
<path fill-rule="evenodd" clip-rule="evenodd" fill="#FFFFFF" d="M143.222,43.385c-0.928,4.051-1.934,7.906-5.147,11.076
	c-2.535,2.5-0.017,4.382,1.976,6.022c2.039,1.678,5.04,3.188,1.762,6.5c-2.208-2.348-4.34-4.617-5.672-6.035
	c-6.842,2.28-13.034,4.344-19.5,6.499c0-4.268,0-7.657,0-11.046c-0.434-0.084-0.868-0.169-1.302-0.254
	c0.803-0.904,1.606-1.808,2.466-2.777c-5.823-2.493-4.784-7.751-5.826-11.176c2.736-1.549,4.847-2.745,6.957-3.94
	c-0.199-0.442-0.397-0.884-0.595-1.326c-1.534,0.18-3.068,0.36-4.603,0.54c-0.131-0.262-0.261-0.524-0.392-0.787
	c1.02-0.393,2.129-1.266,3.044-1.096c4.395,0.816,5.904-1.934,5.313-5.179c-0.884-4.857,2.406-4.833,5.185-5.282
	c2.375-0.384,4.861-0.08,7.638-0.08c-0.285,1.71-0.482,2.891-0.679,4.072c0.411,0.239,0.822,0.479,1.232,0.718
	c1.16-1.556,2.32-3.111,3.764-5.047c2.118,1.113,5.102,2.682,6.994,3.677c1.139,4.365,2.058,7.886,3.034,11.625
	c-0.792,0.292-2.017,0.743-3.242,1.194c-1.202-1.576-2.075-3.87-3.665-4.599c-5.42-2.484-10.587-0.723-15.497,2
	c4.038-5.604,10.2-4.135,16.058-4.575c-8.822-4.316-15.616-3.517-19.975,2.248c-1.951,2.579-3.636,5.278-0.959,8.858
	c0.972-1.398,1.507-2.169,2.042-2.939c0.454,2.207,0.34,5.907,1.47,6.337c3.189,1.213,6.89,1.084,10.75,1.525
	c-1.381-3.582-0.801-5.235,2.86-5.201C140.21,44.952,141.718,43.934,143.222,43.385z"/>
<path fill-rule="evenodd" clip-rule="evenodd" fill="#FFFFFF" d="M103.707,225.821c-3.333-0.219-5.783-0.379-8.559-0.561
	c0-2.708,0-5.292,0-8.316c8.933,0,17.936,0,27.233,0c0,2.734,0,5.309,0,7.82c-0.393,0.251-0.649,0.548-0.928,0.571
	c-7.548,0.63-7.545,0.625-7.539,8.591c0.005,6.938,0.001,13.878,0.001,21.141c-3.561,0-6.619,0-10.208,0
	C103.707,245.399,103.707,235.845,103.707,225.821z"/>
<path fill-rule="evenodd" clip-rule="evenodd" fill="#FFFFFF" d="M122.384,304.153c-11.404-0.039-20.667-9.258-20.715-20.616
	c-0.049-11.678,9.09-20.46,21.197-20.367c11.599,0.089,20.722,9.232,20.565,20.611C143.278,295.011,133.792,304.192,122.384,304.153
	z M105.481,283.388c-0.05,9.838,7.629,17.766,17.126,17.682c9.282-0.082,16.961-7.899,17.044-17.353
	c0.086-9.759-7.563-17.555-17.221-17.551C112.959,266.171,105.53,273.72,105.481,283.388z"/>
<path fill-rule="evenodd" clip-rule="evenodd" fill="#FFFFFF" d="M78.983,216.76c3.285,0,6.228,0,9.632,0
	c0,12.597,0,25.275,0,38.302c-3.129,0-6.2,0-9.632,0C78.983,242.465,78.983,229.913,78.983,216.76z"/>
<path fill-rule="evenodd" clip-rule="evenodd" fill="#FFFFFF" d="M268.538,255.18c-3.306,0-6.245,0-9.595,0
	c0-12.727,0-25.383,0-38.373c3.137,0,6.186,0,9.595,0C268.538,229.55,268.538,242.078,268.538,255.18z"/>
<path fill-rule="evenodd" clip-rule="evenodd" fill="#FFFFFF" d="M66.574,283.227c0,5.95,0.083,11.429-0.076,16.9
	c-0.028,0.989-1.048,1.95-1.61,2.924c-0.616-0.967-1.757-1.93-1.768-2.903c-0.118-10.996-0.118-21.994,0.032-32.988
	c0.015-1.108,1.223-2.2,1.877-3.3c0.545,0.235,1.091,0.472,1.637,0.707c0,4.933,0,9.864,0,15.026c7.216,0,13.954,0,21.119,0
	c0-4.482-0.091-8.628,0.072-12.764c0.035-0.892,0.987-1.747,1.516-2.618c0.677,0.885,1.933,1.763,1.943,2.656
	c0.13,11.162,0.126,22.326-0.009,33.488c-0.011,0.906-1.231,1.798-1.889,2.695c-0.544-1.017-1.529-2.021-1.559-3.054
	c-0.157-5.464-0.074-10.935-0.074-16.771C80.653,283.227,73.934,283.227,66.574,283.227z"/>
<path fill-rule="evenodd" clip-rule="evenodd" fill="#FFFFFF" d="M200.22,299.523c-2.648,3.905-7.859,4.413-19.7,3.193
	c0-12.682,0-25.404,0-38.093c8.306-1.446,16.839-0.8,19.435,2.152c-5.591,0-10.564,0-15.93,0c0,4.493,0,8.212,0,12.721
	c4.183,0,8.443-0.09,12.694,0.073c0.876,0.034,1.716,1.013,2.571,1.556c-0.84,0.561-1.662,1.571-2.523,1.606
	c-4.143,0.17-8.297,0.077-12.795,0.077c0,5.534,0,10.634,0,16.714C188.861,299.523,193.984,299.523,200.22,299.523z"/>
<path fill-rule="evenodd" clip-rule="evenodd" fill="#FFFFFF" d="M233.346,295.702c1.032,0.47,2.421,0.665,3.033,1.458
	c2.524,3.271,5.891,5.006,9.517,3.216c2.294-1.133,4.449-3.89,5.257-6.376c1.201-3.699-1.06-6.68-4.321-8.653
	c-2.412-1.46-4.905-2.786-7.312-4.256c-3.892-2.376-5.864-5.663-5.106-10.417c0.636-3.981,3.121-6.339,6.689-7.156
	c4.394-1.008,8.652-0.542,11.856,5.009c-1.77-0.174-3.039,0.052-3.893-0.442c-4.649-2.689-8.396-2.418-10.465,0.972
	c-2.145,3.516-0.813,7.198,3.663,9.898c1.846,1.113,3.813,2.022,5.662,3.129c5.717,3.42,7.639,7.295,6.54,13.191
	c-0.933,5.011-4.082,7.817-8.996,8.722c-5.175,0.951-9.231-1.223-12.609-6.669C233.023,296.786,233.185,296.244,233.346,295.702z"/>
<path fill-rule="evenodd" clip-rule="evenodd" fill="#FFFFFF" d="M157.372,267.228c-3.057,0-5.561,0.141-8.032-0.076
	c-0.868-0.076-1.659-1.03-2.485-1.583c0.714-0.489,1.421-1.391,2.143-1.402c6.829-0.113,13.661-0.118,20.491-0.016
	c0.708,0.01,1.402,0.914,2.104,1.404c-0.813,0.556-1.59,1.517-2.445,1.592c-2.471,0.217-4.971,0.076-8.259,0.076
	c0,6.904,0.001,13.5-0.001,20.095c0,4.333,0.078,8.668-0.07,12.996c-0.032,0.916-0.901,1.804-1.385,2.704
	c-0.605-0.924-1.724-1.841-1.736-2.773c-0.13-9.83-0.079-19.662-0.095-29.494C157.599,269.779,157.478,268.809,157.372,267.228z"/>
<path fill-rule="evenodd" clip-rule="evenodd" fill="#FFFFFF" d="M213.876,299.51c4.829,0.229,9.057,0.428,13.463,0.636
	c-1.427,3.35-5.53,3.879-16.729,2.466c0-11.982-0.033-24.058,0.078-36.132c0.008-0.747,1.15-1.482,1.765-2.224
	c0.465,0.894,1.317,1.78,1.333,2.682c0.121,6.983,0.082,13.969,0.09,20.954C213.88,291.541,213.876,295.19,213.876,299.51z"/>
<path fill-rule="evenodd" clip-rule="evenodd" fill="#FFFFFF" d="M209.94,36.94c0-4.588-0.199-8.154,0.059-11.686
	c0.234-3.203,0.967-6.369,2.178-9.467C211.126,22.457,215.037,29.424,209.94,36.94z"/>
<path fill-rule="evenodd" clip-rule="evenodd" fill="#FFFFFF" d="M202.522,33.938c1.82-5.549-4.299-11.219,0.673-16.922
	C205.472,21.511,205.351,29.387,202.522,33.938z"/>
<path fill-rule="evenodd" clip-rule="evenodd" fill="#FFFFFF" d="M203.619,111.859c1.352-12.565,2.704-25.13,4.057-37.695
	C206.323,86.729,204.97,99.294,203.619,111.859z"/>
<path fill-rule="evenodd" clip-rule="evenodd" fill="#FFFFFF" d="M221.077,17.743c0,5.142,0,9.233,0,13.324
	c-0.518,0.018-1.035,0.036-1.552,0.055C221.007,26.938,214.807,23.127,221.077,17.743z"/>
<path fill-rule="evenodd" clip-rule="evenodd" fill="#FFFFFF" d="M152.357,55.667c-5.032-7.559-5.032-7.559-0.822-8.344
	C151.776,49.765,152.012,52.16,152.357,55.667z"/>
<path fill-rule="evenodd" clip-rule="evenodd" fill="#FFFFFF" d="M189.076,139.304c-4.422,1.626-8.844,3.252-13.265,4.877
	c-0.236-0.7-0.472-1.401-0.708-2.101c4.523-1.321,9.049-2.642,13.573-3.963C188.81,138.513,188.943,138.908,189.076,139.304z"/>
<path fill-rule="evenodd" clip-rule="evenodd" fill="#FFFFFF" d="M164.585,190.195c2.109,0,4.219,0,6.328,0
	c-7.76-4.188-15.213-9.17-24.612-5.984c-1.676,0.567-3.674,0.72-5.417,0.43c-2.776-0.463-4.195,0.521-5.494,2.928
	c-2.577,4.775-3.458,4.721-6.995,0.57c-0.602-0.707-1.608-1.068-2.512-1.643c-5.577,8.326-10.285-0.947-15.292,0.118
	c0-7.944,0.235-15.271-0.084-22.571c-0.207-4.718,1.938-5.676,6.002-5.339c6.092,0.505,6.102,0.388,5.717-6.266
	c-3.511,0-7.071,0-11.736,0c0-8.572,0-16.599,0-24.833c-5.878,0.838-8.417,2.975-7.926,8.35c0.467,5.117,0.101,10.309,0.101,16.321
	c-7.01,0-13.851,0-20.482,0c-1.565,5.219-0.266,6.977,4.542,6.446c4.117-0.455,8.327-0.002,12.479-0.234
	c3.185-0.178,3.987,1.217,3.936,4.135c-0.125,7.155-0.073,14.315,0.056,21.472c0.032,1.732,0.64,3.455,1.261,6.583
	c-5.912-0.917-11.887-1.71-17.782-2.899c-0.893-0.181-1.504-2.16-2.09-3.381c-1.288-2.682-2.114-5.66-3.772-8.076
	c-5.432-7.908-7.203-16.813-7.094-26.078c0.034-2.91,1.638-6.033,3.221-8.635c2.073-3.406,3.854-2.889,6.658,2.245
	c0-2.232,0.334-3.706-0.057-4.952c-1.909-6.088,0.209-10.447,4.994-14.35c11.411-9.306,19.35-21.343,25.817-34.394
	c1.461-2.95,2.758-6.158,3.189-9.373c0.243-1.809-0.959-4.544-2.421-5.595c-1-0.719-3.589,0.69-5.427,1.275
	c-0.519,0.165-0.895,0.78-1.632,1.462c1.471-6.789,6.822-7.782,11.852-9.203c1.551,8.824,9.715,2.131,13.203,6.301
	c-2.531,4.946-2.227,5.8,3.618,8.794c5.498-7.962,5.498-7.962,0.647-9.766c1.581-1.227,3.188-2.473,5.607-4.35
	c12.528,2.936,25.75,6.034,38.974,9.133c-4.854,9.21-4.508,10.697,2.762,11.94c-8.409,7.111-8.496,15.692-7.839,30.492
	c6.72,0.825,13.465,1.652,20.49,2.515c3.239-29.813,7.054-58.814,9.984-87.754c0.941,1.57,2.418,4.034,4.077,6.802
	c0.114-0.038,0.998-0.332,1.56-0.518c4.251,2.885-6.619,5.614,0.807,8.759c-5.901,4.45-4.344,11.007-5.268,16.88
	c-0.332,2.114-0.666,4.228-0.999,6.342c0.051-2.82,0.121-5.639,0.147-8.459c0.025-2.755,0.006-5.511,0.006-8.267
	c-0.498,0.019-0.995,0.038-1.492,0.057c-2.347,22.335-4.693,44.671-7.04,67.007c0.55,0.202,1.101,0.403,1.65,0.604
	c0.434-0.682,0.867-1.363,1.3-2.045c0.517,5.509,1.071,11.014,1.527,16.527c0.163,1.97,0.086,3.959,0.116,5.932
	c-0.354-2.941-0.762-5.87-1.048-8.811c-0.853-8.753-12.223-14.67-19.905-10.268c-0.765,0.438-1.181,1.48-2.331,2.996
	c13.768-0.064,20.604,7.123,22.949,19.575c0.08-1.214,0.161-2.429,0.242-3.644c-0.147,2.463-0.359,4.924-0.418,7.389
	c-0.037,1.569-0.242,3.303,0.314,4.687c1.811,4.508,4.216,8.788,5.876,13.344c2.379,6.526,7.145,10.176,13.361,12.429
	c0.904,0.328,1.752,0.807,3.73,1.733c-5.756,0-10.323,0-16.584,0c1.533,1.714,2.445,3.648,3.429,3.686
	c6.981,0.265,13.978,0.142,20.698,0.142c-1.263,2.49-2.697,5.32-4.259,8.4c-7.98,0-16.478,0-24.433,0
	c-0.424-0.611-0.905-1.962-1.465-1.995c-2.458-0.146-5.491-0.789-7.304,0.353c-5.1,3.213-10.552,2.174-15.906,2.439
	c-4.32,0.215-8.651,0.209-12.979,0.239c-2.983,0.021-5.732,0.335-8.609-1.925c-1.696-1.332-5.296-0.243-8.04-0.243
	c-0.051,0.427-0.101,0.854-0.152,1.28c0.794,0.381,1.589,0.761,2.399,1.148c-0.157,0.086-0.374,0.306-0.593,0.309
	c-6.655,0.064-13.339,0.492-19.955,0.004c-3.645-0.27-7.116-2.412-10.779-3.082c-2.361-0.432-4.942,0.188-7.393,0.555
	c-0.412,0.063-0.657,1.237-1.326,2.607c-5.491,0-11.957,0.106-18.414-0.089c-1.319-0.04-2.54-1.494-3.917-1.81
	c-3.56-0.813-7.182-1.354-11.25-2.639c2.472-0.32,4.969-1.021,7.411-0.866c3.091,0.197,6.118,1.25,9.209,1.645
	c3.977,0.507,8.016,1.159,11.979,0.921c2.633-0.159,5.18-1.766,6.948-2.421c6.956,0.419,13.789,1.233,20.585,1
	c2.103-0.071,4.062-3.058,6.183-4.575c0.761-0.545,1.806-0.693,2.722-1.021c-1.332,1.511-2.664,3.021-4.488,5.09
	c3.535,0.469,6.105,0.809,8.676,1.149c0.113-0.538,0.226-1.075,0.338-1.614c-1.015-0.586-2.029-1.173-3.561-2.059
	c2.971-1.379,5.381-3.915,6.813,0.846c0.141,0.47,0.765,1.108,1.194,1.133c7.133,0.398,14.27,0.711,21.406,1.043
	c0.035-0.357,0.07-0.714,0.106-1.07C171.67,192.508,168.128,191.352,164.585,190.195z M133.675,95.24
	c0.731,7.765-3.771,8.684-10.088,7.464c0,1.303,0,2.533,0,4.13c3.668-1.092,7.014-1.92,10.223-3.116
	c1.56-0.582,2.864-1.852,4.283-2.811c-1.504-1.855-3.009-3.711-4.513-5.567c0.394-0.901,0.539-2.147,1.225-2.64
	c2.42-1.736,5.026-3.215,7.575-4.774c0.877,0.886,2.4,1.696,2.513,2.67c0.37,3.18,2.425,4.146,5.018,4.366
	c0.894,0.076,2.72-0.95,2.674-1.239c-0.359-2.222-1.074-4.386-1.84-7.155c-1.719,1.539-2.584,2.313-3.797,3.399
	c-0.424-2.586-0.755-4.603-1.085-6.619c-0.33-0.081-0.659-0.162-0.988-0.243c-0.792,1.651-1.583,3.302-2.375,4.954
	c-4.99-1.136-9.979-2.271-15.121-3.442c-4.605,8.842-4.605,8.842-3.917,11.313C126.842,95.704,130.258,95.472,133.675,95.24z
	 M124.654,170.232c1.721,0.695,3.442,1.392,5.287,2.139c0-9.864,0-19.101,0-28.337c-2.475,4.87-3.794,9.942-5.45,14.9
	c-1.316,3.94-1.894,7.712,0.341,11.474c-2.418-2.167-4.798-4.378-7.275-6.476c-0.756-0.641-1.777-0.97-2.677-1.442
	c-0.153,1.022-0.807,2.394-0.377,3.008c2.646,3.786,5.537,7.4,8.346,11.072c0.602-0.238,1.203-0.477,1.805-0.714
	C124.654,173.982,124.654,172.107,124.654,170.232z M190.349,157.271c-4.581,2.358-9.688,0.828-14.615-0.429
	c-4.906-1.251-9.656-3.107-14.476-4.698c5.123,6.016,18.553,10.319,25.061,8.149c4.105-1.369,8.233-3.832,11.205-6.91
	c1.319-1.367-0.183-5.465-0.419-8.323c-0.054-0.662-0.193-1.317-0.25-1.979c-0.468-5.531-3.284-9.239-8.654-10.561
	c-5.155-1.269-10.422-2.911-15.635-2.894c-5.635,0.019-11.412,1.288-16.839,2.949c-3.195,0.978-3.083,3.627,0.246,5.261
	c1.564,0.767,3.132,1.525,4.699,2.288c-0.085,0.3-0.17,0.6-0.254,0.9c-1.262,0.096-2.523,0.191-5.138,0.389
	c3.032,1.521,4.828,2.422,6.624,3.323c-0.084,0.425-0.17,0.851-0.255,1.275c-1.952,0.435-3.904,0.869-5.856,1.304
	c-0.065,0.388-0.131,0.776-0.197,1.165C167.216,151.42,178.838,154.359,190.349,157.271z M179.603,169.248
	c5.009,4.749,10.285,3.072,14.926,2.586c2.795-0.293,6.578-2.547,7.678-4.947c1.625-3.543,0.521-7.745-3.48-10.732
	c-4.816,7.828-12.9,6.58-20.314,7.185c0.062,0.553,0.123,1.106,0.186,1.66c5.995,0.415,11.99,0.831,19.045,1.319
	C191.917,173.926,185.983,169.104,179.603,169.248z M171.972,98.761c0.486,0.027,0.973,0.054,1.46,0.081
	c1.204-5.685,2.407-11.37,3.676-17.362c-0.758-0.891-1.792-2.104-2.825-3.318c-0.287,0.467-0.576,0.935-0.864,1.402
	c-1.882-0.775-3.757-1.567-5.647-2.32c-1.018-0.405-2.592-1.338-2.982-0.989c-0.796,0.712-1.167,2.102-1.324,3.265
	c-0.146,1.084,0.212,2.237,0.385,3.662c1.232-0.98,2.209-1.756,3.529-2.804c0.345,2,0.588,3.404,0.83,4.805
	c1.221-0.153,2.182-0.274,3.764-0.473C171.972,89.745,171.972,94.253,171.972,98.761z M89.578,131.776
	c6.467,1.223,7.942,0.341,10.83-4.938c0.558-1.02,2.776-1.061,4.148-1.721c2.87-1.379,5.896-2.586,8.421-4.456
	c1.007-0.747,0.857-3.057,1.339-5.101c-4,0.786-4.053,6.173-8.997,4.753C100.911,123.956,92.705,124.295,89.578,131.776z
	 M204.754,173.703c-4.427,0.902-8.76,1.785-13.093,2.668c6.893,1.947,12.948,8.768,21.927,3.521
	c-2.123-1.596-3.353-2.584-4.646-3.478C207.49,175.412,205.98,174.492,204.754,173.703z M150.175,73.832
	c0.864,7.895,3.067,10.229,9.339,10.193C161.906,74.476,159.189,71.398,150.175,73.832z M116.182,135.337
	c3.883-4.136,6.822-7.268,10.018-10.671c-11.04-4.329-11.044-4.329-10.507,6.185C115.74,131.805,115.895,132.753,116.182,135.337z
	 M155.569,170.633c5.026,7.014,13.963,10.645,21.217,7.932c-3.872-2.26-7.828-4.57-11-6.421
	C161.368,175.529,159.16,169.819,155.569,170.633z M149.813,119.458c-1.619-3.273-3.028-6.122-4.437-8.97
	c-0.542-0.195-1.085-0.39-1.628-0.585c-1.51,2.655-4.783,5.823-4.188,7.868C141.127,123.166,145.547,121.113,149.813,119.458z
	 M135.308,162.5c3.569-0.597,5.322-0.891,7.67-1.284c-0.516-4.709-1.003-9.166-1.491-13.622c-0.695,0.001-1.39,0.002-2.085,0.003
	C138.143,152.181,136.884,156.763,135.308,162.5z M98.185,147.52c0.496-0.363,0.992-0.727,1.488-1.09
	c-2.893-4.259-5.785-8.517-8.873-13.064C87.354,137.864,91.993,145.556,98.185,147.52z M162.574,126.357
	c-2.879-2.626-12.877-0.338-14.234,1.771c-0.388,0.602-0.621,1.616-0.379,2.224c0.248,0.624,1.375,1.521,1.755,1.373
	C154.042,130.037,158.299,128.173,162.574,126.357z M128.051,136.038c-5.124,3.936-9.125,7.009-13.803,10.602
	C120.852,148.56,126.616,144.095,128.051,136.038z M164.796,89.651c0.607,4.709-4.533,10.501,2.435,14.835
	C170.445,98.407,166.83,94.156,164.796,89.651z M98.803,172.208c-3.341,3.063-5.627,5.157-8.316,7.622
	c2.854,1.584,5.064,2.81,7.708,4.277C98.395,180.211,98.562,176.934,98.803,172.208z M165.117,183.496
	c-0.072,0.756-0.145,1.512-0.217,2.268c4.67,0,9.34,0,14.009,0c0.001-0.756,0.002-1.512,0.003-2.268
	C174.314,183.496,169.714,183.496,165.117,183.496z M116.901,177.087c-0.416,0.155-0.831,0.31-1.247,0.464
	c0.301,2.936,0.603,5.871,0.983,9.582c2.613-1.25,4.272-2.043,6.299-3.013C120.661,181.469,118.781,179.277,116.901,177.087z
	 M127.986,117.986c4.305,2.35,7.781,4.247,11.257,6.144c0.276-0.417,0.551-0.834,0.827-1.251c-2.418-1.646-4.836-3.292-7.226-4.919
	c0.661-1.551,1.245-2.922,1.83-4.293c-0.331-0.26-0.662-0.52-0.992-0.78C131.96,114.427,130.24,115.968,127.986,117.986z
	 M99.748,163.68c-0.39-0.604-0.78-1.207-1.17-1.811c-4.378,3.062-8.757,6.123-13.136,9.186c0.399,0.589,0.798,1.178,1.197,1.768
	C91.008,169.774,95.378,166.727,99.748,163.68z M117.217,113.91c1.22-7.511,1.108-8.251-1.659-10.96
	C113.324,109.944,113.749,112.752,117.217,113.91z M195.482,186.531c-4.289-4.123-9.42-3.443-11.282,0.967
	C187.868,187.184,191.262,186.893,195.482,186.531z M206.076,191.721c-0.063,0.71-0.125,1.419-0.188,2.129
	c3.527,0.57,7.055,1.143,10.582,1.713c0.117-0.775,0.234-1.551,0.352-2.326C213.24,192.73,209.658,192.227,206.076,191.721z
	 M152.798,174.35c-0.493-0.007-0.986-0.014-1.479-0.021c-0.587,2.044-1.175,4.088-2.049,7.13c2.762-0.716,4.118-1.067,5.954-1.543
	C154.287,177.768,153.542,176.059,152.798,174.35z M188.208,193.588c-1.722-0.965-2.978-1.668-4.231-2.371
	c-0.259,0.719-0.518,1.438-0.775,2.156c1.98,0.616,3.953,1.646,5.947,1.691c1.153,0.025,2.342-1.536,3.516-2.383
	c-0.424-0.438-0.849-0.877-1.272-1.314C190.247,192.166,189.102,192.965,188.208,193.588z M161.328,113.04
	c-1.738-0.88-2.925-1.787-4.239-2.043c-0.912-0.178-2.207,0.301-2.936,0.938c-0.527,0.461-0.826,1.984-0.467,2.457
	c0.457,0.602,1.786,1.018,2.552,0.813C157.906,114.758,159.455,113.869,161.328,113.04z M169.07,124.47
	c0.178,0.806,0.354,1.612,0.531,2.418c3.131-0.794,6.262-1.588,9.392-2.382c-0.147-0.663-0.294-1.326-0.442-1.989
	C175.39,123.168,172.23,123.819,169.07,124.47z"/>
</svg>
