<svg enable-background="new 0 0 320 320" height="320" viewBox="0 0 320 320" width="320" xmlns="http://www.w3.org/2000/svg"><g clip-rule="evenodd" fill="#fff" fill-rule="evenodd"><path d="m239.649 241.116c0-8.497 0-16.104 0-24.147h9.659v37.997c-5.665.95-10.412 1.206-13.95-4.966-3.75-6.543-8.74-12.374-13.62-19.112v24.119c-3.419 0-6.452 0-9.766 0 0-12.71 0-25.277 0-37.863 6.242-1.782 10.803-.695 14.332 5.27 3.703 6.258 8.432 11.91 13.345 18.702z"/><path d="m165.629 216.989c6.142-1.365 10.527-.544 13.915 5.11 3.973 6.633 9.006 12.631 13.756 19.146 0-8.159 0-16.072 0-24.361h9.391v37.97c-6.012 1.709-10.579.626-14.119-5.297-3.809-6.375-8.586-12.172-13.291-18.709v24.294c-3.445 0-6.361 0-9.651 0-.001-12.803-.001-25.363-.001-38.153z"/><path d="m6.837 216.74c6.247 0 12.206-.282 18.124.095 4.246.271 8.243 1.782 9.625 6.551 1.375 4.743-.198 8.407-3.67 10.234 1.989 3.087 4.776 5.746 5.506 8.883 1.607 6.908-2.488 12.018-9.864 12.573-6.417.483-12.899.101-19.72.101-.001-12.72-.001-25.267-.001-38.437zm9.38 21.459v10.239c3.638-.975 6.863-1.584 9.812-2.841.601-.257.668-4.084.124-4.324-2.934-1.296-6.137-1.98-9.936-3.074zm.077-14.649v9.607c3.237-1.181 5.944-1.907 8.32-3.23.544-.303.404-3.603-.208-3.899-2.334-1.132-4.99-1.598-8.112-2.478z"/><path d="m74.164 255.976c-5.298-1.763-10.11 2.033-13.362-3.003-2.336-3.618-4.404-7.408-7.43-12.545v14.64c-3.592 0-6.469 0-9.652 0 0-12.777 0-25.33 0-38.844 6.933.376 13.717.311 20.358 1.256 4.419.63 7.097 4.067 7.75 8.673.667 4.694.127 9.003-4.225 11.911-1.069.715-2.244 1.271-3.76 2.116 3.206 4.907 6.33 9.688 10.321 15.796zm-20.747-19.836c3.095-1.403 5.874-2.027 7.629-3.716.941-.906.893-4.485-.073-5.37-1.775-1.625-4.557-2.149-7.556-3.398z"/><path d="m161.137 255.163c-3.834 0-6.94 0-9.678 0-1.327-2.419-2.168-6.011-3.686-6.324-4.144-.856-8.574-.368-12.889-.296-.482.009-1.062.695-1.41 1.197-4.188 6.033-4.179 6.039-11.941 5.247 2.699-7.896 5.352-15.653 8.002-23.411.751-2.199 1.495-4.401 2.245-6.601 3.1-9.1 4.237-9.826 13.829-8.402.974.145 2.393.836 2.667 1.608 4.33 12.152 8.503 24.358 12.861 36.982zm-14.487-14.194c-1.812-5.911-3.397-11.082-5.412-17.655-1.954 6.696-3.489 11.957-5.152 17.655z"/><path d="m313.163 255.383c-3.168 0-5.654.262-8.039-.116-1.115-.176-2.789-1.489-2.915-2.457-.566-4.336-3.249-4.782-6.767-4.484-2.313.195-4.674-.131-6.974.127-1.108.124-2.941.926-3.058 1.646-1.29 7.968-7.049 4.619-12.163 5.41 4.448-12.901 8.56-24.971 12.85-36.977.32-.897 1.855-1.792 2.921-1.924 10.277-1.278 10.433-1.108 13.87 8.973 3.311 9.706 6.683 19.392 10.275 29.802zm-19.39-30.512c-.328-.048-.656-.096-.984-.143-1.531 5.265-3.063 10.529-4.677 16.074h10.379c-1.67-5.64-3.195-10.785-4.718-15.931z"/><path d="m143.222 43.385c-.928 4.051-1.934 7.906-5.147 11.076-2.535 2.5-.017 4.382 1.976 6.022 2.039 1.678 5.04 3.188 1.762 6.5-2.208-2.348-4.34-4.617-5.672-6.035-6.842 2.28-13.034 4.344-19.5 6.499 0-4.268 0-7.657 0-11.046-.434-.084-.868-.169-1.302-.254.803-.904 1.606-1.808 2.466-2.777-5.823-2.493-4.784-7.751-5.826-11.176 2.736-1.549 4.847-2.745 6.957-3.94-.199-.442-.397-.884-.595-1.326-1.534.18-3.068.36-4.603.54-.131-.262-.261-.524-.392-.787 1.02-.393 2.129-1.266 3.044-1.096 4.395.816 5.904-1.934 5.313-5.179-.884-4.857 2.406-4.833 5.185-5.282 2.375-.384 4.861-.08 7.638-.08-.285 1.71-.482 2.891-.679 4.072.411.239.822.479 1.232.718 1.16-1.556 2.32-3.111 3.764-5.047 2.118 1.113 5.102 2.682 6.994 3.677 1.139 4.365 2.058 7.886 3.034 11.625-.792.292-2.017.743-3.242 1.194-1.202-1.576-2.075-3.87-3.665-4.599-5.42-2.484-10.587-.723-15.497 2 4.038-5.604 10.2-4.135 16.058-4.575-8.822-4.316-15.616-3.517-19.975 2.248-1.951 2.579-3.636 5.278-.959 8.858.972-1.398 1.507-2.169 2.042-2.939.454 2.207.34 5.907 1.47 6.337 3.189 1.213 6.89 1.084 10.75 1.525-1.381-3.582-.801-5.235 2.86-5.201 1.497.015 3.005-1.003 4.509-1.552z"/><path d="m103.707 225.821c-3.333-.219-5.783-.379-8.559-.561 0-2.708 0-5.292 0-8.316h27.233v7.82c-.393.251-.649.548-.928.571-7.548.63-7.545.625-7.539 8.591.005 6.938.001 13.878.001 21.141-3.561 0-6.619 0-10.208 0 0-9.668 0-19.222 0-29.246z"/><path d="m122.384 304.153c-11.404-.039-20.667-9.258-20.715-20.616-.049-11.678 9.09-20.46 21.197-20.367 11.599.089 20.722 9.232 20.565 20.611-.153 11.23-9.639 20.411-21.047 20.372zm-16.903-20.765c-.05 9.838 7.629 17.766 17.126 17.682 9.282-.082 16.961-7.899 17.044-17.353.086-9.759-7.563-17.555-17.221-17.551-9.471.005-16.9 7.554-16.949 17.222z"/><path d="m78.983 216.76h9.632v38.302c-3.129 0-6.2 0-9.632 0 0-12.597 0-25.149 0-38.302z"/><path d="m268.538 255.18c-3.306 0-6.245 0-9.595 0 0-12.727 0-25.383 0-38.373h9.595z"/><path d="m66.574 283.227c0 5.95.083 11.429-.076 16.9-.028.989-1.048 1.95-1.61 2.924-.616-.967-1.757-1.93-1.768-2.903-.118-10.996-.118-21.994.032-32.988.015-1.108 1.223-2.2 1.877-3.3.545.235 1.091.472 1.637.707v15.026h21.119c0-4.482-.091-8.628.072-12.764.035-.892.987-1.747 1.516-2.618.677.885 1.933 1.763 1.943 2.656.13 11.162.126 22.326-.009 33.488-.011.906-1.231 1.798-1.889 2.695-.544-1.017-1.529-2.021-1.559-3.054-.157-5.464-.074-10.935-.074-16.771-7.132.002-13.851.002-21.211.002z"/><path d="m200.22 299.523c-2.648 3.905-7.859 4.413-19.7 3.193 0-12.682 0-25.404 0-38.093 8.306-1.446 16.839-.8 19.435 2.152-5.591 0-10.564 0-15.93 0v12.721c4.183 0 8.443-.09 12.694.073.876.034 1.716 1.013 2.571 1.556-.84.561-1.662 1.571-2.523 1.606-4.143.17-8.297.077-12.795.077v16.714c4.889.001 10.012.001 16.248.001z"/><path d="m233.346 295.702c1.032.47 2.421.665 3.033 1.458 2.524 3.271 5.891 5.006 9.517 3.216 2.294-1.133 4.449-3.89 5.257-6.376 1.201-3.699-1.06-6.68-4.321-8.653-2.412-1.46-4.905-2.786-7.312-4.256-3.892-2.376-5.864-5.663-5.106-10.417.636-3.981 3.121-6.339 6.689-7.156 4.394-1.008 8.652-.542 11.856 5.009-1.77-.174-3.039.052-3.893-.442-4.649-2.689-8.396-2.418-10.465.972-2.145 3.516-.813 7.198 3.663 9.898 1.846 1.113 3.813 2.022 5.662 3.129 5.717 3.42 7.639 7.295 6.54 13.191-.933 5.011-4.082 7.817-8.996 8.722-5.175.951-9.231-1.223-12.609-6.669.162-.542.324-1.084.485-1.626z"/><path d="m157.372 267.228c-3.057 0-5.561.141-8.032-.076-.868-.076-1.659-1.03-2.485-1.583.714-.489 1.421-1.391 2.143-1.402 6.829-.113 13.661-.118 20.491-.016.708.01 1.402.914 2.104 1.404-.813.556-1.59 1.517-2.445 1.592-2.471.217-4.971.076-8.259.076 0 6.904.001 13.5-.001 20.095 0 4.333.078 8.668-.07 12.996-.032.916-.901 1.804-1.385 2.704-.605-.924-1.724-1.841-1.736-2.773-.13-9.83-.079-19.662-.095-29.494-.003-.972-.124-1.942-.23-3.523z"/><path d="m213.876 299.51c4.829.229 9.057.428 13.463.636-1.427 3.35-5.53 3.879-16.729 2.466 0-11.982-.033-24.058.078-36.132.008-.747 1.15-1.482 1.765-2.224.465.894 1.317 1.78 1.333 2.682.121 6.983.082 13.969.09 20.954.004 3.649 0 7.298 0 11.618z"/><path d="m209.94 36.94c0-4.588-.199-8.154.059-11.686.234-3.203.967-6.369 2.178-9.467-1.051 6.67 2.86 13.637-2.237 21.153z"/><path d="m202.522 33.938c1.82-5.549-4.299-11.219.673-16.922 2.277 4.495 2.156 12.371-.673 16.922z"/><path d="m203.619 111.859c1.352-12.565 2.704-25.13 4.057-37.695-1.353 12.565-2.706 25.13-4.057 37.695z"/><path d="m221.077 17.743v13.324c-.518.018-1.035.036-1.552.055 1.482-4.184-4.718-7.995 1.552-13.379z"/><path d="m152.357 55.667c-5.032-7.559-5.032-7.559-.822-8.344.241 2.442.477 4.837.822 8.344z"/><path d="m189.076 139.304c-4.422 1.626-8.844 3.252-13.265 4.877-.236-.7-.472-1.401-.708-2.101 4.523-1.321 9.049-2.642 13.573-3.963.134.396.267.791.4 1.187z"/><path d="m164.585 190.195h6.328c-7.76-4.188-15.213-9.17-24.612-5.984-1.676.567-3.674.72-5.417.43-2.776-.463-4.195.521-5.494 2.928-2.577 4.775-3.458 4.721-6.995.57-.602-.707-1.608-1.068-2.512-1.643-5.577 8.326-10.285-.947-15.292.118 0-7.944.235-15.271-.084-22.571-.207-4.718 1.938-5.676 6.002-5.339 6.092.505 6.102.388 5.717-6.266-3.511 0-7.071 0-11.736 0 0-8.572 0-16.599 0-24.833-5.878.838-8.417 2.975-7.926 8.35.467 5.117.101 10.309.101 16.321-7.01 0-13.851 0-20.482 0-1.565 5.219-.266 6.977 4.542 6.446 4.117-.455 8.327-.002 12.479-.234 3.185-.178 3.987 1.217 3.936 4.135-.125 7.155-.073 14.315.056 21.472.032 1.732.64 3.455 1.261 6.583-5.912-.917-11.887-1.71-17.782-2.899-.893-.181-1.504-2.16-2.09-3.381-1.288-2.682-2.114-5.66-3.772-8.076-5.432-7.908-7.203-16.813-7.094-26.078.034-2.91 1.638-6.033 3.221-8.635 2.073-3.406 3.854-2.889 6.658 2.245 0-2.232.334-3.706-.057-4.952-1.909-6.088.209-10.447 4.994-14.35 11.411-9.306 19.35-21.343 25.817-34.394 1.461-2.95 2.758-6.158 3.189-9.373.243-1.809-.959-4.544-2.421-5.595-1-.719-3.589.69-5.427 1.275-.519.165-.895.78-1.632 1.462 1.471-6.789 6.822-7.782 11.852-9.203 1.551 8.824 9.715 2.131 13.203 6.301-2.531 4.946-2.227 5.8 3.618 8.794 5.498-7.962 5.498-7.962.647-9.766 1.581-1.227 3.188-2.473 5.607-4.35 12.528 2.936 25.75 6.034 38.974 9.133-4.854 9.21-4.508 10.697 2.762 11.94-8.409 7.111-8.496 15.692-7.839 30.492 6.72.825 13.465 1.652 20.49 2.515 3.239-29.813 7.054-58.814 9.984-87.754.941 1.57 2.418 4.034 4.077 6.802.114-.038.998-.332 1.56-.518 4.251 2.885-6.619 5.614.807 8.759-5.901 4.45-4.344 11.007-5.268 16.88-.332 2.114-.666 4.228-.999 6.342.051-2.82.121-5.639.147-8.459.025-2.755.006-5.511.006-8.267-.498.019-.995.038-1.492.057-2.347 22.335-4.693 44.671-7.04 67.007.55.202 1.101.403 1.65.604.434-.682.867-1.363 1.3-2.045.517 5.509 1.071 11.014 1.527 16.527.163 1.97.086 3.959.116 5.932-.354-2.941-.762-5.87-1.048-8.811-.853-8.753-12.223-14.67-19.905-10.268-.765.438-1.181 1.48-2.331 2.996 13.768-.064 20.604 7.123 22.949 19.575.08-1.214.161-2.429.242-3.644-.147 2.463-.359 4.924-.418 7.389-.037 1.569-.242 3.303.314 4.687 1.811 4.508 4.216 8.788 5.876 13.344 2.379 6.526 7.145 10.176 13.361 12.429.904.328 1.752.807 3.73 1.733-5.756 0-10.323 0-16.584 0 1.533 1.714 2.445 3.648 3.429 3.686 6.981.265 13.978.142 20.698.142-1.263 2.49-2.697 5.32-4.259 8.4-7.98 0-16.478 0-24.433 0-.424-.611-.905-1.962-1.465-1.995-2.458-.146-5.491-.789-7.304.353-5.1 3.213-10.552 2.174-15.906 2.439-4.32.215-8.651.209-12.979.239-2.983.021-5.732.335-8.609-1.925-1.696-1.332-5.296-.243-8.04-.243-.051.427-.101.854-.152 1.28.794.381 1.589.761 2.399 1.148-.157.086-.374.306-.593.309-6.655.064-13.339.492-19.955.004-3.645-.27-7.116-2.412-10.779-3.082-2.361-.432-4.942.188-7.393.555-.412.063-.657 1.237-1.326 2.607-5.491 0-11.957.106-18.414-.089-1.319-.04-2.54-1.494-3.917-1.81-3.56-.813-7.182-1.354-11.25-2.639 2.472-.32 4.969-1.021 7.411-.866 3.091.197 6.118 1.25 9.209 1.645 3.977.507 8.016 1.159 11.979.921 2.633-.159 5.18-1.766 6.948-2.421 6.956.419 13.789 1.233 20.585 1 2.103-.071 4.062-3.058 6.183-4.575.761-.545 1.806-.693 2.722-1.021-1.332 1.511-2.664 3.021-4.488 5.09 3.535.469 6.105.809 8.676 1.149.113-.538.226-1.075.338-1.614-1.015-.586-2.029-1.173-3.561-2.059 2.971-1.379 5.381-3.915 6.813.846.141.47.765 1.108 1.194 1.133 7.133.398 14.27.711 21.406 1.043.035-.357.07-.714.106-1.07-3.539-1.152-7.081-2.308-10.624-3.465zm-30.91-94.955c.731 7.765-3.771 8.684-10.088 7.464v4.13c3.668-1.092 7.014-1.92 10.223-3.116 1.56-.582 2.864-1.852 4.283-2.811-1.504-1.855-3.009-3.711-4.513-5.567.394-.901.539-2.147 1.225-2.64 2.42-1.736 5.026-3.215 7.575-4.774.877.886 2.4 1.696 2.513 2.67.37 3.18 2.425 4.146 5.018 4.366.894.076 2.72-.95 2.674-1.239-.359-2.222-1.074-4.386-1.84-7.155-1.719 1.539-2.584 2.313-3.797 3.399-.424-2.586-.755-4.603-1.085-6.619-.33-.081-.659-.162-.988-.243-.792 1.651-1.583 3.302-2.375 4.954-4.99-1.136-9.979-2.271-15.121-3.442-4.605 8.842-4.605 8.842-3.917 11.313 3.38-.226 6.796-.458 10.213-.69zm-9.021 74.992c1.721.695 3.442 1.392 5.287 2.139 0-9.864 0-19.101 0-28.337-2.475 4.87-3.794 9.942-5.45 14.9-1.316 3.94-1.894 7.712.341 11.474-2.418-2.167-4.798-4.378-7.275-6.476-.756-.641-1.777-.97-2.677-1.442-.153 1.022-.807 2.394-.377 3.008 2.646 3.786 5.537 7.4 8.346 11.072.602-.238 1.203-.477 1.805-.714 0-1.874 0-3.749 0-5.624zm65.695-12.961c-4.581 2.358-9.688.828-14.615-.429-4.906-1.251-9.656-3.107-14.476-4.698 5.123 6.016 18.553 10.319 25.061 8.149 4.105-1.369 8.233-3.832 11.205-6.91 1.319-1.367-.183-5.465-.419-8.323-.054-.662-.193-1.317-.25-1.979-.468-5.531-3.284-9.239-8.654-10.561-5.155-1.269-10.422-2.911-15.635-2.894-5.635.019-11.412 1.288-16.839 2.949-3.195.978-3.083 3.627.246 5.261 1.564.767 3.132 1.525 4.699 2.288-.085.3-.17.6-.254.9-1.262.096-2.523.191-5.138.389 3.032 1.521 4.828 2.422 6.624 3.323-.084.425-.17.851-.255 1.275-1.952.435-3.904.869-5.856 1.304-.065.388-.131.776-.197 1.165 11.62 2.94 23.242 5.879 34.753 8.791zm-10.746 11.977c5.009 4.749 10.285 3.072 14.926 2.586 2.795-.293 6.578-2.547 7.678-4.947 1.625-3.543.521-7.745-3.48-10.732-4.816 7.828-12.9 6.58-20.314 7.185.062.553.123 1.106.186 1.66 5.995.415 11.99.831 19.045 1.319-5.727 7.607-11.661 2.785-18.041 2.929zm-7.631-70.487c.486.027.973.054 1.46.081 1.204-5.685 2.407-11.37 3.676-17.362-.758-.891-1.792-2.104-2.825-3.318-.287.467-.576.935-.864 1.402-1.882-.775-3.757-1.567-5.647-2.32-1.018-.405-2.592-1.338-2.982-.989-.796.712-1.167 2.102-1.324 3.265-.146 1.084.212 2.237.385 3.662 1.232-.98 2.209-1.756 3.529-2.804.345 2 .588 3.404.83 4.805 1.221-.153 2.182-.274 3.764-.473-.002 5.035-.002 9.543-.002 14.051zm-82.394 33.015c6.467 1.223 7.942.341 10.83-4.938.558-1.02 2.776-1.061 4.148-1.721 2.87-1.379 5.896-2.586 8.421-4.456 1.007-.747.857-3.057 1.339-5.101-4 .786-4.053 6.173-8.997 4.753-4.408 3.643-12.614 3.982-15.741 11.463zm115.176 41.927c-4.427.902-8.76 1.785-13.093 2.668 6.893 1.947 12.948 8.768 21.927 3.521-2.123-1.596-3.353-2.584-4.646-3.478-1.452-1.002-2.962-1.922-4.188-2.711zm-54.579-99.871c.864 7.895 3.067 10.229 9.339 10.193 2.392-9.549-.325-12.627-9.339-10.193zm-33.993 61.505c3.883-4.136 6.822-7.268 10.018-10.671-11.04-4.329-11.044-4.329-10.507 6.185.047.954.202 1.902.489 4.486zm39.387 35.296c5.026 7.014 13.963 10.645 21.217 7.932-3.872-2.26-7.828-4.57-11-6.421-4.418 3.385-6.626-2.325-10.217-1.511zm-5.756-51.175c-1.619-3.273-3.028-6.122-4.437-8.97-.542-.195-1.085-.39-1.628-.585-1.51 2.655-4.783 5.823-4.188 7.868 1.567 5.395 5.987 3.342 10.253 1.687zm-14.505 43.042c3.569-.597 5.322-.891 7.67-1.284-.516-4.709-1.003-9.166-1.491-13.622-.695.001-1.39.002-2.085.003-1.259 4.584-2.518 9.166-4.094 14.903zm-37.123-14.98c.496-.363.992-.727 1.488-1.09-2.893-4.259-5.785-8.517-8.873-13.064-3.446 4.498 1.193 12.19 7.385 14.154zm64.389-21.163c-2.879-2.626-12.877-.338-14.234 1.771-.388.602-.621 1.616-.379 2.224.248.624 1.375 1.521 1.755 1.373 4.326-1.688 8.583-3.552 12.858-5.368zm-34.523 9.681c-5.124 3.936-9.125 7.009-13.803 10.602 6.604 1.92 12.368-2.545 13.803-10.602zm36.745-46.387c.607 4.709-4.533 10.501 2.435 14.835 3.214-6.079-.401-10.33-2.435-14.835zm-65.993 82.557c-3.341 3.063-5.627 5.157-8.316 7.622 2.854 1.584 5.064 2.81 7.708 4.277.2-3.896.367-7.173.608-11.899zm66.314 11.288c-.072.756-.145 1.512-.217 2.268h14.009c.001-.756.002-1.512.003-2.268-4.598 0-9.198 0-13.795 0zm-48.216-6.409c-.416.155-.831.31-1.247.464.301 2.936.603 5.871.983 9.582 2.613-1.25 4.272-2.043 6.299-3.013-2.275-2.651-4.155-4.843-6.035-7.033zm11.085-59.101c4.305 2.35 7.781 4.247 11.257 6.144.276-.417.551-.834.827-1.251-2.418-1.646-4.836-3.292-7.226-4.919.661-1.551 1.245-2.922 1.83-4.293-.331-.26-.662-.52-.992-.78-1.722 1.54-3.442 3.081-5.696 5.099zm-28.238 45.694c-.39-.604-.78-1.207-1.17-1.811-4.378 3.062-8.757 6.123-13.136 9.186.399.589.798 1.178 1.197 1.768 4.369-3.049 8.739-6.096 13.109-9.143zm17.469-49.77c1.22-7.511 1.108-8.251-1.659-10.96-2.234 6.994-1.809 9.802 1.659 10.96zm78.265 72.621c-4.289-4.123-9.42-3.443-11.282.967 3.668-.314 7.062-.605 11.282-.967zm10.594 5.19c-.063.71-.125 1.419-.188 2.129 3.527.57 7.055 1.143 10.582 1.713.117-.775.234-1.551.352-2.326-3.582-.507-7.164-1.01-10.746-1.516zm-53.278-17.371c-.493-.007-.986-.014-1.479-.021-.587 2.044-1.175 4.088-2.049 7.13 2.762-.716 4.118-1.067 5.954-1.543-.937-2.148-1.682-3.857-2.426-5.566zm35.41 19.238c-1.722-.965-2.978-1.668-4.231-2.371-.259.719-.518 1.438-.775 2.156 1.98.616 3.953 1.646 5.947 1.691 1.153.025 2.342-1.536 3.516-2.383-.424-.438-.849-.877-1.272-1.314-1.146.799-2.291 1.598-3.185 2.221zm-26.88-80.548c-1.738-.88-2.925-1.787-4.239-2.043-.912-.178-2.207.301-2.936.938-.527.461-.826 1.984-.467 2.457.457.602 1.786 1.018 2.552.813 1.668-.447 3.217-1.336 5.09-2.165zm7.742 11.43c.178.806.354 1.612.531 2.418 3.131-.794 6.262-1.588 9.392-2.382-.147-.663-.294-1.326-.442-1.989-3.161.651-6.321 1.302-9.481 1.953z"/></g></svg>