<svg enable-background="new 74.172 -210.317 600 600" height="600" viewBox="74.172 -210.317 600 600" width="600" xmlns="http://www.w3.org/2000/svg"><g fill="#ffd520"><path d="m327.239 121.446h45.92v13.414h-45.92z"/><path d="m385.866 121.446h45.922v13.414h-45.922z"/><path d="m445.108 121.446h45.926v13.414h-45.926z"/><path d="m504.12 121.446h45.922v13.414h-45.922z"/><path d="m562.741 121.446h42.758v13.414h-42.758z"/><path d="m178.374 82.747c-.324 6.143-2.34 7.909-5.326 7.909-5.809 0-6.293-6.62-6.293-15.491 0-9.361.561-15.496 6.529-15.496 2.832 0 5.244 1.291 5.574 7.912h21.139c-.086-17.111-12.508-23.076-27.189-23.076-19.689 0-30.5 12.266-29.943 30.412 0 18.483 9.453 30.905 29.859 30.905 14.449 0 27.273-7.016 27.273-23.075z"/><path d="m245.954 46.033h-29.928l-18.648 58.259h22.115l2.336-9.359h16.707l2.254 9.359h23.888zm-20.356 34.998 5.09-21.937h.168l4.596 21.937z"/><path d="m319.707 81.808c-1.121-4.395-4.162-6.869-9.748-7.35v-.153c8.627-2.08 11.422-7.107 11.422-13.738 0-10.859-7.272-14.613-19.647-14.613h-34.096v57.65h22.361v-20.506h2.629c3.676 0 5.117 1.115 5.589 3.98.806 4.954-.049 3.61 2.029 16.524h22.369c-1.101-10.499-1.638-16.845-2.908-21.794zm-29.009-12.73h-1.922v-10.947h2.086c4.465 0 7.418.889 7.418 5.117 0 4.316-3.189 5.83-7.582 5.83z"/></g><g fill="#fff"><path d="m327.991 104.526h23.529v-36.241c0-4.637 2.039-6.486 4.266-6.486 2.24 0 4.09 2.203 4.09 6.254v36.473h23.519v-36.241c0-4.637 2.039-6.486 4.28-6.486 2.234 0 4.074 2.203 4.074 6.254v36.473h23.531v-38.666c0-15.406-7.102-21.188-16.914-21.188-5.547 0-11.383 2.186-15.367 10.529-3-7.184-8.444-10.529-15.934-10.529-5.541 0-11.373 2.186-15.355 10.529h-.188l-.588-8.799h-22.941z"/><path d="m522.077 104.61h23.531l-16.129-30.943 13.133-26.593h-24.511l-6.512 18.305-7.856-18.305h-24.511l14.277 26.593-15.73 30.943h23.796l10.024-21.12z"/><path d="m449.663 45.465c-14.164 0-27.977 3.322-28.871 18.801h22.289c.34-4.813 2.125-5.957 5.474-5.957 3.78 0 5.229 1.721 5.229 4.58v5.965h-3.227c-20.961 0-32.113 5.844-32.113 20.059 0 11.347 8.027 17.535 19.402 17.535 6.129 0 12.034-1.945 15.938-7.227l.672 5.508h23.633v-38.862c0-13.406-6.922-20.402-28.426-20.402zm2.301 39.275c0 4.701-1.448 7.802-6.133 7.802-4.121 0-6.25-2.303-6.25-5.968 0-3.203 1.57-6.646 8.699-6.646h3.684z"/></g></svg>