<?xml version="1.0" encoding="utf-8"?>
<!-- Generator: Adobe Illustrator 16.0.0, SVG Export Plug-In . SVG Version: 6.00 Build 0)  -->
<!DOCTYPE svg PUBLIC "-//W3C//DTD SVG 1.1//EN" "http://www.w3.org/Graphics/SVG/1.1/DTD/svg11.dtd">
<svg version="1.1" id="Layer_1" xmlns="http://www.w3.org/2000/svg" xmlns:xlink="http://www.w3.org/1999/xlink" x="0px" y="0px"
	 width="600px" height="600px" viewBox="74.172 -210.317 600 600" enable-background="new 74.172 -210.317 600 600"
	 xml:space="preserve">
<g>
	<polygon fill="#FFD520" points="327.239,121.446 373.159,121.446 373.159,134.86 327.239,134.86 	"/>
	<polygon fill="#FFD520" points="385.866,121.446 431.788,121.446 431.788,134.86 385.866,134.86 	"/>
	<polygon fill="#FFD520" points="445.108,121.446 491.034,121.446 491.034,134.86 445.108,134.86 	"/>
	<polygon fill="#FFD520" points="504.12,121.446 550.042,121.446 550.042,134.86 504.12,134.86 	"/>
	<polygon fill="#FFD520" points="562.741,121.446 605.499,121.446 605.499,134.86 562.741,134.86 	"/>
	<path fill="#FFD520" d="M178.374,82.747c-0.324,6.143-2.34,7.909-5.326,7.909c-5.809,0-6.293-6.62-6.293-15.491
		c0-9.361,0.561-15.496,6.529-15.496c2.832,0,5.244,1.291,5.574,7.912h21.139c-0.086-17.111-12.508-23.076-27.189-23.076
		c-19.689,0-30.5,12.266-29.943,30.412c0,18.483,9.453,30.905,29.859,30.905c14.449,0,27.273-7.016,27.273-23.075H178.374
		L178.374,82.747z"/>
	<path fill="#FFD520" d="M245.954,46.033h-29.928l-18.648,58.259h22.115l2.336-9.359h16.707l2.254,9.359h23.888L245.954,46.033z
		 M225.598,81.031l5.09-21.937h0.168l4.596,21.937H225.598z"/>
	<path fill="#FFD520" d="M319.707,81.808c-1.121-4.395-4.162-6.869-9.748-7.35v-0.153c8.627-2.08,11.422-7.107,11.422-13.738
		c0-10.859-7.272-14.613-19.647-14.613h-34.096v57.65h22.361V83.098h2.629c3.676,0,5.117,1.115,5.589,3.98
		c0.806,4.954-0.049,3.61,2.029,16.524h22.369C321.514,93.103,320.977,86.757,319.707,81.808z M290.698,69.078h-1.922V58.131h2.086
		c4.465,0,7.418,0.889,7.418,5.117C298.28,67.564,295.091,69.078,290.698,69.078z"/>
	<path fill="#FFFFFF" d="M327.991,104.526h23.529V68.285c0-4.637,2.039-6.486,4.266-6.486c2.24,0,4.09,2.203,4.09,6.254v36.473
		h23.519V68.285c0-4.637,2.039-6.486,4.28-6.486c2.234,0,4.074,2.203,4.074,6.254v36.473h23.531V65.86
		c0-15.406-7.102-21.188-16.914-21.188c-5.547,0-11.383,2.186-15.367,10.529c-3-7.184-8.444-10.529-15.934-10.529
		c-5.541,0-11.373,2.186-15.355,10.529h-0.188l-0.588-8.799h-22.941L327.991,104.526L327.991,104.526z"/>
	<polygon fill="#FFFFFF" points="522.077,104.61 545.608,104.61 529.479,73.667 542.612,47.074 518.101,47.074 511.589,65.379 
		503.733,47.074 479.222,47.074 493.499,73.667 477.769,104.61 501.565,104.61 511.589,83.49 	"/>
	<path fill="#FFFFFF" d="M449.663,45.465c-14.164,0-27.977,3.322-28.871,18.801h22.289c0.34-4.813,2.125-5.957,5.474-5.957
		c3.78,0,5.229,1.721,5.229,4.58v5.965h-3.227c-20.961,0-32.113,5.844-32.113,20.059c0,11.347,8.027,17.535,19.402,17.535
		c6.129,0,12.034-1.945,15.938-7.227l0.672,5.508h23.633V65.867C478.089,52.461,471.167,45.465,449.663,45.465z M451.964,84.74
		c0,4.701-1.448,7.802-6.133,7.802c-4.121,0-6.25-2.303-6.25-5.968c0-3.203,1.57-6.646,8.699-6.646h3.684V84.74z"/>
</g>
</svg>
