<svg enable-background="new -3.593 -10.08 40 40" height="40" viewBox="-3.593 -10.08 40 40" width="40" xmlns="http://www.w3.org/2000/svg"><path d="m10.147 15.857c.669-.559.784-1.249.784-1.869v-2.604h-3.636v3.532c0 .507-.409.916-.914.916s-.881-.408-.881-.915v-10.009c0-.505.376-.915.881-.915s.914.41.914.915v3.556h3.631v-3.689c0-2.038-1.332-3.715-4.576-3.719-3.331 0-4.59 1.685-4.59 3.723v10.451c0 2.02 1.604 3.548 3.655 3.548h1.126z"/><path d="m24.481 16.268v-11.486h-2.509v-3.383h9.082v3.383h-2.523v13.976h-1.075z"/><path d="m26.108 18.783-8.843-7.411-9.164 7.411z" fill="#ffc400"/><path d="m16.287 9.375.979-5.004.974 5.004zm3.501-7.958h-5.066l-2.951 13.243 5.496-4.437 5.73 4.802z"/></svg>