<?xml version="1.0" encoding="utf-8"?>
<!-- Generator: Adobe Illustrator 16.0.0, SVG Export Plug-In . SVG Version: 6.00 Build 0)  -->
<!DOCTYPE svg PUBLIC "-//W3C//DTD SVG 1.1//EN" "http://www.w3.org/Graphics/SVG/1.1/DTD/svg11.dtd">
<svg version="1.1" id="svg2" xmlns:svg="http://www.w3.org/2000/svg"
	 xmlns="http://www.w3.org/2000/svg" xmlns:xlink="http://www.w3.org/1999/xlink" x="0px" y="0px" width="40px" height="40px"
	 viewBox="-3.593 -10.08 40 40" enable-background="new -3.593 -10.08 40 40" xml:space="preserve">
<path id="path2386" d="M10.147,15.857c0.669-0.559,0.784-1.249,0.784-1.869v-2.604H7.295v3.532c0,0.507-0.409,0.916-0.914,0.916
	S5.5,15.424,5.5,14.917V4.908c0-0.505,0.376-0.915,0.881-0.915s0.914,0.41,0.914,0.915v3.556h3.631V4.775
	c0-2.038-1.332-3.715-4.576-3.719c-3.331,0-4.59,1.685-4.59,3.723V15.23c0,2.02,1.604,3.548,3.655,3.548h1.126L10.147,15.857z"/>
<polygon id="polygon2404" points="24.481,16.268 24.481,4.782 21.972,4.782 21.972,1.399 31.054,1.399 31.054,4.782 28.531,4.782 
	28.531,18.758 27.456,18.758 "/>
<polygon id="polygon2406" fill="#FFC400" points="26.108,18.783 17.265,11.372 8.101,18.783 "/>
<path id="path2408" d="M16.287,9.375l0.979-5.004l0.974,5.004H16.287z M19.788,1.417h-5.066L11.771,14.66l5.496-4.437l5.73,4.802
	L19.788,1.417z"/>
</svg>
