<?xml version="1.0" encoding="utf-8"?>
<!-- Generator: Adobe Illustrator 16.0.0, SVG Export Plug-In . SVG Version: 6.00 Build 0)  -->
<!DOCTYPE svg PUBLIC "-//W3C//DTD SVG 1.1//EN" "http://www.w3.org/Graphics/SVG/1.1/DTD/svg11.dtd">
<svg version="1.1"
	 id="svg2" xmlns:dc="http://purl.org/dc/elements/1.1/" xmlns:cc="http://creativecommons.org/ns#" xmlns:rdf="http://www.w3.org/1999/02/22-rdf-syntax-ns#" xmlns:svg="http://www.w3.org/2000/svg"
	 xmlns="http://www.w3.org/2000/svg" xmlns:xlink="http://www.w3.org/1999/xlink" x="0px" y="0px" width="600px" height="600px"
	 viewBox="0 0 600 600" enable-background="new 0 0 600 600" xml:space="preserve">
<g id="layer1" transform="translate(-97.573684,-530.09168)">
	<g id="g3012" transform="matrix(1.25,0,0,-1.25,98.574014,792.20412)">
		<g id="g3014" transform="scale(0.1,0.1)">
			<path id="path3016" fill="#E51636" d="M4527.935-456.858c-25.328,0-45.922,21.852-45.922,48.695
				c0,26.938,20.602,48.641,45.922,48.641c25.375,0,45.953-21.703,45.953-48.641C4573.888-435.006,4553.31-456.858,4527.935-456.858
				 M4527.935-347.71c-31.469,0-57.094-26.953-57.094-60.453c0-33.406,25.625-60.594,57.094-60.594
				c31.57,0,57.234,27.188,57.234,60.594C4585.169-374.663,4559.505-347.71,4527.935-347.71"/>
			<path id="path3018" fill="#E51636" d="M4518.333-417.772h3.625l3.594-0.172c2.531-0.188,4.5-0.406,5.719-1.031
				c2.141-0.828,3.891-2.445,4.641-4.578c0.594-1.469,0.922-3.969,0.922-7.672c0.188-3.797,0.547-6.719,1.156-8.672h15.906
				l-0.578,1.75c-0.156,0.594-0.375,1.172-0.375,1.844c0,0.578-0.172,1.133-0.172,1.813v5.547c0,6.563-1.734,11.172-5.609,14.023
				c-2.063,1.781-5.141,2.867-9.109,3.773c4.422,0.398,8.125,1.898,11.125,4.203c3.063,2.281,4.516,6.203,4.516,11.422
				c0,6.969-2.891,11.938-8.594,14.969c-3.281,1.797-7.406,2.984-12.625,3.281c-0.828,0-5.203,0-13.063,0.102h-17.828v-62.727h16.75
				V-417.772L4518.333-417.772z M4533.966-404.139c-2.109-1.539-5.281-2.359-9.188-2.359h-6.453v18.32h4.031
				c4.188,0,7.375-0.375,9.719-1.266c3.438-1.477,5.109-3.75,5.109-7.219C4537.185-400.194,4536.216-402.561,4533.966-404.139"/>
			<path id="path3020" fill="#E51636" d="M2277.544-677.749c37.891,0,46.898-37.922,45.121-59.148
				c-7.512-87.656-126.102-158.937-156.141-162.484C2182.603-718.147,2235.692-679.819,2277.544-677.749 M1095.794-697.085
				c-23.941-36.484-54.164-76.727-91.227-121.391c1.984,18.344,3.945,35.781,6.086,52.578
				c29.754,238.867,73.738,319.086,131,308.953c18.648-3.938,26.27-24.164,26.738-40.531
				C1172.595-549.444,1150.622-613.421,1095.794-697.085 M4336.833-919.772c-28.984,43.797-55.578,90.742-78.547,138.328
				c-38.422-54.531-81.102-109.359-125.023-161.516C4194.544-941.413,4264.708-935.131,4336.833-919.772 M4277.544-563.928
				c23.953,45.469,39.031,85.07,40.969,114.5c2.172,17.5-0.766,47.734-25.516,47.734
				C4250.216-401.694,4250.216-470.749,4277.544-563.928 M3524.411-852.303c104.172,121.516,157.438,303.773,145.141,378.492
				c-2.672,15.648-8.563,27.672-24,25.773C3596.911-454.28,3483.466-674.506,3524.411-852.303 M2923.716-1010.67
				c-41,13.25-75.078,36.539-95.055,61.586c-1.5-1.227-2.859-2.305-4.375-3.391c-0.18-1.906-0.57-3.875-1.102-5.75
				c-1.07-152.734,50.93-293.945,108.563-287.164C2992.505-1234.741,2963.841-1103.78,2923.716-1010.67 M2832.458-824.319
				c118.344,117.828,210.508,285.68,209.898,375.539c0,17.305-3.844,32.531-20.141,32.531
				C2985.208-416.249,2864.419-540.163,2832.458-824.319 M2487.099-940.975c-47.555-4.344-58.039-112.914-152.957-118.133
				c-64.789-3.602-94.477,77.492-94.477,77.492s183.332,84.781,181.988,267.875c-2.953,52.469-29.039,136.5-126.031,136.5
				c-41.898,0-88.277-27.125-115.797-57.031c9.348,49.531,18.168,113.133,22.316,199.563c2.711,56.25-36.566,61.68-51.789,60.828
				c-11.309-0.563-44.23-9.25-48.699-60.125c-15-169.703-17.27-194.906-30.852-302.852c-24.887-198.273-162.637-267.227-252.347-262
				c-38.172,2.258-97.891,22.992-97.891,127.852c0,112.484,70.418,195.758,107.801,190.648c26.32-3.57,39.898-31.391,16.551-71.305
				c-18.891-33.086-38.683-79.141,10.059-98.063c57.879-20.109,100.68,65.109,102.238,144.055c0,61.508-38,133.336-131.188,137.992
				c-98.082,4.906-215.242-130.719-215.242-313.047c0-15.195,1.043-29.422,2.949-42.969c-7.078-41.219-41.758-83.453-76.289-83.453
				c-37.508,0-69.16,56.391-65.199,128.344c4.191,74.219,26.539,123.625,35.961,153.172c19.391,61.391-3.59,73.781-30.902,79.102
				c-21.457,4.086-55.539-1.578-73.477-62.609c-16.301-55.367-37.512-131.039-55.973-186.695
				c-11.469-34.594-26.121-74.063-45.418-101.055c-16.953-19.305-35.293-32.023-52.461-32.023
				c-60.609-0.563-9.262,124.078-9.262,209.555c-0.59,24.164-18.738,68.258-79.102,56.039
				c66.828,101.148,100.629,187.68,98.523,276.109c-4.039,97.078-72.105,125.281-123.48,124.266
				c-137.633-2.953-209.633-162.5-235.777-535.531c-124.023-123.703-275.105-198.383-419.199-186.109
				c-203.789,17.422-308.828,228.391-295.223,481.359C205.595-248.28,470.81,179.939,723.622,153.638
				c88.613-9.277,149.727-91.918,140.293-271.027C852.907-325.03,711.267-627.835,561.716-618.944
				c-69.043,4.094-90.605,78.781-85.34,144.844c11.387,143.047,80.105,182.301,84.695,240.301c2.668,34.098-30.391,49-54.637,40.879
				c-41.621-14.051-124.523-123.055-134.629-278.117C359.45-660.475,477.595-719.585,547.634-723.725
				c207.199-12.305,409.414,293.836,426.438,615.434c10.938,208.152-74.824,342.539-237.188,361
				C421.189,288.497,89.548-148.932,72.595-607.116c-10.184-273.969,114.992-560.719,406.934-582.547
				c139.465-9.469,285.402,48.609,413.086,152.813c-0.234-23.344,0-44.109-0.066-59.711c1.16-38.383,14.18-71.5,54.121-70.219
				c38.113,1.398,48.152,30.523,47.254,65.445c-0.488,20.273-0.34,39.953,0.109,59.094c8.34,166.844,87.121,190.969,119.012,185.016
				c43.98-9.773,8.93-52,13.309-171.734c3.109-85.797,69.52-108.68,100.031-108.68c72.129,0,134.77,55.055,171.469,137.055
				l1.281,0.984c31.859-84.062,85.91-114.156,129.059-114.156c50.609,0,98.52,39.078,128.473,82.445
				c40.957-54.07,101.219-77.883,146.199-80.078c91.187-4.391,168.68,39.555,226.879,98.508
				c-6.77-46.398-14.949-108.766-14.949-118.93c0-27.555,12.219-47.047,37.988-50.055c42.422-4.922,73.391,25.047,86.633,172.109
				c0,0,59.949-145.187,193.047-145.187c133.395,0,191.09,134.984,191.09,176.164
				C2523.552-966.835,2519.302-937.944,2487.099-940.975 M1204.954-164.221c0,43.102-111.59,124.711-190.406,132.371
				c0.93-23.27,0.754-47.199-0.547-72.07c-3.094-58.77-11.531-118.078-24.578-176.309
				C1134.243-174.089,1204.954-203.249,1204.954-164.221 M4631.185-1155.428c-78.523,4.266-159.953,65.117-232.391,151.937
				c-127.953-30.828-259.094-36.93-350.531-36.187c-75.852-82.453-148.438-151.141-200.328-190.18c0,0-69.898-55.789-103.828-8.414
				c-19.844,31.813-9.75,66.078,44.781,102.516c34.047,22.844,76.828,59.672,123.125,105.094
				c-78.25,22.578-58.977,108.484,17.5,98.594c5.57-0.766,30.906-4.563,70-7.531c75.844,83.469,152.922,179.578,212.375,267.625
				c-28.016,77.234-44.352,150.617-44.352,208.164c0,75.531,40.797,161.031,123.852,161.031
				c80.406,0,121.547-70.781,121.547-143.945c0-62.234-35.953-146.445-90.766-237.25c31.422-70.844,72.063-144.406,117.734-207.305
				c49.25,16.945,97.781,39.242,143.375,67.977c61.438,38.883,114.297-36,49.781-83.953
				c-38.797-25.719-81.719-46.625-126.688-63.563c47.313-48.289,97.203-80.766,145.156-85.141
				C4733.638-1063.358,4737.013-1164.475,4631.185-1155.428 M3829.888-930.585c-9.625-39.891-59.172-155.055-185.531-158.078h-2.75
				c-58.625-0.938-115.969,28.984-158.203,84.031c-59.398-39.68-116.641-58.797-157.773-52.234
				c-89.102,14.281-115.781,88.734-123.43,137.297c-51.07-63.93-118.977-94.313-184.297-100.594
				c23.32-48.172,35.102-106.047,35.102-159.297c-0.023-83.102-45.57-168.094-128-168.094
				c-115.234,0-184.305,171.391-193.281,338.273c-19.703-7.742-52.219-13.836-67.32,19.523
				c-18.227,40.078,26.977,77.078,65.125,99.938c6.656,332.562,144.102,567.82,292.688,567.82
				c49.969,0,110.141-32.18,110.141-128.813c0-101.25-56.727-230.93-148.227-346.688c-12.445-15.711-41.359-46.445-73.523-77.977
				c129.898-97.359,208.656,7.555,241.125,71.977c7.734,17.258,14.203,34.305,19.148,49.273
				c18.422,55.516,13.141,42.555,30.477,97.586c24.75,78.414,64.906,74.977,83.07,71.898
				c64.688-11.375,25.922-87.266,10.094-154.008l-0.719-1.617c-24.328-113.734-13.023-203.992,54.063-217.969
				c21.422-3.344,58.375,9.906,96.172,38.359c-88.422,242.484,46.609,529.547,186.375,557.219
				c46.672,9.227,108.031-8.891,123.484-96.281c16.047-91.688-16.172-219.453-83.172-341.094
				c-15.125-27.594-58.75-89.687-110.453-136.844c0.313-0.453,0.531-0.906,0.5-0.969c39.172-54.453,88.719-53.141,88.719-53.141
				c73.391,0.445,95.516,59.977,104.563,84.609c10.375,28.266,31.688,37.625,54.219,30.047
				C3832.794-884.749,3834.583-911.397,3829.888-930.585 M3309.31-425.631c-31.141,0-56.375-26.578-56.375-59.625
				c0-32.906,25.234-59.609,56.375-59.609c31.102,0,56.203,26.703,56.203,59.609C3365.513-452.21,3340.411-425.631,3309.31-425.631
				 M3943.63-800.131c71.852,0,99.727,29.719,99.727,60.281c0,39.242-44.445,58.156-99.648,57.609
				c-56.484-0.617-96.648-22.758-96.648-58.125C3847.06-769.194,3871.763-800.131,3943.63-800.131 M2575.606-800.366
				c72.07,0,100.195,29.875,100.195,60.516c0,39.438-44.648,58.375-100.195,57.82c-56.695-0.633-96.945-22.867-96.945-58.336
				C2478.661-769.358,2503.521-800.366,2575.606-800.366 M1506.064-485.194c-32.781,0-59.289-28.055-59.289-62.797
				c0-34.594,26.508-62.648,59.289-62.648c32.648,0,59.219,28.055,59.219,62.648
				C1565.282-513.249,1538.712-485.194,1506.064-485.194 M266.618,388.247c-26.914-33.547-18.563-88.027,30.305-132.199
				c48.836-44.301,116.66-58.648,143.68-25.148c27.012,33.52,2.93,102.301-45.887,146.48
				C345.868,421.661,293.759,421.747,266.618,388.247 M459.911,627.939c-52.5-25.5-71.145-101.43-32.5-190.738
				c38.582-89.332,117.43-152.582,169.891-127.23c52.539,25.527,58.84,130.211,20.227,219.559
				C578.904,618.759,512.4,653.361,459.911,627.939 M859.755,738.759c-69.758,16.16-141.211-43.969-165.371-162.039
				c-24.289-118.02,9.52-242.102,79.305-258.102c69.707-16.07,149.172,81.879,173.332,199.93
				C971.259,636.591,929.54,722.79,859.755,738.759 M1363.572,546.81c-53.258,75.852-168.527,80.48-284.988-11.211
				C962.126,443.88,895.712,296.251,948.954,220.208c53.262-75.848,205.988-51.289,322.539,40.441
				C1387.904,352.38,1416.794,470.779,1363.572,546.81 M801.923-41.12c-1.309-61.629-72.258-136.832-106.145-78.91
				C677.314-75.69,723.74,4.99,766.728,6.361C801.384,6.361,802.204-26.409,801.923-41.12"/>
		</g>
	</g>
</g>
</svg>
