<?xml version="1.0" encoding="utf-8"?>
<!-- Generator: Adobe Illustrator 16.0.0, SVG Export Plug-In . SVG Version: 6.00 Build 0)  -->
<!DOCTYPE svg PUBLIC "-//W3C//DTD SVG 1.1//EN" "http://www.w3.org/Graphics/SVG/1.1/DTD/svg11.dtd">
<svg version="1.1"
	 id="svg2" xmlns:dc="http://purl.org/dc/elements/1.1/" xmlns:cc="http://creativecommons.org/ns#" xmlns:rdf="http://www.w3.org/1999/02/22-rdf-syntax-ns#" xmlns:svg="http://www.w3.org/2000/svg"
	 xmlns="http://www.w3.org/2000/svg" xmlns:xlink="http://www.w3.org/1999/xlink" x="0px" y="0px" width="600px" height="600px"
	 viewBox="-9.002 -168.444 600 600" enable-background="new -9.002 -168.444 600 600" xml:space="preserve">
<g id="layer1" transform="translate(-97.573684,-530.09168)">
	<g id="g3012" transform="matrix(1.25,0,0,-1.25,98.574014,792.20412)">
		<g id="g3014" transform="scale(0.1,0.1)">
			<path id="path3016" fill="#E51636" d="M4455.915,890.693c-25.328,0-45.922,21.852-45.922,48.695
				c0,26.938,20.594,48.641,45.922,48.641c25.375,0,45.953-21.703,45.953-48.641C4501.868,912.544,4481.29,890.693,4455.915,890.693
				 M4455.915,999.841c-31.469,0-57.094-26.953-57.094-60.453c0-33.406,25.625-60.594,57.094-60.594
				c31.563,0,57.234,27.188,57.234,60.594C4513.149,972.888,4487.478,999.841,4455.915,999.841"/>
			<path id="path3018" fill="#E51636" d="M4446.306,929.779h3.625l3.594-0.172c2.531-0.188,4.5-0.406,5.719-1.031
				c2.141-0.828,3.891-2.445,4.641-4.578c0.594-1.469,0.922-3.969,0.922-7.672c0.188-3.797,0.547-6.719,1.156-8.672h15.906
				l-0.578,1.75c-0.156,0.594-0.375,1.172-0.375,1.844c0,0.578-0.172,1.133-0.172,1.813v5.547c0,6.555-1.734,11.172-5.609,14.023
				c-2.063,1.781-5.141,2.867-9.109,3.773c4.422,0.398,8.125,1.898,11.125,4.203c3.063,2.281,4.516,6.203,4.516,11.422
				c0,6.969-2.891,11.938-8.594,14.969c-3.281,1.797-7.406,2.984-12.625,3.281c-0.828,0-5.203,0-13.063,0.102h-17.828v-62.727h16.75
				V929.779L4446.306,929.779z M4461.946,943.411c-2.109-1.539-5.281-2.359-9.188-2.359h-6.453v18.32h4.031
				c4.188,0,7.375-0.375,9.719-1.266c3.438-1.477,5.109-3.75,5.109-7.219C4465.165,947.357,4464.196,944.989,4461.946,943.411"/>
			<path id="path3020" fill="#E51636" d="M2205.521,669.802c37.891,0,46.898-37.922,45.121-59.148
				c-7.512-87.656-126.102-158.937-156.141-162.484C2110.579,629.404,2163.669,667.732,2205.521,669.802 M1023.771,650.466
				c-23.941-36.484-54.164-76.727-91.227-121.391c1.984,18.344,3.945,35.781,6.086,52.578
				c29.754,238.867,73.738,319.086,131,308.953c18.648-3.938,26.27-24.164,26.738-40.531
				C1100.572,798.107,1078.599,734.13,1023.771,650.466 M4264.806,427.779c-28.984,43.797-55.578,90.742-78.547,138.328
				c-38.422-54.531-81.094-109.359-125.016-161.516C4122.524,406.138,4192.681,412.419,4264.806,427.779 M4205.524,783.622
				c23.953,45.469,39.031,85.07,40.969,114.5c2.172,17.5-0.766,47.734-25.516,47.734
				C4178.196,945.857,4178.196,876.802,4205.524,783.622 M3452.384,495.247c104.172,121.516,157.438,303.773,145.141,378.492
				c-2.672,15.648-8.563,27.672-24,25.773C3524.884,893.271,3411.446,673.044,3452.384,495.247 M2851.696,336.88
				c-41,13.25-75.078,36.539-95.062,61.586c-1.5-1.227-2.859-2.305-4.375-3.391c-0.172-1.906-0.563-3.875-1.094-5.75
				c-1.078-152.734,50.922-293.945,108.562-287.164C2920.478,112.81,2891.821,243.771,2851.696,336.88 M2760.431,523.232
				c118.344,117.828,210.515,285.68,209.906,375.539c0,17.305-3.844,32.531-20.141,32.531
				C2913.181,931.302,2792.399,807.388,2760.431,523.232 M2415.072,406.575c-47.547-4.344-58.031-112.914-152.953-118.133
				c-64.789-3.602-94.477,77.492-94.477,77.492s183.336,84.781,181.992,267.875c-2.953,52.469-29.043,136.5-126.035,136.5
				c-41.898,0-88.277-27.125-115.797-57.031c9.348,49.531,18.168,113.133,22.316,199.563c2.711,56.25-36.566,61.68-51.789,60.828
				c-11.309-0.563-44.23-9.25-48.699-60.125c-15-169.703-17.27-194.906-30.852-302.852c-24.887-198.273-162.637-267.227-252.348-262
				c-38.172,2.258-97.891,22.992-97.891,127.852c0,112.484,70.418,195.758,107.801,190.648c26.32-3.57,39.898-31.391,16.551-71.305
				c-18.891-33.086-38.684-79.141,10.059-98.063c57.879-20.109,100.68,65.109,102.238,144.055c0,61.508-38,133.336-131.188,137.992
				c-98.082,4.906-215.242-130.719-215.242-313.047c0-15.195,1.043-29.422,2.949-42.969c-7.078-41.219-41.758-83.453-76.289-83.453
				c-37.508,0-69.16,56.391-65.199,128.344c4.191,74.219,26.539,123.625,35.961,153.172c19.391,61.391-3.59,73.781-30.902,79.102
				c-21.457,4.086-55.539-1.578-73.477-62.609c-16.301-55.367-37.512-131.039-55.973-186.695
				c-11.469-34.594-26.121-74.063-45.418-101.055c-16.953-19.305-35.293-32.023-52.461-32.023
				c-60.609-0.563-9.262,124.078-9.262,209.555c-0.59,24.164-18.738,68.258-79.098,56.039
				c66.828,101.148,100.629,187.68,98.52,276.109c-4.039,97.078-72.102,125.281-123.48,124.266
				c-137.633-2.953-209.633-162.5-235.777-535.531C704.829,325.372,553.747,250.693,409.654,262.966
				c-203.789,17.422-308.828,228.391-295.223,481.359c19.141,354.945,284.355,783.164,537.168,756.863
				c88.613-9.277,149.727-91.918,140.293-271.027c-11.008-207.641-152.648-510.445-302.199-501.555
				c-69.043,4.094-90.605,78.781-85.34,144.844c11.387,143.047,80.105,182.301,84.695,240.301c2.668,34.098-30.391,49-54.637,40.879
				c-41.621-14.051-124.523-123.055-134.629-278.117c-12.355-189.438,105.789-248.547,175.828-252.688
				c207.199-12.305,409.414,293.836,426.438,615.434c10.938,208.152-74.824,342.539-237.188,361
				c-315.695,35.789-647.336-401.64-664.289-859.824C-9.612,466.466,115.564,179.716,407.505,157.888
				c139.465-9.469,285.402,48.609,413.086,152.813c-0.234-23.344,0-44.109-0.066-59.711c1.16-38.383,14.18-71.5,54.121-70.219
				c38.113,1.398,48.152,30.523,47.254,65.445c-0.488,20.273-0.34,39.953,0.109,59.094c8.34,166.844,87.121,190.969,119.012,185.016
				c43.98-9.773,8.93-52,13.309-171.734c3.109-85.797,69.52-108.68,100.031-108.68c72.129,0,134.77,55.055,171.469,137.055
				l1.281,0.984c31.859-84.063,85.91-114.156,129.059-114.156c50.609,0,98.52,39.078,128.473,82.445
				c40.957-54.07,101.219-77.883,146.199-80.078c91.188-4.391,168.68,39.555,226.879,98.508
				c-6.77-46.398-14.949-108.766-14.949-118.93c0-27.555,12.219-47.047,37.988-50.055c42.422-4.922,73.391,25.047,86.633,172.109
				c0,0,59.949-145.188,193.047-145.188c133.398,0,191.086,134.984,191.086,176.164
				C2451.525,380.716,2447.275,409.607,2415.072,406.575 M1132.931,1183.329c0,43.102-111.59,124.711-190.406,132.371
				c0.93-23.27,0.754-47.199-0.547-72.07c-3.094-58.77-11.531-118.078-24.578-176.309
				C1062.22,1173.462,1132.931,1144.302,1132.931,1183.329 M4559.165,192.122c-78.531,4.266-159.953,65.117-232.391,151.938
				c-127.953-30.828-259.094-36.93-350.531-36.188c-75.859-82.453-148.438-151.141-200.328-190.18c0,0-69.906-55.789-103.828-8.414
				c-19.844,31.813-9.75,66.078,44.781,102.516c34.047,22.844,76.828,59.672,123.125,105.094
				c-78.25,22.578-58.984,108.484,17.5,98.594c5.563-0.766,30.906-4.563,70-7.531c75.844,83.469,152.922,179.578,212.375,267.625
				c-28.016,77.234-44.359,150.617-44.359,208.164c0,75.531,40.797,161.031,123.859,161.031
				c80.406,0,121.547-70.781,121.547-143.945c0-62.234-35.953-146.445-90.766-237.25c31.422-70.844,72.063-144.406,117.734-207.305
				c49.25,16.945,97.781,39.242,143.375,67.977c61.438,38.883,114.297-36,49.781-83.953
				c-38.797-25.719-81.719-46.625-126.688-63.563c47.313-48.289,97.203-80.766,145.156-85.141
				C4661.618,284.193,4664.993,183.075,4559.165,192.122 M3757.868,416.966c-9.625-39.891-59.172-155.055-185.531-158.078h-2.75
				c-58.625-0.938-115.969,28.984-158.203,84.031c-59.406-39.68-116.641-58.797-157.781-52.234
				c-89.094,14.281-115.781,88.734-123.422,137.297c-51.078-63.93-118.984-94.313-184.297-100.594
				c23.313-48.172,35.094-106.047,35.094-159.297c-0.016-83.102-45.563-168.094-128-168.094
				c-115.234,0-184.297,171.391-193.281,338.273c-19.703-7.742-52.219-13.836-67.313,19.523
				c-18.234,40.078,26.969,77.078,65.125,99.938c6.656,332.562,144.094,567.82,292.687,567.82
				c49.969,0,110.141-32.18,110.141-128.813c0-101.25-56.734-230.93-148.234-346.688c-12.438-15.711-41.359-46.445-73.516-77.977
				c129.891-97.359,208.656,7.555,241.125,71.977c7.734,17.258,14.203,34.305,19.141,49.273
				c18.422,55.516,13.141,42.555,30.484,97.586c24.75,78.414,64.906,74.977,83.063,71.898
				c64.688-11.375,25.922-87.266,10.094-154.008l-0.719-1.617c-24.328-113.734-13.016-203.992,54.063-217.969
				c21.422-3.344,58.375,9.906,96.172,38.359c-88.422,242.484,46.609,529.547,186.375,557.219
				c46.672,9.227,108.031-8.891,123.484-96.281c16.047-91.688-16.172-219.453-83.172-341.094
				c-15.125-27.594-58.75-89.687-110.453-136.844c0.313-0.453,0.531-0.906,0.5-0.969c39.172-54.453,88.719-53.141,88.719-53.141
				c73.391,0.445,95.516,59.977,104.563,84.609c10.375,28.266,31.688,37.625,54.219,30.047
				C3760.774,462.802,3762.556,436.154,3757.868,416.966 M3237.29,921.919c-31.141,0-56.375-26.578-56.375-59.625
				c0-32.906,25.234-59.609,56.375-59.609c31.094,0,56.203,26.703,56.203,59.609C3293.493,895.341,3268.384,921.919,3237.29,921.919
				 M3871.603,547.419c71.859,0,99.734,29.719,99.734,60.281c0,39.242-44.453,58.156-99.656,57.609
				c-56.484-0.617-96.641-22.758-96.641-58.125C3775.04,578.357,3799.743,547.419,3871.603,547.419 M2503.587,547.185
				c72.063,0,100.188,29.875,100.188,60.516c0,39.438-44.641,58.375-100.188,57.82c-56.703-0.633-96.953-22.867-96.953-58.336
				C2406.634,578.193,2431.493,547.185,2503.587,547.185 M1434.04,862.357c-32.781,0-59.289-28.055-59.289-62.797
				c0-34.594,26.508-62.648,59.289-62.648c32.648,0,59.219,28.055,59.219,62.648C1493.259,834.302,1466.689,862.357,1434.04,862.357
				 M194.595,1735.798c-26.914-33.547-18.563-88.027,30.305-132.199c48.836-44.301,116.66-58.648,143.68-25.148
				c27.012,33.52,2.93,102.301-45.887,146.48C273.845,1769.212,221.736,1769.298,194.595,1735.798 M387.888,1975.489
				c-52.5-25.5-71.145-101.43-32.5-190.738c38.582-89.332,117.43-152.582,169.891-127.23
				c52.539,25.527,58.84,130.211,20.227,219.559C506.88,1966.31,440.376,2000.911,387.888,1975.489 M787.732,2086.31
				c-69.758,16.16-141.211-43.969-165.371-162.039c-24.289-118.02,9.52-242.102,79.305-258.102
				c69.707-16.07,149.172,81.879,173.332,199.93C899.236,1984.142,857.517,2070.341,787.732,2086.31 M1291.548,1894.36
				c-53.258,75.852-168.527,80.48-284.988-11.211c-116.457-91.719-182.871-239.348-129.629-315.391
				c53.262-75.848,205.988-51.289,322.539,40.441C1315.88,1699.931,1344.771,1818.329,1291.548,1894.36 M729.9,1306.431
				c-1.309-61.629-72.258-136.832-106.145-78.91c-18.465,44.34,27.961,125.02,70.949,126.391
				C729.361,1353.911,730.181,1321.142,729.9,1306.431"/>
		</g>
	</g>
</g>
</svg>
