<svg enable-background="new 0 0 600 600" height="600" viewBox="0 0 600 600" width="600" xmlns="http://www.w3.org/2000/svg"><g fill="#e51636" transform="matrix(.125 0 0 -.125 1.00033 262.11244)"><path d="m4527.935-456.858c-25.328 0-45.922 21.852-45.922 48.695 0 26.938 20.602 48.641 45.922 48.641 25.375 0 45.953-21.703 45.953-48.641 0-26.843-20.578-48.695-45.953-48.695m0 109.148c-31.469 0-57.094-26.953-57.094-60.453 0-33.406 25.625-60.594 57.094-60.594 31.57 0 57.234 27.188 57.234 60.594 0 33.5-25.664 60.453-57.234 60.453"/><path d="m4518.333-417.772h3.625l3.594-.172c2.531-.188 4.5-.406 5.719-1.031 2.141-.828 3.891-2.445 4.641-4.578.594-1.469.922-3.969.922-7.672.188-3.797.547-6.719 1.156-8.672h15.906l-.578 1.75c-.156.594-.375 1.172-.375 1.844 0 .578-.172 1.133-.172 1.813v5.547c0 6.563-1.734 11.172-5.609 14.023-2.063 1.781-5.141 2.867-9.109 3.773 4.422.398 8.125 1.898 11.125 4.203 3.063 2.281 4.516 6.203 4.516 11.422 0 6.969-2.891 11.938-8.594 14.969-3.281 1.797-7.406 2.984-12.625 3.281-.828 0-5.203 0-13.063.102h-17.828v-62.727h16.75v22.125zm15.633 13.633c-2.109-1.539-5.281-2.359-9.188-2.359h-6.453v18.32h4.031c4.188 0 7.375-.375 9.719-1.266 3.438-1.477 5.109-3.75 5.109-7.219.001-3.531-.968-5.898-3.218-7.476"/><path d="m2277.544-677.749c37.891 0 46.898-37.922 45.121-59.148-7.512-87.656-126.102-158.937-156.141-162.484 16.079 181.234 69.168 219.562 111.02 221.632m-1181.75-19.336c-23.941-36.484-54.164-76.727-91.227-121.391 1.984 18.344 3.945 35.781 6.086 52.578 29.754 238.867 73.738 319.086 131 308.953 18.648-3.938 26.27-24.164 26.738-40.531 4.204-51.968-17.769-115.945-72.597-199.609m3241.039-222.687c-28.984 43.797-55.578 90.742-78.547 138.328-38.422-54.531-81.102-109.359-125.023-161.516 61.281 1.547 131.445 7.829 203.57 23.188m-59.289 355.844c23.953 45.469 39.031 85.07 40.969 114.5 2.172 17.5-.766 47.734-25.516 47.734-42.781 0-42.781-69.055-15.453-162.234m-753.133-288.375c104.172 121.516 157.438 303.773 145.141 378.492-2.672 15.648-8.563 27.672-24 25.773-48.641-6.242-162.086-226.468-121.141-404.265m-600.695-158.367c-41 13.25-75.078 36.539-95.055 61.586-1.5-1.227-2.859-2.305-4.375-3.391-.18-1.906-.57-3.875-1.102-5.75-1.07-152.734 50.93-293.945 108.563-287.164 60.758 10.648 32.094 141.609-8.031 234.719m-91.258 186.351c118.344 117.828 210.508 285.68 209.898 375.539 0 17.305-3.844 32.531-20.141 32.531-37.007 0-157.796-123.914-189.757-408.07m-345.359-116.656c-47.555-4.344-58.039-112.914-152.957-118.133-64.789-3.602-94.477 77.492-94.477 77.492s183.332 84.781 181.988 267.875c-2.953 52.469-29.039 136.5-126.031 136.5-41.898 0-88.277-27.125-115.797-57.031 9.348 49.531 18.168 113.133 22.316 199.563 2.711 56.25-36.566 61.68-51.789 60.828-11.309-.563-44.23-9.25-48.699-60.125-15-169.703-17.27-194.906-30.852-302.852-24.887-198.273-162.637-267.227-252.347-262-38.172 2.258-97.891 22.992-97.891 127.852 0 112.484 70.418 195.758 107.801 190.648 26.32-3.57 39.898-31.391 16.551-71.305-18.891-33.086-38.683-79.141 10.059-98.063 57.879-20.109 100.68 65.109 102.238 144.055 0 61.508-38 133.336-131.188 137.992-98.082 4.906-215.242-130.719-215.242-313.047 0-15.195 1.043-29.422 2.949-42.969-7.078-41.219-41.758-83.453-76.289-83.453-37.508 0-69.16 56.391-65.199 128.344 4.191 74.219 26.539 123.625 35.961 153.172 19.391 61.391-3.59 73.781-30.902 79.102-21.457 4.086-55.539-1.578-73.477-62.609-16.301-55.367-37.512-131.039-55.973-186.695-11.469-34.594-26.121-74.063-45.418-101.055-16.953-19.305-35.293-32.023-52.461-32.023-60.609-.563-9.262 124.078-9.262 209.555-.59 24.164-18.738 68.258-79.102 56.039 66.828 101.148 100.629 187.68 98.523 276.109-4.039 97.078-72.105 125.281-123.48 124.266-137.633-2.953-209.633-162.5-235.777-535.531-124.023-123.703-275.105-198.383-419.199-186.109-203.789 17.422-308.828 228.391-295.223 481.359 19.142 354.944 284.357 783.163 537.169 756.862 88.613-9.277 149.727-91.918 140.293-271.027-11.008-207.641-152.648-510.446-302.199-501.555-69.043 4.094-90.605 78.781-85.34 144.844 11.387 143.047 80.105 182.301 84.695 240.301 2.668 34.098-30.391 49-54.637 40.879-41.621-14.051-124.523-123.055-134.629-278.117-12.355-189.438 105.79-248.548 175.829-252.688 207.199-12.305 409.414 293.836 426.438 615.434 10.938 208.152-74.824 342.539-237.188 361-315.695 35.788-647.336-401.641-664.289-859.825-10.184-273.969 114.992-560.719 406.934-582.547 139.465-9.469 285.402 48.609 413.086 152.813-.234-23.344 0-44.109-.066-59.711 1.16-38.383 14.18-71.5 54.121-70.219 38.113 1.398 48.152 30.523 47.254 65.445-.488 20.273-.34 39.953.109 59.094 8.34 166.844 87.121 190.969 119.012 185.016 43.98-9.773 8.93-52 13.309-171.734 3.109-85.797 69.52-108.68 100.031-108.68 72.129 0 134.77 55.055 171.469 137.055l1.281.984c31.859-84.062 85.91-114.156 129.059-114.156 50.609 0 98.52 39.078 128.473 82.445 40.957-54.07 101.219-77.883 146.199-80.078 91.187-4.391 168.68 39.555 226.879 98.508-6.77-46.398-14.949-108.766-14.949-118.93 0-27.555 12.219-47.047 37.988-50.055 42.422-4.922 73.391 25.047 86.633 172.109 0 0 59.949-145.187 193.047-145.187 133.395 0 191.09 134.984 191.09 176.164-.002 11.945-4.252 40.836-36.455 37.805m-1282.145 776.754c0 43.102-111.59 124.711-190.406 132.371.93-23.27.754-47.199-.547-72.07-3.094-58.77-11.531-118.078-24.578-176.309 144.82 106.14 215.531 76.98 215.531 116.008m3426.231-991.207c-78.523 4.266-159.953 65.117-232.391 151.937-127.953-30.828-259.094-36.93-350.531-36.187-75.852-82.453-148.438-151.141-200.328-190.18 0 0-69.898-55.789-103.828-8.414-19.844 31.813-9.75 66.078 44.781 102.516 34.047 22.844 76.828 59.672 123.125 105.094-78.25 22.578-58.977 108.484 17.5 98.594 5.57-.766 30.906-4.563 70-7.531 75.844 83.469 152.922 179.578 212.375 267.625-28.016 77.234-44.352 150.617-44.352 208.164 0 75.531 40.797 161.031 123.852 161.031 80.406 0 121.547-70.781 121.547-143.945 0-62.234-35.953-146.445-90.766-237.25 31.422-70.844 72.063-144.406 117.734-207.305 49.25 16.945 97.781 39.242 143.375 67.977 61.438 38.883 114.297-36 49.781-83.953-38.797-25.719-81.719-46.625-126.688-63.563 47.313-48.289 97.203-80.766 145.156-85.141 82.111-7.399 85.486-108.516-20.342-99.469m-801.297 224.843c-9.625-39.891-59.172-155.055-185.531-158.078h-2.75c-58.625-.938-115.969 28.984-158.203 84.031-59.398-39.68-116.641-58.797-157.773-52.234-89.102 14.281-115.781 88.734-123.43 137.297-51.07-63.93-118.977-94.313-184.297-100.594 23.32-48.172 35.102-106.047 35.102-159.297-.023-83.102-45.57-168.094-128-168.094-115.234 0-184.305 171.391-193.281 338.273-19.703-7.742-52.219-13.836-67.32 19.523-18.227 40.078 26.977 77.078 65.125 99.938 6.656 332.562 144.102 567.82 292.688 567.82 49.969 0 110.141-32.18 110.141-128.813 0-101.25-56.727-230.93-148.227-346.688-12.445-15.711-41.359-46.445-73.523-77.977 129.898-97.359 208.656 7.555 241.125 71.977 7.734 17.258 14.203 34.305 19.148 49.273 18.422 55.516 13.141 42.555 30.477 97.586 24.75 78.414 64.906 74.977 83.07 71.898 64.688-11.375 25.922-87.266 10.094-154.008l-.719-1.617c-24.328-113.734-13.023-203.992 54.063-217.969 21.422-3.344 58.375 9.906 96.172 38.359-88.422 242.484 46.609 529.547 186.375 557.219 46.672 9.227 108.031-8.891 123.484-96.281 16.047-91.688-16.172-219.453-83.172-341.094-15.125-27.594-58.75-89.687-110.453-136.844.313-.453.531-.906.5-.969 39.172-54.453 88.719-53.141 88.719-53.141 73.391.445 95.516 59.977 104.563 84.609 10.375 28.266 31.688 37.625 54.219 30.047 24.52-8.316 26.309-34.964 21.614-54.152m-520.578 504.954c-31.141 0-56.375-26.578-56.375-59.625 0-32.906 25.234-59.609 56.375-59.609 31.102 0 56.203 26.703 56.203 59.609 0 33.046-25.102 59.625-56.203 59.625m634.32-374.5c71.852 0 99.727 29.719 99.727 60.281 0 39.242-44.445 58.156-99.648 57.609-56.484-.617-96.648-22.758-96.648-58.125-.001-28.828 24.702-59.765 96.569-59.765m-1368.024-.235c72.07 0 100.195 29.875 100.195 60.516 0 39.438-44.648 58.375-100.195 57.82-56.695-.633-96.945-22.867-96.945-58.336 0-28.992 24.86-60 96.945-60m-1069.542 315.172c-32.781 0-59.289-28.055-59.289-62.797 0-34.594 26.508-62.648 59.289-62.648 32.648 0 59.219 28.055 59.219 62.648-.001 34.742-26.571 62.797-59.219 62.797m-1239.446 873.441c-26.914-33.547-18.563-88.027 30.305-132.199 48.836-44.301 116.66-58.648 143.68-25.148 27.012 33.52 2.93 102.301-45.887 146.48-48.848 44.281-100.957 44.367-128.098 10.867m193.293 239.692c-52.5-25.5-71.145-101.43-32.5-190.738 38.582-89.332 117.43-152.582 169.891-127.23 52.539 25.527 58.84 130.211 20.227 219.559-38.625 89.229-105.129 123.831-157.618 98.409m399.844 110.82c-69.758 16.16-141.211-43.969-165.371-162.039-24.289-118.02 9.52-242.102 79.305-258.102 69.707-16.07 149.172 81.879 173.332 199.93 24.238 118.043-17.481 204.242-87.266 220.211m503.817-191.949c-53.258 75.852-168.527 80.48-284.988-11.211-116.458-91.719-182.872-239.348-129.63-315.391 53.262-75.848 205.988-51.289 322.539 40.441 116.411 91.731 145.301 210.13 92.079 286.161m-561.649-587.93c-1.309-61.629-72.258-136.832-106.145-78.91-18.464 44.34 27.962 125.02 70.95 126.391 34.656 0 35.476-32.77 35.195-47.481"/></g></svg>