<svg height="2500" viewBox="0 0 149.4 149.4" width="2500" xmlns="http://www.w3.org/2000/svg"><g transform="translate(50.302 50.485)"><path d="m99.1 24.2c0 41.2-33.5 74.7-74.7 74.7s-74.7-33.5-74.7-74.7 33.5-74.7 74.7-74.7 74.7 33.5 74.7 74.7z" fill="#a81612"/><path d="m69.7 24.2c0 25-20.3 45.3-45.3 45.3s-45.3-20.3-45.3-45.3 20.3-45.3 45.3-45.3 45.3 20.3 45.3 45.3z" fill="#fff"/><path d="m66.3 24.2c0 23.1-18.8 41.9-41.9 41.9s-41.9-18.8-41.9-41.9 18.8-41.9 41.9-41.9 41.9 18.8 41.9 41.9z" fill="#451400"/><g fill="#fff"><path d="m-21.9 5.3c-.5 1.1-1.2 2.1-2.1 2.9s-1.9 1.4-2.9 1.7c-1.1.4-2.2.5-3.4.5-1.2-.1-2.3-.3-3.4-.9-1.1-.5-2.1-1.2-2.9-2s-1.4-1.8-1.8-2.8-.6-2.2-.5-3.3c0-1.2.3-2.4.9-3.6.3-.7.7-1.3 1.1-1.9.4-.5.8-1 1.3-1.4.4-.4.9-.7 1.4-1s1-.5 1.5-.7l1.5 3.3c-.8.3-1.6.8-2.2 1.2-.6.5-1.1 1.1-1.5 1.9-.3.6-.5 1.3-.5 2s.1 1.3.4 1.9.6 1.2 1.1 1.6c.5.5 1.1.9 1.7 1.2.7.3 1.4.5 2.1.5.7.1 1.4 0 2-.2s1.2-.5 1.7-.9.9-1 1.3-1.6c.4-.9.6-1.7.6-2.5s-.2-1.6-.5-2.4l3.3-1.1.6 1.8c.1.6.2 1.2.2 1.8s-.1 1.3-.2 1.9c-.2.6-.4 1.3-.8 2.1z"/><path d="m-29.5-17.3 2.6-2.7 5.7 5.7 5.5-5.7-5.7-5.8 2.4-2.2 12.2 12-1.9 2.5-4.7-4.3-5.6 5.4 4.6 4.4-2.6 2.8z"/><path d="m-8.8-35 2.9-1.6 8.2 15.3-2.9 1.6z"/><path d="m13-33.6c1-.2 1.8-.6 2.2-1.2s.6-1.2.4-1.9c-.2-.8-.6-1.4-1.2-1.7-.7-.3-1.6-.4-2.5-.2l-3 .6 1 5zm-8.7-7 7.2-1.4c1.1-.2 2-.2 2.9-.1s1.8.4 2.4.8c.7.4 1.3.9 1.7 1.6.5.6.8 1.4 1 2.2.2 1 .2 1.8 0 2.6s-.6 1.5-1.1 2.1-1.3 1.1-2.1 1.5-1.7.7-2.7.9l-3.5.7 1 5.3-3.3.6z"/><path d="m36.7-39.1c-.8-.2-1.5-.2-2.2-.1s-1.3.3-1.9.7-1 .8-1.4 1.4-.7 1.2-.8 2c-.2.7-.2 1.5-.1 2.2s.3 1.4.7 2 .8 1.1 1.4 1.6 1.2.8 2 1 1.5.2 2.2.1 1.3-.4 1.9-.7c.6-.4 1-.8 1.4-1.4s.7-1.2.8-2c.2-.7.2-1.5.1-2.2s-.3-1.4-.7-2-.8-1.1-1.4-1.6c-.5-.4-1.2-.8-2-1zm.9-3.4c1.3.4 2.5.9 3.5 1.7s1.8 1.6 2.5 2.6c.6 1 1.1 2.1 1.3 3.3s.2 2.4-.1 3.6c-.3 1.3-.8 2.4-1.5 3.3s-1.5 1.7-2.5 2.3-2.1 1-3.3 1.1c-1.2.2-2.5.1-3.9-.3-1.3-.4-2.5-.9-3.5-1.7s-1.8-1.6-2.5-2.6c-.6-1-1.1-2.1-1.3-3.3s-.2-2.4.1-3.6.8-2.3 1.5-3.3c.7-.9 1.5-1.7 2.5-2.3s2.1-1 3.3-1.1c1.2-.2 2.5-.1 3.9.3z"/><path d="m56.9-32.1-5.2-3.1 1.7-2.5 12.6 7.5-1.7 2.6-4.3-2.8-7.5 12.2-3-1.7z"/><path d="m73.1-23.8 2.3 2.7-10.9 9.2 6.1 6.8-2.7 2-7.8-9.2z"/><path d="m86.2-5.7 4.7 11.9-2.8 1-3.5-8.6-4.6 1.8 2.7 6.9-3 1-2.7-6.9-3.1 1.2 3.7 8.9-3 1-4.7-12.2z"/><path d="m-33.3 25.1c0 .6-.3 1.2-.9 1.5s-1.2.3-1.8 0-.9-.9-.9-1.5.3-1.2.9-1.5 1.2-.3 1.8 0 .9.9.9 1.5z"/><path d="m86.3 25.1c0 .6-.3 1.2-.9 1.5s-1.2.3-1.8 0-.9-.9-.9-1.5.3-1.2.9-1.5 1.2-.3 1.8 0 .9.9.9 1.5z"/><path d="m-27.7 39 .8 2.1-2.9 3.8 4.7.9.8 2.1-9 3.4-.7-2 5.9-2.2-4.8-1.1v-.1l2.9-3.9-5.8 2.2-.7-1.9z"/><path d="m-21.9 52.3 4.1 6-1.6 1.1-2.9-4.3-1.6 1.1 2.6 3.8-1.6 1.1-2.6-3.8-1.7 1.1 2.9 4.3-1.6 1.1-4.1-6.1z"/><path d="m-15.9 67.2.8-5.7 1.8 1.7-.6 3.7 3.6-.9 1.8 1.6-5.5 1.3-.8 5.9-1.8-1.7.6-3.9-3.8 1-1.8-1.6z"/><path d="m-4.5 70.5 1.8 1.1-5.1 8.2-1.8-1.1z"/><path d="m2.9 84.9c-.7-.2-1.2-.6-1.7-1s-.9-.9-1.1-1.5c-.3-.6-.4-1.2-.5-1.8 0-.7.1-1.3.3-2 .2-.6.6-1.2 1-1.7s.9-.9 1.5-1.2 1.2-.4 1.8-.5c.7 0 1.3.1 2.1.3.4.1.8.3 1.1.5l.9.6c.2.2.5.5.6.7.2.3.3.5.5.8l-1.8 1c-.2-.4-.5-.8-.8-1.1s-.7-.5-1.1-.7c-.4-.1-.8-.2-1.1-.1-.4 0-.7.1-1.1.3-.3.2-.6.4-.9.7s-.4.6-.6 1c-.1.4-.2.8-.2 1.2s.1.8.2 1.1.3.6.6.9.6.5 1 .6c.5.2 1 .2 1.4.2.4-.1.9-.2 1.3-.4l.8 1.7c-.3.2-.6.3-1 .4-.3.1-.7.2-1 .2h-1.1c-.2.1-.6 0-1.1-.2z"/><path d="m19.1 84.2-.9-3.2-1.6 2.9zm-1.5-5.9 1.9.2 2.9 10.1-2.2-.3-.6-2.2-4-.5-1.1 2-2.1-.3z"/><path d="m27.9 78.9 1.9-.2 5.1 5.5-.6-5.9 2.1-.2 1 9.6-1.8.2-5.2-5.6.6 6.1-2.1.2z"/><path d="m52.3 82.9c-.7.3-1.4.5-2 .5-.7 0-1.3-.1-1.9-.3s-1.1-.6-1.6-1c-.5-.5-.9-1-1.1-1.7-.3-.6-.4-1.3-.4-1.9 0-.7.1-1.3.3-1.9s.6-1.1 1-1.6c.5-.5 1-.9 1.7-1.2.4-.2.8-.3 1.1-.4s.7-.1 1-.2h.9c.3 0 .6.1.9.2l-.6 2c-.2-.1-.5-.1-.7-.2h-.6c-.2 0-.4 0-.7.1-.2.1-.5.1-.7.2-.4.2-.6.4-.9.7-.2.3-.4.6-.5.9s-.2.7-.2 1.1.1.8.3 1.1c.2.4.4.7.7 1s.6.5.9.6c.4.1.7.2 1.1.2s.8-.1 1.2-.3c.7-.3 1.2-.8 1.6-1.3l-.6-1.3-1.9.9-.6-1.4 3.8-1.7 1.7 3.8c-.3.6-.7 1.2-1.2 1.7-.5.6-1.1 1-2 1.4z"/><path d="m62.4 70.7c.4-.3.7-.7.7-1s0-.7-.3-1c-.3-.4-.6-.5-1-.5s-.8.2-1.2.5l-1.6 1.1 1.7 2.2zm-6.3-1.1 3.5-2.7c1-.7 1.9-1.1 2.8-1 .8.1 1.4.5 2 1.2.5.6.7 1.2.7 1.9 0 .6-.2 1.2-.5 1.8l4 1.3-2 1.5-3.5-1.2-1.3 1 1.9 2.4-1.7 1.4z"/><path d="m66 61.1 1.4-1.6 7.3 6.3-1.4 1.6z"/><path d="m70.7 55.1 1.1-1.8 6.6 3.9 2.4-4.1 1.7 1-3.5 6z"/><path d="m75.9 45 .7-2 7.3 2.4 1.5-4.6 1.8.6-2.2 6.6z"/><path d="m15.6 41.7c0-.4-.5-1.5-.9-1.9-.3-.3-.6-.9-.9-1.4-.4-.8-1-1.4-1.3-2.2-.4-1.5-1.1-3.1-1.8-4.7-.1-.9-.5-1.9-.6-2.8-.1-.6-.1-1.2-.1-1.9 0-.6.1-1.3.1-2v-2.7c0-.8.4-1.5.4-2.4 0-.6 1-1.4 1.2-1.8 2.4-.5 4.2-1.2 6.7-1.5 3.3.1 3.5.4 5.1.6 1.5.3 2.2 1.2 3.4 2 .6.3-.3 1.2-.4 1.8-.1.5-.4.9-.6 1.3-.6 1.4-1.6 2.6-2 4.1-.6 1.3-.9 1.6-1.5 3.2-.2.4-.5 1.2-.7 1.6-.2.5-.1 2.4 0 3 .2.7.1 1.4.4 2.1.1.2.1.4.2.6.1.5.3 1 .4 1.5.5 1.8 1.1 3.3 1.8 4.7.4 1 1 1.4-.2 1.1-.5-.1-.5-.3-.8-.6s-.7-.5-1.1-.8-.6-.7-.9-1c-.6-.6-.7-1.2-1.4-1.9-.4-1.9-1.9-3.9-2.9-5.9-.4-.8-.9-1.4-1.3-2.2-.3-.6-.6-.9-.8-1.5-.2-.8-.1-2-.1-3-.2-1.5-.3-2.6.2-4 .1-2 1.6-1.6 3-1.5.9 0 1.3 0 1.9.4 1.3 1 .7.9.7 2.4 0 .7-.1 1.4-.5 2-.4.7-.7 1.5-1.1 2.3-.1.1-.1-1.1-.1-1.4 0-.7-.6-1.2-1.2-1.1-.9.2-.9.6-1.3 1.5-.2.5.2 1.5.3 2.1.3 1.4 1.4 2.4 2.7 1.9.4-.4.8-1 .8-1.5 0-.7.4-1.4.7-2.1.3-.8.7-1.7 1.1-2.4.4-1.3 1.3-2.5.5-4-.5-1.2-1-2.1-2.3-2.5-.5-.1-2.1-.1-2.6 0-1.6 0-2.8.5-4.3.9-.5.1-.5.8-.6 1.3-.2.7-.2 1.5-.4 2.2-.2.9.1 2-.2 2.9-.2.6-.2 2.1.1 2.8.4.8.5 1.7 1.1 2.5 1 1.3 1.2 2.7 2.2 3.9.7.8.8 1.6 1.3 2.5.1.1.1.3.2.4.5 1 1.6 2.3 2.2 3.3.4.7 1.1 1.6 1.7 2 .6.5 1.1 1.1 1.6 1.7 3.1 2 5.3 2.3 6.4 1.4.5-.5-.6-1.3-.8-1.5-.9-.9-1.6-2.2-2.1-3.6-.3-1.1-.8-2.1-1.3-3-.5-1.5-1-3.1-1.1-4.7 0-.9-.1-1.5.1-2.4.2-2 2-3.7 2.4-5.2.5-.6.8-1.1 1-1.9 1.4-1.2 2.5-3.4 3.2-5.3.1-.5-.7-1.2-.9-1.6s-1-1-1.4-1.4-.5-.9-.9-1.3-1.1-.9-1.6-.7c-.6.3-.7.9-1.4.9h-1.7c-.9 0-1.9-.3-2.9-.5-.6-.1-2-.5-2.6-.8-.5-.3-1.3 0-2 .1-3.3.7-6.7-.5-6.9 3.4-.3 1.7-.8 3.1-.9 4.8-.1 2.2 0 4.6 0 6.9 0 .9.2 1.7.5 2.5.4 1.1 1.1 2 1.6 3.1 1.8 2.6 3.3 4.6 4.8 6.2.9.6.4-.3 1.4.7z"/><path d="m20.1 9.9-4.7-3.8c-.2 0-.3.1-.5.1-1.7.4-4.9.1-6.2 1-2.3 1.3-3.8 3.6-5.4 5.2-.5.3-.3 1.5-.5 2.1-.4 1-.3 2.1-.7 3.1-.4 1.1-.4 2.7-.4 4 0 1.8.1 3.6.1 5.4 0 1.3.3 3.7.6 4.9 0 3.4 7.7 11.3 12.1 18.9.6 1.2 1.1 1.3 2.2 1.5.2 0 .5.1.7.1 1.6.2 2.4 1.1 4.1 1.1.8 0 1.7.4 2.5.6s2.1.1 2.9.1c1.4 0 2.9-.1 4.3-.1.8 0 1.5.2 2.2 0s1.6 0 2.3 0 1.6-.3 2.4-.3c.5 0 1.4-1.3 1.9-1.5 1.1-.5 1.7-1.7 2.3-2.7.4-.7.8-1.5 1-2.3s0-1.6-.8-1.8c-.7-.2-.9-.6-1.6-.7-.7-.2-1.1-.2-1.7-.6-.9-.7-2.1-1.4-3-2.2-.9-.7-2-1.4-3.1-2-.7-.4-.8-.8-1.5-.6-.7.1-1-1.6-.7-2.9.2-1-.2-1.2-.5-1.9-.7-1.7-1.5-.8.2-2.3 1.1-.8 2-3.1 2.7-4.3 1.1-1.7 2.7-3.6 2.7-5.3.6-.9 1.2-3 .9-4.1-.1-1.2-1.4-3.5-2.5-5.5-1.8-1.1-2-4.2-3.7-5-.5-.1-1.2 0-1.5.1-.5.1-1.1 1.7-1.6 1.7 1.6 1.7 2.8 3.6 4.1 5.3.9 1.9 2 3 1.9 5.2-.3 2.9-2.3 5.6-3 6.9-.1.2-1.1 1.6-1.2 1.8-.4.8-.5.7-.8 1.4-.3.6-.8 1.2-1 1.8-.3.6 0 2.4.1 3 .2.9.9.7 1.1 1.7.2.7 0 1.8 0 2.6 0 .7.1 1.9.1 2.6s1 .2 1.6.3c.9.2 1.2 1.4 2.3 1.8 1 .4 3 2.2 3.8 2.8s.1-.4-.2.7c-2.9 2.1-6.7 2.3-10.3 2.1-7.1-.6-7.6.1-10.3-3.1-3.8-4.9-7.3-9.5-10.8-15-.1-3.5 0-7.7.2-11.2 0-2 .5-2.4.5-4.4.5-2.8 2.9-4.6 5.1-5.3 3.1-.9 6.2-1 9.3-1z"/><path d="m13.6 4.8c-1.2-.6-2.6-.4-3.8-.2-.4-.1 1-.7 1.3-1 .5-.6 1.3-.8 2-1.1 1 .1 2.6.6 3.7 1 1 .2 2.3.6 3.3.6 3.6-3.3 7.8-6.7 11.9-9.8.6-.3 6.2-1.1 7.7-1 1 .5 2.2.1 2.8 1 1 1.5 3.5 3.6 3.1 4.8 0 1.5-.5 3-.9 4.5 0 0-2.3.2-2.4.2h-1.5c-.6 0-.8-.1-1-.2 1-.7 1.6-1.2 2.5-2.3.3-.3-.1-1.1-.2-1.4-.4-1.2-1.2-2.2-1.6-3.4-1.8.1-4.1 0-5.9.5-.6.3-1.3.5-1.8 1-1 1.1-1.3 1.1-2.9 2.8.2 1.6-.8 3.1-.6 4.7.8 1.8.5 1.3 3.3 1.6.5.1 1.3-.1 1.6.1.1.1.1.2 0 .3-.1.2-.1 1.1-.9 1.5-.7.4-2.5.6-3.3.8-.1 0-.3.1-.4.1-.5.1-.8.2-1.4.3-1.6.2-2.2 1.3-3.2 2-.7.4-2 .3-3.1.3-.6 0-.8-.1-1.2-.3-.3-.2-.4-.8-.5-1.1s-.8-.9-1-1.1c-.2-.6-.5-.6-.9-1-.5-.5-.9-.9-1.5-1.4-.4-.3-.5-.6-.9-1-.8-.8-1.2-1.5-2.3-1.8z"/></g></g></svg>