<?xml version="1.0" encoding="utf-8"?>
<!-- Generator: Adobe Illustrator 16.0.0, SVG Export Plug-In . SVG Version: 6.00 Build 0)  -->
<!DOCTYPE svg PUBLIC "-//W3C//DTD SVG 1.1//EN" "http://www.w3.org/Graphics/SVG/1.1/DTD/svg11.dtd">
<svg version="1.1" id="Layer_1" xmlns="http://www.w3.org/2000/svg" xmlns:xlink="http://www.w3.org/1999/xlink" x="0px" y="0px"
	 width="80px" height="80px" viewBox="0 0 80 80" enable-background="new 0 0 80 80" xml:space="preserve">
<title>Asset 1</title>
<g>
	<path fill="#66B76E" d="M40.073,19.807c-3.43,5.771-4.444,11.902-2.902,16.194c-3.606-2.797-9.751-3.723-16.3-2.246
		c-0.61-0.696-1.196-1.435-1.759-2.216c-2.222-2.99-3.817-6.398-4.69-10.021c3.711-0.326,7.451,0.101,10.994,1.256
		c0.922,0.293,1.81,0.619,2.662,0.979c-0.094-0.92-0.146-1.863-0.152-2.826c-0.073-3.85,0.668-7.672,2.175-11.216
		c3.316,1.957,6.183,4.591,8.414,7.728C39.076,18.221,39.596,19.01,40.073,19.807z"/>
	<path fill="#66B76E" d="M20.871,33.756c-0.903,0.205-1.818,0.451-2.732,0.75c-3.68,1.148-7.077,3.062-9.967,5.611
		c2.91,2.525,6.321,4.406,10.008,5.523c0.92,0.293,1.835,0.533,2.744,0.731c-0.624,0.713-1.211,1.456-1.759,2.229
		c-2.194,3.01-3.758,6.432-4.597,10.061c3.714,0.296,7.45-0.162,10.982-1.348c0.915-0.301,1.798-0.637,2.65-1.004
		c0.627-6.666,3.406-12.225,7.176-14.774C30.815,41.659,25.304,38.799,20.871,33.756z"/>
	<path fill="#66B76E" d="M52.068,59.155c0-0.962-0.047-1.905-0.129-2.832c-6.168-2.649-10.595-7.036-11.867-11.392
		c-1.278,4.379-5.705,8.74-11.867,11.392c-0.088,0.927-0.129,1.87-0.129,2.832c-0.041,3.851,0.73,7.666,2.263,11.198
		c3.3-1.981,6.145-4.637,8.35-7.793c0.586-0.785,1.073-1.576,1.542-2.379c0.48,0.791,1.002,1.582,1.578,2.345
		c2.183,3.018,4.954,5.562,8.149,7.476C51.385,66.564,52.104,62.876,52.068,59.155z"/>
	<path fill="#66B76E" d="M65.941,58.633c-0.869-3.75-2.516-7.277-4.832-10.354c-0.574-0.782-1.16-1.516-1.758-2.199
		c0.902-0.211,1.812-0.469,2.727-0.773c3.543-1.143,6.818-2.992,9.627-5.436c-2.835-2.429-6.135-4.256-9.698-5.371
		c-0.92-0.299-1.83-0.545-2.737-0.75c-4.428,5.049-9.945,7.909-14.471,7.786c3.77,2.567,6.549,8.126,7.17,14.806
		c0.85,0.366,1.732,0.701,2.65,1.002C58.262,58.561,62.119,59,65.941,58.633z"/>
	<path fill="#66B76E" d="M54.456,22.545c-0.915,0.305-1.8,0.651-2.649,1.026c0.081-0.927,0.116-1.876,0.11-2.838
		c0.009-3.731-0.739-7.425-2.199-10.858c-3.178,1.949-5.929,4.521-8.085,7.563c-0.586,0.781-1.085,1.572-1.56,2.346
		c3.424,5.77,4.445,11.902,2.932,16.193c3.601-2.797,9.75-3.723,16.294-2.246c0.614-0.695,1.2-1.435,1.76-2.215
		c2.295-3.092,3.913-6.631,4.748-10.391C61.965,20.799,58.098,21.282,54.456,22.545z"/>
	<path fill="#BFD730" d="M8.195,40.123c-3.917,3.559-5.811,7.904-4.573,11.727c1.266,3.898,5.517,6.32,10.958,6.824
		c0.836-3.625,2.398-7.043,4.591-10.049c0.548-0.771,1.136-1.516,1.759-2.229c-0.909-0.199-1.824-0.439-2.744-0.732
		C14.503,44.54,11.098,42.652,8.195,40.123z"/>
	<path fill="#BFD730" d="M17.541,8.983c-3.318,2.415-4.31,7.206-3.113,12.536c3.71-0.327,7.447,0.1,10.988,1.254
		c0.922,0.294,1.81,0.621,2.662,0.979c-0.094-0.92-0.146-1.864-0.152-2.825c-0.073-3.851,0.668-7.673,2.175-11.217
		C25.503,7.09,20.76,6.633,17.541,8.983z"/>
	<path fill="#BFD730" d="M65.789,21.15c1.072-5.184,0.053-9.809-3.189-12.167c-3.242-2.357-8.207-1.876-12.898,0.915
		c1.457,3.426,2.205,7.111,2.199,10.835c0,0.961,0,1.911-0.111,2.838c0.85-0.375,1.759-0.722,2.65-1.026
		C58.082,21.289,61.949,20.814,65.789,21.15z"/>
	<path fill="#BFD730" d="M71.67,39.877c-2.811,2.438-6.082,4.285-9.622,5.43c-0.915,0.306-1.823,0.563-2.728,0.773
		c0.619,0.691,1.205,1.425,1.76,2.199c2.316,3.076,3.962,6.604,4.831,10.354c5.276-0.586,9.34-2.984,10.554-6.795
		C77.68,48.027,75.773,43.482,71.67,39.877z"/>
	<path fill="#BFD730" d="M41.81,62.538c-0.586-0.774-1.098-1.565-1.578-2.345c-0.469,0.803-0.979,1.594-1.542,2.38
		c-2.205,3.155-5.05,5.812-8.35,7.792c2.175,4.826,5.723,7.969,9.733,7.969c4.104,0,7.716-3.295,9.88-8.314
		C46.761,68.1,43.99,65.555,41.81,62.538z"/>
	<path fill="#0090A1" d="M76.46,27.863c-1.272-3.805-5.376-6.174-10.642-6.713c-0.84,3.771-2.469,7.322-4.778,10.419
		c-0.563,0.782-1.149,1.521-1.759,2.216c0.908,0.205,1.818,0.451,2.738,0.75c3.551,1.117,6.84,2.941,9.668,5.365
		C75.751,36.26,77.727,31.756,76.46,27.863z"/>
	<path fill="#3670B8" d="M49.959,70.014c4.689,2.75,9.586,3.248,12.898,0.81c3.313-2.438,4.211-7.035,3.097-12.188
		c-3.837,0.366-7.709-0.078-11.363-1.308c-0.915-0.301-1.798-0.636-2.649-1.003c0.082,0.927,0.129,1.87,0.129,2.832
		C52.105,62.88,51.386,66.573,49.959,70.014z"/>
	<path fill="#0090A1" d="M39.768,1.666c-4.004,0.029-7.522,3.207-9.663,8.044c3.314,1.958,6.179,4.591,8.408,7.728
		c0.563,0.783,1.083,1.563,1.56,2.346c0.475-0.797,0.992-1.589,1.56-2.346c2.154-3.041,4.903-5.613,8.079-7.563
		C47.507,4.903,43.873,1.666,39.768,1.666z"/>
	<path fill="#3670B8" d="M28.077,59.155c0-0.962,0.041-1.905,0.129-2.832c-0.853,0.366-1.736,0.702-2.65,1.003
		c-3.529,1.182-7.26,1.641-10.97,1.348c-1.172,5.336-0.135,10.121,3.202,12.508c3.336,2.386,7.974,1.834,12.553-0.828
		C28.807,66.821,28.036,63.006,28.077,59.155z"/>
	<path fill="#0090A1" d="M19.1,31.569c-2.226-2.986-3.821-6.394-4.69-10.015c-5.412,0.521-9.645,2.979-10.882,6.883
		c-1.237,3.904,0.721,8.149,4.691,11.68c2.891-2.55,6.287-4.462,9.967-5.611c0.915-0.299,1.83-0.545,2.732-0.75
		C20.277,33.061,19.671,32.331,19.1,31.569z"/>
</g>
</svg>
