<svg enable-background="new 0 0 80 80" height="80" viewBox="0 0 80 80" width="80" xmlns="http://www.w3.org/2000/svg"><g fill="#66b76e"><path d="m40.073 19.807c-3.43 5.771-4.444 11.902-2.902 16.194-3.606-2.797-9.751-3.723-16.3-2.246-.61-.696-1.196-1.435-1.759-2.216-2.222-2.99-3.817-6.398-4.69-10.021 3.711-.326 7.451.101 10.994 1.256.922.293 1.81.619 2.662.979-.094-.92-.146-1.863-.152-2.826-.073-3.85.668-7.672 2.175-11.216 3.316 1.957 6.183 4.591 8.414 7.728.561.782 1.081 1.571 1.558 2.368z"/><path d="m20.871 33.756c-.903.205-1.818.451-2.732.75-3.68 1.148-7.077 3.062-9.967 5.611 2.91 2.525 6.321 4.406 10.008 5.523.92.293 1.835.533 2.744.731-.624.713-1.211 1.456-1.759 2.229-2.194 3.01-3.758 6.432-4.597 10.061 3.714.296 7.45-.162 10.982-1.348.915-.301 1.798-.637 2.65-1.004.627-6.666 3.406-12.225 7.176-14.774-4.561.124-10.072-2.736-14.505-7.779z"/><path d="m52.068 59.155c0-.962-.047-1.905-.129-2.832-6.168-2.649-10.595-7.036-11.867-11.392-1.278 4.379-5.705 8.74-11.867 11.392-.088.927-.129 1.87-.129 2.832-.041 3.851.73 7.666 2.263 11.198 3.3-1.981 6.145-4.637 8.35-7.793.586-.785 1.073-1.576 1.542-2.379.48.791 1.002 1.582 1.578 2.345 2.183 3.018 4.954 5.562 8.149 7.476 1.427-3.438 2.146-7.126 2.11-10.847z"/><path d="m65.941 58.633c-.869-3.75-2.516-7.277-4.832-10.354-.574-.782-1.16-1.516-1.758-2.199.902-.211 1.812-.469 2.727-.773 3.543-1.143 6.818-2.992 9.627-5.436-2.835-2.429-6.135-4.256-9.698-5.371-.92-.299-1.83-.545-2.737-.75-4.428 5.049-9.945 7.909-14.471 7.786 3.77 2.567 6.549 8.126 7.17 14.806.85.366 1.732.701 2.65 1.002 3.643 1.217 7.5 1.656 11.322 1.289z"/><path d="m54.456 22.545c-.915.305-1.8.651-2.649 1.026.081-.927.116-1.876.11-2.838.009-3.731-.739-7.425-2.199-10.858-3.178 1.949-5.929 4.521-8.085 7.563-.586.781-1.085 1.572-1.56 2.346 3.424 5.77 4.445 11.902 2.932 16.193 3.601-2.797 9.75-3.723 16.294-2.246.614-.695 1.2-1.435 1.76-2.215 2.295-3.092 3.913-6.631 4.748-10.391-3.842-.326-7.709.157-11.351 1.42z"/></g><g fill="#bfd730"><path d="m8.195 40.123c-3.917 3.559-5.811 7.904-4.573 11.727 1.266 3.898 5.517 6.32 10.958 6.824.836-3.625 2.398-7.043 4.591-10.049.548-.771 1.136-1.516 1.759-2.229-.909-.199-1.824-.439-2.744-.732-3.683-1.124-7.088-3.012-9.991-5.541z"/><path d="m17.541 8.983c-3.318 2.415-4.31 7.206-3.113 12.536 3.71-.327 7.447.1 10.988 1.254.922.294 1.81.621 2.662.979-.094-.92-.146-1.864-.152-2.825-.073-3.851.668-7.673 2.175-11.217-4.598-2.62-9.341-3.077-12.56-.727z"/><path d="m65.789 21.15c1.072-5.184.053-9.809-3.189-12.167-3.242-2.357-8.207-1.876-12.898.915 1.457 3.426 2.205 7.111 2.199 10.835 0 .961 0 1.911-.111 2.838.85-.375 1.759-.722 2.65-1.026 3.642-1.256 7.509-1.731 11.349-1.395z"/><path d="m71.67 39.877c-2.811 2.438-6.082 4.285-9.622 5.43-.915.306-1.823.563-2.728.773.619.691 1.205 1.425 1.76 2.199 2.316 3.076 3.962 6.604 4.831 10.354 5.276-.586 9.34-2.984 10.554-6.795 1.215-3.811-.692-8.356-4.795-11.961z"/><path d="m41.81 62.538c-.586-.774-1.098-1.565-1.578-2.345-.469.803-.979 1.594-1.542 2.38-2.205 3.155-5.05 5.812-8.35 7.792 2.175 4.826 5.723 7.969 9.733 7.969 4.104 0 7.716-3.295 9.88-8.314-3.192-1.92-5.963-4.465-8.143-7.482z"/></g><path d="m76.46 27.863c-1.272-3.805-5.376-6.174-10.642-6.713-.84 3.771-2.469 7.322-4.778 10.419-.563.782-1.149 1.521-1.759 2.216.908.205 1.818.451 2.738.75 3.551 1.117 6.84 2.941 9.668 5.365 4.064-3.64 6.04-8.144 4.773-12.037z" fill="#0090a1"/><path d="m49.959 70.014c4.689 2.75 9.586 3.248 12.898.81 3.313-2.438 4.211-7.035 3.097-12.188-3.837.366-7.709-.078-11.363-1.308-.915-.301-1.798-.636-2.649-1.003.082.927.129 1.87.129 2.832.034 3.723-.685 7.416-2.112 10.857z" fill="#3670b8"/><path d="m39.768 1.666c-4.004.029-7.522 3.207-9.663 8.044 3.314 1.958 6.179 4.591 8.408 7.728.563.783 1.083 1.563 1.56 2.346.475-.797.992-1.589 1.56-2.346 2.154-3.041 4.903-5.613 8.079-7.563-2.205-4.972-5.839-8.209-9.944-8.209z" fill="#0090a1"/><path d="m28.077 59.155c0-.962.041-1.905.129-2.832-.853.366-1.736.702-2.65 1.003-3.529 1.182-7.26 1.641-10.97 1.348-1.172 5.336-.135 10.121 3.202 12.508 3.336 2.386 7.974 1.834 12.553-.828-1.534-3.533-2.305-7.348-2.264-11.199z" fill="#3670b8"/><path d="m19.1 31.569c-2.226-2.986-3.821-6.394-4.69-10.015-5.412.521-9.645 2.979-10.882 6.883s.721 8.149 4.691 11.68c2.891-2.55 6.287-4.462 9.967-5.611.915-.299 1.83-.545 2.732-.75-.641-.695-1.247-1.425-1.818-2.187z" fill="#0090a1"/></svg>