<?xml version="1.0" encoding="utf-8"?>
<!-- Generator: Adobe Illustrator 16.0.0, SVG Export Plug-In . SVG Version: 6.00 Build 0)  -->
<!DOCTYPE svg PUBLIC "-//W3C//DTD SVG 1.1//EN" "http://www.w3.org/Graphics/SVG/1.1/DTD/svg11.dtd">
<svg version="1.1" xmlns="http://www.w3.org/2000/svg" xmlns:xlink="http://www.w3.org/1999/xlink" x="0px" y="0px" width="2090px"
	 height="2090px" viewBox="310.27 3.967 2090 2090" enable-background="new 310.27 3.967 2090 2090" xml:space="preserve">
<g id="Layer_1">
</g>
<g id="Layer_2">
	<path fill="#B5121B" d="M2400.27,1991.97l-526.937-2.803c-675-3.334-654.166-1.667-791.666-48.334
		c-178.334-59.166-363.334-196.666-470.834-350C532.5,1479.167,470.833,1329.167,450,1200c-11.667-78.333-10-228.333,4.167-309.167
		C510.833,565,755,281.667,1070,175c199.167-67.5,429.167-70,618.333-5c69.167,23.333,193.334,84.167,223.334,108.333l20.833,17.5
		l-104.167,233.333c-57.5,128.333-106.666,235-108.333,236.666c-1.667,1.667-20.833-13.333-42.5-32.5
		c-133.333-117.5-328.333-141.666-493.333-61.666C1122.5,701.667,1027.5,797.5,997.5,860c-45.833,95.833-57.5,195-35.833,300
		c36.666,171.667,157.5,285,325.833,306.667c41.667,5.833,280,8.333,637.5,6.666l475.27-2.082V3.967h-2090v2090h2090V1991.97z"/>
</g>
</svg>
