<svg enable-background="new 310.27 3.967 2090 2090" height="2090" viewBox="310.27 3.967 2090 2090" width="2090" xmlns="http://www.w3.org/2000/svg"><path d="m2400.27 1991.97-526.937-2.803c-675-3.334-654.166-1.667-791.666-48.334-178.334-59.166-363.334-196.666-470.834-350-78.333-111.666-140-261.666-160.833-390.833-11.667-78.333-10-228.333 4.167-309.167 56.666-325.833 300.833-609.166 615.833-715.833 199.167-67.5 429.167-70 618.333-5 69.167 23.333 193.334 84.167 223.334 108.333l20.833 17.5-104.167 233.333c-57.5 128.333-106.666 235-108.333 236.666-1.667 1.667-20.833-13.333-42.5-32.5-133.333-117.5-328.333-141.666-493.333-61.666-61.667 30.001-156.667 125.834-186.667 188.334-45.833 95.833-57.5 195-35.833 300 36.666 171.667 157.5 285 325.833 306.667 41.667 5.833 280 8.333 637.5 6.666l475.27-2.082v-1467.284h-2090v2090h2090z" fill="#b5121b"/></svg>