<?xml version="1.0" encoding="utf-8"?>
<!-- Generator: Adobe Illustrator 16.0.0, SVG Export Plug-In . SVG Version: 6.00 Build 0)  -->
<!DOCTYPE svg PUBLIC "-//W3C//DTD SVG 1.1//EN" "http://www.w3.org/Graphics/SVG/1.1/DTD/svg11.dtd">
<svg version="1.1" id="svg24" xmlns:svg="http://www.w3.org/2000/svg"
	 xmlns="http://www.w3.org/2000/svg" xmlns:xlink="http://www.w3.org/1999/xlink" x="0px" y="0px" width="240px" height="240px"
	 viewBox="-12 -63 240 240" enable-background="new -12 -63 240 240" xml:space="preserve">
<g>
	<path id="path10" fill="#FFFFFF" d="M106.48,76.238c-0.282-0.077-4.621-1.196-9.232-1.196c-8.73,0-13.986,4.714-13.986,11.733
		c0,6.215,4.397,9.313,9.674,10.98c0.585,0.193,1.447,0.463,2.021,0.653c2.349,0.739,4.224,1.837,4.224,3.739
		c0,2.127-2.167,3.504-6.878,3.504c-4.14,0-8.109-1.185-8.945-1.396v8.638c0.466,0.099,5.183,1.024,10.222,1.024
		c7.248,0,15.539-3.167,15.539-12.595c0-4.573-2.8-8.783-8.947-10.737l-2.613-0.832c-1.559-0.491-4.342-1.289-4.342-3.573
		c0-1.806,2.062-3.076,5.859-3.076c3.276,0,7.263,1.101,7.404,1.145V76.238z M186.521,94.48c0,5.461-4.184,9.879-9.797,9.879
		c-5.619,0-9.791-4.418-9.791-9.879c0-5.449,4.172-9.869,9.791-9.869C182.338,84.611,186.521,89.031,186.521,94.48 M176.725,75.055
		c-11.543,0-19.822,8.706-19.822,19.426c0,10.737,8.279,19.438,19.822,19.438s19.834-8.701,19.834-19.438
		C196.559,83.761,188.268,75.055,176.725,75.055 M70.561,113.251h-9.472V75.719h9.472"/>
	<path id="path12" fill="#FFFFFF" d="M48.07,76.398c-0.89-0.264-4.18-1.344-8.636-1.344c-11.526,0-19.987,8.217-19.987,19.426
		c0,12.094,9.34,19.438,19.987,19.438c4.23,0,7.459-1.002,8.636-1.336v-10.075c-0.407,0.227-3.503,1.992-7.957,1.992
		c-6.31,0-10.38-4.441-10.38-10.02c0-5.748,4.246-10.01,10.38-10.01c4.53,0,7.576,1.805,7.957,2.004"/>
	<path id="path12_2_" fill="#FFFFFF" d="M146.93,76.398c-0.89-0.264-4.18-1.344-8.636-1.344c-11.526,0-19.987,8.217-19.987,19.426
		c0,12.094,9.34,19.438,19.987,19.438c4.229,0,7.459-1.002,8.636-1.336v-10.075c-0.406,0.227-3.503,1.992-7.957,1.992
		c-6.31,0-10.38-4.441-10.38-10.02c0-5.748,4.246-10.01,10.38-10.01c4.53,0,7.576,1.805,7.957,2.004V76.398z"/>
</g>
<g>
	<path id="path16" fill="#FFFFFF" d="M61.061,4.759c0-2.587-2.113-4.685-4.703-4.685c-2.589,0-4.702,2.098-4.702,4.685v49.84
		c0,2.602,2.113,4.699,4.702,4.699c2.59,0,4.703-2.097,4.703-4.699V4.759z M35.232,22.451c0-2.586-2.112-4.687-4.702-4.687
		c-2.59,0-4.702,2.101-4.702,4.687v22.785c0,2.601,2.112,4.699,4.702,4.699c2.59,0,4.702-2.098,4.702-4.699V22.451z M9.404,35.383
		c0-2.587-2.112-4.684-4.702-4.684C2.115,30.699,0,32.796,0,35.383v9.853c0,2.601,2.115,4.699,4.702,4.699
		c2.59,0,4.702-2.098,4.702-4.699"/>
	<path fill="#FFFFFF" d="M51.656,4.759c0-2.587,2.113-4.685,4.703-4.685c2.589,0,4.702,2.098,4.702,4.685v49.84
		c0,2.602-2.113,4.699-4.702,4.699c-2.59,0-4.703-2.097-4.703-4.699V4.759z"/>
	<path fill="#FFFFFF" d="M77.485,22.451c0-2.586,2.112-4.687,4.702-4.687s4.702,2.101,4.702,4.687v22.785
		c0,2.601-2.112,4.699-4.702,4.699s-4.702-2.098-4.702-4.699V22.451z"/>
	<path fill="#FFFFFF" d="M103.313,35.383c0-2.587,2.112-4.684,4.702-4.684c2.586,0,4.702,2.097,4.702,4.684v9.853
		c0,2.601-2.115,4.699-4.702,4.699c-2.59,0-4.702-2.098-4.702-4.699"/>
	<path id="path16_2_" fill="#FFFFFF" d="M154.939,4.759c0-2.587,2.112-4.685,4.703-4.685c2.588,0,4.701,2.098,4.701,4.685v49.84
		c0,2.602-2.113,4.699-4.701,4.699c-2.591,0-4.703-2.097-4.703-4.699V4.759z M180.768,22.451c0-2.586,2.112-4.687,4.703-4.687
		c2.59,0,4.701,2.101,4.701,4.687v22.785c0,2.601-2.111,4.699-4.701,4.699c-2.591,0-4.703-2.098-4.703-4.699V22.451z
		 M206.596,35.383c0-2.587,2.112-4.684,4.702-4.684c2.587,0,4.702,2.097,4.702,4.684v9.853c0,2.601-2.115,4.699-4.702,4.699
		c-2.59,0-4.702-2.098-4.702-4.699"/>
	<path fill="#FFFFFF" d="M164.344,4.759c0-2.587-2.113-4.685-4.703-4.685c-2.589,0-4.701,2.098-4.701,4.685v49.84
		c0,2.602,2.112,4.699,4.701,4.699c2.59,0,4.703-2.097,4.703-4.699V4.759z"/>
	<path fill="#FFFFFF" d="M138.516,22.451c0-2.586-2.113-4.687-4.703-4.687s-4.701,2.101-4.701,4.687v22.785
		c0,2.601,2.111,4.699,4.701,4.699s4.703-2.098,4.703-4.699V22.451z"/>
</g>
</svg>
