<svg enable-background="new -12 -63 240 240" height="240" viewBox="-12 -63 240 240" width="240" xmlns="http://www.w3.org/2000/svg"><g fill="#fff"><path d="m106.48 76.238c-.282-.077-4.621-1.196-9.232-1.196-8.73 0-13.986 4.714-13.986 11.733 0 6.215 4.397 9.313 9.674 10.98.585.193 1.447.463 2.021.653 2.349.739 4.224 1.837 4.224 3.739 0 2.127-2.167 3.504-6.878 3.504-4.14 0-8.109-1.185-8.945-1.396v8.638c.466.099 5.183 1.024 10.222 1.024 7.248 0 15.539-3.167 15.539-12.595 0-4.573-2.8-8.783-8.947-10.737l-2.613-.832c-1.559-.491-4.342-1.289-4.342-3.573 0-1.806 2.062-3.076 5.859-3.076 3.276 0 7.263 1.101 7.404 1.145zm80.041 18.242c0 5.461-4.184 9.879-9.797 9.879-5.619 0-9.791-4.418-9.791-9.879 0-5.449 4.172-9.869 9.791-9.869 5.614 0 9.797 4.42 9.797 9.869m-9.796-19.425c-11.543 0-19.822 8.706-19.822 19.426 0 10.737 8.279 19.438 19.822 19.438s19.834-8.701 19.834-19.438c0-10.72-8.291-19.426-19.834-19.426m-106.164 38.196h-9.472v-37.532h9.472"/><path d="m48.07 76.398c-.89-.264-4.18-1.344-8.636-1.344-11.526 0-19.987 8.217-19.987 19.426 0 12.094 9.34 19.438 19.987 19.438 4.23 0 7.459-1.002 8.636-1.336v-10.075c-.407.227-3.503 1.992-7.957 1.992-6.31 0-10.38-4.441-10.38-10.02 0-5.748 4.246-10.01 10.38-10.01 4.53 0 7.576 1.805 7.957 2.004"/><path d="m146.93 76.398c-.89-.264-4.18-1.344-8.636-1.344-11.526 0-19.987 8.217-19.987 19.426 0 12.094 9.34 19.438 19.987 19.438 4.229 0 7.459-1.002 8.636-1.336v-10.075c-.406.227-3.503 1.992-7.957 1.992-6.31 0-10.38-4.441-10.38-10.02 0-5.748 4.246-10.01 10.38-10.01 4.53 0 7.576 1.805 7.957 2.004z"/><path d="m61.061 4.759c0-2.587-2.113-4.685-4.703-4.685-2.589 0-4.702 2.098-4.702 4.685v49.84c0 2.602 2.113 4.699 4.702 4.699 2.59 0 4.703-2.097 4.703-4.699zm-25.829 17.692c0-2.586-2.112-4.687-4.702-4.687s-4.702 2.101-4.702 4.687v22.785c0 2.601 2.112 4.699 4.702 4.699s4.702-2.098 4.702-4.699zm-25.828 12.932c0-2.587-2.112-4.684-4.702-4.684-2.587 0-4.702 2.097-4.702 4.684v9.853c0 2.601 2.115 4.699 4.702 4.699 2.59 0 4.702-2.098 4.702-4.699"/><path d="m51.656 4.759c0-2.587 2.113-4.685 4.703-4.685 2.589 0 4.702 2.098 4.702 4.685v49.84c0 2.602-2.113 4.699-4.702 4.699-2.59 0-4.703-2.097-4.703-4.699z"/><path d="m77.485 22.451c0-2.586 2.112-4.687 4.702-4.687s4.702 2.101 4.702 4.687v22.785c0 2.601-2.112 4.699-4.702 4.699s-4.702-2.098-4.702-4.699z"/><path d="m103.313 35.383c0-2.587 2.112-4.684 4.702-4.684 2.586 0 4.702 2.097 4.702 4.684v9.853c0 2.601-2.115 4.699-4.702 4.699-2.59 0-4.702-2.098-4.702-4.699"/><path d="m154.939 4.759c0-2.587 2.112-4.685 4.703-4.685 2.588 0 4.701 2.098 4.701 4.685v49.84c0 2.602-2.113 4.699-4.701 4.699-2.591 0-4.703-2.097-4.703-4.699zm25.829 17.692c0-2.586 2.112-4.687 4.703-4.687 2.59 0 4.701 2.101 4.701 4.687v22.785c0 2.601-2.111 4.699-4.701 4.699-2.591 0-4.703-2.098-4.703-4.699zm25.828 12.932c0-2.587 2.112-4.684 4.702-4.684 2.587 0 4.702 2.097 4.702 4.684v9.853c0 2.601-2.115 4.699-4.702 4.699-2.59 0-4.702-2.098-4.702-4.699"/><path d="m164.344 4.759c0-2.587-2.113-4.685-4.703-4.685-2.589 0-4.701 2.098-4.701 4.685v49.84c0 2.602 2.112 4.699 4.701 4.699 2.59 0 4.703-2.097 4.703-4.699z"/><path d="m138.516 22.451c0-2.586-2.113-4.687-4.703-4.687s-4.701 2.101-4.701 4.687v22.785c0 2.601 2.111 4.699 4.701 4.699s4.703-2.098 4.703-4.699z"/></g></svg>