<?xml version="1.0" encoding="utf-8"?>
<!-- Generator: Adobe Illustrator 16.0.0, SVG Export Plug-In . SVG Version: 6.00 Build 0)  -->
<!DOCTYPE svg PUBLIC "-//W3C//DTD SVG 1.1//EN" "http://www.w3.org/Graphics/SVG/1.1/DTD/svg11.dtd">
<svg version="1.1" id="Layer_1" xmlns="http://www.w3.org/2000/svg" xmlns:xlink="http://www.w3.org/1999/xlink" x="0px" y="0px"
	 width="100px" height="100px" viewBox="0 0 100 100" enable-background="new 0 0 100 100" xml:space="preserve">
<g id="It2tX1.tif">
	<g>
		<path fill="#FFFFFF" d="M48.846,29.634c1.862,0,2.896-1.034,3.31-2.896c0.413-2.067,0.827-4.136,1.24-6.204
			c0.413-1.654,1.861-3.102,3.723-3.102c4.343,0.207,8.892,0,13.028,0.62c5.583,0.827,10.545,3.516,14.682,7.444
			c3.929,3.723,6.411,8.065,7.443,13.441c1.447,7.444,0,14.269-4.549,20.473c-4.756,6.204-11.167,9.719-18.817,10.96
			c-2.481,0.413-4.963,0.207-7.651,0.207c-2.688,0-5.377,0-8.271,0c-2.068,0-2.896,0.62-3.309,2.688
			c-0.414,1.861-0.828,3.93-1.241,5.791c-0.413,2.274-2.068,3.515-4.343,3.515c-5.376,0-6.824,0-10.133-0.206
			c-7.237-0.414-13.854-3.103-19.024-8.271c-5.79-5.584-8.271-12.408-7.651-20.473c0.414-5.583,2.688-10.34,6.204-14.476
			c4.136-4.756,9.306-7.651,15.302-9.099c1.861-0.413,3.93-0.62,5.997-0.62C36.853,29.84,46.572,29.84,48.846,29.634z
			 M35.406,39.766c-4.55,0-8.686,1.448-12.408,4.343c-6.617,5.377-7.857,14.476-3.102,21.3c3.309,4.55,8.064,6.824,13.648,7.444
			c3.516,0.413,6.617,0.207,10.34,0.207c2.48,0,3.102-1.034,3.515-2.896c0.414-1.654,0.827-3.515,1.034-5.377
			c0.413-2.895,2.481-3.929,4.963-3.929c3.723,0,7.444,0,11.167,0c5.376,0,10.133-1.861,13.854-5.997
			c2.896-3.102,4.343-6.823,4.137-11.166c-0.415-7.031-4.137-11.787-10.548-14.476c-4.962-2.068-10.339-1.654-15.509-1.654
			c-1.24,0-2.067,1.034-2.273,2.274c-0.415,2.068-0.828,4.136-1.241,6.203c-0.414,2.482-1.861,3.723-4.55,3.723
			C46.572,39.56,37.473,39.766,35.406,39.766z"/>
	</g>
</g>
</svg>
