<svg enable-background="new 0 0 100 100" height="100" viewBox="0 0 100 100" width="100" xmlns="http://www.w3.org/2000/svg"><path d="m48.846 29.634c1.862 0 2.896-1.034 3.31-2.896.413-2.067.827-4.136 1.24-6.204.413-1.654 1.861-3.102 3.723-3.102 4.343.207 8.892 0 13.028.62 5.583.827 10.545 3.516 14.682 7.444 3.929 3.723 6.411 8.065 7.443 13.441 1.447 7.444 0 14.269-4.549 20.473-4.756 6.204-11.167 9.719-18.817 10.96-2.481.413-4.963.207-7.651.207s-5.377 0-8.271 0c-2.068 0-2.896.62-3.309 2.688-.414 1.861-.828 3.93-1.241 5.791-.413 2.274-2.068 3.515-4.343 3.515-5.376 0-6.824 0-10.133-.206-7.237-.414-13.854-3.103-19.024-8.271-5.79-5.584-8.271-12.408-7.651-20.473.414-5.583 2.688-10.34 6.204-14.476 4.136-4.756 9.306-7.651 15.302-9.099 1.861-.413 3.93-.62 5.997-.62 2.067.414 11.786.414 14.06.208zm-13.44 10.132c-4.55 0-8.686 1.448-12.408 4.343-6.617 5.377-7.857 14.476-3.102 21.3 3.309 4.55 8.064 6.824 13.648 7.444 3.516.413 6.617.207 10.34.207 2.48 0 3.102-1.034 3.515-2.896.414-1.654.827-3.515 1.034-5.377.413-2.895 2.481-3.929 4.963-3.929h11.167c5.376 0 10.133-1.861 13.854-5.997 2.896-3.102 4.343-6.823 4.137-11.166-.415-7.031-4.137-11.787-10.548-14.476-4.962-2.068-10.339-1.654-15.509-1.654-1.24 0-2.067 1.034-2.273 2.274-.415 2.068-.828 4.136-1.241 6.203-.414 2.482-1.861 3.723-4.55 3.723-1.861-.205-10.96.001-13.027.001z" fill="#fff"/></svg>