<?xml version="1.0" encoding="utf-8"?>
<!-- Generator: Adobe Illustrator 16.0.0, SVG Export Plug-In . SVG Version: 6.00 Build 0)  -->
<!DOCTYPE svg PUBLIC "-//W3C//DTD SVG 1.1//EN" "http://www.w3.org/Graphics/SVG/1.1/DTD/svg11.dtd">
<svg version="1.1" id="Layer_1" xmlns="http://www.w3.org/2000/svg" xmlns:xlink="http://www.w3.org/1999/xlink" x="0px" y="0px"
	 width="1100px" height="1100px" viewBox="-48.871 -559.249 1100 1100" enable-background="new -48.871 -559.249 1100 1100"
	 xml:space="preserve">
<g>
	<path fill="#FFFFFF" d="M500.01-327.732c12.467-20.352,33.146-41.646,55.41-50.652c38.331-17.439,89.704-9.939,120.975,17.655
		c30.262,27.415,45.608,64.989,38.367,106.998c7.423-1.37,14.914-6.122,22.772-8.825c46.971-13.258,96.65,1.119,126.771,41.393
		c22.623,28.75,28.535,73.417,14.954,108.149c-6.74,17.469-18.231,33.177-33.176,46.581l1.505,1.514
		c43.703,2.122,86.651,36.06,99.904,77.669c14.373,41.97,1.73,86.82-28.963,117.517c-25.076,24.786-57.321,33.364-93.166,32.641
		H174.628c-53.43,1.152-94.714-22.518-116.942-70.032C40.247,52.092,48.857-0.073,81.424-31.16
		c20.533-21.474,46.26-30.268,73.999-34.695c-31.413-29.146-46.547-69.024-37.72-111.79c6.307-34.654,35.849-69.743,69.783-81.849
		c29.897-11.89,70.396-9.802,97.776,6.336l0.974-1.189c-8.251-47.159,12.647-89.704,51.763-115.789
		c34.878-23.593,90.645-22.983,124.797,2.096C478.146-358.642,490.786-342.5,500.01-327.732"/>
	<path fill="#645FAA" d="M684.243-310.114c13.983,28.208,5.77,65.171-8.821,90.499L562.516,34.403l-0.977,1.189L520.727-222.1
		c-3.273-24.746,23.165-35.304,38.727-47.193c-0.792-3.635-4.792-3.458-7.311-5.15l-38.148-0.397l-1.158-1.153
		c0.218-31.991,17.438-61.532,46.617-77.057c30.485-17.614,73.42-12.826,99.862,9.764
		C670.055-333.709,679.098-322.581,684.243-310.114"/>
	<path fill="#C9234A" d="M476.231-318.942c9.228,17.078,14.561,36.462,11.313,57.93L441.508,34.042
		c0.248,0.358-0.182,0.757-0.544,0.932l-11.925-23.737l-115.39-257.692c-10.739-33.18-0.793-67.872,23.38-91.654
		c24.353-24.712,64.412-31.414,96.261-18.01C450.152-348.84,466.254-335.437,476.231-318.942"/>
	<path fill="#0089CF" d="M851.264-194.725c15.525,26.476,12.034,66.541-5.23,91.111c-10.689,17.255-28.35,25.866-43.3,37.178
		L563.636,97.692h-0.549l2.67-7.852l126.741-286.077c18.986-33.722,55.228-50.798,93.559-45.647
		C812.321-237.088,838.585-220.015,851.264-194.725"/>
	<path fill="#F36F21" d="M308.102-196.236L439.994,97.661h-2.123L171.965-85.603c-27.059-22.801-38.151-56.957-28.965-91.469
		c6.881-25.867,28.351-50.037,53.896-59.625C238.717-252.006,285.833-235.724,308.102-196.236"/>
	<path fill="#0DB14B" d="M920.648,12.746c13.254,27.994,8.032,66.325-10.914,90.133c-18.803,22.809-43.954,35.272-73.46,34.479
		l-283.521,0.184L790.265-27.707c23.208-14.952,58.479-17.658,83.803-5.552C893.625-25.584,912.037-6.419,920.648,12.746"/>
	<path fill="#FDB913" d="M81.065,12.746C67.848,40.74,73.032,79.07,92.018,102.879c18.804,22.809,43.877,35.272,73.422,34.479
		l283.524,0.184L211.446-27.707c-23.201-14.952-58.466-17.658-83.76-5.552C108.119-25.584,89.715-6.419,81.065,12.746"/>
</g>
<g>
	<path d="M226.435,205.649c-40.763,0-73.893,33.152-73.893,73.916c0,40.754,33.13,73.926,73.893,73.926
		c40.764,0,73.916-33.172,73.916-73.926C300.351,238.803,267.199,205.649,226.435,205.649 M226.435,338.93
		c-32.736,0-59.375-26.637-59.375-59.362c0-32.717,26.639-59.355,59.375-59.355c32.737,0,59.376,26.639,59.376,59.355
		C285.811,312.293,259.172,338.93,226.435,338.93"/>
	<path d="M863.724,280.504c-3.965-2.08-28.088-14.498-31.553-16.299c-12.653-6.472-17.141-12.185-17.141-21.864
		c0-13.451,11.045-22.14,28.173-22.14c10.054,0,19.773,4.424,25.478,7.632c1.035,0.564,2.262,0.885,3.539,0.885
		c3.987,0,7.261-3.271,7.261-7.259c0-2.687-1.474-5.043-3.636-6.301c-7.184-4.009-19.434-9.498-32.642-9.498
		c-25.167,0-42.725,15.071-42.725,36.681c0,19.391,12.75,28.537,25.223,34.912c3.495,1.78,27.896,14.357,31.552,16.287
		c9.637,5.042,14.967,12.611,14.967,21.321c0,11.672-9.891,24.08-28.193,24.08c-17.804,0-31.628-11.939-35.444-15.617l-1.143-1.088
		l-10.754,9.807l1.257,1.258c4.774,4.735,22.236,20.19,46.084,20.19c26.734,0,42.714-19.646,42.714-38.63
		C886.74,300.685,878.361,288.156,863.724,280.504"/>
	<path d="M74.895,220.211c15.872,0,30.785,6.185,41.978,17.365c2.665,2.653,7.675,2.653,10.297,0
		c1.386-1.354,2.121-3.177,2.121-5.127c0-1.931-0.735-3.774-2.121-5.128l-0.895-0.918c-13.837-13.389-32.097-20.754-51.38-20.754
		C34.152,205.649,1,238.813,1,279.556c0,40.765,33.152,73.937,73.895,73.937c21.51,0,40.89-9.229,54.396-23.942l-10.287-10.297
		c-10.873,12.067-26.607,19.678-44.11,19.678c-32.726,0-59.365-26.647-59.365-59.375C15.53,246.86,42.169,220.211,74.895,220.211"/>
	<path d="M575.941,220.211c15.852,0,30.784,6.185,41.977,17.365c2.654,2.653,7.666,2.653,10.288,0
		c1.386-1.354,2.153-3.177,2.153-5.127c0-1.931-0.769-3.774-2.153-5.128l-0.885-0.918c-13.868-13.389-32.107-20.754-51.38-20.754
		c-40.752,0-73.916,33.162-73.916,73.904c0,40.766,33.164,73.938,73.916,73.938c21.5,0,40.88-9.229,54.406-23.942l-10.298-10.297
		c-10.873,12.067-26.629,19.678-44.108,19.678c-32.737,0-59.388-26.647-59.388-59.374
		C516.554,246.86,543.204,220.211,575.941,220.211"/>
	<path d="M450.741,205.649c-2.729,0-4.883,1.76-6.057,4.029c-1.193,2.271-43.491,106.897-43.502,106.897
		c0,0-42.298-104.628-43.481-106.897c-1.183-2.271-3.335-4.029-6.064-4.029c-3.188,0-5.586,2.346-6.428,5.3
		c-0.842,2.973-24.709,134.652-24.709,134.652c-0.086,0.429-0.128,0.876-0.128,1.333c0,3.623,2.953,6.557,6.556,6.557
		c3.198,0,5.863-2.28,6.438-5.297l20.669-112.664c0,0,39.879,98.518,41.041,100.861c1.173,2.335,3.347,4.158,6.119,4.158
		c2.771,0,4.936-1.823,6.097-4.158c1.173-2.345,41.051-100.861,41.051-100.861l21.479,117.15h13.348
		c0,0-25.146-138.76-25.989-141.731C456.326,207.995,453.927,205.649,450.741,205.649"/>
	<path d="M713.527,205.66c-2.762-0.011-4.902,1.791-6.107,4.136c-1.195,2.335-54.738,134.582-54.738,134.582
		c-0.319,0.777-0.502,1.642-0.502,2.558c0,3.623,2.933,6.566,6.557,6.566c2.761,0,5.128-1.727,6.099-4.168L685.62,298.2h55.825
		l22.174,54.48h14.166c0,0-56.987-140.551-58.159-142.886C718.462,207.451,716.298,205.649,713.527,205.66 M691.546,283.647
		l21.98-54.047l22.002,54.047H691.546z"/>
	<path d="M993.966,206.438h-82.293c-4.009,0-7.26,3.263-7.26,7.28c0,3.997,3.251,7.259,7.26,7.259h34.494V352.67h13.326v-131.69
		h34.473c4.009,0,7.292-3.263,7.292-7.26C1001.258,209.701,997.975,206.438,993.966,206.438"/>
</g>
</svg>
