<svg enable-background="new -48.871 -559.249 1100 1100" height="1100" viewBox="-48.871 -559.249 1100 1100" width="1100" xmlns="http://www.w3.org/2000/svg"><path d="m500.01-327.732c12.467-20.352 33.146-41.646 55.41-50.652 38.331-17.439 89.704-9.939 120.975 17.655 30.262 27.415 45.608 64.989 38.367 106.998 7.423-1.37 14.914-6.122 22.772-8.825 46.971-13.258 96.65 1.119 126.771 41.393 22.623 28.75 28.535 73.417 14.954 108.149-6.74 17.469-18.231 33.177-33.176 46.581l1.505 1.514c43.703 2.122 86.651 36.06 99.904 77.669 14.373 41.97 1.73 86.82-28.963 117.517-25.076 24.786-57.321 33.364-93.166 32.641h-650.735c-53.43 1.152-94.714-22.518-116.942-70.032-17.439-40.784-8.829-92.949 23.738-124.036 20.533-21.474 46.26-30.268 73.999-34.695-31.413-29.146-46.547-69.024-37.72-111.79 6.307-34.654 35.849-69.743 69.783-81.849 29.897-11.89 70.396-9.802 97.776 6.336l.974-1.189c-8.251-47.159 12.647-89.704 51.763-115.789 34.878-23.593 90.645-22.983 124.797 2.096 15.35 9.398 27.99 25.54 37.214 40.308" fill="#fff"/><path d="m684.243-310.114c13.983 28.208 5.77 65.171-8.821 90.499l-112.906 254.018-.977 1.189-40.812-257.692c-3.273-24.746 23.165-35.304 38.727-47.193-.792-3.635-4.792-3.458-7.311-5.15l-38.148-.397-1.158-1.153c.218-31.991 17.438-61.532 46.617-77.057 30.485-17.614 73.42-12.826 99.862 9.764 10.739 9.577 19.782 20.705 24.927 33.172" fill="#645faa"/><path d="m476.231-318.942c9.228 17.078 14.561 36.462 11.313 57.93l-46.036 295.054c.248.358-.182.757-.544.932l-11.925-23.737-115.39-257.692c-10.739-33.18-.793-67.872 23.38-91.654 24.353-24.712 64.412-31.414 96.261-18.01 16.862 7.279 32.964 20.682 42.941 37.177" fill="#c9234a"/><path d="m851.264-194.725c15.525 26.476 12.034 66.541-5.23 91.111-10.689 17.255-28.35 25.866-43.3 37.178l-239.098 164.128h-.549l2.67-7.852 126.741-286.077c18.986-33.722 55.228-50.798 93.559-45.647 26.264 4.796 52.528 21.869 65.207 47.159" fill="#0089cf"/><path d="m308.102-196.236 131.892 293.897h-2.123l-265.906-183.264c-27.059-22.801-38.151-56.957-28.965-91.469 6.881-25.867 28.351-50.037 53.896-59.625 41.821-15.309 88.937.973 111.206 40.461" fill="#f36f21"/><path d="m920.648 12.746c13.254 27.994 8.032 66.325-10.914 90.133-18.803 22.809-43.954 35.272-73.46 34.479l-283.521.184 237.512-165.249c23.208-14.952 58.479-17.658 83.803-5.552 19.557 7.675 37.969 26.84 46.58 46.005" fill="#0db14b"/><path d="m81.065 12.746c-13.217 27.994-8.033 66.324 10.953 90.133 18.804 22.809 43.877 35.272 73.422 34.479l283.524.184-237.518-165.249c-23.201-14.952-58.466-17.658-83.76-5.552-19.567 7.675-37.971 26.84-46.621 46.005" fill="#fdb913"/><path d="m226.435 205.649c-40.763 0-73.893 33.152-73.893 73.916 0 40.754 33.13 73.926 73.893 73.926 40.764 0 73.916-33.172 73.916-73.926 0-40.762-33.152-73.916-73.916-73.916m0 133.281c-32.736 0-59.375-26.637-59.375-59.362 0-32.717 26.639-59.355 59.375-59.355 32.737 0 59.376 26.639 59.376 59.355 0 32.725-26.639 59.362-59.376 59.362"/><path d="m863.724 280.504c-3.965-2.08-28.088-14.498-31.553-16.299-12.653-6.472-17.141-12.185-17.141-21.864 0-13.451 11.045-22.14 28.173-22.14 10.054 0 19.773 4.424 25.478 7.632 1.035.564 2.262.885 3.539.885 3.987 0 7.261-3.271 7.261-7.259 0-2.687-1.474-5.043-3.636-6.301-7.184-4.009-19.434-9.498-32.642-9.498-25.167 0-42.725 15.071-42.725 36.681 0 19.391 12.75 28.537 25.223 34.912 3.495 1.78 27.896 14.357 31.552 16.287 9.637 5.042 14.967 12.611 14.967 21.321 0 11.672-9.891 24.08-28.193 24.08-17.804 0-31.628-11.939-35.444-15.617l-1.143-1.088-10.754 9.807 1.257 1.258c4.774 4.735 22.236 20.19 46.084 20.19 26.734 0 42.714-19.646 42.714-38.63-.001-14.176-8.38-26.705-23.017-34.357"/><path d="m74.895 220.211c15.872 0 30.785 6.185 41.978 17.365 2.665 2.653 7.675 2.653 10.297 0 1.386-1.354 2.121-3.177 2.121-5.127 0-1.931-.735-3.774-2.121-5.128l-.895-.918c-13.837-13.389-32.097-20.754-51.38-20.754-40.743 0-73.895 33.164-73.895 73.907 0 40.765 33.152 73.937 73.895 73.937 21.51 0 40.89-9.229 54.396-23.942l-10.287-10.297c-10.873 12.067-26.607 19.678-44.11 19.678-32.726 0-59.365-26.647-59.365-59.375.001-32.697 26.64-59.346 59.366-59.346"/><path d="m575.941 220.211c15.852 0 30.784 6.185 41.977 17.365 2.654 2.653 7.666 2.653 10.288 0 1.386-1.354 2.153-3.177 2.153-5.127 0-1.931-.769-3.774-2.153-5.128l-.885-.918c-13.868-13.389-32.107-20.754-51.38-20.754-40.752 0-73.916 33.162-73.916 73.904 0 40.766 33.164 73.938 73.916 73.938 21.5 0 40.88-9.229 54.406-23.942l-10.298-10.297c-10.873 12.067-26.629 19.678-44.108 19.678-32.737 0-59.388-26.647-59.388-59.374.001-32.696 26.651-59.345 59.388-59.345"/><path d="m450.741 205.649c-2.729 0-4.883 1.76-6.057 4.029-1.193 2.271-43.491 106.897-43.502 106.897 0 0-42.298-104.628-43.481-106.897-1.183-2.271-3.335-4.029-6.064-4.029-3.188 0-5.586 2.346-6.428 5.3-.842 2.973-24.709 134.652-24.709 134.652-.086.429-.128.876-.128 1.333 0 3.623 2.953 6.557 6.556 6.557 3.198 0 5.863-2.28 6.438-5.297l20.669-112.664s39.879 98.518 41.041 100.861c1.173 2.335 3.347 4.158 6.119 4.158 2.771 0 4.936-1.823 6.097-4.158 1.173-2.345 41.051-100.861 41.051-100.861l21.479 117.15h13.348s-25.146-138.76-25.989-141.731c-.855-2.954-3.254-5.3-6.44-5.3"/><path d="m713.527 205.66c-2.762-.011-4.902 1.791-6.107 4.136-1.195 2.335-54.738 134.582-54.738 134.582-.319.777-.502 1.642-.502 2.558 0 3.623 2.933 6.566 6.557 6.566 2.761 0 5.128-1.727 6.099-4.168l20.784-51.134h55.825l22.174 54.48h14.166s-56.987-140.551-58.159-142.886c-1.164-2.343-3.328-4.145-6.099-4.134m-21.981 77.987 21.98-54.047 22.002 54.047z"/><path d="m993.966 206.438h-82.293c-4.009 0-7.26 3.263-7.26 7.28 0 3.997 3.251 7.259 7.26 7.259h34.494v131.693h13.326v-131.69h34.473c4.009 0 7.292-3.263 7.292-7.26 0-4.019-3.283-7.282-7.292-7.282"/></svg>