<svg height="51" viewBox="0 0 372 51" width="372" xmlns="http://www.w3.org/2000/svg"><g fill="#231f20"><path d="m81.07 43.33c-7.375104.0445511-14.048816-4.3638148-16.90207-11.1647771s-1.322552-14.6513814 3.876706-19.8822375c5.199259-5.2308562 13.040259-6.8090942 19.858384-3.9970991s11.266845 9.4588751 11.26698 16.8341137c.016633 10.0210806-8.079003 18.1659166-18.1 18.21m0-43.24c-10.12322-.0526415-19.278949 6.0049236-23.189468 15.3424926s-1.803833 20.1117673 5.335777 27.2886973c7.13961 7.1769299 17.902679 9.3397591 27.260508 5.4779749 9.35783-3.8617842 15.463046-12.985808 15.463183-23.1091648.000186-13.7565095-11.113676-24.9284662-24.87-25"/><path d="m173.42 1.53c-.229625.0019833-.441713.1231765-.56.32l-25.63 34.85-25.63-34.85c-.120126-.1998741-.33681-.3215215-.57-.32-.371683-.0000402-.674534.2983574-.68.67v46.43h6.78v-27.42l19.7 26.6c.098793.1189328.245387.187735.4.187735s.301207-.0688022.4-.187735l19.7-26.6v27.42h6.78v-46.43c-.002633-.1803535-.076813-.352272-.206217-.4779255-.129405-.1256536-.30343-.1947463-.483783-.1920745"/><path d="m215.56 24.93h-15.8v-16.6h15.8c4.578441 0 8.29 3.7115594 8.29 8.29s-3.711559 8.29-8.29 8.29m0-23.4h-22.6v47.1h6.78v-16.86h15.8c8.345023 0 15.11-6.7649774 15.11-15.11s-6.764977-15.11-15.11-15.11"/><path d="m25.09 43.33c-8.544047.0481034-15.972592-5.850585-17.861801-14.1832882s2.269015-16.8583696 9.998373-20.4998085c7.729358-3.641439 16.951066-1.4192983 22.173428 5.3430967l4.87-4.81c-6.720879-8.1203694-17.813001-11.1527878-27.730325-7.5810517-9.917324 3.571736-16.528865 12.9801497-16.528865 23.5210517s6.611541 19.9493157 16.528865 23.5210517c9.917324 3.5717363 21.009446.5393177 27.730325-7.5810517l-4.87-4.81c-3.405208 4.4620746-8.697019 7.0802452-14.31 7.08"/><path d="m311.03 20.78-5.19-1.18c-5.58-1.2-6-5-6-6.19 0-3.85 3.07-6.06 8.42-6.06 5.5 0 9.52 3.73 10.75 5l4.77-4.69c-4.48-4.7-9.55-7-15.52-7-9.09 0-15.2 5.11-15.2 12.72 0 2.42 0 9.78 12.22 12.79l5.68 1.34c5.27 1.45 7.83 4 7.83 7.78 0 4.43-4.27 7.52-10.37 7.52-6.53 0-10.55-4.49-11.75-6l-4.71 4.64c3.21 3.66 8.69 8 16.53 8 9.77 0 17.14-6.1 17.14-14.18 0-7.24-5-12.26-14.55-14.51"/><path d="m356.66 20.78-5.19-1.18c-5.58-1.2-6-5-6-6.19 0-3.85 3.07-6.06 8.42-6.06 5.5 0 9.52 3.73 10.74 5l4.78-4.69c-4.48-4.7-9.56-7-15.52-7-9.09 0-15.2 5.11-15.2 12.72 0 2.42 0 9.78 12.22 12.79l5.71 1.31c5.26 1.45 7.82 4 7.82 7.78 0 4.43-4.26 7.52-10.36 7.52-6.53 0-10.56-4.49-11.75-6l-4.78 4.69c3.21 3.66 8.69 8 16.53 8 9.77 0 17.14-6.1 17.14-14.18 0-7.24-5-12.26-14.55-14.51"/><path d="m250.43 29.74 7.76-14.8 7.77 14.8zm7.76-28.63c-.266587.0023613-.507962.1580873-.62.4l-24.71 47.12h7.67l6.32-12.07h22.67l6.33 12.07h7.66l-24.7-47.12c-.113918-.2402701-.354135-.3952484-.62-.4z"/><path d="m70.38 31.01 4.79 4.82 16.58-16.67-4.8-4.82z"/></g></svg>