<svg enable-background="new 0 0 74 100" viewBox="0 0 74 100" xmlns="http://www.w3.org/2000/svg"><path d="m0 0h74v100h-74z" fill="#ee0034"/><g fill="#fff"><path d="m25.5 74.6c0-3.9 2.2-7.3 6.3-7.3 4 0 6.8 3.7 6.8 8 0 3.3-1.9 7.5-6.2 7.5-3-.1-6.9-2.6-6.9-8.2m7-8.1c-6.7 0-9.4 4.9-9.4 8.5 0 4.8 3.8 8.4 8.6 8.4 6.1 0 9.3-4.4 9.3-8.6s-3.4-8.3-8.5-8.3"/><path d="m44.5 67.5c-.1 0-.2.1-.2.2v7.3c0 .1 0 .1.1.1.2.1 1 .1 1.3.1 3 0 4.8-1.2 4.8-3.8 0-2.4-1.1-3.6-2.4-3.9-.7-.1-2.4-.2-3.6 0m11.5 15.6c-1.1 0-2.2-.3-3-.9-.7-.5-1.4-1.1-1.9-1.9-.2-.3-.7-1-1.1-1.7-.6-1.1-1.3-2.2-1.9-3-.1-.1-.2-.2-.3-.1-.8.1-2.2.3-3.4.2v5.6c0 .8.7 1.5 2.4 1.5.2 0 .3.3 0 .3h-6.9c-.2 0-.3-.3 0-.3 1.8-.2 2.2-.8 2.2-1.9 0-.1-.1-12-.1-12.1 0-.9-.9-1.4-2.3-1.5-.2 0-.2-.4 0-.4h5c.3 0 1.5-.1 1.8-.1 3.1-.1 6.2 1.2 6.2 4.6 0 1.7-1.2 2.7-2.6 3.5 0 0-.1.1-.1.1v.1c.3.2 2.3 3.3 2.5 3.6.4.7 1.9 2.8 2.5 3.2.8.5 1 .7 1.9.7h.3c.5 0 1.2-.3 1.4-.8.2-.4.1-.9.1-1.6 0-.1 0-12.1 0-12.2s-.1-.2-.2-.2h-3.2c-1.2 0-1.6 1.8-1.8 2.8 0 .1-.1.1-.2.1s-.2 0-.2-.2c0-.4.4-3.6.4-4.1 0-.1.1-.1.2-.1h.2s.1 0 .1.1c.1.3.4.4.6.4h10.3c.3 0 .6-.1.6-.4 0-.1 0-.1.1-.1h.2s.2.1.2.1c.1.5.4 3.7.4 4.1 0 .1-.1.2-.2.2s-.2 0-.2-.1c-.2-1-.5-2.8-1.8-2.8h-3.2c-.1 0-.2.1-.2.2v12.2c0 .7 0 1.2.1 1.6.2.5.9.8 1.4.8h1.2c.1 0 .2.1.2.2s-.1.2-.2.2h-7.5z"/><path d="m22.9 79.6c-.2 0-.3.2-.4.3-1.3 1.8-3 2.9-5.5 2.9-3.7 0-7.1-3.2-7.1-8.1 0-5.2 3.3-7.4 6.8-7.4 2.5 0 4.6 1.3 5.6 3.8.1.1.2.3.3.2.1 0 .2-.2.2-.4 0-.9-.1-2.7-.2-3.1 0-.1-.1-.2-.2-.1-.1 0-.4.1-.5 0-1.1-.5-3.3-1-5.3-1-6.1 0-9.1 4.3-9.1 8.6 0 4.5 3.5 8.3 9 8.3 1.2 0 3.4-.4 4.4-.7h.4c.1.1.2.1.4-.2 0-.1.8-1.7 1.3-2.7.1-.2.1-.3-.1-.4z"/></g></svg>