<?xml version="1.0" encoding="utf-8"?>
<!-- Generator: Adobe Illustrator 22.1.0, SVG Export Plug-In . SVG Version: 6.00 Build 0)  -->
<svg version="1.1" xmlns="http://www.w3.org/2000/svg" xmlns:xlink="http://www.w3.org/1999/xlink" x="0px" y="0px"
	 viewBox="0 0 74 100" style="enable-background:new 0 0 74 100;" xml:space="preserve">
<style type="text/css">
	.st0{fill:#EE0034;}
	.st1{fill:#FFFFFF;}
</style>
<g id="Layer_1">
</g>
<g id="Layer_2">
	<g>
		<rect y="0" class="st0" width="74" height="100"/>
		<g>
			<path class="st1" d="M25.5,74.6c0-3.9,2.2-7.3,6.3-7.3c4,0,6.8,3.7,6.8,8c0,3.3-1.9,7.5-6.2,7.5C29.4,82.7,25.5,80.2,25.5,74.6
				 M32.5,66.5c-6.7,0-9.4,4.9-9.4,8.5c0,4.8,3.8,8.4,8.6,8.4c6.1,0,9.3-4.4,9.3-8.6C41,70.6,37.6,66.5,32.5,66.5"/>
			<path class="st1" d="M44.5,67.5c-0.1,0-0.2,0.1-0.2,0.2V75c0,0.1,0,0.1,0.1,0.1c0.2,0.1,1,0.1,1.3,0.1c3,0,4.8-1.2,4.8-3.8
				c0-2.4-1.1-3.6-2.4-3.9C47.4,67.4,45.7,67.3,44.5,67.5 M56,83.1c-1.1,0-2.2-0.3-3-0.9c-0.7-0.5-1.4-1.1-1.9-1.9
				c-0.2-0.3-0.7-1-1.1-1.7c-0.6-1.1-1.3-2.2-1.9-3c-0.1-0.1-0.2-0.2-0.3-0.1c-0.8,0.1-2.2,0.3-3.4,0.2v5.6c0,0.8,0.7,1.5,2.4,1.5
				c0.2,0,0.3,0.3,0,0.3h-6.9c-0.2,0-0.3-0.3,0-0.3c1.8-0.2,2.2-0.8,2.2-1.9c0-0.1-0.1-12-0.1-12.1c0-0.9-0.9-1.4-2.3-1.5
				c-0.2,0-0.2-0.4,0-0.4c0.1,0,4.8,0,5,0c0.3,0,1.5-0.1,1.8-0.1c3.1-0.1,6.2,1.2,6.2,4.6c0,1.7-1.2,2.7-2.6,3.5
				C50.1,74.9,50,75,50,75c0,0,0,0.1,0,0.1c0.3,0.2,2.3,3.3,2.5,3.6c0.4,0.7,1.9,2.8,2.5,3.2c0.8,0.5,1,0.7,1.9,0.7h0.3
				c0.5,0,1.2-0.3,1.4-0.8c0.2-0.4,0.1-0.9,0.1-1.6c0-0.1,0-12.1,0-12.2c0-0.1-0.1-0.2-0.2-0.2h-3.2c-1.2,0-1.6,1.8-1.8,2.8
				c0,0.1-0.1,0.1-0.2,0.1c-0.1,0-0.2,0-0.2-0.2c0-0.4,0.4-3.6,0.4-4.1c0-0.1,0.1-0.1,0.2-0.1h0.2c0,0,0.1,0,0.1,0.1
				c0.1,0.3,0.4,0.4,0.6,0.4h10.3c0.3,0,0.6-0.1,0.6-0.4c0-0.1,0-0.1,0.1-0.1h0.2c0,0,0.2,0.1,0.2,0.1c0.1,0.5,0.4,3.7,0.4,4.1
				c0,0.1-0.1,0.2-0.2,0.2c-0.1,0-0.2,0-0.2-0.1c-0.2-1-0.5-2.8-1.8-2.8h-3.2c-0.1,0-0.2,0.1-0.2,0.2c0,0.1,0,12.2,0,12.2
				c0,0.7,0,1.2,0.1,1.6c0.2,0.5,0.9,0.8,1.4,0.8c0.3,0,0.9,0,1.2,0c0.1,0,0.2,0.1,0.2,0.2c0,0.1-0.1,0.2-0.2,0.2H56z"/>
			<path class="st1" d="M22.9,79.6c-0.2,0-0.3,0.2-0.4,0.3c-1.3,1.8-3,2.9-5.5,2.9c-3.7,0-7.1-3.2-7.1-8.1c0-5.2,3.3-7.4,6.8-7.4
				c2.5,0,4.6,1.3,5.6,3.8c0.1,0.1,0.2,0.3,0.3,0.2c0.1,0,0.2-0.2,0.2-0.4c0-0.9-0.1-2.7-0.2-3.1c0-0.1-0.1-0.2-0.2-0.1
				c-0.1,0-0.4,0.1-0.5,0c-1.1-0.5-3.3-1-5.3-1c-6.1,0-9.1,4.3-9.1,8.6c0,4.5,3.5,8.3,9,8.3c1.2,0,3.4-0.4,4.4-0.7
				c0.1,0,0.3,0,0.4,0c0.1,0.1,0.2,0.1,0.4-0.2c0-0.1,0.8-1.7,1.3-2.7C23.1,79.8,23.1,79.7,22.9,79.6z"/>
		</g>
	</g>
</g>
</svg>
