<svg xmlns="http://www.w3.org/2000/svg" height="800" width="1200" viewBox="-368.7 -299.5 3195.4 1797"><path d="M149 830.117h56.508v34.935h1.284C224.772 840.468 250.457 823 287.7 823c68.709 0 114.3 55.638 114.3 141.037 0 86.045-44.95 140.39-114.3 140.39-36.601 0-61.002-13.587-78.982-38.171h-1.284V1195h-57.792V830.117zm195 135.316C344 911.951 323.364 872 276.935 872 227.28 872 206 913.884 206 965.433c0 52.194 22.57 89.567 72.87 89.567 41.27 0 65.13-34.796 65.13-89.567zm155.399-98.602h1.298c19.466-27.12 42.825-41.972 80.46-41.972 55.804 0 90.843 37.452 90.843 94.275V1098h-58.399V926.237c0-30.994-19.466-50.366-51.91-50.366-35.688 0-62.292 27.12-62.292 65.864V1098H441V728h58.399zM880 1062.772c-14.786 20.763-37.929 40.228-82.286 40.228-51.428 0-88.714-26.602-88.714-78.51 0-60.99 47.571-77.21 108.643-86.295C857.5 931.707 880 928.463 880 904.455c0-22.708-18-36.983-50.143-36.983-35.357 0-52.714 14.275-54 45.419h-55.286C721.857 864.228 755.286 824 829.214 824c71.357 0 108 29.847 108 92.135v116.79c0 19.466 3.857 27.252 22.5 24.008H961v37.632c-5.786 3.244-13.5 5.84-27 5.84-32.143.649-48.857-10.382-54-37.633zm2-62.276V958c-13.029 7.845-33.223 13.076-52.766 16.998C790.8 983.498 768 990.69 768 1022.071c0 29.42 19.543 37.92 44.949 37.92 46.251.653 69.051-31.382 69.051-59.495zm169.453-126.474h1.298c16.222-28.52 37.636-46.022 71.378-46.022 7.787 0 12.329.648 16.871 1.945v53.151h-1.298c-3.893-1.296-8.435-1.296-14.275-1.296-40.231 0-72.027 27.224-72.027 78.431V1097H995V829.945h57.102v44.077zM1169 830.478h56.539V867.4h1.285c14.777-24.615 41.761-43.4 77.098-43.4 32.767 0 59.11 18.137 71.316 47.286h1.285c17.348-29.797 46.902-47.286 80.311-47.286 52.042 0 84.166 34.331 84.166 91.333V1098h-58.466V923.106c0-31.74-17.99-48.581-43.69-48.581-31.481 0-55.253 25.91-55.253 63.48v159.347h-57.824V922.46c0-31.74-16.705-48.582-42.404-48.582-30.197 0-55.897 25.91-55.897 63.48v159.348h-57.824V830.478zm582.036 232.294c-14.962 20.763-38.38 40.228-83.266 40.228-52.04 0-89.77-26.602-89.77-78.51 0-60.99 48.138-77.21 109.936-86.295 40.332-6.488 63.1-9.732 63.1-33.74 0-22.708-18.215-36.983-50.74-36.983-35.778 0-53.342 14.275-54.643 45.419h-55.944c1.301-48.663 35.128-88.891 109.936-88.891 72.207 0 109.286 29.847 109.286 92.135v116.79c0 19.466 3.903 27.252 22.768 24.008H1833v37.632c-5.855 3.244-13.66 5.84-27.321 5.84-31.875.649-49.44-10.382-54.643-37.633zm-.036-62.276V958c-12.914 7.845-32.931 13.076-52.303 16.998-38.097 8.5-60.697 15.691-60.697 47.073 0 29.42 19.371 37.92 44.554 37.92 45.846.653 68.446-31.382 68.446-59.495zm101-36.999C1852 884.508 1902.042 823 1981.595 823c66.08 0 107.782 38.2 116.763 95.176h-57.74c-5.132-28.488-26.304-47.912-57.74-47.912-48.117 0-73.138 38.2-73.138 92.586 0 53.739 24.38 92.586 72.496 92.586 34.645 0 56.458-18.776 60.307-53.091H2099c-4.49 59.565-47.475 101.65-116.122 101.65-79.553.647-130.878-61.508-130.878-140.498zm280.463 231.106v-47.838h1.288c6.437 1.94 14.162 3.232 23.175 3.232 21.888 0 32.188-7.757 39.914-29.737l10.944-30.383L2108 830h61.801l48.927 138.989c8.369 23.272 17.381 55.595 17.381 55.595h1.288s8.369-32.323 16.738-55.595L2301.13 830H2361l-106.865 293.493c-19.957 56.888-39.914 74.342-85.621 74.342-13.52.647-24.463-.646-36.05-3.232zm-53.262-776.325c9.434 43.714 34.306 59.142 85.766 59.142 45.457 0 70.33-16.285 70.33-41.999 0-36.856-33.45-39.428-102.92-57.428-81.48-21.428-133.797-39.427-157.812-56.57-45.456-31.714-66.898-77.142-66.898-134.57C1907.667 73.714 1996.865 0 2152.103 0c150.949 0 239.289 65.999 249.58 184.283h-177.536c-6.004-35.143-30.019-51.428-75.475-51.428-39.453 0-59.18 12.857-59.18 39.428 0 30.856 30.02 36.856 86.625 51.427 72.902 18.857 130.366 30 167.245 55.714 51.46 34.285 74.617 76.284 74.617 136.283 0 126.855-90.912 201.425-260.73 201.425-156.954 0-248.724-73.713-260.732-198.854zm-689.565-44.57c-10.292 153.426-111.497 243.424-279.6 243.424-186.971 0-300.183-118.284-300.183-308.566C809.853 117.426 924.78 0 1106.606 0c169.818 0 269.307 85.713 280.457 237.424h-178.395c-5.146-59.141-38.595-90.855-99.49-90.855-73.759 0-109.78 53.999-109.78 161.997 0 106.284 39.452 161.14 115.784 161.14 56.606 0 92.628-34.285 98.632-96.855h175.822zm-40.31-356.565h191.26l98.631 377.136L1744.71 17.143h184.399l-196.406 584.56h-186.971zM208.628.857c-22.3 0-44.6 8.571-60.895 25.714L25.087 149.141c-33.45 33.427-33.45 88.283 0 122.569l346.497 345.422 345.64-346.28c33.45-33.428 33.45-88.284 0-122.569L594.579 26.571C577.425 9.428 555.125.857 533.684.857c-22.3 0-44.599 8.571-61.752 25.714L371.584 127.712 270.38 26.571C253.226 9.428 230.927.857 208.628.857zM2418.5 832c-23.185 0-39.5-16.809-39.5-39.5 0-23.532 18.462-39.5 39.5-39.5s39.5 15.548 39.5 39.5c0 23.952-18.462 39.5-39.5 39.5zm.5-72c-17.653 0-31 13.506-31 32.5 0 18.15 12.056 32.5 31 32.5 17.222 0 31-13.506 31-32.5s-13.778-32.5-31-32.5zm-7.684 54.587H2404V772h16.785c10.76 0 16.354 3.721 16.354 12.404 0 7.856-4.734 11.163-11.62 11.577L2438 815h-8.177l-11.62-18.192h-6.887zm7.866-22.587c5.318 0 9.818-.433 9.818-6.933 0-5.634-4.91-6.067-9.41-6.067H2411v13z" fill="#C00"/></svg>