<svg enable-background="new 0 0 400 400" height="400" viewBox="0 0 400 400" width="400" xmlns="http://www.w3.org/2000/svg"><path d="m127.596 24.142c.378.378 3.781 2.27 7.561 4.536 31.375 19.279 54.811 44.606 68.796 74.089 4.158 9.072 9.072 23.437 10.962 32.887 7.938 39.313-9.45 85.053-50.651 134.19-12.853 15.5-32.507 34.399-49.14 48.007-26.082 20.788-63.128 43.093-93.746 56.322-2.268 1.135-3.401 1.514-3.401 1.892 1.133 0 18.9-5.671 29.861-9.45 50.275-17.391 95.257-41.957 130.032-71.442 10.207-8.693 25.704-24.571 33.265-34.021 19.278-23.814 30.618-47.25 35.532-72.955 1.89-9.828 2.268-27.217 1.135-37.421-6.428-47.251-40.446-87.697-96.768-116.047-9.828-4.916-26.461-12.099-23.438-10.587z" fill="#231f20"/><g fill="#8b181b"><path d="m369.139 76.684c-34.396 3.025-69.551 11.34-99.036 23.058-10.961 4.536-30.618 13.231-32.129 14.743-.757.378-1.89 1.513-3.403 1.89-1.133.756-3.024 1.513-4.157 2.268-1.135.757-2.646 1.514-3.403 1.892-.754.379-4.914 3.022-9.071 5.669-45.36 30.239-66.905 69.175-56.322 102.818 1.889 5.666 6.047 15.495 6.803 15.116.757-.374 11.719-17.387 15.5-23.431 3.022-5.293 3.022-5.293 3.022-11.343 0-10.585 2.268-20.036 7.182-30.24 14.364-29.106 46.872-55.945 93.368-76.357 25.703-11.339 58.211-20.411 87.696-24.946 3.779-.757 6.804-1.136 6.804-1.136.377-1.134-2.647-.758-12.854-.001z"/><path d="m222.853 270.6c-2.646 3.022-6.047 6.807-7.938 9.071-3.779 4.158-4.158 3.779 4.914 7.563 7.938 3.4 17.768 6.802 26.839 9.45l7.182 1.887 6.804-7.185c3.782-4.152 6.805-7.558 7.183-7.937 0-.378-3.4-1.887-7.561-3.022-9.45-3.4-19.654-7.94-26.461-11.715-3.022-1.514-5.29-3.027-5.668-3.027-.758-.377-3.027 1.892-5.294 4.915z"/></g></svg>