<?xml version="1.0" encoding="utf-8"?>
<!-- Generator: Adobe Illustrator 19.0.0, SVG Export Plug-In . SVG Version: 6.00 Build 0)  -->
<svg version="1.1" id="Layer_1" xmlns="http://www.w3.org/2000/svg" xmlns:xlink="http://www.w3.org/1999/xlink" x="0px" y="0px"
	 viewBox="0 0 500 500" style="enable-background:new 0 0 500 500;" xml:space="preserve">
<style type="text/css">
	.st0{fill:#231F20;}
	.st1{fill:#8B181B;}
	.st2{enable-background:new    ;}
	.st3{font-family:'ArialMT';}
	.st4{font-size:7.4675px;}
</style>
<g id="XMLID_1_">
	<path id="path8" class="st0" d="M99.1,203.5c0.1,0.1,1,0.6,2,1.2c8.3,5.1,14.5,11.8,18.2,19.6c1.1,2.4,2.4,6.2,2.9,8.7
		c2.1,10.4-2.5,22.5-13.4,35.5c-3.4,4.1-8.6,9.1-13,12.7c-6.9,5.5-16.7,11.4-24.8,14.9c-0.6,0.3-0.9,0.4-0.9,0.5
		c0.3,0,5-1.5,7.9-2.5c13.3-4.6,25.2-11.1,34.4-18.9c2.7-2.3,6.8-6.5,8.8-9c5.1-6.3,8.1-12.5,9.4-19.3c0.5-2.6,0.6-7.2,0.3-9.9
		c-1.7-12.5-10.7-23.2-25.6-30.7C102.7,205,98.3,203.1,99.1,203.5z"/>
	<path id="path10" class="st0" d="M176.7,227.7c-1.5,0.1-3.4,0.1-4.2,0.2l-1.6,0v24v24h8.7c5,0,9.5-0.1,10.4-0.2
		c3.7-0.4,7.9-1.6,10.3-2.9c5.5-3,9.6-8.9,11.1-16.1c0.5-2.4,0.7-7.5,0.3-10.1c-0.9-6.1-2.9-10.4-6.4-13.9c-2.8-2.7-5.1-3.9-9.6-4.7
		C194.1,227.7,181.5,227.5,176.7,227.7z M191.5,231.7c3.7,0.6,5.9,1.6,8.2,4c3.2,3.2,5,7.5,5.6,13.3c0.5,5.7-1,12.3-3.9,16.5
		c-2.5,3.7-6.2,5.5-12.5,6.3c-1.1,0.1-7.5,0.2-12.1,0.2c-0.3,0-0.3-1.1-0.3-20.2v-20.2l1.6-0.1C183.8,231.4,190,231.5,191.5,231.7z"
		/>
	<path id="path12" class="st0" d="M266.5,227.8c-2.6,0.1-5.3,0.1-5.8,0.1l-1.1,0v24v24h2.9h2.9v-10.2v-10.2l3.4,0c1.8,0,3.5,0,3.6,0
		c0.2,0,2.5,3.3,7.1,10.3c3.8,5.7,6.9,10.4,7.1,10.6c0.3,0.3,0.3,0.3,3.2-0.1c1.6-0.2,3-0.4,3-0.4c0.1,0-3.3-4.9-7.4-10.7
		c-4.1-5.9-7.5-10.7-7.5-10.8c0-0.1,0.5-0.2,1-0.3c3.2-0.7,7.4-3.9,8.9-6.7c2.2-4.1,2.2-9,0-13.4c-0.9-1.8-2.9-3.8-4.5-4.6
		C280.4,227.9,276.7,227.5,266.5,227.8z M276.6,232c1.6,0.3,3.4,1.3,4.3,2.1c0.9,0.9,1.8,2.5,2.1,4c0.1,0.7,0.2,2,0.2,3.3
		c0,1.7-0.1,2.4-0.4,3.5c-1.3,4.5-4.6,6.5-11.3,6.7c-1.4,0.1-3.3,0-4.3,0l-1.8-0.1v-9.7V232l0.4-0.1
		C267.1,231.6,274.9,231.7,276.6,232z"/>
	<path id="path14" class="st0" d="M307.1,227.6c-0.1,0.1-5.3,0.3-6.8,0.3h-0.6v24v24h8.4c4.6,0,9.2-0.1,10.2-0.2
		c4-0.4,7.9-1.4,10.6-2.8c5.6-2.8,9.8-8.8,11.3-15.9c1.3-6,0.5-13.1-2-18.6c-2.2-4.8-6-8.3-10.6-9.7c-3-0.9-3.5-1-12.3-1.1
		C310.8,227.6,307.1,227.6,307.1,227.6z M320.8,231.7c3.5,0.6,6.4,2.1,8.3,4.3c5.8,6.5,6.9,18.5,2.5,27.4c-2.4,4.7-5.7,7-11.8,8.2
		c-1.6,0.3-2.6,0.4-8.1,0.4l-6.3,0.1v-20.2v-20.2l1.5-0.1c0.8,0,3.9-0.1,6.9-0.1C318.1,231.4,319.6,231.5,320.8,231.7z"/>
	<path id="path16" class="st0" d="M230.1,231.7c-2.5,5.6-16.3,36.9-18,40.6c-0.8,1.7-1.4,3.2-1.4,3.3c0,0.1,1.2,0.1,2.9,0.1l2.9-0.1
		l3-7.7l3-7.7h9.9h9.9l2.7,7.7l2.7,7.7h3.1c1.7,0,3.1-0.1,3-0.1c0-0.1-4-10.8-8.8-23.9l-8.8-23.8l-2.3-0.1l-2.3-0.1L230.1,231.7z
		 M237,245.2c2.1,5.9,3.9,10.8,3.9,11c0.1,0.3-0.4,0.3-8.3,0.3c-8,0-8.4,0-8.3-0.3c0.8-2.1,8.8-21.8,8.9-21.8
		C233.1,234.5,234.9,239.4,237,245.2z"/>
	<path id="path18" class="st0" d="M346.8,251.9v24h14.8h14.8v-2.2v-2.2l-11.9,0l-11.9-0.1v-9.3c0-5.1,0-9.4,0-9.5
		c0-0.1,3.6-0.2,10.5-0.2h10.5v-2.1v-2.1H363c-5.8,0-10.5,0-10.6-0.1c0,0-0.1-3.7,0-8.1l0-8h11.9h11.9V230v-2.1h-14.7h-14.7V251.9z"
		/>
	<path id="path20" class="st0" d="M383.4,251.9v24h2.5h2.6l-0.1-3.6c-0.2-5.5-0.3-8.5-0.4-12.2c-0.1-1.8-0.1-4.4-0.2-5.8
		c-0.2-7-0.5-17.3-0.4-17.3c0,0,7.4,8.8,16.4,19.7c9,10.8,16.4,19.8,16.5,19.9c0.2,0.2,1.9-0.4,2.4-0.7c0.2-0.1,0.2-5.1,0.2-24
		v-23.9h-2.6h-2.6l0.1,2.4c0.1,1.3,0.1,4,0.2,5.9c0.1,1.9,0.1,4.7,0.2,6.1c0.1,1.4,0.1,4,0.2,5.7c0.1,1.7,0.2,5.8,0.3,9
		c0.2,7,0.2,8.6,0.2,8.6c0,0-7-8.4-15.6-18.8l-15.5-18.9h-2.1h-2.1V251.9z"/>
	<path id="path8-7" class="st1" d="M163,217.4c-9.1,0.8-18.4,3-26.2,6.1c-2.9,1.2-8.1,3.5-8.5,3.9c-0.2,0.1-0.5,0.4-0.9,0.5
		c-0.3,0.2-0.8,0.4-1.1,0.6c-0.3,0.2-0.7,0.4-0.9,0.5c-0.2,0.1-1.3,0.8-2.4,1.5c-12,8-17.7,18.3-14.9,27.2c0.5,1.5,1.6,4.1,1.8,4
		c0.2-0.1,3.1-4.6,4.1-6.2c0.8-1.4,0.8-1.4,0.8-3c0-2.8,0.6-5.3,1.9-8c3.8-7.7,12.4-14.8,24.7-20.2c6.8-3,15.4-5.4,23.2-6.6
		c1-0.2,1.8-0.3,1.8-0.3C166.5,217.1,165.7,217.2,163,217.4z"/>
	<path id="path10-4" class="st1" d="M124.3,268.7c-0.7,0.8-1.6,1.8-2.1,2.4c-1,1.1-1.1,1,1.3,2c2.1,0.9,4.7,1.8,7.1,2.5l1.9,0.5
		l1.8-1.9c1-1.1,1.8-2,1.9-2.1c0-0.1-0.9-0.5-2-0.8c-2.5-0.9-5.2-2.1-7-3.1c-0.8-0.4-1.4-0.8-1.5-0.8
		C125.5,267.3,124.9,267.9,124.3,268.7z"/>
	<g id="XMLID_2_" class="st2">
		<g id="XMLID_12_">
			<text id="XMLID_36_" transform="matrix(1.0179 0 0 1 424.3903 277.0233)" class="st3 st4">®</text>
		</g>
	</g>
</g>
</svg>
