<?xml version="1.0" encoding="utf-8"?>
<!-- Generator: Adobe Illustrator 16.0.0, SVG Export Plug-In . SVG Version: 6.00 Build 0)  -->
<!DOCTYPE svg PUBLIC "-//W3C//DTD SVG 1.1//EN" "http://www.w3.org/Graphics/SVG/1.1/DTD/svg11.dtd">
<svg version="1.1" id="Layer_1" xmlns="http://www.w3.org/2000/svg" xmlns:xlink="http://www.w3.org/1999/xlink" x="0px" y="0px"
	 width="400px" height="400px" viewBox="0 0 400 400" enable-background="new 0 0 400 400" xml:space="preserve">
<g>
	<path id="path8" fill="#231F20" d="M127.596,24.142c0.378,0.378,3.781,2.27,7.561,4.536c31.375,19.279,54.811,44.606,68.796,74.089
		c4.158,9.072,9.072,23.437,10.962,32.887c7.938,39.313-9.45,85.053-50.651,134.19c-12.853,15.5-32.507,34.399-49.14,48.007
		c-26.082,20.788-63.128,43.093-93.746,56.322c-2.268,1.135-3.401,1.514-3.401,1.892c1.133,0,18.9-5.671,29.861-9.45
		c50.275-17.391,95.257-41.957,130.032-71.442c10.207-8.693,25.704-24.571,33.265-34.021c19.278-23.814,30.618-47.25,35.532-72.955
		c1.89-9.828,2.268-27.217,1.135-37.421c-6.428-47.251-40.446-87.697-96.768-116.047C141.206,29.813,124.573,22.63,127.596,24.142z"
		/>
	<path id="path8-7" fill="#8B181B" d="M369.139,76.684c-34.396,3.025-69.551,11.34-99.036,23.058
		c-10.961,4.536-30.618,13.231-32.129,14.743c-0.757,0.378-1.89,1.513-3.403,1.89c-1.133,0.756-3.024,1.513-4.157,2.268
		c-1.135,0.757-2.646,1.514-3.403,1.892c-0.754,0.379-4.914,3.022-9.071,5.669c-45.36,30.239-66.905,69.175-56.322,102.818
		c1.889,5.666,6.047,15.495,6.803,15.116c0.757-0.374,11.719-17.387,15.5-23.431c3.022-5.293,3.022-5.293,3.022-11.343
		c0-10.585,2.268-20.036,7.182-30.24c14.364-29.106,46.872-55.945,93.368-76.357c25.703-11.339,58.211-20.411,87.696-24.946
		c3.779-0.757,6.804-1.136,6.804-1.136C382.37,75.551,379.346,75.927,369.139,76.684z"/>
	<path id="path10-4" fill="#8B181B" d="M222.853,270.6c-2.646,3.022-6.047,6.807-7.938,9.071c-3.779,4.158-4.158,3.779,4.914,7.563
		c7.938,3.4,17.768,6.802,26.839,9.45l7.182,1.887l6.804-7.185c3.782-4.152,6.805-7.558,7.183-7.937c0-0.378-3.4-1.887-7.561-3.022
		c-9.45-3.4-19.654-7.94-26.461-11.715c-3.022-1.514-5.29-3.027-5.668-3.027C227.389,265.308,225.12,267.577,222.853,270.6z"/>
</g>
</svg>
