<svg enable-background="new 0 0 270.043 270.043" height="270.043" viewBox="0 0 270.043 270.043" width="270.043" xmlns="http://www.w3.org/2000/svg"><g clip-rule="evenodd" fill-rule="evenodd"><path d="m0 0h270.043v270.043h-270.043z"/><g fill="#fff"><path d="m82.306 55.845c6.929 0 13.086-.296 19.204.072 8.431.508 14.601 6.272 15.072 15.744.708 14.25.801 28.597-.024 42.833-.617 10.641-7.271 15.679-18.088 15.883-4.321.081-8.659.193-12.96-.115-1.124-.081-3.063-1.678-3.069-2.589-.17-23.742-.135-47.485-.135-71.828zm9.388 7.975v58.008c12.74 1.542 15.846-.93 16.398-13.101.323-7.13.4-14.276.38-21.416-.013-4.645-.17-9.313-.67-13.928-.771-7.105-3.67-9.522-10.763-9.562-1.648-.008-3.297-.001-5.345-.001z"/><path d="m162.032 129.798c-9.201 1.521-9.258 1.482-10.924-6.884-2.022-10.161-2.022-10.161-12.153-10.16-2.152 0-4.305 0-6.896 0-.744 3.548-1.493 6.907-2.149 10.285-1.558 8.015-1.54 8.019-10.77 6.842 5.688-24.566 11.361-49.062 17.091-73.81h8.807c5.664 24.576 11.325 49.136 16.994 73.727zm-14.634-25.311c-2.219-11.029-4.308-21.411-6.396-31.793-.289.012-.579.023-.868.035-2.126 10.48-4.253 20.962-6.443 31.758z"/><path d="m179.907 130.116c-4.276 0-6.865 0-10.807 0 5.106-26.253-5.58-49.546-12.639-73.484 8.526-2.236 9.379-1.727 11.462 6.279 1.998 7.68 4.047 15.346 6.437 24.393 2.391-8.965 4.414-16.498 6.407-24.04 2.199-8.324 2.188-8.328 11.673-6.967-6.994 24.023-18.096 47.284-12.533 73.819z"/><path d="m69.162 204.52c4.563 0 8.948-.003 13.333 0 7.084.005 7.084.006 6.157 8.046-2.181 0-4.551.407-6.689-.123-1.855-.46-3.448-1.981-5.695-2.289.481.443.961.887 2.039 1.881-6.461 0-12.356 0-19.34 0 .476-3.167.501-6.617 1.543-9.727 5.653-16.865 11.563-33.644 17.364-50.459.585-1.696 1.037-3.438 1.796-5.982-6.502 0-12.447 0-18.661 0 0-2.698 0-5.09 0-7.729h28.481c-.571 3.732-.586 7.256-1.682 10.402-5.343 15.346-11.043 30.567-16.446 45.894-1.078 3.057-1.414 6.378-2.2 10.086z"/><path d="m105.045 179.026v24.908c1.554.351 3.084.695 4.692 1.059-3.346 3.674-5.362 3.864-7.915 1.148-1.404 2.091-2.867 4.269-4.33 6.446-.39-.224-.779-.448-1.168-.672 0-24.461 0-48.923 0-73.713h28.017v7.512c-6.26 0-12.475 0-19.116 0v25.22c2.49 0 4.807.249 7.049-.054 4.002-.541 5.07 2.35 5.152 5.002.031.997-3.043 2.566-4.909 3.021-2.177.53-4.582.123-7.472.123z"/><path d="m149.413 137.966c10.527 1.434 14.382 5.081 15.642 14.284.47 3.43.455 6.935.516 10.408.112 6.378-7.643 12.279-12.387 12.871-.897.112-1.896-.583-2.848-.906.455-.927.677-2.13 1.4-2.738 7.368-6.191 6.967-19.097-.282-25.506-1.674-1.481-1.343-5.227-2.041-8.413z"/><path d="m139.604 170.623c1.352.664 2.782 2.008 4.041 1.862 3.616-.419 4.957 1.751 6.18 4.381.798 1.717 1.836 3.363 2.34 5.161.311 1.106-.18 2.438-1.043 3.936-1.679-6.115-5.67-6.103-10.741-4.848.598 6.81-.837 12.912-8.448 16.019 0-10.631 0-20.688 0-31.824 3.202 2.213 5.468 3.779 7.733 5.346z"/><path d="m181.241 211.628c-2.066-1.523-5.186-2.758-6.473-5.029-1.774-3.133-2.456-7-3.066-10.643-.627-3.735-.604-7.578-.859-11.309 3.605-.799 8.329 2.453 8.942 5.841.356 1.964.826 3.94.879 5.921.11 4.144 1.327 8.166 5.45 9.06 3.092.67 6.665-.88 11.271-1.65 1.257 1.401 1.224 2.912-2.722 3.835-4.296 1.004-8.48 2.487-13.422 3.974z"/><path d="m139.665 170.655c-.354-.746-.51-1.88-1.093-2.179-5.991-3.076-4.948-8.23-4.811-13.63.139-5.43-1.139-10.896-1.795-16.342 4.432-.204 9.005-.813 13.519-.516 4.87.32 3.161 4.286 3.341 7.622-2.729.214-5.291.415-8.142.639-.38 8.223-.751 16.271-1.102 24.346.022.028.083.06.083.06z"/><path d="m209.183 175.62c-7.32-.639-9.188-2.28-9.13-7.877.065-6.342.579-12.678.888-18.825 4.64-2.063 6.673-.464 6.95 3.566.522 7.571.857 15.153 1.292 23.136z"/><path d="m175.159 143.475c7.072-7.854 16.162-8.836 23.708-3.4-.551 3.27-1.071 6.363-1.725 10.246-3.658-5.389-7.691-6.662-13.444-4.372-2.087.829-5.427-1.485-8.539-2.474z"/><path d="m164.271 205.116c-3.32-1.621-8.33-.271-9.594-5.466-1.072-4.411-4.938-8.759-2.282-13.499.526-.065 1.053-.131 1.579-.195 1.392 4.976 2.784 9.951 4.176 14.927.52-.141 1.039-.28 1.56-.421-1.645-7.479-3.433-14.92-7.64-22.028 2.99-1.366 5.608-2.562 8.226-3.757.379.413.757.827 1.136 1.24-1.622.838-3.244 1.676-4.781 2.47 3.009 9.061 5.767 17.363 8.524 25.667-.302.353-.603.708-.904 1.062z"/><path d="m139.897 193.366v18.805c-2.644 0-5.307 0-7.931 0-2.688-8.497.159-14.606 7.931-18.805z"/><path d="m170.028 182.406c0-5.628 0-10.888 0-16.475 1.716-.418 3.414-.831 5.034-1.225 6.039 10.698 4.417 16.797-5.034 17.7z"/><path d="m183.802 149c-2.629 3.516-4.751 6.002-6.429 8.758-.747 1.228-.601 3-.932 4.944-1.405.122-3.122.272-5.622.49 1.044-6.23 1.967-11.738 3.006-17.936 3.584 1.346 5.985 2.246 9.977 3.744z"/><path d="m124.318 212.569c-3.357 0-6.6.526-9.535-.197-1.768-.436-3.055-2.817-4.559-4.324 1.441-1.132 2.762-2.972 4.351-3.243 3.046-.521 6.245-.152 9.743-.152z"/><path d="m208.731 194.603c-.819 3.917-1.381 7.428-2.37 10.814-.277.948-1.781 2.063-2.777 2.118-.876.05-2.077-1.11-2.688-2.032-.801-1.209-1.311-2.669-1.687-4.089-1.274-4.804.075-6.375 4.917-6.131 1.233.063 2.489-.35 4.605-.68z"/><path d="m206.97 186.43c-2.882.512-5.077.902-7.953 1.413 0-3.981 0-7.868 0-11.954 2.687.591 5.257 1.155 7.953 1.748z"/><path d="m167.496 212.199c-9.241 1.06-9.32 1.007-10.916-8.104 3.675 3.478 10.771-.108 10.916 8.104z"/><path d="m184.03 212.835c5.668-1.243 11.336-2.485 17.588-3.855-3.336 5.591-9.651 7.179-17.588 3.855z"/><path d="m109.913 212.366c-2.763 0-5.526 0-8.272 0 .827-2.986 1.369-3.475 5.617-3.23 1.112.064 2.145 1.509 3.213 2.318-.186.305-.372.609-.558.912z"/><path d="m211.077 189.802c-2.591 1.575-3.783 2.805-5.079 2.927-1.025.097-2.178-1.168-3.274-1.828.924-1.125 1.695-2.938 2.813-3.186 1.199-.266 2.726.94 5.54 2.087z"/></g><path d="m91.694 63.82c2.047 0 3.697-.007 5.346.002 7.092.039 9.992 2.456 10.763 9.562.5 4.614.657 9.283.67 13.928.02 7.14-.057 14.286-.38 21.416-.552 12.171-3.659 14.643-16.398 13.101-.001-19.083-.001-38.222-.001-58.009z"/><path d="m147.398 104.487c-4.895 0-9.008 0-13.708 0 2.19-10.796 4.317-21.277 6.443-31.758.289-.012.579-.023.868-.035 2.09 10.382 4.179 20.764 6.397 31.793z"/></g></svg>