<?xml version="1.0" encoding="utf-8"?>
<!-- Generator: Adobe Illustrator 16.0.0, SVG Export Plug-In . SVG Version: 6.00 Build 0)  -->
<!DOCTYPE svg PUBLIC "-//W3C//DTD SVG 1.1//EN" "http://www.w3.org/Graphics/SVG/1.1/DTD/svg11.dtd">
<svg version="1.1" id="Layer_1" xmlns="http://www.w3.org/2000/svg" xmlns:xlink="http://www.w3.org/1999/xlink" x="0px" y="0px"
	 width="270.043px" height="270.043px" viewBox="0 0 270.043 270.043" enable-background="new 0 0 270.043 270.043"
	 xml:space="preserve">
<rect fill-rule="evenodd" clip-rule="evenodd" width="270.043" height="270.043"/>
<g>
	<path fill-rule="evenodd" clip-rule="evenodd" fill="#FFFFFF" d="M82.306,55.845c6.929,0,13.086-0.296,19.204,0.072
		c8.431,0.508,14.601,6.272,15.072,15.744c0.708,14.25,0.801,28.597-0.024,42.833c-0.617,10.641-7.271,15.679-18.088,15.883
		c-4.321,0.081-8.659,0.193-12.96-0.115c-1.124-0.081-3.063-1.678-3.069-2.589C82.271,103.931,82.306,80.188,82.306,55.845z
		 M91.694,63.82c0,19.787,0,38.926,0,58.008c12.74,1.542,15.846-0.93,16.398-13.101c0.323-7.13,0.4-14.276,0.38-21.416
		c-0.013-4.645-0.17-9.313-0.67-13.928c-0.771-7.105-3.67-9.522-10.763-9.562C95.391,63.813,93.742,63.82,91.694,63.82z"/>
	<path fill-rule="evenodd" clip-rule="evenodd" fill="#FFFFFF" d="M162.032,129.798c-9.201,1.521-9.258,1.482-10.924-6.884
		c-2.022-10.161-2.022-10.161-12.153-10.16c-2.152,0-4.305,0-6.896,0c-0.744,3.548-1.493,6.907-2.149,10.285
		c-1.558,8.015-1.54,8.019-10.77,6.842c5.688-24.566,11.361-49.062,17.091-73.81c2.931,0,5.69,0,8.807,0
		C150.702,80.647,156.363,105.207,162.032,129.798z M147.398,104.487c-2.219-11.029-4.308-21.411-6.396-31.793
		c-0.289,0.012-0.579,0.023-0.868,0.035c-2.126,10.48-4.253,20.962-6.443,31.758C138.391,104.487,142.504,104.487,147.398,104.487z"
		/>
	<path fill-rule="evenodd" clip-rule="evenodd" fill="#FFFFFF" d="M179.907,130.116c-4.276,0-6.865,0-10.807,0
		c5.106-26.253-5.58-49.546-12.639-73.484c8.526-2.236,9.379-1.727,11.462,6.279c1.998,7.68,4.047,15.346,6.437,24.393
		c2.391-8.965,4.414-16.498,6.407-24.04c2.199-8.324,2.188-8.328,11.673-6.967C185.446,80.32,174.344,103.581,179.907,130.116z"/>
	<path fill-rule="evenodd" clip-rule="evenodd" fill="#FFFFFF" d="M69.162,204.52c4.563,0,8.948-0.003,13.333,0
		c7.084,0.005,7.084,0.006,6.157,8.046c-2.181,0-4.551,0.407-6.689-0.123c-1.855-0.46-3.448-1.981-5.695-2.289
		c0.481,0.443,0.961,0.887,2.039,1.881c-6.461,0-12.356,0-19.34,0c0.476-3.167,0.501-6.617,1.543-9.727
		c5.653-16.865,11.563-33.644,17.364-50.459c0.585-1.696,1.037-3.438,1.796-5.982c-6.502,0-12.447,0-18.661,0
		c0-2.698,0-5.09,0-7.729c9.383,0,18.463,0,28.481,0c-0.571,3.732-0.586,7.256-1.682,10.402
		c-5.343,15.346-11.043,30.567-16.446,45.894C70.284,197.491,69.948,200.812,69.162,204.52z"/>
	<path fill-rule="evenodd" clip-rule="evenodd" fill="#FFFFFF" d="M105.045,179.026c0,8.68,0,16.636,0,24.908
		c1.554,0.351,3.084,0.695,4.692,1.059c-3.346,3.674-5.362,3.864-7.915,1.148c-1.404,2.091-2.867,4.269-4.33,6.446
		c-0.39-0.224-0.779-0.448-1.168-0.672c0-24.461,0-48.923,0-73.713c9.237,0,18.456,0,28.017,0c0,2.387,0,4.629,0,7.512
		c-6.26,0-12.475,0-19.116,0c0,8.656,0,16.681,0,25.22c2.49,0,4.807,0.249,7.049-0.054c4.002-0.541,5.07,2.35,5.152,5.002
		c0.031,0.997-3.043,2.566-4.909,3.021C110.34,179.433,107.935,179.026,105.045,179.026z"/>
	<path fill-rule="evenodd" clip-rule="evenodd" fill="#FFFFFF" d="M149.413,137.966c10.527,1.434,14.382,5.081,15.642,14.284
		c0.47,3.43,0.455,6.935,0.516,10.408c0.112,6.378-7.643,12.279-12.387,12.871c-0.897,0.112-1.896-0.583-2.848-0.906
		c0.455-0.927,0.677-2.13,1.4-2.738c7.368-6.191,6.967-19.097-0.282-25.506C149.78,144.898,150.111,141.152,149.413,137.966z"/>
	<path fill-rule="evenodd" clip-rule="evenodd" fill="#FFFFFF" d="M139.604,170.623c1.352,0.664,2.782,2.008,4.041,1.862
		c3.616-0.419,4.957,1.751,6.18,4.381c0.798,1.717,1.836,3.363,2.34,5.161c0.311,1.106-0.18,2.438-1.043,3.936
		c-1.679-6.115-5.67-6.103-10.741-4.848c0.598,6.81-0.837,12.912-8.448,16.019c0-10.631,0-20.688,0-31.824
		c3.202,2.213,5.468,3.779,7.733,5.346L139.604,170.623z"/>
	<path fill-rule="evenodd" clip-rule="evenodd" fill="#FFFFFF" d="M181.241,211.628c-2.066-1.523-5.186-2.758-6.473-5.029
		c-1.774-3.133-2.456-7-3.066-10.643c-0.627-3.735-0.604-7.578-0.859-11.309c3.605-0.799,8.329,2.453,8.942,5.841
		c0.356,1.964,0.826,3.94,0.879,5.921c0.11,4.144,1.327,8.166,5.45,9.06c3.092,0.67,6.665-0.88,11.271-1.65
		c1.257,1.401,1.224,2.912-2.722,3.835C190.367,208.658,186.183,210.141,181.241,211.628z"/>
	<path fill-rule="evenodd" clip-rule="evenodd" fill="#FFFFFF" d="M139.665,170.655c-0.354-0.746-0.51-1.88-1.093-2.179
		c-5.991-3.076-4.948-8.23-4.811-13.63c0.139-5.43-1.139-10.896-1.795-16.342c4.432-0.204,9.005-0.813,13.519-0.516
		c4.87,0.32,3.161,4.286,3.341,7.622c-2.729,0.214-5.291,0.415-8.142,0.639c-0.38,8.223-0.751,16.271-1.102,24.346
		C139.604,170.623,139.665,170.655,139.665,170.655z"/>
	<path fill-rule="evenodd" clip-rule="evenodd" fill="#FFFFFF" d="M209.183,175.62c-7.32-0.639-9.188-2.28-9.13-7.877
		c0.065-6.342,0.579-12.678,0.888-18.825c4.64-2.063,6.673-0.464,6.95,3.566C208.413,160.055,208.748,167.637,209.183,175.62z"/>
	<path fill-rule="evenodd" clip-rule="evenodd" fill="#FFFFFF" d="M175.159,143.475c7.072-7.854,16.162-8.836,23.708-3.4
		c-0.551,3.27-1.071,6.363-1.725,10.246c-3.658-5.389-7.691-6.662-13.444-4.372C181.611,146.778,178.271,144.464,175.159,143.475z"
		/>
	<path fill-rule="evenodd" clip-rule="evenodd" fill="#FFFFFF" d="M164.271,205.116c-3.32-1.621-8.33-0.271-9.594-5.466
		c-1.072-4.411-4.938-8.759-2.282-13.499c0.526-0.065,1.053-0.131,1.579-0.195c1.392,4.976,2.784,9.951,4.176,14.927
		c0.52-0.141,1.039-0.28,1.56-0.421c-1.645-7.479-3.433-14.92-7.64-22.028c2.99-1.366,5.608-2.562,8.226-3.757
		c0.379,0.413,0.757,0.827,1.136,1.24c-1.622,0.838-3.244,1.676-4.781,2.47c3.009,9.061,5.767,17.363,8.524,25.667
		C164.873,204.407,164.572,204.762,164.271,205.116z"/>
	<path fill-rule="evenodd" clip-rule="evenodd" fill="#FFFFFF" d="M139.897,193.366c0,6.084,0,12.234,0,18.805
		c-2.644,0-5.307,0-7.931,0C129.278,203.674,132.125,197.565,139.897,193.366z"/>
	<path fill-rule="evenodd" clip-rule="evenodd" fill="#FFFFFF" d="M170.028,182.406c0-5.628,0-10.888,0-16.475
		c1.716-0.418,3.414-0.831,5.034-1.225C181.101,175.404,179.479,181.503,170.028,182.406z"/>
	<path fill-rule="evenodd" clip-rule="evenodd" fill="#FFFFFF" d="M183.802,149c-2.629,3.516-4.751,6.002-6.429,8.758
		c-0.747,1.228-0.601,3-0.932,4.944c-1.405,0.122-3.122,0.272-5.622,0.49c1.044-6.23,1.967-11.738,3.006-17.936
		C177.409,146.602,179.81,147.502,183.802,149z"/>
	<path fill-rule="evenodd" clip-rule="evenodd" fill="#FFFFFF" d="M124.318,212.569c-3.357,0-6.6,0.526-9.535-0.197
		c-1.768-0.436-3.055-2.817-4.559-4.324c1.441-1.132,2.762-2.972,4.351-3.243c3.046-0.521,6.245-0.152,9.743-0.152
		C124.318,207.282,124.318,209.647,124.318,212.569z"/>
	<path fill-rule="evenodd" clip-rule="evenodd" fill="#FFFFFF" d="M208.731,194.603c-0.819,3.917-1.381,7.428-2.37,10.814
		c-0.277,0.948-1.781,2.063-2.777,2.118c-0.876,0.05-2.077-1.11-2.688-2.032c-0.801-1.209-1.311-2.669-1.687-4.089
		c-1.274-4.804,0.075-6.375,4.917-6.131C205.359,195.346,206.615,194.933,208.731,194.603z"/>
	<path fill-rule="evenodd" clip-rule="evenodd" fill="#FFFFFF" d="M206.97,186.43c-2.882,0.512-5.077,0.902-7.953,1.413
		c0-3.981,0-7.868,0-11.954c2.687,0.591,5.257,1.155,7.953,1.748C206.97,180.372,206.97,183.281,206.97,186.43z"/>
	<path fill-rule="evenodd" clip-rule="evenodd" fill="#FFFFFF" d="M167.496,212.199c-9.241,1.06-9.32,1.007-10.916-8.104
		C160.255,207.573,167.351,203.987,167.496,212.199z"/>
	<path fill-rule="evenodd" clip-rule="evenodd" fill="#FFFFFF" d="M184.03,212.835c5.668-1.243,11.336-2.485,17.588-3.855
		C198.282,214.571,191.967,216.159,184.03,212.835z"/>
	<path fill-rule="evenodd" clip-rule="evenodd" fill="#FFFFFF" d="M109.913,212.366c-2.763,0-5.526,0-8.272,0
		c0.827-2.986,1.369-3.475,5.617-3.23c1.112,0.064,2.145,1.509,3.213,2.318C110.285,211.759,110.099,212.063,109.913,212.366z"/>
	<path fill-rule="evenodd" clip-rule="evenodd" fill="#FFFFFF" d="M211.077,189.802c-2.591,1.575-3.783,2.805-5.079,2.927
		c-1.025,0.097-2.178-1.168-3.274-1.828c0.924-1.125,1.695-2.938,2.813-3.186C206.736,187.449,208.263,188.655,211.077,189.802z"/>
	<path fill-rule="evenodd" clip-rule="evenodd" d="M91.694,63.82c2.047,0,3.697-0.007,5.346,0.002
		c7.092,0.039,9.992,2.456,10.763,9.562c0.5,4.614,0.657,9.283,0.67,13.928c0.02,7.14-0.057,14.286-0.38,21.416
		c-0.552,12.171-3.659,14.643-16.398,13.101C91.694,102.746,91.694,83.607,91.694,63.82z"/>
	<path fill-rule="evenodd" clip-rule="evenodd" d="M147.398,104.487c-4.895,0-9.008,0-13.708,0
		c2.19-10.796,4.317-21.277,6.443-31.758c0.289-0.012,0.579-0.023,0.868-0.035C143.091,83.076,145.18,93.458,147.398,104.487z"/>
</g>
</svg>
