<svg enable-background="new 5 -60.378 240 240" height="240" viewBox="5 -60.378 240 240" width="240" xmlns="http://www.w3.org/2000/svg"><path d="m.001 4.203h250v115.114h-250z" fill="none"/><path d="m4.939 9.273h240.125v104.732h-240.125z" fill="none"/><g fill="#80af97"><path d="m58.095 13.79h16.425v72.65h-16.425z"/><path d="m34.713 28.24h-6.993v45.292h6.993zm18.004 47.663-10.653 10.537h-29.065v-72.65h28.469l11.25 10.537z"/><path d="m119.49 41.652h-16.026v-14.184h-7.069v45.293h7.069v-17.328h16.026v20.47l-10.85 10.537h-16.922l-11.746-10.537v-51.576l10.75-10.537h17.918l10.85 10.537z"/><path d="m141.09 44.794h.199l10.751-31.004h16.823l-14.237 33.942 16.426 38.708h-17.82l-11.943-31.007h-.199v31.007h-16.424v-72.65h16.424z"/><path d="m224.59 13.79 11.549 10.537v12.867h-16.425v-9.726h-6.771v14.793l11.944 1.013 11.252 10.538v22.091l-10.75 10.537h-18.218l-10.651-10.537v-12.769h16.423v9.627h6.771v-15.2l-11.743-.91-11.451-10.541v-21.783l10.753-10.537z"/></g><g fill="#231f20"><path d="m59.924 16.442h16.427v72.649h-16.427z"/><path d="m36.545 30.892h-6.991v45.294h6.991zm18.004 47.662-10.651 10.537h-29.067v-72.649h28.471l11.248 10.536z"/><path d="m121.322 44.307h-16.026v-14.186h-7.067v45.292h7.067v-17.329h16.026v20.47l-10.848 10.537h-16.924l-11.746-10.537v-51.576l10.752-10.536h17.918l10.848 10.536z"/><path d="m142.924 47.447h.2l10.75-31.005h16.819l-14.232 33.943 16.426 38.706h-17.821l-11.942-31.007h-.2v31.007h-16.426v-72.649h16.426z"/><path d="m226.424 16.442 11.545 10.536v12.87h-16.421v-9.727h-6.771v14.794l11.946 1.012 11.246 10.538v22.089l-10.746 10.537h-18.222l-10.647-10.537v-12.77h16.423v9.629h6.771v-15.201l-11.748-.911-11.446-10.536v-21.787l10.75-10.536z"/></g><g fill="#fff"><path d="m58.986 14.8h16.425v72.648h-16.425z"/><path d="m35.604 29.249h-6.991v45.293h6.991zm18.007 47.664-10.653 10.535h-29.065v-72.648h28.469l11.25 10.538z"/><path d="m120.384 42.664h-16.028v-14.186h-7.068v45.293h7.068v-17.327h16.028v20.469l-10.852 10.535h-16.922l-11.744-10.535v-51.576l10.748-10.537h17.918l10.852 10.537z"/><path d="m141.98 45.804h.202l10.75-31.004h16.824l-14.235 33.942 16.427 38.706h-17.823l-11.943-31.004h-.202v31.004h-16.419v-72.648h16.419z"/><path d="m225.48 14.8 11.549 10.537v12.869h-16.424v-9.728h-6.765v14.794l11.943 1.012 11.246 10.538v22.091l-10.75 10.535h-18.213l-10.652-10.535v-12.767h16.426v9.625h6.765v-15.199l-11.744-.913-11.447-10.535v-21.787l10.751-10.537z"/></g><g fill="#231f20"><path d="m27.576 95.667 4.202 2.113v2.563h-5.979v-1.936h-2.461v2.944l4.345.199 4.095 2.092v4.423l-3.915 2.109h-6.626l-3.878-2.109v-2.563h5.979v1.933h2.461v-3.047l-4.272-.186-4.168-2.085v-4.337l3.912-2.113z"/><path d="m64.819 97.78-4.098-2.113h-6.422l-3.947 2.113v10.285l3.947 2.108h6.678l3.843-2.108zm-8.489.627h2.508v9.027h-2.508z"/><path d="m82.185 97.78-4.015-2.113h-10.258v14.512h5.979v-5.839h2.51v5.839h5.784v-5.839l-3-1.419 3-1.402zm-8.294.627h2.51v3.191h-2.51z"/><path d="m96.562 98.407h-3.374v11.772h-5.979v-11.772h-3.376v-2.74h12.729z"/><path d="m48.563 97.78-4.029-2.113h-9.907v14.512h5.979v-4.924h3.929l4.029-2.051zm-7.957.627h2.225v4.109h-2.225z"/><path d="m98.436 95.663h5.981v14.516h-5.981z"/><path d="m122.188 110.179h-4.978l-3.873-7.069h-.069v7.069h-5.636v-14.516h5.015l3.834 6.986h.074v-6.986h5.633z"/><path d="m139.32 101.114h-5.981v-2.707h-2.795v9.028h2.795v-2.084h-1.509v-2.743h7.49v5.457l-3.952 2.109h-6.636l-4.169-2.109v-10.285l3.984-2.113h6.715l4.058 2.113z"/><path d="m166.171 101.114h-5.982v-2.707h-2.798v9.028h2.798v-2.084h-1.507v-2.743h7.489v5.457l-3.952 2.109h-6.641l-4.165-2.109v-10.285l3.983-2.113h6.711l4.064 2.113z"/><path d="m200.518 97.78-4.097-2.113h-6.423l-3.952 2.113v10.285l3.952 2.108h6.678l3.842-2.108zm-8.491.627h2.508v9.027h-2.508z"/><path d="m218.027 97.78-4.096-2.113h-10.373v14.508h10.592l3.877-2.107zm-8.488.627h2.508v9.027h-2.508z"/><path d="m230.757 95.667 4.202 2.113v2.563h-5.977v-1.936h-2.461v2.944l4.347.199 4.091 2.092v4.423l-3.909 2.109h-6.632l-3.873-2.109v-2.563h5.976v1.933h2.461v-3.047l-4.271-.186-4.166-2.085v-4.337l3.91-2.113z"/><path d="m183.104 97.78-4.102-2.113h-6.418l-3.952 2.113v10.285l3.952 2.108h6.673l3.847-2.108zm-8.491.627h2.508v9.027h-2.508z"/></g><g fill="#80af97"><path d="m26.61 93.737 4.203 2.112v2.563h-5.98v-1.933h-2.461v2.94l4.347.202 4.094 2.092v4.421l-3.913 2.113h-6.629l-3.877-2.113v-2.559h5.978v1.932h2.461v-3.049l-4.27-.184-4.169-2.086v-4.339l3.914-2.112z"/><path d="m63.853 95.849-4.094-2.111h-6.422l-3.952 2.111v10.285l3.952 2.112h6.676l3.84-2.112zm-8.489.63h2.51v9.027h-2.51z"/><path d="m81.221 95.849-4.015-2.111h-10.26v14.515h5.981v-5.842h2.508v5.842h5.786v-5.842l-3.002-1.421 3.002-1.398zm-8.294.63h2.508v3.189h-2.508z"/><path d="m95.596 96.479h-3.374v11.772h-5.979v-11.772h-3.374v-2.742h12.727z"/><path d="m47.597 95.849-4.028-2.111h-9.908v14.515h5.981v-4.927h3.926l4.028-2.049zm-7.954.63h2.222v4.106h-2.222z"/><path d="m97.472 93.735h5.981v14.517h-5.981z"/><path d="m121.223 108.251h-4.979l-3.868-7.066h-.074v7.066h-5.633v-14.516h5.015l3.834 6.984h.071v-6.984h5.634z"/><path d="m138.354 99.187h-5.976v-2.708h-2.8v9.028h2.8v-2.085h-1.515v-2.739h7.491v5.451l-3.952 2.113h-6.634l-4.17-2.113v-10.285l3.988-2.112h6.71l4.058 2.112z"/><path d="m165.205 99.187h-5.98v-2.708h-2.797v9.028h2.797v-2.085h-1.51v-2.739h7.49v5.451l-3.952 2.113h-6.642l-4.164-2.113v-10.285l3.985-2.112h6.711l4.062 2.112z"/><path d="m199.551 95.849-4.096-2.111h-6.418l-3.952 2.111v10.285l3.952 2.112h6.673l3.841-2.112zm-8.488.63h2.508v9.027h-2.508z"/><path d="m217.063 95.849-4.096-2.111h-10.375v14.51h10.594l3.877-2.112zm-8.49.63h2.508v9.027h-2.508z"/><path d="m229.796 93.737 4.197 2.112v2.563h-5.975v-1.933h-2.461v2.94l4.345.202 4.091 2.092v4.421l-3.91 2.113h-6.626l-3.878-2.113v-2.559h5.978v1.932h2.461v-3.049l-4.273-.184-4.166-2.086v-4.339l3.909-2.112z"/><path d="m182.137 95.849-4.097-2.111h-6.422l-3.952 2.111v10.285l3.952 2.112h6.673l3.846-2.112zm-8.491.63h2.508v9.027h-2.508z"/></g><g fill="#fff"><path d="m27.065 94.521 4.203 2.107v2.564h-5.979v-1.933h-2.459v2.94l4.344.202 4.094 2.09v4.424l-3.913 2.109h-6.626l-3.88-2.109v-2.561h5.981v1.934h2.459v-3.053l-4.27-.179-4.17-2.089v-4.339l3.914-2.107z"/><path d="m64.311 96.628-4.098-2.107h-6.423l-3.947 2.107v10.286l3.947 2.11h6.678l3.843-2.11zm-8.49.631h2.508v9.028h-2.508z"/><path d="m81.676 96.628-4.015-2.107h-10.258v14.51h5.979v-5.84h2.505v5.84h5.789v-5.84l-3-1.422 3-1.399zm-8.294.631h2.505v3.19h-2.505z"/><path d="m96.053 97.259h-3.374v11.771h-5.981v-11.771h-3.376v-2.738h12.731z"/><path d="m48.05 96.628-4.024-2.107h-9.908v14.51h5.979v-4.926h3.929l4.024-2.047zm-7.952.631h2.222v4.107h-2.222z"/><path d="m97.927 94.515h5.979v14.516h-5.979z"/><path d="m121.68 109.03h-4.981l-3.87-7.067h-.07v7.067h-5.635v-14.515h5.015l3.834 6.985h.071v-6.985h5.636z"/><path d="m138.811 99.967h-5.983v-2.708h-2.795v9.029h2.795v-2.086h-1.51v-2.74h7.493v5.453l-3.95 2.109h-6.638l-4.17-2.109v-10.287l3.988-2.107h6.71l4.06 2.107z"/><path d="m165.66 99.967h-5.98v-2.708h-2.797v9.029h2.797v-2.086h-1.51v-2.74h7.49v5.453l-3.952 2.109h-6.636l-4.17-2.109v-10.287l3.989-2.107h6.711l4.058 2.107z"/><path d="m200.006 96.628-4.096-2.107h-6.424l-3.951 2.107v10.286l3.951 2.11h6.679l3.841-2.11zm-8.485.631h2.508v9.028h-2.508z"/><path d="m217.518 96.628-4.096-2.107h-10.369v14.504h10.588l3.877-2.109zm-8.491.631h2.514v9.028h-2.514z"/><path d="m230.251 94.521 4.202 2.107v2.564h-5.98v-1.933h-2.461v2.94l4.345.202 4.096 2.09v4.424l-3.914 2.109h-6.627l-3.883-2.109v-2.561h5.983v1.934h2.461v-3.053l-4.273-.179-4.171-2.089v-4.339l3.914-2.107z"/><path d="m182.592 96.628-4.097-2.107h-6.422l-3.952 2.107v10.286l3.952 2.11h6.673l3.846-2.11zm-8.488.631h2.508v9.028h-2.508z"/></g><path d="m175.637 38.559c4.52-1.741 8.329-4.72 11.041-7.876 2.706-3.169 4.369-6.447 4.396-9.158l-.02-.49-2.102.179.011.311c.035 1.797-1.367 4.891-3.881 7.785-2.505 2.913-6.076 5.698-10.201 7.28zm2.198-5.094c4.343-2.898 6.986-5.466 8.545-7.913 1.575-2.442 2.013-4.771 2.013-6.896 0-.436-.017-.856-.044-1.278l-2.099.139.036 1.139c-.011 1.861-.334 3.658-1.675 5.762-1.338 2.097-3.746 4.495-7.949 7.289zm1.261-4.677c4.981-4.086 6.776-7.731 6.776-10.981 0-1.477-.366-2.821-.883-4.017l-1.936.826c.431 1.019.709 2.067.709 3.193-.009 2.421-1.269 5.444-6.006 9.359z" fill="#80af97"/><path d="m237.52 106.942v-.703h.469c.24 0 .496.049.496.332 0 .351-.26.371-.558.371zm0 .295h.395l.604.986h.387l-.65-1.004c.334-.041.59-.223.59-.627 0-.449-.265-.648-.804-.648h-.868v2.279h.35v-.986zm.418 1.823c1.076 0 1.996-.836 1.996-1.982 0-1.133-.92-1.969-1.996-1.969-1.088 0-2.012.836-2.012 1.969 0 1.146.924 1.982 2.012 1.982zm-1.613-1.983c0-.934.704-1.641 1.61-1.641.893 0 1.598.707 1.598 1.641 0 .954-.705 1.652-1.598 1.652-.906 0-1.61-.698-1.61-1.652z" fill="#fff"/><path d="m177.008 39.929c4.52-1.74 8.329-4.72 11.041-7.876 2.706-3.169 4.369-6.447 4.397-9.158l-.021-.489-2.101.178.011.311c.034 1.797-1.368 4.891-3.882 7.786-2.505 2.913-6.076 5.697-10.201 7.28zm2.199-5.093c4.342-2.898 6.986-5.466 8.544-7.913 1.575-2.442 2.014-4.771 2.014-6.896 0-.435-.018-.856-.044-1.278l-2.099.139.036 1.139c-.011 1.861-.335 3.658-1.676 5.762-1.338 2.097-3.745 4.495-7.949 7.289zm1.261-4.677c4.981-4.086 6.776-7.731 6.776-10.981 0-1.477-.366-2.821-.883-4.017l-1.937.826c.432 1.019.71 2.067.71 3.193-.01 2.421-1.27 5.445-6.007 9.359z" fill="#231f20"/><path d="m176.203 39.124c4.519-1.74 8.328-4.72 11.041-7.876 2.705-3.169 4.368-6.446 4.396-9.158l-.02-.49-2.101.178.011.311c.034 1.798-1.368 4.892-3.882 7.786-2.505 2.913-6.075 5.697-10.201 7.28zm2.198-5.093c4.342-2.898 6.986-5.466 8.544-7.914 1.575-2.442 2.014-4.771 2.014-6.895 0-.436-.018-.856-.044-1.278l-2.099.139.036 1.139c-.011 1.861-.335 3.658-1.676 5.762-1.338 2.096-3.745 4.494-7.949 7.289zm1.261-4.678c4.981-4.086 6.776-7.731 6.776-10.981 0-1.477-.366-2.821-.883-4.017l-1.937.825c.432 1.019.71 2.067.71 3.193-.01 2.42-1.269 5.444-6.007 9.359z" fill="#fff"/></svg>