<?xml version="1.0" encoding="utf-8"?>
<!-- Generator: Adobe Illustrator 16.0.0, SVG Export Plug-In . SVG Version: 6.00 Build 0)  -->
<!DOCTYPE svg PUBLIC "-//W3C//DTD SVG 1.1//EN" "http://www.w3.org/Graphics/SVG/1.1/DTD/svg11.dtd">
<svg version="1.1" id="Layer_1" xmlns="http://www.w3.org/2000/svg" xmlns:xlink="http://www.w3.org/1999/xlink" x="0px" y="0px"
	 width="240px" height="240px" viewBox="5 -60.378 240 240" enable-background="new 5 -60.378 240 240" xml:space="preserve">
<rect x="0.001" y="4.203" fill="none" width="250" height="115.114"/>
<rect x="4.939" y="9.273" fill="none" width="240.125" height="104.732"/>
<rect x="58.095" y="13.79" fill="#80AF97" width="16.425" height="72.65"/>
<path fill="#80AF97" d="M34.713,28.24H27.72v45.292h6.993V28.24z M52.717,75.903L42.064,86.44H12.999V13.79h28.469l11.25,10.537
	L52.717,75.903L52.717,75.903z"/>
<polyline fill="#80AF97" points="119.49,41.652 103.464,41.652 103.464,27.468 96.395,27.468 96.395,72.761 103.464,72.761 
	103.464,55.433 119.49,55.433 119.49,75.903 108.64,86.44 91.718,86.44 79.972,75.903 79.972,24.327 90.722,13.79 108.64,13.79 
	119.49,24.327 119.49,41.652 "/>
<polyline fill="#80AF97" points="141.09,44.794 141.289,44.794 152.04,13.79 168.863,13.79 154.626,47.732 171.052,86.44 
	153.232,86.44 141.289,55.433 141.09,55.433 141.09,86.44 124.666,86.44 124.666,13.79 141.09,13.79 141.09,44.794 "/>
<polyline fill="#80AF97" points="224.59,13.79 236.139,24.327 236.139,37.194 219.714,37.194 219.714,27.468 212.943,27.468 
	212.943,42.261 224.887,43.274 236.139,53.812 236.139,75.903 225.389,86.44 207.171,86.44 196.52,75.903 196.52,63.134 
	212.943,63.134 212.943,72.761 219.714,72.761 219.714,57.561 207.971,56.651 196.52,46.11 196.52,24.327 207.273,13.79 
	224.59,13.79 "/>
<rect x="59.924" y="16.442" fill="#231F20" width="16.427" height="72.649"/>
<path fill="#231F20" d="M36.545,30.892h-6.991v45.294h6.991V30.892z M54.549,78.554L43.898,89.091H14.831V16.442h28.471
	L54.55,26.978L54.549,78.554L54.549,78.554z"/>
<polyline fill="#231F20" points="121.322,44.307 105.296,44.307 105.296,30.121 98.229,30.121 98.229,75.413 105.296,75.413 
	105.296,58.084 121.322,58.084 121.322,78.554 110.474,89.091 93.55,89.091 81.804,78.554 81.804,26.978 92.556,16.442 
	110.474,16.442 121.322,26.978 121.322,44.307 "/>
<polyline fill="#231F20" points="142.924,47.447 143.124,47.447 153.874,16.442 170.693,16.442 156.461,50.385 172.887,89.091 
	155.066,89.091 143.124,58.084 142.924,58.084 142.924,89.091 126.498,89.091 126.498,16.442 142.924,16.442 142.924,47.447 "/>
<polyline fill="#231F20" points="226.424,16.442 237.969,26.978 237.969,39.848 221.548,39.848 221.548,30.121 214.777,30.121 
	214.777,44.915 226.723,45.927 237.969,56.465 237.969,78.554 227.223,89.091 209.001,89.091 198.354,78.554 198.354,65.784 
	214.777,65.784 214.777,75.413 221.548,75.413 221.548,60.212 209.8,59.301 198.354,48.765 198.354,26.978 209.104,16.442 
	226.424,16.442 "/>
<rect x="58.986" y="14.8" fill="#FFFFFF" width="16.425" height="72.648"/>
<path fill="#FFFFFF" d="M35.604,29.249h-6.991v45.293h6.991V29.249z M53.611,76.913L42.958,87.448H13.893V14.8h28.469l11.25,10.538
	L53.611,76.913L53.611,76.913z"/>
<polyline fill="#FFFFFF" points="120.384,42.664 104.356,42.664 104.356,28.478 97.288,28.478 97.288,73.771 104.356,73.771 
	104.356,56.444 120.384,56.444 120.384,76.913 109.532,87.448 92.61,87.448 80.866,76.913 80.866,25.337 91.614,14.8 109.532,14.8 
	120.384,25.337 120.384,42.664 "/>
<polyline fill="#FFFFFF" points="141.98,45.804 142.182,45.804 152.932,14.8 169.756,14.8 155.521,48.742 171.948,87.448 
	154.125,87.448 142.182,56.444 141.98,56.444 141.98,87.448 125.561,87.448 125.561,14.8 141.98,14.8 141.98,45.804 "/>
<polyline fill="#FFFFFF" points="225.48,14.8 237.029,25.337 237.029,38.206 220.605,38.206 220.605,28.478 213.84,28.478 
	213.84,43.272 225.783,44.284 237.029,54.822 237.029,76.913 226.279,87.448 208.066,87.448 197.414,76.913 197.414,64.146 
	213.84,64.146 213.84,73.771 220.605,73.771 220.605,58.572 208.861,57.659 197.414,47.124 197.414,25.337 208.165,14.8 
	225.48,14.8 "/>
<polyline fill="#231F20" points="27.576,95.667 31.778,97.78 31.778,100.343 25.799,100.343 25.799,98.407 23.338,98.407 
	23.338,101.351 27.683,101.55 31.778,103.642 31.778,108.065 27.863,110.174 21.237,110.174 17.359,108.065 17.359,105.502 
	23.338,105.502 23.338,107.435 25.799,107.435 25.799,104.388 21.527,104.202 17.359,102.117 17.359,97.78 21.271,95.667 
	27.576,95.667 "/>
<path fill="#231F20" d="M64.819,97.78l-4.098-2.113h-6.422l-3.947,2.113v10.285l3.947,2.108h6.678l3.843-2.108L64.819,97.78
	 M56.33,98.407h2.508v9.027H56.33V98.407z"/>
<path fill="#231F20" d="M82.185,97.78l-4.015-2.113H67.912v14.512h5.979v-5.839h2.51v5.839h5.784v-5.839l-3-1.419l3-1.402V97.78
	 M73.891,98.407h2.51v3.191h-2.51V98.407z"/>
<polyline fill="#231F20" points="96.562,98.407 93.188,98.407 93.188,110.179 87.209,110.179 87.209,98.407 83.833,98.407 
	83.833,95.667 96.562,95.667 96.562,98.407 "/>
<path fill="#231F20" d="M48.563,97.78l-4.029-2.113h-9.907v14.512h5.979v-4.924h3.929l4.029-2.051L48.563,97.78 M40.606,98.407
	h2.225v4.109h-2.225V98.407z"/>
<rect x="98.436" y="95.663" fill="#231F20" width="5.981" height="14.516"/>
<polyline fill="#231F20" points="122.188,110.179 117.21,110.179 113.337,103.11 113.268,103.11 113.268,110.179 107.632,110.179 
	107.632,95.663 112.647,95.663 116.481,102.649 116.555,102.649 116.555,95.663 122.188,95.663 122.188,110.179 "/>
<polyline fill="#231F20" points="139.32,101.114 133.339,101.114 133.339,98.407 130.544,98.407 130.544,107.435 133.339,107.435 
	133.339,105.351 131.83,105.351 131.83,102.608 139.32,102.608 139.32,108.065 135.368,110.174 128.732,110.174 124.563,108.065 
	124.563,97.78 128.547,95.667 135.262,95.667 139.32,97.78 139.32,101.114 "/>
<polyline fill="#231F20" points="166.171,101.114 160.189,101.114 160.189,98.407 157.391,98.407 157.391,107.435 160.189,107.435 
	160.189,105.351 158.682,105.351 158.682,102.608 166.171,102.608 166.171,108.065 162.219,110.174 155.578,110.174 
	151.413,108.065 151.413,97.78 155.396,95.667 162.107,95.667 166.171,97.78 166.171,101.114 "/>
<path fill="#231F20" d="M200.518,97.78l-4.097-2.113h-6.423l-3.952,2.113v10.285l3.952,2.108h6.678l3.842-2.108V97.78
	 M192.027,98.407h2.508v9.027h-2.508V98.407z"/>
<path fill="#231F20" d="M218.027,97.78l-4.096-2.113h-10.373v14.508h10.592l3.877-2.107V97.78 M209.539,98.407h2.508v9.027h-2.508
	V98.407z"/>
<polyline fill="#231F20" points="230.757,95.667 234.959,97.78 234.959,100.343 228.982,100.343 228.982,98.407 226.521,98.407 
	226.521,101.351 230.868,101.55 234.959,103.642 234.959,108.065 231.05,110.174 224.418,110.174 220.545,108.065 220.545,105.502 
	226.521,105.502 226.521,107.435 228.982,107.435 228.982,104.388 224.711,104.202 220.545,102.117 220.545,97.78 224.455,95.667 
	230.757,95.667 "/>
<path fill="#231F20" d="M183.104,97.78l-4.102-2.113h-6.418l-3.952,2.113v10.285l3.952,2.108h6.673l3.847-2.108V97.78
	 M174.613,98.407h2.508v9.027h-2.508V98.407z"/>
<polyline fill="#80AF97" points="26.61,93.737 30.813,95.849 30.813,98.412 24.833,98.412 24.833,96.479 22.372,96.479 
	22.372,99.419 26.719,99.621 30.813,101.713 30.813,106.134 26.9,108.247 20.271,108.247 16.394,106.134 16.394,103.575 
	22.372,103.575 22.372,105.507 24.833,105.507 24.833,102.458 20.563,102.274 16.394,100.188 16.394,95.849 20.308,93.737 
	26.61,93.737 "/>
<path fill="#80AF97" d="M63.853,95.849l-4.094-2.111h-6.422l-3.952,2.111v10.285l3.952,2.112h6.676l3.84-2.112V95.849
	 M55.364,96.479h2.51v9.027h-2.51V96.479z"/>
<path fill="#80AF97" d="M81.221,95.849l-4.015-2.111h-10.26v14.515h5.981v-5.842h2.508v5.842h5.786v-5.842l-3.002-1.421l3.002-1.398
	V95.849 M72.927,96.479h2.508v3.189h-2.508V96.479z"/>
<polyline fill="#80AF97" points="95.596,96.479 92.222,96.479 92.222,108.251 86.243,108.251 86.243,96.479 82.869,96.479 
	82.869,93.737 95.596,93.737 95.596,96.479 "/>
<path fill="#80AF97" d="M47.597,95.849l-4.028-2.111h-9.908v14.515h5.981v-4.927h3.926l4.028-2.049L47.597,95.849 M39.643,96.479
	h2.222v4.106h-2.222V96.479z"/>
<rect x="97.472" y="93.735" fill="#80AF97" width="5.981" height="14.517"/>
<polyline fill="#80AF97" points="121.223,108.251 116.244,108.251 112.376,101.185 112.302,101.185 112.302,108.251 
	106.669,108.251 106.669,93.735 111.684,93.735 115.518,100.719 115.589,100.719 115.589,93.735 121.223,93.735 121.223,108.251 "/>
<polyline fill="#80AF97" points="138.354,99.187 132.378,99.187 132.378,96.479 129.578,96.479 129.578,105.507 132.378,105.507 
	132.378,103.422 130.863,103.422 130.863,100.683 138.354,100.683 138.354,106.134 134.402,108.247 127.768,108.247 
	123.598,106.134 123.598,95.849 127.586,93.737 134.296,93.737 138.354,95.849 138.354,99.187 "/>
<polyline fill="#80AF97" points="165.205,99.187 159.225,99.187 159.225,96.479 156.428,96.479 156.428,105.507 159.225,105.507 
	159.225,103.422 157.715,103.422 157.715,100.683 165.205,100.683 165.205,106.134 161.253,108.247 154.611,108.247 
	150.447,106.134 150.447,95.849 154.432,93.737 161.143,93.737 165.205,95.849 165.205,99.187 "/>
<path fill="#80AF97" d="M199.551,95.849l-4.096-2.111h-6.418l-3.952,2.111v10.285l3.952,2.112h6.673l3.841-2.112V95.849
	 M191.063,96.479h2.508v9.027h-2.508V96.479z"/>
<path fill="#80AF97" d="M217.063,95.849l-4.096-2.111h-10.375v14.51h10.594l3.877-2.112V95.849 M208.573,96.479h2.508v9.027h-2.508
	V96.479z"/>
<polyline fill="#80AF97" points="229.796,93.737 233.993,95.849 233.993,98.412 228.018,98.412 228.018,96.479 225.557,96.479 
	225.557,99.419 229.902,99.621 233.993,101.713 233.993,106.134 230.083,108.247 223.457,108.247 219.579,106.134 219.579,103.575 
	225.557,103.575 225.557,105.507 228.018,105.507 228.018,102.458 223.745,102.274 219.579,100.188 219.579,95.849 223.488,93.737 
	229.796,93.737 "/>
<path fill="#80AF97" d="M182.137,95.849l-4.097-2.111h-6.422l-3.952,2.111v10.285l3.952,2.112h6.673l3.846-2.112V95.849
	 M173.646,96.479h2.508v9.027h-2.508V96.479z"/>
<polyline fill="#FFFFFF" points="27.065,94.521 31.268,96.628 31.268,99.192 25.289,99.192 25.289,97.259 22.83,97.259 
	22.83,100.199 27.174,100.401 31.268,102.491 31.268,106.915 27.355,109.024 20.729,109.024 16.849,106.915 16.849,104.354 
	22.83,104.354 22.83,106.288 25.289,106.288 25.289,103.235 21.019,103.056 16.849,100.967 16.849,96.628 20.763,94.521 
	27.065,94.521 "/>
<path fill="#FFFFFF" d="M64.311,96.628l-4.098-2.107H53.79l-3.947,2.107v10.286l3.947,2.11h6.678l3.843-2.11V96.628 M55.821,97.259
	h2.508v9.028h-2.508V97.259z"/>
<path fill="#FFFFFF" d="M81.676,96.628l-4.015-2.107H67.403v14.51h5.979v-5.84h2.505v5.84h5.789v-5.84l-3-1.422l3-1.399V96.628
	 M73.382,97.259h2.505v3.19h-2.505V97.259z"/>
<polyline fill="#FFFFFF" points="96.053,97.259 92.679,97.259 92.679,109.03 86.698,109.03 86.698,97.259 83.322,97.259 
	83.322,94.521 96.053,94.521 96.053,97.259 "/>
<path fill="#FFFFFF" d="M48.05,96.628l-4.024-2.107h-9.908v14.51h5.979v-4.926h3.929l4.024-2.047V96.628 M40.098,97.259h2.222v4.107
	h-2.222V97.259z"/>
<rect x="97.927" y="94.515" fill="#FFFFFF" width="5.979" height="14.516"/>
<polyline fill="#FFFFFF" points="121.68,109.03 116.699,109.03 112.829,101.963 112.759,101.963 112.759,109.03 107.124,109.03 
	107.124,94.515 112.139,94.515 115.973,101.5 116.044,101.5 116.044,94.515 121.68,94.515 121.68,109.03 "/>
<polyline fill="#FFFFFF" points="138.811,99.967 132.828,99.967 132.828,97.259 130.033,97.259 130.033,106.288 132.828,106.288 
	132.828,104.202 131.318,104.202 131.318,101.462 138.811,101.462 138.811,106.915 134.861,109.024 128.223,109.024 
	124.053,106.915 124.053,96.628 128.041,94.521 134.751,94.521 138.811,96.628 138.811,99.967 "/>
<polyline fill="#FFFFFF" points="165.66,99.967 159.68,99.967 159.68,97.259 156.883,97.259 156.883,106.288 159.68,106.288 
	159.68,104.202 158.17,104.202 158.17,101.462 165.66,101.462 165.66,106.915 161.708,109.024 155.072,109.024 150.902,106.915 
	150.902,96.628 154.891,94.521 161.602,94.521 165.66,96.628 165.66,99.967 "/>
<path fill="#FFFFFF" d="M200.006,96.628l-4.096-2.107h-6.424l-3.951,2.107v10.286l3.951,2.11h6.679l3.841-2.11V96.628
	 M191.521,97.259h2.508v9.028h-2.508V97.259z"/>
<path fill="#FFFFFF" d="M217.518,96.628l-4.096-2.107h-10.369v14.504h10.588l3.877-2.109V96.628 M209.027,97.259h2.514v9.028h-2.514
	V97.259z"/>
<polyline fill="#FFFFFF" points="230.251,94.521 234.453,96.628 234.453,99.192 228.473,99.192 228.473,97.259 226.012,97.259 
	226.012,100.199 230.357,100.401 234.453,102.491 234.453,106.915 230.539,109.024 223.912,109.024 220.029,106.915 
	220.029,104.354 226.012,104.354 226.012,106.288 228.473,106.288 228.473,103.235 224.2,103.056 220.029,100.967 220.029,96.628 
	223.943,94.521 230.251,94.521 "/>
<path fill="#FFFFFF" d="M182.592,96.628l-4.097-2.107h-6.422l-3.952,2.107v10.286l3.952,2.11h6.673l3.846-2.11V96.628
	 M174.104,97.259h2.508v9.028h-2.508V97.259z"/>
<path fill="#80AF97" d="M175.637,38.559c4.52-1.741,8.329-4.72,11.041-7.876c2.706-3.169,4.369-6.447,4.396-9.158l-0.02-0.49
	l-2.102,0.179l0.011,0.311c0.035,1.797-1.367,4.891-3.881,7.785c-2.505,2.913-6.076,5.698-10.201,7.28L175.637,38.559
	 M177.835,33.465c4.343-2.898,6.986-5.466,8.545-7.913c1.575-2.442,2.013-4.771,2.013-6.896c0-0.436-0.017-0.856-0.044-1.278
	l-2.099,0.139l0.036,1.139c-0.011,1.861-0.334,3.658-1.675,5.762c-1.338,2.097-3.746,4.495-7.949,7.289L177.835,33.465z
	 M179.096,28.788c4.981-4.086,6.776-7.731,6.776-10.981c0-1.477-0.366-2.821-0.883-4.017l-1.936,0.826
	c0.431,1.019,0.709,2.067,0.709,3.193c-0.009,2.421-1.269,5.444-6.006,9.359L179.096,28.788z"/>
<path fill="#FFFFFF" d="M237.52,106.942v-0.703h0.469c0.24,0,0.496,0.049,0.496,0.332c0,0.351-0.26,0.371-0.558,0.371H237.52
	 M237.52,107.237h0.395l0.604,0.986h0.387l-0.65-1.004c0.334-0.041,0.59-0.223,0.59-0.627c0-0.449-0.265-0.648-0.804-0.648h-0.868
	v2.279h0.35v-0.986H237.52z M237.938,109.06c1.076,0,1.996-0.836,1.996-1.982c0-1.133-0.92-1.969-1.996-1.969
	c-1.088,0-2.012,0.836-2.012,1.969C235.926,108.224,236.85,109.06,237.938,109.06z M236.325,107.077c0-0.934,0.704-1.641,1.61-1.641
	c0.893,0,1.598,0.707,1.598,1.641c0,0.954-0.705,1.652-1.598,1.652C237.029,108.729,236.325,108.031,236.325,107.077z"/>
<path fill="#231F20" d="M177.008,39.929c4.52-1.74,8.329-4.72,11.041-7.876c2.706-3.169,4.369-6.447,4.397-9.158l-0.021-0.489
	l-2.101,0.178l0.011,0.311c0.034,1.797-1.368,4.891-3.882,7.786c-2.505,2.913-6.076,5.697-10.201,7.28L177.008,39.929
	 M179.207,34.836c4.342-2.898,6.986-5.466,8.544-7.913c1.575-2.442,2.014-4.771,2.014-6.896c0-0.435-0.018-0.856-0.044-1.278
	l-2.099,0.139l0.036,1.139c-0.011,1.861-0.335,3.658-1.676,5.762c-1.338,2.097-3.745,4.495-7.949,7.289L179.207,34.836z
	 M180.468,30.159c4.981-4.086,6.776-7.731,6.776-10.981c0-1.477-0.366-2.821-0.883-4.017l-1.937,0.826
	c0.432,1.019,0.71,2.067,0.71,3.193c-0.01,2.421-1.27,5.445-6.007,9.359L180.468,30.159z"/>
<path fill="#FFFFFF" d="M176.203,39.124c4.519-1.74,8.328-4.72,11.041-7.876c2.705-3.169,4.368-6.446,4.396-9.158L191.62,21.6
	l-2.101,0.178l0.011,0.311c0.034,1.798-1.368,4.892-3.882,7.786c-2.505,2.913-6.075,5.697-10.201,7.28L176.203,39.124
	 M178.401,34.031c4.342-2.898,6.986-5.466,8.544-7.914c1.575-2.442,2.014-4.771,2.014-6.895c0-0.436-0.018-0.856-0.044-1.278
	l-2.099,0.139l0.036,1.139c-0.011,1.861-0.335,3.658-1.676,5.762c-1.338,2.096-3.745,4.494-7.949,7.289L178.401,34.031z
	 M179.662,29.353c4.981-4.086,6.776-7.731,6.776-10.981c0-1.477-0.366-2.821-0.883-4.017l-1.937,0.825
	c0.432,1.019,0.71,2.067,0.71,3.193c-0.01,2.42-1.269,5.444-6.007,9.359L179.662,29.353z"/>
</svg>
