<?xml version="1.0" encoding="utf-8"?>
<!-- Generator: Adobe Illustrator 16.0.0, SVG Export Plug-In . SVG Version: 6.00 Build 0)  -->
<!DOCTYPE svg PUBLIC "-//W3C//DTD SVG 1.1//EN" "http://www.w3.org/Graphics/SVG/1.1/DTD/svg11.dtd">
<svg version="1.1" id="Layer_1" xmlns="http://www.w3.org/2000/svg" xmlns:xlink="http://www.w3.org/1999/xlink" x="0px" y="0px"
	 width="1780px" height="1780px" viewBox="720.279 -535.828 1780 1780" enable-background="new 720.279 -535.828 1780 1780"
	 xml:space="preserve">
<path d="M1021.578,221.538c-36.641-25.25-77.902-36.687-151.824-36.687c-53.291,0-148.941,8.005-148.941,24.061
	c0,4.575,2.881,6.313,8.005,6.313c4.025,0,20.63-4.62,24.062-4.62c11.436,0,18.297,8.051,18.297,31.518h0.092v243.541
	c0,23.512,0,38.928-29.23,40.666c-11.436,0.595-20.036,1.144-20.036,9.743c0,8.006,7.411,8.006,11.437,8.006
	c2.882,0,57.271-2.287,67.609-2.287c14.317,0,88.24,2.287,104.845,2.287c149.491,0,191.896-118.614,191.896-179.911
	C1097.787,308.588,1068.557,253.604,1021.578,221.538z M886.313,529.714c-44.098,0-53.841-20.081-53.841-56.722V245.599
	c0-32.067,3.477-45.835,37.83-45.835c121.45,0,159.829,102.512,159.829,167.834C1030.132,459.223,962.522,529.714,886.313,529.714z"
	/>
<g>
	<path d="M1494.707,527.427c-24.656-3.431-24.656-9.743-24.656-41.81V224.374c0-6.313,2.333-41.81,2.333-49.267
		c0-5.718,0-12.03-6.313-12.03c-2.882,0-4.025,0.549-17.795,7.456c-15.867,7.212-32.357,12.969-49.266,17.2
		c-16.605,3.979-18.298,4.574-18.298,9.744c0,6.313,2.836,6.313,13.175,7.456c20.63,1.738,20.63,21.179,20.63,38.379v242.946
		c0,31.472,0,37.784-24.656,41.215c-4.566,0.398-9.042,1.51-13.266,3.294c-4.254-1.88-8.807-2.995-13.448-3.294
		c-24.61-3.431-24.61-9.743-24.61-41.81V224.374c0-6.313,2.287-41.81,2.287-49.267c0-5.718,0-12.03-6.313-12.03
		c-2.836,0-4.025,0.549-17.749,7.456c-15.867,7.212-32.357,12.969-49.266,17.2c-16.605,3.979-18.344,4.574-18.344,9.744
		c0,6.313,2.837,6.313,13.175,7.456c20.63,1.738,20.63,21.179,20.63,38.379v242.946c0,31.472,0,37.784-24.655,41.215
		c-10.476,1.464-15.37,3.294-16.742,6.861c-1.235-3.385-5.353-5.489-16.742-6.861c-24.656-3.431-24.656-10.292-24.656-41.81V300.537
		c0-12.579,0-20.036-6.313-20.036c-4.574,0-22.323,15.461-26.349,18.297c-9.743,6.862-22.918,14.318-50.41,23.513
		c-6.861,2.287-9.194,5.169-9.194,9.148c0,6.862,9.194,7.457,10.887,7.457c20.631,1.144,25.754,9.149,25.754,38.378v108.871
		c0,31.472,0,37.784-24.609,41.215c-12.58,1.738-17.2,4.025-17.2,9.195c0,7.456,5.718,7.456,9.743,7.456
		c9.744,0,36.092-2.287,60.153-2.287c26.349,0,50.959,2.287,59.559,2.287c3.431,0,8.097-0.046,9.378-4.346
		c1.51,4.254,6.404,4.346,12.122,4.346c12.03,0,18.892-2.287,56.722-2.287c33.211,0,44.692,2.287,60.153,2.287
		c1.968,0,4.3,0,6.222-0.823c2.762,0.709,5.616,0.987,8.463,0.823c12.076,0,18.938-2.287,56.722-2.287
		c33.256,0,44.692,2.287,60.153,2.287c3.98,0,9.744,0,9.744-6.861C1511.861,532.001,1509.024,529.119,1494.707,527.427z"/>
	<path d="M1172.121,245.553c17.022,0.206,31.048-13.31,31.472-30.328c0.003-0.154,0.005-0.308,0.005-0.462
		c0.048-17.432-14.045-31.602-31.477-31.65c-18.893,0-32.066,15.461-32.066,31.518c0.001,0.049,0.002,0.099,0.003,0.148
		C1140.413,232.13,1154.769,245.909,1172.121,245.553z"/>
	<path d="M1745.75,500.575c-2.883,0-3.432,0.549-9.744,5.718c-4.574,3.431-10.292,5.719-16.604,5.719
		c-16.011,0-17.749-14.318-17.749-32.112V320.07c0-23.466-13.129-41.81-67.015-41.81c-87.051,0-123.143,59.009-123.143,78.496
		c0,7.411,6.267,11.436,12.579,11.436c0.549,0,33.805-2.333,42.954-28.086c4.574-13.174,17.199-48.123,50.409-48.123
		c26.897,0,28.636,27.492,28.636,47.528h-0.046v37.921c0,10.292-0.549,14.913-14.317,20.631
		c-88.194,34.902-118.568,59.559-118.568,101.368c0,8.6,2.837,48.123,44.692,48.123c25.799,0,56.722-21.18,80.783-40.667
		c0,0,2.882-2.287,4.025-2.287c1.692,0,2.882,0,8.006,10.888c6.861,13.723,17.794,30.922,40.117,30.922
		c25.205,0,60.152-26.942,60.152-40.666C1750.918,504.006,1749.181,500.575,1745.75,500.575z M1646.073,450.074
		c0,40.071-22.368,60.702-48.122,60.702c-12.626,0-25.8-10.292-25.8-37.784c0-11.437,0-33.256,36.092-50.41
		c9.194-4.574,23.513-12.03,31.518-12.03c2.882,0,6.313,0.595,6.313,6.313V450.074z"/>
</g>
<g>
	<path d="M1864.775,320.619c3.431,0,8.005,1.144,17.748,12.03c9.149,10.292,17.2,14.913,29.779,14.913
		c14.318,0,34.949-9.194,34.949-32.661c0-22.917-20.585-34.354-41.216-34.354c-33.21,0-61.297,32.615-62.44,34.354
		c-0.595,1.144-3.431,4.574-5.169,4.574c-3.431,0-3.431-4.574-3.431-8.005h-0.046v-28.636c0-5.169-0.595-9.744-6.313-9.744
		c-2.882,0-16.057,13.174-17.154,14.318c-12.03,12.625-44.691,30.374-57.866,34.949c-6.907,1.692-9.194,4.025-9.194,8.005
		c0,6.313,5.718,6.313,7.456,6.313c21.774,1.144,29.23,2.288,29.23,38.38v110.517c0,32.066,0,38.379-25.205,41.81
		c-13.174,1.738-17.199,4.025-17.199,9.195c0,7.456,5.718,7.456,9.743,7.456c9.149,0,51.005-2.287,59.604-2.287
		c10.338,0,56.723,2.287,66.466,2.287c4.574,0,12.03,0,12.03-8.005c0-8.601-8.051-9.149-20.63-9.744
		c-29.23-1.692-29.23-17.153-29.23-40.666V376.793C1836.688,329.219,1853.339,320.619,1864.775,320.619z"/>
	<path d="M2221.395,498.15c-4.621,0-19.533,14.913-23.513,14.913c-4.62,0-8.6-3.431-8.6-20.036h-0.046V226.707
		c0-8.6,2.287-47.024,2.287-55.03c0-2.287,0-10.887-6.861-10.887c-2.453,0.12-4.827,0.911-6.861,2.288
		c-30.969,15.461-53.292,20.036-65.323,22.323c-1.738,0.549-10.338,2.836-10.338,9.149c0,5.123,7.502,6.267,10.338,6.861
		c18.344,1.144,21.18,6.313,21.18,23.513v60.656c0,2.333-1.692,4.62-3.979,4.62c-1.144,0-4.574-1.144-6.861-2.287
		c-9.698-4.575-30.374-9.744-48.672-9.744c-64.728,0-138.649,52.148-138.649,140.937c0,76.758,56.173,128.312,120.901,128.312
		c32.661,0,52.147-14.317,67.609-26.897c2.287-1.738,5.718-4.025,8.005-4.025c4.025,0,5.169,5.169,5.169,8.6
		c1.692,21.18,5.123,22.323,9.698,22.323c4.025,0,33.255-12.03,38.974-14.317c37.83-12.626,38.974-13.175,38.974-28.087
		C2224.825,503.32,2224.825,498.15,2221.395,498.15z M2135.99,482.781c0,10.292,0,32.661-48.122,32.661
		c-56.723,0-91.671-48.672-91.671-113.445c0-75.065,42.404-111.707,81.927-111.707c57.866,0,57.866,51.554,57.866,77.307V482.781z"
		/>
</g>
<path d="M2259.361,310.281c-3.979,0-5.717-2.836-5.717-5.718c0-2.288,0.594-4.026,6.861-8.005
	c1.145-0.595,30.922-20.036,30.922-52.148c0-2.836,0-15.461-8.6-15.461c-4.574,0-6.313,1.144-10.291,1.144
	c-12.031,0-21.18-9.744-21.18-22.918c-0.369-13.89,10.59-25.45,24.48-25.819c0.623-0.017,1.246-0.01,1.867,0.02
	c18.893,0,36.092,15.461,36.092,45.287C2313.797,281.645,2267.963,310.281,2259.361,310.281z"/>
<path d="M2311.281,467.273c0-1.738,0.549-10.338,8.006-10.338c6.313,0,9.193,5.169,12.029,16.057
	c2.883,10.292,19.488,60.152,65.871,60.152c25.754,0,55.58-17.199,55.58-46.979c0-30.374-26.35-43.548-65.871-59.01
	c-33.805-13.174-74.518-29.185-74.518-70.445c0-32.661,25.754-78.497,101.963-78.497c8.6,0,51.006,6.313,55.58,6.313
	c14.316,1.738,14.316,8.005,14.316,17.2l-2.287,33.805c0,2.287-1.143,9.149-6.861,9.149c-3.98,0-6.861-1.144-10.293-12.031
	c-3.43-10.887-18.938-41.261-57.316-41.261c-24.609,0-45.836,13.769-45.836,34.354c0,22.917,12.627,28.087,70.492,52.148
	c19.486,8.6,67.609,28.086,67.609,77.353c0,42.953-34.947,92.22-110.563,92.22c-34.354,0-69.896-14.318-72.184-16.057
	c-6.861-3.431-6.861-8.005-6.861-21.773L2311.281,467.273z"/>
</svg>
