<?xml version="1.0" encoding="utf-8"?>
<!-- Generator: Adobe Illustrator 16.0.0, SVG Export Plug-In . SVG Version: 6.00 Build 0)  -->
<!DOCTYPE svg PUBLIC "-//W3C//DTD SVG 1.1//EN" "http://www.w3.org/Graphics/SVG/1.1/DTD/svg11.dtd">
<svg version="1.1" id="Layer_1" xmlns="http://www.w3.org/2000/svg" xmlns:xlink="http://www.w3.org/1999/xlink" x="0px" y="0px"
	 width="720px" height="720px" viewBox="-9.912 -212.76 720 720" enable-background="new -9.912 -212.76 720 720"
	 xml:space="preserve">
<path d="M602.181,128.591c-11.699,2.699-42.597,4.199-42.597,4.199l-3.8,12.199c0,0,15.299-1.3,26.498-0.2c0,0,3.6-0.3,4,4
	c0.2,4.399-0.3,8.999-0.3,8.999s-0.301,2.7-4,3.399c-4.3,0.7-33.298,2-33.298,2l-4.699,15.799c0,0-1.7,3.6,2.199,2.6
	c3.601-1,33.998-6.799,37.997-5.999c4.2,1,9,6.8,7.6,11.999c-1.6,6.3-31.997,25.698-50.396,24.398c0,0-9.7,0.6-17.799-12.499
	c-7.8-12.499,2.699-35.998,2.699-35.998s-4.699-10.999-1.199-14.998c0,0,1.999-1.7,7.999-2.2l7.499-15.398c0,0-8.499,0.5-13.499-5.7
	c-4.6-5.999-4.999-8.6-1.399-10.199c3.8-2,38.997-8.299,63.195-7.499c0,0,8.499-1,15.999,13.699c0,0,3.399,5.999-2.601,7.399
	 M510.987,187.786c-2.999,7.299-11.299,14.998-21.298,10.299c-10.199-4.8-26.298-37.597-26.298-37.597s-6-12.199-7.2-11.8
	c0,0-1.3-2.399-1.999,10.999c-1,13.3,0.199,39.197-5.3,43.297c-5,4-10.999,2.3-14.399-2.399c-2.8-4.7-3.999-15.999-2.399-35.697
	c1.8-19.698,6.3-40.697,11.999-47.196c6-6.6,10.799-1.8,12.599,0c0,0,7.7,6.999,20.699,27.697l2.199,3.8
	c0,0,11.8,19.699,12.999,19.599c0,0,1,1,1.8,0.2c1.2-0.3,0.8-6.699,0.8-6.699s-2.199-21.299-13.198-57.296c0,0-1.601-4.6-0.5-8.999
	c1-4,5.299-2,5.299-2s16.6,7.999,24.698,34.997c8,26.998,2.601,51.496-0.399,58.796 M429.594,118.491c-1.6,2.8-2.3,6.699-9.199,7.8
	c0,0-66.995,4.699-70.295,9.398c0,0-2.199,2.8,1.4,3.5c3.8,0.8,18.998,2.8,26.198,3.2c7.799,0,33.997,0.199,43.597,11.999
	c0,0,5.499,5.6,5.299,18.298c-0.199,12.999-2.499,17.599-7.599,22.299c-5.3,4.399-50.696,24.798-79.994-6.399
	c0,0-13.399-14.999,4.699-26.398c0,0,12.999-7.999,46.297,1.3c0,0,9.999,3.601,9.599,7.3c-0.6,4-8.299,7.999-19.498,7.8
	c-10.799-0.301-18.799-5.5-17.198-4.6c1.499,0.5-11.699-6.4-15.799-1.7c-4,4.399-3,6.999,1,9.699
	c9.999,5.8,49.296,3.699,60.995-9.399c0,0,4.699-5.3-2.4-9.6c-6.999-3.999-27.397-6.499-35.297-6.799c-7.5-0.4-35.598,0-39.797-7.3
	c0,0-4-5.199,0.399-19.398c4.6-14.999,37.298-20.798,51.496-21.998c0,0,38.997-1.6,46.297,6.399c0,0,1,1.8-0.2,4.5 M319.002,206.385
	c-4.699,3.499-14.698,1.999-17.598-2c-2.8-3.5-3.8-17.299-3.3-38.997c0.7-22.198,1-49.396,6-53.796c5-4.3,7.999-0.5,9.999,2.399
	c2,3,4.6,6.3,5,13.199c0.6,6.999,2.3,42.997,2.3,42.997s2.199,32.797-2.3,36.197 M329.002,89.393
	c-13.799,4.699-23.199,3.199-31.198-0.3c-3.5,6.299-5.6,8.199-8.2,8.599c-4,0.4-7.5-5.999-7.999-7.999
	c-0.8-1.5-2.7-4.199-0.4-10.299c-7.799-7-8.399-16.399-6.999-22.698c1.8-7.399,14.999-35.197,54.995-38.497
	c0,0,19.599-1.4,22.999,8.999h0.6c0,0,18.998,0,18.599,16.999c0,16.998-20.998,38.196-42.396,45.496 M346.8,40.997
	c-12.599,2-31.997,18.799-41.296,32.697c14.299,2.6,39.297,1.6,50.497-20.998C356,52.696,361.299,38.497,346.8,40.997
	 M291.504,51.996c-4,6.5-4.2,10.399-2.3,12.999c4.7-6.999,12.999-17.998,25.499-26.598
	C305.104,39.397,297.004,43.396,291.504,51.996 M632.179,205.684c-9.199,22.598-16.999,45.496-21.499,79.794
	c0,0-1,6.699-6.499,4.499c-5.5-1.999-14.499-10.999-16.499-23.697c-2-16.6,5.399-44.597,20.499-76.795
	c-4.4-6.999-7.5-17.398-5-31.997c0,0,4-26.998,30.997-51.396c0,0,3.2-2.699,5-1.8c2.2,1,1.3,9.6-0.5,13.999
	c-1.6,4.2-13.599,24.998-13.599,24.998s-7.5,14.199-5.399,25.298c14.198-21.798,46.496-65.994,66.494-51.996
	c12.699,9,12.699,37.997,3.2,54.796c-7.499,13.3-28.698,40.797-56.996,34.397 M673.976,137.79
	c-7.399,7.999-20.599,23.198-30.998,43.796c10.999-1.199,21.698-7.299,24.998-10.398c5.3-4.7,17.499-17.399,15.599-34.198
	C683.574,136.989,682.374,128.19,673.976,137.79 M226.01,217.483c-35.397,10.799-68.795,5.8-86.994,1
	c-0.5,7.399-1.3,10.499-2.5,11.699c-1.4,1.6-12.999,8.199-19.399-1.2c-2.8-4.499-4.2-12.599-5-19.998
	c-40.997-18.599-59.995-45.997-60.595-46.996c-1-1-10.299-10.699-1-22.699c8.699-10.799,37.497-21.698,63.295-25.997
	c1-21.999,3.399-38.997,6.499-46.497c3.7-8.999,8.399-1,12.599,5c3.4,4.499,5.5,23.798,5.7,39.197
	c16.799-0.801,26.998,0.399,45.696,3.999c24.598,4.2,40.997,16.799,39.697,30.998c-1.2,13.999-13.999,19.798-18.999,20.198
	s-12.999-3.3-12.999-3.3c-5.6-2.6-0.5-5,6-7.8c7.199-3.499,5.6-6.999,5.6-6.999c-2.6-7.999-34.498-13.299-66.195-13.299
	c0,17.498,0.7,46.496,1.2,63.395c22.198,4.2,38.797,3.3,38.797,3.3s80.994-2.3,83.294-53.995
	c2.5-51.797-80.994-101.393-142.489-116.991c-61.396-16.099-96.192-4.7-99.192-3.2c-3.3,1.601-0.3,2.2-0.3,2.2s3.3,0.5,9.299,2.5
	s1.2,4.999,1.2,4.999c-10.499,3.6-22.198,1.5-24.498-3.3c-2.3-4.699,1.5-8.999,6-15.299c4.2-6.499,9-6.299,9-6.299
	C95.72-14.399,188.512,33.097,188.512,33.097c86.793,43.797,101.592,95.293,99.993,115.291c-1.4,19.698-9,52.996-62.495,69.195
	 M59.022,145.989c-8.6,3.999-2.6,10.399-2.6,10.399c16.199,17.298,35.998,28.197,54.996,34.997c2.2-29.998,2-40.697,2-55.796
	C84.021,137.59,67.021,142.389,59.022,145.989"/>
</svg>
