<?xml version="1.0" encoding="utf-8"?>
<!-- Generator: Adobe Illustrator 16.0.0, SVG Export Plug-In . SVG Version: 6.00 Build 0)  -->
<!DOCTYPE svg PUBLIC "-//W3C//DTD SVG 1.1//EN" "http://www.w3.org/Graphics/SVG/1.1/DTD/svg11.dtd">
<svg version="1.1"
	 id="svg3106" xmlns:dc="http://purl.org/dc/elements/1.1/" xmlns:cc="http://creativecommons.org/ns#" xmlns:rdf="http://www.w3.org/1999/02/22-rdf-syntax-ns#" xmlns:svg="http://www.w3.org/2000/svg" xmlns:sodipodi="http://sodipodi.sourceforge.net/DTD/sodipodi-0.dtd" xmlns:inkscape="http://www.inkscape.org/namespaces/inkscape" sodipodi:docname="Dollar Tree.svg" inkscape:version="0.92.4 (5da689c313, 2019-01-14)"
	 xmlns="http://www.w3.org/2000/svg" xmlns:xlink="http://www.w3.org/1999/xlink" x="0px" y="0px" width="1000px" height="1000px"
	 viewBox="0 -254.771 1000 1000" enable-background="new 0 -254.771 1000 1000" xml:space="preserve">
<sodipodi:namedview  inkscape:cy="316.13565" inkscape:cx="345.79114" inkscape:zoom="0.79466648" fit-margin-left="0.5" fit-margin-top="0.5" showgrid="false" borderopacity="1.0" pagecolor="#ffffff" bordercolor="#666666" id="base" inkscape:window-height="1017" inkscape:window-width="1920" inkscape:pageshadow="2" inkscape:pageopacity="0.0" inkscape:current-layer="layer1" inkscape:window-maximized="1" inkscape:window-y="-8" inkscape:window-x="-8" fit-margin-right="0.5" fit-margin-bottom="0.5" inkscape:document-units="px">
	</sodipodi:namedview>
<g id="layer1" transform="translate(-195.27646,158.37396)" inkscape:label="Layer 1" inkscape:groupmode="layer">
	<g id="g1697">
		<g id="g1619">
			<g id="g4011" transform="matrix(6.0429832,0,0,-6.0429832,675.48055,64.826376)">
				<path id="path4013" inkscape:connector-curvature="0" fill="#231F20" d="M0,0v-15.495c-0.103-3.838-0.184-3.92-0.247-4.044
					c-0.144-0.145-0.206-0.31-0.413-0.516c-0.165-0.145-0.412-0.454-0.68-0.517c-0.207-0.143-0.393-0.288-0.515-0.288
					c0-0.062-0.083-0.062-0.207-0.062c0,0-0.083-0.062-0.145-0.062c-0.061-0.082-0.061-0.082,0-0.144H9.574v0.144
					c-0.081,0.062-0.081,0.062-0.205,0.062c-0.145,0.062-0.207,0.144-0.455,0.268c-0.206,0.145-0.474,0.454-0.66,0.599
					c-0.269,0.269-0.33,0.516-0.413,0.64c-0.061,0.144-0.123,0.205-0.123,6.148v29.815L-2.516,6.397
					c0.661,0.289,1.609,0.123,2.063-0.434C0,5.468,0,4.374,0,0"/>
			</g>
			<g id="g4015" transform="matrix(6.0429832,0,0,-6.0429832,516.14521,19.330569)">
				<path id="path4017" inkscape:connector-curvature="0" fill="#6BC856" d="M0,0c0,1.019,0.052,2.027,0.153,3.02l26.15,26.15
					c0.996,0.103,2.006,0.155,3.027,0.154c1.415,0,2.805-0.101,4.166-0.294L0.294-4.172C0.101-2.809,0-1.416,0,0"/>
			</g>
			<g id="g4019" transform="matrix(6.0429832,0,0,-6.0429832,577.49418,153.43826)">
				<path id="path4021" inkscape:connector-curvature="0" fill="#6BC856" d="M0,0c-1.311,1.133-2.52,2.382-3.613,3.728
					l16.009,16.006c0.657,0.286,1.865,0.132,2.315-0.422c0.327-0.448,0.324-0.819,0.368-4.233L0,0"/>
			</g>
			<g id="g4023" transform="matrix(6.0429832,0,0,-6.0429832,804.93878,-118.36787)">
				<path id="path4025" inkscape:connector-curvature="0" fill="#6BC856" d="M0,0c1.347-1.092,2.595-2.301,3.729-3.611
					l-16.153-16.154v7.341L0,0"/>
			</g>
			<g id="g4027" transform="matrix(6.0429832,0,0,-6.0429832,770.63397,-140.19331)">
				<path id="path4029" inkscape:connector-curvature="0" fill="#6BC856" d="M0,0c1.614-0.783,3.145-1.71,4.577-2.763l-41-41
					c-1.053,1.432-1.98,2.964-2.762,4.578L0,0"/>
			</g>
			<g id="g4031" transform="matrix(6.0429832,0,0,-6.0429832,728.60925,-154.37196)">
				<path id="path4033" inkscape:connector-curvature="0" fill="#6BC856" d="M0,0c1.948-0.394,3.827-0.98,5.614-1.738L-32.84-40.192
					c-0.759,1.787-1.345,3.665-1.739,5.613L0,0"/>
			</g>
			<g id="g4035" transform="matrix(6.0429832,0,0,-6.0429832,519.02228,-12.642251)">
				<path id="path4037" inkscape:connector-curvature="0" fill="#6BC856" d="M0,0c2.176,11.954,11.601,21.379,23.556,23.557L0,0"/>
			</g>
			<g id="g4039" transform="matrix(6.0429832,0,0,-6.0429832,831.84637,128.18283)">
				<path id="path4041" inkscape:connector-curvature="0" fill="#0FAA4B" d="M0,0c-1.083-1.358-2.287-2.619-3.591-3.766
					L-16.914,9.558v7.357L0,0"/>
			</g>
			<g id="g4043" transform="matrix(6.0429832,0,0,-6.0429832,854.05494,95.044314)">
				<path id="path4045" inkscape:connector-curvature="0" fill="#0FAA4B" d="M0,0c-0.766-1.605-1.509-2.995-2.542-4.422
					L-20.554,13.59l3.479,3.478L0,0"/>
			</g>
			<g id="g4047" transform="matrix(6.0429832,0,0,-6.0429832,867.95138,52.88242)">
				<path id="path4049" inkscape:connector-curvature="0" fill="#0FAA4B" d="M0,0c-0.38-1.953-0.953-3.836-1.699-5.629
					l-16.702,16.694l3.67,3.671L0,0"/>
			</g>
			<g id="g4051" transform="matrix(6.0429832,0,0,-6.0429832,812.89316,-70.11646)">
				<path id="path4053" inkscape:connector-curvature="0" fill="#0FAA4B" d="M0,0l3.307,3.308C6.134-0.286,8.216-4.467,9.118-9.13
					L0,0"/>
			</g>
			<g id="g4055" transform="matrix(6.0429832,0,0,-6.0429832,807.00246,-64.232407)">
				<path id="path4057" inkscape:connector-curvature="0" fill="#0FAA4B" d="M0,0l10.442-10.455c0.12-1.082,0.183-2.181,0.183-3.295
					c0-1.342-0.09-2.663-0.263-3.957L-3.67-3.67L0,0"/>
			</g>
		</g>
		<g id="g1645">
			<g id="g1593">
				<g id="g4059" transform="matrix(6.0429832,0,0,-6.0429832,886.7082,257.26759)">
					<path id="path4061" inkscape:connector-curvature="0" fill="#0A974B" d="M0,0l-2.464-11.872l-5.18-0.001l2.442,11.861
						l-4.779-0.002l0.859,4.102L5.597,4.092l-0.84-4.09L0,0z"/>
				</g>
				<g id="g4063" transform="matrix(6.0429832,0,0,-6.0429832,1130.2422,305.88762)">
					<path id="path4065" inkscape:connector-curvature="0" fill="#0A974B" d="M0,0l6.851,0.002L6.063-3.81L-6.001-3.814
						l3.299,15.963l11.855,0.003L8.368,8.34l-6.64-0.002L1.29,6.196l6.143,0.003l-0.8-3.808L0.492,2.389L0,0z"/>
				</g>
				<g id="g4067" transform="matrix(6.0429832,0,0,-6.0429832,1043.2015,305.91663)">
					<path id="path4069" inkscape:connector-curvature="0" fill="#0A974B" d="M0,0l6.85,0.002L6.065-3.811L-6-3.816l3.296,15.965
						l11.856,0.003L8.366,8.34H1.735L1.294,6.198h6.14L6.631,2.391L0.496,2.39L0,0z"/>
				</g>
				<g id="g4071" transform="matrix(6.0429832,0,0,-6.0429832,952.63533,271.02142)">
					<path id="path4073" inkscape:connector-curvature="0" fill="#0A974B" d="M0,0l1.99,0.001c0.953,0.002,1.632,0.631,1.79,1.387
						C3.8,1.489,3.811,1.582,3.811,1.667c0,0.256-0.083,0.46-0.207,0.598C3.48,2.414,3.366,2.539,2.669,2.539L0.53,2.538L0,0z
						 M-0.785-3.819l-1.196-5.774l-5.194-0.001l3.314,15.963l7.607,0.003c2.584,0,3.321-0.339,3.976-0.824
						C8.53,4.951,8.98,3.989,8.985,2.865C8.981,2.562,8.947,2.247,8.883,1.924C8.554,0.337,7.577-0.957,5.927-1.689
						c0.871-0.543,1.319-1.417,1.317-2.519C7.247-4.31,7.242-4.411,7.237-4.514L7.059-7.013C7.052-7.149,7.044-7.277,7.044-7.424
						c0-0.349,0.038-0.797,0.176-1.578L7.319-9.59H6.741l-4.36-0.001L2.002-9.592l-0.093,0.38C1.838-8.923,1.774-8.66,1.774-8.177
						c0,0.233,0.013,0.508,0.042,0.861L2.024-4.82c0.005,0.066,0.011,0.128,0.01,0.184c0.001,0.547-0.207,0.818-0.972,0.817H-0.785z
						"/>
				</g>
			</g>
			<g id="g1583">
				<g id="g4075" transform="matrix(6.0429832,0,0,-6.0429832,438.56902,304.43187)">
					<path id="path4077" inkscape:connector-curvature="0" fill="#0A974B" d="M0,0l6.439,0.001L5.596-4.07l-11.63-0.003
						l3.314,15.964l5.176,0.002L0,0z"/>
				</g>
				<g id="g4079" transform="matrix(6.0429832,0,0,-6.0429832,517.78286,304.41434)">
					<path id="path4081" inkscape:connector-curvature="0" fill="#0A974B" d="M0,0l6.436,0.003L5.595-4.068L-6.034-4.072
						l3.31,15.964l5.18,0.001L0,0z"/>
				</g>
				<g id="g4083" transform="matrix(6.0429832,0,0,-6.0429832,347.44084,307.52406)">
					<path id="path4085" inkscape:connector-curvature="0" fill="#0A974B" d="M0,0c1.199,0,2.932,0.903,3.669,4.479
						c0.144,0.697,0.206,1.294,0.205,1.794c0,2.001-0.968,2.519-1.926,2.519C0.677,8.791-1.066,7.875-1.815,4.27
						c-0.148-0.725-0.214-1.335-0.214-1.841C-2.028,0.501-1.119,0,0,0 M-0.66-3.981l-0.092-0.001c-0.935,0-1.28,0.082-1.518,0.143
						c-0.057,0.014-0.077,0.018-0.098,0.025c-1.629,0.278-2.767,0.955-3.617,2.03c-0.747,0.951-1.22,2.244-1.221,3.952
						c0,0.729,0.084,1.529,0.264,2.406c1.058,5.068,4.758,8.172,9.44,8.176c2.576-0.001,4.078-0.739,5.16-1.978
						C8.53,9.775,9.073,8.438,9.073,6.603c0.001-0.741-0.088-1.564-0.278-2.475c-0.482-2.33-1.517-4.112-2.976-5.519
						C4.196-2.956,2.298-3.964-0.66-3.981"/>
				</g>
				<g id="g4087" transform="matrix(6.0429832,0,0,-6.0429832,231.97997,305.97706)">
					<path id="path4089" inkscape:connector-curvature="0" fill="#0A974B" d="M0,0l1.106,0.007c1.377,0.01,2.346,0.475,3.116,1.28
						c0.653,0.685,1.243,1.752,1.471,2.852c0.103,0.48,0.148,0.919,0.151,1.31C5.841,7.336,4.767,8.283,2.996,8.283L1.713,8.282L0,0
						z M-5.991-3.827l3.308,15.962l7.567,0.002c2.311,0.001,4.25-1.007,5.181-2.329c0.598-0.844,0.982-2.072,0.982-3.586
						c0-0.646-0.071-1.348-0.228-2.1C10.25,1.349,8.966-0.6,7.444-1.854C5.637-3.352,3.663-3.826,1.683-3.825L-5.991-3.827z"/>
				</g>
				<g id="g4091" transform="matrix(6.0429832,0,0,-6.0429832,722.03207,270.96341)">
					<path id="path4093" inkscape:connector-curvature="0" fill="#0A974B" d="M0,0l1.992,0.001C2.941,0,3.619,0.629,3.775,1.385
						c0.024,0.099,0.032,0.194,0.033,0.28C3.807,1.921,3.727,2.123,3.602,2.262C3.479,2.408,3.364,2.537,2.675,2.536L0.53,2.535L0,0
						z M-0.786-3.822l-1.197-5.772L-7.16-9.596l3.297,15.962l7.611,0.002c2.579,0.003,3.317-0.339,3.977-0.822
						c0.804-0.598,1.254-1.56,1.255-2.683c0-0.303-0.033-0.619-0.101-0.941C8.555,0.333,7.573-0.963,5.926-1.692
						c0.872-0.543,1.317-1.416,1.318-2.521c-0.001-0.1-0.004-0.2-0.011-0.303L7.058-7.017C7.049-7.153,7.044-7.283,7.042-7.426
						c0.002-0.35,0.039-0.798,0.177-1.579L7.32-9.591H6.74L2.377-9.593H1.999L1.907-9.215c-0.07,0.289-0.133,0.55-0.134,1.04
						c0.001,0.228,0.014,0.503,0.045,0.852l0.206,2.5C2.03-4.755,2.032-4.695,2.032-4.639c0,0.548-0.206,0.817-0.972,0.817H-0.786z"
						/>
				</g>
				<g id="g4095" transform="matrix(6.0429832,0,0,-6.0429832,615.24591,287.54415)">
					<path id="path4097" inkscape:connector-curvature="0" fill="#0A974B" d="M0,0l2.51-0.006C2.358,1.06,2.185,2.548,2.059,3.843
						C1.521,2.76,0.867,1.524,0,0 M-2.199-3.81l-1.745-3.047L-9.12-6.859L0.598,9.105l5.425,0.003l3.008-15.96L3.647-6.855
						L3.142-3.809L-2.199-3.81z"/>
				</g>
			</g>
			<g id="g4099" transform="matrix(6.0429832,0,0,-6.0429832,1182.2016,317.34029)">
				<path id="path4101" inkscape:connector-curvature="0" fill="#0A974B" d="M0,0l0.281-0.001c0.317,0,0.463,0.088,0.463,0.304
					c0,0.226-0.156,0.32-0.482,0.322H0V0z M0.341,0.893c0.563,0,0.843-0.193,0.843-0.542c0-0.289-0.158-0.487-0.444-0.55
					l0.444-0.905H0.706L0.312-0.266H0v-0.835h-0.427v1.997L0.341,0.893z M-0.758,0.953C-1.054,0.652-1.217,0.267-1.217-0.13
					c0-0.399,0.153-0.777,0.438-1.067c0.291-0.291,0.671-0.455,1.055-0.455c0.42-0.003,0.8,0.149,1.101,0.442
					C1.663-0.937,1.82-0.563,1.82-0.163c0,0.429-0.149,0.8-0.434,1.092C1.091,1.224,0.721,1.384,0.3,1.384
					C-0.114,1.384-0.472,1.237-0.758,0.953 M1.574,1.109c0.33-0.335,0.507-0.769,0.507-1.247c0-0.495-0.181-0.931-0.522-1.263
					C1.208-1.739,0.761-1.92,0.296-1.919C-0.177-1.918-0.625-1.726-0.965-1.38c-0.336,0.342-0.518,0.779-0.518,1.25
					c0,0.472,0.192,0.925,0.537,1.271c0.335,0.333,0.76,0.505,1.242,0.504C0.785,1.643,1.228,1.462,1.574,1.109"/>
			</g>
		</g>
	</g>
</g>
</svg>
