<svg enable-background="new 0 -254.771 1000 1000" height="1000" viewBox="0 -254.771 1000 1000" width="1000" xmlns="http://www.w3.org/2000/svg"><path d="m0 0v-15.495c-.103-3.838-.184-3.92-.247-4.044-.144-.145-.206-.31-.413-.516-.165-.145-.412-.454-.68-.517-.207-.143-.393-.288-.515-.288 0-.062-.083-.062-.207-.062 0 0-.083-.062-.145-.062-.061-.082-.061-.082 0-.144h11.781v.144c-.081.062-.081.062-.205.062-.145.062-.207.144-.455.268-.206.145-.474.454-.66.599-.269.269-.33.516-.413.64-.061.144-.123.205-.123 6.148v29.815l-10.234-10.151c.661.289 1.609.123 2.063-.434.453-.495.453-1.589.453-5.963" fill="#231f20" transform="matrix(6.0429832 0 0 -6.0429832 480.20409 223.200336)"/><g fill="#6bc856"><path d="m0 0c0 1.019.052 2.027.153 3.02l26.15 26.15c.996.103 2.006.155 3.027.154 1.415 0 2.805-.101 4.166-.294l-33.202-33.202c-.193 1.363-.294 2.756-.294 4.172" transform="matrix(6.0429832 0 0 -6.0429832 320.86875 177.704529)"/><path d="m0 0c-1.311 1.133-2.52 2.382-3.613 3.728l16.009 16.006c.657.286 1.865.132 2.315-.422.327-.448.324-.819.368-4.233z" transform="matrix(6.0429832 0 0 -6.0429832 382.21772 311.81222)"/><path d="m0 0c1.347-1.092 2.595-2.301 3.729-3.611l-16.153-16.154v7.341z" transform="matrix(6.0429832 0 0 -6.0429832 609.66232 40.00609)"/><path d="m0 0c1.614-.783 3.145-1.71 4.577-2.763l-41-41c-1.053 1.432-1.98 2.964-2.762 4.578z" transform="matrix(6.0429832 0 0 -6.0429832 575.35751 18.18065)"/><path d="m0 0c1.948-.394 3.827-.98 5.614-1.738l-38.454-38.454c-.759 1.787-1.345 3.665-1.739 5.613z" transform="matrix(6.0429832 0 0 -6.0429832 533.33279 4.002)"/><path d="m0 0c2.176 11.954 11.601 21.379 23.556 23.557z" transform="matrix(6.0429832 0 0 -6.0429832 323.74582 145.731709)"/></g><g fill="#0faa4b"><path d="m0 0c-1.083-1.358-2.287-2.619-3.591-3.766l-13.323 13.324v7.357z" transform="matrix(6.0429832 0 0 -6.0429832 636.56991 286.55679)"/><path d="m0 0c-.766-1.605-1.509-2.995-2.542-4.422l-18.012 18.012 3.479 3.478z" transform="matrix(6.0429832 0 0 -6.0429832 658.77848 253.418274)"/><path d="m0 0c-.38-1.953-.953-3.836-1.699-5.629l-16.702 16.694 3.67 3.671z" transform="matrix(6.0429832 0 0 -6.0429832 672.67492 211.25638)"/><path d="m0 0 3.307 3.308c2.827-3.594 4.909-7.775 5.811-12.438z" transform="matrix(6.0429832 0 0 -6.0429832 617.6167 88.2575)"/><path d="m0 0 10.442-10.455c.12-1.082.183-2.181.183-3.295 0-1.342-.09-2.663-.263-3.957l-14.032 14.037z" transform="matrix(6.0429832 0 0 -6.0429832 611.726 94.141553)"/></g><g fill="#0a974b"><path d="m0 0-2.464-11.872-5.18-.001 2.442 11.861-4.779-.002.859 4.102 14.719.004-.84-4.09z" transform="matrix(6.0429832 0 0 -6.0429832 691.43174 415.64155)"/><path d="m0 0 6.851.002-.788-3.812-12.064-.004 3.299 15.963 11.855.003-.785-3.812-6.64-.002-.438-2.142 6.143.003-.8-3.808-6.141-.002z" transform="matrix(6.0429832 0 0 -6.0429832 934.96574 464.26158)"/><path d="m0 0 6.85.002-.785-3.813-12.065-.005 3.296 15.965 11.856.003-.786-3.812h-6.631l-.441-2.142h6.14l-.803-3.807-6.135-.001z" transform="matrix(6.0429832 0 0 -6.0429832 847.92504 464.29059)"/><path d="m0 0 1.99.001c.953.002 1.632.631 1.79 1.387.02.101.031.194.031.279 0 .256-.083.46-.207.598-.124.149-.238.274-.935.274l-2.139-.001zm-.785-3.819-1.196-5.774-5.194-.001 3.314 15.963 7.607.003c2.584 0 3.321-.339 3.976-.824.808-.597 1.258-1.559 1.263-2.683-.004-.303-.038-.618-.102-.941-.329-1.587-1.306-2.881-2.956-3.613.871-.543 1.319-1.417 1.317-2.519.003-.102-.002-.203-.007-.306l-.178-2.499c-.007-.136-.015-.264-.015-.411 0-.349.038-.797.176-1.578l.099-.588h-.578l-4.36-.001-.379-.001-.093.38c-.071.289-.135.552-.135 1.035 0 .233.013.508.042.861l.208 2.496c.005.066.011.128.01.184.001.547-.207.818-.972.817z" transform="matrix(6.0429832 0 0 -6.0429832 757.35887 429.39538)"/><path d="m0 0 6.439.001-.843-4.071-11.63-.003 3.314 15.964 5.176.002z" transform="matrix(6.0429832 0 0 -6.0429832 243.29256 462.80583)"/><path d="m0 0 6.436.003-.841-4.071-11.629-.004 3.31 15.964 5.18.001z" transform="matrix(6.0429832 0 0 -6.0429832 322.5064 462.7883)"/><path d="m0 0c1.199 0 2.932.903 3.669 4.479.144.697.206 1.294.205 1.794 0 2.001-.968 2.519-1.926 2.519-1.271-.001-3.014-.917-3.763-4.522-.148-.725-.214-1.335-.214-1.841.001-1.928.91-2.429 2.029-2.429m-.66-3.981-.092-.001c-.935 0-1.28.082-1.518.143-.057.014-.077.018-.098.025-1.629.278-2.767.955-3.617 2.03-.747.951-1.22 2.244-1.221 3.952 0 .729.084 1.529.264 2.406 1.058 5.068 4.758 8.172 9.44 8.176 2.576-.001 4.078-.739 5.16-1.978.872-.997 1.415-2.334 1.415-4.169.001-.741-.088-1.564-.278-2.475-.482-2.33-1.517-4.112-2.976-5.519-1.623-1.565-3.521-2.573-6.479-2.59" transform="matrix(6.0429832 0 0 -6.0429832 152.16438 465.89802)"/><path d="m0 0 1.106.007c1.377.01 2.346.475 3.116 1.28.653.685 1.243 1.752 1.471 2.852.103.48.148.919.151 1.31-.003 1.887-1.077 2.834-2.848 2.834l-1.283-.001zm-5.991-3.827 3.308 15.962 7.567.002c2.311.001 4.25-1.007 5.181-2.329.598-.844.982-2.072.982-3.586 0-.646-.071-1.348-.228-2.1-.569-2.773-1.853-4.722-3.375-5.976-1.807-1.498-3.781-1.972-5.761-1.971z" transform="matrix(6.0429832 0 0 -6.0429832 36.70351 464.35102)"/><path d="m0 0 1.992.001c.949-.001 1.627.628 1.783 1.384.024.099.032.194.033.28-.001.256-.081.458-.206.597-.123.146-.238.275-.927.274l-2.145-.001zm-.786-3.822-1.197-5.772-5.177-.002 3.297 15.962 7.611.002c2.579.003 3.317-.339 3.977-.822.804-.598 1.254-1.56 1.255-2.683 0-.303-.033-.619-.101-.941-.324-1.589-1.306-2.885-2.953-3.614.872-.543 1.317-1.416 1.318-2.521-.001-.1-.004-.2-.011-.303l-.175-2.501c-.009-.136-.014-.266-.016-.409.002-.35.039-.798.177-1.579l.101-.586h-.58l-4.363-.002h-.378l-.092.378c-.07.289-.133.55-.134 1.04.001.228.014.503.045.852l.206 2.5c.006.068.008.128.008.184 0 .548-.206.817-.972.817z" transform="matrix(6.0429832 0 0 -6.0429832 526.75561 429.33737)"/><path d="m0 0 2.51-.006c-.152 1.066-.325 2.554-.451 3.849-.538-1.083-1.192-2.319-2.059-3.843m-2.199-3.81-1.745-3.047-5.176-.002 9.718 15.964 5.425.003 3.008-15.96-5.384-.003-.505 3.046z" transform="matrix(6.0429832 0 0 -6.0429832 419.96945 445.91811)"/><path d="m0 0 .281-.001c.317 0 .463.088.463.304 0 .226-.156.32-.482.322h-.262zm.341.893c.563 0 .843-.193.843-.542 0-.289-.158-.487-.444-.55l.444-.905h-.478l-.394.838h-.312v-.835h-.427v1.997zm-1.099.06c-.296-.301-.459-.686-.459-1.083 0-.399.153-.777.438-1.067.291-.291.671-.455 1.055-.455.42-.003.8.149 1.101.442.286.273.443.647.443 1.047 0 .429-.149.8-.434 1.092-.295.295-.665.455-1.086.455-.414 0-.772-.147-1.058-.431m2.332.156c.33-.335.507-.769.507-1.247 0-.495-.181-.931-.522-1.263-.351-.338-.798-.519-1.263-.518-.473.001-.921.193-1.261.539-.336.342-.518.779-.518 1.25 0 .472.192.925.537 1.271.335.333.76.505 1.242.504.489-.002.932-.183 1.278-.536" transform="matrix(6.0429832 0 0 -6.0429832 986.92514 475.71425)"/></g></svg>