<?xml version="1.0" encoding="UTF-8" standalone="no"?>
<!-- Created with Inkscape (http://www.inkscape.org/) -->

<svg
   xmlns:dc="http://purl.org/dc/elements/1.1/"
   xmlns:cc="http://creativecommons.org/ns#"
   xmlns:rdf="http://www.w3.org/1999/02/22-rdf-syntax-ns#"
   xmlns:svg="http://www.w3.org/2000/svg"
   xmlns="http://www.w3.org/2000/svg"
   xmlns:sodipodi="http://sodipodi.sourceforge.net/DTD/sodipodi-0.dtd"
   xmlns:inkscape="http://www.inkscape.org/namespaces/inkscape"
   width="1000"
   height="490.45755"
   id="svg3106"
   version="1.1"
   inkscape:version="0.92.4 (5da689c313, 2019-01-14)"
   sodipodi:docname="Dollar Tree.svg">
  <defs
     id="defs3108">
    <clipPath
       clipPathUnits="userSpaceOnUse"
       id="clipPath4007">
      <path
         inkscape:connector-curvature="0"
         d="m 224.198,595.335 165.316,0 0,80.997 -165.316,0 0,-80.997 z"
         id="path4009" />
    </clipPath>
  </defs>
  <sodipodi:namedview
     id="base"
     pagecolor="#ffffff"
     bordercolor="#666666"
     borderopacity="1.0"
     inkscape:pageopacity="0.0"
     inkscape:pageshadow="2"
     inkscape:zoom="0.79466648"
     inkscape:cx="345.79114"
     inkscape:cy="316.13565"
     inkscape:document-units="px"
     inkscape:current-layer="layer1"
     showgrid="false"
     fit-margin-left="0.5"
     fit-margin-bottom="0.5"
     fit-margin-top="0.5"
     fit-margin-right="0.5"
     inkscape:window-width="1920"
     inkscape:window-height="1017"
     inkscape:window-x="-8"
     inkscape:window-y="-8"
     inkscape:window-maximized="1" />
  <metadata
     id="metadata3111">
    <rdf:RDF>
      <cc:Work
         rdf:about="">
        <dc:format>image/svg+xml</dc:format>
        <dc:type
           rdf:resource="http://purl.org/dc/dcmitype/StillImage" />
        <dc:title></dc:title>
      </cc:Work>
    </rdf:RDF>
  </metadata>
  <g
     inkscape:label="Layer 1"
     inkscape:groupmode="layer"
     id="layer1"
     transform="translate(-195.27646,158.37396)">
    <g
       id="g1697">
      <g
         id="g1619">
        <g
           id="g4011"
           transform="matrix(6.0429832,0,0,-6.0429832,675.48055,64.826376)">
          <path
             d="m 0,0 v -15.495 c -0.103,-3.838 -0.184,-3.92 -0.247,-4.044 -0.144,-0.145 -0.206,-0.31 -0.413,-0.516 -0.165,-0.145 -0.412,-0.454 -0.68,-0.517 -0.207,-0.143 -0.393,-0.288 -0.515,-0.288 0,-0.062 -0.083,-0.062 -0.207,-0.062 0,0 -0.083,-0.062 -0.145,-0.062 -0.061,-0.082 -0.061,-0.082 0,-0.144 H 9.574 v 0.144 c -0.081,0.062 -0.081,0.062 -0.205,0.062 -0.145,0.062 -0.207,0.144 -0.455,0.268 -0.206,0.145 -0.474,0.454 -0.66,0.599 -0.269,0.269 -0.33,0.516 -0.413,0.64 -0.061,0.144 -0.123,0.205 -0.123,6.148 V 16.548 L -2.516,6.397 C -1.855,6.686 -0.907,6.52 -0.453,5.963 0,5.468 0,4.374 0,0"
             style="fill:#231f20;fill-opacity:1;fill-rule:nonzero;stroke:none"
             id="path4013"
             inkscape:connector-curvature="0" />
        </g>
        <g
           id="g4015"
           transform="matrix(6.0429832,0,0,-6.0429832,516.14521,19.330569)">
          <path
             d="m 0,0 c 0,1.019 0.052,2.027 0.153,3.02 l 26.15,26.15 c 0.996,0.103 2.006,0.155 3.027,0.154 1.415,0 2.805,-0.101 4.166,-0.294 L 0.294,-4.172 C 0.101,-2.809 0,-1.416 0,0"
             style="fill:#6bc856;fill-opacity:1;fill-rule:evenodd;stroke:none"
             id="path4017"
             inkscape:connector-curvature="0" />
        </g>
        <g
           id="g4019"
           transform="matrix(6.0429832,0,0,-6.0429832,577.49418,153.43826)">
          <path
             d="m 0,0 c -1.311,1.133 -2.52,2.382 -3.613,3.728 l 16.009,16.006 c 0.657,0.286 1.865,0.132 2.315,-0.422 0.327,-0.448 0.324,-0.819 0.368,-4.233 L 0,0"
             style="fill:#6bc856;fill-opacity:1;fill-rule:evenodd;stroke:none"
             id="path4021"
             inkscape:connector-curvature="0" />
        </g>
        <g
           id="g4023"
           transform="matrix(6.0429832,0,0,-6.0429832,804.93878,-118.36787)">
          <path
             d="m 0,0 c 1.347,-1.092 2.595,-2.301 3.729,-3.611 l -16.153,-16.154 v 7.341 L 0,0"
             style="fill:#6bc856;fill-opacity:1;fill-rule:evenodd;stroke:none"
             id="path4025"
             inkscape:connector-curvature="0" />
        </g>
        <g
           id="g4027"
           transform="matrix(6.0429832,0,0,-6.0429832,770.63397,-140.19331)">
          <path
             d="m 0,0 c 1.614,-0.783 3.145,-1.71 4.577,-2.763 l -41,-41 c -1.053,1.432 -1.98,2.964 -2.762,4.578 L 0,0"
             style="fill:#6bc856;fill-opacity:1;fill-rule:evenodd;stroke:none"
             id="path4029"
             inkscape:connector-curvature="0" />
        </g>
        <g
           id="g4031"
           transform="matrix(6.0429832,0,0,-6.0429832,728.60925,-154.37196)">
          <path
             d="M 0,0 C 1.948,-0.394 3.827,-0.98 5.614,-1.738 L -32.84,-40.192 c -0.759,1.787 -1.345,3.665 -1.739,5.613 L 0,0"
             style="fill:#6bc856;fill-opacity:1;fill-rule:evenodd;stroke:none"
             id="path4033"
             inkscape:connector-curvature="0" />
        </g>
        <g
           id="g4035"
           transform="matrix(6.0429832,0,0,-6.0429832,519.02228,-12.642251)">
          <path
             d="M 0,0 C 2.176,11.954 11.601,21.379 23.556,23.557 L 0,0"
             style="fill:#6bc856;fill-opacity:1;fill-rule:evenodd;stroke:none"
             id="path4037"
             inkscape:connector-curvature="0" />
        </g>
        <g
           id="g4039"
           transform="matrix(6.0429832,0,0,-6.0429832,831.84637,128.18283)">
          <path
             d="M 0,0 C -1.083,-1.358 -2.287,-2.619 -3.591,-3.766 L -16.914,9.558 v 7.357 L 0,0"
             style="fill:#0faa4b;fill-opacity:1;fill-rule:evenodd;stroke:none"
             id="path4041"
             inkscape:connector-curvature="0" />
        </g>
        <g
           id="g4043"
           transform="matrix(6.0429832,0,0,-6.0429832,854.05494,95.044314)">
          <path
             d="M 0,0 C -0.766,-1.605 -1.509,-2.995 -2.542,-4.422 L -20.554,13.59 -17.075,17.068 0,0"
             style="fill:#0faa4b;fill-opacity:1;fill-rule:evenodd;stroke:none"
             id="path4045"
             inkscape:connector-curvature="0" />
        </g>
        <g
           id="g4047"
           transform="matrix(6.0429832,0,0,-6.0429832,867.95138,52.88242)">
          <path
             d="m 0,0 c -0.38,-1.953 -0.953,-3.836 -1.699,-5.629 l -16.702,16.694 3.67,3.671 L 0,0"
             style="fill:#0faa4b;fill-opacity:1;fill-rule:evenodd;stroke:none"
             id="path4049"
             inkscape:connector-curvature="0" />
        </g>
        <g
           id="g4051"
           transform="matrix(6.0429832,0,0,-6.0429832,812.89316,-70.11646)">
          <path
             d="M 0,0 3.307,3.308 C 6.134,-0.286 8.216,-4.467 9.118,-9.13 L 0,0"
             style="fill:#0faa4b;fill-opacity:1;fill-rule:evenodd;stroke:none"
             id="path4053"
             inkscape:connector-curvature="0" />
        </g>
        <g
           id="g4055"
           transform="matrix(6.0429832,0,0,-6.0429832,807.00246,-64.232407)">
          <path
             d="m 0,0 10.442,-10.455 c 0.12,-1.082 0.183,-2.181 0.183,-3.295 0,-1.342 -0.09,-2.663 -0.263,-3.957 L -3.67,-3.67 0,0"
             style="fill:#0faa4b;fill-opacity:1;fill-rule:evenodd;stroke:none"
             id="path4057"
             inkscape:connector-curvature="0" />
        </g>
      </g>
      <g
         id="g1645">
        <g
           id="g1593">
          <g
             transform="matrix(6.0429832,0,0,-6.0429832,886.7082,257.26759)"
             id="g4059">
            <path
               inkscape:connector-curvature="0"
               id="path4061"
               style="fill:#0a974b;fill-opacity:1;fill-rule:nonzero;stroke:none"
               d="m 0,0 -2.464,-11.872 -5.18,-10e-4 2.442,11.861 -4.779,-0.002 0.859,4.102 14.719,0.004 -0.84,-4.09 z" />
          </g>
          <g
             transform="matrix(6.0429832,0,0,-6.0429832,1130.2422,305.88762)"
             id="g4063">
            <path
               inkscape:connector-curvature="0"
               id="path4065"
               style="fill:#0a974b;fill-opacity:1;fill-rule:nonzero;stroke:none"
               d="M 0,0 6.851,0.002 6.063,-3.81 -6.001,-3.814 -2.702,12.149 9.153,12.152 8.368,8.34 1.728,8.338 1.29,6.196 7.433,6.199 6.633,2.391 0.492,2.389 Z" />
          </g>
          <g
             transform="matrix(6.0429832,0,0,-6.0429832,1043.2015,305.91663)"
             id="g4067">
            <path
               inkscape:connector-curvature="0"
               id="path4069"
               style="fill:#0a974b;fill-opacity:1;fill-rule:nonzero;stroke:none"
               d="M 0,0 6.85,0.002 6.065,-3.811 -6,-3.816 -2.704,12.149 9.152,12.152 8.366,8.34 H 1.735 L 1.294,6.198 h 6.14 L 6.631,2.391 0.496,2.39 Z" />
          </g>
          <g
             transform="matrix(6.0429832,0,0,-6.0429832,952.63533,271.02142)"
             id="g4071">
            <path
               inkscape:connector-curvature="0"
               id="path4073"
               style="fill:#0a974b;fill-opacity:1;fill-rule:nonzero;stroke:none"
               d="M 0,0 1.99,0.001 C 2.943,0.003 3.622,0.632 3.78,1.388 3.8,1.489 3.811,1.582 3.811,1.667 3.811,1.923 3.728,2.127 3.604,2.265 3.48,2.414 3.366,2.539 2.669,2.539 L 0.53,2.538 Z M -0.785,-3.819 -1.981,-9.593 -7.175,-9.594 -3.861,6.369 3.746,6.372 C 6.33,6.372 7.067,6.033 7.722,5.548 8.53,4.951 8.98,3.989 8.985,2.865 8.981,2.562 8.947,2.247 8.883,1.924 8.554,0.337 7.577,-0.957 5.927,-1.689 6.798,-2.232 7.246,-3.106 7.244,-4.208 7.247,-4.31 7.242,-4.411 7.237,-4.514 L 7.059,-7.013 C 7.052,-7.149 7.044,-7.277 7.044,-7.424 c 0,-0.349 0.038,-0.797 0.176,-1.578 L 7.319,-9.59 H 6.741 l -4.36,-10e-4 -0.379,-0.001 -0.093,0.38 c -0.071,0.289 -0.135,0.552 -0.135,1.035 0,0.233 0.013,0.508 0.042,0.861 l 0.208,2.496 c 0.005,0.066 0.011,0.128 0.01,0.184 0.001,0.547 -0.207,0.818 -0.972,0.817 z" />
          </g>
        </g>
        <g
           id="g1583">
          <g
             transform="matrix(6.0429832,0,0,-6.0429832,438.56902,304.43187)"
             id="g4075">
            <path
               inkscape:connector-curvature="0"
               id="path4077"
               style="fill:#0a974b;fill-opacity:1;fill-rule:nonzero;stroke:none"
               d="M 0,0 6.439,0.001 5.596,-4.07 -6.034,-4.073 -2.72,11.891 2.456,11.893 Z" />
          </g>
          <g
             transform="matrix(6.0429832,0,0,-6.0429832,517.78286,304.41434)"
             id="g4079">
            <path
               inkscape:connector-curvature="0"
               id="path4081"
               style="fill:#0a974b;fill-opacity:1;fill-rule:nonzero;stroke:none"
               d="m 0,0 6.436,0.003 -0.841,-4.071 -11.629,-0.004 3.31,15.964 5.18,0.001 z" />
          </g>
          <g
             transform="matrix(6.0429832,0,0,-6.0429832,347.44084,307.52406)"
             id="g4083">
            <path
               inkscape:connector-curvature="0"
               id="path4085"
               style="fill:#0a974b;fill-opacity:1;fill-rule:nonzero;stroke:none"
               d="M 0,0 C 1.199,0 2.932,0.903 3.669,4.479 3.813,5.176 3.875,5.773 3.874,6.273 3.874,8.274 2.906,8.792 1.948,8.792 0.677,8.791 -1.066,7.875 -1.815,4.27 -1.963,3.545 -2.029,2.935 -2.029,2.429 -2.028,0.501 -1.119,0 0,0 m -0.66,-3.981 -0.092,-0.001 c -0.935,0 -1.28,0.082 -1.518,0.143 -0.057,0.014 -0.077,0.018 -0.098,0.025 -1.629,0.278 -2.767,0.955 -3.617,2.03 -0.747,0.951 -1.22,2.244 -1.221,3.952 0,0.729 0.084,1.529 0.264,2.406 1.058,5.068 4.758,8.172 9.44,8.176 2.576,-10e-4 4.078,-0.739 5.16,-1.978 C 8.53,9.775 9.073,8.438 9.073,6.603 9.074,5.862 8.985,5.039 8.795,4.128 8.313,1.798 7.278,0.016 5.819,-1.391 4.196,-2.956 2.298,-3.964 -0.66,-3.981" />
          </g>
          <g
             transform="matrix(6.0429832,0,0,-6.0429832,231.97997,305.97706)"
             id="g4087">
            <path
               inkscape:connector-curvature="0"
               id="path4089"
               style="fill:#0a974b;fill-opacity:1;fill-rule:nonzero;stroke:none"
               d="m 0,0 1.106,0.007 c 1.377,0.01 2.346,0.475 3.116,1.28 0.653,0.685 1.243,1.752 1.471,2.852 0.103,0.48 0.148,0.919 0.151,1.31 C 5.841,7.336 4.767,8.283 2.996,8.283 L 1.713,8.282 Z m -5.991,-3.827 3.308,15.962 7.567,0.002 c 2.311,10e-4 4.25,-1.007 5.181,-2.329 0.598,-0.844 0.982,-2.072 0.982,-3.586 0,-0.646 -0.071,-1.348 -0.228,-2.1 C 10.25,1.349 8.966,-0.6 7.444,-1.854 5.637,-3.352 3.663,-3.826 1.683,-3.825 Z" />
          </g>
          <g
             transform="matrix(6.0429832,0,0,-6.0429832,722.03207,270.96341)"
             id="g4091">
            <path
               inkscape:connector-curvature="0"
               id="path4093"
               style="fill:#0a974b;fill-opacity:1;fill-rule:nonzero;stroke:none"
               d="M 0,0 1.992,0.001 C 2.941,0 3.619,0.629 3.775,1.385 3.799,1.484 3.807,1.579 3.808,1.665 3.807,1.921 3.727,2.123 3.602,2.262 3.479,2.408 3.364,2.537 2.675,2.536 L 0.53,2.535 Z M -0.786,-3.822 -1.983,-9.594 -7.16,-9.596 -3.863,6.366 3.748,6.368 C 6.327,6.371 7.065,6.029 7.725,5.546 8.529,4.948 8.979,3.986 8.98,2.863 8.98,2.56 8.947,2.244 8.879,1.922 8.555,0.333 7.573,-0.963 5.926,-1.692 6.798,-2.235 7.243,-3.108 7.244,-4.213 7.243,-4.313 7.24,-4.413 7.233,-4.516 L 7.058,-7.017 C 7.049,-7.153 7.044,-7.283 7.042,-7.426 7.044,-7.776 7.081,-8.224 7.219,-9.005 L 7.32,-9.591 H 6.74 L 2.377,-9.593 H 1.999 l -0.092,0.378 c -0.07,0.289 -0.133,0.55 -0.134,1.04 0.001,0.228 0.014,0.503 0.045,0.852 l 0.206,2.5 c 0.006,0.068 0.008,0.128 0.008,0.184 0,0.548 -0.206,0.817 -0.972,0.817 z" />
          </g>
          <g
             transform="matrix(6.0429832,0,0,-6.0429832,615.24591,287.54415)"
             id="g4095">
            <path
               inkscape:connector-curvature="0"
               id="path4097"
               style="fill:#0a974b;fill-opacity:1;fill-rule:nonzero;stroke:none"
               d="M 0,0 2.51,-0.006 C 2.358,1.06 2.185,2.548 2.059,3.843 1.521,2.76 0.867,1.524 0,0 M -2.199,-3.81 -3.944,-6.857 -9.12,-6.859 0.598,9.105 6.023,9.108 9.031,-6.852 3.647,-6.855 3.142,-3.809 Z" />
          </g>
        </g>
        <g
           id="g4099"
           transform="matrix(6.0429832,0,0,-6.0429832,1182.2016,317.34029)">
          <path
             d="m 0,0 0.281,-0.001 c 0.317,0 0.463,0.088 0.463,0.304 0,0.226 -0.156,0.32 -0.482,0.322 H 0 Z m 0.341,0.893 c 0.563,0 0.843,-0.193 0.843,-0.542 0,-0.289 -0.158,-0.487 -0.444,-0.55 L 1.184,-1.104 H 0.706 L 0.312,-0.266 H 0 v -0.835 h -0.427 v 1.997 z m -1.099,0.06 C -1.054,0.652 -1.217,0.267 -1.217,-0.13 c 0,-0.399 0.153,-0.777 0.438,-1.067 0.291,-0.291 0.671,-0.455 1.055,-0.455 0.42,-0.003 0.8,0.149 1.101,0.442 0.286,0.273 0.443,0.647 0.443,1.047 0,0.429 -0.149,0.8 -0.434,1.092 C 1.091,1.224 0.721,1.384 0.3,1.384 -0.114,1.384 -0.472,1.237 -0.758,0.953 M 1.574,1.109 C 1.904,0.774 2.081,0.34 2.081,-0.138 2.081,-0.633 1.9,-1.069 1.559,-1.401 1.208,-1.739 0.761,-1.92 0.296,-1.919 c -0.473,0.001 -0.921,0.193 -1.261,0.539 -0.336,0.342 -0.518,0.779 -0.518,1.25 0,0.472 0.192,0.925 0.537,1.271 0.335,0.333 0.76,0.505 1.242,0.504 C 0.785,1.643 1.228,1.462 1.574,1.109"
             style="fill:#0a974b;fill-opacity:1;fill-rule:nonzero;stroke:none"
             id="path4101"
             inkscape:connector-curvature="0" />
        </g>
      </g>
    </g>
  </g>
</svg>
