<svg enable-background="new 0 0 1000 1000" height="1000" viewBox="0 0 1000 1000" width="1000" xmlns="http://www.w3.org/2000/svg"><g clip-rule="evenodd" fill-rule="evenodd"><g fill="#e01883"><path d="m562.775 585.178c0-5.86-.069-10.291.014-14.717.25-13.31-.207-26.691 1.054-39.907 1.34-14.057 11.264-21.295 26.156-20.949 12.884.299 21.903 8.812 23.33 22.086.248 2.314.373 4.652.374 6.979.023 35.499-.081 70.998.075 106.496.048 10.69-3.554 19.143-13.701 23.315-10.493 4.316-20.556 2.909-29.342-4.723-1.501-1.304-2.915-2.766-4.123-4.345-14.971-19.576-29.896-39.189-44.84-58.787-.475-.623-1.022-1.189-2.227-2.576-.17 2.463-.367 4.005-.37 5.547-.024 12.833.107 25.668-.089 38.498-.059 3.775-.588 7.662-1.64 11.283-3.599 12.385-13.143 18.34-26.797 17.12-12.149-1.086-20.469-9.146-21.921-21.405-.371-3.135-.487-6.315-.49-9.474-.033-34.166-.022-68.332-.02-102.497.001-14.254 4.881-22.539 15.437-26.237 11.755-4.119 23.816-.464 31.987 10.165 9.035 11.754 17.816 23.704 26.602 35.646 6.603 8.974 13.038 18.071 20.531 28.482z"/><path d="m632.727 590.28c0-15.83-.048-31.658.012-47.487.073-18.943 11.175-30.225 30.12-30.139 15.97.072 32.052-.419 47.885 1.245 38.84 4.081 65.652 35.001 66.817 73.998 1.454 48.634-35.653 78.852-77.825 79.499-12.994.199-25.993.082-38.989.02-16.057-.077-27.724-11.479-27.935-27.648-.215-16.493-.048-32.99-.048-49.486-.012-.002-.025-.002-.037-.002zm51.037-.266c0 8.146.042 16.292-.023 24.438-.022 2.843.922 4.381 4.042 4.175 5.457-.359 10.985-.153 16.372-.942 12.766-1.871 21.787-12.288 22.558-25.424.809-13.813-6.433-25.569-18.896-28.755-6.313-1.614-13.139-1.208-19.729-1.758-3.205-.268-4.434 1.11-4.379 4.33.136 7.975.045 15.957.055 23.936z"/><path d="m278.183 610.044c5.957 6.393 11.46 11.914 16.523 17.812 11.98 13.952 7.225 34.692-9.244 41.046-10.618 4.096-21.953.895-29.912-8.894-8.933-10.985-17.58-22.203-26.361-33.311-1.207-1.527-2.474-3.008-5.026-4.269 0 3.525.11 7.055-.024 10.576-.251 6.632.203 13.437-1.156 19.849-2.673 12.616-14.245 19.182-29.005 17.474-11.257-1.302-20.359-11.127-20.41-22.912-.161-37.161-.165-74.324.004-111.486.056-12.343 9.775-22.792 21.852-23.079 17.984-.426 36.016-.703 53.977.104 22.211 1 40.993 14.966 46.997 35.126 6.709 22.53 3.365 43.174-14.96 59.735-.843.764-1.887 1.303-3.255 2.229zm-53.98-59.685c0 10.708-.076 20.175.12 29.637.019.922 1.72 2.583 2.634 2.581 4.296-.018 8.711.03 12.857-.93 7.02-1.626 11.074-7.356 11.263-14.634.181-6.985-3.418-12.93-10.285-14.779-5.129-1.381-10.661-1.265-16.589-1.875z"/><path d="m138.79 582.468c2.546 1.678 4.998 3.083 7.215 4.792 17.236 13.279 20.313 40.513 6.722 59.936-9.188 13.129-22.467 19.303-37.93 19.93-18.295.741-36.644.424-54.965.188-11.577-.148-21.048-9.389-22.323-20.976-.146-1.323-.349-2.651-.35-3.979-.021-34.818-.15-69.638.046-104.455.074-13.11 7.153-21.813 19.101-24.662 1.6-.382 3.288-.551 4.935-.552 16.325-.012 32.658-.274 48.973.14 19.297.491 36.246 13.173 40.105 30.255 2.931 12.972.447 25.126-8.525 35.477-.87 1.003-1.792 1.962-2.676 2.954-.102.114-.113.311-.328.952zm-51.189 20.388v13.273c0 11.313 1.494 12.484 12.678 9.939.649-.147 1.318-.229 1.952-.425 5.046-1.551 8.263-5.662 8.341-10.631.078-4.897-2.89-9.57-8.006-10.754-4.586-1.061-9.446-.937-14.965-1.402zm.147-33.192c4.362 0 8.183.32 11.925-.085 4.193-.454 7-3.095 7.736-7.321.7-4.022.008-8.341-4.052-9.771-4.227-1.488-9.011-1.467-13.573-1.834-.613-.05-1.918 1.465-1.945 2.287-.176 5.439-.091 10.887-.091 16.724z"/><path d="m840.699 670.706c-12.713-.183-26.379-2.496-38.585-10.264-9.784-6.228-16.864-14.595-19.125-26.272-1.799-9.284 3.14-19.229 11.605-24.139 8.613-4.996 19.327-4.17 27.062 2.354 2.392 2.019 4.388 4.533 6.422 6.941 4.009 4.743 8.621 8.349 15.176 8.402 3.583.03 6.595-1.087 7.882-4.832 1.319-3.844-.542-6.818-3.571-8.439-5.695-3.051-11.707-5.514-17.619-8.149-6.071-2.707-12.349-5.001-18.241-8.046-16.246-8.397-24.903-21.935-24.759-40.23.148-18.753 8.708-33.165 25.779-41.235 21.75-10.281 44.202-10.25 66.227-.856 10.148 4.329 18.429 11.464 21.488 22.88 2.73 10.186-1.566 20.649-10.596 26.35-8.585 5.421-19.424 4.734-27.378-2-2.52-2.133-4.559-4.832-6.834-7.256-3.448-3.671-7.519-6.564-12.696-5.452-2.366.509-5.553 2.667-6.083 4.679-.512 1.936 1.302 5.659 3.188 6.821 4.478 2.76 9.587 4.506 14.472 6.591 7.486 3.198 15.171 5.984 22.465 9.569 18.466 9.078 26.639 24.225 25.438 44.652-1.147 19.494-11.085 32.992-28.266 41.482-10.057 4.971-20.891 6.465-33.451 6.449z"/><path d="m382.722 645.291c-7.162.002-14.327.114-21.484-.055-2.811-.066-4.33.951-5.071 3.601-.535 1.914-1.33 3.757-2.026 5.623-5.161 13.826-17.071 19.644-30.241 14.775-12.911-4.771-18.898-18.188-13.428-31.464 10.764-26.122 21.885-52.098 32.865-78.131 4.006-9.494 7.896-19.042 12.111-28.443 1.826-4.073 4.12-7.982 6.583-11.714 8.88-13.459 31.868-13.295 40.585-.583 2.62 3.82 5.158 7.813 6.964 12.055 15.051 35.316 29.964 70.693 44.821 106.092 4.014 9.563 3.213 18.676-4.209 26.375-7.194 7.466-16.102 8.923-25.732 5.835-7.283-2.337-11.021-8.16-13.583-14.964-3.397-9.019-3.435-9.005-13.164-9.005-4.997.001-9.994.001-14.991.003zm.494-66.995c-.418-.028-.835-.057-1.252-.084-3.344 9.316-6.689 18.631-10.231 28.5h21.679c-3.568-9.942-6.881-19.179-10.196-28.416z"/></g><g fill="#fc671a"><path d="m846.468 405.846c.104-1.719.293-3.438.298-5.158.045-15.166-.095-30.332.127-45.495.178-12.121 6.585-21.81 16.869-24.517 18.926-4.982 32.889 4.113 34.577 22.235.523 5.619.786 11.283.8 16.927.073 32.498.094 64.994-.04 97.491-.017 3.933-.504 8.047-1.735 11.758-5.431 16.38-27.637 21.685-41.383 9.786-4.236-3.667-7.823-8.186-11.26-12.658-13.593-17.693-27.004-35.525-40.497-53.295-.562-.739-1.272-1.366-2.693-2.875-.148 2.729-.319 4.445-.322 6.163-.022 13.832.052 27.665-.029 41.496-.117 19.618-14.771 31.122-33.762 26.406-10-2.483-15.256-9.671-17.395-19.262-.859-3.855-1.074-7.92-1.083-11.89-.079-35.497-.048-70.995-.045-106.491 0-12.659 5.152-21.363 14.968-25.312 10.905-4.387 23.802-1.829 31.502 7.377 8.11 9.696 15.495 20.011 22.979 30.217 8.566 11.683 16.9 23.536 25.307 35.335.554.777.867 1.727 1.293 2.597.506-.278 1.014-.556 1.524-.835z"/><path d="m454.826 405.691c0-1.744-.025-3.489.004-5.232.269-15.973.024-31.978.973-47.91.904-15.19 11.319-23.546 26.971-23.071 14.036.428 24.14 10.079 24.253 24.571.313 39.652.296 79.307.057 118.959-.086 14.298-14.982 24.677-29.859 21.791-7.979-1.548-14.079-5.751-18.889-12.052-15.255-19.978-30.467-39.988-45.706-59.979-.456-.599-1.034-1.104-2.568-2.719 0 3.06.026 4.795-.004 6.529-.265 14.974-.035 29.978-.952 44.912-.93 15.167-11.481 24.005-26.674 23.658-13.933-.318-24.466-10.464-24.576-25.029-.303-39.65-.245-79.306-.047-118.958.055-11.021 9.643-20.229 20.634-21.525 12.552-1.479 21.977 3.215 29.236 13.279 14.904 20.66 29.93 41.231 44.912 61.833.292.401.664.744.998 1.115.412-.058.825-.115 1.237-.172z"/><path d="m35.604 412.477c-.007-16.989-.052-33.979.005-50.969.058-17.165 11.721-28.781 28.882-28.805 14.491-.021 29.022-.646 43.463.213 25.3 1.506 46.774 11.446 61.973 32.36 28.037 38.579 18.188 111.585-50.579 124.726-20.018 3.826-40.465 3.146-60.669 1.076-13.364-1.368-22.919-13.121-23.034-26.633-.146-17.322-.035-34.645-.041-51.968zm51.769-.185c0 8.159.078 16.318-.036 24.474-.049 3.534 1.163 5.277 4.943 4.978 5.293-.419 10.656-.241 15.897-.979 12.915-1.816 22.686-12.029 23.536-24.097 1.192-16.937-5.746-28.746-20.125-32.3-6.164-1.523-12.866-.792-19.303-1.328-3.732-.311-5.032 1.127-4.963 4.778.156 8.156.049 16.316.051 24.474z"/><path d="m579.099 445.023c0 7.486.121 14.973-.022 22.456-.416 21.652-20.345 34.304-38.893 24.749-8.462-4.359-13.214-11.564-13.279-20.822-.282-39.499-.278-79.003-.031-118.503.08-12.821 10.496-22.701 23.414-23.386 15.055-.8 26.139 7.084 27.813 20.565.96 7.722.719 15.595.991 23.4.061 1.733.009 3.47 1.146 5.427 6.612-8.467 13.22-16.939 19.843-25.398 3.389-4.328 6.674-8.748 10.243-12.924 7.4-8.661 16.618-12.981 27.951-9.502 11.171 3.429 17.935 11.39 19.578 22.989 1.243 8.771-2.325 16.279-7.934 22.869-8.749 10.276-17.448 20.597-26.339 30.749-2.429 2.774-2.533 4.658.049 7.486 9.66 10.583 19.096 21.371 28.545 32.145 7.796 8.888 10.223 18.934 5.644 30.09-7.913 19.276-31.15 23.01-44.689 7.07-10.138-11.935-19.861-24.222-29.777-36.346-1.001-1.224-2.055-2.405-3.084-3.605-.391.164-.78.328-1.169.491z"/><path d="m338.103 393.283c0 12.661.182 25.325-.035 37.982-.562 32.771-25.612 59.518-58.175 63.084-19.769 2.166-38.215-.653-54.526-12.463-15.574-11.275-24.702-26.925-25.523-46.009-1.158-26.929-1.116-53.928-.924-80.891.099-13.947 9.855-24.263 22.223-25.333 15.534-1.343 26.267 5.859 29.421 19.972.608 2.719.57 5.616.576 8.431.044 22.158-.017 44.315.052 66.472.022 7.155 2.822 12.979 9.261 16.556 5.699 3.167 11.525 3.013 17.053-.398 5.687-3.511 8.33-8.747 8.31-15.49-.069-22.658-.083-45.314-.003-67.972.047-13.374 6.606-23.05 17.771-26.647 17.806-5.735 34.382 6.059 34.569 24.722.128 12.66.024 25.323.024 37.984-.026 0-.05 0-.074 0z"/><path d="m677.758 412.002c0-19.333-.103-38.665.037-57.997.089-12.337 9.011-22.746 20.36-24.233 15.259-1.999 26.639 4.336 30.311 17.295 1.117 3.942 1.585 8.193 1.6 12.306.121 35.164.203 70.331-.069 105.494-.043 5.522-1.038 11.399-3.146 16.467-4.315 10.375-16.845 15.736-28.501 13.225-12.345-2.661-20.396-11.601-20.519-23.559-.201-19.664-.055-39.331-.055-58.997-.005-.001-.012-.001-.018-.001z"/></g><path d="m915.313 363.872c.675-5.157.894-11.72 2.482-17.934 3.121-12.205 13.464-18.125 27.05-16.297 11.586 1.559 19.68 10.788 19.584 22.715-.103 12.702-3.8 24.613-9.128 35.965-4.62 9.843-12.604 13.7-22.842 11.872-8.045-1.437-14.43-8.875-15.621-18.564-.668-5.439-.953-10.927-1.525-17.757z" fill="#e01883"/></g></svg>