<?xml version="1.0" encoding="utf-8"?>
<!-- Generator: Adobe Illustrator 16.0.0, SVG Export Plug-In . SVG Version: 6.00 Build 0)  -->
<!DOCTYPE svg PUBLIC "-//W3C//DTD SVG 1.1//EN" "http://www.w3.org/Graphics/SVG/1.1/DTD/svg11.dtd">
<svg version="1.1" id="Layer_1" xmlns="http://www.w3.org/2000/svg" xmlns:xlink="http://www.w3.org/1999/xlink" x="0px" y="0px"
	 width="1000px" height="1000px" viewBox="0 0 1000 1000" enable-background="new 0 0 1000 1000" xml:space="preserve">
<g>
	<path fill-rule="evenodd" clip-rule="evenodd" fill="#E01883" d="M562.775,585.178c0-5.86-0.069-10.291,0.014-14.717
		c0.25-13.31-0.207-26.691,1.054-39.907c1.34-14.057,11.264-21.295,26.156-20.949c12.884,0.299,21.903,8.812,23.33,22.086
		c0.248,2.314,0.373,4.652,0.374,6.979c0.023,35.499-0.081,70.998,0.075,106.496c0.048,10.69-3.554,19.143-13.701,23.315
		c-10.493,4.316-20.556,2.909-29.342-4.723c-1.501-1.304-2.915-2.766-4.123-4.345c-14.971-19.576-29.896-39.189-44.84-58.787
		c-0.475-0.623-1.022-1.189-2.227-2.576c-0.17,2.463-0.367,4.005-0.37,5.547c-0.024,12.833,0.107,25.668-0.089,38.498
		c-0.059,3.775-0.588,7.662-1.64,11.283c-3.599,12.385-13.143,18.34-26.797,17.12c-12.149-1.086-20.469-9.146-21.921-21.405
		c-0.371-3.135-0.487-6.315-0.49-9.474c-0.033-34.166-0.022-68.332-0.02-102.497c0.001-14.254,4.881-22.539,15.437-26.237
		c11.755-4.119,23.816-0.464,31.987,10.165c9.035,11.754,17.816,23.704,26.602,35.646
		C548.847,565.67,555.282,574.767,562.775,585.178z"/>
	<path fill-rule="evenodd" clip-rule="evenodd" fill="#E01883" d="M632.727,590.28c0-15.83-0.048-31.658,0.012-47.487
		c0.073-18.943,11.175-30.225,30.12-30.139c15.97,0.072,32.052-0.419,47.885,1.245c38.84,4.081,65.652,35.001,66.817,73.998
		c1.454,48.634-35.653,78.852-77.825,79.499c-12.994,0.199-25.993,0.082-38.989,0.02c-16.057-0.077-27.724-11.479-27.935-27.648
		c-0.215-16.493-0.048-32.99-0.048-49.486C632.752,590.28,632.739,590.28,632.727,590.28z M683.764,590.014
		c0,8.146,0.042,16.292-0.023,24.438c-0.022,2.843,0.922,4.381,4.042,4.175c5.457-0.359,10.985-0.153,16.372-0.942
		c12.766-1.871,21.787-12.288,22.558-25.424c0.809-13.813-6.433-25.569-18.896-28.755c-6.313-1.614-13.139-1.208-19.729-1.758
		c-3.205-0.268-4.434,1.11-4.379,4.33C683.845,574.053,683.754,582.035,683.764,590.014z"/>
	<path fill-rule="evenodd" clip-rule="evenodd" fill="#E01883" d="M278.183,610.044c5.957,6.393,11.46,11.914,16.523,17.812
		c11.98,13.952,7.225,34.692-9.244,41.046c-10.618,4.096-21.953,0.895-29.912-8.894c-8.933-10.985-17.58-22.203-26.361-33.311
		c-1.207-1.527-2.474-3.008-5.026-4.269c0,3.525,0.11,7.055-0.024,10.576c-0.251,6.632,0.203,13.437-1.156,19.849
		c-2.673,12.616-14.245,19.182-29.005,17.474c-11.257-1.302-20.359-11.127-20.41-22.912c-0.161-37.161-0.165-74.324,0.004-111.486
		c0.056-12.343,9.775-22.792,21.852-23.079c17.984-0.426,36.016-0.703,53.977,0.104c22.211,1,40.993,14.966,46.997,35.126
		c6.709,22.53,3.365,43.174-14.96,59.735C280.595,608.579,279.551,609.118,278.183,610.044z M224.203,550.359
		c0,10.708-0.076,20.175,0.12,29.637c0.019,0.922,1.72,2.583,2.634,2.581c4.296-0.018,8.711,0.03,12.857-0.93
		c7.02-1.626,11.074-7.356,11.263-14.634c0.181-6.985-3.418-12.93-10.285-14.779C235.663,550.853,230.131,550.969,224.203,550.359z"
		/>
	<path fill-rule="evenodd" clip-rule="evenodd" fill="#E01883" d="M138.79,582.468c2.546,1.678,4.998,3.083,7.215,4.792
		c17.236,13.279,20.313,40.513,6.722,59.936c-9.188,13.129-22.467,19.303-37.93,19.93c-18.295,0.741-36.644,0.424-54.965,0.188
		c-11.577-0.148-21.048-9.389-22.323-20.976c-0.146-1.323-0.349-2.651-0.35-3.979c-0.021-34.818-0.15-69.638,0.046-104.455
		c0.074-13.11,7.153-21.813,19.101-24.662c1.6-0.382,3.288-0.551,4.935-0.552c16.325-0.012,32.658-0.274,48.973,0.14
		c19.297,0.491,36.246,13.173,40.105,30.255c2.931,12.972,0.447,25.126-8.525,35.477c-0.87,1.003-1.792,1.962-2.676,2.954
		C139.016,581.63,139.005,581.827,138.79,582.468z M87.601,602.856c0,5.02,0,9.146,0,13.273c0,11.313,1.494,12.484,12.678,9.939
		c0.649-0.147,1.318-0.229,1.952-0.425c5.046-1.551,8.263-5.662,8.341-10.631c0.078-4.897-2.89-9.57-8.006-10.754
		C97.98,603.197,93.12,603.321,87.601,602.856z M87.748,569.664c4.362,0,8.183,0.32,11.925-0.085c4.193-0.454,7-3.095,7.736-7.321
		c0.7-4.022,0.008-8.341-4.052-9.771c-4.227-1.488-9.011-1.467-13.573-1.834c-0.613-0.05-1.918,1.465-1.945,2.287
		C87.663,558.379,87.748,563.827,87.748,569.664z"/>
	<path fill-rule="evenodd" clip-rule="evenodd" fill="#E01883" d="M840.699,670.706c-12.713-0.183-26.379-2.496-38.585-10.264
		c-9.784-6.228-16.864-14.595-19.125-26.272c-1.799-9.284,3.14-19.229,11.605-24.139c8.613-4.996,19.327-4.17,27.062,2.354
		c2.392,2.019,4.388,4.533,6.422,6.941c4.009,4.743,8.621,8.349,15.176,8.402c3.583,0.03,6.595-1.087,7.882-4.832
		c1.319-3.844-0.542-6.818-3.571-8.439c-5.695-3.051-11.707-5.514-17.619-8.149c-6.071-2.707-12.349-5.001-18.241-8.046
		c-16.246-8.397-24.903-21.935-24.759-40.23c0.148-18.753,8.708-33.165,25.779-41.235c21.75-10.281,44.202-10.25,66.227-0.856
		c10.148,4.329,18.429,11.464,21.488,22.88c2.73,10.186-1.566,20.649-10.596,26.35c-8.585,5.421-19.424,4.734-27.378-2
		c-2.52-2.133-4.559-4.832-6.834-7.256c-3.448-3.671-7.519-6.564-12.696-5.452c-2.366,0.509-5.553,2.667-6.083,4.679
		c-0.512,1.936,1.302,5.659,3.188,6.821c4.478,2.76,9.587,4.506,14.472,6.591c7.486,3.198,15.171,5.984,22.465,9.569
		c18.466,9.078,26.639,24.225,25.438,44.652c-1.147,19.494-11.085,32.992-28.266,41.482
		C864.093,669.228,853.259,670.722,840.699,670.706z"/>
	<path fill-rule="evenodd" clip-rule="evenodd" fill="#E01883" d="M382.722,645.291c-7.162,0.002-14.327,0.114-21.484-0.055
		c-2.811-0.066-4.33,0.951-5.071,3.601c-0.535,1.914-1.33,3.757-2.026,5.623c-5.161,13.826-17.071,19.644-30.241,14.775
		c-12.911-4.771-18.898-18.188-13.428-31.464c10.764-26.122,21.885-52.098,32.865-78.131c4.006-9.494,7.896-19.042,12.111-28.443
		c1.826-4.073,4.12-7.982,6.583-11.714c8.88-13.459,31.868-13.295,40.585-0.583c2.62,3.82,5.158,7.813,6.964,12.055
		c15.051,35.316,29.964,70.693,44.821,106.092c4.014,9.563,3.213,18.676-4.209,26.375c-7.194,7.466-16.102,8.923-25.732,5.835
		c-7.283-2.337-11.021-8.16-13.583-14.964c-3.397-9.019-3.435-9.005-13.164-9.005C392.716,645.289,387.719,645.289,382.722,645.291z
		 M383.216,578.296c-0.418-0.028-0.835-0.057-1.252-0.084c-3.344,9.316-6.689,18.631-10.231,28.5c7.555,0,14.304,0,21.679,0
		C389.844,596.77,386.531,587.533,383.216,578.296z"/>
</g>
<g>
	<path fill-rule="evenodd" clip-rule="evenodd" fill="#FC671A" d="M846.468,405.846c0.104-1.719,0.293-3.438,0.298-5.158
		c0.045-15.166-0.095-30.332,0.127-45.495c0.178-12.121,6.585-21.81,16.869-24.517c18.926-4.982,32.889,4.113,34.577,22.235
		c0.523,5.619,0.786,11.283,0.8,16.927c0.073,32.498,0.094,64.994-0.04,97.491c-0.017,3.933-0.504,8.047-1.735,11.758
		c-5.431,16.38-27.637,21.685-41.383,9.786c-4.236-3.667-7.823-8.186-11.26-12.658c-13.593-17.693-27.004-35.525-40.497-53.295
		c-0.562-0.739-1.272-1.366-2.693-2.875c-0.148,2.729-0.319,4.445-0.322,6.163c-0.022,13.832,0.052,27.665-0.029,41.496
		c-0.117,19.618-14.771,31.122-33.762,26.406c-10-2.483-15.256-9.671-17.395-19.262c-0.859-3.855-1.074-7.92-1.083-11.89
		c-0.079-35.497-0.048-70.995-0.045-106.491c0-12.659,5.152-21.363,14.968-25.312c10.905-4.387,23.802-1.829,31.502,7.377
		c8.11,9.696,15.495,20.011,22.979,30.217c8.566,11.683,16.9,23.536,25.307,35.335c0.554,0.777,0.867,1.727,1.293,2.597
		C845.45,406.403,845.958,406.125,846.468,405.846z"/>
	<path fill-rule="evenodd" clip-rule="evenodd" fill="#FC671A" d="M454.826,405.691c0-1.744-0.025-3.489,0.004-5.232
		c0.269-15.973,0.024-31.978,0.973-47.91c0.904-15.19,11.319-23.546,26.971-23.071c14.036,0.428,24.14,10.079,24.253,24.571
		c0.313,39.652,0.296,79.307,0.057,118.959c-0.086,14.298-14.982,24.677-29.859,21.791c-7.979-1.548-14.079-5.751-18.889-12.052
		c-15.255-19.978-30.467-39.988-45.706-59.979c-0.456-0.599-1.034-1.104-2.568-2.719c0,3.06,0.026,4.795-0.004,6.529
		c-0.265,14.974-0.035,29.978-0.952,44.912c-0.93,15.167-11.481,24.005-26.674,23.658c-13.933-0.318-24.466-10.464-24.576-25.029
		c-0.303-39.65-0.245-79.306-0.047-118.958c0.055-11.021,9.643-20.229,20.634-21.525c12.552-1.479,21.977,3.215,29.236,13.279
		c14.904,20.66,29.93,41.231,44.912,61.833c0.292,0.401,0.664,0.744,0.998,1.115C454.001,405.805,454.414,405.748,454.826,405.691z"
		/>
	<path fill-rule="evenodd" clip-rule="evenodd" fill="#FC671A" d="M35.604,412.477c-0.007-16.989-0.052-33.979,0.005-50.969
		c0.058-17.165,11.721-28.781,28.882-28.805c14.491-0.021,29.022-0.646,43.463,0.213c25.3,1.506,46.774,11.446,61.973,32.36
		c28.037,38.579,18.188,111.585-50.579,124.726c-20.018,3.826-40.465,3.146-60.669,1.076c-13.364-1.368-22.919-13.121-23.034-26.633
		C35.499,447.123,35.61,429.8,35.604,412.477z M87.373,412.292c0,8.159,0.078,16.318-0.036,24.474
		c-0.049,3.534,1.163,5.277,4.943,4.978c5.293-0.419,10.656-0.241,15.897-0.979c12.915-1.816,22.686-12.029,23.536-24.097
		c1.192-16.937-5.746-28.746-20.125-32.3c-6.164-1.523-12.866-0.792-19.303-1.328c-3.732-0.311-5.032,1.127-4.963,4.778
		C87.478,395.974,87.371,404.134,87.373,412.292z"/>
	<path fill-rule="evenodd" clip-rule="evenodd" fill="#FC671A" d="M579.099,445.023c0,7.486,0.121,14.973-0.022,22.456
		c-0.416,21.652-20.345,34.304-38.893,24.749c-8.462-4.359-13.214-11.564-13.279-20.822c-0.282-39.499-0.278-79.003-0.031-118.503
		c0.08-12.821,10.496-22.701,23.414-23.386c15.055-0.8,26.139,7.084,27.813,20.565c0.96,7.722,0.719,15.595,0.991,23.4
		c0.061,1.733,0.009,3.47,1.146,5.427c6.612-8.467,13.22-16.939,19.843-25.398c3.389-4.328,6.674-8.748,10.243-12.924
		c7.4-8.661,16.618-12.981,27.951-9.502c11.171,3.429,17.935,11.39,19.578,22.989c1.243,8.771-2.325,16.279-7.934,22.869
		c-8.749,10.276-17.448,20.597-26.339,30.749c-2.429,2.774-2.533,4.658,0.049,7.486c9.66,10.583,19.096,21.371,28.545,32.145
		c7.796,8.888,10.223,18.934,5.644,30.09c-7.913,19.276-31.15,23.01-44.689,7.07c-10.138-11.935-19.861-24.222-29.777-36.346
		c-1.001-1.224-2.055-2.405-3.084-3.605C579.877,444.696,579.488,444.86,579.099,445.023z"/>
	<path fill-rule="evenodd" clip-rule="evenodd" fill="#FC671A" d="M338.103,393.283c0,12.661,0.182,25.325-0.035,37.982
		c-0.562,32.771-25.612,59.518-58.175,63.084c-19.769,2.166-38.215-0.653-54.526-12.463c-15.574-11.275-24.702-26.925-25.523-46.009
		c-1.158-26.929-1.116-53.928-0.924-80.891c0.099-13.947,9.855-24.263,22.223-25.333c15.534-1.343,26.267,5.859,29.421,19.972
		c0.608,2.719,0.57,5.616,0.576,8.431c0.044,22.158-0.017,44.315,0.052,66.472c0.022,7.155,2.822,12.979,9.261,16.556
		c5.699,3.167,11.525,3.013,17.053-0.398c5.687-3.511,8.33-8.747,8.31-15.49c-0.069-22.658-0.083-45.314-0.003-67.972
		c0.047-13.374,6.606-23.05,17.771-26.647c17.806-5.735,34.382,6.059,34.569,24.722c0.128,12.66,0.024,25.323,0.024,37.984
		C338.151,393.283,338.127,393.283,338.103,393.283z"/>
	<path fill-rule="evenodd" clip-rule="evenodd" fill="#FC671A" d="M677.758,412.002c0-19.333-0.103-38.665,0.037-57.997
		c0.089-12.337,9.011-22.746,20.36-24.233c15.259-1.999,26.639,4.336,30.311,17.295c1.117,3.942,1.585,8.193,1.6,12.306
		c0.121,35.164,0.203,70.331-0.069,105.494c-0.043,5.522-1.038,11.399-3.146,16.467c-4.315,10.375-16.845,15.736-28.501,13.225
		c-12.345-2.661-20.396-11.601-20.519-23.559c-0.201-19.664-0.055-39.331-0.055-58.997
		C677.771,412.002,677.764,412.002,677.758,412.002z"/>
</g>
<path fill-rule="evenodd" clip-rule="evenodd" fill="#E01883" d="M915.313,363.872c0.675-5.157,0.894-11.72,2.482-17.934
	c3.121-12.205,13.464-18.125,27.05-16.297c11.586,1.559,19.68,10.788,19.584,22.715c-0.103,12.702-3.8,24.613-9.128,35.965
	c-4.62,9.843-12.604,13.7-22.842,11.872c-8.045-1.437-14.43-8.875-15.621-18.564C916.17,376.19,915.885,370.702,915.313,363.872z"/>
</svg>
