<?xml version="1.0" encoding="utf-8"?>
<!-- Generator: Adobe Illustrator 16.0.0, SVG Export Plug-In . SVG Version: 6.00 Build 0)  -->
<!DOCTYPE svg PUBLIC "-//W3C//DTD SVG 1.1//EN" "http://www.w3.org/Graphics/SVG/1.1/DTD/svg11.dtd">
<svg version="1.1" id="Layer_1" xmlns="http://www.w3.org/2000/svg" xmlns:xlink="http://www.w3.org/1999/xlink" x="0px" y="0px"
	 width="520px" height="520px" viewBox="0 0 520 520" enable-background="new 0 0 520 520" xml:space="preserve">
<g>
	<path fill="#00A2D4" stroke="#00A2D4" stroke-width="8" stroke-miterlimit="10" d="M157.252,284.984l-135.001-0.157
		c0,29.366,17.882,61.676,65.926,61.676c55.849,0,61.097-43.881,61.097-43.881h6.18c0,0-2.716,49.864-67.592,49.864
		c-49.885,0-71.595-32.438-71.595-68.446c0-2.101,0-4.056,0-5.63c0-21.874,14.382-64.601,71.28-64.601
		C155.363,213.81,157.252,277.639,157.252,284.984z M22.33,278.529l128.204-0.158c0,0-3.569-59.208-63.617-59.208
		C34.429,219.164,22.33,262.467,22.33,278.529z"/>
	<path fill="#00A2D4" stroke="#00A2D4" stroke-width="8" stroke-miterlimit="10" d="M366.998,284.984l-135.001-0.157
		c0,29.366,17.882,61.676,65.927,61.676c55.85,0,61.098-43.881,61.098-43.881h6.182c0,0-2.719,49.864-67.594,49.864
		c-49.885,0-71.595-32.438-71.595-68.446c0-2.101,0-4.056,0-5.63c0-21.874,14.382-64.601,71.279-64.601
		C365.107,213.81,366.998,277.639,366.998,284.984z M232.076,278.529l128.205-0.158c0,0-3.566-59.208-63.617-59.208
		C244.175,219.164,232.076,262.467,232.076,278.529z"/>
	<path fill="#00A2D4" stroke="#00A2D4" stroke-width="8" stroke-miterlimit="10" d="M503.732,261.154v87.763h-5.51v-81.884
		c0,0,4.514-47.975-51.754-47.975c-47.66,0-59.734,36.795-59.943,44.983c-0.246,9.656,0,85.297,0,85.297h-5.563V218.219h5.563
		v29.342c0,0,10.762-33.751,59.418-33.751C492.555,213.81,503.732,242.784,503.732,261.154z"/>
	
		<rect x="176.359" y="167.514" fill="#00A2D4" stroke="#00A2D4" stroke-width="8" stroke-miterlimit="10" width="5.669" height="181.403"/>
	
		<rect x="207.852" y="167.514" fill="#00A2D4" stroke="#00A2D4" stroke-width="8" stroke-miterlimit="10" width="5.669" height="181.403"/>
</g>
</svg>
