<svg enable-background="new 0 0 520 520" height="520" viewBox="0 0 520 520" width="520" xmlns="http://www.w3.org/2000/svg"><g fill="#00a2d4" stroke="#00a2d4" stroke-miterlimit="10" stroke-width="8"><path d="m157.252 284.984-135.001-.157c0 29.366 17.882 61.676 65.926 61.676 55.849 0 61.097-43.881 61.097-43.881h6.18s-2.716 49.864-67.592 49.864c-49.885 0-71.595-32.438-71.595-68.446 0-2.101 0-4.056 0-5.63 0-21.874 14.382-64.601 71.28-64.601 67.816.001 69.705 63.83 69.705 71.175zm-134.922-6.455 128.204-.158s-3.569-59.208-63.617-59.208c-52.488.001-64.587 43.304-64.587 59.366z"/><path d="m366.998 284.984-135.001-.157c0 29.366 17.882 61.676 65.927 61.676 55.85 0 61.098-43.881 61.098-43.881h6.182s-2.719 49.864-67.594 49.864c-49.885 0-71.595-32.438-71.595-68.446 0-2.101 0-4.056 0-5.63 0-21.874 14.382-64.601 71.279-64.601 67.813.001 69.704 63.83 69.704 71.175zm-134.922-6.455 128.205-.158s-3.566-59.208-63.617-59.208c-52.489.001-64.588 43.304-64.588 59.366z"/><path d="m503.732 261.154v87.763h-5.51v-81.884s4.514-47.975-51.754-47.975c-47.66 0-59.734 36.795-59.943 44.983-.246 9.656 0 85.297 0 85.297h-5.563v-131.119h5.563v29.342s10.762-33.751 59.418-33.751c46.612 0 57.789 28.974 57.789 47.344z"/><path d="m176.359 167.514h5.669v181.403h-5.669z"/><path d="m207.852 167.514h5.669v181.403h-5.669z"/></g></svg>