<svg xmlns="http://www.w3.org/2000/svg" xmlns:xlink="http://www.w3.org/1999/xlink" viewBox="0 0 109.97 42.97" fill="#fff" fill-rule="evenodd" stroke="#000" stroke-linecap="round" stroke-linejoin="round"><use xlink:href="#A" x="6.485" y="6.485"/><symbol id="A" overflow="visible"><g stroke="none"><path d="M88.353 28.664l-3.97-4.45-3.93 4.45H72.18l8.093-9.08-8.093-9.08h8.534l4.02 4.4 3.865-4.4h8.236l-8.04 9.053 8.17 9.13zm-32.1 0V0h15.914v6.394h-9.17v4.073h9.17v6.148h-9.17v5.642h9.17v6.407z" fill="#d5652c"/><path d="M49.546 0v11.725h-.078c-1.492-1.712-3.346-2.296-5.5-2.296-4.45 0-7.756 3.06-8.898 7.082-1.297-4.4-4.734-7.16-9.857-7.16-4.15 0-7.393 1.907-9.08 4.968v-3.852H7.6V6.38h9.313V0H0v28.664h7.614V16.602h7.626c-.233.908-.39 1.816-.39 2.828-.052 2.75 1.033 5.402 3 7.327s4.64 2.953 7.4 2.842c4.903 0 8.132-2.296 9.857-6.485h-6.563c-.882 1.258-1.556 1.634-3.32 1.634-2.05 0-3.813-1.8-3.813-3.89h13.36c.584 4.747 4.24 8.846 9.313 8.846 2.178.008 4.215-1.08 5.422-2.892h.078v1.855h6.706V0zM21.634 16.706c.428-1.816 1.816-3.01 3.593-3.01 1.945 0 3.28 1.167 3.632 3.01zm23.84 7.6c-2.464 0-4.02-2.31-4.02-4.708 0-2.568 1.336-5.058 4.02-5.058 2.776 0 3.89 2.464 3.89 5.058 0 2.438-1.297 4.708-3.89 4.708z" fill="#43338e"/></g></symbol></svg>