<?xml version="1.0" encoding="UTF-8" standalone="no"?>
<!-- Created with Inkscape (http://www.inkscape.org/) -->

<svg
   xmlns:dc="http://purl.org/dc/elements/1.1/"
   xmlns:cc="http://creativecommons.org/ns#"
   xmlns:rdf="http://www.w3.org/1999/02/22-rdf-syntax-ns#"
   xmlns:svg="http://www.w3.org/2000/svg"
   xmlns="http://www.w3.org/2000/svg"
   xmlns:sodipodi="http://sodipodi.sourceforge.net/DTD/sodipodi-0.dtd"
   xmlns:inkscape="http://www.inkscape.org/namespaces/inkscape"
   width="202.6275"
   height="75.231628"
   viewBox="0 0 202.62751 75.23163"
   id="svg5615"
   version="1.1"
   inkscape:version="0.91 r13725"
   sodipodi:docname="fiat chrysler auto.svg">
  <defs
     id="defs5617" />
  <sodipodi:namedview
     id="base"
     pagecolor="#ffffff"
     bordercolor="#666666"
     borderopacity="1.0"
     inkscape:pageopacity="0.0"
     inkscape:pageshadow="2"
     inkscape:zoom="4.4884748"
     inkscape:cx="100.81375"
     inkscape:cy="37.115815"
     inkscape:document-units="px"
     inkscape:current-layer="layer1"
     showgrid="false"
     fit-margin-top="0"
     fit-margin-left="0"
     fit-margin-right="0"
     fit-margin-bottom="0"
     units="px"
     inkscape:window-width="1280"
     inkscape:window-height="744"
     inkscape:window-x="-4"
     inkscape:window-y="-4"
     inkscape:window-maximized="1" />
  <metadata
     id="metadata5620">
    <rdf:RDF>
      <cc:Work
         rdf:about="">
        <dc:format>image/svg+xml</dc:format>
        <dc:type
           rdf:resource="http://purl.org/dc/dcmitype/StillImage" />
        <dc:title></dc:title>
      </cc:Work>
    </rdf:RDF>
  </metadata>
  <g
     inkscape:label="Layer 1"
     inkscape:groupmode="layer"
     id="layer1"
     transform="translate(-182.04339,-442.81782)">
    <path
       inkscape:connector-curvature="0"
       id="path5533"
       style="fill:#5d7fc8;fill-opacity:1;fill-rule:nonzero;stroke:none"
       d="m 206.26307,492.76658 9.41875,0 0,-15.92375 32.2825,0 0,-9.36 -32.2825,0 0,-10.9725 34.04,0 0,-9.35875 -43.45875,0 0,45.615 z" />
    <path
       inkscape:connector-curvature="0"
       id="path5545"
       style="fill:#5d7fc8;fill-opacity:1;fill-rule:nonzero;stroke:none"
       d="m 295.7197,474.63783 c -2.0075,6.41 -8.0225,11.06 -15.13125,11.06 -8.75,0 -15.84125,-7.04125 -15.84125,-15.7375 0,-8.69375 7.09125,-15.73875 15.84125,-15.73875 7.10875,0 13.12375,4.6525 15.13125,11.06 l 9.645,0 c -2.205,-11.61 -12.4475,-20.39625 -24.77625,-20.39625 -13.935,0 -25.23625,11.2275 -25.23625,25.075 0,13.84375 11.30125,25.07125 25.23625,25.07125 12.32875,0 22.57125,-8.7825 24.77625,-20.39375 l -9.645,0 z" />
    <path
       inkscape:connector-curvature="0"
       id="path5549"
       style="fill:#5d7fc8;fill-opacity:1;fill-rule:nonzero;stroke:none"
       d="m 332.60119,443.31782 -28.74625,49.44875 10.88125,0 17.865,-30.735 17.88,30.735 10.88125,0 -28.76125,-49.44875 z" />
    <path
       inkscape:connector-curvature="0"
       id="path5553"
       style="fill:#7a7f81;fill-opacity:1;fill-rule:nonzero;stroke:none"
       d="m 322.28369,513.0717 c 0,0.5025 -0.0825,0.97125 -0.25,1.39375 -0.16625,0.43125 -0.3925,0.8125 -0.69125,1.13375 -0.29125,0.3225 -0.64625,0.5775 -1.05875,0.76875 -0.41,0.18375 -0.865,0.27625 -1.35125,0.27625 -0.49,0 -0.94125,-0.0962 -1.355,-0.2875 -0.4025,-0.18625 -0.76375,-0.44625 -1.06875,-0.77 -0.29875,-0.3225 -0.5325,-0.7 -0.70875,-1.135 -0.1575,-0.43875 -0.24375,-0.905 -0.24375,-1.40125 l 0,-0.025 c 0,-0.5 0.0862,-0.96 0.24375,-1.3925 0.17625,-0.43375 0.4025,-0.81125 0.6975,-1.135 0.29625,-0.32375 0.64625,-0.575 1.06,-0.76 0.40875,-0.19125 0.865,-0.285 1.35375,-0.285 0.48625,0 0.93875,0.0975 1.345,0.29125 0.4125,0.19125 0.77375,0.44625 1.06875,0.7725 0.30625,0.3175 0.5425,0.69875 0.70875,1.135 0.1675,0.43875 0.25,0.90625 0.25,1.39875 l 0,0.0213 z m -0.19375,-3.1875 c -0.38625,-0.4125 -0.84125,-0.7375 -1.38,-0.975 -0.535,-0.24 -1.125,-0.365 -1.7775,-0.365 -0.64625,0 -1.2475,0.12875 -1.78875,0.36875 -0.53125,0.24125 -0.99625,0.5725 -1.37875,0.985 -0.37875,0.41 -0.68375,0.88875 -0.89625,1.43875 -0.21125,0.54375 -0.31625,1.11875 -0.31625,1.71375 l 0,0.0213 c 0,0.60375 0.10125,1.1675 0.3125,1.7175 0.205,0.54 0.5,1.02125 0.8825,1.4225 0.38875,0.41375 0.84375,0.7375 1.3825,0.9825 0.53125,0.23875 1.12125,0.355 1.78125,0.355 0.65375,0 1.2475,-0.12 1.785,-0.36625 0.53875,-0.24375 0.9975,-0.57125 1.3825,-0.98125 0.38625,-0.40625 0.67375,-0.8875 0.88625,-1.43 0.21875,-0.55625 0.32625,-1.12375 0.32625,-1.72125 0.004,-0.007 0.004,-0.0187 0,-0.025 0,-0.59625 -0.1075,-1.16875 -0.3125,-1.70625 -0.21625,-0.54875 -0.51125,-1.02625 -0.88875,-1.435 m -17.605,3.8775 c 0,0.94875 -0.2375,1.66875 -0.69875,2.14875 -0.465,0.47875 -1.09,0.715 -1.8825,0.715 -0.8225,0 -1.465,-0.2475 -1.9275,-0.75 -0.46875,-0.5075 -0.69125,-1.23625 -0.69125,-2.17875 l 0,-5.00375 -0.96875,0 0,5.06875 c 0,0.61375 0.09,1.155 0.26,1.63 0.17125,0.47 0.41375,0.865 0.7225,1.1875 0.31625,0.315 0.69875,0.55875 1.12875,0.71875 0.4375,0.1625 0.92375,0.24125 1.45125,0.24125 0.5425,0 1.02125,-0.0788 1.4625,-0.24125 0.43125,-0.16 0.81625,-0.40375 1.1225,-0.725 0.31875,-0.32375 0.55875,-0.725 0.72875,-1.2125 0.17375,-0.4775 0.265,-1.035 0.265,-1.68125 l 0,-4.98625 -0.9725,0 0,5.06875 z m -28.105,-0.6275 0,-3.53375 2.65,0 c 0.695,0 1.23,0.1575 1.62125,0.4525 0.37875,0.31 0.57,0.72625 0.57,1.26875 l 0,0.0263 c 0,0.27875 -0.0512,0.5325 -0.15875,0.745 -0.11625,0.2225 -0.2675,0.41875 -0.4625,0.57125 -0.195,0.14625 -0.43125,0.2675 -0.695,0.3425 -0.27375,0.09 -0.56625,0.1275 -0.8825,0.1275 l -2.6425,0 z m 4.42125,0.41625 c 0.285,-0.1325 0.5275,-0.305 0.74,-0.51875 0.21125,-0.2075 0.3575,-0.45875 0.47625,-0.75 0.12375,-0.28375 0.18,-0.60625 0.18,-0.97625 l 0,-0.0275 c 0,-0.345 -0.0563,-0.66 -0.18,-0.95125 -0.11875,-0.295 -0.27875,-0.54 -0.4875,-0.755 -0.27,-0.28 -0.60375,-0.48875 -1.01625,-0.645 -0.4175,-0.1525 -0.8825,-0.23375 -1.4175,-0.23375 l -3.685,0 0,8.71375 0.96875,0 0,-3.38625 2.44875,0 2.48625,3.38625 1.18375,0 -2.6325,-3.56125 c 0.3375,-0.0625 0.6475,-0.16 0.935,-0.295 m 10.00625,0.665 1.95875,-4.43625 1.94125,4.43625 -3.9,0 z m 1.51375,-5.58125 -3.90375,8.7725 0.99375,0 1.0175,-2.30375 4.65375,0 1.01125,2.30375 1.035,0 -3.90375,-8.7725 -0.90375,0 z m -24.74625,4.82875 4.6725,0 0,-0.88625 -4.6725,0 0,-2.99875 5.22375,0 0,-0.885 -6.185,0 0,8.71375 6.245,0 0,-0.885 -5.28375,0 0,-3.05875 z m 62.22375,-0.0175 -3.12125,-4.7525 -0.9825,0 0,8.71375 0.95125,0 0,-7.04375 3.1225,4.65 0.035,0 3.12125,-4.6575 0,7.05125 0.96875,0 0,-8.71375 -0.97125,0 -3.12375,4.7525 z m 53.69251,0.0288 c -0.4513,-0.38125 -1.1613,-0.6775 -2.1125,-0.8975 -0.475,-0.0975 -0.8575,-0.205 -1.1638,-0.32 -0.2987,-0.1075 -0.5412,-0.23 -0.7075,-0.37125 -0.175,-0.135 -0.2925,-0.28 -0.355,-0.44875 -0.07,-0.16125 -0.094,-0.34375 -0.094,-0.5525 l 0,-0.0213 c 0,-0.4 0.1562,-0.735 0.4762,-1.0025 0.33,-0.27125 0.7813,-0.4075 1.34,-0.4075 0.4413,0 0.865,0.075 1.2675,0.2225 0.4063,0.15125 0.81,0.395 1.205,0.7225 l 0.56,-0.75375 c -0.4312,-0.35625 -0.8887,-0.62625 -1.3587,-0.7975 -0.4725,-0.18125 -1.0213,-0.27375 -1.645,-0.27375 -0.4138,0 -0.7863,0.0612 -1.1225,0.18 -0.35,0.1175 -0.6463,0.285 -0.8988,0.50375 -0.2537,0.2075 -0.4487,0.45125 -0.5875,0.74625 -0.1425,0.29 -0.2125,0.60375 -0.2125,0.9475 l 0,0.0238 c 0,0.35125 0.066,0.66625 0.1738,0.9325 0.125,0.26625 0.2925,0.49625 0.5387,0.69125 0.2263,0.2 0.5275,0.37 0.8925,0.51 0.365,0.14625 0.7888,0.27 1.2775,0.38125 0.455,0.0987 0.8238,0.19625 1.1113,0.305 0.2962,0.11125 0.5187,0.2325 0.685,0.3625 0.1625,0.13375 0.2787,0.285 0.34,0.445 0.066,0.16 0.1037,0.34125 0.1037,0.53625 l 0,0.03 c 0,0.42625 -0.1762,0.7825 -0.5237,1.06125 -0.3513,0.275 -0.8088,0.415 -1.3863,0.415 -0.5975,0 -1.125,-0.1 -1.58,-0.305 -0.465,-0.205 -0.9125,-0.50875 -1.355,-0.9225 l -0.6037,0.7175 c 0.5175,0.47375 1.0562,0.82625 1.6287,1.04875 0.5625,0.23 1.1875,0.34875 1.8688,0.34875 0.43,0 0.82,-0.0638 1.1737,-0.17875 0.3575,-0.115 0.6663,-0.28125 0.92,-0.49625 0.2613,-0.2175 0.4625,-0.47875 0.605,-0.775 0.135,-0.31 0.2188,-0.64875 0.2188,-1.01625 l 0,-0.0312 c 0,-0.655 -0.2288,-1.175 -0.68,-1.56 m -13.02876,-0.0113 4.67876,0 0,-0.88625 -4.67876,0 0,-2.99875 5.22376,0 0,-0.885 -6.19251,0 0,8.71375 6.25501,0 0,-0.885 -5.28626,0 0,-3.05875 z m -7.93125,-4.77 -0.97625,0 0,8.71375 5.78875,0 0,-0.9125 -4.8125,0 0,-7.80125 z m -8.6525,6.27 c 0,0.49125 -0.1875,0.87 -0.55875,1.1425 -0.3825,0.28 -0.9,0.41625 -1.54875,0.41625 l -2.87,0 0,-3.07625 2.70625,0 c 0.74625,0 1.30875,0.1375 1.69125,0.39625 0.38875,0.25875 0.58,0.62375 0.58,1.10125 l 0,0.02 z m -4.9775,-5.3875 2.605,0 c 0.6075,0 1.07375,0.1325 1.40375,0.39125 0.32625,0.25875 0.49,0.5975 0.49,1.02375 l 0,0.0263 c 0,0.50875 -0.18375,0.89 -0.54625,1.15625 -0.36125,0.26625 -0.8325,0.39125 -1.42,0.39125 l -2.5325,0 0,-2.98875 z m 5.405,4.03875 c -0.16,-0.16125 -0.36125,-0.305 -0.58375,-0.4275 -0.2225,-0.11875 -0.455,-0.21875 -0.7125,-0.28625 0.17125,-0.0862 0.3375,-0.17375 0.4975,-0.28875 0.1525,-0.11125 0.2975,-0.25125 0.42625,-0.40875 0.12875,-0.1625 0.24,-0.35375 0.31625,-0.57 0.0738,-0.2225 0.115,-0.46625 0.115,-0.74875 l 0,-0.0325 c 0,-0.535 -0.18,-0.99125 -0.5525,-1.3875 -0.24625,-0.235 -0.55625,-0.42625 -0.93375,-0.56375 -0.37875,-0.12625 -0.80875,-0.2075 -1.29625,-0.2075 l -3.6425,0 0,8.71375 3.8025,0 c 0.46625,0 0.8825,-0.0638 1.2675,-0.165 0.3825,-0.10375 0.7125,-0.2675 0.98375,-0.4675 0.27,-0.20125 0.4825,-0.44625 0.62875,-0.7475 0.14625,-0.295 0.2175,-0.6275 0.2175,-1.00375 l 0,-0.0212 c 0,-0.30375 -0.0512,-0.56 -0.145,-0.79375 -0.0975,-0.23 -0.22875,-0.425 -0.38875,-0.59375 m -10.02375,-0.5425 c 0,0.5025 -0.0825,0.97125 -0.24625,1.39375 -0.1675,0.43125 -0.40375,0.8125 -0.6975,1.13375 -0.29625,0.3225 -0.64375,0.5775 -1.05625,0.76875 -0.41375,0.18375 -0.85875,0.27625 -1.3475,0.27625 -0.49375,0 -0.9425,-0.0962 -1.36125,-0.2875 -0.4075,-0.18625 -0.765,-0.44625 -1.06375,-0.77 -0.30125,-0.3225 -0.53875,-0.7 -0.705,-1.135 -0.17,-0.43875 -0.24625,-0.905 -0.24625,-1.40125 l 0,-0.025 c 0,-0.5 0.0763,-0.96 0.24625,-1.3925 0.16625,-0.43375 0.40375,-0.81125 0.6875,-1.135 0.295,-0.32375 0.64625,-0.575 1.06625,-0.76 0.41375,-0.19125 0.86125,-0.285 1.345,-0.285 0.49625,0 0.94375,0.0975 1.3575,0.29125 0.41,0.19125 0.7675,0.44625 1.0625,0.7725 0.30875,0.3175 0.545,0.69875 0.7125,1.135 0.16375,0.43875 0.24625,0.90625 0.24625,1.39875 l 0,0.0213 z m -0.195,-3.1875 c -0.38875,-0.4125 -0.84375,-0.7375 -1.375,-0.975 -0.5375,-0.24 -1.12125,-0.365 -1.7775,-0.365 -0.65375,0 -1.2475,0.12875 -1.78875,0.36875 -0.5425,0.24125 -0.99375,0.5725 -1.3825,0.985 -0.38625,0.41 -0.68125,0.88875 -0.8925,1.43875 -0.2125,0.54375 -0.32,1.11875 -0.32,1.71375 l 0,0.0213 c 0,0.60375 0.1075,1.1675 0.31,1.7175 0.20375,0.54 0.51,1.02125 0.885,1.4225 0.3825,0.41375 0.8475,0.7375 1.375,0.9825 0.5425,0.23875 1.13625,0.355 1.7825,0.355 0.65625,0 1.25,-0.12 1.7875,-0.36625 0.53875,-0.24375 0.9975,-0.57125 1.38625,-0.98125 0.3825,-0.40625 0.68125,-0.8875 0.8925,-1.43 0.20875,-0.55625 0.31625,-1.12375 0.31625,-1.72125 0.01,-0.007 0.01,-0.0187 0,-0.025 0,-0.59625 -0.1075,-1.16875 -0.30875,-1.70625 -0.2125,-0.54875 -0.50375,-1.02625 -0.89,-1.435 m 13.37875,7.5225 0.965,0 0,-8.7125 -0.965,0 0,8.7125 z m -50.2175,-7.80625 2.87875,0 0,7.80625 0.9625,0 0,-7.80625 2.87875,0 0,-0.9075 -6.72,0 0,0.9075 z m -87.25875,6.7175 c -0.42375,0.2175 -0.92625,0.32625 -1.5175,0.32625 -0.465,0 -0.90625,-0.0925 -1.3125,-0.27625 -0.4,-0.19125 -0.7575,-0.44625 -1.045,-0.76875 -0.31,-0.32125 -0.53875,-0.7025 -0.7025,-1.135 -0.17,-0.4375 -0.26,-0.91375 -0.26,-1.41375 l 0,-0.025 c 0,-0.5 0.09,-0.96 0.26,-1.39875 0.16375,-0.43375 0.3925,-0.815 0.7025,-1.13875 0.2875,-0.32375 0.645,-0.575 1.045,-0.7575 0.40625,-0.18375 0.8475,-0.2775 1.3125,-0.2775 0.59125,0 1.09375,0.11875 1.5175,0.34125 0.41375,0.22 0.81,0.50875 1.175,0.85625 l 0.6625,-0.72375 c -0.21125,-0.20375 -0.43375,-0.39875 -0.6625,-0.56375 -0.22625,-0.17125 -0.47625,-0.32 -0.74,-0.43625 -0.27875,-0.12 -0.56625,-0.21875 -0.87875,-0.27875 -0.30875,-0.0687 -0.6675,-0.10375 -1.06,-0.10375 -0.6275,0 -1.205,0.12125 -1.73625,0.35625 -0.53125,0.23625 -0.9825,0.56375 -1.36875,0.97375 -0.3775,0.4075 -0.68375,0.8875 -0.90625,1.43125 -0.215,0.55125 -0.315,1.13375 -0.315,1.745 l 0,0.0213 c 0,0.625 0.1,1.20875 0.315,1.76125 0.2225,0.5475 0.52875,1.02 0.90625,1.42375 0.38625,0.39875 0.8375,0.71125 1.355,0.9475 0.52375,0.2325 1.09375,0.345 1.71625,0.345 0.3925,0 0.7425,-0.035 1.06875,-0.10625 0.31625,-0.0813 0.615,-0.18 0.8825,-0.315 0.28125,-0.13 0.545,-0.29 0.78125,-0.4775 0.24375,-0.1875 0.4725,-0.39375 0.69875,-0.63125 l -0.64625,-0.6275 c -0.39875,0.39625 -0.82375,0.70375 -1.2475,0.92625 m 10.09625,-3.75375 -4.94125,0 0,-3.87125 -0.9625,0 0,8.71375 0.9625,0 0,-3.9175 4.94125,0 0,3.9175 0.9625,0 0,-8.71375 -0.9625,0 0,3.87125 z m -27.51625,-2.96375 2.87875,0 0,7.80625 0.96875,0 0,-7.80625 2.8725,0 0,-0.9075 -6.72,0 0,0.9075 z m -20.02625,7.80625 0.965,0 0,-3.79875 4.64,0 0,-0.88125 -4.64,0 0,-3.12625 5.1925,0 0,-0.9075 -6.1575,0 0,8.71375 z m 13.9725,-3.19125 1.955,-4.43625 1.945,4.43625 -3.9,0 z m 1.51,-5.58125 -3.8925,8.7725 0.99,0 1.0175,-2.30375 4.66,0 1.00125,2.30375 1.0375,0 -3.90375,-8.7725 -0.91,0 z m -6.76125,8.7725 0.96875,0 0,-8.7125 -0.96875,0 0,8.7125 z m 43.795,-4.2725 0,-3.53375 2.65,0 c 0.685,0 1.22625,0.1575 1.615,0.4525 0.37875,0.31 0.57,0.72625 0.57,1.26875 l 0,0.0263 c 0,0.27875 -0.0525,0.5325 -0.16625,0.745 -0.105,0.2225 -0.2575,0.41875 -0.455,0.57125 -0.195,0.14625 -0.435,0.2675 -0.7025,0.3425 -0.26375,0.09 -0.5625,0.1275 -0.885,0.1275 l -2.62625,0 z m 4.41125,0.41625 c 0.285,-0.1325 0.53125,-0.305 0.7325,-0.51875 0.21625,-0.2075 0.37875,-0.45875 0.49625,-0.75 0.105,-0.28375 0.16375,-0.60625 0.16375,-0.97625 l 0,-0.0275 c 0,-0.345 -0.0588,-0.66 -0.16375,-0.95125 -0.1175,-0.295 -0.28,-0.54 -0.49625,-0.755 -0.26375,-0.28 -0.61125,-0.48875 -1.02375,-0.645 -0.40625,-0.1525 -0.87875,-0.23375 -1.4075,-0.23375 l -3.685,0 0,8.71375 0.9725,0 0,-3.38625 2.4425,0 2.47875,3.38625 1.18875,0 -2.63,-3.56125 c 0.34125,-0.0625 0.64,-0.16 0.93125,-0.295 m 6.0225,-0.5 -2.88,-4.3575 -1.17,0 3.55625,5.2675 0,3.44625 0.97,0 0,-3.45875 3.56,-5.255 -1.12625,0 -2.91,4.3575 z m 10.405,0.42375 c -0.45125,-0.38125 -1.1525,-0.6775 -2.115,-0.8975 -0.475,-0.0975 -0.86125,-0.205 -1.16375,-0.32 -0.29875,-0.1075 -0.53375,-0.23 -0.70125,-0.37125 -0.18,-0.135 -0.295,-0.28 -0.36125,-0.44875 -0.0625,-0.16125 -0.0937,-0.34375 -0.0937,-0.5525 l 0,-0.0213 c 0,-0.4 0.16,-0.735 0.48,-1.0025 0.32875,-0.27125 0.78125,-0.4075 1.34375,-0.4075 0.43375,0 0.8575,0.075 1.26,0.2225 0.41,0.15125 0.81,0.395 1.20625,0.7225 l 0.56875,-0.75375 c -0.44375,-0.35625 -0.89625,-0.62625 -1.365,-0.7975 -0.475,-0.18125 -1.0175,-0.27375 -1.6525,-0.27375 -0.4,0 -0.77875,0.0612 -1.1225,0.18 -0.33625,0.1175 -0.6425,0.285 -0.88875,0.50375 -0.26,0.2075 -0.455,0.45125 -0.59375,0.74625 -0.1325,0.29 -0.20875,0.60375 -0.20875,0.9475 l 0,0.0238 c 0,0.35125 0.0625,0.66625 0.17,0.9325 0.11875,0.26625 0.29625,0.49625 0.5325,0.69125 0.23875,0.2 0.5375,0.37 0.90625,0.51 0.3575,0.14625 0.78125,0.27 1.27,0.38125 0.4525,0.0987 0.8275,0.19625 1.1125,0.305 0.295,0.11125 0.5275,0.2325 0.6875,0.3625 0.16,0.13375 0.2775,0.285 0.34,0.445 0.07,0.16 0.10375,0.34125 0.10375,0.53625 l 0,0.03 c 0,0.42625 -0.17625,0.7825 -0.5275,1.06125 -0.34,0.275 -0.80625,0.415 -1.38625,0.415 -0.59375,0 -1.11375,-0.1 -1.57625,-0.305 -0.45875,-0.205 -0.91375,-0.50875 -1.3575,-0.9225 l -0.60125,0.7175 c 0.5175,0.47375 1.05625,0.82625 1.61875,1.04875 0.57,0.23 1.19375,0.34875 1.875,0.34875 0.43125,0 0.81625,-0.0638 1.18125,-0.17875 0.36125,-0.115 0.66625,-0.28125 0.92,-0.49625 0.25375,-0.2175 0.4475,-0.47875 0.5975,-0.775 0.14625,-0.31 0.21875,-0.64875 0.21875,-1.01625 l 0,-0.0312 c 0,-0.655 -0.22875,-1.175 -0.6775,-1.56 m 3.98,-4.78125 -0.965,0 0,8.71375 5.7825,0 0,-0.9125 -4.8175,0 0,-7.80125 z" />
  </g>
</svg>
