<svg height="75.231628" viewBox="0 0 202.62751 75.23163" width="202.6275" xmlns="http://www.w3.org/2000/svg"><g transform="translate(-182.04339 -442.81782)"><g fill="#5d7fc8"><path d="m206.26307 492.76658h9.41875v-15.92375h32.2825v-9.36h-32.2825v-10.9725h34.04v-9.35875h-43.45875z"/><path d="m295.7197 474.63783c-2.0075 6.41-8.0225 11.06-15.13125 11.06-8.75 0-15.84125-7.04125-15.84125-15.7375 0-8.69375 7.09125-15.73875 15.84125-15.73875 7.10875 0 13.12375 4.6525 15.13125 11.06h9.645c-2.205-11.61-12.4475-20.39625-24.77625-20.39625-13.935 0-25.23625 11.2275-25.23625 25.075 0 13.84375 11.30125 25.07125 25.23625 25.07125 12.32875 0 22.57125-8.7825 24.77625-20.39375z"/><path d="m332.60119 443.31782-28.74625 49.44875h10.88125l17.865-30.735 17.88 30.735h10.88125z"/></g><path d="m322.28369 513.0717c0 .5025-.0825.97125-.25 1.39375-.16625.43125-.3925.8125-.69125 1.13375-.29125.3225-.64625.5775-1.05875.76875-.41.18375-.865.27625-1.35125.27625-.49 0-.94125-.0962-1.355-.2875-.4025-.18625-.76375-.44625-1.06875-.77-.29875-.3225-.5325-.7-.70875-1.135-.1575-.43875-.24375-.905-.24375-1.40125v-.025c0-.5.0862-.96.24375-1.3925.17625-.43375.4025-.81125.6975-1.135.29625-.32375.64625-.575 1.06-.76.40875-.19125.865-.285 1.35375-.285.48625 0 .93875.0975 1.345.29125.4125.19125.77375.44625 1.06875.7725.30625.3175.5425.69875.70875 1.135.1675.43875.25.90625.25 1.39875v.0213zm-.19375-3.1875c-.38625-.4125-.84125-.7375-1.38-.975-.535-.24-1.125-.365-1.7775-.365-.64625 0-1.2475.12875-1.78875.36875-.53125.24125-.99625.5725-1.37875.985-.37875.41-.68375.88875-.89625 1.43875-.21125.54375-.31625 1.11875-.31625 1.71375v.0213c0 .60375.10125 1.1675.3125 1.7175.205.54.5 1.02125.8825 1.4225.38875.41375.84375.7375 1.3825.9825.53125.23875 1.12125.355 1.78125.355.65375 0 1.2475-.12 1.785-.36625.53875-.24375.9975-.57125 1.3825-.98125.38625-.40625.67375-.8875.88625-1.43.21875-.55625.32625-1.12375.32625-1.72125.004-.007.004-.0187 0-.025 0-.59625-.1075-1.16875-.3125-1.70625-.21625-.54875-.51125-1.02625-.88875-1.435m-17.605 3.8775c0 .94875-.2375 1.66875-.69875 2.14875-.465.47875-1.09.715-1.8825.715-.8225 0-1.465-.2475-1.9275-.75-.46875-.5075-.69125-1.23625-.69125-2.17875v-5.00375h-.96875v5.06875c0 .61375.09 1.155.26 1.63.17125.47.41375.865.7225 1.1875.31625.315.69875.55875 1.12875.71875.4375.1625.92375.24125 1.45125.24125.5425 0 1.02125-.0788 1.4625-.24125.43125-.16.81625-.40375 1.1225-.725.31875-.32375.55875-.725.72875-1.2125.17375-.4775.265-1.035.265-1.68125v-4.98625h-.9725zm-28.105-.6275v-3.53375h2.65c.695 0 1.23.1575 1.62125.4525.37875.31.57.72625.57 1.26875v.0263c0 .27875-.0512.5325-.15875.745-.11625.2225-.2675.41875-.4625.57125-.195.14625-.43125.2675-.695.3425-.27375.09-.56625.1275-.8825.1275h-2.6425zm4.42125.41625c.285-.1325.5275-.305.74-.51875.21125-.2075.3575-.45875.47625-.75.12375-.28375.18-.60625.18-.97625v-.0275c0-.345-.0563-.66-.18-.95125-.11875-.295-.27875-.54-.4875-.755-.27-.28-.60375-.48875-1.01625-.645-.4175-.1525-.8825-.23375-1.4175-.23375h-3.685v8.71375h.96875v-3.38625h2.44875l2.48625 3.38625h1.18375l-2.6325-3.56125c.3375-.0625.6475-.16.935-.295m10.00625.665 1.95875-4.43625 1.94125 4.43625zm1.51375-5.58125-3.90375 8.7725h.99375l1.0175-2.30375h4.65375l1.01125 2.30375h1.035l-3.90375-8.7725zm-24.74625 4.82875h4.6725v-.88625h-4.6725v-2.99875h5.22375v-.885h-6.185v8.71375h6.245v-.885h-5.28375zm62.22375-.0175-3.12125-4.7525h-.9825v8.71375h.95125v-7.04375l3.1225 4.65h.035l3.12125-4.6575v7.05125h.96875v-8.71375h-.97125zm53.69251.0288c-.4513-.38125-1.1613-.6775-2.1125-.8975-.475-.0975-.8575-.205-1.1638-.32-.2987-.1075-.5412-.23-.7075-.37125-.175-.135-.2925-.28-.355-.44875-.07-.16125-.094-.34375-.094-.5525v-.0213c0-.4.1562-.735.4762-1.0025.33-.27125.7813-.4075 1.34-.4075.4413 0 .865.075 1.2675.2225.4063.15125.81.395 1.205.7225l.56-.75375c-.4312-.35625-.8887-.62625-1.3587-.7975-.4725-.18125-1.0213-.27375-1.645-.27375-.4138 0-.7863.0612-1.1225.18-.35.1175-.6463.285-.8988.50375-.2537.2075-.4487.45125-.5875.74625-.1425.29-.2125.60375-.2125.9475v.0238c0 .35125.066.66625.1738.9325.125.26625.2925.49625.5387.69125.2263.2.5275.37.8925.51.365.14625.7888.27 1.2775.38125.455.0987.8238.19625 1.1113.305.2962.11125.5187.2325.685.3625.1625.13375.2787.285.34.445.066.16.1037.34125.1037.53625v.03c0 .42625-.1762.7825-.5237 1.06125-.3513.275-.8088.415-1.3863.415-.5975 0-1.125-.1-1.58-.305-.465-.205-.9125-.50875-1.355-.9225l-.6037.7175c.5175.47375 1.0562.82625 1.6287 1.04875.5625.23 1.1875.34875 1.8688.34875.43 0 .82-.0638 1.1737-.17875.3575-.115.6663-.28125.92-.49625.2613-.2175.4625-.47875.605-.775.135-.31.2188-.64875.2188-1.01625v-.0312c0-.655-.2288-1.175-.68-1.56m-13.02876-.0113h4.67876v-.88625h-4.67876v-2.99875h5.22376v-.885h-6.19251v8.71375h6.25501v-.885h-5.28626zm-7.93125-4.77h-.97625v8.71375h5.78875v-.9125h-4.8125zm-8.6525 6.27c0 .49125-.1875.87-.55875 1.1425-.3825.28-.9.41625-1.54875.41625h-2.87v-3.07625h2.70625c.74625 0 1.30875.1375 1.69125.39625.38875.25875.58.62375.58 1.10125zm-4.9775-5.3875h2.605c.6075 0 1.07375.1325 1.40375.39125.32625.25875.49.5975.49 1.02375v.0263c0 .50875-.18375.89-.54625 1.15625-.36125.26625-.8325.39125-1.42.39125h-2.5325v-2.98875zm5.405 4.03875c-.16-.16125-.36125-.305-.58375-.4275-.2225-.11875-.455-.21875-.7125-.28625.17125-.0862.3375-.17375.4975-.28875.1525-.11125.2975-.25125.42625-.40875.12875-.1625.24-.35375.31625-.57.0738-.2225.115-.46625.115-.74875v-.0325c0-.535-.18-.99125-.5525-1.3875-.24625-.235-.55625-.42625-.93375-.56375-.37875-.12625-.80875-.2075-1.29625-.2075h-3.6425v8.71375h3.8025c.46625 0 .8825-.0638 1.2675-.165.3825-.10375.7125-.2675.98375-.4675.27-.20125.4825-.44625.62875-.7475.14625-.295.2175-.6275.2175-1.00375v-.0212c0-.30375-.0512-.56-.145-.79375-.0975-.23-.22875-.425-.38875-.59375m-10.02375-.5425c0 .5025-.0825.97125-.24625 1.39375-.1675.43125-.40375.8125-.6975 1.13375-.29625.3225-.64375.5775-1.05625.76875-.41375.18375-.85875.27625-1.3475.27625-.49375 0-.9425-.0962-1.36125-.2875-.4075-.18625-.765-.44625-1.06375-.77-.30125-.3225-.53875-.7-.705-1.135-.17-.43875-.24625-.905-.24625-1.40125v-.025c0-.5.0763-.96.24625-1.3925.16625-.43375.40375-.81125.6875-1.135.295-.32375.64625-.575 1.06625-.76.41375-.19125.86125-.285 1.345-.285.49625 0 .94375.0975 1.3575.29125.41.19125.7675.44625 1.0625.7725.30875.3175.545.69875.7125 1.135.16375.43875.24625.90625.24625 1.39875v.0213zm-.195-3.1875c-.38875-.4125-.84375-.7375-1.375-.975-.5375-.24-1.12125-.365-1.7775-.365-.65375 0-1.2475.12875-1.78875.36875-.5425.24125-.99375.5725-1.3825.985-.38625.41-.68125.88875-.8925 1.43875-.2125.54375-.32 1.11875-.32 1.71375v.0213c0 .60375.1075 1.1675.31 1.7175.20375.54.51 1.02125.885 1.4225.3825.41375.8475.7375 1.375.9825.5425.23875 1.13625.355 1.7825.355.65625 0 1.25-.12 1.7875-.36625.53875-.24375.9975-.57125 1.38625-.98125.3825-.40625.68125-.8875.8925-1.43.20875-.55625.31625-1.12375.31625-1.72125.01-.007.01-.0187 0-.025 0-.59625-.1075-1.16875-.30875-1.70625-.2125-.54875-.50375-1.02625-.89-1.435m13.37875 7.5225h.965v-8.7125h-.965zm-50.2175-7.80625h2.87875v7.80625h.9625v-7.80625h2.87875v-.9075h-6.72zm-87.25875 6.7175c-.42375.2175-.92625.32625-1.5175.32625-.465 0-.90625-.0925-1.3125-.27625-.4-.19125-.7575-.44625-1.045-.76875-.31-.32125-.53875-.7025-.7025-1.135-.17-.4375-.26-.91375-.26-1.41375v-.025c0-.5.09-.96.26-1.39875.16375-.43375.3925-.815.7025-1.13875.2875-.32375.645-.575 1.045-.7575.40625-.18375.8475-.2775 1.3125-.2775.59125 0 1.09375.11875 1.5175.34125.41375.22.81.50875 1.175.85625l.6625-.72375c-.21125-.20375-.43375-.39875-.6625-.56375-.22625-.17125-.47625-.32-.74-.43625-.27875-.12-.56625-.21875-.87875-.27875-.30875-.0687-.6675-.10375-1.06-.10375-.6275 0-1.205.12125-1.73625.35625-.53125.23625-.9825.56375-1.36875.97375-.3775.4075-.68375.8875-.90625 1.43125-.215.55125-.315 1.13375-.315 1.745v.0213c0 .625.1 1.20875.315 1.76125.2225.5475.52875 1.02.90625 1.42375.38625.39875.8375.71125 1.355.9475.52375.2325 1.09375.345 1.71625.345.3925 0 .7425-.035 1.06875-.10625.31625-.0813.615-.18.8825-.315.28125-.13.545-.29.78125-.4775.24375-.1875.4725-.39375.69875-.63125l-.64625-.6275c-.39875.39625-.82375.70375-1.2475.92625m10.09625-3.75375h-4.94125v-3.87125h-.9625v8.71375h.9625v-3.9175h4.94125v3.9175h.9625v-8.71375h-.9625zm-27.51625-2.96375h2.87875v7.80625h.96875v-7.80625h2.8725v-.9075h-6.72zm-20.02625 7.80625h.965v-3.79875h4.64v-.88125h-4.64v-3.12625h5.1925v-.9075h-6.1575zm13.9725-3.19125 1.955-4.43625 1.945 4.43625zm1.51-5.58125-3.8925 8.7725h.99l1.0175-2.30375h4.66l1.00125 2.30375h1.0375l-3.90375-8.7725zm-6.76125 8.7725h.96875v-8.7125h-.96875zm43.795-4.2725v-3.53375h2.65c.685 0 1.22625.1575 1.615.4525.37875.31.57.72625.57 1.26875v.0263c0 .27875-.0525.5325-.16625.745-.105.2225-.2575.41875-.455.57125-.195.14625-.435.2675-.7025.3425-.26375.09-.5625.1275-.885.1275h-2.62625zm4.41125.41625c.285-.1325.53125-.305.7325-.51875.21625-.2075.37875-.45875.49625-.75.105-.28375.16375-.60625.16375-.97625v-.0275c0-.345-.0588-.66-.16375-.95125-.1175-.295-.28-.54-.49625-.755-.26375-.28-.61125-.48875-1.02375-.645-.40625-.1525-.87875-.23375-1.4075-.23375h-3.685v8.71375h.9725v-3.38625h2.4425l2.47875 3.38625h1.18875l-2.63-3.56125c.34125-.0625.64-.16.93125-.295m6.0225-.5-2.88-4.3575h-1.17l3.55625 5.2675v3.44625h.97v-3.45875l3.56-5.255h-1.12625zm10.405.42375c-.45125-.38125-1.1525-.6775-2.115-.8975-.475-.0975-.86125-.205-1.16375-.32-.29875-.1075-.53375-.23-.70125-.37125-.18-.135-.295-.28-.36125-.44875-.0625-.16125-.0937-.34375-.0937-.5525v-.0213c0-.4.16-.735.48-1.0025.32875-.27125.78125-.4075 1.34375-.4075.43375 0 .8575.075 1.26.2225.41.15125.81.395 1.20625.7225l.56875-.75375c-.44375-.35625-.89625-.62625-1.365-.7975-.475-.18125-1.0175-.27375-1.6525-.27375-.4 0-.77875.0612-1.1225.18-.33625.1175-.6425.285-.88875.50375-.26.2075-.455.45125-.59375.74625-.1325.29-.20875.60375-.20875.9475v.0238c0 .35125.0625.66625.17.9325.11875.26625.29625.49625.5325.69125.23875.2.5375.37.90625.51.3575.14625.78125.27 1.27.38125.4525.0987.8275.19625 1.1125.305.295.11125.5275.2325.6875.3625.16.13375.2775.285.34.445.07.16.10375.34125.10375.53625v.03c0 .42625-.17625.7825-.5275 1.06125-.34.275-.80625.415-1.38625.415-.59375 0-1.11375-.1-1.57625-.305-.45875-.205-.91375-.50875-1.3575-.9225l-.60125.7175c.5175.47375 1.05625.82625 1.61875 1.04875.57.23 1.19375.34875 1.875.34875.43125 0 .81625-.0638 1.18125-.17875.36125-.115.66625-.28125.92-.49625.25375-.2175.4475-.47875.5975-.775.14625-.31.21875-.64875.21875-1.01625v-.0312c0-.655-.22875-1.175-.6775-1.56m3.98-4.78125h-.965v8.71375h5.7825v-.9125h-4.8175z" fill="#7a7f81"/></g></svg>