<svg enable-background="new -2.812 -2.828 45 45" height="45" viewBox="-2.812 -2.828 45 45" width="45" xmlns="http://www.w3.org/2000/svg"><path d="m16.991 23.139h6.714l1.961 1.271h-8.971l-4.026 12.446c-4.449-1.724-8.566-5.722-10.293-10.214-1.841-4.353-1.841-9.821.04-14.191 1.764-4.495 6-8.553 10.509-10.22 3.548-1.469 8.295-1.624 12.058-.469 4.317 1.238 8.393 4.332 10.764 8.373 2.65 4.43 3.395 10.059 1.784 15.116-1.018 3.355-3.116 6.567-6.001 8.866l-4.956-8.257 6.898 3.846c.038 0 .059-.042.038-.082l-9.036-7.802 11.687 1.784c.04 0 .057-.019.057-.039l-.075-.059-11.021-3.864 11.451-2.766c.039 0 .039-.036.02-.057l-11.746.766 9.197-6.964c.02-.038-.061-.057-.08-.018l-10.331 5.238 5.703-10.063c0-.016 0-.059-.036-.037l-7.452 8.745 1.429-11.488c0-.021-.04-.04-.079-.021l-3.427 11.157-3.002-11.492c-.02-.019-.061-.04-.079 0l.826 11.92-7.078-9.211c-.023-.021-.041 0-.061.019l5.354 10.194-10.12-5.53c-.019 0-.058.021-.058.038l8.999 7.392-11.487-1.213c-.042.021-.042.057 0 .075l11.137 3.259-11.078 3.255c-.021.017-.021.058 0 .075l11.429-1.331-8.98 7.628c-.019 0-.038.038 0 .061l.12-.04 7.192-3.766 1.689-2.686h1.918l-1.331-.941 4.45-7.139-2.625 8.433z" fill="#568200"/></svg>