<?xml version="1.0" encoding="utf-8"?>
<!-- Generator: Adobe Illustrator 16.0.0, SVG Export Plug-In . SVG Version: 6.00 Build 0)  -->
<!DOCTYPE svg PUBLIC "-//W3C//DTD SVG 1.1//EN" "http://www.w3.org/Graphics/SVG/1.1/DTD/svg11.dtd">
<svg version="1.1"
	 id="svg39011" xmlns:dc="http://purl.org/dc/elements/1.1/" xmlns:cc="http://creativecommons.org/ns#" xmlns:rdf="http://www.w3.org/1999/02/22-rdf-syntax-ns#" xmlns:svg="http://www.w3.org/2000/svg"
	 xmlns="http://www.w3.org/2000/svg" xmlns:xlink="http://www.w3.org/1999/xlink" x="0px" y="0px" width="45px" height="45px"
	 viewBox="-2.812 -2.828 45 45" enable-background="new -2.812 -2.828 45 45" xml:space="preserve">
<path id="path38499" fill="#568200" d="M16.991,23.139h6.714l1.961,1.271h-8.971l-4.026,12.446
	c-4.449-1.724-8.566-5.722-10.293-10.214c-1.841-4.353-1.841-9.821,0.04-14.191c1.764-4.495,6-8.553,10.509-10.22
	c3.548-1.469,8.295-1.624,12.058-0.469C29.3,3,33.376,6.094,35.747,10.135c2.65,4.43,3.395,10.059,1.784,15.116
	c-1.018,3.355-3.116,6.567-6.001,8.866l-4.956-8.257l6.898,3.846c0.038,0,0.059-0.042,0.038-0.082l-9.036-7.802l11.687,1.784
	c0.04,0,0.057-0.019,0.057-0.039l-0.075-0.059l-11.021-3.864l11.451-2.766c0.039,0,0.039-0.036,0.02-0.057l-11.746,0.766
	l9.197-6.964c0.02-0.038-0.061-0.057-0.08-0.018l-10.331,5.238l5.703-10.063c0-0.016,0-0.059-0.036-0.037l-7.452,8.745L23.277,3
	c0-0.021-0.04-0.04-0.079-0.021l-3.427,11.157L16.769,2.644c-0.02-0.019-0.061-0.04-0.079,0l0.826,11.92l-7.078-9.211
	c-0.023-0.021-0.041,0-0.061,0.019l5.354,10.194l-10.12-5.53c-0.019,0-0.058,0.021-0.058,0.038l8.999,7.392L3.065,16.253
	c-0.042,0.021-0.042,0.057,0,0.075l11.137,3.259L3.124,22.842c-0.021,0.017-0.021,0.058,0,0.075l11.429-1.331l-8.98,7.628
	c-0.019,0-0.038,0.038,0,0.061l0.12-0.04l7.192-3.766l1.689-2.686h1.918l-1.331-0.941l4.45-7.139l-2.625,8.433L16.991,23.139"/>
</svg>
