<?xml version="1.0" encoding="utf-8"?>
<!-- Generator: Adobe Illustrator 16.0.0, SVG Export Plug-In . SVG Version: 6.00 Build 0)  -->
<!DOCTYPE svg PUBLIC "-//W3C//DTD SVG 1.1//EN" "http://www.w3.org/Graphics/SVG/1.1/DTD/svg11.dtd">
<svg version="1.1"
	 id="svg4734" xmlns:inkscape="http://www.inkscape.org/namespaces/inkscape" xmlns:sodipodi="http://sodipodi.sourceforge.net/DTD/sodipodi-0.dtd" xmlns:dc="http://purl.org/dc/elements/1.1/" xmlns:cc="http://creativecommons.org/ns#" xmlns:rdf="http://www.w3.org/1999/02/22-rdf-syntax-ns#" xmlns:svg="http://www.w3.org/2000/svg" inkscape:version="0.92.0 r15299" sodipodi:docname="ford.svg"
	 xmlns="http://www.w3.org/2000/svg" xmlns:xlink="http://www.w3.org/1999/xlink" x="0px" y="0px" width="85.508px"
	 height="32.688px" viewBox="0 0 85.508 32.688" enable-background="new 0 0 85.508 32.688" xml:space="preserve">
<sodipodi:namedview  units="px" inkscape:cx="42.75444" borderopacity="1.0" inkscape:cy="16.344345" pagecolor="#ffffff" showgrid="false" fit-margin-left="0" inkscape:zoom="10.490138" bordercolor="#666666" fit-margin-top="0" id="base" inkscape:window-maximized="1" inkscape:window-y="-4" inkscape:window-x="-4" fit-margin-right="0" inkscape:current-layer="layer1" inkscape:pageopacity="0.0" inkscape:document-units="mm" inkscape:pageshadow="2" inkscape:window-width="1280" inkscape:window-height="744" fit-margin-bottom="0">
	</sodipodi:namedview>
<path id="path737" inkscape:connector-curvature="0" fill="#003478" d="M42.754,0.5C19.301,0.5,0.5,7.53,0.5,16.344
	c0,8.76,18.956,15.844,42.254,15.844c23.299,0,42.254-7.107,42.254-15.844C85.008,7.607,66.053,0.5,42.754,0.5"/>
<path id="path741" inkscape:connector-curvature="0" fill="#FFFFFF" d="M59.398,19.7c0.011,0.073,0.106,0.143,0.198,0.176
	c0.035,0.012,0.051,0.033,0.016,0.111c-0.264,0.563-0.506,0.889-0.835,1.379c-0.304,0.453-0.646,0.806-1.06,1.146
	c-0.623,0.517-1.49,1.079-2.207,0.7c-0.318-0.164-0.455-0.609-0.449-0.971c0.015-1.014,0.466-2.055,1.299-3.078
	c1.016-1.25,2.139-1.898,2.875-1.545c0.762,0.364,0.52,1.246,0.178,1.939C59.386,19.611,59.386,19.657,59.398,19.7 M67.578,11.799
	c0.055-0.097-0.003-0.167-0.125-0.167c-0.637,0-1.472,0.001-2.136,0.001c-0.158,0-0.239,0.019-0.314,0.167
	c-0.244,0.469-3.229,4.941-3.783,5.811c-0.094,0.132-0.209,0.113-0.222-0.039c-0.057-0.516-0.502-1.108-1.204-1.392
	c-0.535-0.217-1.058-0.256-1.602-0.184c-0.98,0.132-1.855,0.65-2.625,1.234c-1.158,0.881-2.158,2.021-3.448,2.865
	c-0.704,0.459-1.669,0.859-2.315,0.262c-0.584-0.541-0.518-1.744,0.377-2.675c0.094-0.097,0.207-0.015,0.189,0.071
	c-0.085,0.421,0.018,0.84,0.338,1.133c0.391,0.35,0.948,0.389,1.426,0.156c0.563-0.279,0.895-0.818,0.992-1.432
	c0.148-0.949-0.582-1.787-1.497-1.854c-0.743-0.052-1.455,0.206-2.149,0.779c-0.348,0.289-0.546,0.502-0.847,0.93
	c-0.073,0.105-0.187,0.116-0.183-0.039c0.034-1.216-0.469-1.9-1.473-1.922c-0.781-0.019-1.614,0.405-2.264,0.923
	c-0.713,0.572-1.335,1.33-2.002,2.042c-0.083,0.087-0.155,0.082-0.179-0.088c-0.019-0.805-0.223-1.585-0.595-2.139
	c-0.132-0.192-0.41-0.288-0.643-0.158c-0.107,0.059-0.482,0.231-0.755,0.451c-0.135,0.112-0.188,0.273-0.128,0.48
	c0.36,1.203,0.281,2.571-0.208,3.728c-0.448,1.058-1.319,2.012-2.344,2.336c-0.674,0.213-1.375,0.108-1.81-0.489
	c-0.596-0.825-0.355-2.261,0.533-3.452c0.784-1.051,1.918-1.717,3.049-2.146c0.133-0.051,0.161-0.137,0.123-0.25
	c-0.061-0.186-0.159-0.439-0.199-0.555c-0.104-0.276-0.394-0.321-0.749-0.283c-0.822,0.096-1.563,0.377-2.295,0.77
	c-1.918,1.026-2.879,3.015-3.301,4.078c-0.203,0.511-0.376,0.829-0.601,1.112c-0.303,0.379-0.682,0.726-1.376,1.335
	c-0.063,0.056-0.11,0.173-0.057,0.28c0.071,0.146,0.432,0.656,0.533,0.703c0.113,0.055,0.244-0.023,0.297-0.061
	c0.486-0.329,1.066-0.851,1.351-1.205c0.1-0.121,0.202-0.07,0.255,0.114c0.266,0.946,0.96,1.72,1.921,2.043
	c1.758,0.593,3.582-0.266,4.959-1.76c0.875-0.95,1.19-1.562,1.526-1.976c0.568-0.705,1.69-2.279,3.024-3.291
	c0.49-0.373,1.07-0.658,1.361-0.469c0.234,0.151,0.309,0.504-0.066,1.186c-1.361,2.486-3.364,5.408-3.731,6.115
	c-0.067,0.123-0.008,0.221,0.12,0.221c0.713-0.004,1.418-0.002,2.065-0.002c0.108-0.004,0.155-0.055,0.21-0.131
	c1.045-1.635,2.027-3.191,3.082-4.801c0.059-0.096,0.113-0.023,0.115,0.019c0.023,0.374,0.113,0.884,0.336,1.22
	c0.398,0.619,0.963,0.887,1.588,0.891c0.499,0.008,0.751-0.07,1.288-0.271c0.438-0.162,0.788-0.375,1.058-0.566
	c0.157-0.11,0.185,0.073,0.182,0.102c-0.242,1.298,0.057,2.836,1.346,3.475c1.545,0.761,3.242-0.309,4.218-1.275
	c0.096-0.094,0.198-0.083,0.208,0.117c0.022,0.369,0.188,0.807,0.492,1.113c0.818,0.82,2.469,0.496,4.125-0.787
	c1.064-0.82,2.178-1.98,3.183-3.209c0.038-0.047,0.065-0.123-0.008-0.201c-0.153-0.16-0.374-0.344-0.526-0.484
	c-0.068-0.059-0.17-0.043-0.229,0.002c-1.031,0.98-1.959,2.098-3.299,3.021c-0.452,0.316-1.173,0.57-1.496,0.133
	c-0.127-0.171-0.112-0.406,0.011-0.715c0.392-0.975,6.579-10.396,6.901-10.952"/>
<path id="path745" inkscape:connector-curvature="0" fill="#FFFFFF" d="M38.462,12.936c0.026,0.14,0.081,0.167,0.144,0.156
	c0.315-0.063,0.66-0.323,0.865-0.623c0.186-0.272,0.273-0.666,0.088-0.823c-0.165-0.142-0.433-0.102-0.632,0.074
	C38.531,12.069,38.411,12.565,38.462,12.936 M22.689,25.065c-2.308,0.015-4.34-1.41-4.574-3.879
	c-0.129-1.368,0.257-2.588,1.031-3.592c0.687-0.895,1.849-1.638,2.833-1.82c0.32-0.059,0.75-0.022,0.928,0.19
	c0.279,0.325,0.199,0.682-0.08,0.824c-0.75,0.384-1.653,1.039-2.101,1.935c-0.362,0.732-0.436,1.613,0.118,2.452
	c0.927,1.399,3.509,1.438,5.911-0.794c0.595-0.546,1.127-1.07,1.668-1.691c1.058-1.21,1.41-1.65,2.816-3.601
	c0.015-0.022,0.022-0.052,0.015-0.066c-0.012-0.026-0.03-0.03-0.072-0.034c-0.939,0.027-1.757,0.306-2.553,0.9
	c-0.229,0.167-0.559,0.144-0.703-0.076c-0.161-0.249-0.045-0.573,0.219-0.755c1.28-0.89,2.677-1.051,4.105-1.292
	c-0.001,0,0.099,0.004,0.181-0.104c0.586-0.752,1.028-1.43,1.653-2.191c0.629-0.771,1.442-1.48,2.063-2.013
	c0.867-0.746,1.423-0.996,1.988-1.304c0.149-0.078-0.019-0.171-0.064-0.171c-3.155-0.593-6.435-1.36-9.568-0.2
	c-2.17,0.81-3.121,2.531-2.664,3.681c0.326,0.816,1.398,0.948,2.403,0.457c0.834-0.409,1.606-1.067,2.153-1.915
	c0.306-0.471,0.951-0.131,0.603,0.687c-0.917,2.155-2.668,3.865-4.802,3.937c-1.816,0.059-2.988-1.277-2.984-2.925
	c0.008-3.251,3.626-5.392,7.43-5.712c4.58-0.378,8.918,0.841,13.466,1.393c3.484,0.422,6.825,0.431,10.327-0.374
	c0.414-0.09,0.705,0.174,0.678,0.592c-0.034,0.604-0.502,1.187-1.656,1.815c-1.312,0.72-2.684,0.938-4.117,0.95
	c-3.467,0.03-6.694-1.322-10.036-2.048c0.004,0.146,0.042,0.321-0.08,0.413c-1.851,1.365-3.523,2.751-4.644,4.698
	c-0.038,0.045-0.019,0.088,0.048,0.083c0.973-0.052,1.848-0.077,2.756-0.149c0.159-0.015,0.165-0.053,0.151-0.168
	c-0.081-0.671,0.116-1.437,0.706-1.963c0.604-0.542,1.361-0.603,1.862-0.213c0.57,0.444,0.52,1.244,0.208,1.843
	c-0.317,0.608-0.842,0.933-1.345,1.091c0,0-0.106,0.022-0.09,0.119c0.019,0.153,0.706,0.534,0.764,0.635
	c0.057,0.096,0.026,0.246-0.077,0.36c-0.073,0.083-0.187,0.161-0.332,0.159c-0.118-0.002-0.189-0.043-0.339-0.125
	c-0.308-0.167-0.692-0.44-0.949-0.764c-0.087-0.109-0.132-0.111-0.35-0.1c-0.982,0.057-2.515,0.205-3.553,0.334
	c-0.252,0.03-0.289,0.079-0.341,0.166c-1.655,2.73-3.422,5.673-5.363,7.644C26.256,24.494,24.526,25.049,22.689,25.065"/>
<path id="path749" inkscape:connector-curvature="0" fill="#FFFFFF" d="M42.753,3.091c-21.577,0-39.066,5.962-39.066,13.258
	s17.49,13.259,39.066,13.259c21.576,0,39.064-5.963,39.064-13.259S64.33,3.091,42.753,3.091 M42.753,30.81
	c-22.362,0-40.49-6.475-40.49-14.461c0-7.988,18.127-14.461,40.49-14.461c22.36,0,40.486,6.473,40.486,14.461
	C83.24,24.335,65.114,30.81,42.753,30.81"/>
</svg>
