<svg enable-background="new 0 0 85.508 32.688" height="32.688" viewBox="0 0 85.508 32.688" width="85.508" xmlns="http://www.w3.org/2000/svg"><path d="m42.754.5c-23.453 0-42.254 7.03-42.254 15.844 0 8.76 18.956 15.844 42.254 15.844 23.299 0 42.254-7.107 42.254-15.844s-18.955-15.844-42.254-15.844" fill="#003478"/><g fill="#fff"><path d="m59.398 19.7c.011.073.106.143.198.176.035.012.051.033.016.111-.264.563-.506.889-.835 1.379-.304.453-.646.806-1.06 1.146-.623.517-1.49 1.079-2.207.7-.318-.164-.455-.609-.449-.971.015-1.014.466-2.055 1.299-3.078 1.016-1.25 2.139-1.898 2.875-1.545.762.364.52 1.246.178 1.939-.027.054-.027.1-.015.143m8.18-7.901c.055-.097-.003-.167-.125-.167-.637 0-1.472.001-2.136.001-.158 0-.239.019-.314.167-.244.469-3.229 4.941-3.783 5.811-.094.132-.209.113-.222-.039-.057-.516-.502-1.108-1.204-1.392-.535-.217-1.058-.256-1.602-.184-.98.132-1.855.65-2.625 1.234-1.158.881-2.158 2.021-3.448 2.865-.704.459-1.669.859-2.315.262-.584-.541-.518-1.744.377-2.675.094-.097.207-.015.189.071-.085.421.018.84.338 1.133.391.35.948.389 1.426.156.563-.279.895-.818.992-1.432.148-.949-.582-1.787-1.497-1.854-.743-.052-1.455.206-2.149.779-.348.289-.546.502-.847.93-.073.105-.187.116-.183-.039.034-1.216-.469-1.9-1.473-1.922-.781-.019-1.614.405-2.264.923-.713.572-1.335 1.33-2.002 2.042-.083.087-.155.082-.179-.088-.019-.805-.223-1.585-.595-2.139-.132-.192-.41-.288-.643-.158-.107.059-.482.231-.755.451-.135.112-.188.273-.128.48.36 1.203.281 2.571-.208 3.728-.448 1.058-1.319 2.012-2.344 2.336-.674.213-1.375.108-1.81-.489-.596-.825-.355-2.261.533-3.452.784-1.051 1.918-1.717 3.049-2.146.133-.051.161-.137.123-.25-.061-.186-.159-.439-.199-.555-.104-.276-.394-.321-.749-.283-.822.096-1.563.377-2.295.77-1.918 1.026-2.879 3.015-3.301 4.078-.203.511-.376.829-.601 1.112-.303.379-.682.726-1.376 1.335-.063.056-.11.173-.057.28.071.146.432.656.533.703.113.055.244-.023.297-.061.486-.329 1.066-.851 1.351-1.205.1-.121.202-.07.255.114.266.946.96 1.72 1.921 2.043 1.758.593 3.582-.266 4.959-1.76.875-.95 1.19-1.562 1.526-1.976.568-.705 1.69-2.279 3.024-3.291.49-.373 1.07-.658 1.361-.469.234.151.309.504-.066 1.186-1.361 2.486-3.364 5.408-3.731 6.115-.067.123-.008.221.12.221.713-.004 1.418-.002 2.065-.002.108-.004.155-.055.21-.131 1.045-1.635 2.027-3.191 3.082-4.801.059-.096.113-.023.115.019.023.374.113.884.336 1.22.398.619.963.887 1.588.891.499.008.751-.07 1.288-.271.438-.162.788-.375 1.058-.566.157-.11.185.073.182.102-.242 1.298.057 2.836 1.346 3.475 1.545.761 3.242-.309 4.218-1.275.096-.094.198-.083.208.117.022.369.188.807.492 1.113.818.82 2.469.496 4.125-.787 1.064-.82 2.178-1.98 3.183-3.209.038-.047.065-.123-.008-.201-.153-.16-.374-.344-.526-.484-.068-.059-.17-.043-.229.002-1.031.98-1.959 2.098-3.299 3.021-.452.316-1.173.57-1.496.133-.127-.171-.112-.406.011-.715.392-.975 6.579-10.396 6.901-10.952"/><path d="m38.462 12.936c.026.14.081.167.144.156.315-.063.66-.323.865-.623.186-.272.273-.666.088-.823-.165-.142-.433-.102-.632.074-.396.349-.516.845-.465 1.216m-15.773 12.129c-2.308.015-4.34-1.41-4.574-3.879-.129-1.368.257-2.588 1.031-3.592.687-.895 1.849-1.638 2.833-1.82.32-.059.75-.022.928.19.279.325.199.682-.08.824-.75.384-1.653 1.039-2.101 1.935-.362.732-.436 1.613.118 2.452.927 1.399 3.509 1.438 5.911-.794.595-.546 1.127-1.07 1.668-1.691 1.058-1.21 1.41-1.65 2.816-3.601.015-.022.022-.052.015-.066-.012-.026-.03-.03-.072-.034-.939.027-1.757.306-2.553.9-.229.167-.559.144-.703-.076-.161-.249-.045-.573.219-.755 1.28-.89 2.677-1.051 4.105-1.292-.001 0 .099.004.181-.104.586-.752 1.028-1.43 1.653-2.191.629-.771 1.442-1.48 2.063-2.013.867-.746 1.423-.996 1.988-1.304.149-.078-.019-.171-.064-.171-3.155-.593-6.435-1.36-9.568-.2-2.17.81-3.121 2.531-2.664 3.681.326.816 1.398.948 2.403.457.834-.409 1.606-1.067 2.153-1.915.306-.471.951-.131.603.687-.917 2.155-2.668 3.865-4.802 3.937-1.816.059-2.988-1.277-2.984-2.925.008-3.251 3.626-5.392 7.43-5.712 4.58-.378 8.918.841 13.466 1.393 3.484.422 6.825.431 10.327-.374.414-.09.705.174.678.592-.034.604-.502 1.187-1.656 1.815-1.312.72-2.684.938-4.117.95-3.467.03-6.694-1.322-10.036-2.048.004.146.042.321-.08.413-1.851 1.365-3.523 2.751-4.644 4.698-.038.045-.019.088.048.083.973-.052 1.848-.077 2.756-.149.159-.015.165-.053.151-.168-.081-.671.116-1.437.706-1.963.604-.542 1.361-.603 1.862-.213.57.444.52 1.244.208 1.843-.317.608-.842.933-1.345 1.091 0 0-.106.022-.09.119.019.153.706.534.764.635.057.096.026.246-.077.36-.073.083-.187.161-.332.159-.118-.002-.189-.043-.339-.125-.308-.167-.692-.44-.949-.764-.087-.109-.132-.111-.35-.1-.982.057-2.515.205-3.553.334-.252.03-.289.079-.341.166-1.655 2.73-3.422 5.673-5.363 7.644-2.08 2.11-3.81 2.665-5.647 2.681"/><path d="m42.753 3.091c-21.577 0-39.066 5.962-39.066 13.258s17.49 13.259 39.066 13.259 39.064-5.963 39.064-13.259-17.487-13.258-39.064-13.258m0 27.719c-22.362 0-40.49-6.475-40.49-14.461 0-7.988 18.127-14.461 40.49-14.461 22.36 0 40.486 6.473 40.486 14.461.001 7.986-18.125 14.461-40.486 14.461"/></g></svg>