<?xml version="1.0" encoding="utf-8"?>
<!-- Generator: Adobe Illustrator 16.0.0, SVG Export Plug-In . SVG Version: 6.00 Build 0)  -->
<!DOCTYPE svg PUBLIC "-//W3C//DTD SVG 1.1//EN" "http://www.w3.org/Graphics/SVG/1.1/DTD/svg11.dtd">
<svg version="1.1"
	 id="svg10596" xmlns:inkscape="http://www.inkscape.org/namespaces/inkscape" xmlns:sodipodi="http://sodipodi.sourceforge.net/DTD/sodipodi-0.dtd" xmlns:dc="http://purl.org/dc/elements/1.1/" xmlns:cc="http://creativecommons.org/ns#" xmlns:rdf="http://www.w3.org/1999/02/22-rdf-syntax-ns#" xmlns:svg="http://www.w3.org/2000/svg" inkscape:version="0.92.0 r15299" sodipodi:docname="the fresh market.svg"
	 xmlns="http://www.w3.org/2000/svg" xmlns:xlink="http://www.w3.org/1999/xlink" x="0px" y="0px" width="231.396px"
	 height="231.396px" viewBox="0 0 231.396 231.396" enable-background="new 0 0 231.396 231.396" xml:space="preserve">
<sodipodi:namedview  inkscape:cx="152.375" borderopacity="1.0" inkscape:cy="152.375" pagecolor="#ffffff" showgrid="false" fit-margin-left="0" inkscape:zoom="1.7489746" bordercolor="#666666" fit-margin-top="0" id="base" inkscape:window-maximized="1" inkscape:window-y="-4" inkscape:window-x="-4" fit-margin-right="0" inkscape:current-layer="layer1" inkscape:pageopacity="0.0" inkscape:document-units="mm" inkscape:pageshadow="2" inkscape:window-width="1280" inkscape:window-height="744" fit-margin-bottom="0">
	</sodipodi:namedview>
<path id="path10606" inkscape:connector-curvature="0" fill="#FFFFFF" d="M101.07,53.685h-4.5c-0.27,0-0.359,0.135-0.359,0.405
	v17.827c0.018,0.156-0.096,0.298-0.252,0.315c-0.021,0.002-0.042,0.002-0.063,0h-3.247c-0.226,0-0.315-0.091-0.315-0.315V54.06
	c0-0.271-0.09-0.405-0.405-0.405h-4.5c-0.225,0-0.359-0.09-0.359-0.314v-2.655c0-0.225,0.135-0.315,0.359-0.315h13.628
	c0.156-0.018,0.298,0.096,0.314,0.252c0.003,0.021,0.003,0.042,0,0.063v2.662c0,0.226-0.09,0.315-0.314,0.315"/>
<path id="path10608" inkscape:connector-curvature="0" fill="#FFFFFF" d="M121.784,72.202h-3.202
	c-0.156,0.018-0.298-0.095-0.315-0.252c-0.002-0.021-0.002-0.042,0-0.063v-8.76c0-0.225-0.135-0.36-0.404-0.36h-7.447
	c-0.271,0-0.36,0.136-0.36,0.36v8.753c0,0.225-0.135,0.314-0.36,0.314h-3.247c-0.156,0.018-0.298-0.095-0.315-0.251
	c-0.002-0.021-0.002-0.043,0-0.063V50.685c-0.018-0.156,0.096-0.298,0.252-0.315c0.021-0.002,0.042-0.002,0.063,0h3.247
	c0.177-0.021,0.337,0.106,0.358,0.283c0.001,0.011,0.002,0.021,0.002,0.032v8.393c0,0.225,0.09,0.36,0.36,0.36h7.447
	c0.27,0,0.404-0.136,0.404-0.36v-8.393c-0.017-0.156,0.096-0.298,0.252-0.315c0.021-0.002,0.042-0.002,0.063,0h3.202
	c0.271,0,0.36,0.091,0.36,0.315v21.21c0,0.225-0.09,0.315-0.36,0.315"/>
<path id="path10610" inkscape:connector-curvature="0" fill="#FFFFFF" d="M143.31,72.202h-13.178
	c-0.156,0.018-0.297-0.095-0.314-0.252c-0.003-0.021-0.003-0.042,0-0.063V50.685c-0.018-0.156,0.095-0.298,0.251-0.315
	c0.021-0.002,0.043-0.002,0.063,0h13.178c0.177-0.021,0.337,0.106,0.357,0.283c0.002,0.011,0.002,0.021,0.003,0.032v2.662
	c0,0.226-0.136,0.315-0.36,0.315h-9.21c-0.271,0-0.36,0.135-0.36,0.405v5.01c0,0.225,0.09,0.36,0.36,0.36h7.628
	c0.177-0.021,0.337,0.105,0.357,0.282c0.001,0.011,0.002,0.021,0.002,0.032v2.708c-0.003,0.178-0.149,0.319-0.327,0.316
	c-0.011,0-0.022-0.001-0.032-0.002H134.1c-0.271,0-0.36,0.135-0.36,0.36v5.37c0,0.225,0.09,0.359,0.36,0.359h9.21
	c0.182-0.018,0.343,0.116,0.36,0.297c0.002,0.021,0.002,0.042,0,0.063v2.662C143.67,72.113,143.534,72.202,143.31,72.202"/>
<path id="path10612" inkscape:connector-curvature="0" fill="#FFFFFF" d="M72.074,167.092h-3.06c-0.225,0-0.36-0.09-0.36-0.314
	v-6.525c0-3,0.271-6.84,0.315-7.245l-0.135-0.045c-0.045,0.135-0.54,1.89-0.9,2.745l-3.555,8.145
	c-0.045,0.226-0.226,0.271-0.405,0.271H62.01c-0.194,0.023-0.38-0.088-0.45-0.271l-3.473-8.167c-0.359-0.855-0.854-2.565-0.899-2.7
	l-0.136,0.045c0.045,0.405,0.315,4.186,0.315,7.2v6.57c0,0.225-0.09,0.314-0.36,0.314h-3.104c-0.226,0-0.315-0.09-0.315-0.314
	v-21.15c0-0.225,0.09-0.314,0.315-0.314h3.239c0.132-0.007,0.255,0.063,0.315,0.18l5.085,12c0.18,0.45,0.405,1.215,0.45,1.395h0.135
	c0-0.18,0.315-0.944,0.45-1.395l4.995-12c0.072-0.128,0.214-0.199,0.359-0.18h3.15c0.225,0,0.36,0.09,0.36,0.314v21.15
	c0,0.225-0.136,0.314-0.36,0.314"/>
<path id="path10614" inkscape:connector-curvature="0" fill="#FFFFFF" d="M94.079,167.085h-3.465c-0.18,0-0.27-0.046-0.314-0.226
	l-1.26-3.75c-0.046-0.18-0.181-0.225-0.405-0.225H82.92c-0.226,0-0.315,0.045-0.36,0.225l-1.26,3.75
	c-0.052,0.15-0.202,0.244-0.36,0.226h-3.375c-0.314,0-0.45-0.181-0.359-0.45l7.02-21.105c0.052-0.15,0.202-0.244,0.36-0.225h2.43
	c0.18,0,0.315,0.045,0.315,0.225l7.064,21.105C94.485,166.905,94.395,167.085,94.079,167.085 M86.385,153.435
	c-0.181-0.99-0.45-2.521-0.495-2.655h-0.135c-0.112,0.897-0.293,1.785-0.54,2.655L83.46,159.6c-0.045,0.18,0.045,0.36,0.359,0.36
	h3.96c0.271,0,0.405-0.181,0.315-0.36L86.385,153.435z"/>
<path id="path10616" inkscape:connector-curvature="0" fill="#FFFFFF" d="M114.863,167.085h-3.465
	c-0.132-0.005-0.243-0.098-0.271-0.226l-3.548-8.925c-0.035-0.142-0.169-0.237-0.314-0.225h-3.825c-0.27,0-0.36,0.135-0.36,0.359
	v8.73c0,0.225-0.135,0.314-0.359,0.314h-3.21c-0.156,0.018-0.298-0.095-0.315-0.251c-0.002-0.021-0.002-0.043,0-0.063v-21.15
	c-0.018-0.156,0.096-0.297,0.252-0.314c0.021-0.003,0.042-0.003,0.063,0h8.46c4.05,0,6.66,2.43,6.66,6.39v0.314
	c-0.071,1.959-1.188,3.729-2.925,4.636c-0.226,0.135-0.226,0.314-0.181,0.585l3.75,9.404c0.09,0.271,0,0.45-0.359,0.45
	 M110.76,151.387c0.037-1.503-1.15-2.752-2.653-2.79c-0.046-0.001-0.091-0.001-0.137,0h-4.5c-0.271,0-0.36,0.136-0.36,0.405v5.183
	c0,0.225,0.09,0.36,0.36,0.36h4.5c1.473,0.066,2.721-1.074,2.787-2.548c0.003-0.051,0.003-0.102,0.003-0.152V151.387z"/>
<path id="path10618" inkscape:connector-curvature="0" fill="#FFFFFF" d="M137.677,167.092h-4.229c-0.165,0-0.317-0.085-0.405-0.225
	l-5.535-8.933c-0.18-0.271-0.404-0.271-0.585-0.045l-1.665,2.07v6.795c0,0.225-0.135,0.314-0.359,0.314h-3.24
	c-0.156,0.018-0.298-0.095-0.315-0.251c-0.002-0.021-0.002-0.043,0-0.063v-21.15c-0.018-0.156,0.096-0.298,0.252-0.315
	c0.021-0.002,0.042-0.002,0.063,0h3.24c0.172-0.024,0.332,0.095,0.356,0.268c0.002,0.016,0.003,0.032,0.003,0.048v7.83
	c0.012,0.408,0.058,0.814,0.135,1.215l7.29-9.18c0.08-0.12,0.217-0.188,0.36-0.181h3.825c0.405,0,0.495,0.271,0.27,0.54l-7.02,8.25
	c-0.135,0.136-0.09,0.226,0,0.36l7.83,12.105c0.18,0.27,0.09,0.494-0.271,0.494"/>
<path id="path10620" inkscape:connector-curvature="0" fill="#FFFFFF" d="M156.21,167.092H143.07
	c-0.156,0.018-0.297-0.095-0.314-0.251c-0.003-0.021-0.003-0.043,0-0.063v-21.15c-0.018-0.156,0.095-0.298,0.251-0.314
	c0.021-0.003,0.043-0.003,0.063,0h13.141c0.172-0.025,0.332,0.094,0.356,0.267c0.002,0.016,0.003,0.032,0.003,0.048v2.655
	c0,0.225-0.135,0.314-0.359,0.314h-9.181c-0.27,0-0.359,0.136-0.359,0.405v4.995c0,0.225,0.09,0.36,0.359,0.36h7.605
	c0.177-0.021,0.337,0.105,0.357,0.282c0.002,0.011,0.002,0.021,0.002,0.032v2.7c0.002,0.174-0.138,0.316-0.312,0.318
	c-0.016,0-0.032-0.001-0.048-0.003h-7.605c-0.27,0-0.359,0.135-0.359,0.359v5.355c0,0.225,0.09,0.359,0.359,0.359h9.181
	c0.181-0.018,0.342,0.116,0.359,0.297c0.002,0.021,0.002,0.042,0,0.063v2.655C156.57,167.002,156.435,167.092,156.21,167.092"/>
<path id="path10622" inkscape:connector-curvature="0" fill="#FFFFFF" d="M173.85,148.597h-4.5c-0.271,0-0.36,0.136-0.36,0.405
	v17.775c0.018,0.156-0.095,0.297-0.251,0.314c-0.021,0.003-0.043,0.003-0.063,0h-3.24c-0.225,0-0.315-0.09-0.315-0.314v-17.775
	c0-0.27-0.09-0.405-0.404-0.405h-4.455c-0.226,0-0.36-0.09-0.36-0.314v-2.655c0-0.225,0.135-0.314,0.36-0.314h13.59
	c0.156-0.018,0.298,0.095,0.315,0.251c0.002,0.021,0.002,0.042,0,0.063v2.655C174.165,148.507,174.074,148.597,173.85,148.597"/>
<path id="path10624" inkscape:connector-curvature="0" fill="#99CA3C" d="M34.012,72.435V34.38c0-0.19,0.155-0.346,0.346-0.346
	H197.01c0.19,0,0.345,0.155,0.345,0.346v38.055h6.907V34.38c0-4.006-3.247-7.253-7.252-7.253H34.358
	c-4.006,0-7.253,3.247-7.253,7.253v38.055H34.012z"/>
<path id="path10626" inkscape:connector-curvature="0" fill="#99CA3C" d="M197.393,145.02v51.997c0,0.191-0.155,0.346-0.346,0.346
	h-48.12c-1.635,2.482-3.3,4.792-4.987,6.907h53.07c4.005,0,7.252-3.247,7.252-7.253l0,0V145.02H197.393z"/>
<path id="path10628" inkscape:connector-curvature="0" fill="#99CA3C" d="M34.012,145.02v51.997c0,0.191,0.155,0.346,0.346,0.346
	H82.47c1.635,2.482,3.3,4.792,4.995,6.907H34.358c-4.006,0-7.253-3.247-7.253-7.253l0,0V145.02H34.012z"/>
<path id="path10630" inkscape:connector-curvature="0" fill="#FFFFFF" d="M119.452,184.313c-13.912-1.95-24.607,6.06-22.673,15.397
	c12.397-10.673,21.255-4.897,36.067-8.468c0.585-0.143,0.045,0.57-0.832,0.982c-7.763,3.652-13.335,0.952-23.827,3.66
	c-7.995,2.063-13.71,9.569-16.5,14.077c-1.028,1.897,0.51,4.5,0.75,4.905c0.404,0.683,0.75,0.479,0.824-0.195
	c0.346-2.138,1.403-6.787,4.192-8.64c9.533,10.425,34.088,10.755,49.86-22.313c0.36-0.75,0.053-2.018-1.545-0.931
	c-6.465,3.091-12.405,3.473-26.317,1.5"/>
<path id="path10632" inkscape:connector-curvature="0" fill="#FFFFFF" d="M42.855,86.685H15.57c-0.32-0.039-0.612,0.188-0.651,0.51
	c-0.006,0.045-0.006,0.09-0.001,0.135v43.103c-0.035,0.321,0.196,0.61,0.518,0.646c0.045,0.005,0.09,0.005,0.135-0.001h6.75
	c0.465,0,0.75-0.188,0.75-0.646v-17.797c0-0.458,0.188-0.75,0.75-0.75h15.766c0.375,0,0.75-0.188,0.75-0.646v-5.505
	c0-0.457-0.375-0.645-0.75-0.645H23.797c-0.563,0-0.75-0.277-0.75-0.75V94.185c0-0.548,0.188-0.825,0.75-0.825h19.058
	c0.465,0,0.75-0.188,0.75-0.645v-5.408C43.605,86.865,43.26,86.685,42.855,86.685z"/>
<path id="path10634" inkscape:connector-curvature="0" fill="#FFFFFF" d="M80.52,110.985c-0.098-0.547-0.098-0.915,0.375-1.192
	c3.587-1.817,5.911-5.432,6.075-9.45v-0.638c0-8.069-5.423-13.027-13.83-13.027H55.568c-0.321-0.039-0.612,0.189-0.652,0.51
	c-0.005,0.045-0.006,0.091,0,0.136v43.103c-0.036,0.321,0.195,0.61,0.517,0.646c0.045,0.005,0.091,0.005,0.136-0.001h6.75
	c0.465,0,0.75-0.188,0.75-0.645v-17.79c0-0.458,0.188-0.75,0.75-0.75h7.942c0.299-0.025,0.573,0.167,0.652,0.457l7.38,18.248
	c0.062,0.263,0.293,0.45,0.563,0.457h7.155c0.75,0,0.938-0.367,0.75-0.915L80.52,110.985z M78.93,99.983
	c0,3.21-2.521,5.505-5.79,5.505h-9.353c-0.563,0-0.75-0.277-0.75-0.75V94.185c0-0.548,0.188-0.825,0.75-0.825h9.345
	c3.089-0.108,5.68,2.308,5.788,5.396c0.003,0.097,0.004,0.193,0.002,0.29L78.93,99.983z"/>
<path id="path10636" inkscape:connector-curvature="0" fill="#FFFFFF" d="M128.917,86.685h-27.285
	c-0.32-0.039-0.612,0.188-0.651,0.51c-0.006,0.045-0.006,0.09-0.001,0.135v43.103c-0.035,0.321,0.196,0.61,0.518,0.646
	c0.045,0.005,0.09,0.005,0.135-0.001h27.285c0.465,0,0.75-0.188,0.75-0.646v-5.407c0.039-0.375-0.232-0.711-0.607-0.75
	c-0.048-0.005-0.095-0.005-0.143,0H109.86c-0.563,0-0.75-0.277-0.75-0.75v-10.89c0-0.458,0.188-0.75,0.75-0.75h15.795
	c0.375,0,0.75-0.188,0.75-0.646v-5.505c0-0.457-0.375-0.638-0.75-0.638H109.86c-0.563,0-0.75-0.277-0.75-0.75V94.185
	c0-0.548,0.188-0.825,0.75-0.825h19.058c0.465,0,0.75-0.18,0.75-0.645v-5.408C129.667,86.865,129.292,86.685,128.917,86.685z"/>
<path id="path10638" inkscape:connector-curvature="0" fill="#FFFFFF" d="M215.76,86.685h-6.638c-0.32-0.039-0.612,0.188-0.651,0.51
	c-0.006,0.045-0.006,0.09-0.001,0.135v17.056c0,0.457-0.277,0.75-0.848,0.75H192.18c-0.563,0-0.75-0.277-0.75-0.75V87.323
	c0-0.458-0.375-0.646-0.75-0.646h-6.75c-0.32-0.039-0.612,0.189-0.651,0.51c-0.006,0.045-0.006,0.091-0.001,0.136v43.103
	c-0.036,0.321,0.195,0.61,0.517,0.646c0.045,0.005,0.091,0.005,0.136-0.001h6.75c0.465,0,0.75-0.188,0.75-0.645v-17.79
	c0-0.458,0.188-0.75,0.75-0.75h15.412c0.563,0,0.848,0.277,0.848,0.75v17.79c-0.035,0.321,0.196,0.61,0.518,0.646
	c0.045,0.005,0.09,0.005,0.135-0.001h6.668c0.563,0,0.75-0.188,0.75-0.645V87.323C216.51,86.865,216.284,86.685,215.76,86.685z"/>
<path id="path10640" inkscape:connector-curvature="0" fill="#FFFFFF" d="M151.17,125.085c-0.541-0.157-1.064-0.371-1.561-0.638
	C150.099,124.728,150.624,124.943,151.17,125.085z"/>
<path id="path10642" inkscape:connector-curvature="0" fill="#FFFFFF" d="M149.295,124.267l-0.255-0.172L149.295,124.267z"/>
<path id="path10644" inkscape:connector-curvature="0" fill="#FFFFFF" d="M149.01,124.102l-0.195-0.149l0,0L149.01,124.102z"/>
<path id="path10646" inkscape:connector-curvature="0" fill="#FFFFFF" d="M149.61,124.448l-0.314-0.181L149.61,124.448z"/>
<path id="path10648" inkscape:connector-curvature="0" fill="#FFFFFF" d="M158.355,105.57c-4.582-1.74-9.817-3.577-9.817-7.245
	c-0.026-1.688,0.676-3.307,1.928-4.439l0.067-0.061c0.135-0.112,0.27-0.217,0.412-0.322l0,0c0.177-0.122,0.359-0.234,0.548-0.338
	c1.176-0.612,2.484-0.924,3.81-0.907c1.709-0.003,3.373,0.55,4.74,1.575l0,0c0.943,0.708,1.749,1.582,2.378,2.58
	c0.188,0.457,0.652,0.457,1.125,0.18l5.047-3c0.384-0.156,0.568-0.594,0.411-0.978c-0.031-0.078-0.077-0.151-0.134-0.215
	c-1.345-2.337-3.38-4.199-5.827-5.332l0,0c-2.468-1.067-5.134-1.602-7.822-1.567c-2.28-0.021-4.547,0.354-6.697,1.109l-0.203,0.075
	l-0.518,0.21c-4.762,1.935-7.5,6.128-7.5,11.662c0,7.883,5.325,10.545,11.963,13.208c4.86,1.928,9.75,3.487,9.75,7.702
	c-0.018,1.717-0.781,3.34-2.093,4.447l0,0c-0.187,0.156-0.382,0.301-0.585,0.436l-0.127,0.082c-0.136,0.083-0.271,0.158-0.405,0.232
	c-1.384,0.667-2.914,0.975-4.447,0.893c-1.068,0.005-2.131-0.142-3.158-0.435c-0.546-0.143-1.07-0.356-1.56-0.638l-0.315-0.18
	l-0.255-0.173l-0.202-0.135l0,0c-0.976-0.744-1.81-1.659-2.46-2.7c-0.214-0.354-0.675-0.47-1.029-0.256
	c-0.034,0.021-0.065,0.043-0.096,0.068l-5.04,3c-0.367,0.191-0.511,0.645-0.319,1.012c0.034,0.066,0.079,0.128,0.132,0.181
	c1.288,2.404,3.345,4.306,5.843,5.4l0,0l0.217,0.082l0.63,0.248l0.181,0.06l0.675,0.218c2.226,0.643,4.531,0.963,6.848,0.952
	c2.483,0.023,4.955-0.352,7.319-1.109l0.398-0.128c0.35-0.125,0.689-0.26,1.02-0.405l0,0c4.455-1.994,6.96-6.045,6.96-11.377
	C170.13,111.164,165.082,108.052,158.355,105.57z"/>
</svg>
