<svg enable-background="new 0 0 231.396 231.396" height="231.396" viewBox="0 0 231.396 231.396" width="231.396" xmlns="http://www.w3.org/2000/svg"><g fill="#fff"><path d="m101.07 53.685h-4.5c-.27 0-.359.135-.359.405v17.827c.018.156-.096.298-.252.315-.021.002-.042.002-.063 0h-3.247c-.226 0-.315-.091-.315-.315v-17.857c0-.271-.09-.405-.405-.405h-4.5c-.225 0-.359-.09-.359-.314v-2.655c0-.225.135-.315.359-.315h13.628c.156-.018.298.096.314.252.003.021.003.042 0 .063v2.662c0 .226-.09.315-.314.315"/><path d="m121.784 72.202h-3.202c-.156.018-.298-.095-.315-.252-.002-.021-.002-.042 0-.063v-8.76c0-.225-.135-.36-.404-.36h-7.447c-.271 0-.36.136-.36.36v8.753c0 .225-.135.314-.36.314h-3.247c-.156.018-.298-.095-.315-.251-.002-.021-.002-.043 0-.063v-21.195c-.018-.156.096-.298.252-.315.021-.002.042-.002.063 0h3.247c.177-.021.337.106.358.283.001.011.002.021.002.032v8.393c0 .225.09.36.36.36h7.447c.27 0 .404-.136.404-.36v-8.393c-.017-.156.096-.298.252-.315.021-.002.042-.002.063 0h3.202c.271 0 .36.091.36.315v21.21c0 .225-.09.315-.36.315"/><path d="m143.31 72.202h-13.178c-.156.018-.297-.095-.314-.252-.003-.021-.003-.042 0-.063v-21.202c-.018-.156.095-.298.251-.315.021-.002.043-.002.063 0h13.178c.177-.021.337.106.357.283.002.011.002.021.003.032v2.662c0 .226-.136.315-.36.315h-9.21c-.271 0-.36.135-.36.405v5.01c0 .225.09.36.36.36h7.628c.177-.021.337.105.357.282.001.011.002.021.002.032v2.708c-.003.178-.149.319-.327.316-.011 0-.022-.001-.032-.002h-7.628c-.271 0-.36.135-.36.36v5.37c0 .225.09.359.36.359h9.21c.182-.018.343.116.36.297.002.021.002.042 0 .063v2.662c0 .229-.136.318-.36.318"/><path d="m72.074 167.092h-3.06c-.225 0-.36-.09-.36-.314v-6.525c0-3 .271-6.84.315-7.245l-.135-.045c-.045.135-.54 1.89-.9 2.745l-3.555 8.145c-.045.226-.226.271-.405.271h-1.964c-.194.023-.38-.088-.45-.271l-3.473-8.167c-.359-.855-.854-2.565-.899-2.7l-.136.045c.045.405.315 4.186.315 7.2v6.57c0 .225-.09.314-.36.314h-3.104c-.226 0-.315-.09-.315-.314v-21.15c0-.225.09-.314.315-.314h3.239c.132-.007.255.063.315.18l5.085 12c.18.45.405 1.215.45 1.395h.135c0-.18.315-.944.45-1.395l4.995-12c.072-.128.214-.199.359-.18h3.15c.225 0 .36.09.36.314v21.15c0 .225-.136.314-.36.314"/><path d="m94.079 167.085h-3.465c-.18 0-.27-.046-.314-.226l-1.26-3.75c-.046-.18-.181-.225-.405-.225h-5.715c-.226 0-.315.045-.36.225l-1.26 3.75c-.052.15-.202.244-.36.226h-3.375c-.314 0-.45-.181-.359-.45l7.02-21.105c.052-.15.202-.244.36-.225h2.43c.18 0 .315.045.315.225l7.064 21.105c.09.27 0 .45-.316.45m-7.694-13.65c-.181-.99-.45-2.521-.495-2.655h-.135c-.112.897-.293 1.785-.54 2.655l-1.755 6.165c-.045.18.045.36.359.36h3.96c.271 0 .405-.181.315-.36z"/><path d="m114.863 167.085h-3.465c-.132-.005-.243-.098-.271-.226l-3.548-8.925c-.035-.142-.169-.237-.314-.225h-3.825c-.27 0-.36.135-.36.359v8.73c0 .225-.135.314-.359.314h-3.21c-.156.018-.298-.095-.315-.251-.002-.021-.002-.043 0-.063v-21.15c-.018-.156.096-.297.252-.314.021-.003.042-.003.063 0h8.46c4.05 0 6.66 2.43 6.66 6.39v.314c-.071 1.959-1.188 3.729-2.925 4.636-.226.135-.226.314-.181.585l3.75 9.404c.09.271 0 .45-.359.45m-4.156-15.726c.037-1.503-1.15-2.752-2.653-2.79-.046-.001-.091-.001-.137 0h-4.5c-.271 0-.36.136-.36.405v5.183c0 .225.09.36.36.36h4.5c1.473.066 2.721-1.074 2.787-2.548.003-.051.003-.102.003-.152z"/><path d="m137.677 167.092h-4.229c-.165 0-.317-.085-.405-.225l-5.535-8.933c-.18-.271-.404-.271-.585-.045l-1.665 2.07v6.795c0 .225-.135.314-.359.314h-3.24c-.156.018-.298-.095-.315-.251-.002-.021-.002-.043 0-.063v-21.15c-.018-.156.096-.298.252-.315.021-.002.042-.002.063 0h3.24c.172-.024.332.095.356.268.002.016.003.032.003.048v7.83c.012.408.058.814.135 1.215l7.29-9.18c.08-.12.217-.188.36-.181h3.825c.405 0 .495.271.27.54l-7.02 8.25c-.135.136-.09.226 0 .36l7.83 12.105c.18.27.09.494-.271.494"/><path d="m156.21 167.092h-13.14c-.156.018-.297-.095-.314-.251-.003-.021-.003-.043 0-.063v-21.15c-.018-.156.095-.298.251-.314.021-.003.043-.003.063 0h13.141c.172-.025.332.094.356.267.002.016.003.032.003.048v2.655c0 .225-.135.314-.359.314h-9.181c-.27 0-.359.136-.359.405v4.995c0 .225.09.36.359.36h7.605c.177-.021.337.105.357.282.002.011.002.021.002.032v2.7c.002.174-.138.316-.312.318-.016 0-.032-.001-.048-.003h-7.605c-.27 0-.359.135-.359.359v5.355c0 .225.09.359.359.359h9.181c.181-.018.342.116.359.297.002.021.002.042 0 .063v2.655c.001.227-.134.317-.359.317"/><path d="m173.85 148.597h-4.5c-.271 0-.36.136-.36.405v17.775c.018.156-.095.297-.251.314-.021.003-.043.003-.063 0h-3.24c-.225 0-.315-.09-.315-.314v-17.775c0-.27-.09-.405-.404-.405h-4.455c-.226 0-.36-.09-.36-.314v-2.655c0-.225.135-.314.36-.314h13.59c.156-.018.298.095.315.251.002.021.002.042 0 .063v2.655c-.002.224-.093.314-.317.314"/></g><g fill="#99ca3c"><path d="m34.012 72.435v-38.055c0-.19.155-.346.346-.346h162.652c.19 0 .345.155.345.346v38.055h6.907v-38.055c0-4.006-3.247-7.253-7.252-7.253h-162.652c-4.006 0-7.253 3.247-7.253 7.253v38.055z"/><path d="m197.393 145.02v51.997c0 .191-.155.346-.346.346h-48.12c-1.635 2.482-3.3 4.792-4.987 6.907h53.07c4.005 0 7.252-3.247 7.252-7.253v-51.997z"/><path d="m34.012 145.02v51.997c0 .191.155.346.346.346h48.112c1.635 2.482 3.3 4.792 4.995 6.907h-53.107c-4.006 0-7.253-3.247-7.253-7.253v-51.997z"/></g><g fill="#fff"><path d="m119.452 184.313c-13.912-1.95-24.607 6.06-22.673 15.397 12.397-10.673 21.255-4.897 36.067-8.468.585-.143.045.57-.832.982-7.763 3.652-13.335.952-23.827 3.66-7.995 2.063-13.71 9.569-16.5 14.077-1.028 1.897.51 4.5.75 4.905.404.683.75.479.824-.195.346-2.138 1.403-6.787 4.192-8.64 9.533 10.425 34.088 10.755 49.86-22.313.36-.75.053-2.018-1.545-.931-6.465 3.091-12.405 3.473-26.317 1.5"/><path d="m42.855 86.685h-27.285c-.32-.039-.612.188-.651.51-.006.045-.006.09-.001.135v43.103c-.035.321.196.61.518.646.045.005.09.005.135-.001h6.75c.465 0 .75-.188.75-.646v-17.797c0-.458.188-.75.75-.75h15.766c.375 0 .75-.188.75-.646v-5.505c0-.457-.375-.645-.75-.645h-15.79c-.563 0-.75-.277-.75-.75v-10.154c0-.548.188-.825.75-.825h19.058c.465 0 .75-.188.75-.645v-5.408c0-.442-.345-.622-.75-.622z"/><path d="m80.52 110.985c-.098-.547-.098-.915.375-1.192 3.587-1.817 5.911-5.432 6.075-9.45v-.638c0-8.069-5.423-13.027-13.83-13.027h-17.572c-.321-.039-.612.189-.652.51-.005.045-.006.091 0 .136v43.103c-.036.321.195.61.517.646.045.005.091.005.136-.001h6.75c.465 0 .75-.188.75-.645v-17.79c0-.458.188-.75.75-.75h7.942c.299-.025.573.167.652.457l7.38 18.248c.062.263.293.45.563.457h7.155c.75 0 .938-.367.75-.915zm-1.59-11.002c0 3.21-2.521 5.505-5.79 5.505h-9.353c-.563 0-.75-.277-.75-.75v-10.553c0-.548.188-.825.75-.825h9.345c3.089-.108 5.68 2.308 5.788 5.396.003.097.004.193.002.29z"/><path d="m128.917 86.685h-27.285c-.32-.039-.612.188-.651.51-.006.045-.006.09-.001.135v43.103c-.035.321.196.61.518.646.045.005.09.005.135-.001h27.285c.465 0 .75-.188.75-.646v-5.407c.039-.375-.232-.711-.607-.75-.048-.005-.095-.005-.143 0h-19.058c-.563 0-.75-.277-.75-.75v-10.89c0-.458.188-.75.75-.75h15.795c.375 0 .75-.188.75-.646v-5.505c0-.457-.375-.638-.75-.638h-15.795c-.563 0-.75-.277-.75-.75v-10.161c0-.548.188-.825.75-.825h19.058c.465 0 .75-.18.75-.645v-5.408c-.001-.442-.376-.622-.751-.622z"/><path d="m215.76 86.685h-6.638c-.32-.039-.612.188-.651.51-.006.045-.006.09-.001.135v17.056c0 .457-.277.75-.848.75h-15.442c-.563 0-.75-.277-.75-.75v-17.063c0-.458-.375-.646-.75-.646h-6.75c-.32-.039-.612.189-.651.51-.006.045-.006.091-.001.136v43.103c-.036.321.195.61.517.646.045.005.091.005.136-.001h6.75c.465 0 .75-.188.75-.645v-17.79c0-.458.188-.75.75-.75h15.412c.563 0 .848.277.848.75v17.79c-.035.321.196.61.518.646.045.005.09.005.135-.001h6.668c.563 0 .75-.188.75-.645v-43.103c-.002-.458-.228-.638-.752-.638z"/><path d="m151.17 125.085c-.541-.157-1.064-.371-1.561-.638.49.281 1.015.496 1.561.638z"/><path d="m149.295 124.267-.255-.172z"/><path d="m149.01 124.102-.195-.149z"/><path d="m149.61 124.448-.314-.181z"/><path d="m158.355 105.57c-4.582-1.74-9.817-3.577-9.817-7.245-.026-1.688.676-3.307 1.928-4.439l.067-.061c.135-.112.27-.217.412-.322.177-.122.359-.234.548-.338 1.176-.612 2.484-.924 3.81-.907 1.709-.003 3.373.55 4.74 1.575.943.708 1.749 1.582 2.378 2.58.188.457.652.457 1.125.18l5.047-3c.384-.156.568-.594.411-.978-.031-.078-.077-.151-.134-.215-1.345-2.337-3.38-4.199-5.827-5.332-2.468-1.067-5.134-1.602-7.822-1.567-2.28-.021-4.547.354-6.697 1.109l-.203.075-.518.21c-4.762 1.935-7.5 6.128-7.5 11.662 0 7.883 5.325 10.545 11.963 13.208 4.86 1.928 9.75 3.487 9.75 7.702-.018 1.717-.781 3.34-2.093 4.447-.187.156-.382.301-.585.436l-.127.082c-.136.083-.271.158-.405.232-1.384.667-2.914.975-4.447.893-1.068.005-2.131-.142-3.158-.435-.546-.143-1.07-.356-1.56-.638l-.315-.18-.255-.173-.202-.135c-.976-.744-1.81-1.659-2.46-2.7-.214-.354-.675-.47-1.029-.256-.034.021-.065.043-.096.068l-5.04 3c-.367.191-.511.645-.319 1.012.034.066.079.128.132.181 1.288 2.404 3.345 4.306 5.843 5.4l.217.082.63.248.181.06.675.218c2.226.643 4.531.963 6.848.952 2.483.023 4.955-.352 7.319-1.109l.398-.128c.35-.125.689-.26 1.02-.405 4.455-1.994 6.96-6.045 6.96-11.377-.018-8.078-5.066-11.19-11.793-13.672z"/></g></svg>