<?xml version="1.0" encoding="UTF-8" standalone="no"?>
<!-- Created with Inkscape (http://www.inkscape.org/) -->

<svg
   xmlns:dc="http://purl.org/dc/elements/1.1/"
   xmlns:cc="http://creativecommons.org/ns#"
   xmlns:rdf="http://www.w3.org/1999/02/22-rdf-syntax-ns#"
   xmlns:svg="http://www.w3.org/2000/svg"
   xmlns="http://www.w3.org/2000/svg"
   xmlns:sodipodi="http://sodipodi.sourceforge.net/DTD/sodipodi-0.dtd"
   xmlns:inkscape="http://www.inkscape.org/namespaces/inkscape"
   width="81.631767mm"
   height="81.631767mm"
   viewBox="0 0 81.631767 81.631767"
   version="1.1"
   id="svg10596"
   inkscape:version="0.92.0 r15299"
   sodipodi:docname="the fresh market.svg">
  <defs
     id="defs10590">
    <style
       id="style10598">.cls-1{fill:#349946;}.cls-2{fill:#fff;}.cls-3{fill:#99ca3c;}</style>
  </defs>
  <sodipodi:namedview
     id="base"
     pagecolor="#ffffff"
     bordercolor="#666666"
     borderopacity="1.0"
     inkscape:pageopacity="0.0"
     inkscape:pageshadow="2"
     inkscape:zoom="1.7489746"
     inkscape:cx="152.375"
     inkscape:cy="152.375"
     inkscape:document-units="mm"
     inkscape:current-layer="layer1"
     showgrid="false"
     fit-margin-top="0"
     fit-margin-left="0"
     fit-margin-right="0"
     fit-margin-bottom="0"
     inkscape:window-width="1280"
     inkscape:window-height="744"
     inkscape:window-x="-4"
     inkscape:window-y="-4"
     inkscape:window-maximized="1" />
  <metadata
     id="metadata10593">
    <rdf:RDF>
      <cc:Work
         rdf:about="">
        <dc:format>image/svg+xml</dc:format>
        <dc:type
           rdf:resource="http://purl.org/dc/dcmitype/StillImage" />
        <dc:title></dc:title>
      </cc:Work>
    </rdf:RDF>
  </metadata>
  <g
     inkscape:label="Layer 1"
     inkscape:groupmode="layer"
     id="layer1"
     transform="translate(134.80993,-223.9341)">
    <g
       id="g10679"
       transform="matrix(0.26458333,0,0,0.26458333,-134.30993,224.4341)">
      <rect
         id="rect10604"
         ry="6.75"
         rx="6.75"
         height="304.75"
         width="304.75"
         class="cls-1"
         x="0"
         y="0"
         style="fill:#349946" />
      <path
         id="path10606"
         transform="translate(-27.21,-28.31)"
         d="m 160.08,98 h -6 c -0.36,0 -0.48,0.18 -0.48,0.54 v 23.77 a 0.38,0.38 0 0 1 -0.42,0.42 h -4.33 c -0.3,0 -0.42,-0.12 -0.42,-0.42 V 98.5 c 0,-0.36 -0.12,-0.54 -0.54,-0.54 h -6 c -0.3,0 -0.48,-0.12 -0.48,-0.42 V 94 c 0,-0.3 0.18,-0.42 0.48,-0.42 h 18.17 a 0.38,0.38 0 0 1 0.42,0.42 v 3.55 c 0,0.3 -0.12,0.42 -0.42,0.42"
         class="cls-2"
         inkscape:connector-curvature="0"
         style="fill:#ffffff" />
      <path
         id="path10608"
         transform="translate(-27.21,-28.31)"
         d="m 187.7,122.69 h -4.27 a 0.38,0.38 0 0 1 -0.42,-0.42 v -11.68 c 0,-0.3 -0.18,-0.48 -0.54,-0.48 h -9.93 c -0.36,0 -0.48,0.18 -0.48,0.48 v 11.67 c 0,0.3 -0.18,0.42 -0.48,0.42 h -4.33 a 0.38,0.38 0 0 1 -0.42,-0.42 V 94 a 0.38,0.38 0 0 1 0.42,-0.42 h 4.33 a 0.43,0.43 0 0 1 0.48,0.42 v 11.19 c 0,0.3 0.12,0.48 0.48,0.48 h 9.93 c 0.36,0 0.54,-0.18 0.54,-0.48 V 94 a 0.38,0.38 0 0 1 0.42,-0.42 h 4.27 c 0.36,0 0.48,0.12 0.48,0.42 v 28.28 c 0,0.3 -0.12,0.42 -0.48,0.42"
         class="cls-2"
         inkscape:connector-curvature="0"
         style="fill:#ffffff" />
      <path
         id="path10610"
         transform="translate(-27.21,-28.31)"
         d="m 216.4,122.69 h -17.57 a 0.38,0.38 0 0 1 -0.42,-0.42 V 94 a 0.38,0.38 0 0 1 0.42,-0.42 h 17.57 a 0.43,0.43 0 0 1 0.48,0.42 v 3.55 c 0,0.3 -0.18,0.42 -0.48,0.42 h -12.28 c -0.36,0 -0.48,0.18 -0.48,0.54 v 6.68 c 0,0.3 0.12,0.48 0.48,0.48 h 10.17 a 0.43,0.43 0 0 1 0.48,0.42 v 3.61 a 0.43,0.43 0 0 1 -0.48,0.42 h -10.17 c -0.36,0 -0.48,0.18 -0.48,0.48 v 7.16 c 0,0.3 0.12,0.48 0.48,0.48 h 12.28 a 0.44,0.44 0 0 1 0.48,0.48 v 3.55 c 0,0.3 -0.18,0.42 -0.48,0.42"
         class="cls-2"
         inkscape:connector-curvature="0"
         style="fill:#ffffff" />
      <path
         id="path10612"
         transform="translate(-27.21,-28.31)"
         d="m 121.42,249.21 h -4.08 c -0.3,0 -0.48,-0.12 -0.48,-0.42 v -8.7 c 0,-4 0.36,-9.12 0.42,-9.66 l -0.18,-0.06 c -0.06,0.18 -0.72,2.52 -1.2,3.66 l -4.74,10.86 c -0.06,0.3 -0.3,0.36 -0.54,0.36 H 108 a 0.57,0.57 0 0 1 -0.6,-0.36 L 102.77,234 c -0.48,-1.14 -1.14,-3.42 -1.2,-3.6 l -0.18,0.06 c 0.06,0.54 0.42,5.58 0.42,9.6 v 8.76 c 0,0.3 -0.12,0.42 -0.48,0.42 h -4.14 c -0.3,0 -0.42,-0.12 -0.42,-0.42 v -28.2 c 0,-0.3 0.12,-0.42 0.42,-0.42 h 4.32 a 0.45,0.45 0 0 1 0.42,0.24 l 6.78,16 c 0.24,0.6 0.54,1.62 0.6,1.86 h 0.18 c 0,-0.24 0.42,-1.26 0.6,-1.86 l 6.66,-16 a 0.48,0.48 0 0 1 0.48,-0.24 h 4.2 c 0.3,0 0.48,0.12 0.48,0.42 v 28.2 c 0,0.3 -0.18,0.42 -0.48,0.42"
         class="cls-2"
         inkscape:connector-curvature="0"
         style="fill:#ffffff" />
      <path
         id="path10614"
         transform="translate(-27.21,-28.31)"
         d="m 150.76,249.2 h -4.62 c -0.24,0 -0.36,-0.06 -0.42,-0.3 l -1.68,-5 c -0.06,-0.24 -0.24,-0.3 -0.54,-0.3 h -7.62 c -0.3,0 -0.42,0.06 -0.48,0.3 l -1.68,5 a 0.45,0.45 0 0 1 -0.48,0.3 h -4.5 c -0.42,0 -0.6,-0.24 -0.48,-0.6 l 9.36,-28.14 a 0.45,0.45 0 0 1 0.48,-0.3 h 3.24 c 0.24,0 0.42,0.06 0.42,0.3 l 9.42,28.14 c 0.12,0.36 0,0.6 -0.42,0.6 M 140.5,231 c -0.24,-1.32 -0.6,-3.36 -0.66,-3.54 h -0.18 a 23.52,23.52 0 0 1 -0.72,3.54 l -2.34,8.22 c -0.06,0.24 0.06,0.48 0.48,0.48 h 5.28 c 0.36,0 0.54,-0.24 0.42,-0.48 z"
         class="cls-2"
         inkscape:connector-curvature="0"
         style="fill:#ffffff" />
      <path
         id="path10616"
         transform="translate(-27.21,-28.31)"
         d="m 178.47,249.2 h -4.62 a 0.38,0.38 0 0 1 -0.36,-0.3 L 168.76,237 a 0.4,0.4 0 0 0 -0.42,-0.3 h -5.1 c -0.36,0 -0.48,0.18 -0.48,0.48 v 11.64 c 0,0.3 -0.18,0.42 -0.48,0.42 H 158 a 0.38,0.38 0 0 1 -0.42,-0.42 v -28.2 A 0.38,0.38 0 0 1 158,220.2 h 11.28 c 5.4,0 8.88,3.24 8.88,8.52 v 0.42 a 7.27,7.27 0 0 1 -3.9,6.18 c -0.3,0.18 -0.3,0.42 -0.24,0.78 l 5,12.54 c 0.12,0.36 0,0.6 -0.48,0.6 M 173,228.27 a 3.63,3.63 0 0 0 -3.72,-3.72 h -6 c -0.36,0 -0.48,0.18 -0.48,0.54 V 232 c 0,0.3 0.12,0.48 0.48,0.48 h 6 a 3.56,3.56 0 0 0 3.72,-3.6 z"
         class="cls-2"
         inkscape:connector-curvature="0"
         style="fill:#ffffff" />
      <path
         id="path10618"
         transform="translate(-27.21,-28.31)"
         d="m 208.89,249.21 h -5.64 a 0.64,0.64 0 0 1 -0.54,-0.3 L 195.33,237 c -0.24,-0.36 -0.54,-0.36 -0.78,-0.06 l -2.22,2.76 v 9.06 c 0,0.3 -0.18,0.42 -0.48,0.42 h -4.32 a 0.38,0.38 0 0 1 -0.42,-0.42 v -28.2 a 0.38,0.38 0 0 1 0.42,-0.42 h 4.32 a 0.42,0.42 0 0 1 0.48,0.42 V 231 a 10,10 0 0 0 0.18,1.62 l 9.72,-12.24 a 0.54,0.54 0 0 1 0.48,-0.24 h 5.1 c 0.54,0 0.66,0.36 0.36,0.72 l -9.36,11 c -0.18,0.18 -0.12,0.3 0,0.48 l 10.44,16.14 c 0.24,0.36 0.12,0.66 -0.36,0.66"
         class="cls-2"
         inkscape:connector-curvature="0"
         style="fill:#ffffff" />
      <path
         id="path10620"
         transform="translate(-27.21,-28.31)"
         d="m 233.6,249.21 h -17.52 a 0.38,0.38 0 0 1 -0.42,-0.42 v -28.2 a 0.38,0.38 0 0 1 0.42,-0.42 h 17.52 a 0.42,0.42 0 0 1 0.48,0.42 v 3.54 c 0,0.3 -0.18,0.42 -0.48,0.42 h -12.24 c -0.36,0 -0.48,0.18 -0.48,0.54 v 6.66 c 0,0.3 0.12,0.48 0.48,0.48 h 10.14 a 0.43,0.43 0 0 1 0.48,0.42 v 3.6 a 0.42,0.42 0 0 1 -0.48,0.42 h -10.14 c -0.36,0 -0.48,0.18 -0.48,0.48 v 7.14 c 0,0.3 0.12,0.48 0.48,0.48 h 12.24 a 0.44,0.44 0 0 1 0.48,0.48 v 3.54 c 0,0.3 -0.18,0.42 -0.48,0.42"
         class="cls-2"
         inkscape:connector-curvature="0"
         style="fill:#ffffff" />
      <path
         id="path10622"
         transform="translate(-27.21,-28.31)"
         d="m 257.12,224.55 h -6 c -0.36,0 -0.48,0.18 -0.48,0.54 v 23.7 a 0.38,0.38 0 0 1 -0.42,0.42 h -4.32 c -0.3,0 -0.42,-0.12 -0.42,-0.42 v -23.7 c 0,-0.36 -0.12,-0.54 -0.54,-0.54 H 239 c -0.3,0 -0.48,-0.12 -0.48,-0.42 v -3.54 c 0,-0.3 0.18,-0.42 0.48,-0.42 h 18.12 a 0.38,0.38 0 0 1 0.42,0.42 v 3.54 c 0,0.3 -0.12,0.42 -0.42,0.42"
         class="cls-2"
         inkscape:connector-curvature="0"
         style="fill:#ffffff" />
      <path
         id="path10624"
         transform="translate(-27.21,-28.31)"
         d="M 70.67,123 V 72.26 A 0.46,0.46 0 0 1 71.13,71.8 H 288 a 0.46,0.46 0 0 1 0.46,0.46 V 123 h 9.21 V 72.26 A 9.67,9.67 0 0 0 288,62.59 H 71.13 a 9.67,9.67 0 0 0 -9.67,9.67 V 123 Z"
         class="cls-3"
         inkscape:connector-curvature="0"
         style="fill:#99ca3c" />
      <path
         id="path10626"
         transform="translate(-27.21,-28.31)"
         d="m 288.51,219.78 v 69.33 a 0.46,0.46 0 0 1 -0.46,0.46 h -64.16 c -2.18,3.31 -4.4,6.39 -6.65,9.21 H 288 a 9.67,9.67 0 0 0 9.67,-9.67 v -69.33 z"
         class="cls-3"
         inkscape:connector-curvature="0"
         style="fill:#99ca3c" />
      <path
         id="path10628"
         transform="translate(-27.21,-28.31)"
         d="m 70.67,219.78 v 69.33 a 0.46,0.46 0 0 0 0.46,0.46 h 64.15 c 2.18,3.31 4.4,6.39 6.66,9.21 H 71.13 a 9.67,9.67 0 0 1 -9.67,-9.67 v -69.33 z"
         class="cls-3"
         inkscape:connector-curvature="0"
         style="fill:#99ca3c" />
      <path
         id="path10630"
         transform="translate(-27.21,-28.31)"
         d="m 184.59,272.17 c -18.55,-2.6 -32.81,8.08 -30.23,20.53 16.53,-14.23 28.34,-6.53 48.09,-11.29 0.78,-0.19 0.06,0.76 -1.11,1.31 -10.35,4.87 -17.78,1.27 -31.77,4.88 -10.66,2.75 -18.28,12.76 -22,18.77 -1.37,2.53 0.68,6 1,6.54 0.54,0.91 1,0.64 1.1,-0.26 0.46,-2.85 1.87,-9.05 5.59,-11.52 12.71,13.9 45.45,14.34 66.48,-29.75 0.48,-1 0.07,-2.69 -2.06,-1.24 -8.62,4.12 -16.54,4.63 -35.09,2"
         class="cls-2"
         inkscape:connector-curvature="0"
         style="fill:#ffffff" />
      <path
         id="path10632"
         transform="translate(-27.21,-28.31)"
         d="M 82.46,142 H 46.08 a 0.78,0.78 0 0 0 -0.87,0.86 v 57.47 a 0.78,0.78 0 0 0 0.87,0.86 h 9 c 0.62,0 1,-0.25 1,-0.86 V 176.6 c 0,-0.61 0.25,-1 1,-1 H 78.1 c 0.5,0 1,-0.25 1,-0.86 v -7.34 c 0,-0.61 -0.5,-0.86 -1,-0.86 H 57.05 c -0.75,0 -1,-0.37 -1,-1 V 152 c 0,-0.73 0.25,-1.1 1,-1.1 h 25.41 c 0.62,0 1,-0.25 1,-0.86 v -7.21 c 0,-0.59 -0.46,-0.83 -1,-0.83 z"
         class="cls-2"
         inkscape:connector-curvature="0"
         style="fill:#ffffff" />
      <path
         id="path10634"
         transform="translate(-27.21,-28.31)"
         d="m 132.68,174.4 c -0.13,-0.73 -0.13,-1.22 0.5,-1.59 a 14.8,14.8 0 0 0 8.1,-12.6 v -0.85 c 0,-10.76 -7.23,-17.37 -18.44,-17.37 H 99.41 a 0.78,0.78 0 0 0 -0.87,0.86 v 57.47 a 0.78,0.78 0 0 0 0.87,0.86 h 9 c 0.62,0 1,-0.25 1,-0.86 V 176.6 c 0,-0.61 0.25,-1 1,-1 H 121 a 0.83,0.83 0 0 1 0.87,0.61 l 9.84,24.33 a 0.79,0.79 0 0 0 0.75,0.61 H 142 c 1,0 1.25,-0.49 1,-1.22 z m -2.12,-14.67 c 0,4.28 -3.36,7.34 -7.72,7.34 h -12.47 c -0.75,0 -1,-0.37 -1,-1 V 152 c 0,-0.73 0.25,-1.1 1,-1.1 h 12.46 a 7.46,7.46 0 0 1 7.72,7.58 z"
         class="cls-2"
         inkscape:connector-curvature="0"
         style="fill:#ffffff" />
      <path
         id="path10636"
         transform="translate(-27.21,-28.31)"
         d="m 197.21,142 h -36.38 a 0.78,0.78 0 0 0 -0.87,0.86 v 57.47 a 0.78,0.78 0 0 0 0.87,0.86 h 36.38 c 0.62,0 1,-0.25 1,-0.86 v -7.21 a 0.91,0.91 0 0 0 -1,-1 H 171.8 c -0.75,0 -1,-0.37 -1,-1 V 176.6 c 0,-0.61 0.25,-1 1,-1 h 21.06 c 0.5,0 1,-0.25 1,-0.86 v -7.34 c 0,-0.61 -0.5,-0.85 -1,-0.85 H 171.8 c -0.75,0 -1,-0.37 -1,-1 V 152 c 0,-0.73 0.25,-1.1 1,-1.1 h 25.41 c 0.62,0 1,-0.24 1,-0.86 v -7.21 c 0,-0.59 -0.5,-0.83 -1,-0.83 z"
         class="cls-2"
         inkscape:connector-curvature="0"
         style="fill:#ffffff" />
      <path
         id="path10638"
         transform="translate(-27.21,-28.31)"
         d="m 313,142 h -8.85 a 0.78,0.78 0 0 0 -0.87,0.86 v 22.74 c 0,0.61 -0.37,1 -1.13,1 h -20.59 c -0.75,0 -1,-0.37 -1,-1 v -22.75 c 0,-0.61 -0.5,-0.86 -1,-0.86 h -9 a 0.78,0.78 0 0 0 -0.87,0.86 v 57.47 a 0.78,0.78 0 0 0 0.87,0.86 h 9 c 0.62,0 1,-0.25 1,-0.86 V 176.6 c 0,-0.61 0.25,-1 1,-1 h 20.55 c 0.75,0 1.13,0.37 1.13,1 v 23.72 a 0.78,0.78 0 0 0 0.87,0.86 H 313 c 0.75,0 1,-0.25 1,-0.86 v -57.47 c 0,-0.61 -0.3,-0.85 -1,-0.85 z"
         class="cls-2"
         inkscape:connector-curvature="0"
         style="fill:#ffffff" />
      <path
         id="path10640"
         transform="translate(-27.21,-28.31)"
         d="m 226.88,193.2 a 10.58,10.58 0 0 1 -2.08,-0.85 8.47,8.47 0 0 0 2.08,0.85 z"
         class="cls-2"
         inkscape:connector-curvature="0"
         style="fill:#ffffff" />
      <path
         id="path10642"
         transform="translate(-27.21,-28.31)"
         d="m 224.38,192.11 -0.34,-0.23 z"
         class="cls-2"
         inkscape:connector-curvature="0"
         style="fill:#ffffff" />
      <path
         id="path10644"
         transform="translate(-27.21,-28.31)"
         d="m 224,191.89 -0.26,-0.2 v 0 z"
         class="cls-2"
         inkscape:connector-curvature="0"
         style="fill:#ffffff" />
      <path
         id="path10646"
         transform="translate(-27.21,-28.31)"
         d="m 224.8,192.35 -0.42,-0.24 z"
         class="cls-2"
         inkscape:connector-curvature="0"
         style="fill:#ffffff" />
      <path
         id="path10648"
         transform="translate(-27.21,-28.31)"
         d="m 236.46,167.18 c -6.11,-2.32 -13.09,-4.77 -13.09,-9.66 a 7.82,7.82 0 0 1 2.57,-5.92 l 0.09,-0.08 c 0.18,-0.15 0.36,-0.29 0.55,-0.43 v 0 a 8.18,8.18 0 0 1 0.73,-0.45 10.69,10.69 0 0 1 5.08,-1.21 10.5,10.5 0 0 1 6.32,2.1 v 0 a 12.9,12.9 0 0 1 3.17,3.44 c 0.25,0.61 0.87,0.61 1.5,0.24 l 6.73,-4 a 1,1 0 0 0 0.37,-1.59 17.4,17.4 0 0 0 -7.77,-7.11 v 0 a 25.48,25.48 0 0 0 -10.43,-2.09 26.2,26.2 0 0 0 -8.93,1.48 l -0.27,0.1 -0.69,0.28 c -6.35,2.58 -10,8.17 -10,15.55 0,10.51 7.1,14.06 15.95,17.61 6.48,2.57 13,4.65 13,10.27 a 7.87,7.87 0 0 1 -2.79,5.93 v 0 a 9,9 0 0 1 -0.78,0.58 l -0.17,0.11 c -0.18,0.11 -0.36,0.21 -0.54,0.31 a 12.18,12.18 0 0 1 -5.93,1.19 15.12,15.12 0 0 1 -4.21,-0.58 8.47,8.47 0 0 1 -2.08,-0.85 l -0.42,-0.24 -0.34,-0.23 -0.27,-0.18 v 0 a 13.59,13.59 0 0 1 -3.28,-3.6 1,1 0 0 0 -1.5,-0.25 l -6.72,4 a 1,1 0 0 0 -0.25,1.59 16.23,16.23 0 0 0 7.79,7.2 v 0 l 0.29,0.11 0.84,0.33 0.24,0.08 0.9,0.29 a 32.39,32.39 0 0 0 9.13,1.27 31,31 0 0 0 9.76,-1.48 l 0.53,-0.17 q 0.7,-0.25 1.36,-0.54 v 0 c 5.94,-2.66 9.28,-8.06 9.28,-15.17 -0.02,-10.77 -6.75,-14.92 -15.72,-18.23 z"
         class="cls-2"
         inkscape:connector-curvature="0"
         style="fill:#ffffff" />
    </g>
  </g>
</svg>
