<?xml version="1.0" encoding="utf-8"?>
<!-- Generator: Adobe Illustrator 16.0.0, SVG Export Plug-In . SVG Version: 6.00 Build 0)  -->
<!DOCTYPE svg PUBLIC "-//W3C//DTD SVG 1.1//EN" "http://www.w3.org/Graphics/SVG/1.1/DTD/svg11.dtd">
<svg version="1.1"
	 id="svg2" xmlns:dc="http://purl.org/dc/elements/1.1/" xmlns:cc="http://creativecommons.org/ns#" xmlns:rdf="http://www.w3.org/1999/02/22-rdf-syntax-ns#" xmlns:svg="http://www.w3.org/2000/svg" xmlns:sodipodi="http://sodipodi.sourceforge.net/DTD/sodipodi-0.dtd" xmlns:inkscape="http://www.inkscape.org/namespaces/inkscape" inkscape:output_extension="org.inkscape.output.svg.inkscape" sodipodi:docname="GameStop.svg" inkscape:version="0.48.4 r9939" sodipodi:version="0.32"
	 xmlns="http://www.w3.org/2000/svg" xmlns:xlink="http://www.w3.org/1999/xlink" x="0px" y="0px" width="520px" height="520px"
	 viewBox="0 0 520 520" enable-background="new 0 0 520 520" xml:space="preserve">
<defs>
	
	
		<inkscape:perspective  id="perspective10" inkscape:vp_z="744.09448 : 526.18109 : 1" inkscape:vp_y="0 : 1000 : 0" inkscape:vp_x="0 : 526.18109 : 1" sodipodi:type="inkscape:persp3d" inkscape:persp3d-origin="372.04724 : 350.78739 : 1">
		</inkscape:perspective>
	
		<inkscape:perspective  id="perspective2390" inkscape:vp_z="744.09448 : 526.18109 : 1" inkscape:vp_y="0 : 1000 : 0" inkscape:vp_x="0 : 526.18109 : 1" sodipodi:type="inkscape:persp3d" inkscape:persp3d-origin="372.04724 : 350.78739 : 1">
		</inkscape:perspective>
</defs>
<sodipodi:namedview  fit-margin-left="0" fit-margin-top="0" showgrid="false" inkscape:cy="512.9897" inkscape:cx="352.549" inkscape:zoom="0.48272354" objecttolerance="10" guidetolerance="10" gridtolerance="10000" borderopacity="1.0" bordercolor="#666666" pagecolor="#ffffff" id="base" inkscape:window-maximized="0" fit-margin-bottom="0" fit-margin-right="0" inkscape:window-y="-4" inkscape:window-x="-4" inkscape:window-height="721" inkscape:window-width="1024" inkscape:current-layer="layer1" inkscape:document-units="px" inkscape:pageshadow="2" inkscape:pageopacity="0.0">
	</sodipodi:namedview>
<g>
	
		<path id="text2396" inkscape:connector-curvature="0" sodipodi:nodetypes="cccsssccsssccccccccsssssccssssscccccsssssccccsssccscssssscccsssssccccsscssssccccsssccccssssccccccccsssccccsssssssccsssssccccsssccc" fill="#FFFFFF" d="
		M62.202,246.864H36.7v-7.914c0-4.988-0.242-8.111-0.727-9.367c-0.485-1.256-1.636-1.884-3.453-1.885
		c-1.575,0.001-2.645,0.539-3.21,1.614c-0.565,1.077-0.848,3.842-0.848,8.291v41.83c0,3.912,0.283,6.486,0.848,7.726
		c0.565,1.238,1.696,1.856,3.392,1.856c1.857,0,3.119-0.698,3.786-2.1c0.667-1.399,1-4.127,1-8.183v-10.336h-5.149v-13.243h29.862
		v46.783H46.149l-2.362-6.244c-1.736,2.69-3.927,4.711-6.572,6.057s-5.765,2.019-9.358,2.019c-4.281,0-8.289-0.924-12.024-2.771
		c-3.735-1.849-6.572-4.137-8.51-6.864s-3.15-5.59-3.634-8.586c-0.486-2.999-0.728-7.494-0.728-13.488v-25.895
		c0-8.326,0.505-14.374,1.514-18.144c1.01-3.769,3.907-7.223,8.692-10.362c4.785-3.141,10.974-4.71,18.565-4.71
		c7.471,0,13.669,1.362,18.596,4.091c4.926,2.728,8.137,5.967,9.631,9.718c1.494,3.75,2.241,9.196,2.241,16.339v3.769H62.202z
		 M91.153,258.169H68.196v-4.791c0-5.527,0.717-9.789,2.15-12.786c1.434-2.996,4.311-5.644,8.631-7.939
		c4.32-2.297,9.934-3.445,16.839-3.445c8.278,0,15.577,1.301,19.777,3.903c4.2,2.602,6.724,5.796,7.571,9.582
		c0.848,3.786,1.272,11.584,1.272,23.392v35.854H99.573v-6.353c-1.494,2.548-3.422,4.459-5.785,5.733
		c-2.363,1.273-5.179,1.91-8.45,1.91c-4.281,0-8.208-1.067-11.781-3.202c-3.574-2.137-5.361-6.812-5.361-14.024v-5.868
		c0-5.348,0.949-8.99,2.847-10.929s6.602-4.198,14.113-6.783c8.036-2.799,12.336-4.684,12.902-5.652
		c0.566-0.968,0.848-2.941,0.848-5.922c0-3.731-0.313-6.164-0.939-7.295c-0.626-1.13-1.666-1.695-3.12-1.695
		c-1.656,0-2.686,0.477-3.089,1.428c-0.403,0.951-0.605,3.418-0.605,7.401V258.169z M98.907,267.968
		c-3.917,2.548-6.188,4.685-6.814,6.406s-0.939,4.199-0.939,7.429c0,3.697,0.272,6.084,0.818,7.16
		c0.545,1.077,1.625,1.615,3.24,1.615c1.535,0,2.534-0.422,2.999-1.267c0.464-0.843,0.697-3.06,0.697-6.647L98.907,267.968
		L98.907,267.968z M155.966,230.498l-0.424,6.783c1.897-2.691,4.159-4.71,6.784-6.058c2.625-1.346,5.613-2.019,8.965-2.019
		c6.542,0,11.69,2.69,15.446,8.075c2.059-2.691,4.381-4.71,6.966-6.058c2.584-1.346,5.451-2.019,8.601-2.019
		c4.159,0,7.602,0.896,10.328,2.69c2.726,1.795,4.472,3.993,5.239,6.596c0.768,2.603,1.151,6.828,1.151,12.679v50.769h-23.744
		V255.37c0-6.103-0.232-9.879-0.697-11.332c-0.464-1.454-1.544-2.182-3.241-2.182c-1.736,0-2.857,0.719-3.361,2.153
		c-0.505,1.437-0.757,5.222-0.757,11.359v46.568h-23.745v-45.383c0-6.999-0.191-11.198-0.575-12.598
		c-0.384-1.4-1.444-2.101-3.18-2.101c-1.09,0-2.019,0.368-2.786,1.104c-0.768,0.735-1.191,1.633-1.272,2.691
		c-0.081,1.06-0.122,3.312-0.121,6.757v49.528h-24.54v-71.439H155.966L155.966,230.498z M282.926,267.481h-31.679v15.451
		c0,3.23,0.263,5.313,0.788,6.245c0.525,0.934,1.535,1.399,3.029,1.399c1.857,0,3.099-0.619,3.725-1.857s0.939-3.634,0.939-7.187
		v-9.422h23.2v5.275c0,4.414-0.314,7.807-0.939,10.175c-0.627,2.368-2.09,4.898-4.393,7.592c-2.301,2.69-5.219,4.71-8.752,6.057
		c-3.533,1.346-7.965,2.019-13.295,2.019c-5.169,0-9.732-0.664-13.689-1.991c-3.957-1.328-7.037-3.149-9.237-5.465
		c-2.201-2.314-3.725-4.862-4.573-7.645c-0.848-2.782-1.272-6.828-1.272-12.14v-20.834c0-6.244,0.949-11.17,2.847-14.777
		s5.007-6.37,9.329-8.291c4.321-1.92,9.288-2.88,14.9-2.88c6.865,0,12.527,1.157,16.99,3.473c4.463,2.314,7.592,5.384,9.389,9.205
		c1.797,3.823,2.695,9.197,2.697,16.124v9.474H282.926z M258.395,255.854v-5.222c0-3.697-0.222-6.084-0.666-7.16
		c-0.444-1.077-1.353-1.615-2.726-1.615c-1.696,0-2.746,0.458-3.15,1.373c-0.404,0.915-0.606,3.384-0.606,7.402v5.222H258.395
		L258.395,255.854z"/>
	
		<path id="path2405" inkscape:connector-curvature="0" sodipodi:nodetypes="cccssssccsssssssccccsssscczsssssssccccccccscccssscccccccccsssssssccsssssscccsssccsssccccscccccccccccsssccssscc" fill="#FD0000" d="
		M345.74,239.157h-23.686v-6.46c0-3.016-0.303-4.936-0.908-5.762c-0.604-0.824-1.613-1.236-3.027-1.237
		c-1.533,0.001-2.695,0.557-3.482,1.669s-1.182,2.8-1.182,5.061c0,2.907,0.445,5.098,1.334,6.568
		c0.848,1.472,3.25,3.248,7.207,5.329c11.348,5.994,18.494,10.911,21.441,14.751c2.947,3.841,4.424,10.03,4.424,18.572
		c0,6.209-0.818,10.785-2.453,13.729c-1.639,2.942-4.797,5.41-9.48,7.402c-4.684,1.99-10.135,2.986-16.354,2.986
		c-6.826,0-12.65-1.147-17.479-3.444c-4.824-2.297-7.984-5.223-9.479-8.775s-2.242-8.596-2.242-15.127v-5.707h23.684v10.605
		c0,3.267,0.334,5.365,1,6.299s1.85,1.398,3.543,1.398c1.697,0,2.959-0.592,3.787-1.775c0.828-1.185,1.24-2.942,1.24-5.275
		c0-5.133-0.787-8.488-2.361-10.067c-1.613-1.578-5.594-4.217-11.934-7.913c-6.34-3.732-11.334-6.442-13.395-8.13
		c-2.059-1.687-3.766-4.02-5.117-6.999c-1.354-2.979-2.029-6.781-2.029-11.411c0-6.677,0.959-12.617,2.877-15.703
		c1.918-3.087,5.018-5.501,9.299-7.241c4.281-1.741,10.244-2.612,16.301-2.612c6.623,0,12.268,0.951,16.932,2.854
		c4.664,1.902,7.754,4.298,9.268,7.187c1.516,2.891,2.271,8.857,2.271,15.784V239.157L345.74,239.157z M382.053,218.97v8.603h6.867
		v11.305h-6.867v40.873c0,4.702,0.271,7.321,0.816,7.86c0.545,0.537,1.758,0.808,5.756,0.808v11.52h-9.875
		c-5.572,0-9.549-0.206-11.932-0.618c-2.383-0.413-4.482-1.364-6.301-2.854c-1.816-1.489-2.947-3.194-3.391-5.114
		c-0.445-1.92-0.666-6.434-0.666-13.539v-38.936h-5.271v-11.305h5.271v-8.602H382.053L382.053,218.97z M450.205,253.585v17.497
		c0,6.424-0.363,11.135-1.09,14.132c-0.729,2.996-2.281,5.796-4.664,8.397c-2.383,2.603-5.441,4.521-9.18,5.761
		c-3.732,1.238-8.023,1.856-12.869,1.856c-5.41,0-9.994-0.528-13.75-1.588c-3.758-1.06-6.674-2.655-8.754-4.792
		c-2.078-2.135-3.563-4.72-4.451-7.752c-0.891-3.033-1.332-7.582-1.332-13.646v-18.304c0-6.64,0.809-11.825,2.424-15.559
		s4.52-6.729,8.721-8.99c4.201-2.261,9.572-3.392,16.113-3.392c5.492,0,10.207,0.727,14.143,2.181
		c3.938,1.453,6.977,3.348,9.117,5.681c2.141,2.331,3.604,4.736,4.391,7.214C449.811,244.756,450.205,248.523,450.205,253.585
		L450.205,253.585L450.205,253.585z M425.734,248.202c0-3.661-0.225-5.967-0.666-6.918c-0.445-0.951-1.396-1.428-2.85-1.428
		s-2.422,0.477-2.908,1.428c-0.482,0.951-0.727,3.257-0.727,6.918v32.247c0,3.373,0.242,5.57,0.727,6.595
		c0.486,1.021,1.436,1.534,2.85,1.534c1.453,0,2.412-0.467,2.877-1.399c0.465-0.934,0.697-2.942,0.697-6.03V248.202L425.734,248.202
		z M481.891,228.498l-0.424,6.299c2.18-2.548,4.582-4.45,7.207-5.707c2.625-1.256,5.492-1.884,8.604-1.884
		c14.52-0.526,19.588,7.424,19.762,21.05v30.094c0,6.496-0.436,11.117-1.303,13.862c-4.811,9.58-17.963,11.099-27.184,7.133
		c-2.584-1.256-4.945-3.122-7.086-5.599v16.366h-24.471v-81.614H481.891z M488.855,249.278c0-4.414-0.182-7.089-0.545-8.021
		c-0.361-0.933-1.373-1.399-3.025-1.399c-1.615,0-2.656,0.538-3.121,1.615c-0.463,1.076-0.695,3.68-0.695,7.807v29.608
		c0,4.308,0.242,6.999,0.727,8.075c0.484,1.077,1.535,1.615,3.15,1.615c1.574,0,2.553-0.493,2.938-1.48
		c0.383-0.986,0.574-3.383,0.574-7.188v-30.632H488.855z"/>
</g>
</svg>
