<svg enable-background="new 0 0 520 520" height="520" viewBox="0 0 520 520" width="520" xmlns="http://www.w3.org/2000/svg"><path d="m62.202 246.864h-25.502v-7.914c0-4.988-.242-8.111-.727-9.367s-1.636-1.884-3.453-1.885c-1.575.001-2.645.539-3.21 1.614-.565 1.077-.848 3.842-.848 8.291v41.83c0 3.912.283 6.486.848 7.726.565 1.238 1.696 1.856 3.392 1.856 1.857 0 3.119-.698 3.786-2.1.667-1.399 1-4.127 1-8.183v-10.336h-5.149v-13.243h29.862v46.783h-16.052l-2.362-6.244c-1.736 2.69-3.927 4.711-6.572 6.057s-5.765 2.019-9.358 2.019c-4.281 0-8.289-.924-12.024-2.771-3.735-1.849-6.572-4.137-8.51-6.864s-3.15-5.59-3.634-8.586c-.486-2.999-.728-7.494-.728-13.488v-25.895c0-8.326.505-14.374 1.514-18.144 1.01-3.769 3.907-7.223 8.692-10.362 4.785-3.141 10.974-4.71 18.565-4.71 7.471 0 13.669 1.362 18.596 4.091 4.926 2.728 8.137 5.967 9.631 9.718 1.494 3.75 2.241 9.196 2.241 16.339v3.769h.002zm28.951 11.305h-22.957v-4.791c0-5.527.717-9.789 2.15-12.786 1.434-2.996 4.311-5.644 8.631-7.939 4.32-2.297 9.934-3.445 16.839-3.445 8.278 0 15.577 1.301 19.777 3.903s6.724 5.796 7.571 9.582c.848 3.786 1.272 11.584 1.272 23.392v35.854h-24.863v-6.353c-1.494 2.548-3.422 4.459-5.785 5.733-2.363 1.273-5.179 1.91-8.45 1.91-4.281 0-8.208-1.067-11.781-3.202-3.574-2.137-5.361-6.812-5.361-14.024v-5.868c0-5.348.949-8.99 2.847-10.929s6.602-4.198 14.113-6.783c8.036-2.799 12.336-4.684 12.902-5.652s.848-2.941.848-5.922c0-3.731-.313-6.164-.939-7.295-.626-1.13-1.666-1.695-3.12-1.695-1.656 0-2.686.477-3.089 1.428s-.605 3.418-.605 7.401zm7.754 9.799c-3.917 2.548-6.188 4.685-6.814 6.406s-.939 4.199-.939 7.429c0 3.697.272 6.084.818 7.16.545 1.077 1.625 1.615 3.24 1.615 1.535 0 2.534-.422 2.999-1.267.464-.843.697-3.06.697-6.647zm57.059-37.47-.424 6.783c1.897-2.691 4.159-4.71 6.784-6.058 2.625-1.346 5.613-2.019 8.965-2.019 6.542 0 11.69 2.69 15.446 8.075 2.059-2.691 4.381-4.71 6.966-6.058 2.584-1.346 5.451-2.019 8.601-2.019 4.159 0 7.602.896 10.328 2.69 2.726 1.795 4.472 3.993 5.239 6.596.768 2.603 1.151 6.828 1.151 12.679v50.769h-23.744v-46.566c0-6.103-.232-9.879-.697-11.332-.464-1.454-1.544-2.182-3.241-2.182-1.736 0-2.857.719-3.361 2.153-.505 1.437-.757 5.222-.757 11.359v46.568h-23.745v-45.383c0-6.999-.191-11.198-.575-12.598s-1.444-2.101-3.18-2.101c-1.09 0-2.019.368-2.786 1.104-.768.735-1.191 1.633-1.272 2.691-.081 1.06-.122 3.312-.121 6.757v49.528h-24.54v-71.439h24.963zm126.96 36.983h-31.679v15.451c0 3.23.263 5.313.788 6.245.525.934 1.535 1.399 3.029 1.399 1.857 0 3.099-.619 3.725-1.857s.939-3.634.939-7.187v-9.422h23.2v5.275c0 4.414-.314 7.807-.939 10.175-.627 2.368-2.09 4.898-4.393 7.592-2.301 2.69-5.219 4.71-8.752 6.057-3.533 1.346-7.965 2.019-13.295 2.019-5.169 0-9.732-.664-13.689-1.991-3.957-1.328-7.037-3.149-9.237-5.465-2.201-2.314-3.725-4.862-4.573-7.645-.848-2.782-1.272-6.828-1.272-12.14v-20.834c0-6.244.949-11.17 2.847-14.777s5.007-6.37 9.329-8.291c4.321-1.92 9.288-2.88 14.9-2.88 6.865 0 12.527 1.157 16.99 3.473 4.463 2.314 7.592 5.384 9.389 9.205 1.797 3.823 2.695 9.197 2.697 16.124v9.474zm-24.531-11.627v-5.222c0-3.697-.222-6.084-.666-7.16-.444-1.077-1.353-1.615-2.726-1.615-1.696 0-2.746.458-3.15 1.373s-.606 3.384-.606 7.402v5.222z" fill="#fff"/><path d="m345.74 239.157h-23.686v-6.46c0-3.016-.303-4.936-.908-5.762-.604-.824-1.613-1.236-3.027-1.237-1.533.001-2.695.557-3.482 1.669s-1.182 2.8-1.182 5.061c0 2.907.445 5.098 1.334 6.568.848 1.472 3.25 3.248 7.207 5.329 11.348 5.994 18.494 10.911 21.441 14.751 2.947 3.841 4.424 10.03 4.424 18.572 0 6.209-.818 10.785-2.453 13.729-1.639 2.942-4.797 5.41-9.48 7.402-4.684 1.99-10.135 2.986-16.354 2.986-6.826 0-12.65-1.147-17.479-3.444-4.824-2.297-7.984-5.223-9.479-8.775s-2.242-8.596-2.242-15.127v-5.707h23.684v10.605c0 3.267.334 5.365 1 6.299s1.85 1.398 3.543 1.398c1.697 0 2.959-.592 3.787-1.775.828-1.185 1.24-2.942 1.24-5.275 0-5.133-.787-8.488-2.361-10.067-1.613-1.578-5.594-4.217-11.934-7.913-6.34-3.732-11.334-6.442-13.395-8.13-2.059-1.687-3.766-4.02-5.117-6.999-1.354-2.979-2.029-6.781-2.029-11.411 0-6.677.959-12.617 2.877-15.703 1.918-3.087 5.018-5.501 9.299-7.241 4.281-1.741 10.244-2.612 16.301-2.612 6.623 0 12.268.951 16.932 2.854 4.664 1.902 7.754 4.298 9.268 7.187 1.516 2.891 2.271 8.857 2.271 15.784zm36.313-20.187v8.603h6.867v11.305h-6.867v40.873c0 4.702.271 7.321.816 7.86.545.537 1.758.808 5.756.808v11.52h-9.875c-5.572 0-9.549-.206-11.932-.618-2.383-.413-4.482-1.364-6.301-2.854-1.816-1.489-2.947-3.194-3.391-5.114-.445-1.92-.666-6.434-.666-13.539v-38.936h-5.271v-11.305h5.271v-8.602h25.593zm68.152 34.615v17.497c0 6.424-.363 11.135-1.09 14.132-.729 2.996-2.281 5.796-4.664 8.397-2.383 2.603-5.441 4.521-9.18 5.761-3.732 1.238-8.023 1.856-12.869 1.856-5.41 0-9.994-.528-13.75-1.588-3.758-1.06-6.674-2.655-8.754-4.792-2.078-2.135-3.563-4.72-4.451-7.752-.891-3.033-1.332-7.582-1.332-13.646v-18.304c0-6.64.809-11.825 2.424-15.559s4.52-6.729 8.721-8.99 9.572-3.392 16.113-3.392c5.492 0 10.207.727 14.143 2.181 3.938 1.453 6.977 3.348 9.117 5.681 2.141 2.331 3.604 4.736 4.391 7.214.787 2.475 1.181 6.242 1.181 11.304zm-24.471-5.383c0-3.661-.225-5.967-.666-6.918-.445-.951-1.396-1.428-2.85-1.428s-2.422.477-2.908 1.428c-.482.951-.727 3.257-.727 6.918v32.247c0 3.373.242 5.57.727 6.595.486 1.021 1.436 1.534 2.85 1.534 1.453 0 2.412-.467 2.877-1.399.465-.934.697-2.942.697-6.03zm56.157-19.704-.424 6.299c2.18-2.548 4.582-4.45 7.207-5.707 2.625-1.256 5.492-1.884 8.604-1.884 14.52-.526 19.588 7.424 19.762 21.05v30.094c0 6.496-.436 11.117-1.303 13.862-4.811 9.58-17.963 11.099-27.184 7.133-2.584-1.256-4.945-3.122-7.086-5.599v16.366h-24.471v-81.614zm6.964 20.78c0-4.414-.182-7.089-.545-8.021-.361-.933-1.373-1.399-3.025-1.399-1.615 0-2.656.538-3.121 1.615-.463 1.076-.695 3.68-.695 7.807v29.608c0 4.308.242 6.999.727 8.075.484 1.077 1.535 1.615 3.15 1.615 1.574 0 2.553-.493 2.938-1.48.383-.986.574-3.383.574-7.188v-30.632z" fill="#fd0000"/></svg>