<?xml version="1.0" encoding="utf-8"?>
<!-- Generator: Adobe Illustrator 16.0.0, SVG Export Plug-In . SVG Version: 6.00 Build 0)  -->
<!DOCTYPE svg PUBLIC "-//W3C//DTD SVG 1.1//EN" "http://www.w3.org/Graphics/SVG/1.1/DTD/svg11.dtd">
<svg version="1.1" id="Layer_1" xmlns="http://www.w3.org/2000/svg" xmlns:xlink="http://www.w3.org/1999/xlink" x="0px" y="0px"
	 width="1900px" height="1900px" viewBox="10 -410 1900 1900" enable-background="new 10 -410 1900 1900" xml:space="preserve">
<title>Gap_logo</title>
<path d="M325.87,0c-27.685,0-115.724,8.721-115.724,121.539v801.487c0,0.969-4.707,79.18,37.652,124.584
	c21.417,22.035,51.253,33.829,81.948,32.392c30.195-0.663,59.12-12.272,81.394-32.668l0,0c5.803-2.869,12.609-2.869,18.411,0
	c6.993,5.836,10.669,14.738,9.828,23.809h15.228V568.515h37.651v-13.843H332.376v13.843h46.927v431.89
	c2.072,18.774-2.857,37.652-13.843,53.018c-9.216,9.579-22.168,14.639-35.437,13.843c-11.188,0.281-21.981-4.137-29.762-12.182
	c-14.95-15.365-22.01-44.297-20.902-85.963c0-1.107,0-1.938,0-2.492V89.561c0-3.184,3.46-76.134,43.743-76.134
	s88.455,101.605,104.927,295.816v30.593h13.842V8.997h-13.842V35.99l-1.246,0.831c-3.162,2.246-6.92,3.499-10.797,3.599
	c-5.264-1.578-10.031-4.486-13.844-8.444C381.03,13.056,354.164,1.792,325.87,0z M1419.437,1071.972h174.14v-13.843h-60.215v-418.74
	h74.75c52.719,3.388,98.201-36.604,101.588-89.322c0.07-1.094,0.122-2.188,0.154-3.284V121.399
	c0-102.436-131.088-104.373-132.334-104.373h-161.959v13.843h41.527v1027.674h-38.205v13.843L1419.437,1071.972z M982.01,1070.587
	h160.436v-13.842h-42.635L984.502,17.58h-62.707c-5.676,54.401-102.436,982.825-102.436,995.56
	c-0.771,23.618-19.582,42.671-43.189,43.742h-8.167v13.843h112.126v-13.843h-5.953c-22.916-0.945-40.726-20.289-39.779-43.205
	c0.035-0.873,0.099-1.745,0.189-2.614l38.76-374.996h104.373l45.127,420.815h-41.527v13.843L982.01,1070.587z M1537.099,621.949
	h-2.63V31.976h44.158c51.355,0,59.384,68.244,59.384,69.213V560.21c0,60.077-45.266,61.461-45.681,61.461h-55.37L1537.099,621.949z
	 M977.442,619.318H875.977v-2.907l50.109-472.309L977.442,619.318z"/>
</svg>
