<svg enable-background="new 10 -410 1900 1900" height="1900" viewBox="10 -410 1900 1900" width="1900" xmlns="http://www.w3.org/2000/svg"><path d="m325.87 0c-27.685 0-115.724 8.721-115.724 121.539v801.487c0 .969-4.707 79.18 37.652 124.584 21.417 22.035 51.253 33.829 81.948 32.392 30.195-.663 59.12-12.272 81.394-32.668 5.803-2.869 12.609-2.869 18.411 0 6.993 5.836 10.669 14.738 9.828 23.809h15.228v-502.628h37.651v-13.843h-159.882v13.843h46.927v431.89c2.072 18.774-2.857 37.652-13.843 53.018-9.216 9.579-22.168 14.639-35.437 13.843-11.188.281-21.981-4.137-29.762-12.182-14.95-15.365-22.01-44.297-20.902-85.963 0-1.107 0-1.938 0-2.492v-877.068c0-3.184 3.46-76.134 43.743-76.134s88.455 101.605 104.927 295.816v30.593h13.842v-330.839h-13.842v26.993l-1.246.831c-3.162 2.246-6.92 3.499-10.797 3.599-5.264-1.578-10.031-4.486-13.844-8.444-21.112-18.92-47.978-30.184-76.272-31.976zm1093.567 1071.972h174.14v-13.843h-60.215v-418.74h74.75c52.719 3.388 98.201-36.604 101.588-89.322.07-1.094.122-2.188.154-3.284v-425.384c0-102.436-131.088-104.373-132.334-104.373h-161.959v13.843h41.527v1027.674h-38.205v13.843zm-437.427-1.385h160.436v-13.842h-42.635l-115.309-1039.165h-62.707c-5.676 54.401-102.436 982.825-102.436 995.56-.771 23.618-19.582 42.671-43.189 43.742h-8.167v13.843h112.126v-13.843h-5.953c-22.916-.945-40.726-20.289-39.779-43.205.035-.873.099-1.745.189-2.614l38.76-374.996h104.373l45.127 420.815h-41.527v13.843zm555.089-448.638h-2.63v-589.973h44.158c51.355 0 59.384 68.244 59.384 69.213v459.021c0 60.077-45.266 61.461-45.681 61.461h-55.37zm-559.657-2.631h-101.465v-2.907l50.109-472.309z"/></svg>