<svg height="238.9299" width="238.96243" xmlns="http://www.w3.org/2000/svg"><g transform="translate(-169.09021 -178.61151)"><path d="m169.09021 178.61151h238.96243v238.9299h-238.96243z" fill="#22559e"/><g fill="#fff"><path d="m228.86137 338.62448h119.55228v19.39815h-119.55228z"/><path d="m194.418 101.792h30.413l14.882 98.896 15.213-98.896h30.081v135.124h-20.044v-101.762l-16.894 101.762h-17.321l-16.302-101.762v101.564h-20.028z" transform="matrix(.6641609 0 0 .6641609 159.01356 170.97301)"/><path d="m260.45418 267.07509h13.65117v-6.33808c0-6.20791 0-24.01805-22.83585-24.01805-22.33174 0-22.33174 20.33993-22.33174 24.01805v46.64468c0 13.61796 4.9812 22.54029 17.88718 22.6273 7.63121.0113 12.95113-4.76203 14.07822-6.57918v4.76203l13.20219.13084v-48.62654h-21.4783v10.79395h7.82713v14.20972c0 7.20349-2.25482 12.10699-8.96551 12.10699-6.72197 0-8.85658-5.22163-8.85658-12.10699 0-4.26923 0-41.30283 0-43.9628 0-3.5692 0-11.7138 8.85658-11.7138 8.96551 0 8.96551 8.2761 8.96551 11.7138z"/></g></g></svg>