<?xml version="1.0" encoding="utf-8"?>
<!-- Generator: Adobe Illustrator 16.0.0, SVG Export Plug-In . SVG Version: 6.00 Build 0)  -->
<!DOCTYPE svg PUBLIC "-//W3C//DTD SVG 1.1//EN" "http://www.w3.org/Graphics/SVG/1.1/DTD/svg11.dtd">
<svg version="1.1" id="LogoWork" xmlns="http://www.w3.org/2000/svg" xmlns:xlink="http://www.w3.org/1999/xlink" x="0px" y="0px"
	 width="100px" height="100px" viewBox="-25.313 158.63 100 100" enable-background="new -25.313 158.63 100 100"
	 xml:space="preserve">
<title>Getaround_Logo_White_Print_Wordmark</title>
<path fill="#FFFFFF" d="M22.557,216.785C8.46,216.785,0,206.647,0,194.138c0-12.425,8.635-22.647,22.472-22.647h26.903
	c0,0-1.151,7.085-7.876,9.787H22.615c-7.754-0.005-11.852,6.337-11.852,12.844c0,6.608,3.97,12.774,11.809,12.774
	s11.809-6.166,11.809-12.774c0.016-3.565-1.365-6.995-3.848-9.554h12.738c1.297,3.018,1.96,6.269,1.948,9.554
	c0,7.134-2.786,13.491-7.786,17.642c6.21,3.674,7.786,8.678,7.786,14.002c0,12.366-9.458,20.004-22.456,20.004
	c-12.165,0-21.458-6.927-22.604-17.723l10.944-1.172c0.637,5.19,5.71,8.529,11.676,8.529c6.369,0,11.363-3.455,11.363-9.639
	s-5.806-8.991-11.347-9.023L22.557,216.785z"/>
</svg>
