<svg enable-background="new -25.313 158.63 100 100" height="100" viewBox="-25.313 158.63 100 100" width="100" xmlns="http://www.w3.org/2000/svg"><path d="m22.557 216.785c-14.097 0-22.557-10.138-22.557-22.647 0-12.425 8.635-22.647 22.472-22.647h26.903s-1.151 7.085-7.876 9.787h-18.884c-7.754-.005-11.852 6.337-11.852 12.844 0 6.608 3.97 12.774 11.809 12.774s11.809-6.166 11.809-12.774c.016-3.565-1.365-6.995-3.848-9.554h12.738c1.297 3.018 1.96 6.269 1.948 9.554 0 7.134-2.786 13.491-7.786 17.642 6.21 3.674 7.786 8.678 7.786 14.002 0 12.366-9.458 20.004-22.456 20.004-12.165 0-21.458-6.927-22.604-17.723l10.944-1.172c.637 5.19 5.71 8.529 11.676 8.529 6.369 0 11.363-3.455 11.363-9.639s-5.806-8.991-11.347-9.023z" fill="#fff"/></svg>