<?xml version="1.0" encoding="UTF-8" standalone="no"?>
<!-- Created with Inkscape (http://www.inkscape.org/) -->

<svg
   xmlns:dc="http://purl.org/dc/elements/1.1/"
   xmlns:cc="http://creativecommons.org/ns#"
   xmlns:rdf="http://www.w3.org/1999/02/22-rdf-syntax-ns#"
   xmlns:svg="http://www.w3.org/2000/svg"
   xmlns="http://www.w3.org/2000/svg"
   xmlns:sodipodi="http://sodipodi.sourceforge.net/DTD/sodipodi-0.dtd"
   xmlns:inkscape="http://www.inkscape.org/namespaces/inkscape"
   version="1.1"
   width="839.20886"
   height="1080.0001"
   id="svg2"
   xml:space="preserve"
   inkscape:version="0.48.1 "
   sodipodi:docname="Giant Food logo.svg"><metadata
     id="metadata18"><rdf:RDF><cc:Work
         rdf:about=""><dc:format>image/svg+xml</dc:format><dc:type
           rdf:resource="http://purl.org/dc/dcmitype/StillImage" /><dc:title></dc:title></cc:Work></rdf:RDF></metadata><sodipodi:namedview
     pagecolor="#ffffff"
     bordercolor="#666666"
     borderopacity="1"
     objecttolerance="10"
     gridtolerance="10"
     guidetolerance="10"
     inkscape:pageopacity="0"
     inkscape:pageshadow="2"
     inkscape:window-width="1680"
     inkscape:window-height="988"
     id="namedview16"
     showgrid="false"
     inkscape:zoom="0.35601848"
     inkscape:cx="1087.0222"
     inkscape:cy="526.59811"
     inkscape:window-x="-8"
     inkscape:window-y="1016"
     inkscape:window-maximized="1"
     inkscape:current-layer="svg2"
     fit-margin-top="0"
     fit-margin-left="0"
     fit-margin-right="0"
     fit-margin-bottom="0" /><defs
     id="defs6" /><g
     transform="matrix(1.25,0,0,-1.25,9.3420559e-5,1080.0001)"
     id="g12"><g
       transform="scale(0.1,0.1)"
       id="g14"><path
         d="M 5935.92,4405.04 C 5429.28,3534.32 4483.8,2948.64 3400.98,2948.64 c -1119.69,0 -2092.54,626.22 -2585.164,1546.31 -84.019,133.53 -43.535,196.18 -43.535,196.18 36.973,86.57 207.387,79.39 207.387,79.39 l 4830.062,0 c 0,0 156.03,0.31 184.86,-73.97 0,0 74.48,-115.61 -58.67,-291.51"
         id="path16"
         style="fill:#f8af0c;fill-opacity:1;fill-rule:nonzero;stroke:none"
         inkscape:connector-curvature="0" /><path
         d="m 3998.44,5098.68 c -728.08,-192.98 -1536.72,-5.01 -2107.79,564.02 -590.52,588.38 -772.14,1429.89 -544.95,2174.01 26.37,114.58 80.88,126.34 80.88,126.34 65.32,26.24 151.4,-67.11 151.4,-67.11 l 2487.78,-2478.84 59.57,-59.35 c 0,0 82.46,-81.83 58.34,-136.16 0,0 -21.89,-100.11 -185.23,-122.91"
         id="path18"
         style="fill:#ee2826;fill-opacity:1;fill-rule:nonzero;stroke:none"
         inkscape:connector-curvature="0" /><path
         d="m 4007.43,5749.1 c -490.08,283.11 -819.72,811.45 -819.72,1416.52 0,625.69 352.46,1169.32 870.33,1444.6 75.16,46.96 110.42,24.33 110.42,24.33 48.73,-20.65 44.68,-115.89 44.68,-115.89 l 0,-2699.04 c 0,0 0.17,-87.2 -41.64,-103.3 0,0 -65.05,-41.63 -164.07,32.78"
         id="path20"
         style="fill:#71207f;fill-opacity:1;fill-rule:nonzero;stroke:none"
         inkscape:connector-curvature="0" /><path
         d="m 4391.76,5583.34 c -110.55,414.07 -2.87,873.95 323.06,1198.72 337.06,335.83 819.09,439.12 1245.34,309.9 65.62,-14.99 72.36,-45.98 72.36,-45.98 15.02,-37.15 -38.44,-86.11 -38.44,-86.11 l -1419.93,-1414.81 -33.99,-33.88 c 0,0 -46.89,-46.89 -77.99,-33.18 0,0 -57.36,12.46 -70.41,105.34"
         id="path22"
         style="fill:#7dcb2b;fill-opacity:1;fill-rule:nonzero;stroke:none"
         inkscape:connector-curvature="0" /><path
         d="m 1890.98,2118.14 c 0,0 -252.88,112.13 -603.01,130.82 l -75.03,0 c 0,0 -1119.1548,6.24 -1212.94,-1077.75 L 0,1034.15 C 0,1034.15 -6.25391,68.5391 1125.41,0 l 137.55,0 c 0,0 562.71,49.8398 756.53,218.051 l 0,940.699 -737.77,0 -187.57,-280.348 550.21,0 0,-479.691 c 0,0 -150.06,-118.359 -375.14,-112.141 l -100.04,0 c 0,0 -681.504,6.231 -750.278,772.49 l 0,112.15 c 0,0 18.758,697.74 800.298,766.26 l 100.03,0 c 0,0 412.65,-24.91 568.96,-193.12 l 2.79,373.79"
         id="path24"
         style="fill:#71207f;fill-opacity:1;fill-rule:evenodd;stroke:none"
         inkscape:connector-curvature="0" /><path
         d="m 2663.22,2049.61 c 0,-103.22 -83.98,-186.9 -187.58,-186.9 -103.58,0 -187.56,83.68 -187.56,186.9 0,103.21 83.98,186.89 187.56,186.89 103.6,0 187.58,-83.68 187.58,-186.89"
         id="path26"
         style="fill:#71207f;fill-opacity:1;fill-rule:evenodd;stroke:none"
         inkscape:connector-curvature="0" /><path
         d="m 2294.59,43.6016 356.391,0 0,1501.4 -356.391,0 0,-1501.4 z"
         id="path28"
         style="fill:#71207f;fill-opacity:1;fill-rule:evenodd;stroke:none"
         inkscape:connector-curvature="0" /><path
         d="m 3535.93,721.719 c -332.75,-5.52 -327.2,-221.028 -327.2,-221.028 l 0,-49.73 C 3280.83,240.98 3447.2,257.559 3447.2,257.559 l 44.37,0 c 155.28,11.05 244.02,71.82 244.02,71.82 l 0,386.82 -199.66,5.52 z m -553.58,518.021 168.81,299.02 c 0,0 887.82,255.43 925.34,-355.09 l 0,-1119.5216 -318.74,0 0,22.1133 c 0,0 -166.37,-66.3125 -338.29,-71.8398 l -72.1,0 c 0,0 -410.38,-44.211 -499.12,408.8981 l 0,49.75 c 0,0 11.1,508.379 654.41,497.321 l 232.93,0 0,110.529 c 0,0 0,215.5 -288.39,248.65 l -72.1,0 c 0,0 -247.57,-19.42 -392.75,-89.83"
         id="path30"
         style="fill:#71207f;fill-opacity:1;fill-rule:evenodd;stroke:none"
         inkscape:connector-curvature="0" /><path
         d="m 5171.94,1583.77 -66.55,0 c -159.78,4.18 -325.92,-83.75 -396.93,-126.51 l 0,87.74 -356.38,0 0,-1501.3984 356.38,0 0,1173.9284 c 87.17,75.12 241.65,89.94 241.65,89.94 l 38.82,0 c 321.66,-11.05 305.02,-309.45 305.02,-309.45 l 0,-939.3911 360.47,0 0,1000.1811 c -22.17,541.52 -482.48,524.96 -482.48,524.96"
         id="path32"
         style="fill:#71207f;fill-opacity:1;fill-rule:nonzero;stroke:none"
         inkscape:connector-curvature="0" /><path
         d="m 6292.19,528.32 6.07,773.62 332.23,0 0,254.19 -330.24,0 3.03,386.81 -349.37,-116.05 0,-270.76 -199.66,0 0,-254.19 199.66,0 0,-817.819 c 0,0 -77.66,-475.21866 349.37,-469.6991 l 83.18,0 122.02,11.0586 205.19,265.2185 c 0,0 -393.75,-171.297 -421.48,237.621"
         id="path34"
         style="fill:#71207f;fill-opacity:1;fill-rule:nonzero;stroke:none"
         inkscape:connector-curvature="0" /></g></g></svg>