<svg height="1080.0001" width="839.20886" xmlns="http://www.w3.org/2000/svg"><g transform="matrix(.125 0 0 -.125 .000093 1080.0001)"><path d="m5935.92 4405.04c-506.64-870.72-1452.12-1456.4-2534.94-1456.4-1119.69 0-2092.54 626.22-2585.164 1546.31-84.019 133.53-43.535 196.18-43.535 196.18 36.973 86.57 207.387 79.39 207.387 79.39h4830.062s156.03.31 184.86-73.97c0 0 74.48-115.61-58.67-291.51" fill="#f8af0c"/><path d="m3998.44 5098.68c-728.08-192.98-1536.72-5.01-2107.79 564.02-590.52 588.38-772.14 1429.89-544.95 2174.01 26.37 114.58 80.88 126.34 80.88 126.34 65.32 26.24 151.4-67.11 151.4-67.11l2487.78-2478.84 59.57-59.35s82.46-81.83 58.34-136.16c0 0-21.89-100.11-185.23-122.91" fill="#ee2826"/><path d="m4007.43 5749.1c-490.08 283.11-819.72 811.45-819.72 1416.52 0 625.69 352.46 1169.32 870.33 1444.6 75.16 46.96 110.42 24.33 110.42 24.33 48.73-20.65 44.68-115.89 44.68-115.89v-2699.04s.17-87.2-41.64-103.3c0 0-65.05-41.63-164.07 32.78" fill="#71207f"/><path d="m4391.76 5583.34c-110.55 414.07-2.87 873.95 323.06 1198.72 337.06 335.83 819.09 439.12 1245.34 309.9 65.62-14.99 72.36-45.98 72.36-45.98 15.02-37.15-38.44-86.11-38.44-86.11l-1419.93-1414.81-33.99-33.88s-46.89-46.89-77.99-33.18c0 0-57.36 12.46-70.41 105.34" fill="#7dcb2b"/><g fill="#71207f"><g fill-rule="evenodd"><path d="m1890.98 2118.14s-252.88 112.13-603.01 130.82h-75.03s-1119.1548 6.24-1212.94-1077.75v-137.06s-6.25391-965.6109 1125.41-1034.15h137.55s562.71 49.8398 756.53 218.051v940.699h-737.77l-187.57-280.348h550.21v-479.691s-150.06-118.359-375.14-112.141h-100.04s-681.504 6.231-750.278 772.49v112.15s18.758 697.74 800.298 766.26h100.03s412.65-24.91 568.96-193.12z"/><path d="m2663.22 2049.61c0-103.22-83.98-186.9-187.58-186.9-103.58 0-187.56 83.68-187.56 186.9 0 103.21 83.98 186.89 187.56 186.89 103.6 0 187.58-83.68 187.58-186.89"/><path d="m2294.59 43.6016h356.391v1501.4h-356.391v-1501.4z"/><path d="m3535.93 721.719c-332.75-5.52-327.2-221.028-327.2-221.028v-49.73c72.1-209.981 238.47-193.402 238.47-193.402h44.37c155.28 11.05 244.02 71.82 244.02 71.82v386.82zm-553.58 518.021 168.81 299.02s887.82 255.43 925.34-355.09v-1119.5216h-318.74v22.1133s-166.37-66.3125-338.29-71.8398h-72.1s-410.38-44.211-499.12 408.8981v49.75s11.1 508.379 654.41 497.321h232.93v110.529s0 215.5-288.39 248.65h-72.1s-247.57-19.42-392.75-89.83"/></g><path d="m5171.94 1583.77h-66.55c-159.78 4.18-325.92-83.75-396.93-126.51v87.74h-356.38v-1501.3984h356.38v1173.9284c87.17 75.12 241.65 89.94 241.65 89.94h38.82c321.66-11.05 305.02-309.45 305.02-309.45v-939.3911h360.47v1000.1811c-22.17 541.52-482.48 524.96-482.48 524.96"/><path d="m6292.19 528.32 6.07 773.62h332.23v254.19h-330.24l3.03 386.81-349.37-116.05v-270.76h-199.66v-254.19h199.66v-817.819s-77.66-475.21866 349.37-469.6991h83.18l122.02 11.0586 205.19 265.2185s-393.75-171.297-421.48 237.621"/></g></g></svg>