<svg enable-background="new 259.95 -160.018 1400 1400" height="1400" viewBox="259.95 -160.018 1400 1400" width="1400" xmlns="http://www.w3.org/2000/svg"><path d="m1489.285 552.399c0-36.708-2.977-73.614-9.326-109.727h-509.344v207.944h291.678c-12.104 67.066-50.994 126.394-107.94 164.094v134.925h174.015c102.185-94.05 160.917-232.944 160.917-397.236z" fill="#4285f4"/><path d="m970.615 1079.998c145.641 0 268.463-47.819 357.95-130.362l-174.015-134.925c-48.414 32.938-110.917 51.589-183.737 51.589-140.878 0-260.327-95.043-303.186-222.826h-179.57v139.093c91.672 182.347 278.384 297.431 482.558 297.431z" fill="#34a853"/><path d="m667.43 643.474c-22.62-67.065-22.62-139.688 0-206.753v-139.093h-179.372c-76.59 152.585-76.59 332.354 0 484.938z" fill="#fbbc04"/><path d="m970.615 213.696c76.987-1.19 151.395 27.779 207.15 80.956l154.173-154.172c-97.623-91.67-227.191-142.069-361.323-140.482-204.174 0-390.887 115.083-482.558 297.63l179.373 139.093c42.66-127.982 162.307-223.025 303.185-223.025z" fill="#ea4335"/></svg>