<svg enable-background="new -39.5 360.5 80 80" height="80" viewBox="-39.5 360.5 80 80" width="80" xmlns="http://www.w3.org/2000/svg"><path d="m-21.45 421.871c5.82 6.158 13.24 9.398 21.98 9.398 10.08 0 19.56-5 25.22-13.24 3.42-5 5.08-10.658 5.08-17.318 0-1.241-.08-2.581-.16-3.921h-33.72v11.819h16.9c-2.92 5.16-7.82 8-13.32 8-8.16 0-15.48-7.238-15.48-16.66 0-8.5 6.82-15.559 15.48-15.559 4.66 0 8.48 1.92 12.16 5.739h16.48c-4.74-12.66-15.82-20.399-28.46-20.399-8.4 0-15.72 3-21.56 8.739-5.82 5.74-8.98 13.24-8.98 21.4-.02 8.762 2.8 16.08 8.38 22.002z" fill="#53a318"/></svg>