<?xml version="1.0" encoding="utf-8"?>
<!-- Generator: Adobe Illustrator 16.0.0, SVG Export Plug-In . SVG Version: 6.00 Build 0)  -->
<!DOCTYPE svg PUBLIC "-//W3C//DTD SVG 1.1//EN" "http://www.w3.org/Graphics/SVG/1.1/DTD/svg11.dtd">
<svg version="1.1" id="Layer_1" xmlns="http://www.w3.org/2000/svg" xmlns:xlink="http://www.w3.org/1999/xlink" x="0px" y="0px"
	 width="80px" height="80px" viewBox="-39.5 360.5 80 80" enable-background="new -39.5 360.5 80 80" xml:space="preserve">
<path fill="#53A318" d="M-21.45,421.871c5.82,6.158,13.24,9.398,21.98,9.398c10.08,0,19.56-5,25.22-13.24
	c3.42-5,5.08-10.658,5.08-17.318c0-1.241-0.08-2.581-0.16-3.921H-3.05v11.819h16.9c-2.92,5.16-7.82,8-13.32,8
	c-8.16,0-15.48-7.238-15.48-16.66c0-8.5,6.82-15.559,15.48-15.559c4.66,0,8.48,1.92,12.16,5.739h16.48
	c-4.74-12.66-15.82-20.399-28.46-20.399c-8.4,0-15.72,3-21.56,8.739c-5.82,5.74-8.98,13.24-8.98,21.4
	C-29.85,408.631-27.03,415.949-21.45,421.871z"/>
</svg>
