<?xml version="1.0" encoding="utf-8"?>
<!-- Generator: Adobe Illustrator 16.0.0, SVG Export Plug-In . SVG Version: 6.00 Build 0)  -->
<!DOCTYPE svg PUBLIC "-//W3C//DTD SVG 1.1//EN" "http://www.w3.org/Graphics/SVG/1.1/DTD/svg11.dtd">
<svg version="1.1" id="Layer_1" xmlns="http://www.w3.org/2000/svg" xmlns:xlink="http://www.w3.org/1999/xlink" x="0px" y="0px"
	 width="420px" height="420px" viewBox="-209.5 190.5 420 420" enable-background="new -209.5 190.5 420 420" xml:space="preserve">
<path fill="#F63440" d="M78.967,359.767h-14c-0.8,0-1.199,0.8-1.199,1.2v30.467h-14v-30.467c0-0.8-0.801-1.2-1.201-1.2h-14
	c-0.799,0-1.199,0.8-1.199,1.2v78.2c0,0.8,0.8,1.2,1.199,1.2h14c0.801,0,1.201-0.801,1.201-1.2V407.9h14v31.267
	c0,0.8,0.799,1.2,1.199,1.2h14c0.801,0,1.2-0.801,1.2-1.2v-78.2C80.167,360.566,79.768,359.767,78.967,359.767 M-39.033,359.767h-14
	c-0.8,0-1.2,0.4-1.2,1.2v55.399c0,2.801-0.8,4.801-2,6.4c-1.2,1.6-2.8,2-4.8,2c-1.933,0-3.6-0.8-4.8-2c-1.2-1.6-2-3.6-2-6.4v-55.399
	c0-0.8-0.8-1.2-1.2-1.2h-14c-0.8,0-1.2,0.4-1.2,1.2v55.8c0,7.2,1.6,14,6,18.467c4.4,4.399,10.4,6.8,17.267,6.8
	c7.2,0,13.267-2.4,17.267-6.8c4.4-4.4,6-10.8,6-18.467v-55.8C-37.767,360.566-38.167,359.767-39.033,359.767 M-176.233,358.566
	c-7.2,0-13.267,2.4-17.267,6.8c-4.4,4.4-6,10.8-6,18.467v33.333c0,7.2,1.6,14,6,18.467c4.4,4.4,10.4,6.801,17.267,6.801
	c7.2,0,13.267-2.4,17.267-6.801c4.4-4.399,6-10.8,6-18.467v-18.399c0-0.8-0.8-1.601-1.6-1.601h-20.467c-0.8,0-1.6,0.801-1.6,1.601
	v13.667c0,0.8,0.8,1.6,1.6,1.6h5.267v3.2c0,2.8-0.8,5.267-2,6.8c-1.2,1.6-2.8,2-4.8,2c-1.934,0-3.6-0.8-4.8-2c-1.2-1.6-2-4-2-6.8
	V384.3c0-2.8,0.8-5.267,2-6.8c1.2-1.6,2.8-2,4.8-2c1.933,0,3.6,0.8,4.8,2c1.2,1.6,2,4,2,6.8v3.2c0,0.8,0.8,1.2,1.2,1.2h14
	c0.8,0,1.2-0.4,1.2-1.2v-3.2c0-7.2-1.6-14-6-18.467C-162.966,360.967-169.433,358.566-176.233,358.566 M4.301,422.366
	c-1.201,1.601-2.801,2-5.267,2h-8v-16.933h8c2,0,3.599,0.8,4.8,2c1.199,1.6,2,3.6,2,6C5.967,418.767,5.566,420.7,4.301,422.366z
	 M-8.966,376.233h7.2c2,0,3.601,0.399,4.8,2c1.2,1.2,1.6,3.2,1.6,5.667c0,2.466-0.399,4.399-1.6,6c-1.199,1.199-2.8,2-4.4,2h-7.2
	v-15.667H-8.966z M14.301,399.1c2.399-2.399,6.799-8,6.799-15.267c0-8.467-3.199-13.666-5.666-16.467
	c-4.4-4.8-10.4-7.199-17.267-7.199h-21.934c-0.8,0-1.2,0.8-1.2,1.199v78.267c0,0.801,0.8,1.2,1.2,1.2H-0.5
	c7.2,0,14-2.8,18.467-8.466c2.4-3.2,5.267-8.467,5.267-16.467C22.768,406.3,16.768,400.634,14.301,399.1L14.301,399.1z
	 M-113.233,391.434c-1.2,1.6-3.2,2.399-5.667,2.399h-6.8v-17.6h6.8c2.4,0,4.4,0.8,5.667,2.399c1.6,1.601,2,3.601,2,6.4
	S-111.566,389.833-113.233,391.434L-113.233,391.434z M-104.367,405.9c1.6-1.2,2.8-2,4-3.601c2.8-3.2,6.4-8.866,6.4-17.667
	c0-8.466-3.2-14-6.4-17.267c-4-4.8-10-7.2-16.867-7.6H-140.5c-0.8,0-1.2,0.8-1.2,1.2v78.2c0,0.8,0.8,1.199,1.2,1.199h14
	c0.8,0,1.2-0.8,1.2-1.199v-28.934h4.8l8.867,29.667c0,0.399,0.8,0.8,1.2,0.8h14.8c0.4,0,0.8-0.4,1.2-0.4s0.4-0.8,0.4-1.2
	L-104.367,405.9L-104.367,405.9z M181.233,422.366c-1.2,1.601-2.8,2-5.267,2h-8v-16.933h8c2,0,3.6,0.8,4.801,2c1.199,1.6,2,3.6,2,6
	C183.233,418.767,182.5,420.7,181.233,422.366L181.233,422.366z M168.367,376.233h7.199c2,0,3.601,0.399,4.801,2
	c1.199,1.2,1.6,3.2,1.6,5.667c0,2.466-0.4,4.399-1.6,6c-1.2,1.199-2.801,2-4.4,2h-7.199v-15.667H168.367z M191.633,399.1
	c2.4-2.399,6.801-8,6.801-15.267c0-8.467-3.2-13.666-5.666-16.467c-4.4-4.8-10.4-7.199-17.268-7.199h-22.133
	c-0.801,0-1.2,0.8-1.2,1.199v78.267c0,0.801,0.8,1.2,1.2,1.2h23.4c7.199,0,14-2.8,18.466-8.466c2.4-3.2,5.267-8.467,5.267-16.467
	C199.7,406.3,193.7,400.634,191.633,399.1L191.633,399.1z M137.9,359.767h-14c-0.801,0-1.2,0.4-1.2,1.2v55.399
	c0,2.801-0.8,4.801-2,6.4s-2.8,2-4.8,2c-1.934,0-3.6-0.8-4.801-2c-1.199-1.6-2-3.6-2-6.4v-55.399c0-0.8-0.799-1.2-1.199-1.2H93.834
	c-0.801,0-1.201,0.4-1.201,1.2v55.8c0,7.2,1.601,14,6,18.467c4.4,4.399,10.4,6.8,17.268,6.8c7.199,0,13.267-2.4,17.267-6.8
	c4.399-4.4,6-10.8,6-18.467v-55.8C139.566,360.566,138.767,359.767,137.9,359.767"/>
</svg>
