<?xml version="1.0" encoding="utf-8"?>
<!-- Generator: Adobe Illustrator 16.0.0, SVG Export Plug-In . SVG Version: 6.00 Build 0)  -->
<!DOCTYPE svg PUBLIC "-//W3C//DTD SVG 1.1//EN" "http://www.w3.org/Graphics/SVG/1.1/DTD/svg11.dtd">
<svg version="1.1" id="Layer_2" xmlns="http://www.w3.org/2000/svg" xmlns:xlink="http://www.w3.org/1999/xlink" x="0px" y="0px"
	 width="120px" height="120px" viewBox="94.434 -8.755 120 120" enable-background="new 94.434 -8.755 120 120"
	 xml:space="preserve">
<rect x="146.979" y="19.164" fill="#124A92" width="14.908" height="12.167"/>
<rect x="146.979" y="71.171" fill="#124A92" width="14.908" height="12.167"/>
<rect x="174.354" y="43.797" fill="#00B8E5" width="12.167" height="14.908"/>
<rect x="122.347" y="43.797" fill="#00B8E5" width="12.167" height="14.908"/>
<rect x="165.366" y="26.78" transform="matrix(0.7071 0.7071 -0.7071 0.7071 73.8562 -112.5772)" fill="#232E6C" width="14.909" height="12.167"/>
<rect x="128.592" y="63.555" transform="matrix(0.7071 0.7071 -0.7071 0.7071 89.0887 -75.8028)" fill="#232E6C" width="14.909" height="12.167"/>
<rect x="165.367" y="63.554" transform="matrix(-0.7071 0.7071 -0.7071 -0.7071 344.2665 -3.3198)" fill="#0079BE" width="14.908" height="12.168"/>
<rect x="128.592" y="26.78" transform="matrix(-0.7071 0.7071 -0.7071 -0.7071 255.4831 -40.098)" fill="#0079BE" width="14.908" height="12.167"/>
<rect x="163.248" y="5.996" fill="#124A92" width="14.908" height="12.167"/>
<rect x="130.71" y="84.338" fill="#124A92" width="14.908" height="12.167"/>
<rect x="186.181" y="28.973" transform="matrix(0.7071 0.7071 -0.7071 0.7071 81.5069 -126.6554)" fill="#232E6C" width="14.908" height="12.167"/>
<rect x="107.777" y="61.361" transform="matrix(0.7071 0.7071 -0.7071 0.7071 81.4442 -61.7276)" fill="#232E6C" width="14.908" height="12.167"/>
<rect x="187.521" y="60.065" fill="#00B8E5" width="12.167" height="14.908"/>
<rect x="109.179" y="27.527" fill="#00B8E5" width="12.167" height="14.908"/>
<rect x="130.785" y="5.965" transform="matrix(0.7071 -0.7071 0.7071 0.7071 31.9694 101.279)" fill="#0079BE" width="14.908" height="12.168"/>
<rect x="163.174" y="84.37" transform="matrix(0.7071 -0.7071 0.7071 0.7071 -13.9866 147.1364)" fill="#0079BE" width="14.908" height="12.166"/>
</svg>
