<svg enable-background="new 94.434 -8.755 120 120" height="120" viewBox="94.434 -8.755 120 120" width="120" xmlns="http://www.w3.org/2000/svg"><path d="m146.979 19.164h14.908v12.167h-14.908z" fill="#124a92"/><path d="m146.979 71.171h14.908v12.167h-14.908z" fill="#124a92"/><path d="m174.354 43.797h12.167v14.908h-12.167z" fill="#00b8e5"/><path d="m122.347 43.797h12.167v14.908h-12.167z" fill="#00b8e5"/><path d="m165.366 26.78h14.909v12.167h-14.909z" fill="#232e6c" transform="matrix(.7071 .7071 -.7071 .7071 73.8562 -112.5772)"/><path d="m128.592 63.555h14.909v12.167h-14.909z" fill="#232e6c" transform="matrix(.7071 .7071 -.7071 .7071 89.0887 -75.8028)"/><path d="m165.367 63.554h14.908v12.168h-14.908z" fill="#0079be" transform="matrix(-.7071 .7071 -.7071 -.7071 344.2665 -3.3198)"/><path d="m128.592 26.78h14.908v12.167h-14.908z" fill="#0079be" transform="matrix(-.7071 .7071 -.7071 -.7071 255.4831 -40.098)"/><path d="m163.248 5.996h14.908v12.167h-14.908z" fill="#124a92"/><path d="m130.71 84.338h14.908v12.167h-14.908z" fill="#124a92"/><path d="m186.181 28.973h14.908v12.167h-14.908z" fill="#232e6c" transform="matrix(.7071 .7071 -.7071 .7071 81.5069 -126.6554)"/><path d="m107.777 61.361h14.908v12.167h-14.908z" fill="#232e6c" transform="matrix(.7071 .7071 -.7071 .7071 81.4442 -61.7276)"/><path d="m187.521 60.065h12.167v14.908h-12.167z" fill="#00b8e5"/><path d="m109.179 27.527h12.167v14.908h-12.167z" fill="#00b8e5"/><g fill="#0079be"><path d="m130.785 5.965h14.908v12.168h-14.908z" transform="matrix(.7071 -.7071 .7071 .7071 31.9694 101.279)"/><path d="m163.174 84.37h14.908v12.166h-14.908z" transform="matrix(.7071 -.7071 .7071 .7071 -13.9866 147.1364)"/></g></svg>