<svg enable-background="new 0 0 35.334 34.666" height="34.666" viewBox="0 0 35.334 34.666" width="35.334" xmlns="http://www.w3.org/2000/svg"><path d="m26.668 4.333v3.909 4.757h4.721c-.019 2.593-2.123 4.691-4.721 4.691v3.976c4.786 0 8.666-3.88 8.666-8.667v-8.666z" fill="#6e993f"/><path d="m30.666 25.999h-3.909-4.757v4.721c-2.593-.019-4.69-2.123-4.69-4.721h-3.976c0 4.786 3.88 8.667 8.666 8.667h8.666z" fill="#ec5929"/><path d="m8.666 30.332v-3.909-4.757h-4.721c.019-2.593 2.123-4.691 4.721-4.691v-3.976c-4.786 0-8.666 3.88-8.666 8.667v8.666z" fill="#a6248d"/><path d="m4.668 8.666h3.909 4.757v-4.721c2.593.019 4.69 2.123 4.69 4.721h3.976c0-4.786-3.88-8.666-8.666-8.666h-8.666z" fill="#00a6d2"/></svg>