<?xml version="1.0" encoding="utf-8"?>
<!-- Generator: Adobe Illustrator 16.0.0, SVG Export Plug-In . SVG Version: 6.00 Build 0)  -->
<!DOCTYPE svg PUBLIC "-//W3C//DTD SVG 1.1//EN" "http://www.w3.org/Graphics/SVG/1.1/DTD/svg11.dtd">
<svg version="1.1" id="Layer_1" xmlns="http://www.w3.org/2000/svg" xmlns:xlink="http://www.w3.org/1999/xlink" x="0px" y="0px"
	 width="35.334px" height="34.666px" viewBox="0 0 35.334 34.666" enable-background="new 0 0 35.334 34.666" xml:space="preserve">
<g>
	<path fill="#6E993F" d="M26.668,4.333v3.909v4.757h4.721c-0.019,2.593-2.123,4.691-4.721,4.691v3.976
		c4.786,0,8.666-3.88,8.666-8.667V4.333H26.668z"/>
	<path fill="#EC5929" d="M30.666,25.999h-3.909H22v4.721c-2.593-0.019-4.69-2.123-4.69-4.721h-3.976c0,4.786,3.88,8.667,8.666,8.667
		h8.666V25.999z"/>
	<path fill="#A6248D" d="M8.666,30.332v-3.909v-4.757H3.945c0.019-2.593,2.123-4.691,4.721-4.691v-3.976
		C3.88,12.999,0,16.879,0,21.666v8.666H8.666z"/>
	<path fill="#00A6D2" d="M4.668,8.666h3.909h4.757V3.945c2.593,0.019,4.69,2.123,4.69,4.721H22C22,3.88,18.12,0,13.334,0H4.668
		V8.666z"/>
</g>
</svg>
