<?xml version="1.0" encoding="utf-8"?>
<!-- Generator: Adobe Illustrator 16.0.0, SVG Export Plug-In . SVG Version: 6.00 Build 0)  -->
<!DOCTYPE svg PUBLIC "-//W3C//DTD SVG 1.1//EN" "http://www.w3.org/Graphics/SVG/1.1/DTD/svg11.dtd">
<svg version="1.1" id="Layer_2" xmlns="http://www.w3.org/2000/svg" xmlns:xlink="http://www.w3.org/1999/xlink" x="0px" y="0px"
	 width="180px" height="180px" viewBox="-89.5 310.5 180 180" enable-background="new -89.5 310.5 180 180" xml:space="preserve">
<polygon opacity="0.5" points="70.972,350.021 70.972,350.021 70.976,350.02 "/>
<g>
	<path fill="#0C8593" d="M-86.191,400.5c0,19.39,6.367,37.291,17.122,51.731C-65.603,359.875-11.296,324.72,0.5,313.809
		C-47.379,313.809-86.191,352.621-86.191,400.5z"/>
	<path fill="#0D8E4D" d="M0.5,313.809c-48.166,56.386-55.104,117.345-54.776,139.619c2.443-53.773,36.782-77.051,54.776-92.362
		c-25.304,30.089-37.676,58.818-36.285,68.88c18.971-29.951,39.97-49.484,107.549-78.813C56.11,328.579,30.032,313.809,0.5,313.809z
		"/>
	<path fill="#81C44B" d="M71.764,351.133c-30.167,14.385-91.456,61.235-105.989,111.488c8.571-14.178,28.292-40.867,81.67-41.548
		c-39.438,4.42-70.798,26.944-83.285,48.112c-0.64,3.129-1.099,6.267-1.335,9.405c11.393,5.508,24.172,8.601,37.676,8.601
		c47.878,0,86.691-38.813,86.691-86.691C87.191,382.154,81.487,365.143,71.764,351.133z"/>
</g>
</svg>
