<svg enable-background="new -86.191 313.809 173.383 173.383" height="173.383" viewBox="-86.191 313.809 173.383 173.383" width="173.383" xmlns="http://www.w3.org/2000/svg"><path d="m70.972 350.021.004-.001z" opacity=".5"/><path d="m-86.191 400.5c0 19.39 6.367 37.291 17.122 51.731 3.466-92.356 57.773-127.511 69.569-138.423-47.879.001-86.691 38.813-86.691 86.692z" fill="#0c8593"/><path d="m.5 313.809c-48.166 56.387-55.104 117.346-54.776 139.619 2.443-53.772 36.782-77.051 54.776-92.361-25.304 30.088-37.676 58.817-36.285 68.88 18.971-29.951 39.97-49.484 107.549-78.813-15.654-22.555-41.732-37.325-71.264-37.325z" fill="#0d8e4d"/><path d="m71.764 351.133c-30.167 14.385-91.456 61.235-105.989 111.488 8.571-14.178 28.292-40.867 81.67-41.548-39.438 4.42-70.798 26.943-83.285 48.111-.64 3.13-1.099 6.268-1.335 9.405 11.393 5.508 24.172 8.602 37.676 8.602 47.878 0 86.691-38.813 86.691-86.691-.001-18.346-5.705-35.357-15.428-49.367z" fill="#81c44b"/></svg>