<?xml version="1.0" encoding="utf-8"?>
<!-- Generator: Adobe Illustrator 16.0.0, SVG Export Plug-In . SVG Version: 6.00 Build 0)  -->
<!DOCTYPE svg PUBLIC "-//W3C//DTD SVG 1.1//EN" "http://www.w3.org/Graphics/SVG/1.1/DTD/svg11.dtd">
<svg version="1.1"
	 id="svg8" xmlns:dc="http://purl.org/dc/elements/1.1/" xmlns:cc="http://creativecommons.org/ns#" xmlns:rdf="http://www.w3.org/1999/02/22-rdf-syntax-ns#" xmlns:svg="http://www.w3.org/2000/svg"
	 xmlns="http://www.w3.org/2000/svg" xmlns:xlink="http://www.w3.org/1999/xlink" x="0px" y="0px" width="140px" height="140px"
	 viewBox="-217.41 149.707 140 140" enable-background="new -217.41 149.707 140 140" xml:space="preserve">
<g>
	<g id="g3965" transform="matrix(0.35277777,0,0,-0.35277777,18.155368,92.512657)">
		<path id="path3967" fill="#FFD100" d="M-343.931-410.975h-269.025l3.258,14.539l268.796,0.006L-343.931-410.975z"/>
	</g>
	<g id="g3985" transform="translate(105.9813,550.5309)">
		<path id="path3987" d="M-232.007-326.529c-0.847-0.912-0.34-2.727,0.093-4.775l1.481-6.959h6.086l1.103-5.18h-6.09l1.079-5.17
			h-5.735l-3.761,17.787c-0.566,2.656-0.778,4.734,0.374,6.973c1.073,2.08,4.735,4.068,9.372,2.813l1.025-4.809
			C-230.125-325.459-231.388-325.869-232.007-326.529"/>
	</g>
	<g id="g3989" transform="translate(57.3994,572.6157)">
		<path id="path3991" d="M-232.007-370.698l-2.737,12.844h-10.067l2.73-12.844h-5.79l-5.854,27.57h5.786l2.021-9.551h10.073
			l-2.027,9.551h5.737l5.86-27.57H-232.007z"/>
	</g>
	<g id="g3993" transform="translate(90.4552,565.4981)">
		<path id="path3995" d="M-232.006-356.463c-2.009,1.678-3.149,3.873-3.889,7.338l-2.788,13.117h5.742l2.314-10.877
			c0.546-2.545,0.964-4.137,1.92-5.115c1.314-1.344,3.22-1.418,5.507-1.23l1.104-5.18
			C-226.129-359.436-229.653-358.43-232.006-356.463"/>
	</g>
	<g id="g3997" transform="translate(135.2685,567.446)">
		<path id="path3999" d="M-232.007-360.359h-17.92l-1.099,5.18h10.396l-13.004,12.24l-1.056,4.982h17.921l1.105-5.176h-10.458
			l13.067-12.299L-232.007-360.359z"/>
	</g>
	<g id="g4001" transform="translate(74.7853,567.8577)">
		<path id="path4003" d="M-232.006-361.182c-1.939,0-4.592,0.6-7.198,2.646c-5.875,4.609-8.793,20.574,3.825,20.574
			c3.271,0,6.909-1.035,9.436-2.941l-2.283-3.854c-1.911,1.467-11.528,4.662-10.516-3.135h15.036
			c0.007-0.016,1.918-6.248-0.838-10.02C-226.894-361.126-231.216-361.182-232.006-361.182 M-228.273-352.634h-9.205
			c0.324-1.238,2.279-4.289,5.909-3.955C-227.664-356.227-228.273-352.634-228.273-352.634"/>
	</g>
</g>
</svg>
