<svg enable-background="new -217.41 149.707 140 140" height="140" viewBox="-217.41 149.707 140 140" width="140" xmlns="http://www.w3.org/2000/svg"><path d="m-343.931-410.975h-269.025l3.258 14.539 268.796.006z" fill="#ffd100" transform="matrix(.35277777 0 0 -.35277777 18.155368 92.512657)"/><path d="m-232.007-326.529c-.847-.912-.34-2.727.093-4.775l1.481-6.959h6.086l1.103-5.18h-6.09l1.079-5.17h-5.735l-3.761 17.787c-.566 2.656-.778 4.734.374 6.973 1.073 2.08 4.735 4.068 9.372 2.813l1.025-4.809c-3.145.39-4.408-.02-5.027-.68" transform="translate(105.9813 550.5309)"/><path d="m-232.007-370.698-2.737 12.844h-10.067l2.73-12.844h-5.79l-5.854 27.57h5.786l2.021-9.551h10.073l-2.027 9.551h5.737l5.86-27.57z" transform="translate(57.3994 572.6157)"/><path d="m-232.006-356.463c-2.009 1.678-3.149 3.873-3.889 7.338l-2.788 13.117h5.742l2.314-10.877c.546-2.545.964-4.137 1.92-5.115 1.314-1.344 3.22-1.418 5.507-1.23l1.104-5.18c-4.033-1.026-7.557-.02-9.91 1.947" transform="translate(90.4552 565.4981)"/><path d="m-232.007-360.359h-17.92l-1.099 5.18h10.396l-13.004 12.24-1.056 4.982h17.921l1.105-5.176h-10.458l13.067-12.299z" transform="translate(135.2685 567.446)"/><path d="m-232.006-361.182c-1.939 0-4.592.6-7.198 2.646-5.875 4.609-8.793 20.574 3.825 20.574 3.271 0 6.909-1.035 9.436-2.941l-2.283-3.854c-1.911 1.467-11.528 4.662-10.516-3.135h15.036c.007-.016 1.918-6.248-.838-10.02-2.35-3.214-6.672-3.27-7.462-3.27m3.733 8.548h-9.205c.324-1.238 2.279-4.289 5.909-3.955 3.905.362 3.296 3.955 3.296 3.955" transform="translate(74.7853 567.8577)"/></svg>