<svg enable-background="new 0 0 221.748 221.748" height="221.748" viewBox="0 0 221.748 221.748" width="221.748" xmlns="http://www.w3.org/2000/svg"><g fill="#ee7125"><path d="m213.076 217.941c2.683 0 4.797-2.209 4.797-5.213 0-2.947-2.114-5.174-4.797-5.174-2.708 0-4.824 2.227-4.82 5.174 0 3.004 2.112 5.213 4.82 5.213zm.319-8.786c1.611 0 2.409.626 2.409 2.046 0 1.283-.768 1.848-1.769 1.979l1.941 3.168h-1.162l-1.803-3.117h-1.188v3.117h-1.03l-.002-7.19z"/><path d="m5.84 181.578c-2.427-2.432-2.749-2.889-5.755-1.32-.027.018-.057.026-.085.043v41.447h41.402c.019-.039.039-.079.059-.118 1.563-2.993 1.107-3.329-1.311-5.749z"/><path d="m213.063 212.307c.879 0 1.662-.065 1.662-1.173 0-.89-.77-1.055-1.492-1.055h-1.408l.001 2.228z"/><path d="m214.21 30.3 7.538 7.527v-37.827h-38.732l8.153 8.161c.331.326 1.515 1.643-.448 3.592-1.113 1.116-2.099.789-3.402.139-6.996-3.618-13.539-3.482-20.205 1.347l-3.801-3.793 9.443-9.446h-172.756v172.756l15.762-15.758c.261-.254 2.544-2.287 4.437-.396.917.922.926 2.097.337 3.207-1.573 3.016-1.114 3.336 1.315 5.765l34.303 34.299c2.423 2.43 2.746 2.887 5.757 1.315 1.11-.59 2.288-.59 3.205.33 1.894 1.9-.132 4.186-.39 4.443l-15.783 15.784h63.078c.112-.256.254-.521.387-.8.486-.913-.584-1.842-1.133-2.396l-19.291-19.288c-.557-.551-1.471-1.615-2.394-1.137-.991.479-1.802 1.064-2.727.146-.955-.955-.146-1.991.591-2.721l9.422-9.424 27.531 27.526-8.09 8.086h105.428v-105.411l-8.825 8.818c-.146.146-1.435 1.293-2.5.221-.515-.512-.519-1.174-.187-1.801.888-1.689.625-1.873-.729-3.232l-23.418-23.413 9.021-9.019 23.408 23.41c1.356 1.361 1.55 1.621 3.229.74v-63.107l-9.47 9.462-3.789-3.792c4.641-5.951 5.08-13.6 1.609-20.596-.525-1.442-1.187-2.886-.011-4.054 2.103-2.092 3.865.07 4.127.337zm-30.286-13.578c2.023-2.015 4.065.661 4.592 1.185l14.133 14.137c.522.522 3.205 2.559 1.186 4.582-1.376 1.378-2.813.709-4.261-.074-3.075-1.894-6.865-3.199-10.329-1.188l-4.059-4.055c2.021-3.462.709-7.255-1.191-10.335-.777-1.432-1.438-2.881-.071-4.252zm-48.033 20.148c.256-.26 2.541-2.288 4.438-.391.913.917.913 2.098.336 3.205-1.577 3.014-1.116 3.338 1.313 5.761l34.308 34.301c2.426 2.425 2.748 2.88 5.757 1.316 1.115-.596 2.286-.582 3.208.324 1.896 1.896-.119 4.182-.382 4.446l-18.497 18.49c-.265.266-2.554 2.284-4.438.39-.928-.917-.938-2.09-.344-3.208 1.57-3.001 1.111-3.331-1.313-5.758l-30.401-30.401 26.494 48.968-1.894 1.892-54.164-26.862c-1.313-.662-2.621-1.318-3.994-1.646-1.561-.396-2.611-.918-3.793.122-.846.724-2.746 2.357-4.315.783-2.026-2.032-.058-3.992.726-4.772l16.584-16.583 27.076 13.1.137-.125-14.088-26.109zm-.632 128.991c-.442-.813-.813-1.627-.036-2.399 1.144-1.137 2.285.374 2.578.668l7.953 7.953c.289.29 1.803 1.437.655 2.574-.767.772-1.579.403-2.392-.039-1.729-1.063-3.859-1.804-5.813-.658l-2.286-2.29c1.145-1.945.409-4.077-.659-5.809zm3.792-5.194c-.628.626-1.174.442-1.91.074-3.943-2.024-7.617-1.949-11.381.768l-2.132-2.131 8.206-8.203 7.477 7.466c.181.184.846.92-.26 2.026zm-27.381-16.712-33.898-33.914c-1.643-1.632-3.869-3.333-8.043-1.374l-3.803-3.793c15.09-12.608 32.754-7.885 45.78 5.142 13.024 13.028 17.754 30.688 5.146 45.782l-3.791-3.795c1.959-4.18.255-6.415-1.391-8.048zm18.614-24.243-22.054-22.062.129-.131 14.457 7.146 11.261 11.257c9.226 7.143 10.847.414 13.659 3.23 2.033 2.027-.772 4.565-1.487 5.287l-7.448 7.438c-.715.724-3.261 3.531-5.285 1.511-2.823-2.822 3.906-4.45-3.232-13.676zm-24.826-76.924c-.276-.762-.625-1.523 0-2.145 1.104-1.106 2.041.035 2.181.174l6.918 6.917-7.957 7.958-2.006-2.006c2.453-3.147 2.698-7.196.864-10.898zm-3.319 1.384c-.729.726-1.49.381-2.25-.035-1.627-1-3.635-1.693-5.468-.619l-2.146-2.149c1.074-1.832.382-3.838-.621-5.464-.414-.761-.762-1.522-.035-2.249 1.072-1.072 2.146.345 2.422.624l7.473 7.472c.277.275 1.694 1.349.625 2.42zm-13.701-22.069 7.021 7.022c.171.174.793.864-.243 1.901-.589.59-1.104.416-1.798.07-3.704-1.9-7.164-1.833-10.689.727l-2.004-2.007zm-18.407 18.404 9.134-9.132 25.877 25.875-9.131 9.132c-.138.138-1.349 1.21-2.354.207-.482-.483-.482-1.106-.173-1.693.829-1.594.591-1.765-.69-3.046l-18.13-18.128c-1.28-1.279-1.455-1.523-3.045-.692-.588.313-1.209.313-1.695-.172-1.004-1.004.071-2.215.207-2.351zm-13.051 13.047 9.791-9.788c.139-.138 1.351-1.21 2.354-.207.482.485.482 1.106.172 1.695-.829 1.591-.587 1.765.692 3.044l18.126 18.127c1.281 1.281 1.453 1.521 3.045.693.588-.312 1.21-.312 1.693.173 1.006 1.003-.068 2.214-.205 2.352l-9.791 9.791c-.137.14-1.349 1.211-2.354.207-.483-.481-.483-1.104-.173-1.695.83-1.592.587-1.764-.689-3.043l-8.27-8.27-3.044 3.047-2.007-2.01 3.045-3.042-7.854-7.854c-1.281-1.28-1.453-1.523-3.047-.691-.588.311-1.21.311-1.693-.174-1.001-1.004.073-2.214.209-2.355zm-13.076 13.078 9.791-9.791c.139-.135 1.349-1.21 2.352-.207.487.486.487 1.109.174 1.696-.83 1.591-.589 1.764.692 3.043l18.127 18.13c1.282 1.281 1.453 1.521 3.046.692.586-.312 1.21-.312 1.696.173 1 1.003-.073 2.214-.209 2.353l-9.789 9.789c-.14.141-1.351 1.213-2.354.209-.48-.484-.484-1.109-.172-1.697.83-1.59.59-1.763-.691-3.043l-18.129-18.127c-1.28-1.283-1.455-1.523-3.045-.693-.59.311-1.211.311-1.694-.174-1.006-1.004.069-2.215.205-2.353zm-2.316 2.32 8.063 8.06c.138.139.896 1.105-.141 2.146-.97.969-2.043.239-2.904-.415-2.146-1.523-4.914-3.324-7.992-2.805l-2.006-2.006zm-6.539 6.538 22.001 22.002c1.282 1.281 1.454 1.523 3.046.691.59-.313 1.211-.313 1.694.174 1.003 1-.069 2.213-.207 2.35l-9.791 9.794c-.138.136-1.349 1.21-2.351.205-.487-.483-.487-1.104-.174-1.696.83-1.591.588-1.763-.692-3.043l-22.001-22.002zm-15.016 15.013 4.982-4.981 2.006 2.006c-.521 3.08 1.278 5.848 2.803 7.994.656.865 1.384 1.937.415 2.903-1.039 1.04-2.007.278-2.146.138zm69.385 90.77-18.49 18.48c-.266.262-2.553 2.283-4.447.395-.912-.922-.914-2.099-.334-3.211 1.576-3.004 1.113-3.332-1.307-5.754l-15.646-15.647-5.754 5.753-3.785-3.796 5.742-5.75-14.869-14.862c-2.412-2.419-2.742-2.875-5.754-1.313-1.104.595-2.291.584-3.197-.332-1.898-1.896.128-4.174.392-4.442l18.486-18.481c.261-.264 2.541-2.285 4.438-.396.92.923.926 2.101.336 3.206-1.571 3.008-1.11 3.333 1.31 5.753l34.303 34.31c2.417 2.428 2.747 2.889 5.759 1.311 1.112-.581 2.282-.576 3.203.337 1.889 1.895-.128 4.182-.386 4.439zm-21.284-27.683c-13.021-13.029-17.752-30.691-5.147-45.783l3.798 3.797c-1.961 4.182-.255 6.401 1.384 8.039l33.908 33.91c1.636 1.639 3.863 3.342 8.043 1.383l3.796 3.801c-15.094 12.602-32.751 7.878-45.782-5.147zm57.929 58.417-2.131-2.136c1.95-2.544-.037-4.752-1.442-6.146l-15.675-15.685c-1.4-1.396-3.608-3.382-6.146-1.435l-2.139-2.135c6.183-6.332 15.751-7.216 25.69 1.848 9.053 8.243 7.955 19.577 1.843 25.689zm13.725-13.725c-.146.144-1.438 1.284-2.504.221-.515-.515-.517-1.179-.187-1.803.887-1.69.629-1.875-.729-3.24l-19.286-19.286c-1.36-1.355-1.55-1.615-3.235-.738-.631.342-1.291.34-1.812-.181-1.068-1.063.073-2.356.223-2.504l9.714-9.714 27.528 27.529zm11.374-11.37-2.141-2.139c2.611-3.348 2.873-7.653.92-11.601-.287-.808-.666-1.612-.004-2.274 1.186-1.18 2.179.033 2.319.185l7.367 7.364zm21.457-21.454-10.417 10.419c-.146.152-1.146 1.001-2.216-.063-.514-.52-.604-1.094-.273-1.722.887-1.688.422-1.673-.938-3.036l-19.287-19.285c-1.359-1.36-1.545-1.619-3.239-.738-.624.337-1.287.328-1.802-.188-1.065-1.063.076-2.354.222-2.502l9.718-9.711 23.413 23.412c1.355 1.354 1.541 1.62 3.234.73.627-.327 1.29-.332 1.807.184 1.069 1.065-.073 2.355-.222 2.5zm-2.514-25.022c-.502-.502-.978-1.019-1.434-1.541.747 1.938.902 4.057.301 6.429-.738 2.727-2.431 5.157-5.931 8.651l-2.133-2.132c1.767-2.586.372-4.2-1.431-6.011l-5.561-5.559c-1.654-1.649-3.502-2.832-5.748-1.174l-2.136-2.133c3.498-3.498 5.926-5.195 8.651-5.927 4.233-1.08 7.66.202 10.695 3.123-3.318-6.2-3.388-13.235 1.842-19.498l2.143 2.144c-1.105 2.354-.151 3.604.767 4.521l19.068 19.063c.921.92 2.174 1.877 4.524.771l2.139 2.134c-8.494 7.112-18.433 4.467-25.756-2.861zm42.971 66.084c3.229 0 5.984 2.638 5.984 6.215 0 3.613-2.761 6.25-5.984 6.25-3.258 0-6.014-2.637-6.014-6.25.001-3.58 2.754-6.215 6.014-6.215zm-26.502-105.813c-.557 3.279 1.357 6.22 2.979 8.502.67.884 1.387 1.973.534 2.965 1.603 1.036 3.136 2.282 4.563 3.715 7.326 7.323 9.98 17.256 2.877 25.767l-2.141-2.14c1.104-2.354.146-3.604-.774-4.526l-19.063-19.063c-.921-.924-2.171-1.878-4.525-.779l-2.131-2.129c5.141-4.295 10.801-5.008 16.092-3.295l-5.846-5.847 5.297-5.298zm23.918-8.908c-1.027 1.027-2.17.262-3.085-.447-2.286-1.61-5.229-3.523-8.502-2.97l-2.14-2.133 5.299-5.306 8.578 8.574c.147.152.958 1.179-.15 2.282zm-1.149-30.458-17.241 17.253c-.266.262-2.558 2.286-4.447.391-.92-.92-.92-2.102-.331-3.205 1.563-3.008 1.114-3.338-1.313-5.762l-34.311-34.305c-2.424-2.415-2.747-2.878-5.758-1.306-1.111.587-2.289.587-3.201-.332-1.899-1.893.131-4.188.392-4.446l17.236-17.242z"/></g></svg>