<?xml version="1.0" encoding="utf-8"?>
<!-- Generator: Adobe Illustrator 16.0.0, SVG Export Plug-In . SVG Version: 6.00 Build 0)  -->
<!DOCTYPE svg PUBLIC "-//W3C//DTD SVG 1.1//EN" "http://www.w3.org/Graphics/SVG/1.1/DTD/svg11.dtd">
<svg version="1.1" id="the_x5F_home_x5F_depot" xmlns="http://www.w3.org/2000/svg" xmlns:xlink="http://www.w3.org/1999/xlink"
	 x="0px" y="0px" width="221.748px" height="221.748px" viewBox="91.126 42.126 221.748 221.748"
	 enable-background="new 91.126 42.126 221.748 221.748" xml:space="preserve">
<path fill="#EE7125" d="M304.202,260.068c2.683,0,4.797-2.209,4.797-5.213c0-2.948-2.114-5.174-4.797-5.174
	c-2.708,0-4.824,2.226-4.82,5.174C299.382,257.859,301.494,260.068,304.202,260.068z M304.52,251.281c1.612,0,2.41,0.626,2.41,2.046
	c0,1.284-0.768,1.848-1.769,1.979l1.942,3.168h-1.162l-1.803-3.117h-1.189v3.117h-1.03l-0.002-7.191L304.52,251.281L304.52,251.281z
	"/>
<path fill="#EE7125" d="M96.966,223.704c-2.427-2.431-2.749-2.888-5.755-1.32c-0.027,0.017-0.057,0.026-0.085,0.043v41.447h41.402
	c0.019-0.039,0.04-0.079,0.059-0.118c1.563-2.994,1.108-3.329-1.311-5.749L96.966,223.704z"/>
<path fill="#EE7125" d="M304.188,254.432c0.879,0,1.662-0.065,1.662-1.172c0-0.89-0.769-1.055-1.492-1.055h-1.408l0.001,2.227
	H304.188z"/>
<path fill="#EE7125" d="M305.336,72.426l7.538,7.527V42.126h-38.733l8.154,8.161c0.331,0.326,1.514,1.643-0.449,3.592
	c-1.113,1.116-2.098,0.789-3.402,0.139c-6.996-3.618-13.539-3.482-20.205,1.347l-3.801-3.793l9.444-9.446H91.126v172.756
	l15.762-15.758c0.261-0.254,2.544-2.287,4.437-0.396c0.917,0.922,0.926,2.096,0.337,3.207c-1.573,3.015-1.114,3.336,1.315,5.764
	l34.303,34.299c2.423,2.43,2.747,2.887,5.757,1.316c1.11-0.59,2.288-0.59,3.205,0.33c1.894,1.9-0.131,4.185-0.39,4.443
	l-15.783,15.784h63.078c0.113-0.256,0.254-0.521,0.387-0.8c0.486-0.913-0.584-1.842-1.133-2.395l-19.291-19.289
	c-0.557-0.55-1.471-1.615-2.393-1.136c-0.991,0.479-1.802,1.065-2.727,0.147c-0.955-0.955-0.146-1.992,0.591-2.721l9.422-9.424
	l27.531,27.526l-8.089,8.086h105.427V158.452l-8.825,8.819c-0.145,0.146-1.434,1.293-2.5,0.22c-0.515-0.511-0.518-1.173-0.186-1.8
	c0.887-1.69,0.625-1.873-0.73-3.233l-23.418-23.413l9.021-9.018l23.408,23.409c1.356,1.362,1.549,1.621,3.229,0.741V91.069
	l-9.47,9.462l-3.788-3.792c4.64-5.951,5.079-13.6,1.608-20.596c-0.524-1.442-1.186-2.886-0.01-4.054
	C303.311,69.997,305.074,72.159,305.336,72.426z M275.05,58.848c2.023-2.015,4.065,0.661,4.591,1.185l14.133,14.137
	c0.523,0.522,3.205,2.559,1.186,4.582c-1.376,1.378-2.813,0.709-4.261-0.074c-3.075-1.894-6.865-3.199-10.329-1.188l-4.059-4.055
	c2.022-3.462,0.709-7.255-1.191-10.335C274.344,61.668,273.682,60.219,275.05,58.848z M227.016,78.996
	c0.256-0.26,2.541-2.288,4.438-0.391c0.913,0.917,0.913,2.098,0.336,3.205c-1.577,3.014-1.116,3.338,1.313,5.761l34.307,34.301
	c2.426,2.425,2.748,2.88,5.757,1.316c1.115-0.595,2.286-0.582,3.208,0.325c1.895,1.895-0.119,4.181-0.382,4.446l-18.497,18.49
	c-0.264,0.266-2.553,2.284-4.439,0.39c-0.927-0.917-0.937-2.09-0.343-3.208c1.57-3.001,1.111-3.331-1.312-5.758l-30.402-30.401
	l26.494,48.969l-1.893,1.891l-54.165-26.862c-1.312-0.662-2.62-1.318-3.993-1.646c-1.561-0.396-2.612-0.918-3.794,0.122
	c-0.846,0.724-2.746,2.358-4.315,0.784c-2.026-2.033-0.057-3.992,0.725-4.773l16.585-16.583l27.075,13.099l0.138-0.125
	l-14.088-26.109L227.016,78.996z M226.385,207.988c-0.443-0.813-0.813-1.627-0.037-2.4c1.144-1.137,2.286,0.374,2.579,0.668
	l7.953,7.953c0.289,0.29,1.802,1.436,0.655,2.574c-0.766,0.773-1.579,0.404-2.391-0.039c-1.729-1.063-3.86-1.803-5.813-0.658
	l-2.286-2.29C228.188,211.85,227.453,209.719,226.385,207.988z M230.177,202.793c-0.628,0.626-1.174,0.443-1.911,0.074
	c-3.943-2.024-7.617-1.949-11.38,0.768l-2.132-2.131l8.206-8.203l7.476,7.465C230.618,200.951,231.283,201.686,230.177,202.793z
	 M202.796,186.081l-33.899-33.914c-1.642-1.632-3.869-3.333-8.043-1.374L157.052,147c15.089-12.608,32.754-7.885,45.78,5.141
	c13.025,13.029,17.754,30.688,5.146,45.783l-3.791-3.795C206.146,189.949,204.443,187.714,202.796,186.081z M221.41,161.838
	l-22.054-22.061l0.13-0.132l14.456,7.146l11.261,11.257c9.226,7.142,10.847,0.414,13.659,3.231c2.033,2.027-0.772,4.565-1.487,5.287
	l-7.448,7.438c-0.715,0.723-3.261,3.531-5.285,1.51C221.82,172.693,228.548,171.064,221.41,161.838z M196.584,84.914
	c-0.277-0.762-0.625-1.523,0-2.145c1.105-1.106,2.041,0.035,2.181,0.174l6.917,6.917l-7.956,7.958l-2.007-2.006
	C198.173,92.665,198.418,88.616,196.584,84.914z M193.265,86.298c-0.729,0.726-1.49,0.381-2.251-0.035
	c-1.626-1-3.634-1.693-5.467-0.619l-2.145-2.149c1.073-1.832,0.381-3.838-0.622-5.464c-0.414-0.761-0.762-1.522-0.035-2.249
	c1.073-1.072,2.146,0.345,2.422,0.624l7.473,7.472C192.917,84.153,194.334,85.227,193.265,86.298z M179.563,64.229l7.022,7.022
	c0.171,0.174,0.793,0.864-0.243,1.901c-0.589,0.59-1.105,0.416-1.798,0.07c-3.704-1.9-7.164-1.833-10.689,0.727l-2.004-2.007
	L179.563,64.229z M161.157,82.633l9.134-9.132l25.877,25.875l-9.131,9.132c-0.138,0.138-1.348,1.21-2.354,0.207
	c-0.483-0.483-0.483-1.106-0.173-1.693c0.829-1.594,0.59-1.765-0.691-3.046L165.69,85.848c-1.28-1.279-1.454-1.523-3.044-0.692
	c-0.589,0.313-1.21,0.313-1.696-0.172C159.947,83.98,161.02,82.769,161.157,82.633z M148.107,95.68l9.79-9.788
	c0.139-0.138,1.351-1.21,2.354-0.207c0.483,0.485,0.483,1.106,0.172,1.695c-0.829,1.591-0.587,1.765,0.692,3.044l18.126,18.127
	c1.282,1.281,1.453,1.521,3.045,0.693c0.588-0.312,1.21-0.312,1.694,0.173c1.005,1.003-0.069,2.214-0.205,2.351l-9.792,9.792
	c-0.137,0.139-1.348,1.21-2.354,0.207c-0.483-0.482-0.483-1.105-0.173-1.695c0.83-1.592,0.587-1.764-0.69-3.044l-8.269-8.269
	l-3.044,3.046l-2.006-2.009l3.044-3.042l-7.854-7.854c-1.28-1.28-1.453-1.523-3.046-0.691c-0.588,0.311-1.21,0.311-1.694-0.174
	C146.896,97.031,147.97,95.821,148.107,95.68z M135.03,108.758l9.792-9.791c0.138-0.135,1.348-1.21,2.351-0.207
	c0.487,0.486,0.487,1.109,0.174,1.696c-0.83,1.591-0.589,1.764,0.692,3.043l18.127,18.13c1.282,1.281,1.453,1.521,3.046,0.692
	c0.586-0.311,1.21-0.311,1.696,0.173c1,1.003-0.073,2.214-0.209,2.353l-9.789,9.789c-0.139,0.141-1.351,1.213-2.354,0.209
	c-0.481-0.485-0.484-1.109-0.172-1.698c0.83-1.59,0.589-1.762-0.691-3.043l-18.13-18.127c-1.28-1.282-1.454-1.523-3.044-0.693
	c-0.59,0.311-1.211,0.311-1.695-0.174C133.82,110.107,134.893,108.896,135.03,108.758z M132.714,111.078l8.062,8.06
	c0.138,0.139,0.897,1.105-0.14,2.145c-0.97,0.969-2.043,0.24-2.905-0.415c-2.146-1.523-4.914-3.324-7.992-2.804l-2.006-2.007
	L132.714,111.078z M126.175,117.616l22.001,22.002c1.282,1.281,1.454,1.523,3.046,0.692c0.589-0.313,1.21-0.313,1.694,0.173
	c1.003,1.001-0.069,2.213-0.207,2.35l-9.791,9.794c-0.138,0.135-1.348,1.21-2.351,0.205c-0.487-0.484-0.487-1.105-0.174-1.696
	c0.83-1.591,0.589-1.763-0.692-3.043L117.7,126.091L126.175,117.616z M111.159,132.629l4.983-4.982l2.005,2.007
	c-0.52,3.079,1.279,5.847,2.803,7.993c0.657,0.865,1.384,1.937,0.415,2.904c-1.039,1.04-2.007,0.278-2.146,0.138L111.159,132.629z
	 M180.544,223.4l-18.491,18.48c-0.265,0.262-2.552,2.283-4.447,0.395c-0.912-0.922-0.914-2.099-0.334-3.211
	c1.576-3.004,1.114-3.332-1.306-5.754l-15.646-15.648l-5.755,5.753l-3.785-3.796l5.743-5.75l-14.869-14.862
	c-2.413-2.419-2.743-2.875-5.754-1.313c-1.104,0.595-2.292,0.584-3.198-0.332c-1.898-1.896,0.128-4.174,0.392-4.442l18.486-18.481
	c0.261-0.264,2.541-2.285,4.439-0.396c0.919,0.923,0.926,2.1,0.336,3.206c-1.572,3.008-1.111,3.333,1.309,5.753l34.303,34.309
	c2.417,2.428,2.747,2.889,5.758,1.311c1.113-0.581,2.283-0.576,3.204,0.337C182.82,220.854,180.802,223.141,180.544,223.4z
	 M159.26,195.716c-13.021-13.03-17.752-30.692-5.147-45.783l3.797,3.797c-1.961,4.181-0.255,6.401,1.384,8.039l33.908,33.91
	c1.636,1.639,3.864,3.342,8.043,1.383l3.796,3.801C189.948,213.465,172.291,208.741,159.26,195.716z M217.189,254.133l-2.131-2.136
	c1.95-2.544-0.037-4.752-1.443-6.146l-15.674-15.685c-1.401-1.396-3.609-3.382-6.146-1.435l-2.139-2.135
	c6.183-6.332,15.751-7.215,25.691,1.848C224.4,236.686,223.301,248.021,217.189,254.133z M230.914,240.408
	c-0.146,0.144-1.438,1.285-2.504,0.221c-0.514-0.515-0.516-1.179-0.186-1.803c0.887-1.69,0.629-1.875-0.729-3.24L208.209,216.3
	c-1.361-1.356-1.55-1.616-3.236-0.739c-0.63,0.342-1.291,0.34-1.811-0.18c-1.068-1.063,0.074-2.357,0.223-2.504l9.713-9.714
	l27.529,27.53L230.914,240.408z M242.288,229.038l-2.14-2.138c2.611-3.348,2.873-7.654,0.92-11.601
	c-0.288-0.808-0.666-1.612-0.004-2.274c1.185-1.18,2.178,0.033,2.319,0.184l7.367,7.364L242.288,229.038z M263.745,207.584
	l-10.417,10.419c-0.146,0.152-1.146,1.001-2.215-0.063c-0.514-0.519-0.604-1.094-0.274-1.721c0.886-1.688,0.422-1.673-0.938-3.037
	l-19.287-19.285c-1.359-1.36-1.545-1.619-3.239-0.738c-0.624,0.337-1.287,0.328-1.802-0.188c-1.065-1.063,0.076-2.354,0.222-2.501
	l9.717-9.711l23.414,23.412c1.355,1.354,1.541,1.62,3.234,0.73c0.627-0.327,1.29-0.332,1.807,0.184
	C265.036,206.15,263.893,207.439,263.745,207.584z M261.232,182.561c-0.502-0.502-0.978-1.018-1.434-1.541
	c0.747,1.939,0.902,4.057,0.301,6.429c-0.738,2.727-2.431,5.157-5.931,8.651l-2.133-2.131c1.767-2.586,0.372-4.201-1.431-6.011
	l-5.56-5.558c-1.655-1.65-3.502-2.832-5.748-1.174l-2.136-2.133c3.498-3.498,5.926-5.195,8.652-5.927
	c4.233-1.08,7.66,0.202,10.695,3.123c-3.318-6.2-3.388-13.235,1.842-19.498l2.142,2.144c-1.105,2.354-0.151,3.603,0.767,4.521
	l19.068,19.063c0.921,0.92,2.174,1.877,4.525,0.771l2.138,2.134C278.493,192.535,268.554,189.889,261.232,182.561z M304.202,248.646
	c3.229,0,5.985,2.637,5.985,6.215c0,3.613-2.761,6.25-5.985,6.25c-3.257,0-6.013-2.637-6.013-6.25
	C298.189,251.281,300.943,248.646,304.202,248.646z M277.7,142.833c-0.556,3.28,1.358,6.22,2.979,8.502
	c0.67,0.884,1.387,1.972,0.534,2.965c1.603,1.036,3.136,2.282,4.563,3.714c7.326,7.324,9.981,17.256,2.877,25.767l-2.141-2.14
	c1.104-2.354,0.146-3.603-0.774-4.526l-19.063-19.063c-0.921-0.924-2.171-1.878-4.525-0.779l-2.131-2.129
	c5.14-4.295,10.8-5.008,16.092-3.295l-5.846-5.847l5.297-5.298L277.7,142.833z M301.618,133.925
	c-1.027,1.027-2.17,0.261-3.085-0.447c-2.286-1.611-5.23-3.524-8.502-2.97l-2.139-2.133l5.299-5.306l8.578,8.575
	C301.915,131.795,302.725,132.822,301.618,133.925z M300.469,103.467l-17.242,17.253c-0.265,0.261-2.557,2.286-4.447,0.391
	c-0.92-0.92-0.92-2.102-0.331-3.206c1.563-3.008,1.114-3.337-1.313-5.762l-34.311-34.304c-2.424-2.415-2.747-2.878-5.758-1.306
	c-1.111,0.587-2.289,0.587-3.201-0.332c-1.899-1.893,0.131-4.188,0.392-4.446l17.236-17.242L300.469,103.467z"/>
</svg>
