<?xml version="1.0" encoding="utf-8"?>
<!-- Generator: Adobe Illustrator 16.0.0, SVG Export Plug-In . SVG Version: 6.00 Build 0)  -->
<!DOCTYPE svg PUBLIC "-//W3C//DTD SVG 1.1//EN" "http://www.w3.org/Graphics/SVG/1.1/DTD/svg11.dtd">
<svg version="1.1" id="the_x5F_home_x5F_depot" xmlns="http://www.w3.org/2000/svg" xmlns:xlink="http://www.w3.org/1999/xlink"
	 x="0px" y="0px" width="221.748px" height="221.748px" viewBox="0 0 221.748 221.748" enable-background="new 0 0 221.748 221.748"
	 xml:space="preserve">
<g>
	<path fill="#EE7125" d="M213.076,217.941c2.683,0,4.797-2.209,4.797-5.213c0-2.947-2.114-5.174-4.797-5.174
		c-2.708,0-4.824,2.227-4.82,5.174C208.256,215.732,210.368,217.941,213.076,217.941z M213.395,209.155
		c1.611,0,2.409,0.626,2.409,2.046c0,1.283-0.768,1.848-1.769,1.979l1.941,3.168h-1.162l-1.803-3.117h-1.188v3.117h-1.03
		l-0.002-7.19L213.395,209.155L213.395,209.155z"/>
	<path fill="#EE7125" d="M5.84,181.578c-2.427-2.432-2.749-2.889-5.755-1.32c-0.027,0.018-0.057,0.026-0.085,0.043v41.447h41.402
		c0.019-0.039,0.039-0.079,0.059-0.118c1.563-2.993,1.107-3.329-1.311-5.749L5.84,181.578z"/>
	<path fill="#EE7125" d="M213.063,212.307c0.879,0,1.662-0.065,1.662-1.173c0-0.89-0.77-1.055-1.492-1.055h-1.408l0.001,2.228
		H213.063z"/>
	<path fill="#EE7125" d="M214.21,30.3l7.538,7.527V0h-38.732l8.153,8.161c0.331,0.326,1.515,1.643-0.448,3.592
		c-1.113,1.116-2.099,0.789-3.402,0.139c-6.996-3.618-13.539-3.482-20.205,1.347l-3.801-3.793L172.756,0H0v172.756l15.762-15.758
		c0.261-0.254,2.544-2.287,4.437-0.396c0.917,0.922,0.926,2.097,0.337,3.207c-1.573,3.016-1.114,3.336,1.315,5.765l34.303,34.299
		c2.423,2.43,2.746,2.887,5.757,1.315c1.11-0.59,2.288-0.59,3.205,0.33c1.894,1.9-0.132,4.186-0.39,4.443l-15.783,15.784h63.078
		c0.112-0.256,0.254-0.521,0.387-0.8c0.486-0.913-0.584-1.842-1.133-2.396l-19.291-19.288c-0.557-0.551-1.471-1.615-2.394-1.137
		c-0.991,0.479-1.802,1.064-2.727,0.146c-0.955-0.955-0.146-1.991,0.591-2.721l9.422-9.424l27.531,27.526l-8.09,8.086h105.428
		V116.326l-8.825,8.818c-0.146,0.146-1.435,1.293-2.5,0.221c-0.515-0.512-0.519-1.174-0.187-1.801
		c0.888-1.689,0.625-1.873-0.729-3.232l-23.418-23.413l9.021-9.019l23.408,23.41c1.356,1.361,1.55,1.621,3.229,0.74V48.943
		l-9.47,9.462l-3.789-3.792c4.641-5.951,5.08-13.6,1.609-20.596c-0.525-1.442-1.187-2.886-0.011-4.054
		C212.186,27.871,213.948,30.033,214.21,30.3z M183.924,16.722c2.023-2.015,4.065,0.661,4.592,1.185l14.133,14.137
		c0.522,0.522,3.205,2.559,1.186,4.582c-1.376,1.378-2.813,0.709-4.261-0.074c-3.075-1.894-6.865-3.199-10.329-1.188l-4.059-4.055
		c2.021-3.462,0.709-7.255-1.191-10.335C183.218,19.542,182.557,18.093,183.924,16.722z M135.891,36.87
		c0.256-0.26,2.541-2.288,4.438-0.391c0.913,0.917,0.913,2.098,0.336,3.205c-1.577,3.014-1.116,3.338,1.313,5.761l34.308,34.301
		c2.426,2.425,2.748,2.88,5.757,1.316c1.115-0.596,2.286-0.582,3.208,0.324c1.896,1.896-0.119,4.182-0.382,4.446l-18.497,18.49
		c-0.265,0.266-2.554,2.284-4.438,0.39c-0.928-0.917-0.938-2.09-0.344-3.208c1.57-3.001,1.111-3.331-1.313-5.758l-30.401-30.401
		l26.494,48.968l-1.894,1.892l-54.164-26.862c-1.313-0.662-2.621-1.318-3.994-1.646c-1.561-0.396-2.611-0.918-3.793,0.122
		c-0.846,0.724-2.746,2.357-4.315,0.783c-2.026-2.032-0.058-3.992,0.726-4.772l16.584-16.583l27.076,13.1l0.137-0.125
		l-14.088-26.109L135.891,36.87z M135.259,165.861c-0.442-0.813-0.813-1.627-0.036-2.399c1.144-1.137,2.285,0.374,2.578,0.668
		l7.953,7.953c0.289,0.29,1.803,1.437,0.655,2.574c-0.767,0.772-1.579,0.403-2.392-0.039c-1.729-1.063-3.859-1.804-5.813-0.658
		l-2.286-2.29C137.063,169.725,136.327,167.593,135.259,165.861z M139.051,160.667c-0.628,0.626-1.174,0.442-1.91,0.074
		c-3.943-2.024-7.617-1.949-11.381,0.768l-2.132-2.131l8.206-8.203l7.477,7.466C139.492,158.825,140.157,159.561,139.051,160.667z
		 M111.67,143.955l-33.898-33.914c-1.643-1.632-3.869-3.333-8.043-1.374l-3.803-3.793c15.09-12.608,32.754-7.885,45.78,5.142
		c13.024,13.028,17.754,30.688,5.146,45.782l-3.791-3.795C115.02,147.823,113.316,145.588,111.67,143.955z M130.284,119.712
		L108.23,97.65l0.129-0.131l14.457,7.146l11.261,11.257c9.226,7.143,10.847,0.414,13.659,3.23c2.033,2.027-0.772,4.565-1.487,5.287
		l-7.448,7.438c-0.715,0.724-3.261,3.531-5.285,1.511C130.693,130.566,137.422,128.938,130.284,119.712z M105.458,42.788
		c-0.276-0.762-0.625-1.523,0-2.145c1.104-1.106,2.041,0.035,2.181,0.174l6.918,6.917l-7.957,7.958l-2.006-2.006
		C107.047,50.539,107.292,46.49,105.458,42.788z M102.139,44.172c-0.729,0.726-1.49,0.381-2.25-0.035
		c-1.627-1-3.635-1.693-5.468-0.619l-2.146-2.149c1.074-1.832,0.382-3.838-0.621-5.464c-0.414-0.761-0.762-1.522-0.035-2.249
		c1.072-1.072,2.146,0.345,2.422,0.624l7.473,7.472C101.791,42.027,103.208,43.101,102.139,44.172z M88.438,22.103l7.021,7.022
		c0.171,0.174,0.793,0.864-0.243,1.901c-0.589,0.59-1.104,0.416-1.798,0.07c-3.704-1.9-7.164-1.833-10.689,0.727l-2.004-2.007
		L88.438,22.103z M70.031,40.507l9.134-9.132l25.877,25.875l-9.131,9.132c-0.138,0.138-1.349,1.21-2.354,0.207
		c-0.482-0.483-0.482-1.106-0.173-1.693c0.829-1.594,0.591-1.765-0.69-3.046L74.564,43.722c-1.28-1.279-1.455-1.523-3.045-0.692
		c-0.588,0.313-1.209,0.313-1.695-0.172C68.82,41.854,69.895,40.643,70.031,40.507z M56.98,53.554l9.791-9.788
		c0.139-0.138,1.351-1.21,2.354-0.207c0.482,0.485,0.482,1.106,0.172,1.695c-0.829,1.591-0.587,1.765,0.692,3.044l18.126,18.127
		c1.281,1.281,1.453,1.521,3.045,0.693c0.588-0.312,1.21-0.312,1.693,0.173c1.006,1.003-0.068,2.214-0.205,2.352l-9.791,9.791
		c-0.137,0.14-1.349,1.211-2.354,0.207c-0.483-0.481-0.483-1.104-0.173-1.695c0.83-1.592,0.587-1.764-0.689-3.043l-8.27-8.27
		l-3.044,3.047l-2.007-2.01l3.045-3.042l-7.854-7.854c-1.281-1.28-1.453-1.523-3.047-0.691c-0.588,0.311-1.21,0.311-1.693-0.174
		C55.77,54.905,56.844,53.695,56.98,53.554z M43.904,66.632l9.791-9.791c0.139-0.135,1.349-1.21,2.352-0.207
		c0.487,0.486,0.487,1.109,0.174,1.696c-0.83,1.591-0.589,1.764,0.692,3.043l18.127,18.13c1.282,1.281,1.453,1.521,3.046,0.692
		c0.586-0.312,1.21-0.312,1.696,0.173c1,1.003-0.073,2.214-0.209,2.353l-9.789,9.789c-0.14,0.141-1.351,1.213-2.354,0.209
		c-0.48-0.484-0.484-1.109-0.172-1.697c0.83-1.59,0.59-1.763-0.691-3.043L48.438,69.852c-1.28-1.283-1.455-1.523-3.045-0.693
		c-0.59,0.311-1.211,0.311-1.694-0.174C42.693,67.981,43.768,66.77,43.904,66.632z M41.588,68.952l8.063,8.06
		c0.138,0.139,0.896,1.105-0.141,2.146c-0.97,0.969-2.043,0.239-2.904-0.415c-2.146-1.523-4.914-3.324-7.992-2.805l-2.006-2.006
		L41.588,68.952z M35.049,75.49L57.05,97.492c1.282,1.281,1.454,1.523,3.046,0.691c0.59-0.313,1.211-0.313,1.694,0.174
		c1.003,1-0.069,2.213-0.207,2.35l-9.791,9.794c-0.138,0.136-1.349,1.21-2.351,0.205c-0.487-0.483-0.487-1.104-0.174-1.696
		c0.83-1.591,0.588-1.763-0.692-3.043L26.574,83.965L35.049,75.49z M20.033,90.503l4.982-4.981l2.006,2.006
		c-0.521,3.08,1.278,5.848,2.803,7.994c0.656,0.865,1.384,1.937,0.415,2.903c-1.039,1.04-2.007,0.278-2.146,0.138L20.033,90.503z
		 M89.418,181.273l-18.49,18.48c-0.266,0.262-2.553,2.283-4.447,0.395c-0.912-0.922-0.914-2.099-0.334-3.211
		c1.576-3.004,1.113-3.332-1.307-5.754l-15.646-15.647l-5.754,5.753l-3.785-3.796l5.742-5.75l-14.869-14.862
		c-2.412-2.419-2.742-2.875-5.754-1.313c-1.104,0.595-2.291,0.584-3.197-0.332c-1.898-1.896,0.128-4.174,0.392-4.442l18.486-18.481
		c0.261-0.264,2.541-2.285,4.438-0.396c0.92,0.923,0.926,2.101,0.336,3.206c-1.571,3.008-1.11,3.333,1.31,5.753l34.303,34.31
		c2.417,2.428,2.747,2.889,5.759,1.311c1.112-0.581,2.282-0.576,3.203,0.337C91.693,178.729,89.676,181.016,89.418,181.273z
		 M68.134,153.59c-13.021-13.029-17.752-30.691-5.147-45.783l3.798,3.797c-1.961,4.182-0.255,6.401,1.384,8.039l33.908,33.91
		c1.636,1.639,3.863,3.342,8.043,1.383l3.796,3.801C98.822,171.339,81.165,166.615,68.134,153.59z M126.063,212.007l-2.131-2.136
		c1.95-2.544-0.037-4.752-1.442-6.146l-15.675-15.685c-1.4-1.396-3.608-3.382-6.146-1.435l-2.139-2.135
		c6.183-6.332,15.751-7.216,25.69,1.848C133.273,194.561,132.175,205.895,126.063,212.007z M139.788,198.282
		c-0.146,0.144-1.438,1.284-2.504,0.221c-0.515-0.515-0.517-1.179-0.187-1.803c0.887-1.69,0.629-1.875-0.729-3.24l-19.286-19.286
		c-1.36-1.355-1.55-1.615-3.235-0.738c-0.631,0.342-1.291,0.34-1.812-0.181c-1.068-1.063,0.073-2.356,0.223-2.504l9.714-9.714
		l27.528,27.529L139.788,198.282z M151.162,186.912l-2.141-2.139c2.611-3.348,2.873-7.653,0.92-11.601
		c-0.287-0.808-0.666-1.612-0.004-2.274c1.186-1.18,2.179,0.033,2.319,0.185l7.367,7.364L151.162,186.912z M172.619,165.458
		l-10.417,10.419c-0.146,0.152-1.146,1.001-2.216-0.063c-0.514-0.52-0.604-1.094-0.273-1.722c0.887-1.688,0.422-1.673-0.938-3.036
		l-19.287-19.285c-1.359-1.36-1.545-1.619-3.239-0.738c-0.624,0.337-1.287,0.328-1.802-0.188c-1.065-1.063,0.076-2.354,0.222-2.502
		l9.718-9.711l23.413,23.412c1.355,1.354,1.541,1.62,3.234,0.73c0.627-0.327,1.29-0.332,1.807,0.184
		C173.91,164.023,172.768,165.313,172.619,165.458z M170.105,140.436c-0.502-0.502-0.978-1.019-1.434-1.541
		c0.747,1.938,0.902,4.057,0.301,6.429c-0.738,2.727-2.431,5.157-5.931,8.651l-2.133-2.132c1.767-2.586,0.372-4.2-1.431-6.011
		l-5.561-5.559c-1.654-1.649-3.502-2.832-5.748-1.174l-2.136-2.133c3.498-3.498,5.926-5.195,8.651-5.927
		c4.233-1.08,7.66,0.202,10.695,3.123c-3.318-6.2-3.388-13.235,1.842-19.498l2.143,2.144c-1.105,2.354-0.151,3.604,0.767,4.521
		l19.068,19.063c0.921,0.92,2.174,1.877,4.524,0.771l2.139,2.134C187.367,150.409,177.428,147.764,170.105,140.436z M213.076,206.52
		c3.229,0,5.984,2.638,5.984,6.215c0,3.613-2.761,6.25-5.984,6.25c-3.258,0-6.014-2.637-6.014-6.25
		C207.063,209.155,209.816,206.52,213.076,206.52z M186.574,100.707c-0.557,3.279,1.357,6.22,2.979,8.502
		c0.67,0.884,1.387,1.973,0.534,2.965c1.603,1.036,3.136,2.282,4.563,3.715c7.326,7.323,9.98,17.256,2.877,25.767l-2.141-2.14
		c1.104-2.354,0.146-3.604-0.774-4.526l-19.063-19.063c-0.921-0.924-2.171-1.878-4.525-0.779l-2.131-2.129
		c5.141-4.295,10.801-5.008,16.092-3.295l-5.846-5.847l5.297-5.298L186.574,100.707z M210.492,91.799
		c-1.027,1.027-2.17,0.262-3.085-0.447c-2.286-1.61-5.229-3.523-8.502-2.97l-2.14-2.133l5.299-5.306l8.578,8.574
		C210.789,89.669,211.6,90.696,210.492,91.799z M209.343,61.341l-17.241,17.253c-0.266,0.262-2.558,2.286-4.447,0.391
		c-0.92-0.92-0.92-2.102-0.331-3.205c1.563-3.008,1.114-3.338-1.313-5.762l-34.311-34.305c-2.424-2.415-2.747-2.878-5.758-1.306
		c-1.111,0.587-2.289,0.587-3.201-0.332c-1.899-1.893,0.131-4.188,0.392-4.446l17.236-17.242L209.343,61.341z"/>
</g>
</svg>
