<?xml version="1.0" encoding="utf-8"?>
<!-- Generator: Adobe Illustrator 16.0.0, SVG Export Plug-In . SVG Version: 6.00 Build 0)  -->
<!DOCTYPE svg PUBLIC "-//W3C//DTD SVG 1.1//EN" "http://www.w3.org/Graphics/SVG/1.1/DTD/svg11.dtd">
<svg version="1.1" id="Layer_1" xmlns="http://www.w3.org/2000/svg" xmlns:xlink="http://www.w3.org/1999/xlink" x="0px" y="0px"
	 width="200px" height="200px" viewBox="0 0 200 200" enable-background="new 0 0 200 200" xml:space="preserve">
<g id="Layer_2">
	<rect x="0" fill="#EFEFEF" width="200" height="200"/>
</g>
<g id="Layer_1_1_" xmlns:svg="http://www.w3.org/2000/svg">
	<title>Layer 1</title>
	<path id="svg_6" fill="#DA251E" d="M134.449,48.9c-3.398,15.3-4.8,22.4-7.601,33.4c-2.699,10.6-4.799,20.5-8.399,25.3
		c-3.601,4.899-8.5,5.899-11.8,6.301c-1.7,0.199-3,0.3-6.7,0.3c-3.699,0-5-0.101-6.699-0.3c-3.301-0.4-8.199-1.4-11.801-6.301
		c-3.6-4.8-5.699-14.701-8.3-25.3c-2.8-11.1-4.2-18.1-7.6-33.4c0,0-3.4,0.1-4.9,0.2c-2.1,0.1-3.7,0.3-5.4,0.5c0,0,2,31.5,2.9,44.9
		c0.9,14,2.6,37.699,4.1,55.6c0,0,2.9,0.5,7.7,0.701c5,0.299,7.301,0.299,7.301,0.299c2.101-7.899,4.601-18.799,7.5-23.5
		c2.399-3.799,6-4.199,8.101-4.5c3.2-0.398,6-0.5,7.2-0.5l0,0l0,0c1.299,0,4,0,7.199,0.5c2.1,0.301,5.699,0.701,8.1,4.5
		c2.9,4.701,5.5,15.601,7.5,23.5c0,0,2.201,0,7.201-0.299c4.799-0.301,7.699-0.701,7.699-0.701c1.5-17.899,3.199-41.5,4.1-55.6
		c0.9-13.3,2.9-44.9,2.9-44.9c-1.699-0.2-3.4-0.4-5.4-0.5C137.85,49,134.449,48.9,134.449,48.9"/>
	<path id="svg_7" fill="#DA251E" d="M174.017,68.1c-2-20-15.399-24.2-27.101-26.2c-5.899-1-16.399-1.8-23.101-2.1
		c-5.899-0.4-19.7-0.6-23.899-0.6c-4.2,0-18,0.2-23.9,0.6c-6.7,0.3-17.2,1.1-23.1,2.1c-11.7,2-25.1,6.2-27.1,26.2
		c-0.6,5.5-0.7,12.6-0.6,20.2c0.2,12.7,1.3,21.2,1.9,27.2c0.4,4.1,2.1,16.3,4.3,22.602c3,8.698,5.7,11.198,8.9,13.799
		c5.8,4.701,15.4,6.201,17.4,6.601c10.8,1.899,32.6,2.3,42.3,2.3c9.6,0,31.5-0.3,42.3-2.3c2-0.399,11.601-1.8,17.399-6.601
		c3.201-2.601,5.9-5.101,8.9-13.799c2.199-6.302,3.899-18.602,4.301-22.602c0.6-5.9,1.699-14.5,1.898-27.2
		C174.717,80.6,174.517,73.5,174.017,68.1 M166.617,101.7c-1.199,16-2.601,25.6-4.601,32.5c-1.801,6.1-4,10.1-7.2,13
		c-5.398,4.899-12.8,5.899-17.199,6.6c-9.4,1.4-25.301,1.9-37.701,1.9c-12.5,0-28.299-0.5-37.699-1.9
		c-4.4-0.698-11.8-1.698-17.2-6.6c-3.2-2.9-5.4-7-7.2-13c-2-6.9-3.5-16.5-4.6-32.5c-0.7-9.6-0.6-25.2,0.5-33.6
		c1.5-12.6,7.7-18.9,21-21.2c6.2-1.1,14.6-1.9,22.5-2.3c6.4-0.4,16.8-0.6,22.699-0.6c5.8-0.1,16.3,0.2,22.601,0.6
		c7.899,0.4,16.3,1.2,22.5,2.3c13.3,2.4,19.5,8.7,21.101,21.2C167.217,76.4,167.316,92,166.617,101.7"/>
</g>
</svg>
