<svg enable-background="new 0 0 200 200" height="200" viewBox="0 0 200 200" width="200" xmlns="http://www.w3.org/2000/svg"><path d="m0 0h200v200h-200z" fill="#efefef"/><g fill="#da251e"><path d="m134.449 48.9c-3.398 15.3-4.8 22.4-7.601 33.4-2.699 10.6-4.799 20.5-8.399 25.3-3.601 4.899-8.5 5.899-11.8 6.301-1.7.199-3 .3-6.7.3-3.699 0-5-.101-6.699-.3-3.301-.4-8.199-1.4-11.801-6.301-3.6-4.8-5.699-14.701-8.3-25.3-2.8-11.1-4.2-18.1-7.6-33.4 0 0-3.4.1-4.9.2-2.1.1-3.7.3-5.4.5 0 0 2 31.5 2.9 44.9.9 14 2.6 37.699 4.1 55.6 0 0 2.9.5 7.7.701 5 .299 7.301.299 7.301.299 2.101-7.899 4.601-18.799 7.5-23.5 2.399-3.799 6-4.199 8.101-4.5 3.2-.398 6-.5 7.2-.5 1.299 0 4 0 7.199.5 2.1.301 5.699.701 8.1 4.5 2.9 4.701 5.5 15.601 7.5 23.5 0 0 2.201 0 7.201-.299 4.799-.301 7.699-.701 7.699-.701 1.5-17.899 3.199-41.5 4.1-55.6.9-13.3 2.9-44.9 2.9-44.9-1.699-.2-3.4-.4-5.4-.5-1.5-.1-4.901-.2-4.901-.2"/><path d="m174.017 68.1c-2-20-15.399-24.2-27.101-26.2-5.899-1-16.399-1.8-23.101-2.1-5.899-.4-19.7-.6-23.899-.6-4.2 0-18 .2-23.9.6-6.7.3-17.2 1.1-23.1 2.1-11.7 2-25.1 6.2-27.1 26.2-.6 5.5-.7 12.6-.6 20.2.2 12.7 1.3 21.2 1.9 27.2.4 4.1 2.1 16.3 4.3 22.602 3 8.698 5.7 11.198 8.9 13.799 5.8 4.701 15.4 6.201 17.4 6.601 10.8 1.899 32.6 2.3 42.3 2.3 9.6 0 31.5-.3 42.3-2.3 2-.399 11.601-1.8 17.399-6.601 3.201-2.601 5.9-5.101 8.9-13.799 2.199-6.302 3.899-18.602 4.301-22.602.6-5.9 1.699-14.5 1.898-27.2-.097-7.7-.297-14.8-.797-20.2m-7.4 33.6c-1.199 16-2.601 25.6-4.601 32.5-1.801 6.1-4 10.1-7.2 13-5.398 4.899-12.8 5.899-17.199 6.6-9.4 1.4-25.301 1.9-37.701 1.9-12.5 0-28.299-.5-37.699-1.9-4.4-.698-11.8-1.698-17.2-6.6-3.2-2.9-5.4-7-7.2-13-2-6.9-3.5-16.5-4.6-32.5-.7-9.6-.6-25.2.5-33.6 1.5-12.6 7.7-18.9 21-21.2 6.2-1.1 14.6-1.9 22.5-2.3 6.4-.4 16.8-.6 22.699-.6 5.8-.1 16.3.2 22.601.6 7.899.4 16.3 1.2 22.5 2.3 13.3 2.4 19.5 8.7 21.101 21.2 1.099 8.3 1.198 23.9.499 33.6"/></g></svg>