<?xml version="1.0" encoding="utf-8"?>
<!-- Generator: Adobe Illustrator 16.0.0, SVG Export Plug-In . SVG Version: 6.00 Build 0)  -->
<!DOCTYPE svg PUBLIC "-//W3C//DTD SVG 1.1//EN" "http://www.w3.org/Graphics/SVG/1.1/DTD/svg11.dtd">
<svg version="1.1"
	 id="svg2648" xmlns:dc="http://purl.org/dc/elements/1.1/" xmlns:cc="http://creativecommons.org/ns#" xmlns:rdf="http://www.w3.org/1999/02/22-rdf-syntax-ns#" xmlns:svg="http://www.w3.org/2000/svg" xmlns:sodipodi="http://sodipodi.sourceforge.net/DTD/sodipodi-0.dtd" xmlns:inkscape="http://www.inkscape.org/namespaces/inkscape" inkscape:output_extension="org.inkscape.output.svg.inkscape" sodipodi:docname="InNOut.svg" inkscape:version="0.46" sodipodi:version="0.32"
	 xmlns="http://www.w3.org/2000/svg" xmlns:xlink="http://www.w3.org/1999/xlink" x="0px" y="0px" width="150px" height="150px"
	 viewBox="0 -34 150 150" enable-background="new 0 -34 150 150" xml:space="preserve">
<path id="path2663" sodipodi:nodetypes="ccsscscccccccsss" fill="#FFEF00" stroke="#DB001D" d="M41.334,38.716l-19-24.753
	c0,0-0.896-1.172-0.896-2.896c0-1.723,1.792-4.549,5.377-4.549c0.931,0,4.618,0.896,4.618,0.896l87.201,16.958v-5.867h0.178
	l8.188,9.59l-9.176,7.397l-0.464-0.141l-0.042-4.818l-63.798-7.512c0,0-4.119-0.854-4.119,0.926s7.642,14.77,7.642,14.77H41.334z"/>
<path id="path3437" sodipodi:nodetypes="ccccc" fill="#FFEF00" stroke="#DB001D" d="M61.592,64.491l6.928,9.202h9.168l-5.342-9.202
	H61.592z"/>
<path id="path3439" fill="#C6001D" d="M7.979,61.957V41.555h5.375v20.438L7.979,61.957z"/>
<path id="path3441" sodipodi:nodetypes="ccccccccccc" fill="#C6001D" d="M16.993,62.002V41.563h5.966l9.369,10.916V41.563h5.171
	v20.439h-5.171l-9.369-10.54v10.54H16.993z"/>
<path id="path3445" sodipodi:nodetypes="ccccccccccc" fill="#C6001D" d="M50.026,62.002V41.563h5.966l9.369,10.916V41.563h5.17
	v20.439h-5.17l-9.369-10.54v10.54H50.026z"/>
<path id="path3447" fill="#C6001D" d="M40.948,53.982v-5.975h6.104v5.985L40.948,53.982z"/>
<path id="path3451" fill="#C6001D" d="M74.58,53.982v-5.975h6.104v5.985L74.58,53.982z"/>
<path id="path3461" fill="#C6001D" d="M94.595,62.577c-0.06-0.007-0.257-0.028-0.438-0.047c-1.812-0.191-3.683-0.907-5.172-1.979
	c-0.89-0.64-1.901-1.645-2.521-2.503c-1.089-1.51-1.764-3.227-2.016-5.125c-0.068-0.52-0.078-2.02-0.016-2.531
	c0.169-1.387,0.528-2.577,1.146-3.796c1.291-2.548,3.577-4.524,6.28-5.426c0.761-0.254,1.399-0.4,2.266-0.519
	c0.401-0.055,2.099-0.055,2.5,0c1.407,0.192,2.54,0.53,3.657,1.092c3.029,1.52,5.206,4.347,5.872,7.627
	c0.177,0.872,0.202,1.15,0.202,2.225c0,1.051-0.024,1.338-0.187,2.156c-0.762,3.838-3.572,7.031-7.279,8.268
	c-0.766,0.256-1.281,0.375-2.161,0.5C96.41,62.564,94.859,62.607,94.595,62.577L94.595,62.577z M96.22,56.674
	c2.092-0.332,3.79-1.879,4.314-3.93c0.118-0.463,0.159-0.803,0.159-1.32c0-1.043-0.256-1.949-0.795-2.813
	c-0.822-1.322-2.188-2.218-3.741-2.458c-0.337-0.052-1.22-0.052-1.547,0.001c-0.735,0.117-1.438,0.372-2.015,0.732
	c-1.585,0.989-2.532,2.689-2.532,4.543c0,2.783,2.148,5.083,4.953,5.303C95.27,56.752,95.933,56.72,96.22,56.674L96.22,56.674z"/>
<path id="path3465" sodipodi:nodetypes="ccccccccc" fill="#C6001D" d="M134.549,62.5h5.982V46.484H145v-4.953h-15v4.953h4.484
	L134.549,62.5z"/>
<text transform="matrix(1 0 0 1 53.9063 74.5625)" fill="#C6001D" font-family="'Arial-BoldMT'" font-size="10">®</text>
<path id="path3487" fill="#C6001D" d="M85.569,69.412v-4.53l2.271,0.001c2.326,0,2.5,0.005,2.854,0.089
	c1.063,0.251,1.72,1.341,1.537,2.55c-0.108,0.721-0.489,1.258-1.089,1.535c-0.063,0.029-0.115,0.061-0.115,0.068
	s0.057,0.031,0.127,0.053c0.749,0.234,1.232,0.773,1.4,1.563c0.064,0.303,0.07,0.902,0.013,1.195
	c-0.154,0.777-0.597,1.416-1.169,1.687c-0.215,0.102-0.428,0.154-0.957,0.237L90,73.93l-2.215,0.007l-2.216,0.007V69.412z
	 M89.593,71.971c0.289-0.075,0.466-0.213,0.575-0.445c0.218-0.467,0.068-1.051-0.319-1.24c-0.218-0.106-0.359-0.121-1.169-0.121
	l-0.746-0.001v0.931v0.93l0.768-0.01C89.275,72.006,89.501,71.995,89.593,71.971L89.593,71.971z M89.449,68.389
	c0.23-0.076,0.365-0.205,0.455-0.434c0.065-0.166,0.071-0.574,0.012-0.746c-0.087-0.248-0.258-0.397-0.525-0.459
	c-0.117-0.026-0.293-0.033-0.804-0.033h-0.653v0.862v0.863l0.702-0.008C89.22,68.428,89.355,68.42,89.449,68.389L89.449,68.389z"/>
<path id="path3491" fill="#C6001D" d="M98.79,73.931c-1.42-0.103-2.021-0.328-2.659-0.994c-0.492-0.515-0.714-0.95-0.887-1.752
	c-0.123-0.569-0.122-0.534-0.122-3.606v-2.839h1.303h1.304l0.006,2.967l0.007,2.966l0.051,0.166
	c0.157,0.509,0.477,0.832,0.956,0.965c0.197,0.055,0.682,0.055,0.882,0c0.488-0.132,0.798-0.438,0.954-0.946l0.051-0.162
	l0.006-2.978l0.006-2.978h1.304h1.304v2.874c0,1.877-0.008,2.947-0.023,3.088c-0.121,1.104-0.603,2.004-1.395,2.607
	c-0.393,0.299-0.946,0.502-1.609,0.589C99.893,73.941,99.169,73.958,98.79,73.931L98.79,73.931z"/>
<path id="path3493" fill="#C6001D" d="M106.203,69.412v-4.531l2.436,0.009c2.154,0.008,2.467,0.013,2.691,0.046
	c0.79,0.117,1.192,0.316,1.553,0.766c0.256,0.32,0.416,0.693,0.491,1.146c0.059,0.35,0.037,0.99-0.044,1.307
	c-0.117,0.461-0.412,0.954-0.734,1.23c-0.266,0.228-0.6,0.406-0.93,0.497c-0.1,0.028-0.182,0.058-0.182,0.067
	s0.013,0.018,0.028,0.018s0.148,0.059,0.294,0.131c0.229,0.112,0.285,0.151,0.408,0.281c0.145,0.154,0.389,0.484,0.535,0.725
	c0.045,0.074,0.359,0.742,0.698,1.486l0.616,1.354l-1.393-0.005l-1.393-0.006l-0.711-1.491c-0.393-0.82-0.756-1.564-0.811-1.654
	c-0.053-0.089-0.139-0.205-0.189-0.258c-0.174-0.183-0.464-0.286-0.758-0.271l-0.144,0.007l-0.006,1.839l-0.005,1.84h-1.227h-1.227
	V69.412z M110.25,68.471c0.293-0.078,0.404-0.143,0.518-0.297c0.311-0.422,0.198-1.127-0.211-1.334
	c-0.231-0.117-0.31-0.127-1.133-0.139l-0.768-0.01v0.932v0.933l0.668-0.009C109.988,68.538,109.994,68.537,110.25,68.471
	L110.25,68.471z"/>
<path id="path3495" fill="#C6001D" d="M120.062,73.932c-0.729-0.061-1.317-0.209-1.814-0.459c-1.183-0.595-1.95-1.838-2.141-3.465
	c-0.044-0.376-0.044-1.104,0.001-1.49c0.186-1.598,0.92-2.771,2.153-3.44c0.612-0.331,1.437-0.493,2.519-0.492
	c0.912,0.001,1.666,0.103,2.135,0.288c0.682,0.27,1.232,0.798,1.564,1.503c0.096,0.201,0.293,0.745,0.276,0.758
	c-0.005,0.003-0.561,0.108-1.235,0.233c-0.674,0.125-1.249,0.232-1.277,0.238c-0.04,0.01-0.054,0.001-0.064-0.04
	c-0.008-0.028-0.053-0.132-0.102-0.229c-0.066-0.135-0.129-0.219-0.267-0.354c-0.2-0.199-0.364-0.292-0.646-0.367
	c-0.249-0.067-0.739-0.067-0.991,0c-0.572,0.154-0.987,0.537-1.213,1.121c-0.316,0.82-0.299,2.363,0.037,3.158
	c0.275,0.654,0.828,1.029,1.596,1.082c0.561,0.039,1.104-0.106,1.719-0.457l0.237-0.137v-0.438v-0.438h-0.896h-0.895v-0.938v-0.939
	h2.066h2.066v1.932v1.931l-0.349,0.231c-1.36,0.902-2.247,1.191-3.751,1.219C120.523,73.947,120.195,73.942,120.062,73.932
	L120.062,73.932z"/>
<path id="path3497" fill="#C6001D" d="M128.039,69.414v-4.529h2.928h2.928v0.961v0.961h-1.834h-1.834v0.729v0.73h1.701h1.702v0.916
	V70.1h-1.702h-1.701v0.905v0.906h1.89h1.89v1.017v1.016h-2.983h-2.983V69.414z"/>
<path id="path3499" fill="#C6001D" d="M137.051,69.412v-4.531l2.436,0.009c2.154,0.008,2.467,0.013,2.691,0.046
	c0.79,0.117,1.192,0.316,1.553,0.766c0.256,0.32,0.416,0.693,0.491,1.146c0.059,0.35,0.037,0.99-0.044,1.307
	c-0.117,0.461-0.412,0.954-0.734,1.23c-0.266,0.228-0.6,0.406-0.93,0.497c-0.1,0.028-0.182,0.058-0.182,0.067
	s0.013,0.018,0.028,0.018s0.147,0.059,0.294,0.131c0.229,0.112,0.285,0.151,0.408,0.281c0.145,0.154,0.389,0.484,0.535,0.725
	c0.045,0.074,0.359,0.742,0.697,1.486l0.617,1.354l-1.393-0.005l-1.393-0.006l-0.712-1.491c-0.392-0.82-0.755-1.564-0.81-1.654
	c-0.053-0.089-0.139-0.205-0.189-0.258c-0.174-0.183-0.464-0.286-0.758-0.271l-0.144,0.007l-0.006,1.839l-0.006,1.84h-1.226h-1.227
	V69.412z M141.097,68.471c0.293-0.078,0.405-0.143,0.519-0.297c0.311-0.422,0.198-1.127-0.211-1.334
	c-0.231-0.117-0.31-0.127-1.133-0.139l-0.768-0.01v0.932v0.933l0.668-0.009C140.836,68.538,140.842,68.537,141.097,68.471
	L141.097,68.471z"/>
<path id="path3501" fill="#C6001D" d="M117.385,61.893c-3.191-0.231-4.543-0.736-5.979-2.234c-1.107-1.156-1.604-2.137-1.994-3.939
	c-0.276-1.28-0.273-1.201-0.273-8.109v-6.381h2.93h2.93l0.015,6.669l0.015,6.67l0.114,0.372c0.353,1.145,1.072,1.871,2.148,2.168
	c0.444,0.123,1.534,0.124,1.983,0.002c1.098-0.297,1.794-0.986,2.146-2.128l0.113-0.364l0.014-6.695l0.014-6.694h2.93h2.931v6.46
	c0,4.222-0.019,6.628-0.053,6.942c-0.271,2.481-1.354,4.507-3.134,5.862c-0.884,0.673-2.129,1.129-3.619,1.325
	C119.865,61.918,118.237,61.955,117.385,61.893L117.385,61.893z"/>
</svg>
