<svg enable-background="new 0 -34 150 150" height="150" viewBox="0 -34 150 150" width="150" xmlns="http://www.w3.org/2000/svg"><path d="m41.334 38.716-19-24.753s-.896-1.172-.896-2.896c0-1.723 1.792-4.549 5.377-4.549.931 0 4.618.896 4.618.896l87.201 16.958v-5.867h.178l8.188 9.59-9.176 7.397-.464-.141-.042-4.818-63.798-7.512s-4.119-.854-4.119.926 7.642 14.77 7.642 14.77h-15.709z" fill="#ffef00" stroke="#db001d"/><path d="m61.592 64.491 6.928 9.202h9.168l-5.342-9.202z" fill="#ffef00" stroke="#db001d"/><g fill="#c6001d"><path d="m7.979 61.957v-20.402h5.375v20.438z"/><path d="m16.993 62.002v-20.439h5.966l9.369 10.916v-10.916h5.171v20.439h-5.171l-9.369-10.54v10.54z"/><path d="m50.026 62.002v-20.439h5.966l9.369 10.916v-10.916h5.17v20.439h-5.17l-9.369-10.54v10.54z"/><path d="m40.948 53.982v-5.975h6.104v5.985z"/><path d="m74.58 53.982v-5.975h6.104v5.985z"/><path d="m94.595 62.577c-.06-.007-.257-.028-.438-.047-1.812-.191-3.683-.907-5.172-1.979-.89-.64-1.901-1.645-2.521-2.503-1.089-1.51-1.764-3.227-2.016-5.125-.068-.52-.078-2.02-.016-2.531.169-1.387.528-2.577 1.146-3.796 1.291-2.548 3.577-4.524 6.28-5.426.761-.254 1.399-.4 2.266-.519.401-.055 2.099-.055 2.5 0 1.407.192 2.54.53 3.657 1.092 3.029 1.52 5.206 4.347 5.872 7.627.177.872.202 1.15.202 2.225 0 1.051-.024 1.338-.187 2.156-.762 3.838-3.572 7.031-7.279 8.268-.766.256-1.281.375-2.161.5-.318.045-1.869.088-2.133.058zm1.625-5.903c2.092-.332 3.79-1.879 4.314-3.93.118-.463.159-.803.159-1.32 0-1.043-.256-1.949-.795-2.813-.822-1.322-2.188-2.218-3.741-2.458-.337-.052-1.22-.052-1.547.001-.735.117-1.438.372-2.015.732-1.585.989-2.532 2.689-2.532 4.543 0 2.783 2.148 5.083 4.953 5.303.254.02.917-.012 1.204-.058z"/><path d="m134.549 62.5h5.982v-16.016h4.469v-4.953h-15v4.953h4.484z"/><text font-family="'Arial-BoldMT'" font-size="10" transform="translate(53.9063 74.5625)">®</text><path d="m85.569 69.412v-4.53l2.271.001c2.326 0 2.5.005 2.854.089 1.063.251 1.72 1.341 1.537 2.55-.108.721-.489 1.258-1.089 1.535-.063.029-.115.061-.115.068s.057.031.127.053c.749.234 1.232.773 1.4 1.563.064.303.07.902.013 1.195-.154.777-.597 1.416-1.169 1.687-.215.102-.428.154-.957.237l-.441.07-2.215.007-2.216.007zm4.024 2.559c.289-.075.466-.213.575-.445.218-.467.068-1.051-.319-1.24-.218-.106-.359-.121-1.169-.121l-.746-.001v.931.93l.768-.01c.573-.009.799-.02.891-.044zm-.144-3.582c.23-.076.365-.205.455-.434.065-.166.071-.574.012-.746-.087-.248-.258-.397-.525-.459-.117-.026-.293-.033-.804-.033h-.653v.862.863l.702-.008c.584-.006.719-.014.813-.045z"/><path d="m98.79 73.931c-1.42-.103-2.021-.328-2.659-.994-.492-.515-.714-.95-.887-1.752-.123-.569-.122-.534-.122-3.606v-2.839h1.303 1.304l.006 2.967.007 2.966.051.166c.157.509.477.832.956.965.197.055.682.055.882 0 .488-.132.798-.438.954-.946l.051-.162.006-2.978.006-2.978h1.304 1.304v2.874c0 1.877-.008 2.947-.023 3.088-.121 1.104-.603 2.004-1.395 2.607-.393.299-.946.502-1.609.589-.336.043-1.06.06-1.439.033z"/><path d="m106.203 69.412v-4.531l2.436.009c2.154.008 2.467.013 2.691.046.79.117 1.192.316 1.553.766.256.32.416.693.491 1.146.059.35.037.99-.044 1.307-.117.461-.412.954-.734 1.23-.266.228-.6.406-.93.497-.1.028-.182.058-.182.067s.013.018.028.018.148.059.294.131c.229.112.285.151.408.281.145.154.389.484.535.725.045.074.359.742.698 1.486l.616 1.354-1.393-.005-1.393-.006-.711-1.491c-.393-.82-.756-1.564-.811-1.654-.053-.089-.139-.205-.189-.258-.174-.183-.464-.286-.758-.271l-.144.007-.006 1.839-.005 1.84h-1.227-1.227v-4.533zm4.047-.941c.293-.078.404-.143.518-.297.311-.422.198-1.127-.211-1.334-.231-.117-.31-.127-1.133-.139l-.768-.01v.932.933l.668-.009c.664-.009.67-.01.926-.076z"/><path d="m120.062 73.932c-.729-.061-1.317-.209-1.814-.459-1.183-.595-1.95-1.838-2.141-3.465-.044-.376-.044-1.104.001-1.49.186-1.598.92-2.771 2.153-3.44.612-.331 1.437-.493 2.519-.492.912.001 1.666.103 2.135.288.682.27 1.232.798 1.564 1.503.096.201.293.745.276.758-.005.003-.561.108-1.235.233s-1.249.232-1.277.238c-.04.01-.054.001-.064-.04-.008-.028-.053-.132-.102-.229-.066-.135-.129-.219-.267-.354-.2-.199-.364-.292-.646-.367-.249-.067-.739-.067-.991 0-.572.154-.987.537-1.213 1.121-.316.82-.299 2.363.037 3.158.275.654.828 1.029 1.596 1.082.561.039 1.104-.106 1.719-.457l.237-.137v-.438-.438h-.896-.895v-.938-.939h2.066 2.066v1.932 1.931l-.349.231c-1.36.902-2.247 1.191-3.751 1.219-.267.004-.595-.001-.728-.011z"/><path d="m128.039 69.414v-4.529h2.928 2.928v.961.961h-1.834-1.834v.729.73h1.701 1.702v.916.918h-1.702-1.701v.905.906h1.89 1.89v1.017 1.016h-2.983-2.983v-4.53z"/><path d="m137.051 69.412v-4.531l2.436.009c2.154.008 2.467.013 2.691.046.79.117 1.192.316 1.553.766.256.32.416.693.491 1.146.059.35.037.99-.044 1.307-.117.461-.412.954-.734 1.23-.266.228-.6.406-.93.497-.1.028-.182.058-.182.067s.013.018.028.018.147.059.294.131c.229.112.285.151.408.281.145.154.389.484.535.725.045.074.359.742.697 1.486l.617 1.354-1.393-.005-1.393-.006-.712-1.491c-.392-.82-.755-1.564-.81-1.654-.053-.089-.139-.205-.189-.258-.174-.183-.464-.286-.758-.271l-.144.007-.006 1.839-.006 1.84h-1.226-1.227v-4.533zm4.046-.941c.293-.078.405-.143.519-.297.311-.422.198-1.127-.211-1.334-.231-.117-.31-.127-1.133-.139l-.768-.01v.932.933l.668-.009c.664-.009.67-.01.925-.076z"/><path d="m117.385 61.893c-3.191-.231-4.543-.736-5.979-2.234-1.107-1.156-1.604-2.137-1.994-3.939-.276-1.28-.273-1.201-.273-8.109v-6.381h2.93 2.93l.015 6.669.015 6.67.114.372c.353 1.145 1.072 1.871 2.148 2.168.444.123 1.534.124 1.983.002 1.098-.297 1.794-.986 2.146-2.128l.113-.364.014-6.695.014-6.694h2.93 2.931v6.46c0 4.222-.019 6.628-.053 6.942-.271 2.481-1.354 4.507-3.134 5.862-.884.673-2.129 1.129-3.619 1.325-.751.099-2.379.136-3.231.074z"/></g></svg>