<?xml version="1.0" encoding="utf-8"?>
<!-- Generator: Adobe Illustrator 16.0.0, SVG Export Plug-In . SVG Version: 6.00 Build 0)  -->
<!DOCTYPE svg PUBLIC "-//W3C//DTD SVG 1.1//EN" "http://www.w3.org/Graphics/SVG/1.1/DTD/svg11.dtd">
<svg version="1.1" id="Layer_1" xmlns="http://www.w3.org/2000/svg" xmlns:xlink="http://www.w3.org/1999/xlink" x="0px" y="0px"
	 width="28px" height="28px" viewBox="-2.837 -1.5 28 28" enable-background="new -2.837 -1.5 28 28" xml:space="preserve">
<title>instacart-logo-wordmark</title>
<desc>Created with Sketch.</desc>
<g id="Logo">
	<path id="Carrot_2_" fill="#FF8200" d="M14.919,10.031c1.473,1.481,2.678,3.905,1.988,5.346
		c-1.844,3.852-15.605,10.607-16.774,9.438C-1.035,23.646,5.726,9.88,9.578,8.036c1.44-0.69,3.865,0.515,5.346,1.989
		C14.924,10.025,14.922,10.027,14.919,10.031L14.919,10.031L14.919,10.031z"/>
	<path id="Leaves_2_" fill="#43B02A" d="M22.209,8.405L22.209,8.405c-0.24-0.886-0.85-1.781-1.762-1.887
		c-1.672-0.195-4.308,2.761-4.12,3.463s3.911,1.938,5.302,0.939c0.717-0.516,0.818-1.628,0.582-2.516L22.209,8.405L22.209,8.405
		L22.209,8.405z M17.035,0.215c1.242,0.336,2.497,1.192,2.646,2.47c0.272,2.344-3.872,6.039-4.855,5.776
		c-0.984-0.264-2.718-5.484-1.316-7.434c0.723-1.005,2.283-1.146,3.527-0.816C17.035,0.21,17.035,0.212,17.035,0.215L17.035,0.215
		L17.035,0.215z"/>
</g>
</svg>
