<svg enable-background="new -2.837 -1.5 28 28" height="28" viewBox="-2.837 -1.5 28 28" width="28" xmlns="http://www.w3.org/2000/svg"><path d="m14.919 10.031c1.473 1.481 2.678 3.905 1.988 5.346-1.844 3.852-15.605 10.607-16.774 9.438-1.168-1.169 5.593-14.935 9.445-16.779 1.44-.69 3.865.515 5.346 1.989 0 0-.002.002-.005.006z" fill="#ff8200"/><path d="m22.209 8.405c-.24-.886-.85-1.781-1.762-1.887-1.672-.195-4.308 2.761-4.12 3.463s3.911 1.938 5.302.939c.717-.516.818-1.628.582-2.516zm-5.174-8.19c1.242.336 2.497 1.192 2.646 2.47.272 2.344-3.872 6.039-4.855 5.776-.984-.264-2.718-5.484-1.316-7.434.723-1.005 2.283-1.146 3.527-.816-.002-.001-.002.001-.002.004z" fill="#43b02a"/></svg>