<?xml version="1.0" encoding="utf-8"?>
<!-- Generator: Adobe Illustrator 16.0.0, SVG Export Plug-In . SVG Version: 6.00 Build 0)  -->
<!DOCTYPE svg PUBLIC "-//W3C//DTD SVG 1.1//EN" "http://www.w3.org/Graphics/SVG/1.1/DTD/svg11.dtd">
<svg version="1.1"
	 id="Layer_1" xmlns:dc="http://purl.org/dc/elements/1.1/" xmlns:cc="http://creativecommons.org/ns#" xmlns:svg="http://www.w3.org/2000/svg" xmlns:rdf="http://www.w3.org/1999/02/22-rdf-syntax-ns#" xmlns:inkscape="http://www.inkscape.org/namespaces/inkscape" xmlns:sodipodi="http://sodipodi.sourceforge.net/DTD/sodipodi-0.dtd" inkscape:version="0.48.1 " sodipodi:docname="AJAX.svg"
	 xmlns="http://www.w3.org/2000/svg" xmlns:xlink="http://www.w3.org/1999/xlink" x="0px" y="0px" width="700px" height="700px"
	 viewBox="0 0 700 700" enable-background="new 0 0 700 700" xml:space="preserve">
<g>
	<path id="path5" inkscape:connector-curvature="0" fill="#003876" d="M254.201,458.637l11.481-24.481l11.484,24.481H254.201
		L254.201,458.637L254.201,458.637L254.201,458.637z M232.519,480.47h11.4l5.825-12.609h31.651l5.745,12.609h11.33l-26.668-54.926
		h-12.243L232.519,480.47L232.519,480.47L232.519,480.47z"/>
	<path id="polygon7" inkscape:connector-curvature="0" fill="#003876" d="M313.057,425.545h10.724v54.926h-10.724V425.545
		L313.057,425.545z"/>
	<path id="path9" inkscape:connector-curvature="0" fill="#003876" d="M354.985,449.957v-15.492h20.695
		c8.769,0,13.229,1.278,13.229,7.706c0,6.499-4.461,7.786-13.229,7.786H354.985L354.985,449.957L354.985,449.957L354.985,449.957z
		 M344.258,480.47h10.727v-21.602h16.998l15.939,21.603h13.221l-16.844-22.361c8.084-0.444,15.332-6.042,15.332-16.163
		c0-13.451-9.365-16.398-22.357-16.398h-33.018v54.927h0.002V480.47z"/>
	<path id="polygon11" inkscape:connector-curvature="0" fill="#003876" d="M413.162,425.545h10.725l10.584,37.771h0.141
		l10.508-37.771h10.277l10.658,37.691h0.145l10.506-37.691h10.502l-16.016,54.926h-10.275l-10.43-38.976h-0.15l-10.504,38.976
		h-10.491L413.162,425.545L413.162,425.545z"/>
	<path id="path13" inkscape:connector-curvature="0" fill="#003876" d="M514.938,458.637l11.486-24.481l11.479,24.481H514.938
		L514.938,458.637L514.938,458.637L514.938,458.637z M493.26,480.47h11.408l5.813-12.609h31.652l5.739,12.609h11.345l-26.677-54.926
		h-12.24L493.26,480.47L493.26,480.47L493.26,480.47z"/>
	<path id="polygon15" inkscape:connector-curvature="0" fill="#003876" d="M585.062,458.474l-26.813-32.931h13.141l19.035,23.267
		l18.969-23.267h13.225l-26.825,32.931v21.995h-10.728L585.062,458.474L585.062,458.474z"/>
	<path id="path17" inkscape:connector-curvature="0" fill="#003876" d="M674.356,442.243c-1.736-4.916-6.186-9.144-19.262-9.144
		c-7.256,0-14.58,1.813-14.58,6.869c0,2.349,1.359,4.841,12.316,6.202l12.993,1.962c12.313,1.894,19.576,6.646,19.576,15.866
		c0,12.997-12.395,17.833-27.057,17.833c-23.572,0-29.316-11.64-30.604-15.794l10.354-3.248c1.963,4.004,6.039,9.828,20.553,9.828
		c8.76,0,16.008-2.874,16.008-7.639c0-3.55-4.071-5.891-11.932-6.873l-13.146-1.811c-12.69-1.743-19.801-7.259-19.801-15.648
		c0-16.465,21.392-16.465,25.615-16.465c23.65,0,27.723,10.957,29.082,14.729L674.356,442.243L674.356,442.243L674.356,442.243z"/>
	<path id="path19" inkscape:connector-curvature="0" fill="#003876" d="M33.463,263.154h22.379v119.915
		c0,18.646-13.61,31.158-32.48,31.158H14.6v-21.063h6.353c7.681,0,12.512-3.521,12.512-11.854V263.154H33.463L33.463,263.154z
		 M33.463,218.168h22.379v22.383H33.463V218.168L33.463,218.168z"/>
	<path id="path21" inkscape:connector-curvature="0" fill="#003876" d="M92.667,308.793c0.435-16.894,10.312-25.888,23.482-25.888
		s22.821,8.994,23.472,25.888H92.667L92.667,308.793L92.667,308.793z M162.002,327.215v-18.423c0-28.742-21.292-46.954-45.85-46.954
		c-21.518,0-45.864,14.036-45.864,57.269c0,45.637,26.545,56.611,49.371,56.611c14.91,0,29.178-5.276,40.141-17.999l-16.222-13.815
		c-6.594,6.795-15.804,10.747-24.36,10.747c-15.362,0-26.55-9.221-26.55-27.436H162.002L162.002,327.215z"/>
	<path id="path23" inkscape:connector-curvature="0" fill="#003876" d="M179.746,229.359h22.379v33.795h16.225v17.115h-16.225
		v64.723c0,6.149,2.409,8.342,7.879,8.342h8.346v21.063h-11.624c-15.585,0-26.979-9.891-26.979-27.429v-66.699h-11.209v-17.115
		h11.209L179.746,229.359L179.746,229.359L179.746,229.359z"/>
	<path id="path25" inkscape:connector-curvature="0" fill="#003876" d="M292.746,305.062c17.55,0,25.434,11.186,25.434,23.472
		c0,12.294-7.886,23.48-25.434,23.48h-36.432v-46.952H292.746L292.746,305.062L292.746,305.062z M232.605,374.396h65.833
		c23.484,0,43.443-17.336,43.443-44.319c0-15.8-8.334-32.035-25.447-35.995v-0.433c18.213-8.121,23.045-20.627,23.045-33.567
		c-0.002-24.576-15.816-41.914-46.307-41.914h-60.567V374.396L232.605,374.396L232.605,374.396L232.605,374.396z M290.538,239.241
		c17.118,0,25.233,10.308,25.233,22.378c0,12.278-8.115,22.386-25.233,22.386h-34.224v-44.764H290.538L290.538,239.241z"/>
	<path id="path27" inkscape:connector-curvature="0" fill="#003876" d="M354.746,218.168h22.379V345.65
		c0,5.045,2.854,7.682,8.356,7.682h7.668v21.063h-9.873c-16.247,0-28.53-7.017-28.53-26.994V218.168L354.746,218.168
		L354.746,218.168z"/>
	<path id="path29" inkscape:connector-curvature="0" fill="#003876" d="M402.582,263.154h22.381v66.258
		c0,15.149,9.432,23.922,22.174,23.922c12.502,0,21.924-8.771,21.924-23.922v-66.258h22.389v111.243h-22.389v-11.854h-0.42
		c-7.029,8.781-17.125,13.175-28.758,13.175c-17.541,0-37.301-13.394-37.301-38.617V263.154L402.582,263.154z"/>
	<path id="path31" inkscape:connector-curvature="0" fill="#003876" d="M525.856,308.793c0.455-16.894,10.312-25.888,23.479-25.888
		c13.164,0,22.813,8.994,23.489,25.888H525.856L525.856,308.793L525.856,308.793z M595.198,327.215v-18.423
		c0-28.742-21.282-46.954-45.862-46.954c-21.506,0-45.869,14.036-45.869,57.269c0,45.637,26.561,56.611,49.373,56.611
		c14.938,0,29.188-5.276,40.162-17.999l-16.244-13.814c-6.584,6.796-15.785,10.748-24.348,10.748
		c-15.355,0-26.554-9.22-26.554-27.437L595.198,327.215L595.198,327.215L595.198,327.215z"/>
</g>
</svg>
