<svg enable-background="new 0 0 700 700" height="700" viewBox="0 0 700 700" width="700" xmlns="http://www.w3.org/2000/svg"><g fill="#003876"><path d="m254.201 458.637 11.481-24.481 11.484 24.481zm-21.682 21.833h11.4l5.825-12.609h31.651l5.745 12.609h11.33l-26.668-54.926h-12.243z"/><path d="m313.057 425.545h10.724v54.926h-10.724z"/><path d="m354.985 449.957v-15.492h20.695c8.769 0 13.229 1.278 13.229 7.706 0 6.499-4.461 7.786-13.229 7.786zm-10.727 30.513h10.727v-21.602h16.998l15.939 21.603h13.221l-16.844-22.361c8.084-.444 15.332-6.042 15.332-16.163 0-13.451-9.365-16.398-22.357-16.398h-33.018v54.927h.002z"/><path d="m413.162 425.545h10.725l10.584 37.771h.141l10.508-37.771h10.277l10.658 37.691h.145l10.506-37.691h10.502l-16.016 54.926h-10.275l-10.43-38.976h-.15l-10.504 38.976h-10.491z"/><path d="m514.938 458.637 11.486-24.481 11.479 24.481zm-21.678 21.833h11.408l5.813-12.609h31.652l5.739 12.609h11.345l-26.677-54.926h-12.24z"/><path d="m585.062 458.474-26.813-32.931h13.141l19.035 23.267 18.969-23.267h13.225l-26.825 32.931v21.995h-10.728z"/><path d="m674.356 442.243c-1.736-4.916-6.186-9.144-19.262-9.144-7.256 0-14.58 1.813-14.58 6.869 0 2.349 1.359 4.841 12.316 6.202l12.993 1.962c12.313 1.894 19.576 6.646 19.576 15.866 0 12.997-12.395 17.833-27.057 17.833-23.572 0-29.316-11.64-30.604-15.794l10.354-3.248c1.963 4.004 6.039 9.828 20.553 9.828 8.76 0 16.008-2.874 16.008-7.639 0-3.55-4.071-5.891-11.932-6.873l-13.146-1.811c-12.69-1.743-19.801-7.259-19.801-15.648 0-16.465 21.392-16.465 25.615-16.465 23.65 0 27.723 10.957 29.082 14.729z"/><path d="m33.463 263.154h22.379v119.915c0 18.646-13.61 31.158-32.48 31.158h-8.762v-21.063h6.353c7.681 0 12.512-3.521 12.512-11.854v-118.156zm0-44.986h22.379v22.383h-22.379z"/><path d="m92.667 308.793c.435-16.894 10.312-25.888 23.482-25.888s22.821 8.994 23.472 25.888zm69.335 18.422v-18.423c0-28.742-21.292-46.954-45.85-46.954-21.518 0-45.864 14.036-45.864 57.269 0 45.637 26.545 56.611 49.371 56.611 14.91 0 29.178-5.276 40.141-17.999l-16.222-13.815c-6.594 6.795-15.804 10.747-24.36 10.747-15.362 0-26.55-9.221-26.55-27.436z"/><path d="m179.746 229.359h22.379v33.795h16.225v17.115h-16.225v64.723c0 6.149 2.409 8.342 7.879 8.342h8.346v21.063h-11.624c-15.585 0-26.979-9.891-26.979-27.429v-66.699h-11.209v-17.115h11.209z"/><path d="m292.746 305.062c17.55 0 25.434 11.186 25.434 23.472 0 12.294-7.886 23.48-25.434 23.48h-36.432v-46.952zm-60.141 69.334h65.833c23.484 0 43.443-17.336 43.443-44.319 0-15.8-8.334-32.035-25.447-35.995v-.433c18.213-8.121 23.045-20.627 23.045-33.567-.002-24.576-15.816-41.914-46.307-41.914h-60.567zm57.933-135.155c17.118 0 25.233 10.308 25.233 22.378 0 12.278-8.115 22.386-25.233 22.386h-34.224v-44.764z"/><path d="m354.746 218.168h22.379v127.482c0 5.045 2.854 7.682 8.356 7.682h7.668v21.063h-9.873c-16.247 0-28.53-7.017-28.53-26.994z"/><path d="m402.582 263.154h22.381v66.258c0 15.149 9.432 23.922 22.174 23.922 12.502 0 21.924-8.771 21.924-23.922v-66.258h22.389v111.243h-22.389v-11.854h-.42c-7.029 8.781-17.125 13.175-28.758 13.175-17.541 0-37.301-13.394-37.301-38.617z"/><path d="m525.856 308.793c.455-16.894 10.312-25.888 23.479-25.888 13.164 0 22.813 8.994 23.489 25.888zm69.342 18.422v-18.423c0-28.742-21.282-46.954-45.862-46.954-21.506 0-45.869 14.036-45.869 57.269 0 45.637 26.561 56.611 49.373 56.611 14.938 0 29.188-5.276 40.162-17.999l-16.244-13.814c-6.584 6.796-15.785 10.748-24.348 10.748-15.355 0-26.554-9.22-26.554-27.437z"/></g></svg>