<svg enable-background="new 0 0 400 400" height="400" viewBox="0 0 400 400" width="400" xmlns="http://www.w3.org/2000/svg"><g clip-rule="evenodd" fill="#fff" fill-rule="evenodd"><path d="m380.442 237.055c-6.427.865-11.437.812-15.755-5.378-8.077-11.574-17.263-22.376-26.009-33.482-.781-.991-1.724-1.857-3.21-3.442v42.585c-4.105 0-7.892.329-11.545-.221-.974-.146-2.179-2.982-2.195-4.595-.167-15.821-.11-31.646-.106-47.469.002-3.994-.243-8.021.224-11.963.153-1.297 2.054-3.173 3.394-3.404 5.12-.885 9.172.194 12.688 5.122 8.002 11.218 16.876 21.813 25.414 32.648.702.891 1.539 1.675 2.992 3.239.185-2.222.395-3.6.399-4.978.031-10.493.122-20.988-.028-31.479-.054-3.7 1.271-4.888 4.982-4.817 9.287.175 9.257.009 9.24 9.6-.027 15.989.02 31.979-.027 47.97-.009 3.297-.293 6.595-.458 10.064z"/><path d="m256.144 196.578c0 9.918.151 19.84-.038 29.754-.236 12.357 2.878 11.454-12.53 10.823-.126-.005-.243-.206-.686-.604 0-21.924 0-44.139 0-66.529 6.955-1.649 12.012-.302 16.507 6.068 8.11 11.494 17.276 22.243 26.002 33.303.475-.087.95-.175 1.425-.262 0-12.932 0-25.863 0-39.575 4.605 0 8.216-.25 11.748.16.993.115 2.51 2.166 2.519 3.338.149 20.304.162 40.61-.062 60.913-.013 1.166-2.171 3.086-3.555 3.318-4.786.805-8.472-.386-11.795-4.919-9.009-12.291-18.811-24-28.298-35.939-.412.051-.825.1-1.237.151z"/><path d="m78.59 203.9c.061-20.41 14.986-35.274 35.248-35.335 20.033-.061 34.266 15.338 34.27 35.473.004 19.593-15.984 35.758-35.184 35.024-21.422-.817-34.286-15.996-34.334-35.162zm55.044.225c.055-12.613-8.168-21.742-19.655-21.818-12.494-.083-21.044 8.609-21.023 21.372.02 12.79 8.867 21.776 21.391 21.728 10.451-.041 19.237-9.735 19.287-21.282z"/><path d="m155.994 236.875c2.221-5.156 4.233-9.829 6.231-14.47-5.437-3.248-6.59-8.045-3.83-15.283 9.726 3.128 9.682 3.108 14.011-6.746 4.014-9.137 8.347-18.141 12.113-27.378 1.716-4.209 4.872-3.828 8.168-3.961 3.298-.134 5.494.862 6.937 4.296 4.059 9.656 8.638 19.093 12.823 28.698 1.302 2.988 3.083 4.681 6.332 5.608 9.631 2.748 10.314 4.304 7.895 15.423-1.385-.348-2.767-.694-4.15-1.048-.109.088-.325.225-.308.271 1.822 4.737 3.662 9.468 5.87 15.148-4.925 0-9.17.197-13.373-.14-1.039-.083-2.247-1.747-2.849-2.949-1.934-3.867-3.723-7.816-5.365-11.816-1.053-2.563-2.685-3.634-5.407-3.137-7.672 1.403-15.377 2.647-22.994 4.305-1.198.261-2.313 2.202-2.935 3.603-5.07 11.408-5.149 11.487-19.169 9.576zm35.889-47.093c-3.333 7.406-6.114 13.586-9.239 20.531 5.005-1.07 9.204-1.738 13.224-2.986 1.035-.321 2.406-2.793 2.074-3.726-1.523-4.279-3.595-8.363-6.059-13.819z"/><path d="m25.489 215.105c2.076 2.544 3.698 4.615 5.41 6.609 2.808 3.274 6.845 4.591 10.298 2.71 2.617-1.424 5.241-4.927 5.674-7.83.871-5.849.193-11.921.26-17.898.091-8.152.387-16.304.378-24.455-.004-3.284.906-4.859 4.521-4.775 10.227.236 9.368-2.041 9.372 9.06.005 12.153.068 24.307-.016 36.459-.081 11.621-5.492 19.801-14.641 22.447-11.968 3.461-22.313-.171-28.899-9.809-2.057-3.01-1.865-4.979 1.122-7.037 2.161-1.489 4.048-3.376 6.521-5.481z"/></g></svg>