<?xml version="1.0" encoding="utf-8"?>
<!-- Generator: Adobe Illustrator 16.0.0, SVG Export Plug-In . SVG Version: 6.00 Build 0)  -->
<!DOCTYPE svg PUBLIC "-//W3C//DTD SVG 1.1//EN" "http://www.w3.org/Graphics/SVG/1.1/DTD/svg11.dtd">
<svg version="1.1" id="Layer_1" xmlns="http://www.w3.org/2000/svg" xmlns:xlink="http://www.w3.org/1999/xlink" x="0px" y="0px"
	 width="400px" height="400px" viewBox="0 0 400 400" enable-background="new 0 0 400 400" xml:space="preserve">
<path fill-rule="evenodd" clip-rule="evenodd" fill="#FFFFFF" d="M380.442,237.055c-6.427,0.865-11.437,0.812-15.755-5.378
	c-8.077-11.574-17.263-22.376-26.009-33.482c-0.781-0.991-1.724-1.857-3.21-3.442c0,14.499,0,28.091,0,42.585
	c-4.105,0-7.892,0.329-11.545-0.221c-0.974-0.146-2.179-2.982-2.195-4.595c-0.167-15.821-0.11-31.646-0.106-47.469
	c0.002-3.994-0.243-8.021,0.224-11.963c0.153-1.297,2.054-3.173,3.394-3.404c5.12-0.885,9.172,0.194,12.688,5.122
	c8.002,11.218,16.876,21.813,25.414,32.648c0.702,0.891,1.539,1.675,2.992,3.239c0.185-2.222,0.395-3.6,0.399-4.978
	c0.031-10.493,0.122-20.988-0.028-31.479c-0.054-3.7,1.271-4.888,4.982-4.817c9.287,0.175,9.257,0.009,9.24,9.6
	c-0.027,15.989,0.02,31.979-0.027,47.97C380.891,230.288,380.607,233.586,380.442,237.055z"/>
<path fill-rule="evenodd" clip-rule="evenodd" fill="#FFFFFF" d="M256.144,196.578c0,9.918,0.151,19.84-0.038,29.754
	c-0.236,12.357,2.878,11.454-12.53,10.823c-0.126-0.005-0.243-0.206-0.686-0.604c0-21.924,0-44.139,0-66.529
	c6.955-1.649,12.012-0.302,16.507,6.068c8.11,11.494,17.276,22.243,26.002,33.303c0.475-0.087,0.95-0.175,1.425-0.262
	c0-12.932,0-25.863,0-39.575c4.605,0,8.216-0.25,11.748,0.16c0.993,0.115,2.51,2.166,2.519,3.338
	c0.149,20.304,0.162,40.61-0.062,60.913c-0.013,1.166-2.171,3.086-3.555,3.318c-4.786,0.805-8.472-0.386-11.795-4.919
	c-9.009-12.291-18.811-24-28.298-35.939C256.969,196.478,256.556,196.527,256.144,196.578z"/>
<path fill-rule="evenodd" clip-rule="evenodd" fill="#FFFFFF" d="M78.59,203.9c0.061-20.41,14.986-35.274,35.248-35.335
	c20.033-0.061,34.266,15.338,34.27,35.473c0.004,19.593-15.984,35.758-35.184,35.024C91.502,238.245,78.638,223.066,78.59,203.9z
	 M133.634,204.125c0.055-12.613-8.168-21.742-19.655-21.818c-12.494-0.083-21.044,8.609-21.023,21.372
	c0.02,12.79,8.867,21.776,21.391,21.728C124.798,225.366,133.584,215.672,133.634,204.125z"/>
<path fill-rule="evenodd" clip-rule="evenodd" fill="#FFFFFF" d="M155.994,236.875c2.221-5.156,4.233-9.829,6.231-14.47
	c-5.437-3.248-6.59-8.045-3.83-15.283c9.726,3.128,9.682,3.108,14.011-6.746c4.014-9.137,8.347-18.141,12.113-27.378
	c1.716-4.209,4.872-3.828,8.168-3.961c3.298-0.134,5.494,0.862,6.937,4.296c4.059,9.656,8.638,19.093,12.823,28.698
	c1.302,2.988,3.083,4.681,6.332,5.608c9.631,2.748,10.314,4.304,7.895,15.423c-1.385-0.348-2.767-0.694-4.15-1.048
	c-0.109,0.088-0.325,0.225-0.308,0.271c1.822,4.737,3.662,9.468,5.87,15.148c-4.925,0-9.17,0.197-13.373-0.14
	c-1.039-0.083-2.247-1.747-2.849-2.949c-1.934-3.867-3.723-7.816-5.365-11.816c-1.053-2.563-2.685-3.634-5.407-3.137
	c-7.672,1.403-15.377,2.647-22.994,4.305c-1.198,0.261-2.313,2.202-2.935,3.603C170.093,238.707,170.014,238.786,155.994,236.875z
	 M191.883,189.782c-3.333,7.406-6.114,13.586-9.239,20.531c5.005-1.07,9.204-1.738,13.224-2.986
	c1.035-0.321,2.406-2.793,2.074-3.726C196.419,199.322,194.347,195.238,191.883,189.782z"/>
<path fill-rule="evenodd" clip-rule="evenodd" fill="#FFFFFF" d="M25.489,215.105c2.076,2.544,3.698,4.615,5.41,6.609
	c2.808,3.274,6.845,4.591,10.298,2.71c2.617-1.424,5.241-4.927,5.674-7.83c0.871-5.849,0.193-11.921,0.26-17.898
	c0.091-8.152,0.387-16.304,0.378-24.455c-0.004-3.284,0.906-4.859,4.521-4.775c10.227,0.236,9.368-2.041,9.372,9.06
	c0.005,12.153,0.068,24.307-0.016,36.459c-0.081,11.621-5.492,19.801-14.641,22.447c-11.968,3.461-22.313-0.171-28.899-9.809
	c-2.057-3.01-1.865-4.979,1.122-7.037C21.129,219.097,23.016,217.21,25.489,215.105z"/>
</svg>
