<?xml version="1.0" encoding="utf-8"?>
<!-- Generator: Adobe Illustrator 16.0.0, SVG Export Plug-In . SVG Version: 6.00 Build 0)  -->
<!DOCTYPE svg PUBLIC "-//W3C//DTD SVG 1.1//EN" "http://www.w3.org/Graphics/SVG/1.1/DTD/svg11.dtd">
<svg version="1.1" id="Layer_1" xmlns="http://www.w3.org/2000/svg" xmlns:xlink="http://www.w3.org/1999/xlink" x="0px" y="0px"
	 width="600px" height="600px" viewBox="5.25 -249.808 600 600" enable-background="new 5.25 -249.808 600 600"
	 xml:space="preserve">
<path fill="#FFFFFF" d="M290.202,19.134c8.646,12.092-3.777,35.798-27.756,52.961c-23.977,17.151-50.43,21.261-59.074,9.173
	c-8.651-12.092,3.773-35.802,27.752-52.958C255.104,11.151,281.554,7.047,290.202,19.134"/>
<path fill="#FFFFFF" d="M203.033,81.503c-1.925-2.685-2.834-5.931-2.834-9.508l0,0c0.027-13,11.81-30.516,30.68-44.03l0,0
	c14.738-10.538,30.395-16.186,42.407-16.194l0,0c7.6,0,13.785,2.276,17.253,7.123l0,0l-0.335,0.239l-0.343,0.239
	c-3.248-4.547-9.127-6.762-16.575-6.771l0,0c-11.757,0-27.298,5.579-41.922,16.045l0,0c-18.746,13.379-30.353,30.834-30.334,43.349
	l0,0c0,3.435,0.865,6.496,2.673,9.03l0,0c3.239,4.526,9.118,6.75,16.575,6.75l0,0c11.748,0.01,27.297-5.558,41.923-16.02l0,0
	c18.736-13.411,30.351-30.86,30.325-43.366l0,0c0-3.435-0.856-6.488-2.665-9.02l0,0l0.343-0.239l0.335-0.239
	c1.925,2.683,2.825,5.922,2.825,9.497l0,0c-0.027,13-11.817,30.507-30.677,44.041l0,0c-14.741,10.528-30.405,16.174-42.409,16.184
	l0,0C212.67,88.614,206.484,86.327,203.033,81.503L203.033,81.503z"/>
<path fill="#FFFFFF" d="M42.094,69.88c0-0.704-0.496-1.104-1.694-1.104H8.917v-0.691c1.093,0,1.288-0.406,1.288-1.5V34.589
	c0-1.097-0.195-1.503-1.288-1.503v-0.687h9.895v0.687c-1.309,0-1.501,0.406-1.501,1.503v28.288H40.4
	c1.198,0,1.694-0.402,1.694-1.197h0.704v8.2H42.094"/>
<path fill="#FFFFFF" d="M144.901,68.77v-0.687c0.649,0,0.903-0.255,0.903-0.515c0-0.541-0.453-1.24-3.81-8.389h-17.139
	c-2.894,6.504-3.658,7.492-3.658,8.154c0,0.452,0.318,0.688,0.764,0.75v0.688h-8.904v-0.688c0.896-0.063,1.2-0.297,1.904-1.906
	l13.643-30.692c0.258-0.494,0.553-1.051,0.553-1.495c0-0.541-0.402-0.796-1.045-0.9V32.4h10.883v0.691
	c-0.75,0.104-1.049,0.406-1.049,0.75c0,0.406,0.209,0.809,0.45,1.303l14.496,31.036c0.708,1.541,0.901,1.905,1.952,1.905v0.687
	h-9.943 M127.209,53.479H139.1l-5.998-13.087L127.209,53.479"/>
<path fill="#FFFFFF" d="M337.547,68.773v-0.69c1.202,0,1.412-0.406,1.412-1.5V34.589c0-1.097-0.21-1.499-1.412-1.499v-0.691h24.202
	c8.501,0,12.101,3.498,12.101,9.792c0,3.191-1.647,5.893-5.005,7.543c3.746,1.709,6.339,4.447,6.339,8.904
	c0,6.836-5.336,10.137-12.143,10.137h-25.494 M346.052,62.877h15.188c5.114,0,6.854-1.801,6.854-5.29
	c0-3.208-1.994-4.905-7.047-4.905h-14.994V62.877 M346.052,46.794h16.401c3.237,0,4.48-2.208,4.48-4.26
	c0-3.342-1.497-4.243-5.091-4.243h-15.792L346.052,46.794"/>
<path fill="#FFFFFF" d="M448.906,50.584c0-12.1,9.294-18.693,20.841-18.693c11.545,0,20.839,6.593,20.839,18.693
	c0,12.1-9.294,18.697-20.839,18.697C458.2,69.281,448.906,62.686,448.906,50.584 M455.997,50.584c0,8.352,6.163,12.791,13.75,12.791
	c7.6,0,13.751-4.439,13.751-12.791c0-8.352-6.151-12.787-13.751-12.787C462.16,37.797,455.997,42.233,455.997,50.584"/>
<path fill="#FFFFFF" d="M577.653,68.77v-0.69c0.989,0,1.194-0.402,1.194-1.496V53.089l-13.746-18.14
	c-0.754-1.009-1.247-1.859-2.442-1.859v-0.691h10.837v0.691c-0.341,0-0.639,0.209-0.639,0.448c0,0.36,0.298,0.662,0.688,1.202
	l8.904,12.247l9.188-12.489c0.199-0.297,0.409-0.599,0.409-0.75c0-0.297-0.36-0.599-0.708-0.657V32.4h10.246v0.691
	c-1.055,0.059-1.895,0.85-2.599,1.859l-13.048,18.14v13.495c0,1.093,0.259,1.496,1.25,1.496v0.69h-9.534"/>
<path fill="#FFFFFF" d="M263.544,70.031c0-0.854-0.497-1.262-1.711-1.262h-34.074v-0.494l23.597-29.983h-21.199
	c-1.202,0-1.694,0.402-1.694,1.303h-0.703v-8.457h0.703c0,0.859,0.492,1.261,1.694,1.261h34.091v0.495l-23.494,29.988h21.08
	c1.214,0,1.711-0.411,1.711-1.307h0.703v8.456H263.544"/>
</svg>
