<svg enable-background="new 5.25 -249.808 600 600" height="600" viewBox="5.25 -249.808 600 600" width="600" xmlns="http://www.w3.org/2000/svg"><g fill="#fff"><path d="m290.202 19.134c8.646 12.092-3.777 35.798-27.756 52.961-23.977 17.151-50.43 21.261-59.074 9.173-8.651-12.092 3.773-35.802 27.752-52.958 23.98-17.159 50.43-21.263 59.078-9.176"/><path d="m203.033 81.503c-1.925-2.685-2.834-5.931-2.834-9.508.027-13 11.81-30.516 30.68-44.03 14.738-10.538 30.395-16.186 42.407-16.194 7.6 0 13.785 2.276 17.253 7.123l-.335.239-.343.239c-3.248-4.547-9.127-6.762-16.575-6.771-11.757 0-27.298 5.579-41.922 16.045-18.746 13.379-30.353 30.834-30.334 43.349 0 3.435.865 6.496 2.673 9.03 3.239 4.526 9.118 6.75 16.575 6.75 11.748.01 27.297-5.558 41.923-16.02 18.736-13.411 30.351-30.86 30.325-43.366 0-3.435-.856-6.488-2.665-9.02l.343-.239.335-.239c1.925 2.683 2.825 5.922 2.825 9.497-.027 13-11.817 30.507-30.677 44.041-14.741 10.528-30.405 16.174-42.409 16.184-7.608.001-13.794-2.286-17.245-7.11z"/><path d="m42.094 69.88c0-.704-.496-1.104-1.694-1.104h-31.483v-.691c1.093 0 1.288-.406 1.288-1.5v-31.996c0-1.097-.195-1.503-1.288-1.503v-.687h9.895v.687c-1.309 0-1.501.406-1.501 1.503v28.288h23.089c1.198 0 1.694-.402 1.694-1.197h.704v8.2z"/><path d="m144.901 68.77v-.687c.649 0 .903-.255.903-.515 0-.541-.453-1.24-3.81-8.389h-17.139c-2.894 6.504-3.658 7.492-3.658 8.154 0 .452.318.688.764.75v.688h-8.904v-.688c.896-.063 1.2-.297 1.904-1.906l13.643-30.692c.258-.494.553-1.051.553-1.495 0-.541-.402-.796-1.045-.9v-.69h10.883v.691c-.75.104-1.049.406-1.049.75 0 .406.209.809.45 1.303l14.496 31.036c.708 1.541.901 1.905 1.952 1.905v.687h-9.943m-17.692-15.293h11.891l-5.998-13.087z"/><path d="m337.547 68.773v-.69c1.202 0 1.412-.406 1.412-1.5v-31.994c0-1.097-.21-1.499-1.412-1.499v-.691h24.202c8.501 0 12.101 3.498 12.101 9.792 0 3.191-1.647 5.893-5.005 7.543 3.746 1.709 6.339 4.447 6.339 8.904 0 6.836-5.336 10.137-12.143 10.137h-25.494m8.505-5.898h15.188c5.114 0 6.854-1.801 6.854-5.29 0-3.208-1.994-4.905-7.047-4.905h-14.994v10.195m-.001-16.083h16.401c3.237 0 4.48-2.208 4.48-4.26 0-3.342-1.497-4.243-5.091-4.243h-15.792z"/><path d="m448.906 50.584c0-12.1 9.294-18.693 20.841-18.693 11.545 0 20.839 6.593 20.839 18.693s-9.294 18.697-20.839 18.697c-11.547 0-20.841-6.595-20.841-18.697m7.091 0c0 8.352 6.163 12.791 13.75 12.791 7.6 0 13.751-4.439 13.751-12.791s-6.151-12.787-13.751-12.787c-7.587 0-13.75 4.436-13.75 12.787"/><path d="m577.653 68.77v-.69c.989 0 1.194-.402 1.194-1.496v-13.495l-13.746-18.14c-.754-1.009-1.247-1.859-2.442-1.859v-.691h10.837v.691c-.341 0-.639.209-.639.448 0 .36.298.662.688 1.202l8.904 12.247 9.188-12.489c.199-.297.409-.599.409-.75 0-.297-.36-.599-.708-.657v-.691h10.246v.691c-1.055.059-1.895.85-2.599 1.859l-13.048 18.14v13.495c0 1.093.259 1.496 1.25 1.496v.69h-9.534"/><path d="m263.544 70.031c0-.854-.497-1.262-1.711-1.262h-34.074v-.494l23.597-29.983h-21.199c-1.202 0-1.694.402-1.694 1.303h-.703v-8.457h.703c0 .859.492 1.261 1.694 1.261h34.091v.495l-23.494 29.988h21.08c1.214 0 1.711-.411 1.711-1.307h.703v8.456z"/></g></svg>