<svg enable-background="new -12.076 -0.044 40 40" height="40" viewBox="-12.076 -.044 40 40" width="40" xmlns="http://www.w3.org/2000/svg"><path d="m15.848 38.298h-1.738c.578-.403 1.157-.807 1.737-1.248zm-15.848-36.684h12.192c-3.147 2.054-6.946 4.585-12.192 8.62zm13.64 34.777c-.904.659-1.771 1.283-2.678 1.907h-9.116c.83-.478 1.917-1.137 3.038-1.907zm-5.101-2.532h6.188c.397.33.759.658 1.085.953l-.688.514h-8.685c.653-.476 1.375-.954 2.1-1.467zm1.482-1.064c2.136-1.577 4.271-3.118 5.826-4.292v3.925c-.652-.587-1.557-1.355-2.389-2.091-.507.367-.979.733-1.521 1.103.471.401 1.014.879 1.557 1.355zm5.827-23.478v14.931c-2.57-2.201-6.261-5.283-9.843-8.218-.361.257-1.085.808-1.52 1.138.578.478.832.697 1.267 1.027h-2.605c2.787-2.201 5.753-4.402 12.701-8.878zm-13.604 11.665c-.397-.366-.869-.659-1.268-.989-.433.366-.542.44-.976.806v-.035c.614-.515 1.229-1.028 1.81-1.505h5.246c.724.587 1.375 1.174 2.063 1.726h-6.875zm4.884 3.926h6.657c.65.55 1.193 1.025 1.772 1.504l-.397.33h-5.862c-.723-.623-1.447-1.21-2.17-1.834zm-7.128 12.326v-15.701c3.69 2.861 7.272 5.833 10.492 8.656.543-.402 1.014-.732 1.521-1.101-.507-.438-.978-.88-1.483-1.284h3.221c-4.019 3.048-10.351 7.596-13.751 9.43zm5.826-13.39c-.725-.624-1.484-1.21-2.244-1.797h6.802c.725.624 1.484 1.21 2.136 1.797zm.723-16.214c.868-.587 1.737-1.174 2.604-1.761h6.694v1.284c-.255.146-.508.33-.761.477zm-1.485 1.064h8.357c-.903.587-1.772 1.137-2.641 1.724h-8.03c.76-.587 1.556-1.174 2.314-1.724zm-5.064 9.758v-4.879c.94.733 1.918 1.504 3.003 2.421.615-.478.904-.697 1.521-1.174-.361-.294-.688-.55-1.014-.808h2.172c-1.992 1.468-3.836 2.936-5.682 4.44zm1.339-6.97h7.888c-.688.476-1.375.989-2.099 1.467h-4.957c-.47-.403-.903-.734-1.339-1.064.181-.147.325-.256.507-.403zm14.435-9.868h.073v1.979c-.399-.257-.761-.477-1.557-1.027-.507.294-.832.514-1.521.954 1.049.659 1.193.771 1.989 1.283h-4.05c1.737-1.098 3.258-2.089 5.066-3.189z" fill="#007ea2"/></svg>