<?xml version="1.0" encoding="utf-8"?>
<!-- Generator: Adobe Illustrator 16.0.0, SVG Export Plug-In . SVG Version: 6.00 Build 0)  -->
<!DOCTYPE svg PUBLIC "-//W3C//DTD SVG 1.1//EN" "http://www.w3.org/Graphics/SVG/1.1/DTD/svg11.dtd">
<svg version="1.1" id="Layer_1" xmlns="http://www.w3.org/2000/svg" xmlns:xlink="http://www.w3.org/1999/xlink" x="0px" y="0px"
	 width="40px" height="40px" viewBox="-12.076 -0.044 40 40" enable-background="new -12.076 -0.044 40 40" xml:space="preserve">
<path fill="#007EA2" d="M15.848,38.298H14.11c0.578-0.403,1.157-0.807,1.737-1.248L15.848,38.298 M0,1.614h12.192
	C9.045,3.668,5.246,6.199,0,10.234V1.614z M13.64,36.391c-0.904,0.659-1.771,1.283-2.678,1.907H1.846
	c0.83-0.478,1.917-1.137,3.038-1.907H13.64z M8.539,33.859h6.188c0.397,0.33,0.759,0.658,1.085,0.953l-0.688,0.514H6.439
	C7.092,34.85,7.814,34.372,8.539,33.859z M10.021,32.795c2.136-1.577,4.271-3.118,5.826-4.292v3.925
	c-0.652-0.587-1.557-1.355-2.389-2.091c-0.507,0.367-0.979,0.733-1.521,1.103c0.471,0.401,1.014,0.879,1.557,1.355H10.021z
	 M15.848,9.317v14.931c-2.57-2.201-6.261-5.283-9.843-8.218c-0.361,0.257-1.085,0.808-1.52,1.138
	c0.578,0.478,0.832,0.697,1.267,1.027H3.147C5.934,15.994,8.9,13.793,15.848,9.317z M2.244,20.982
	c-0.397-0.366-0.869-0.659-1.268-0.989C0.543,20.359,0.434,20.433,0,20.799v-0.035c0.614-0.515,1.229-1.028,1.81-1.505h5.246
	c0.724,0.587,1.375,1.174,2.063,1.726H2.244V20.982z M7.128,24.908h6.657c0.65,0.55,1.193,1.025,1.772,1.504l-0.397,0.33H9.298
	C8.575,26.119,7.851,25.532,7.128,24.908z M0,37.234V21.533c3.69,2.861,7.272,5.833,10.492,8.656
	c0.543-0.402,1.014-0.732,1.521-1.101c-0.507-0.438-0.978-0.88-1.483-1.284h3.221C9.732,30.852,3.4,35.4,0,37.234z M5.826,23.844
	c-0.725-0.624-1.484-1.21-2.244-1.797h6.802c0.725,0.624,1.484,1.21,2.136,1.797H5.826z M6.549,7.63
	c0.868-0.587,1.737-1.174,2.604-1.761h6.694v1.284c-0.255,0.146-0.508,0.33-0.761,0.477H6.549z M5.064,8.694h8.357
	c-0.903,0.587-1.772,1.137-2.641,1.724H2.75C3.51,9.831,4.306,9.244,5.064,8.694z M0,18.452v-4.879
	c0.94,0.733,1.918,1.504,3.003,2.421c0.615-0.478,0.904-0.697,1.521-1.174c-0.361-0.294-0.688-0.55-1.014-0.808h2.172
	C3.69,15.48,1.846,16.948,0,18.452z M1.339,11.482h7.888c-0.688,0.476-1.375,0.989-2.099,1.467H2.171
	c-0.47-0.403-0.903-0.734-1.339-1.064C1.013,11.738,1.157,11.629,1.339,11.482z M15.774,1.614h0.073v1.979
	c-0.399-0.257-0.761-0.477-1.557-1.027c-0.507,0.294-0.832,0.514-1.521,0.954c1.049,0.659,1.193,0.771,1.989,1.283h-4.05
	C12.445,3.705,13.966,2.714,15.774,1.614z"/>
</svg>
