<svg enable-background="new 32.944 -41.906 220 200" height="200" viewBox="32.944 -41.906 220 200" width="220" xmlns="http://www.w3.org/2000/svg"><g fill="#fff"><path d="m199.623 49.866 4.867-5.293v-8.175h-9.119v7.696h4.459l-2.231 5.772z"/><path d="m176.197 39.698h16.156v38.896h-16.156z"/><path d="m225.727 71.859c-1.424 0-2.946-.115-4.312-.7-1.66-.708-3.627-2.449-3.627-3.901h-12.502c0 2.472 3.143 12.445 20.406 12.445 17.928 0 22.758-8.113 22.76-13.691 0-10.98-13.856-11.517-22.879-13.065-3.457-.593-5.865-1.475-5.865-3.251 0-2.175 2.67-3.163 7.418-3.163 1.826 0 3.715.543 5 1.214 1.731.904 2.358 2.484 2.358 3.307h12.705c0-2.757-4.556-12.277-21.743-12.277-10.736 0-20.849 4.714-20.849 13.976 0 9.93 12.44 11.421 21.317 12.701 3.263.468 6.219 1.02 6.219 3.509.001 2.041-2.885 2.896-6.406 2.896z"/><path d="m124.861 59.851c0-10.334-8.307-21.07-24.875-21.07-14.809 0-25.015 7.082-25.015 20.506 0 12.569 10.361 20.504 25.015 20.504 11.268 0 19.533-2.784 23.794-12.575h-13.037c-2.181 3.033-5.268 4.154-8.657 4.154-5.699 0-9.975-3.81-9.975-8.861h32.692c.124-.936.057-1.797.058-2.658zm-32.779-5.153c.055-3.937 2.663-7.781 7.586-7.781 5.303 0 8.239 3.142 8.239 7.781z"/><path d="m37.435 39.802v38.807h37.257v-10.56h-20.507v-28.247z"/><path d="m155.128 78.67 19.291-38.9h-11.421l-11.311 23.646-.303.713-.334-.713-12.093-23.645h-19.02l21.076 38.899z"/></g></svg>