<?xml version="1.0" encoding="utf-8"?>
<!-- Generator: Adobe Illustrator 16.0.0, SVG Export Plug-In . SVG Version: 6.00 Build 0)  -->
<!DOCTYPE svg PUBLIC "-//W3C//DTD SVG 1.1//EN" "http://www.w3.org/Graphics/SVG/1.1/DTD/svg11.dtd">
<svg version="1.1" id="artwork" xmlns="http://www.w3.org/2000/svg" xmlns:xlink="http://www.w3.org/1999/xlink" x="0px" y="0px"
	 width="220px" height="200px" viewBox="32.944 -41.906 220 200" enable-background="new 32.944 -41.906 220 200"
	 xml:space="preserve">
<g>
	<polygon fill="#FFFFFF" points="199.623,49.866 204.49,44.573 204.49,36.398 195.371,36.398 195.371,44.094 199.83,44.094 
		197.599,49.866 	"/>
	<rect x="176.197" y="39.698" fill="#FFFFFF" width="16.156" height="38.896"/>
	<path fill="#FFFFFF" d="M225.727,71.859c-1.424,0-2.946-0.115-4.312-0.7c-1.66-0.708-3.627-2.449-3.627-3.901h-12.502
		c0,2.472,3.143,12.445,20.406,12.445c17.928,0,22.758-8.113,22.76-13.691c0-10.98-13.856-11.517-22.879-13.065
		c-3.457-0.593-5.865-1.475-5.865-3.251c0-2.175,2.67-3.163,7.418-3.163c1.826,0,3.715,0.543,5,1.214
		c1.731,0.904,2.358,2.484,2.358,3.307h12.705c0-2.757-4.556-12.277-21.743-12.277c-10.736,0-20.849,4.714-20.849,13.976
		c0,9.93,12.44,11.421,21.317,12.701c3.263,0.468,6.219,1.02,6.219,3.509C232.134,71.004,229.248,71.859,225.727,71.859z"/>
	<path fill="#FFFFFF" d="M124.861,59.851c0-10.334-8.307-21.07-24.875-21.07c-14.809,0-25.015,7.082-25.015,20.506
		c0,12.569,10.361,20.504,25.015,20.504c11.268,0,19.533-2.784,23.794-12.575h-13.037c-2.181,3.033-5.268,4.154-8.657,4.154
		c-5.699,0-9.975-3.81-9.975-8.861h32.692C124.927,61.573,124.86,60.712,124.861,59.851z M92.082,54.698
		c0.055-3.937,2.663-7.781,7.586-7.781c5.303,0,8.239,3.142,8.239,7.781H92.082z"/>
	<polygon fill="#FFFFFF" points="37.435,39.802 37.435,78.609 74.692,78.609 74.692,68.049 54.185,68.049 54.185,39.802 	"/>
	<polygon fill="#FFFFFF" points="155.128,78.67 174.419,39.77 162.998,39.77 151.687,63.416 151.384,64.129 151.05,63.416 
		138.957,39.771 119.937,39.771 141.013,78.67 	"/>
</g>
</svg>
