<?xml version="1.0" encoding="utf-8"?>
<!-- Generator: Adobe Illustrator 16.0.0, SVG Export Plug-In . SVG Version: 6.00 Build 0)  -->
<!DOCTYPE svg PUBLIC "-//W3C//DTD SVG 1.1//EN" "http://www.w3.org/Graphics/SVG/1.1/DTD/svg11.dtd">
<svg version="1.1"
	 id="svg5230" xmlns:dc="http://purl.org/dc/elements/1.1/" xmlns:cc="http://creativecommons.org/ns#" xmlns:rdf="http://www.w3.org/1999/02/22-rdf-syntax-ns#" xmlns:svg="http://www.w3.org/2000/svg"
	 xmlns="http://www.w3.org/2000/svg" xmlns:xlink="http://www.w3.org/1999/xlink" x="0px" y="0px" width="120px" height="120px"
	 viewBox="186.957 -3.839 120 120" enable-background="new 186.957 -3.839 120 120" xml:space="preserve">
<path fill="#FFFFFF" d="M215.046,99.163l0.699,0.699c5.3-3.26,15.525-5.836,30.451-5.836c7.571,0,16.497,2.305,22.057,6.068
	l10.614-19.254v-0.002l-2.214-0.932l-3.268,5.604c-5.301-2.629-11.987-4.555-19.019-4.555V32.065c0.894,0.15,1.86,0,3.268,0
	c8.11,0,16.333-6.548,16.333-15.405c0-1.351-1.363-3.15-2.801-3.15c-0.644,0-1.398,0.328-1.398,1.402
	c0,1.131,1.631,1.291,1.631,2.447c0,1.602-1.385,3.617-6.064,3.617c-5.706,0-10.069-2.434-14.701-8.749l-18.086,14.702
	c0.579-4.105,2.396-8.167,6.303-11.318l-0.82-1.049c-11.313,5.547-18.552,12.894-18.552,25.902c0,7.472,1.696,10.286,3.85,15.639
	c1.865,4.623,4.438,11.65,4.438,17.853C227.766,88.675,219.78,95.136,215.046,99.163z M242.584,66.017
	c0-4.881-2.729-11.934-5.137-17.381c-2.638-5.961-4.748-12.017-4.782-19.488l6.885-5.369c2.382,2.728,5.503,7.299,12.599,8.055
	v49.124c-8.719,0.143-18.245,3.795-24.736,8.516l-0.35-0.344C237.987,79.148,242.584,74.068,242.584,66.017z"/>
</svg>
