<svg enable-background="new 186.957 -3.839 120 120" height="120" viewBox="186.957 -3.839 120 120" width="120" xmlns="http://www.w3.org/2000/svg"><path d="m215.046 99.163.699.699c5.3-3.26 15.525-5.836 30.451-5.836 7.571 0 16.497 2.305 22.057 6.068l10.614-19.254v-.002l-2.214-.932-3.268 5.604c-5.301-2.629-11.987-4.555-19.019-4.555v-48.89c.894.15 1.86 0 3.268 0 8.11 0 16.333-6.548 16.333-15.405 0-1.351-1.363-3.15-2.801-3.15-.644 0-1.398.328-1.398 1.402 0 1.131 1.631 1.291 1.631 2.447 0 1.602-1.385 3.617-6.064 3.617-5.706 0-10.069-2.434-14.701-8.749l-18.086 14.702c.579-4.105 2.396-8.167 6.303-11.318l-.82-1.049c-11.313 5.547-18.552 12.894-18.552 25.902 0 7.472 1.696 10.286 3.85 15.639 1.865 4.623 4.438 11.65 4.438 17.853-.001 14.719-7.987 21.18-12.721 25.207zm27.538-33.146c0-4.881-2.729-11.934-5.137-17.381-2.638-5.961-4.748-12.017-4.782-19.488l6.885-5.369c2.382 2.728 5.503 7.299 12.599 8.055v49.124c-8.719.143-18.245 3.795-24.736 8.516l-.35-.344c10.924-9.982 15.521-15.062 15.521-23.113z" fill="#fff"/></svg>