<?xml version="1.0" encoding="utf-8"?>
<!-- Generator: Adobe Illustrator 16.0.0, SVG Export Plug-In . SVG Version: 6.00 Build 0)  -->
<!DOCTYPE svg PUBLIC "-//W3C//DTD SVG 1.1//EN" "http://www.w3.org/Graphics/SVG/1.1/DTD/svg11.dtd">
<svg version="1.1" id="Layer_1" xmlns:sketch="http://www.bohemiancoding.com/sketch/ns"
	 xmlns="http://www.w3.org/2000/svg" xmlns:xlink="http://www.w3.org/1999/xlink" x="0px" y="0px" width="220px" height="220px"
	 viewBox="-10.5 -39.5 220 220" enable-background="new -10.5 -39.5 220 220" xml:space="preserve">
<title>logo_standard</title>
<desc>Created with Sketch.</desc>
<g id="Page-1" sketch:type="MSPage">
	<g id="logos" transform="translate(-112.000000, -79.000000)" sketch:type="MSArtboardGroup">
		<path id="logo_standard" sketch:type="MSShapeGroup" fill="#EA0B8C" d="M112.746,82.343h30.06v80.675
			c0,12.767,5.84,20.371,10.458,23.631c-4.889,4.347-19.829,8.149-30.966-1.086c-6.566-5.444-9.552-14.396-9.552-22.817V82.343z
			 M300.609,149.357v-8.478h9.168v-29.743h-10.068c-3.865-17.857-19.764-31.238-38.775-31.238
			c-21.904,0-39.658,17.756-39.658,39.658v69.459c6.24,0.877,13.674-0.109,19.998-5.354c6.565-5.445,9.552-14.396,9.552-22.817
			v-2.559h15.013v-29.743h-15.013v-8.986h0.036c0-5.562,4.509-10.071,10.072-10.071c5.562,0,10.088,4.509,10.088,10.071v29.801
			c0,21.902,17.774,39.659,39.677,39.659v-29.588C305.136,159.428,300.609,154.919,300.609,149.357z M186.761,111.136v43.651
			c0,2.479-2.056,4.486-4.593,4.486s-4.593-2.008-4.593-4.486v-43.651h-29.744v51.339c0,9.234,3.132,20.914,17.385,24.717
			c14.268,3.808,22.545-4.073,22.545-4.073c-0.754,5.192-5.644,8.995-13.521,9.81c-5.96,0.616-13.582-1.357-17.384-2.988v27.199
			c9.688,2.857,19.935,3.78,29.963,1.834c18.199-3.531,29.685-18.742,29.685-38.979v-68.858H186.761z"/>
	</g>
</g>
</svg>
