<svg enable-background="new -10.5 -39.5 220 220" height="220" viewBox="-10.5 -39.5 220 220" width="220" xmlns="http://www.w3.org/2000/svg"><path d="m112.746 82.343h30.06v80.675c0 12.767 5.84 20.371 10.458 23.631-4.889 4.347-19.829 8.149-30.966-1.086-6.566-5.444-9.552-14.396-9.552-22.817zm187.863 67.014v-8.478h9.168v-29.743h-10.068c-3.865-17.857-19.764-31.238-38.775-31.238-21.904 0-39.658 17.756-39.658 39.658v69.459c6.24.877 13.674-.109 19.998-5.354 6.565-5.445 9.552-14.396 9.552-22.817v-2.559h15.013v-29.743h-15.013v-8.986h.036c0-5.562 4.509-10.071 10.072-10.071 5.562 0 10.088 4.509 10.088 10.071v29.801c0 21.902 17.774 39.659 39.677 39.659v-29.588c-5.563 0-10.09-4.509-10.09-10.071zm-113.848-38.221v43.651c0 2.479-2.056 4.486-4.593 4.486s-4.593-2.008-4.593-4.486v-43.651h-29.744v51.339c0 9.234 3.132 20.914 17.385 24.717 14.268 3.808 22.545-4.073 22.545-4.073-.754 5.192-5.644 8.995-13.521 9.81-5.96.616-13.582-1.357-17.384-2.988v27.199c9.688 2.857 19.935 3.78 29.963 1.834 18.199-3.531 29.685-18.742 29.685-38.979v-68.858h-29.743z" fill="#ea0b8c" transform="translate(-112 -79)"/></svg>