<?xml version="1.0" encoding="utf-8"?>
<!-- Generator: Adobe Illustrator 16.0.0, SVG Export Plug-In . SVG Version: 6.00 Build 0)  -->
<!DOCTYPE svg PUBLIC "-//W3C//DTD SVG 1.1//EN" "http://www.w3.org/Graphics/SVG/1.1/DTD/svg11.dtd">
<svg version="1.1" xmlns="http://www.w3.org/2000/svg" xmlns:xlink="http://www.w3.org/1999/xlink" x="0px" y="0px" width="380px"
	 height="380px" viewBox="0 0 380 380" enable-background="new 0 0 380 380" xml:space="preserve">
<g id="Layer_3">
	<rect fill="#1796D3" width="380" height="380"/>
</g>
<g id="Layer_2">
	<polygon fill="#FFFFFF" points="170.74,292.414 14.5,292.414 166.229,136.59 183.871,154.231 244.988,92.133 277.082,125.622 
		257.588,144.303 244.73,130.886 184.023,192.567 166.485,175.029 78.476,265.414 197.628,265.414 	"/>
	<path fill="#FFFFFF" d="M330.97,292.414H201.053l103.134-105.482l0.068-33.257l-87.8,89.694l-37.982-0.199L331.392,87.586
		l-0.147,71.671l34.256-35.036l-0.021,38.202l-34.315,35.537L330.97,292.414z M265.213,265.414h38.812l0.082-39.78L265.213,265.414z
		"/>
</g>
</svg>
