<svg enable-background="new 0 0 388.9 305.4" viewBox="0 0 388.9 305.4" xmlns="http://www.w3.org/2000/svg"><path d="m75.8 268.7h6l10.2 16.9 10.1-16.9h6l1.6 35.8h-6.2l-1.2-24.8-8.9 14.6h-3.1l-9-14.3-1.1 24.5h-6z"/><path d="m143.3 289.8-4.5-13.9-4.6 13.9zm-7.7-21.1h6.6l12.9 35.8h-7.2l-3-9.1h-12.7l-3 9.1h-6.7z"/><path d="m181.7 284.8c1.6 0 2.9-.5 3.8-1.5s1.4-2.2 1.4-3.7-.5-2.8-1.4-3.8c-1-1-2.2-1.4-3.7-1.4h-6.8v10.4zm-13-16.1h12.9c2.1 0 4 .3 5.5 1s2.7 1.5 3.6 2.6 1.6 2.2 2 3.5.6 2.5.6 3.6c0 2.2-.5 4.3-1.4 6s-2.4 3.1-4.3 4.2l7.9 15h-7.3l-6.9-14.1h-6.5v14.1h-6.2v-35.9z"/><path d="m223 284.8c1.6 0 2.9-.5 3.8-1.5s1.4-2.2 1.4-3.7-.5-2.8-1.4-3.8c-1-1-2.2-1.4-3.7-1.4h-6.8v10.4zm-12.9-16.1h12.9c2.1 0 4 .3 5.5 1s2.7 1.5 3.6 2.6 1.6 2.2 2 3.5.6 2.5.6 3.6c0 2.2-.5 4.3-1.4 6s-2.4 3.1-4.3 4.2l7.9 15h-7.3l-6.9-14.1h-6.4v14.1h-6.2z"/><path d="m253 268.7h6.4v35.8h-6.4z"/><path d="m292.7 299.1c1.7 0 3.2-.3 4.6-1s2.5-1.6 3.5-2.8 1.7-2.5 2.2-4.1c.5-1.5.8-3.1.8-4.8s-.3-3.3-.8-4.9c-.5-1.5-1.2-2.9-2.2-4-1-1.2-2.1-2.1-3.5-2.7-1.4-.7-2.9-1-4.6-1s-3.2.3-4.6 1c-1.3.7-2.5 1.6-3.4 2.7-1 1.1-1.7 2.5-2.2 4s-.8 3.1-.8 4.9c0 1.7.3 3.3.8 4.8s1.2 2.9 2.2 4.1 2.1 2.1 3.4 2.8c1.4.6 2.9 1 4.6 1m0 6.3c-2.5 0-4.8-.5-7-1.5-2.1-1-4-2.3-5.6-4s-2.9-3.7-3.8-6-1.4-4.7-1.4-7.4c0-2.6.5-5.1 1.4-7.4s2.2-4.3 3.8-6 3.4-3 5.6-4 4.5-1.5 7-1.5 4.8.5 7 1.5c2.1 1 4 2.3 5.6 4s2.9 3.7 3.8 6 1.4 4.7 1.4 7.4c0 2.6-.5 5.1-1.4 7.4s-2.2 4.3-3.8 6-3.5 3.1-5.6 4c-2.2 1-4.5 1.5-7 1.5"/><path d="m330.4 274.6h-11.5v-5.9h29.5v5.9h-11.5v29.9h-6.5z"/><path d="m370.9 274.6h-11.6v-5.9h29.6v5.9h-11.6v29.9h-6.4z"/><path d="m248.4 232.9h57.5l-96.2-229.2-48.3 23.4 33.6 79.8-15.6 37.1-60.2-144-48.8 22.3 39.2 92-.2.4c-24.2 58.1-53.8 74-56.7 75.1-6.9 2.8-14.3 4.4-22.1 4.4-2.4 0-4.7-.1-7-.4l-23.6 50.6c7.8 4.5 16.6 7.1 25.9 7.1 11.8 0 22.6-4.1 31.6-10.9l-.1.2s22.3-11.3 46.2-73.2c0-.1 8.8-19.8 13.5-32.4l.5-1.4 42 99.2h57.4l-29.6-69.8 15.7-37.1z" fill="#a11d2b"/></svg>