<?xml version="1.0" encoding="utf-8"?>
<!-- Generator: Adobe Illustrator 16.0.0, SVG Export Plug-In . SVG Version: 6.00 Build 0)  -->
<!DOCTYPE svg PUBLIC "-//W3C//DTD SVG 1.1//EN" "http://www.w3.org/Graphics/SVG/1.1/DTD/svg11.dtd">
<svg version="1.1"
	 id="svg2837" xmlns:inkscape="http://www.inkscape.org/namespaces/inkscape" xmlns:sodipodi="http://sodipodi.sourceforge.net/DTD/sodipodi-0.dtd" xmlns:dc="http://purl.org/dc/elements/1.1/" xmlns:cc="http://creativecommons.org/ns#" xmlns:rdf="http://www.w3.org/1999/02/22-rdf-syntax-ns#" xmlns:svg="http://www.w3.org/2000/svg" inkscape:version="0.46+devel r21714" sodipodi:docname="Meredith_Corporation.eps" inkscape:output_extension="org.inkscape.output.svg.inkscape"
	 xmlns="http://www.w3.org/2000/svg" xmlns:xlink="http://www.w3.org/1999/xlink" x="0px" y="0px" width="180px" height="180px"
	 viewBox="39.301 186.534 180 180" enable-background="new 39.301 186.534 180 180" xml:space="preserve">
<defs>
	
	
		<inkscape:perspective  id="perspective2845" sodipodi:type="inkscape:persp3d" inkscape:vp_x="0 : 0.5 : 1" inkscape:vp_y="0 : 1000 : 0" inkscape:vp_z="1 : 0.5 : 1" inkscape:persp3d-origin="0.5 : 0.33333333 : 1">
		</inkscape:perspective>
</defs>
<sodipodi:namedview  gridtolerance="10" objecttolerance="10" inkscape:cx="382.5" borderopacity="1" inkscape:cy="495" pagecolor="#ffffff" showgrid="false" guidetolerance="10" inkscape:zoom="0.23838384" bordercolor="#666666" id="namedview2839" inkscape:window-maximized="0" inkscape:window-y="54" inkscape:window-x="304" inkscape:current-layer="g2847" inkscape:pageopacity="0" inkscape:pageshadow="2" inkscape:window-width="640" inkscape:window-height="484">
	</sodipodi:namedview>
<path id="path2877" fill="#2982BE" d="M180.701,239.857c2.874,0.199,5.253,1.289,7.334,3.271c2.281,2.28,3.371,4.957,3.272,8.129
	c-0.199,2.875-1.19,5.354-3.272,7.435l-8.029,7.931l9.913,9.914l8.029-7.932c4.958-4.957,7.436-10.904,7.337-17.942
	c0-6.741-2.479-12.59-7.337-17.447c-5.054-4.956-11.003-7.335-18.14-7.335c0.297-6.841-2.082-12.888-7.236-18.043
	c-4.857-4.757-10.607-7.235-17.447-7.334c-7.038-0.1-12.986,2.379-17.943,7.334l-7.93,7.931l9.912,9.914l7.931-7.931
	c2.18-2.181,4.758-3.271,7.831-3.271c2.974,0,5.552,1.09,7.732,3.271c2.181,2.181,3.272,4.857,3.172,7.931
	c0,2.874-1.091,5.451-3.172,7.533l-7.931,7.931l9.913,9.914l7.931-7.932C174.851,240.848,177.627,239.758,180.701,239.857"/>
<path id="path2879" fill="#E13348" d="M154.728,241.146l-15.563-15.464l-9.912,9.912l15.563,15.466L154.728,241.146"/>
<path id="path2881" fill="#88AD6E" d="M154.728,291.999l-15.563-15.462l-9.912,9.913l15.563,15.463L154.728,291.999"/>
<path id="path2883" fill="#2982BE" d="M170.193,276.537l-15.465,15.462l9.913,9.914l15.366-15.463L170.193,276.537"/>
<path id="path2885" fill="#88AD6E" d="M154.728,260.971l15.465,15.565l9.813-9.914l-15.366-15.563L154.728,260.971"/>
<path id="path2887" fill="#2982BE" d="M139.164,276.537l15.563-15.565l-9.913-9.911l-15.563,15.563L139.164,276.537"/>
<path id="path2889" fill="#5C5557" d="M154.728,260.971l9.913-9.911l-9.913-9.914l-9.913,9.914L154.728,260.971"/>
<path id="path2891" fill="#88AD6E" d="M180.006,286.45l8.029,7.93c2.083,1.981,3.074,4.459,3.272,7.436
	c0.098,3.07-0.991,5.746-3.272,8.028c-2.082,1.982-4.461,3.073-7.334,3.272c-3.074,0.1-5.85-0.895-8.129-3.272l-7.931-7.931
	l-9.913,9.913l7.931,7.93c2.082,2.081,3.172,4.659,3.172,7.633c0.1,2.974-0.991,5.65-3.172,7.929
	c-2.18,2.086-4.758,3.175-7.732,3.175c-3.073,0-5.651-1.089-7.831-3.175l-7.931-8.028l-9.912,10.013l7.93,7.832
	c4.957,5.055,10.905,7.434,17.943,7.334c6.84-0.098,12.589-2.477,17.447-7.334c5.155-5.056,7.533-11.102,7.236-18.041
	c7.137,0.098,13.086-2.381,18.14-7.337c4.858-4.857,7.337-10.706,7.337-17.446c0.099-6.938-2.379-12.886-7.337-17.844l-8.029-7.929
	L180.006,286.45"/>
<path id="path2893" fill="#497167" d="M180.006,286.45l9.913-9.913l-9.913-9.914l-9.813,9.914L180.006,286.45"/>
<path id="path2895" fill="#2982BE" d="M119.438,225.682l-15.564,15.464l9.914,9.914l15.465-15.466L119.438,225.682"/>
<path id="path2897" fill="#E13348" d="M111.508,217.751l7.93,7.931l9.814-9.914l-7.832-7.931
	c-5.055-4.955-11.003-7.434-17.942-7.334c-6.741,0-12.589,2.577-17.447,7.334c-4.957,4.958-7.435,11.005-7.336,18.043
	c-6.938-0.198-12.985,2.181-18.141,7.336c-4.659,4.758-7.137,10.606-7.236,17.446c-0.099,6.939,2.379,12.985,7.236,17.942
	l8.03,7.932l9.913-9.914l-7.93-7.931c-2.182-2.181-3.271-4.857-3.271-7.831c0-3.073,1.09-5.552,3.271-7.732
	c2.181-2.181,4.857-3.271,7.93-3.172c2.875,0,5.452,1.091,7.534,3.172l7.931,7.932l9.912-9.914l-7.929-7.931
	c-2.281-2.279-3.371-5.056-3.271-8.128c0.198-2.974,1.289-5.354,3.271-7.336c2.28-2.28,4.956-3.271,8.128-3.271
	C106.947,214.58,109.425,215.669,111.508,217.751"/>
<path id="path2899" fill="#6E5D63" d="M119.438,225.682l9.814,9.912l9.912-9.912l-9.912-9.914L119.438,225.682"/>
<path id="path2901" fill="#F2962A" d="M68.583,276.537l-8.03,7.929c-4.856,4.958-7.335,10.905-7.236,17.844
	c0.099,6.842,2.577,12.688,7.236,17.446c5.156,5.153,11.203,7.633,18.141,7.337c-0.099,7.037,2.379,13.085,7.336,18.041
	c4.857,4.857,10.706,7.334,17.447,7.434c6.939,0,12.887-2.379,17.942-7.434l7.832-7.832l-9.814-10.013l-7.93,8.028
	c-2.083,1.984-4.561,3.076-7.436,3.175c-3.172,0.1-5.848-0.991-8.128-3.175c-1.983-2.079-3.074-4.459-3.271-7.333
	c-0.1-3.173,0.991-5.849,3.271-8.229l0,0l7.929-7.93l-9.912-9.913l-7.931,7.931c-2.083,2.081-4.66,3.171-7.534,3.272
	c-3.072,0-5.749-0.992-7.93-3.272c-2.182-2.081-3.271-4.66-3.271-7.733c0-2.973,1.09-5.551,3.271-7.73l7.93-7.93L68.583,276.537"/>
<path id="path2903" fill="#BE5547" d="M78.497,286.45l9.913-9.913l-9.913-9.914l-9.913,9.914L78.497,286.45"/>
<path id="path2905" fill="#E13348" d="M88.41,276.537l-9.913,9.913l15.465,15.463l8.723-8.624l1.189-1.29L88.41,276.537"/>
<path id="path2907" fill="#F2962A" d="M78.497,266.623l9.913,9.914l15.464-15.565l-9.912-9.911L78.497,266.623"/>
<path id="path2909" fill="#E13348" d="M129.252,266.623l-15.465-15.563l-9.914,9.911l15.564,15.565L129.252,266.623"/>
<path id="path2911" fill="#6F5D59" d="M93.961,251.06l9.912,9.911l9.914-9.911l-9.914-9.914L93.961,251.06"/>
<path id="path2913" fill="#ED1248" d="M103.874,291.999L103.874,291.999L103.874,291.999L103.874,291.999z"/>
<path id="path2915" fill="#8E6258" d="M103.874,291.999l-1.189,1.29l-8.723,8.624l9.913,9.913l9.913-9.913L103.874,291.999"/>
<path id="path2917" fill="#5C5557" d="M119.438,276.537l9.814,9.913l9.912-9.913l-9.912-9.914L119.438,276.537"/>
<path id="path2919" fill="#F2962A" d="M129.252,286.45l-9.814-9.913l-15.564,15.462l9.914,9.914L129.252,286.45"/>
<path id="path2921" fill="#88AD6E" d="M129.252,317.375l-15.465-15.463l-9.914,9.913l15.564,15.463L129.252,317.375"/>
<path id="path2923" fill="#8B876A" d="M119.438,327.289l9.814,10.013l9.912-10.013l-9.912-9.913L119.438,327.289"/>
<path id="path2925" fill="#5A6B68" d="M154.728,311.826l9.913-9.913l-9.913-9.914l-9.913,9.914L154.728,311.826"/>
<path id="path2927" fill="#F2962A" d="M139.164,327.289l15.563-15.463l-9.913-9.913l-15.563,15.463L139.164,327.289"/>
</svg>
