<svg enable-background="new 39.301 186.534 180 180" height="180" viewBox="39.301 186.534 180 180" width="180" xmlns="http://www.w3.org/2000/svg"><path d="m180.701 239.857c2.874.199 5.253 1.289 7.334 3.271 2.281 2.28 3.371 4.957 3.272 8.129-.199 2.875-1.19 5.354-3.272 7.435l-8.029 7.931 9.913 9.914 8.029-7.932c4.958-4.957 7.436-10.904 7.337-17.942 0-6.741-2.479-12.59-7.337-17.447-5.054-4.956-11.003-7.335-18.14-7.335.297-6.841-2.082-12.888-7.236-18.043-4.857-4.757-10.607-7.235-17.447-7.334-7.038-.1-12.986 2.379-17.943 7.334l-7.93 7.931 9.912 9.914 7.931-7.931c2.18-2.181 4.758-3.271 7.831-3.271 2.974 0 5.552 1.09 7.732 3.271 2.181 2.181 3.272 4.857 3.172 7.931 0 2.874-1.091 5.451-3.172 7.533l-7.931 7.931 9.913 9.914 7.931-7.932c2.28-2.281 5.056-3.371 8.13-3.272" fill="#2982be"/><path d="m154.728 241.146-15.563-15.464-9.912 9.912 15.563 15.466z" fill="#e13348"/><path d="m154.728 291.999-15.563-15.462-9.912 9.913 15.563 15.463z" fill="#88ad6e"/><path d="m170.193 276.537-15.465 15.462 9.913 9.914 15.366-15.463z" fill="#2982be"/><path d="m154.728 260.971 15.465 15.565 9.813-9.914-15.366-15.563z" fill="#88ad6e"/><path d="m139.164 276.537 15.563-15.565-9.913-9.911-15.563 15.563z" fill="#2982be"/><path d="m154.728 260.971 9.913-9.911-9.913-9.914-9.913 9.914z" fill="#5c5557"/><path d="m180.006 286.45 8.029 7.93c2.083 1.981 3.074 4.459 3.272 7.436.098 3.07-.991 5.746-3.272 8.028-2.082 1.982-4.461 3.073-7.334 3.272-3.074.1-5.85-.895-8.129-3.272l-7.931-7.931-9.913 9.913 7.931 7.93c2.082 2.081 3.172 4.659 3.172 7.633.1 2.974-.991 5.65-3.172 7.929-2.18 2.086-4.758 3.175-7.732 3.175-3.073 0-5.651-1.089-7.831-3.175l-7.931-8.028-9.912 10.013 7.93 7.832c4.957 5.055 10.905 7.434 17.943 7.334 6.84-.098 12.589-2.477 17.447-7.334 5.155-5.056 7.533-11.102 7.236-18.041 7.137.098 13.086-2.381 18.14-7.337 4.858-4.857 7.337-10.706 7.337-17.446.099-6.938-2.379-12.886-7.337-17.844l-8.029-7.929z" fill="#88ad6e"/><path d="m180.006 286.45 9.913-9.913-9.913-9.914-9.813 9.914z" fill="#497167"/><path d="m119.438 225.682-15.564 15.464 9.914 9.914 15.465-15.466z" fill="#2982be"/><path d="m111.508 217.751 7.93 7.931 9.814-9.914-7.832-7.931c-5.055-4.955-11.003-7.434-17.942-7.334-6.741 0-12.589 2.577-17.447 7.334-4.957 4.958-7.435 11.005-7.336 18.043-6.938-.198-12.985 2.181-18.141 7.336-4.659 4.758-7.137 10.606-7.236 17.446-.099 6.939 2.379 12.985 7.236 17.942l8.03 7.932 9.913-9.914-7.93-7.931c-2.182-2.181-3.271-4.857-3.271-7.831 0-3.073 1.09-5.552 3.271-7.732 2.181-2.181 4.857-3.271 7.93-3.172 2.875 0 5.452 1.091 7.534 3.172l7.931 7.932 9.912-9.914-7.929-7.931c-2.281-2.279-3.371-5.056-3.271-8.128.198-2.974 1.289-5.354 3.271-7.336 2.28-2.28 4.956-3.271 8.128-3.271 2.874.1 5.352 1.189 7.435 3.271" fill="#e13348"/><path d="m119.438 225.682 9.814 9.912 9.912-9.912-9.912-9.914z" fill="#6e5d63"/><path d="m68.583 276.537-8.03 7.929c-4.856 4.958-7.335 10.905-7.236 17.844.099 6.842 2.577 12.688 7.236 17.446 5.156 5.153 11.203 7.633 18.141 7.337-.099 7.037 2.379 13.085 7.336 18.041 4.857 4.857 10.706 7.334 17.447 7.434 6.939 0 12.887-2.379 17.942-7.434l7.832-7.832-9.814-10.013-7.93 8.028c-2.083 1.984-4.561 3.076-7.436 3.175-3.172.1-5.848-.991-8.128-3.175-1.983-2.079-3.074-4.459-3.271-7.333-.1-3.173.991-5.849 3.271-8.229l7.929-7.93-9.912-9.913-7.931 7.931c-2.083 2.081-4.66 3.171-7.534 3.272-3.072 0-5.749-.992-7.93-3.272-2.182-2.081-3.271-4.66-3.271-7.733 0-2.973 1.09-5.551 3.271-7.73l7.93-7.93z" fill="#f2962a"/><path d="m78.497 286.45 9.913-9.913-9.913-9.914-9.913 9.914z" fill="#be5547"/><path d="m88.41 276.537-9.913 9.913 15.465 15.463 8.723-8.624 1.189-1.29z" fill="#e13348"/><path d="m78.497 266.623 9.913 9.914 15.464-15.565-9.912-9.911z" fill="#f2962a"/><path d="m129.252 266.623-15.465-15.563-9.914 9.911 15.564 15.565z" fill="#e13348"/><path d="m93.961 251.06 9.912 9.911 9.914-9.911-9.914-9.914z" fill="#6f5d59"/><path d="m103.874 291.999-1.189 1.29-8.723 8.624 9.913 9.913 9.913-9.913z" fill="#8e6258"/><path d="m119.438 276.537 9.814 9.913 9.912-9.913-9.912-9.914z" fill="#5c5557"/><path d="m129.252 286.45-9.814-9.913-15.564 15.462 9.914 9.914z" fill="#f2962a"/><path d="m129.252 317.375-15.465-15.463-9.914 9.913 15.564 15.463z" fill="#88ad6e"/><path d="m119.438 327.289 9.814 10.013 9.912-10.013-9.912-9.913z" fill="#8b876a"/><path d="m154.728 311.826 9.913-9.913-9.913-9.914-9.913 9.914z" fill="#5a6b68"/><path d="m139.164 327.289 15.563-15.463-9.913-9.913-15.563 15.463z" fill="#f2962a"/></svg>