<?xml version="1.0" encoding="utf-8"?>
<!-- Generator: Adobe Illustrator 16.0.0, SVG Export Plug-In . SVG Version: 6.00 Build 0)  -->
<!DOCTYPE svg PUBLIC "-//W3C//DTD SVG 1.1//EN" "http://www.w3.org/Graphics/SVG/1.1/DTD/svg11.dtd">
<svg version="1.1" id="Layer_1" xmlns="http://www.w3.org/2000/svg" xmlns:xlink="http://www.w3.org/1999/xlink" x="0px" y="0px"
	 width="55.6px" height="55.68px" viewBox="54 172.08 55.6 55.68" enable-background="new 54 172.08 55.6 55.68"
	 xml:space="preserve">
<radialGradient id="XMLID_2_" cx="-2.2207" cy="405.7031" r="1.5791" gradientTransform="matrix(36.6481 0 0 36.6481 137.5197 -14644.1514)" gradientUnits="userSpaceOnUse">
	<stop  offset="0" style="stop-color:#E5B86D"/>
	<stop  offset="1" style="stop-color:#A6700E"/>
</radialGradient>
<path id="XMLID_3_" fill="url(#XMLID_2_)" d="M56.72,194.96c0,4.88,0.72,9.521,3.28,13.28v-3.28c0-4.08,3.28-7.04,6.56-8.8
	C63.2,197.28,59.52,196.56,56.72,194.96z"/>
<radialGradient id="XMLID_4_" cx="-2.2324" cy="405.7178" r="1.5665" gradientTransform="matrix(36.4691 0 0 36.4691 137.7029 -14572.6016)" gradientUnits="userSpaceOnUse">
	<stop  offset="0" style="stop-color:#E5B86D"/>
	<stop  offset="1" style="stop-color:#A6700E"/>
</radialGradient>
<path id="XMLID_6_" fill="url(#XMLID_4_)" d="M62.96,187.92c-1.12,0-2.08,0.8-3.04,1.6c-1.2,0.96-2.32,1.92-3.84,1.44
	c0.96,0.72,2.16,0.88,3.6,0.8l0.32,0.16h0.64c1.04-0.24,2.24-1.52,3.44-1.52c2.32-0.32,5.28-0.72,6.96,1.36l-0.8-1.6
	c-2.16-0.08-4-0.96-5.92-1.92c-0.4-0.16-0.8-0.24-1.12-0.24L62.96,187.92z M60.72,190.56l-1.04,0.96h-1.04
	C58.4,190.96,60.24,189.76,60.72,190.56"/>
<radialGradient id="XMLID_5_" cx="-2.2339" cy="405.7256" r="1.5765" gradientTransform="matrix(36.4672 0 0 36.4672 137.6414 -14571.833)" gradientUnits="userSpaceOnUse">
	<stop  offset="0" style="stop-color:#E5B86D"/>
	<stop  offset="1" style="stop-color:#A6700E"/>
</radialGradient>
<path id="XMLID_7_" fill="url(#XMLID_5_)" d="M54,182.96c1.12,0.32,2.24,0.56,3.44,0.72c2.32-1.04,2.96-2.96,2-5.44
	c-1.28-2-3.28-3.12-5.44-3.68V182.96z"/>
<radialGradient id="XMLID_13_" cx="-2.2334" cy="405.7266" r="1.575" gradientTransform="matrix(36.4639 0 0 36.4639 137.6743 -14570.5186)" gradientUnits="userSpaceOnUse">
	<stop  offset="0" style="stop-color:#E5B86D"/>
	<stop  offset="1" style="stop-color:#A6700E"/>
</radialGradient>
<path id="XMLID_8_" fill="url(#XMLID_13_)" d="M65.36,202.561c-3.76,7.76,1.52,18.479-3.84,25.119H70c0.4-0.32,0.72-0.72,1.12-1.199
	c6.24-8.16-6-12.961-5.76-20.801c0.32-3.119,2-5.52,4.16-8.08l-0.24-0.24C67.28,199.28,66.48,200.641,65.36,202.561"/>
<radialGradient id="XMLID_14_" cx="-2.2344" cy="405.7256" r="1.5765" gradientTransform="matrix(36.4605 0 0 36.4605 137.6448 -14569.1719)" gradientUnits="userSpaceOnUse">
	<stop  offset="0" style="stop-color:#E5B86D"/>
	<stop  offset="1" style="stop-color:#A6700E"/>
</radialGradient>
<path id="XMLID_9_" fill="url(#XMLID_14_)" d="M81.76,172.16c8.32,6.4,13.68,16.48,13.76,27.76c0,11.36-5.36,21.36-13.76,27.76
	h27.84v-55.6H81.76V172.16z"/>
<radialGradient id="XMLID_15_" cx="-2.2295" cy="405.7178" r="1.5734" gradientTransform="matrix(36.5232 0 0 36.5232 137.6134 -14594.292)" gradientUnits="userSpaceOnUse">
	<stop  offset="0" style="stop-color:#E5B86D"/>
	<stop  offset="1" style="stop-color:#A6700E"/>
</radialGradient>
<path id="XMLID_10_" fill="url(#XMLID_15_)" d="M54,204.88v22.88h4.8l1.2-0.96C66.48,217.92,58.72,211.76,54,204.88z"/>
<radialGradient id="XMLID_18_" cx="-2.2339" cy="405.7246" r="1.5754" gradientTransform="matrix(36.461 0 0 36.461 137.6758 -14569.3643)" gradientUnits="userSpaceOnUse">
	<stop  offset="0" style="stop-color:#E5B86D"/>
	<stop  offset="1" style="stop-color:#A6700E"/>
</radialGradient>
<path id="XMLID_11_" fill="url(#XMLID_18_)" d="M54,172.16v0.88c1.36,0.24,2.64,0.56,3.76,1.12c2.64,1.6,4.72,4.16,4.48,7.28l6-0.56
	c0.8-1.92,1.12-4.96,0.4-6.48c-0.48-0.96-0.88-1.68-1.44-2.32H54V172.16z"/>
<radialGradient id="XMLID_19_" cx="-2.2534" cy="405.7598" r="1.5751" gradientTransform="matrix(36.193 0 0 36.193 137.8097 -14462.3125)" gradientUnits="userSpaceOnUse">
	<stop  offset="0" style="stop-color:#E5B86D"/>
	<stop  offset="1" style="stop-color:#A6700E"/>
</radialGradient>
<path id="XMLID_12_" fill="url(#XMLID_19_)" d="M69.84,172.16c1.2,1.68,1.28,3.84,1.44,5.76c2.32-1.76,5.2-2.8,8.24-2
	c-2.08-1.6-3.44-2.8-5.92-3.76H69.84z"/>
<radialGradient id="XMLID_20_" cx="-2.2368" cy="405.7305" r="1.5766" gradientTransform="matrix(36.423 0 0 36.423 137.6948 -14554.1465)" gradientUnits="userSpaceOnUse">
	<stop  offset="0" style="stop-color:#E5B86D"/>
	<stop  offset="1" style="stop-color:#A6700E"/>
</radialGradient>
<path id="XMLID_16_" fill="url(#XMLID_20_)" d="M74.96,201.439c-1.76,0.48-3.44-0.64-5.2-0.959c0-0.24-0.08-0.48,0.08-0.64
	c-2.56,1.6-1.84,4.641-2.32,7.12c0.64,2.72,3.52,3.761,5.52,5.36c2.96,0.56,5.68-0.801,8.24-1.76c0.4,0.399,1.04,0.799,0.72,1.439
	c-2,2.8-5.04,4.08-8.48,3.76c2.08,3.92,0.64,8.48-1.52,12h2.08c6.16-2.88,12.08-7.119,12.56-15.439c0.64-5.2,0.24-10.641-3.52-14.32
	c-0.24,0-0.48,0-0.8,0c-0.64,0-1.28,0.08-1.76-0.56C78.88,199.04,76.64,199.68,74.96,201.439 M76.08,201.439
	c1.12-1.199,4.16-3.439,5.2-2.64c0.24,0.24,0.4,0.96,0.32,1.68l-0.56,1.28l-0.56-1.6c-1.44,0.32-2.88,0.88-3.6,2.32
	c-0.08,0.399,0.08,1.279-0.32,1.6C75.6,203.84,76.16,202.24,76.08,201.439 M81.04,207.28c1.12,4.079-3.68,3.36-5.76,4.479
	c-0.8-0.64-0.4-1.68-0.56-2.479l0.56-0.56c0.56,1.6,1.52,0.959,2.56,0.399c0.64-0.32,1.28-0.72,1.92-0.56
	C80.56,208.24,80.24,207.12,81.04,207.28"/>
<radialGradient id="XMLID_21_" cx="-2.2368" cy="405.7305" r="1.5781" gradientTransform="matrix(36.4349 0 0 36.4349 137.6576 -14558.8877)" gradientUnits="userSpaceOnUse">
	<stop  offset="0" style="stop-color:#E5B86D"/>
	<stop  offset="1" style="stop-color:#A6700E"/>
</radialGradient>
<path id="XMLID_17_" fill="url(#XMLID_21_)" d="M76.88,177.36c-2.72,0.16-5.36,2.16-6.4,3.76c1.92,1.04,4,2.64,5.76,4.32
	c-0.08,0.64,0.32,1.44-0.56,1.76c-0.96-0.72-1.76-2.64-2.96-2c0.96,2,3.44,2.16,5.44,2.72c0.72,0.72,0.56,2,2.08,1.44
	c0.72,0.24,1.04,1.04,1.28,1.76c-0.8,1.52-2.64,1.36-4.32,1.28c-0.8-0.08-1.68-0.16-2.24,0c1.6,0.64,3.36,0.8,4.8,1.76
	c1.44,0.96,1.92-1.28,2.48-2c2.48,0.64,1.12,3.2,2.16,4.72c5.36,5.521,4.32,15.28,1.6,21.681c7.28-6.721,6.72-21.601,5.04-27.601
	c-1.68-5.84-6.8-13.6-13.68-13.6C77.2,177.36,77.04,177.36,76.88,177.36"/>
<radialGradient id="XMLID_22_" cx="-1.3242" cy="405.0645" r="1.5774" gradientTransform="matrix(36.7796 0 0 36.7796 194.0477 -14736.167)" gradientUnits="userSpaceOnUse">
	<stop  offset="0" style="stop-color:#E5B86D"/>
	<stop  offset="0.2582" style="stop-color:#E5B86D"/>
	<stop  offset="1" style="stop-color:#A6700E"/>
</radialGradient>
<path id="XMLID_23_" fill="url(#XMLID_22_)" d="M81.76,172.16c4.32,3.28,7.84,7.6,10.24,12.56c5.52,2.56,11.36,6,17.6,10.32v-22.8
	H81.76V172.16z M69.84,172.16c1.2,1.68,1.28,3.84,1.44,5.76c2.32-1.76,5.2-2.8,8.24-2c-2.08-1.6-3.44-2.8-5.92-3.76H69.84z
	 M54,172.16v0.88c1.36,0.24,2.64,0.56,3.76,1.12c1.76,1.04,3.28,2.56,4,4.4c2.32-0.24,4.64-0.32,7.12-0.16
	c0.24-1.44,0.16-2.96-0.24-3.92c-0.48-0.96-0.88-1.68-1.44-2.32H54z M54,180.08c1.84-0.56,3.68-0.96,5.6-1.28
	c-0.08-0.16-0.08-0.4-0.16-0.56c-1.28-2-3.28-3.2-5.44-3.68V180.08z M76.88,177.36c-1.44,0.08-2.8,0.64-3.92,1.36
	c4.24,0.64,8.8,1.76,13.6,3.6c-2.4-2.88-5.52-5.04-9.12-5.04C77.2,177.36,77.04,177.36,76.88,177.36"/>
<radialGradient id="XMLID_24_" cx="-0.5698" cy="403.5664" r="1.5777" gradientTransform="matrix(65.229 0 0 65.229 175.073 -26074.543)" gradientUnits="userSpaceOnUse">
	<stop  offset="0" style="stop-color:#E5B86D"/>
	<stop  offset="1" style="stop-color:#A6700E"/>
</radialGradient>
<path id="XMLID_28_" fill="url(#XMLID_24_)" d="M91.68,215.84c-2.4,4.641-5.76,8.721-9.92,11.84h27.84v-38.56
	C105.44,199.04,99.84,209.52,91.68,215.84 M54,227.76h4.8l1.2-0.96c1.84-2.56,2.56-4.8,2.48-7.04c-2.64-0.96-5.44-2.16-8.4-3.76
	v11.76H54z M74.32,221.92c-0.4,2.08-1.28,4.08-2.4,5.76H74c3.84-1.76,7.52-4.08,9.92-7.439C81.04,221.359,77.84,221.92,74.32,221.92
	 M61.44,227.76h8.48c0.4-0.32,0.72-0.72,1.12-1.199c1.28-1.681,1.76-3.201,1.76-4.641c-2.72-0.16-5.68-0.64-8.8-1.68
	C63.84,223.04,63.2,225.6,61.44,227.76"/>
<linearGradient id="XMLID_25_" gradientUnits="userSpaceOnUse" x1="-443.7383" y1="1252.3965" x2="-442.1617" y2="1252.3965" gradientTransform="matrix(0.2134 0 0 0.2134 164.2169 -67.2719)">
	<stop  offset="0" style="stop-color:#E5B86D"/>
	<stop  offset="1" style="stop-color:#A6700E"/>
</linearGradient>
<path id="XMLID_29_" fill="url(#XMLID_25_)" d="M69.52,200.08v0.08l0.24,0.08c0-0.16,0-0.32,0.08-0.4L69.52,200.08z"/>
<linearGradient id="XMLID_26_" gradientUnits="userSpaceOnUse" x1="-27.2876" y1="455.9736" x2="-25.7115" y2="455.9736" gradientTransform="matrix(3.3322 0 0 3.3322 166.5311 -1311.0815)">
	<stop  offset="0" style="stop-color:#E5B86D"/>
	<stop  offset="1" style="stop-color:#A6700E"/>
</linearGradient>
<path id="XMLID_30_" fill="url(#XMLID_26_)" d="M79.52,208.24c-0.64-0.08-1.28,0.24-1.92,0.56c-0.72,0.4-1.44,0.8-2,0.48
	c0.56,0.8,1.36,0.319,2.24-0.24c0.64-0.319,1.28-0.72,1.92-0.56c0.64-0.32,0.48-1.28,1.04-1.28l-0.08-0.24h-0.16
	C80,206.96,80.24,208,79.52,208.24"/>
<linearGradient id="XMLID_27_" gradientUnits="userSpaceOnUse" x1="-970.7964" y1="2264.25" x2="-969.2197" y2="2264.25" gradientTransform="matrix(0.0975 0 0 0.0975 164.4878 -21.0097)">
	<stop  offset="0" style="stop-color:#E5B86D"/>
	<stop  offset="1" style="stop-color:#A6700E"/>
</linearGradient>
<path id="XMLID_31_" fill="url(#XMLID_27_)" d="M69.84,199.84l0.16-0.08L69.84,199.84z"/>
<linearGradient id="XMLID_55_" gradientUnits="userSpaceOnUse" x1="-208.7036" y1="817.748" x2="-207.1284" y2="817.748" gradientTransform="matrix(0.4446 0 0 0.4446 167.2785 -153.5377)">
	<stop  offset="0" style="stop-color:#E5B86D"/>
	<stop  offset="1" style="stop-color:#A6700E"/>
</linearGradient>
<path id="XMLID_32_" fill="url(#XMLID_55_)" d="M75.04,208.48l-0.56,0.56c0.08,0.8-0.32,1.92,0.56,2.479l0,0
	c-0.48-0.64-0.16-1.52-0.24-2.239l0.4-0.4C75.12,208.8,75.12,208.641,75.04,208.48L75.04,208.48z"/>
<linearGradient id="XMLID_56_" gradientUnits="userSpaceOnUse" x1="-26.3892" y1="453.4443" x2="-24.8126" y2="453.4443" gradientTransform="matrix(3.4422 0 0 3.4422 166.5543 -1359.7852)">
	<stop  offset="0" style="stop-color:#E5B86D"/>
	<stop  offset="1" style="stop-color:#A6700E"/>
</linearGradient>
<path id="XMLID_33_" fill="url(#XMLID_56_)" d="M75.76,201.2c0.08,0.8-0.32,2.239,0.32,2.56c-0.24-0.48,0-1.68-0.08-2.32
	c1.04-1.12,4-3.359,5.12-2.64l0,0c-0.16-0.24-0.4-0.4-0.8-0.4C79.04,198.4,76.72,200.16,75.76,201.2"/>
<linearGradient id="XMLID_57_" gradientUnits="userSpaceOnUse" x1="-267.3936" y1="937.5488" x2="-265.8167" y2="937.5488" gradientTransform="matrix(0.3392 0 0 0.3392 171.0111 -117.1367)">
	<stop  offset="0" style="stop-color:#E5B86D"/>
	<stop  offset="1" style="stop-color:#A6700E"/>
</linearGradient>
<polygon id="XMLID_34_" fill="url(#XMLID_57_)" points="80.32,200.24 80.72,201.6 80.8,201.28 80.48,200.16 "/>
<linearGradient id="XMLID_58_" gradientUnits="userSpaceOnUse" x1="-126.9512" y1="642.4307" x2="-125.3745" y2="642.4307" gradientTransform="matrix(0.7306 0 0 0.7306 166.9189 -283.2258)">
	<stop  offset="0" style="stop-color:#E5B86D"/>
	<stop  offset="1" style="stop-color:#A6700E"/>
</linearGradient>
<path id="XMLID_35_" fill="url(#XMLID_58_)" d="M74.16,185.52c0.4,0.4,0.8,0.96,1.12,1.28C74.96,186.4,74.56,185.92,74.16,185.52z"
	/>
<linearGradient id="XMLID_59_" gradientUnits="userSpaceOnUse" x1="-80.4639" y1="558.1602" x2="-78.8873" y2="558.1602" gradientTransform="matrix(1.1286 0 0 1.1286 169.7677 -440.5576)">
	<stop  offset="0" style="stop-color:#E5B86D"/>
	<stop  offset="1" style="stop-color:#A6700E"/>
</linearGradient>
<path id="XMLID_36_" fill="url(#XMLID_59_)" d="M78.96,189.12c0.24,0.32,0.56,0.56,1.36,0.24c0.16,0.08,0.32,0.16,0.4,0.24
	c-0.16-0.24-0.4-0.4-0.72-0.48C79.52,189.28,79.2,189.28,78.96,189.12"/>
<linearGradient id="XMLID_60_" gradientUnits="userSpaceOnUse" x1="-26.6914" y1="451.0508" x2="-25.1152" y2="451.0508" gradientTransform="matrix(3.4742 0 0 3.4742 163.2278 -1383.9402)">
	<stop  offset="0" style="stop-color:#E5B86D"/>
	<stop  offset="1" style="stop-color:#A6700E"/>
</linearGradient>
<path id="XMLID_37_" fill="url(#XMLID_60_)" d="M70.48,181.12c1.76,0.96,3.76,2.48,5.44,4l0,0c-1.68-1.6-3.6-3.04-5.44-4.08V181.12z
	"/>
<linearGradient id="XMLID_61_" gradientUnits="userSpaceOnUse" x1="-19.9517" y1="442.248" x2="-18.3751" y2="442.248" gradientTransform="matrix(4.3535 0 0 4.3535 172.2021 -1725.5378)">
	<stop  offset="0" style="stop-color:#E5B86D"/>
	<stop  offset="1" style="stop-color:#A6700E"/>
</linearGradient>
<path id="XMLID_38_" fill="url(#XMLID_61_)" d="M85.36,181.04c2.64,2.72,4.56,6.48,5.52,9.68c1.68,5.84,2.24,20-4.4,26.959
	c-0.08,0.32-0.24,0.641-0.32,0.881c7.28-6.721,6.72-21.601,5.04-27.601C90.16,187.68,88.16,183.84,85.36,181.04L85.36,181.04z"/>
<linearGradient id="XMLID_62_" gradientUnits="userSpaceOnUse" x1="-11.2046" y1="423.3623" x2="-9.628" y2="423.3623" gradientTransform="matrix(8.127 0 0 8.127 159.7607 -3229.824)">
	<stop  offset="0" style="stop-color:#E5B86D"/>
	<stop  offset="1" style="stop-color:#A6700E"/>
</linearGradient>
<path id="XMLID_39_" fill="url(#XMLID_62_)" d="M68.72,209.2c1.2,1.28,2.96,2.08,4.32,3.12c2.96,0.56,5.68-0.801,8.24-1.76
	l0.24,0.239c-0.16-0.159-0.32-0.319-0.48-0.479c-2.64,0.959-5.36,2.32-8.24,1.76C71.52,211.04,69.92,210.32,68.72,209.2L68.72,209.2
	z"/>
<linearGradient id="XMLID_63_" gradientUnits="userSpaceOnUse" x1="-29.748" y1="457.8213" x2="-28.1719" y2="457.8213" gradientTransform="matrix(3.089 0 0 3.089 165.1996 -1227.2679)">
	<stop  offset="0" style="stop-color:#E5B86D"/>
	<stop  offset="1" style="stop-color:#A6700E"/>
</linearGradient>
<path id="XMLID_40_" fill="url(#XMLID_63_)" d="M73.28,186c1.12,1.28,3.2,1.52,4.88,1.92l-0.24-0.24c-0.64-0.16-1.44-0.32-2.16-0.48
	l-0.08,0.08l-0.16-0.08C74.72,186.88,73.92,186.56,73.28,186L73.28,186z"/>
<linearGradient id="XMLID_64_" gradientUnits="userSpaceOnUse" x1="-22.1108" y1="442.4541" x2="-20.5346" y2="442.4541" gradientTransform="matrix(4.353 0 0 4.353 155.9133 -1723.8184)">
	<stop  offset="0" style="stop-color:#E5B86D"/>
	<stop  offset="1" style="stop-color:#A6700E"/>
</linearGradient>
<path id="XMLID_41_" fill="url(#XMLID_64_)" d="M65.2,196.56c-2.96,1.84-5.6,4.56-5.6,8.161v3.119l0.24,0.4v-3.28
	c0-4.08,3.28-7.04,6.56-8.8C66.08,196.32,65.68,196.48,65.2,196.56"/>
<linearGradient id="XMLID_65_" gradientUnits="userSpaceOnUse" x1="-154.1021" y1="692.0605" x2="-152.5264" y2="692.0605" gradientTransform="matrix(0.6122 0 0 0.6122 164.3316 -232.7871)">
	<stop  offset="0" style="stop-color:#E5B86D"/>
	<stop  offset="1" style="stop-color:#A6700E"/>
</linearGradient>
<polygon id="XMLID_42_" fill="url(#XMLID_65_)" points="70,190.16 70.64,191.36 70.96,191.76 70.96,191.76 70.16,190.16 70,190.08 
	"/>
<linearGradient id="XMLID_66_" gradientUnits="userSpaceOnUse" x1="-13.0884" y1="426.4023" x2="-11.5118" y2="426.4023" gradientTransform="matrix(7.1949 0 0 7.1949 155.6408 -2855.3933)">
	<stop  offset="0" style="stop-color:#E5B86D"/>
	<stop  offset="1" style="stop-color:#A6700E"/>
</linearGradient>
<path id="XMLID_43_" fill="url(#XMLID_66_)" d="M68.56,198.08c-1.92,2.32-3.28,4.48-3.6,7.359c-0.24,7.841,12,12.641,5.76,20.801
	c-0.32,0.48-0.72,0.8-1.04,1.199h-8l-0.24,0.24h8.48c0.4-0.32,0.72-0.72,1.12-1.199c6.24-8.16-6-12.961-5.76-20.801
	c0.32-3.119,2-5.52,4.16-8.08l-0.24-0.24C69.04,197.68,68.8,197.92,68.56,198.08"/>
<linearGradient id="XMLID_67_" gradientUnits="userSpaceOnUse" x1="-22.2988" y1="441.041" x2="-20.7221" y2="441.041" gradientTransform="matrix(4.2758 0 0 4.2758 157.5886 -1709.021)">
	<stop  offset="0" style="stop-color:#E5B86D"/>
	<stop  offset="1" style="stop-color:#A6700E"/>
</linearGradient>
<path id="XMLID_44_" fill="url(#XMLID_67_)" d="M67.12,172.16c0.4,0.56,0.8,1.2,1.2,2c0.72,1.52,0.4,4.56-0.4,6.48l-5.68,0.48v0.32
	l6-0.56c0.8-1.92,1.12-4.96,0.4-6.48C68.16,173.44,67.68,172.72,67.12,172.16L67.12,172.16z"/>
<linearGradient id="XMLID_68_" gradientUnits="userSpaceOnUse" x1="-18.3003" y1="435.6289" x2="-16.7237" y2="435.6289" gradientTransform="matrix(5.3454 0 0 5.3454 151.8312 -2112.3486)">
	<stop  offset="0" style="stop-color:#E5B86D"/>
	<stop  offset="1" style="stop-color:#A6700E"/>
</linearGradient>
<path id="XMLID_45_" fill="url(#XMLID_68_)" d="M54,204.88v0.08c4.72,6.8,12.08,12.88,5.68,21.521l-1.2,0.959H54v0.24h4.8l1.2-0.959
	C66.48,217.92,58.72,211.76,54,204.88L54,204.88z"/>
<linearGradient id="XMLID_69_" gradientUnits="userSpaceOnUse" x1="-9.4697" y1="420.3047" x2="-7.8936" y2="420.3047" gradientTransform="matrix(9.4198 0 0 9.4198 161.2041 -3746.3262)">
	<stop  offset="0" style="stop-color:#E5B86D"/>
	<stop  offset="1" style="stop-color:#A6700E"/>
</linearGradient>
<path id="XMLID_46_" fill="url(#XMLID_69_)" d="M83.04,198c3.52,3.68,3.92,8.96,3.28,14.08c-0.4,8.24-6.32,12.561-12.56,15.439h-1.6
	L72,227.76h2.08c6.16-2.88,12.08-7.119,12.56-15.439C87.2,207.12,86.8,201.68,83.04,198L83.04,198z"/>
<linearGradient id="XMLID_70_" gradientUnits="userSpaceOnUse" x1="-4.625" y1="410.8145" x2="-3.0484" y2="410.8145" gradientTransform="matrix(17.632 0 0 17.632 163.309 -7043.4917)">
	<stop  offset="0" style="stop-color:#E5B86D"/>
	<stop  offset="1" style="stop-color:#A6700E"/>
</linearGradient>
<polygon id="XMLID_47_" fill="url(#XMLID_70_)" points="109.28,172.16 109.28,227.439 82.16,227.439 81.76,227.76 109.6,227.76 
	109.6,172.16 "/>
<linearGradient id="XMLID_71_" gradientUnits="userSpaceOnUse" x1="-26.7168" y1="447.792" x2="-25.1401" y2="447.792" gradientTransform="matrix(3.6926 0 0 3.6926 152.6576 -1473.2949)">
	<stop  offset="0" style="stop-color:#E5B86D"/>
	<stop  offset="1" style="stop-color:#A6700E"/>
</linearGradient>
<path id="XMLID_48_" fill="url(#XMLID_71_)" d="M59.12,177.92c0.96,2.48,0.32,4.4-2,5.44c-1.04-0.16-2.08-0.32-3.12-0.64v0.24
	c1.12,0.32,2.24,0.56,3.44,0.72c2.32-1.04,2.96-2.96,2-5.44c-0.32-0.56-0.8-1.04-1.2-1.44C58.56,177.12,58.88,177.52,59.12,177.92"
	/>
<linearGradient id="XMLID_72_" gradientUnits="userSpaceOnUse" x1="-10.4263" y1="420.0469" x2="-8.8486" y2="420.0469" gradientTransform="matrix(9.1286 0 0 9.1286 151.2482 -3643.6289)">
	<stop  offset="0" style="stop-color:#E5B86D"/>
	<stop  offset="1" style="stop-color:#A6700E"/>
</linearGradient>
<path id="XMLID_49_" fill="url(#XMLID_72_)" d="M63.76,190.08c-1.52,0-3.04,2-4.24,1.44h-0.88v-0.08c-0.8,0-1.6-0.16-2.24-0.48
	l-0.32-0.08c0.96,0.72,2.16,0.88,3.6,0.8l0.32,0.16h0.64c1.04-0.24,2.24-1.52,3.44-1.52c2.08-0.32,4.72-0.64,6.4,0.88
	c-1.04-1.12-2.48-1.44-3.92-1.44C65.6,189.84,64.56,189.92,63.76,190.08"/>
<linearGradient id="XMLID_73_" gradientUnits="userSpaceOnUse" x1="-40.813" y1="479.2598" x2="-39.2363" y2="479.2598" gradientTransform="matrix(2.1866 0 0 2.1866 171.0297 -874.2883)">
	<stop  offset="0" style="stop-color:#E5B86D"/>
	<stop  offset="1" style="stop-color:#A6700E"/>
</linearGradient>
<path id="XMLID_50_" fill="url(#XMLID_73_)" d="M81.76,172.16c1.2,0.96,2.4,1.92,3.44,3.04C84.16,174.08,83.04,173.12,81.76,172.16
	L81.76,172.16z"/>
<linearGradient id="XMLID_74_" gradientUnits="userSpaceOnUse" x1="-17.2954" y1="434.8818" x2="-15.7188" y2="434.8818" gradientTransform="matrix(5.216 0 0 5.216 165.2123 -2075.1487)">
	<stop  offset="0" style="stop-color:#E5B86D"/>
	<stop  offset="1" style="stop-color:#A6700E"/>
</linearGradient>
<path id="XMLID_51_" fill="url(#XMLID_74_)" d="M79.52,193.92c-1.28-0.8-2.8-1.12-4.24-1.52l-0.32,0.08c1.6,0.64,3.36,0.8,4.8,1.76
	c1.44,0.96,1.92-1.28,2.48-2c0.4,0.08,0.64,0.24,0.88,0.4c-0.24-0.32-0.64-0.56-1.2-0.72C81.44,192.72,80.96,194.88,79.52,193.92"/>
<linearGradient id="XMLID_75_" gradientUnits="userSpaceOnUse" x1="-17.3965" y1="433.4209" x2="-15.8199" y2="433.4209" gradientTransform="matrix(5.264 0 0 5.264 162.7742 -2104.8882)">
	<stop  offset="0" style="stop-color:#E5B86D"/>
	<stop  offset="1" style="stop-color:#A6700E"/>
</linearGradient>
<path id="XMLID_52_" fill="url(#XMLID_75_)" d="M71.2,177.44c0,0.16,0,0.32,0,0.48c2.32-1.76,5.2-2.8,8.24-2l-0.4-0.32
	c-0.72-0.16-1.36-0.24-2-0.24C74.88,175.36,72.88,176.24,71.2,177.44"/>
<linearGradient id="XMLID_76_" gradientUnits="userSpaceOnUse" x1="-74.5732" y1="535.8691" x2="-72.9965" y2="535.8691" gradientTransform="matrix(1.3178 0 0 1.3178 156.5716 -515.549)">
	<stop  offset="0" style="stop-color:#E5B86D"/>
	<stop  offset="1" style="stop-color:#A6700E"/>
</linearGradient>
<path id="XMLID_53_" fill="url(#XMLID_76_)" d="M58.32,191.2h0.32c0.24-0.48,1.12-1.04,1.68-0.88l0.08-0.08l0,0
	c-0.08-0.16-0.32-0.24-0.56-0.24C59.12,190,58.16,190.8,58.32,191.2"/>
<linearGradient id="XMLID_77_" gradientUnits="userSpaceOnUse" x1="-26.9536" y1="447.5938" x2="-25.377" y2="447.5938" gradientTransform="matrix(3.6608 0 0 3.6608 152.6735 -1464.3087)">
	<stop  offset="0" style="stop-color:#E5B86D"/>
	<stop  offset="1" style="stop-color:#A6700E"/>
</linearGradient>
<path id="XMLID_54_" fill="url(#XMLID_77_)" d="M54,173.04c1.36,0.24,2.64,0.56,3.76,1.12c0.72,0.4,1.44,0.96,2,1.52
	c-0.64-0.72-1.44-1.36-2.32-1.84c-1.04-0.48-2.24-0.8-3.44-1.04V173.04z"/>
</svg>
