<svg enable-background="new 0 0 500 500" viewBox="0 0 500 500" xmlns="http://www.w3.org/2000/svg"><g fill="#d30e2c"><path d="m420.4 250.1c.8 2.7 3.7 2.9 4.5-.6.8-4.3-2.9-7.6-7.4-9-9.8-2.9-23.4 7.4-14.8 19.3 4.1 5.5 10.5 6.4 15.2 9.8 1.8 1.2 10.3 7.8.6 17.6-7.2 7.4-21.1 3.9-21.9-4.5-.2-2.1 2.1-2 1-7-.6-2.7-6.4-2.7-7.8 2.5-.6 3.5-.6 12.1 11.3 17.6 16.6 8 38.8-8.4 28.9-23.2-6.4-9.4-19.9-12.5-22.3-18.3-3.1-7.5 10.7-10.5 12.7-4.2m-263.5 36.7c-2-7.8-.6-23.8.6-33.2 2.1-17 7-26.4 7-36.5 0-4.9-1.4-14.8-11.9-15.2-26-.8-35.5 62.1-36.7 70.9-.6-3.9-.2-27.3-2-44.1-3.1-24.8-8.6-26.4-13.9-26.7-19.3-1.4-20.5 35.7-20.3 71.2 0-7.2.8-22.1-5.9-29.5-3.5-3.9-8.8-3.5-5.3 1.6l1.4 2.5c6.6 9.8 5.3 50.4 12.1 50 2.1 0 5.5-1 5.1-10-.8-27.3 1.4-76.1 10.5-76.1 10 0 7.8 48.4 10.7 67.3 1.6 9.6 11.7 10.3 14.6-3.3 4.1-18.2 4.3-29.9 13.3-48.8 12.1-25.4 22.1-17 17.6.6-2 9-9.4 30.6-5.9 55.6 1.2 7.2 5.9 16.4 9.4 14.4 2-1 1-4.5-.6-10.5m15.4-38.5c-2.5 2-10.7 19.3-7.2 36.7 3.5 14.6 13.7 18.3 24.8 4.9 6.4 13.7 28.5 7.4 40-9.4.8 8 1.4 9.4 1.6 10 1 4.9 6.4 6.8 7.8 2.7 1.2-3.7 5.5-21.9 15.8-32.6 2.7-2.7 12.1-6.6 9.6 3.3-.6 2.5-4.9 17.4-4.9 24 .2 6.6 2.3 12.5 6.8 9.8 2-1.4 1.2-7 1-10.3-1.2-14.4 3.5-21.5 5.9-27.3 2.1-6.1.6-13.3-9.6-11.7-10.7 1.6-21.5 14.1-26.7 29.9 0-25.2 13.5-50.2 22.3-71.6 1.4-2.5-4.3-8.8-10.3-2.3-9.9 19-16.2 39.6-18.5 60.9-.4 3.1-5.1 15.6-12.3 21.1-7.2 5.3-19.5 7.8-19.5-5.3-.4-13.3 7-25 12.5-27.3 3.1-1.2 4.5 1.4 5.9 2.9 1.8 2 8.6 3.3 8.4-2.9 0-6.4-7.2-11.7-17.4-6.8-14.4 7.2-18.7 24.2-19.9 31.2-1.6 9.4-5.3 13.5-6.1 14.1-1 .6-6.6 6.2-7.4-7-.4-8.6 2-17.6 4.3-23.8l2.5-7.4c.6-3.1-1.4-6-4.4-6.7-1.9-.6-3.7-.2-5 .9"/><path d="m182.5 229.6c-3.9.4-8.4 5.5-5.7 10.9 1.6 2.3 3.9 2.9 6.2 2 2.1-.8 5.9-4.5 5.9-7.8 0-3.4-2-5.5-6.4-5.1m128.2 27.3c.6 1.4 3.3 2 4.1-1.4 1-3.5-2-12.3-8.8-12.5-6.6-.2-11.7 3.5-17 9-4.5 5.1-18 23.8-17.2 37.7.6 7.2 7.2 9.8 15 5.5 9.4-5.5 16-15.6 17.6-17.6 0 12.1 10.3 19.9 22.6 8.4 1.7 3.4 4.2 6.4 7.2 8.8 9 5.9 24.8 4.9 36.5-13.7 2.3 8.8 3.9 12.1 4.7 13.7 2.3 4.7 7 5.5 7.4-.6.2-2-2-6.4-3.5-12.5-4.7-17.6-11.3-48 3.5-68.5 6.2-7 12.9-8.8 13.7-.8.6 4.5-.2 24-14.6 50-2.1 4.5 2.3 5.9 3.7 2.7 2-4.7 20.7-33.2 20.3-52.3-.4-11.5-17.2-17.6-29.3-2-11.7 14.6-12.5 43.7-8.4 60.1-7.8 14.2-16.4 25.8-27.5 20.1-11.7-7.4-8-32.4-.4-37.9 5.3-3.7 8.6.6 5.7 5.9-3.9 7.2-6.6 8.4-9 10.2-3.3 2.5-1.2 5.9 2 4.7 9.2-3.3 13.7-10.7 15.6-16.8 5.1-16.4-15-22.3-25-3.5-7 12.7-4.3 23.8-4.3 25.4-2.1 2.3-9 11.3-10 5.3-1.2-5.9.6-15.4 1-18 1-6.8-5.9-9.6-9.8-3.7-3.9 6.2-11.9 22.6-21.5 27.3-9.4 4.9-.8-22.8 6.2-30.8 4.3-5.3 10.9-10.9 17.6-4.3 1.1 1.1 1.3.7 1.9 2.1m118.5-16.2h.2c.4 0 .8 0 .8-.4 0-.2-.2-.4-.6-.4h-.4zm0 1.8h-.8v-2.9h2.1l.2.8c0 .2 0 .6-.6.6.4 0 .6.4.6.8l.2.8h-.6l-.4-.8c0-.2 0-.4-.6-.4h-.2zm.4-3.9c-1.2 0-2.1 1-2.1 2.3s1 2.3 2.1 2.3c1.4 0 2.1-1 2.1-2.3s-.8-2.3-2.1-2.3zm0-.6c1.8 0 2.9 1.4 2.9 2.9s-1.2 2.9-2.9 2.9c-1.6 0-2.9-1.4-2.9-2.9s1.3-2.9 2.9-2.9z"/></g></svg>