<?xml version="1.0" encoding="utf-8"?>
<!-- Generator: Adobe Illustrator 19.0.0, SVG Export Plug-In . SVG Version: 6.00 Build 0)  -->
<svg version="1.1" id="Layer_1" xmlns="http://www.w3.org/2000/svg" xmlns:xlink="http://www.w3.org/1999/xlink" x="0px" y="0px"
	 viewBox="0 0 500 500" style="enable-background:new 0 0 500 500;" xml:space="preserve">
<style type="text/css">
	.st0{fill:#D30E2C;}
</style>
<g id="XMLID_1_">
	<path id="XMLID_6_" class="st0" d="M420.4,250.1c0.8,2.7,3.7,2.9,4.5-0.6c0.8-4.3-2.9-7.6-7.4-9c-9.8-2.9-23.4,7.4-14.8,19.3
		c4.1,5.5,10.5,6.4,15.2,9.8c1.8,1.2,10.3,7.8,0.6,17.6c-7.2,7.4-21.1,3.9-21.9-4.5c-0.2-2.1,2.1-2,1-7c-0.6-2.7-6.4-2.7-7.8,2.5
		c-0.6,3.5-0.6,12.1,11.3,17.6c16.6,8,38.8-8.4,28.9-23.2c-6.4-9.4-19.9-12.5-22.3-18.3C404.6,246.8,418.4,243.8,420.4,250.1
		 M156.9,286.8c-2-7.8-0.6-23.8,0.6-33.2c2.1-17,7-26.4,7-36.5c0-4.9-1.4-14.8-11.9-15.2c-26-0.8-35.5,62.1-36.7,70.9
		c-0.6-3.9-0.2-27.3-2-44.1c-3.1-24.8-8.6-26.4-13.9-26.7c-19.3-1.4-20.5,35.7-20.3,71.2c0-7.2,0.8-22.1-5.9-29.5
		c-3.5-3.9-8.8-3.5-5.3,1.6l1.4,2.5c6.6,9.8,5.3,50.4,12.1,50c2.1,0,5.5-1,5.1-10c-0.8-27.3,1.4-76.1,10.5-76.1
		c10,0,7.8,48.4,10.7,67.3c1.6,9.6,11.7,10.3,14.6-3.3c4.1-18.2,4.3-29.9,13.3-48.8c12.1-25.4,22.1-17,17.6,0.6
		c-2,9-9.4,30.6-5.9,55.6c1.2,7.2,5.9,16.4,9.4,14.4c2-1,1-4.5-0.6-10.5 M172.1,248.5c-2.5,2-10.7,19.3-7.2,36.7
		c3.5,14.6,13.7,18.3,24.8,4.9c6.4,13.7,28.5,7.4,40-9.4c0.8,8,1.4,9.4,1.6,10c1,4.9,6.4,6.8,7.8,2.7c1.2-3.7,5.5-21.9,15.8-32.6
		c2.7-2.7,12.1-6.6,9.6,3.3c-0.6,2.5-4.9,17.4-4.9,24c0.2,6.6,2.3,12.5,6.8,9.8c2-1.4,1.2-7,1-10.3c-1.2-14.4,3.5-21.5,5.9-27.3
		c2.1-6.1,0.6-13.3-9.6-11.7c-10.7,1.6-21.5,14.1-26.7,29.9c0-25.2,13.5-50.2,22.3-71.6c1.4-2.5-4.3-8.8-10.3-2.3
		c-9.9,19-16.2,39.6-18.5,60.9c-0.4,3.1-5.1,15.6-12.3,21.1c-7.2,5.3-19.5,7.8-19.5-5.3c-0.4-13.3,7-25,12.5-27.3
		c3.1-1.2,4.5,1.4,5.9,2.9c1.8,2,8.6,3.3,8.4-2.9c0-6.4-7.2-11.7-17.4-6.8c-14.4,7.2-18.7,24.2-19.9,31.2
		c-1.6,9.4-5.3,13.5-6.1,14.1c-1,0.6-6.6,6.2-7.4-7c-0.4-8.6,2-17.6,4.3-23.8l2.5-7.4c0.6-3.1-1.4-6-4.4-6.7
		C175.2,247,173.4,247.4,172.1,248.5"/>
	<path id="XMLID_13_" class="st0" d="M182.5,229.6c-3.9,0.4-8.4,5.5-5.7,10.9c1.6,2.3,3.9,2.9,6.2,2c2.1-0.8,5.9-4.5,5.9-7.8
		C188.9,231.3,186.9,229.2,182.5,229.6 M310.7,256.9c0.6,1.4,3.3,2,4.1-1.4c1-3.5-2-12.3-8.8-12.5c-6.6-0.2-11.7,3.5-17,9
		c-4.5,5.1-18,23.8-17.2,37.7c0.6,7.2,7.2,9.8,15,5.5c9.4-5.5,16-15.6,17.6-17.6c0,12.1,10.3,19.9,22.6,8.4c1.7,3.4,4.2,6.4,7.2,8.8
		c9,5.9,24.8,4.9,36.5-13.7c2.3,8.8,3.9,12.1,4.7,13.7c2.3,4.7,7,5.5,7.4-0.6c0.2-2-2-6.4-3.5-12.5c-4.7-17.6-11.3-48,3.5-68.5
		c6.2-7,12.9-8.8,13.7-0.8c0.6,4.5-0.2,24-14.6,50c-2.1,4.5,2.3,5.9,3.7,2.7c2-4.7,20.7-33.2,20.3-52.3c-0.4-11.5-17.2-17.6-29.3-2
		c-11.7,14.6-12.5,43.7-8.4,60.1c-7.8,14.2-16.4,25.8-27.5,20.1c-11.7-7.4-8-32.4-0.4-37.9c5.3-3.7,8.6,0.6,5.7,5.9
		c-3.9,7.2-6.6,8.4-9,10.2c-3.3,2.5-1.2,5.9,2,4.7c9.2-3.3,13.7-10.7,15.6-16.8c5.1-16.4-15-22.3-25-3.5c-7,12.7-4.3,23.8-4.3,25.4
		c-2.1,2.3-9,11.3-10,5.3c-1.2-5.9,0.6-15.4,1-18c1-6.8-5.9-9.6-9.8-3.7c-3.9,6.2-11.9,22.6-21.5,27.3c-9.4,4.9-0.8-22.8,6.2-30.8
		c4.3-5.3,10.9-10.9,17.6-4.3C309.9,255.9,310.1,255.5,310.7,256.9 M429.2,240.7h0.2c0.4,0,0.8,0,0.8-0.4c0-0.2-0.2-0.4-0.6-0.4
		h-0.4V240.7z M429.2,242.5h-0.8v-2.9h2.1l0.2,0.8c0,0.2,0,0.6-0.6,0.6c0.4,0,0.6,0.4,0.6,0.8l0.2,0.8h-0.6l-0.4-0.8
		c0-0.2,0-0.4-0.6-0.4h-0.2L429.2,242.5L429.2,242.5z M429.6,238.6c-1.2,0-2.1,1-2.1,2.3s1,2.3,2.1,2.3c1.4,0,2.1-1,2.1-2.3
		S430.9,238.6,429.6,238.6z M429.6,238c1.8,0,2.9,1.4,2.9,2.9s-1.2,2.9-2.9,2.9c-1.6,0-2.9-1.4-2.9-2.9S428,238,429.6,238z"/>
</g>
</svg>
