<?xml version="1.0" encoding="utf-8"?>
<!-- Generator: Adobe Illustrator 16.0.0, SVG Export Plug-In . SVG Version: 6.00 Build 0)  -->
<!DOCTYPE svg PUBLIC "-//W3C//DTD SVG 1.1//EN" "http://www.w3.org/Graphics/SVG/1.1/DTD/svg11.dtd">
<svg version="1.1"
	 id="svg8" xmlns:dc="http://purl.org/dc/elements/1.1/" xmlns:cc="http://creativecommons.org/ns#" xmlns:rdf="http://www.w3.org/1999/02/22-rdf-syntax-ns#" xmlns:svg="http://www.w3.org/2000/svg" xmlns:sodipodi="http://sodipodi.sourceforge.net/DTD/sodipodi-0.dtd" xmlns:inkscape="http://www.inkscape.org/namespaces/inkscape" sodipodi:docname="mondelez.svg" inkscape:version="0.92.0 r15299"
	 xmlns="http://www.w3.org/2000/svg" xmlns:xlink="http://www.w3.org/1999/xlink" x="0px" y="0px" width="561.949px"
	 height="138.766px" viewBox="0 0 561.949 138.766" enable-background="new 0 0 561.949 138.766" xml:space="preserve">
<image overflow="visible" enable-background="new    " width="3269" height="3301" id="image34" xlink:href="7F9AAFAE.png"  transform="matrix(8.671293e-004 0 0 8.587233e-004 0 2.441406e-004)">
</image>
<sodipodi:namedview  id="base" fit-margin-top="0" pagecolor="#ffffff" borderopacity="1.0" bordercolor="#666666" fit-margin-left="0" showgrid="false" inkscape:zoom="0.65212073" inkscape:cy="90.308756" inkscape:cx="369.11872" inkscape:window-maximized="1" inkscape:window-y="-4" inkscape:window-x="-4" inkscape:window-height="744" inkscape:window-width="1280" fit-margin-bottom="0" fit-margin-right="0" inkscape:current-layer="layer1" inkscape:document-units="mm" inkscape:pageshadow="2" inkscape:pageopacity="0.0">
	</sodipodi:namedview>
<g>
	<path id="path386" inkscape:connector-curvature="0" fill="#E51636" d="M62.161,91.15c-2.577,2.338-6.298,3.117-8.628,3.415
		c-4.748,0.593-9.658-0.983-12.791-4.759c-2.573-3.085-3.893-7.08-6.405-10.274c-3.968-5.056-10.311-8.367-16.845-7.197
		C4.576,74.678-1.284,89.738,6.018,100.185c10.437,14.93,33.908,12.345,45.954,2.002C55.723,98.971,59.225,95.392,62.161,91.15"/>
	<path id="path388" inkscape:connector-curvature="0" fill="#E51636" d="M499.791,91.147c2.582,2.343,6.291,3.122,8.631,3.416
		c4.744,0.597,9.658-0.978,12.789-4.756c2.57-3.089,3.898-7.08,6.404-10.274c3.975-5.058,10.316-8.369,16.85-7.197
		c12.91,2.341,18.77,17.402,11.463,27.851c-10.432,14.927-33.9,12.345-45.941,2.003C506.234,98.972,502.724,95.391,499.791,91.147"
		/>
	<path id="path390" inkscape:connector-curvature="0" fill="#472380" d="M456.783,11.521c-0.324-0.012-31.15-0.012-31.436-0.001
		c-3.379,0.102-6.172,3.23-6.332,6.449c-0.172,3.419,2.801,6.81,6.332,6.979c0.326,0.012,31.152,0.012,31.436,0
		c3.381-0.103,6.174-3.229,6.332-6.449C463.289,15.077,460.316,11.693,456.783,11.521"/>
	<path id="path392" inkscape:connector-curvature="0" fill="#472380" d="M260.457,78.51c-0.431-1.784-0.66-3.539-0.783-5.311
		c-0.021-2.556-0.021-6.144-0.021-9.446c0.322-11.404,2.451-31.468-13.018-31.468c-10.447,0-16.637,8.791-18.391,11.665
		c-0.25-8.014-6.572-13.828-16.23-13.828c-6.162,0-9.822,4.904-9.822,4.904s6.011,2.084,6.011,10.16
		c0.065,5.784-0.009,33.939,0,34.059c0.237,4.99,3.723,9.668,9.959,9.668c6.236,0,10.106-4.793,10.106-9.677V54.265
		c0.869-4.082,3.166-8.248,6.629-8.248c4.492,0,4.744,4.995,4.765,4.995l-0.021,24.173c0.021,0.787,0.121,1.541,0.258,2.281
		c0.222,1.26,0.603,2.432,1.15,3.508c2.396,4.869,7.697,8.043,14.82,8.043c6.158,0,9.819-4.9,9.819-4.9
		S262.074,82.843,260.457,78.51"/>
	<path id="path394" inkscape:connector-curvature="0" fill="#472380" d="M409.152,78.51c-0.434-1.784-0.668-3.539-0.781-5.311
		l0.018-59.829c0-5.818-4.717-10.536-10.537-10.536c-5.818,0-10.535,4.718-10.535,10.536l0.014,52.986
		c0.053,4.772-0.416,9.649,1.836,14.035c2.387,4.871,8.273,8.625,15.389,8.625c6.176,0,9.83-4.9,9.83-4.9
		S410.777,82.843,409.152,78.51"/>
	<path id="path396" inkscape:connector-curvature="0" fill="#472380" d="M173.716,31.764c-15.812,0-28.627,12.813-28.627,28.628
		c0,15.811,12.815,28.625,28.627,28.625c15.809,0,28.629-12.814,28.629-28.625C202.345,44.577,189.525,31.764,173.716,31.764
		 M173.926,76.858v0.015c-0.022,0-0.042-0.009-0.063-0.009c-0.022,0-0.041,0.009-0.059,0.009v-0.015
		c-5.405-0.098-8.115-6.309-8.115-16.466c0-10.143,3.433-16.361,8.115-16.473v-0.002c0.017,0,0.037,0,0.059,0.002
		c0.02-0.002,0.039-0.002,0.063-0.002v0.002c4.676,0.111,8.113,6.33,8.113,16.473C182.039,70.549,179.334,76.76,173.926,76.858"/>
	<path id="path398" inkscape:connector-curvature="0" fill="#472380" d="M324.847,78.51c-0.438-1.784-0.67-3.539-0.785-5.311
		l0.014-59.829c0-5.818-4.715-10.536-10.535-10.536c-5.818,0-10.536,4.718-10.536,10.536l-0.042,28.338
		c-2.533-3.527-8.115-9.49-16.91-9.49c-24.198,0-25.727,43.088-9.134,53.747c4.679,3.001,11.733,3.772,17.071,2.386
		c3.686-0.961,9.497-4.582,10.431-8.906c0.134,0.317,0.275,0.633,0.437,0.947c2.389,4.871,8.275,8.625,15.393,8.625
		c6.174,0,9.828-4.9,9.828-4.9S326.472,82.843,324.847,78.51 M293.447,75.027v0.009c-0.022,0-0.039-0.002-0.059-0.002
		c-0.024,0-0.037,0.002-0.064,0.002v-0.009c-5.406-0.08-8.111-5.5-8.111-14.344c0-8.837,3.43-14.25,8.111-14.35v-0.008
		c0.027,0,0.04,0.008,0.064,0.008c0.02,0,0.037-0.008,0.059-0.008v0.008c4.688,0.1,8.117,5.513,8.117,14.35
		C301.564,69.527,298.853,74.947,293.447,75.027"/>
	<path id="path400" inkscape:connector-curvature="0" fill="#472380" d="M379.666,71.304c0,0-3.092,4.233-15.078,4.233
		c-11.988,0-14.561-9.318-14.561-9.318c17.471,0,32.123-1.17,32.123-15.315c0-14.142-15.984-18.807-25.463-18.807
		c-15.65,0-27.086,12.481-27.086,28.957c0,18.555,14.889,27.963,27.25,27.963C378.621,89.017,379.666,71.304,379.666,71.304
		L379.666,71.304z M348.894,57.144c0.613-4.516,1.695-10.205,5.756-12.84c3.373-2.191,8.098,0.303,8.168,4.521
		c0.078,4.455-2.803,7.489-6.813,8.333C355.58,57.248,348.835,57.585,348.894,57.144"/>
	<path id="path402" inkscape:connector-curvature="0" fill="#472380" d="M463.955,71.304c0,0-3.09,4.233-15.076,4.233
		c-11.988,0-14.561-9.318-14.561-9.318c17.469,0,32.123-1.17,32.123-15.315c0-14.142-15.986-18.807-25.465-18.807
		c-15.65,0-27.086,12.481-27.086,28.957c0,18.555,14.891,27.963,27.252,27.963C462.912,89.017,463.955,71.304,463.955,71.304
		L463.955,71.304z M433.185,57.144c0.613-4.515,1.695-10.205,5.756-12.84c3.373-2.191,8.096,0.303,8.168,4.521
		c0.076,4.455-2.805,7.489-6.814,8.333C439.869,57.248,433.126,57.586,433.185,57.144"/>
	<path id="path404" inkscape:connector-curvature="0" fill="#472380" d="M503.486,72.834h-12.004c0.883,0,9.764-7.487,12.709-9.983
		c7.711-6.545,21.58-15.988,17.537-28.22l0.01,0.086c-0.74-2.913-2.984-4.595-2.984-4.595s-0.838,2.378-3.689,3.442
		c-1.166,0.282-2.33,0.495-3.492,0.563c-0.959,0.018-33.555,0-33.555,0c-4.408-0.005-8.104,3.54-8.164,7.723
		c-0.051,4.218,3.436,7.601,7.904,7.661l19.016,0.121c-8.814,4.916-19.342,10.737-24.686,19.627
		c-3.053,5.102-6.32,12.968-5.078,19.002c4.225-3.745,15.311-7.37,23.752-5.608c3.16,0.66,6.518,2.273,9.25,3.981
		c15.83,9.9,25.342-9.464,17.775-18C517.787,68.635,513.47,72.834,503.486,72.834"/>
	<path id="path406" inkscape:connector-curvature="0" fill="#472380" d="M146.637,84.878c-9.709-10.646-12.746-28.35-13.344-40.116
		c-0.515-10.166,0.035-27.772,8.046-32.896c-2.682-3.371-7.972-4.729-11.992-4.729c-9.032,0-13.386,6.016-16.475,10.342
		c-1.02,1.429-16.208,22.381-16.208,22.381S83.889,20.097,82.319,17.723c-2.17-3.276-6.233-9.296-13.374-10.338
		c-3.075-0.449-11.052-0.857-15.394,5.102c7.484,5.988,7.297,21.237,5.672,31.648c-4.875,31.25-18.172,34.128-18.172,34.128
		c6.811,18.395,24.352,11.127,29.309-3.539c3.21-9.533,5.283-21.6,5.761-31.607l19.25,29.529c0,0,21.797-29.437,21.797-29.411
		c-3.59,52.061,14.289,66.818,29.924,66.818c15.648,0,20.973-14.311,20.973-14.311C159.604,95.232,152.199,90.977,146.637,84.878"/>
	<path id="path408" inkscape:connector-curvature="0" fill="#472380" d="M195.465,101.811c0.188,0.765,0.286,1.517,0.336,2.272
		c0.002,0.23-0.014,27.236-0.001,27.56c0.068,2.269,2.167,4.141,4.325,4.248c2.295,0.115,4.567-1.879,4.682-4.248
		c0.01-0.31,0-24.63,0-24.63c-0.021-2.042,0.178-4.131-0.785-6.006c-1.023-2.086-3.543-3.693-6.587-3.693
		c-2.644,0-4.209,2.099-4.209,2.099S194.77,99.956,195.465,101.811"/>
	<path id="path410" inkscape:connector-curvature="0" fill="#472380" d="M480.968,131.398c-0.188-0.765-0.287-1.515-0.336-2.274
		c-0.002-0.229,0.012-27.233,0.002-27.555c-0.068-2.27-2.168-4.142-4.326-4.251c-2.295-0.114-4.566,1.881-4.682,4.251
		c-0.012,0.31,0,24.628,0,24.628c0.021,2.041-0.178,4.128,0.785,6.007c1.023,2.085,3.541,3.691,6.588,3.691
		c2.643,0,4.207-2.097,4.207-2.097S481.664,133.251,480.968,131.398"/>
	<path id="path412" inkscape:connector-curvature="0" fill="#472380" d="M318.015,111.296c-4.684,0-7.455,3.938-8.24,5.226
		l-0.027,0.02c0-1.303-0.004-2.333-0.004-2.385c-0.07-2.269-2.168-3.963-4.324-4.068c-2.293-0.115-4.566,1.702-4.681,4.068
		c-0.007,0.308-0.007,17.241,0,17.47c0.069,2.266,2.167,4.137,4.325,4.244c2.293,0.114,4.564-1.879,4.68-4.244
		c0.004-0.175,0.008-5.701,0.006-10.46l0.037-0.025c0.387-1.828,1.414-3.696,2.969-3.696c2.012,0,2.123,2.239,2.133,2.239
		l-0.02,11.942c0.07,2.265,2.166,4.137,4.326,4.243c2.291,0.114,4.563-1.879,4.678-4.243l-0.012-6.241
		C323.861,118.968,324.529,111.265,318.015,111.296"/>
	<path id="path414" inkscape:connector-curvature="0" fill="#472380" d="M433.121,111.296c-4.684,0-7.455,3.938-8.24,5.226
		l-0.027,0.02c0-1.303-0.004-2.333-0.004-2.385c-0.07-2.269-2.168-3.963-4.324-4.068c-2.293-0.115-4.568,1.702-4.68,4.068
		c-0.008,0.308-0.008,17.241,0,17.47c0.068,2.266,2.166,4.137,4.324,4.244c2.293,0.114,4.564-1.879,4.68-4.244
		c0.004-0.175,0.008-5.701,0.006-10.46l0.037-0.025c0.385-1.828,1.416-3.696,2.969-3.696c2.012,0,2.123,2.239,2.133,2.239
		l-0.02,11.942c0.07,2.265,2.168,4.137,4.326,4.243c2.291,0.114,4.563-1.879,4.678-4.243l-0.012-6.241
		c0-6.417,0.67-14.12-5.848-14.09"/>
	<path id="path416" inkscape:connector-curvature="0" fill="#472380" d="M226.588,111.296c-4.682,0-7.455,3.938-8.24,5.226
		l-0.026,0.02c-0.002-1.303-0.005-2.333-0.005-2.385c-0.069-2.269-2.166-3.963-4.325-4.068c-2.291-0.115-4.566,1.702-4.679,4.068
		c-0.008,0.308-0.008,17.241,0,17.47c0.07,2.266,2.168,4.137,4.326,4.244c2.291,0.114,4.562-1.879,4.678-4.244
		c0.005-0.175,0.007-5.701,0.005-10.46l0.038-0.025c0.386-1.828,1.416-3.696,2.97-3.696c2.012,0,2.123,2.239,2.133,2.239
		l-0.019,11.942c0.068,2.265,2.166,4.137,4.324,4.243c2.293,0.114,4.564-1.879,4.679-4.243l-0.013-6.241
		C232.434,118.968,233.104,111.265,226.588,111.296"/>
	<path id="path418" inkscape:connector-curvature="0" fill="#472380" d="M400.478,110.164c-7.084,0-12.828,5.74-12.828,12.825
		c0,7.086,5.744,12.824,12.828,12.824c7.082,0,12.826-5.738,12.826-12.824C413.304,115.905,407.56,110.164,400.478,110.164
		 M400.57,130.366v0.006c-0.012,0-0.02-0.002-0.029-0.002c-0.012,0-0.02,0.002-0.023,0.002v-0.006
		c-2.424-0.047-3.637-2.826-3.637-7.377c0-4.544,1.537-7.329,3.637-7.379v-0.001c0.004,0,0.012,0,0.023,0.001
		c0.01-0.001,0.018-0.001,0.029-0.001v0.001c2.096,0.05,3.633,2.835,3.633,7.379C404.203,127.54,402.992,130.32,400.57,130.366"/>
	<path id="path420" inkscape:connector-curvature="0" fill="#472380" d="M352.582,113.847c-0.074-2.374-2.309-4.336-4.566-4.449
		c-2.404-0.119-4.783,1.969-4.904,4.449c-0.002,0.172-0.021,0.541-0.021,0.607c-1.141-1.582-3.637-4.253-7.58-4.253
		c-10.84,0-11.527,19.307-4.092,24.081c2.098,1.345,5.258,1.689,7.65,1.069c1.352-0.354,3.344-1.506,4.248-2.979
		c0.557,1.896,2.434,3.34,4.363,3.437c2.402,0.119,4.781-1.967,4.902-4.447C352.591,131.039,352.589,114.064,352.582,113.847
		 M338.822,129.384v0.002c-0.006,0-0.016-0.001-0.023-0.001c-0.012,0-0.018,0.001-0.029,0.001v-0.002
		c-2.424-0.038-3.635-2.469-3.635-6.431c0-3.958,1.535-6.383,3.635-6.429v-0.003c0.012,0,0.018,0.003,0.029,0.003
		c0.008,0,0.018-0.003,0.023-0.003v0.003c2.1,0.046,3.641,2.471,3.641,6.429C342.462,126.915,341.246,129.346,338.822,129.384"/>
	<path id="path422" inkscape:connector-curvature="0" fill="#472380" d="M467.593,113.847c-0.07-2.374-2.305-4.336-4.566-4.449
		c-2.402-0.119-4.779,1.969-4.9,4.449c-0.004,0.172-0.027,0.541-0.027,0.607c-1.135-1.582-3.637-4.253-7.576-4.253
		c-10.842,0-11.529,19.307-4.094,24.081c2.098,1.345,5.26,1.689,7.65,1.069c1.352-0.354,3.346-1.506,4.252-2.979
		c0.553,1.896,2.432,3.34,4.359,3.437c2.402,0.119,4.781-1.967,4.902-4.447C467.603,131.039,467.597,114.064,467.593,113.847
		 M453.837,129.384v0.002c-0.012,0-0.018-0.001-0.025-0.001c-0.012,0-0.018,0.001-0.031,0.001v-0.002
		c-2.422-0.038-3.635-2.469-3.635-6.431c0-3.958,1.537-6.383,3.635-6.429v-0.003c0.014,0,0.02,0.003,0.031,0.003
		c0.008,0,0.014-0.003,0.025-0.003v0.003c2.1,0.046,3.637,2.471,3.637,6.429C457.474,126.915,456.259,129.346,453.837,129.384"/>
	<path id="path424" inkscape:connector-curvature="0" fill="#472380" d="M384.824,116.263c-0.105-2.237-1.863-3.991-4.078-4.179
		c-0.135-0.014-0.256-0.041-0.385-0.041c-2.004,0-4.527,1.734-4.527,3.927l0.012,8.304h-0.012c0.027,2.59-0.002,7.269,0,7.322
		c0.107,2.236,1.865,3.991,4.078,4.178c0.135,0.017,0.256,0.041,0.385,0.041c2.004,0,4.527-1.734,4.527-3.925l-0.008-6.938h0.008
		C384.794,122.359,384.83,116.314,384.824,116.263"/>
	<path id="path426" inkscape:connector-curvature="0" fill="#472380" d="M384.792,105.032c0,2.463-2,4.459-4.463,4.459
		c-2.469,0-4.465-1.996-4.465-4.459c0-2.468,1.996-4.467,4.465-4.467C382.792,100.566,384.792,102.565,384.792,105.032"/>
	<path id="path428" inkscape:connector-curvature="0" fill="#472380" d="M293.57,110.986c-2.674,0.11-3.996,2.102-5.816,4.604
		c-0.013,0.02,0.002-1.156,0.002-1.201c-0.07-2.267-2.166-4.139-4.322-4.247c-2.295-0.114-4.566,1.879-4.68,4.247v17.291h-0.008
		c0.069,2.268,2.165,4.141,4.324,4.247c2.272,0.111,4.519-1.846,4.672-4.182h0.021l-0.002-10.953
		c0.136-1.605,0.836-3.611,2.127-3.602c1.828,0.017-0.061,4.436,4.132,4.436C300.03,121.626,300.671,110.693,293.57,110.986"/>
	<path id="path430" inkscape:connector-curvature="0" fill="#472380" d="M275.207,127.866c0,0-1.386,1.898-6.762,1.898
		c-5.378,0-6.535-4.18-6.535-4.18c7.839,0,14.412-0.525,14.412-6.871c0-6.344-7.17-8.436-11.422-8.436
		c-7.021,0-12.152,5.598-12.152,12.988c0,8.324,6.68,12.545,12.226,12.545C274.739,135.812,275.207,127.866,275.207,127.866
		L275.207,127.866z M261.402,121.513c0.274-2.025,0.761-4.578,2.585-5.759c1.512-0.983,3.631,0.136,3.664,2.026
		c0.034,1.999-1.258,3.36-3.057,3.739C264.403,121.56,261.375,121.713,261.402,121.513"/>
	<path id="path432" inkscape:connector-curvature="0" fill="#472380" d="M252.203,131.073c0,0-2.341,4.741-6.669,4.741
		c-3.562,0-7.946-3.146-8.129-7.7c-0.003-0.042-0.025-6.595-0.042-12.072h-1.209c-0.632,0-1.751-0.377-1.751-2.022
		s1.259-1.994,1.881-1.994h1.069c-0.005-1.915-0.007-3.231-0.004-3.313c0.113-2.361,2.381-4.35,4.668-4.234
		c2.153,0.107,4.3,1.973,4.368,4.234v3.312h3.812c0.528,0,1.75,0.345,1.75,2.021s-1.222,1.997-1.882,1.997h-3.68v10.059
		c0,3.264,2.81,4.958,5.83,4.968"/>
	<path id="path434" inkscape:connector-curvature="0" fill="#472380" d="M372.675,131.073c0,0-2.342,4.741-6.668,4.741
		c-3.563,0-7.947-3.146-8.129-7.7c-0.004-0.042-0.025-6.595-0.043-12.072h-1.209c-0.633,0-1.75-0.377-1.75-2.022
		s1.258-1.994,1.881-1.994h1.068c-0.006-1.915-0.008-3.231-0.004-3.313c0.113-2.361,2.381-4.35,4.668-4.234
		c2.152,0.107,4.299,1.973,4.367,4.234v3.312h3.813c0.527,0,1.75,0.345,1.75,2.021s-1.223,1.997-1.883,1.997h-3.68v10.059
		c0,3.264,2.811,4.958,5.83,4.968"/>
</g>
</svg>
