<svg enable-background="new 0 0 561.949 138.766" height="138.766" viewBox="0 0 561.949 138.766" width="561.949" xmlns="http://www.w3.org/2000/svg" xmlns:xlink="http://www.w3.org/1999/xlink"><image height="3301" overflow="visible" transform="matrix(.00086713 0 0 .00085872 0 .000244)" width="3269" xlink:href="7F9AAFAE.png"/><path d="m62.161 91.15c-2.577 2.338-6.298 3.117-8.628 3.415-4.748.593-9.658-.983-12.791-4.759-2.573-3.085-3.893-7.08-6.405-10.274-3.968-5.056-10.311-8.367-16.845-7.197-12.916 2.343-18.776 17.403-11.474 27.85 10.437 14.93 33.908 12.345 45.954 2.002 3.751-3.216 7.253-6.795 10.189-11.037" fill="#e51636"/><path d="m499.791 91.147c2.582 2.343 6.291 3.122 8.631 3.416 4.744.597 9.658-.978 12.789-4.756 2.57-3.089 3.898-7.08 6.404-10.274 3.975-5.058 10.316-8.369 16.85-7.197 12.91 2.341 18.77 17.402 11.463 27.851-10.432 14.927-33.9 12.345-45.941 2.003-3.753-3.218-7.263-6.799-10.196-11.043" fill="#e51636"/><g fill="#472380"><path d="m456.783 11.521c-.324-.012-31.15-.012-31.436-.001-3.379.102-6.172 3.23-6.332 6.449-.172 3.419 2.801 6.81 6.332 6.979.326.012 31.152.012 31.436 0 3.381-.103 6.174-3.229 6.332-6.449.174-3.422-2.799-6.806-6.332-6.978"/><path d="m260.457 78.51c-.431-1.784-.66-3.539-.783-5.311-.021-2.556-.021-6.144-.021-9.446.322-11.404 2.451-31.468-13.018-31.468-10.447 0-16.637 8.791-18.391 11.665-.25-8.014-6.572-13.828-16.23-13.828-6.162 0-9.822 4.904-9.822 4.904s6.011 2.084 6.011 10.16c.065 5.784-.009 33.939 0 34.059.237 4.99 3.723 9.668 9.959 9.668s10.106-4.793 10.106-9.677v-24.971c.869-4.082 3.166-8.248 6.629-8.248 4.492 0 4.744 4.995 4.765 4.995l-.021 24.173c.021.787.121 1.541.258 2.281.222 1.26.603 2.432 1.15 3.508 2.396 4.869 7.697 8.043 14.82 8.043 6.158 0 9.819-4.9 9.819-4.9s-3.614-1.274-5.231-5.607"/><path d="m409.152 78.51c-.434-1.784-.668-3.539-.781-5.311l.018-59.829c0-5.818-4.717-10.536-10.537-10.536-5.818 0-10.535 4.718-10.535 10.536l.014 52.986c.053 4.772-.416 9.649 1.836 14.035 2.387 4.871 8.273 8.625 15.389 8.625 6.176 0 9.83-4.9 9.83-4.9s-3.609-1.273-5.234-5.606"/><path d="m173.716 31.764c-15.812 0-28.627 12.813-28.627 28.628 0 15.811 12.815 28.625 28.627 28.625 15.809 0 28.629-12.814 28.629-28.625 0-15.815-12.82-28.628-28.629-28.628m.21 45.094v.015c-.022 0-.042-.009-.063-.009-.022 0-.041.009-.059.009v-.015c-5.405-.098-8.115-6.309-8.115-16.466 0-10.143 3.433-16.361 8.115-16.473v-.002c.017 0 .037 0 .059.002.02-.002.039-.002.063-.002v.002c4.676.111 8.113 6.33 8.113 16.473 0 10.157-2.705 16.368-8.113 16.466"/><path d="m324.847 78.51c-.438-1.784-.67-3.539-.785-5.311l.014-59.829c0-5.818-4.715-10.536-10.535-10.536-5.818 0-10.536 4.718-10.536 10.536l-.042 28.338c-2.533-3.527-8.115-9.49-16.91-9.49-24.198 0-25.727 43.088-9.134 53.747 4.679 3.001 11.733 3.772 17.071 2.386 3.686-.961 9.497-4.582 10.431-8.906.134.317.275.633.437.947 2.389 4.871 8.275 8.625 15.393 8.625 6.174 0 9.828-4.9 9.828-4.9s-3.607-1.274-5.232-5.607m-31.4-3.483v.009c-.022 0-.039-.002-.059-.002-.024 0-.037.002-.064.002v-.009c-5.406-.08-8.111-5.5-8.111-14.344 0-8.837 3.43-14.25 8.111-14.35v-.008c.027 0 .04.008.064.008.02 0 .037-.008.059-.008v.008c4.688.1 8.117 5.513 8.117 14.35 0 8.844-2.711 14.264-8.117 14.344"/><path d="m379.666 71.304s-3.092 4.233-15.078 4.233c-11.988 0-14.561-9.318-14.561-9.318 17.471 0 32.123-1.17 32.123-15.315 0-14.142-15.984-18.807-25.463-18.807-15.65 0-27.086 12.481-27.086 28.957 0 18.555 14.889 27.963 27.25 27.963 21.77 0 22.815-17.713 22.815-17.713zm-30.772-14.16c.613-4.516 1.695-10.205 5.756-12.84 3.373-2.191 8.098.303 8.168 4.521.078 4.455-2.803 7.489-6.813 8.333-.425.09-7.17.427-7.111-.014"/><path d="m463.955 71.304s-3.09 4.233-15.076 4.233c-11.988 0-14.561-9.318-14.561-9.318 17.469 0 32.123-1.17 32.123-15.315 0-14.142-15.986-18.807-25.465-18.807-15.65 0-27.086 12.481-27.086 28.957 0 18.555 14.891 27.963 27.252 27.963 21.77 0 22.813-17.713 22.813-17.713zm-30.77-14.16c.613-4.515 1.695-10.205 5.756-12.84 3.373-2.191 8.096.303 8.168 4.521.076 4.455-2.805 7.489-6.814 8.333-.426.09-7.169.428-7.11-.014"/><path d="m503.486 72.834h-12.004c.883 0 9.764-7.487 12.709-9.983 7.711-6.545 21.58-15.988 17.537-28.22l.01.086c-.74-2.913-2.984-4.595-2.984-4.595s-.838 2.378-3.689 3.442c-1.166.282-2.33.495-3.492.563-.959.018-33.555 0-33.555 0-4.408-.005-8.104 3.54-8.164 7.723-.051 4.218 3.436 7.601 7.904 7.661l19.016.121c-8.814 4.916-19.342 10.737-24.686 19.627-3.053 5.102-6.32 12.968-5.078 19.002 4.225-3.745 15.311-7.37 23.752-5.608 3.16.66 6.518 2.273 9.25 3.981 15.83 9.9 25.342-9.464 17.775-18 0 .001-4.317 4.2-14.301 4.2"/><path d="m146.637 84.878c-9.709-10.646-12.746-28.35-13.344-40.116-.515-10.166.035-27.772 8.046-32.896-2.682-3.371-7.972-4.729-11.992-4.729-9.032 0-13.386 6.016-16.475 10.342-1.02 1.429-16.208 22.381-16.208 22.381s-12.775-19.763-14.345-22.137c-2.17-3.276-6.233-9.296-13.374-10.338-3.075-.449-11.052-.857-15.394 5.102 7.484 5.988 7.297 21.237 5.672 31.648-4.875 31.25-18.172 34.128-18.172 34.128 6.811 18.395 24.352 11.127 29.309-3.539 3.21-9.533 5.283-21.6 5.761-31.607l19.25 29.529s21.797-29.437 21.797-29.411c-3.59 52.061 14.289 66.818 29.924 66.818 15.648 0 20.973-14.311 20.973-14.311-8.461-.51-15.866-4.765-21.428-10.864"/><path d="m195.465 101.811c.188.765.286 1.517.336 2.272.002.23-.014 27.236-.001 27.56.068 2.269 2.167 4.141 4.325 4.248 2.295.115 4.567-1.879 4.682-4.248.01-.31 0-24.63 0-24.63-.021-2.042.178-4.131-.785-6.006-1.023-2.086-3.543-3.693-6.587-3.693-2.644 0-4.209 2.099-4.209 2.099s1.544.543 2.239 2.398"/><path d="m480.968 131.398c-.188-.765-.287-1.515-.336-2.274-.002-.229.012-27.233.002-27.555-.068-2.27-2.168-4.142-4.326-4.251-2.295-.114-4.566 1.881-4.682 4.251-.012.31 0 24.628 0 24.628.021 2.041-.178 4.128.785 6.007 1.023 2.085 3.541 3.691 6.588 3.691 2.643 0 4.207-2.097 4.207-2.097s-1.542-.547-2.238-2.4"/><path d="m318.015 111.296c-4.684 0-7.455 3.938-8.24 5.226l-.027.02c0-1.303-.004-2.333-.004-2.385-.07-2.269-2.168-3.963-4.324-4.068-2.293-.115-4.566 1.702-4.681 4.068-.007.308-.007 17.241 0 17.47.069 2.266 2.167 4.137 4.325 4.244 2.293.114 4.564-1.879 4.68-4.244.004-.175.008-5.701.006-10.46l.037-.025c.387-1.828 1.414-3.696 2.969-3.696 2.012 0 2.123 2.239 2.133 2.239l-.02 11.942c.07 2.265 2.166 4.137 4.326 4.243 2.291.114 4.563-1.879 4.678-4.243l-.012-6.241c0-6.418.668-14.121-5.846-14.09"/><path d="m433.121 111.296c-4.684 0-7.455 3.938-8.24 5.226l-.027.02c0-1.303-.004-2.333-.004-2.385-.07-2.269-2.168-3.963-4.324-4.068-2.293-.115-4.568 1.702-4.68 4.068-.008.308-.008 17.241 0 17.47.068 2.266 2.166 4.137 4.324 4.244 2.293.114 4.564-1.879 4.68-4.244.004-.175.008-5.701.006-10.46l.037-.025c.385-1.828 1.416-3.696 2.969-3.696 2.012 0 2.123 2.239 2.133 2.239l-.02 11.942c.07 2.265 2.168 4.137 4.326 4.243 2.291.114 4.563-1.879 4.678-4.243l-.012-6.241c0-6.417.67-14.12-5.848-14.09"/><path d="m226.588 111.296c-4.682 0-7.455 3.938-8.24 5.226l-.026.02c-.002-1.303-.005-2.333-.005-2.385-.069-2.269-2.166-3.963-4.325-4.068-2.291-.115-4.566 1.702-4.679 4.068-.008.308-.008 17.241 0 17.47.07 2.266 2.168 4.137 4.326 4.244 2.291.114 4.562-1.879 4.678-4.244.005-.175.007-5.701.005-10.46l.038-.025c.386-1.828 1.416-3.696 2.97-3.696 2.012 0 2.123 2.239 2.133 2.239l-.019 11.942c.068 2.265 2.166 4.137 4.324 4.243 2.293.114 4.564-1.879 4.679-4.243l-.013-6.241c0-6.418.67-14.121-5.846-14.09"/><path d="m400.478 110.164c-7.084 0-12.828 5.74-12.828 12.825 0 7.086 5.744 12.824 12.828 12.824 7.082 0 12.826-5.738 12.826-12.824 0-7.084-5.744-12.825-12.826-12.825m.092 20.202v.006c-.012 0-.02-.002-.029-.002-.012 0-.02.002-.023.002v-.006c-2.424-.047-3.637-2.826-3.637-7.377 0-4.544 1.537-7.329 3.637-7.379v-.001c.004 0 .012 0 .023.001.01-.001.018-.001.029-.001v.001c2.096.05 3.633 2.835 3.633 7.379 0 4.551-1.211 7.331-3.633 7.377"/><path d="m352.582 113.847c-.074-2.374-2.309-4.336-4.566-4.449-2.404-.119-4.783 1.969-4.904 4.449-.002.172-.021.541-.021.607-1.141-1.582-3.637-4.253-7.58-4.253-10.84 0-11.527 19.307-4.092 24.081 2.098 1.345 5.258 1.689 7.65 1.069 1.352-.354 3.344-1.506 4.248-2.979.557 1.896 2.434 3.34 4.363 3.437 2.402.119 4.781-1.967 4.902-4.447.009-.323.007-17.298 0-17.515m-13.76 15.537v.002c-.006 0-.016-.001-.023-.001-.012 0-.018.001-.029.001v-.002c-2.424-.038-3.635-2.469-3.635-6.431 0-3.958 1.535-6.383 3.635-6.429v-.003c.012 0 .018.003.029.003.008 0 .018-.003.023-.003v.003c2.1.046 3.641 2.471 3.641 6.429-.001 3.962-1.217 6.393-3.641 6.431"/><path d="m467.593 113.847c-.07-2.374-2.305-4.336-4.566-4.449-2.402-.119-4.779 1.969-4.9 4.449-.004.172-.027.541-.027.607-1.135-1.582-3.637-4.253-7.576-4.253-10.842 0-11.529 19.307-4.094 24.081 2.098 1.345 5.26 1.689 7.65 1.069 1.352-.354 3.346-1.506 4.252-2.979.553 1.896 2.432 3.34 4.359 3.437 2.402.119 4.781-1.967 4.902-4.447.01-.323.004-17.298 0-17.515m-13.756 15.537v.002c-.012 0-.018-.001-.025-.001-.012 0-.018.001-.031.001v-.002c-2.422-.038-3.635-2.469-3.635-6.431 0-3.958 1.537-6.383 3.635-6.429v-.003c.014 0 .02.003.031.003.008 0 .014-.003.025-.003v.003c2.1.046 3.637 2.471 3.637 6.429 0 3.962-1.215 6.393-3.637 6.431"/><path d="m384.824 116.263c-.105-2.237-1.863-3.991-4.078-4.179-.135-.014-.256-.041-.385-.041-2.004 0-4.527 1.734-4.527 3.927l.012 8.304h-.012c.027 2.59-.002 7.269 0 7.322.107 2.236 1.865 3.991 4.078 4.178.135.017.256.041.385.041 2.004 0 4.527-1.734 4.527-3.925l-.008-6.938h.008c-.03-2.593.006-8.638 0-8.689"/><path d="m384.792 105.032c0 2.463-2 4.459-4.463 4.459-2.469 0-4.465-1.996-4.465-4.459 0-2.468 1.996-4.467 4.465-4.467 2.463.001 4.463 2 4.463 4.467"/><path d="m293.57 110.986c-2.674.11-3.996 2.102-5.816 4.604-.013.02.002-1.156.002-1.201-.07-2.267-2.166-4.139-4.322-4.247-2.295-.114-4.566 1.879-4.68 4.247v17.291h-.008c.069 2.268 2.165 4.141 4.324 4.247 2.272.111 4.519-1.846 4.672-4.182h.021l-.002-10.953c.136-1.605.836-3.611 2.127-3.602 1.828.017-.061 4.436 4.132 4.436 6.01 0 6.651-10.933-.45-10.64"/><path d="m275.207 127.866s-1.386 1.898-6.762 1.898c-5.378 0-6.535-4.18-6.535-4.18 7.839 0 14.412-.525 14.412-6.871 0-6.344-7.17-8.436-11.422-8.436-7.021 0-12.152 5.598-12.152 12.988 0 8.324 6.68 12.545 12.226 12.545 9.765.002 10.233-7.944 10.233-7.944zm-13.805-6.353c.274-2.025.761-4.578 2.585-5.759 1.512-.983 3.631.136 3.664 2.026.034 1.999-1.258 3.36-3.057 3.739-.191.041-3.219.194-3.192-.006"/><path d="m252.203 131.073s-2.341 4.741-6.669 4.741c-3.562 0-7.946-3.146-8.129-7.7-.003-.042-.025-6.595-.042-12.072h-1.209c-.632 0-1.751-.377-1.751-2.022s1.259-1.994 1.881-1.994h1.069c-.005-1.915-.007-3.231-.004-3.313.113-2.361 2.381-4.35 4.668-4.234 2.153.107 4.3 1.973 4.368 4.234v3.312h3.812c.528 0 1.75.345 1.75 2.021s-1.222 1.997-1.882 1.997h-3.68v10.059c0 3.264 2.81 4.958 5.83 4.968"/><path d="m372.675 131.073s-2.342 4.741-6.668 4.741c-3.563 0-7.947-3.146-8.129-7.7-.004-.042-.025-6.595-.043-12.072h-1.209c-.633 0-1.75-.377-1.75-2.022s1.258-1.994 1.881-1.994h1.068c-.006-1.915-.008-3.231-.004-3.313.113-2.361 2.381-4.35 4.668-4.234 2.152.107 4.299 1.973 4.367 4.234v3.312h3.813c.527 0 1.75.345 1.75 2.021s-1.223 1.997-1.883 1.997h-3.68v10.059c0 3.264 2.811 4.958 5.83 4.968"/></g></svg>