<svg enable-background="new -3.33 -16.146 75 75" height="75" viewBox="-3.33 -16.146 75 75" width="75" xmlns="http://www.w3.org/2000/svg"><g fill="#00adef"><path d="m23.79 42.207h-5.069l23.909-36.13 2.689 3.897z"/><path d="m32.762 42.207h-5.071l19.391-29.679 2.691 3.897z"/><path d="m39.374 1.361c-.175-.25-.472-.861-1.134-.861-.68 0-.961.626-1.137.861h.003l-27.356 40.846h5.069l26.1-38.607z"/><path d="m26.373 7.374c-.173-.251-.472-.86-1.135-.86-.679 0-.96.625-1.133.86h.001l-23.327 34.833h5.069l22.042-32.551z"/></g><path d="m26.367 7.375c-.173-.25-.472-.86-1.133-.86-.679 0-.96.626-1.135.86l-1.532 2.296 21.995 32.535h5.069z" fill="#d9058d"/><path d="m39.369 1.363c-.174-.25-.473-.861-1.134-.861-.679 0-.962.626-1.135.861l-1.532 2.295 26.923 38.549h5.071z" fill="#d9058d"/><path d="m45.316 9.98-2.69-3.897-2.608 3.944 2.693 3.856z" fill="#21236a"/><path d="m49.768 16.43-2.69-3.897-2.566 3.93 2.691 3.854z" fill="#21236a"/><path d="m53.526 42.207h5.071l-24.599-36.182-2.657 3.945z" fill="#d9058d"/><g fill="#21236a"><path d="m39.369 1.363c-.174-.25-.473-.861-1.134-.861-.085 0-.164.008-.236.026-.508.125-.743.628-.895.833h.001l-1.385 2.068-.152.228 2.7 3.864 2.647-3.916z"/><path d="m33.998 6.025-2.657 3.945 2.659 3.864 2.646-3.914z"/><path d="m38.436 20.28 2.603-3.897-2.648-3.898-2.607 3.94z"/><path d="m42.925 26.803 2.561-3.881-2.648-3.896-2.564 3.924z"/><path d="m26.368 7.375c-.175-.25-.474-.86-1.135-.86-.084 0-.163.007-.236.026-.508.125-.742.627-.894.832h.001l-1.539 2.297 2.654 3.925 2.668-3.941-.02-.03-1.502-2.249z"/><path d="m32.331 16.305-2.613-3.912-2.643 3.947 2.616 3.87z"/><path d="m36.71 22.863-2.607-3.902-2.6 3.931 2.609 3.861z"/><path d="m41.145 29.501-2.605-3.9-2.558 3.915 2.608 3.857z"/></g></svg>