<?xml version="1.0" encoding="utf-8"?>
<!-- Generator: Adobe Illustrator 16.0.0, SVG Export Plug-In . SVG Version: 6.00 Build 0)  -->
<!DOCTYPE svg PUBLIC "-//W3C//DTD SVG 1.1//EN" "http://www.w3.org/Graphics/SVG/1.1/DTD/svg11.dtd">
<svg version="1.1"
	 id="svg35844" xmlns:dc="http://purl.org/dc/elements/1.1/" xmlns:cc="http://creativecommons.org/ns#" xmlns:rdf="http://www.w3.org/1999/02/22-rdf-syntax-ns#" xmlns:svg="http://www.w3.org/2000/svg" xmlns:sodipodi="http://sodipodi.sourceforge.net/DTD/sodipodi-0.dtd" xmlns:inkscape="http://www.inkscape.org/namespaces/inkscape" sodipodi:docname="mount sinai.svg" inkscape:version="0.92.0 r15299"
	 xmlns="http://www.w3.org/2000/svg" xmlns:xlink="http://www.w3.org/1999/xlink" x="0px" y="0px" width="75px" height="75px"
	 viewBox="-3.33 -16.146 75 75" enable-background="new -3.33 -16.146 75 75" xml:space="preserve">
<sodipodi:namedview  units="px" fit-margin-left="0" fit-margin-top="0" showgrid="false" inkscape:cy="39.346099" inkscape:cx="117.18533" inkscape:zoom="3.8272708" borderopacity="1.0" bordercolor="#666666" pagecolor="#ffffff" id="base" inkscape:window-maximized="1" inkscape:window-y="-4" inkscape:window-x="-4" inkscape:window-height="744" inkscape:window-width="1280" fit-margin-bottom="0" inkscape:current-layer="layer1" inkscape:document-units="mm" inkscape:pageopacity="0.0" fit-margin-right="0" inkscape:pageshadow="2">
	</sodipodi:namedview>
<path id="path8971" inkscape:connector-curvature="0" fill="#00ADEF" d="M23.79,42.207h-5.069L42.63,6.077l2.689,3.897L23.79,42.207
	z"/>
<path id="path8975" inkscape:connector-curvature="0" fill="#00ADEF" d="M32.762,42.207h-5.071l19.391-29.679l2.691,3.897
	L32.762,42.207z"/>
<path id="path8987" inkscape:connector-curvature="0" fill="#00ADEF" d="M39.374,1.361L39.374,1.361
	C39.199,1.111,38.902,0.5,38.24,0.5c-0.68,0-0.961,0.626-1.137,0.861h0.003L9.75,42.207h5.069L40.919,3.6L39.374,1.361z"/>
<path id="path8991" inkscape:connector-curvature="0" fill="#00ADEF" d="M26.373,7.374L26.373,7.374
	c-0.173-0.251-0.472-0.86-1.135-0.86c-0.679,0-0.96,0.625-1.133,0.86h0.001L0.779,42.207h5.069L27.89,9.656L26.373,7.374z"/>
<path id="path8995" inkscape:connector-curvature="0" fill="#D9058D" d="M26.367,7.375L26.367,7.375
	c-0.173-0.25-0.472-0.86-1.133-0.86c-0.679,0-0.96,0.626-1.135,0.86l-1.532,2.296l21.995,32.535h5.069L26.367,7.375z"/>
<path id="path8999" inkscape:connector-curvature="0" fill="#D9058D" d="M39.369,1.363L39.369,1.363
	c-0.174-0.25-0.473-0.861-1.134-0.861c-0.679,0-0.962,0.626-1.135,0.861l-1.532,2.295l26.923,38.549h5.071L39.369,1.363z"/>
<path id="path9003" inkscape:connector-curvature="0" fill="#21236A" d="M45.316,9.98l-2.69-3.897l-2.608,3.944l2.693,3.856
	L45.316,9.98z"/>
<path id="path9007" inkscape:connector-curvature="0" fill="#21236A" d="M49.768,16.43l-2.69-3.897l-2.566,3.93l2.691,3.854
	L49.768,16.43z"/>
<path id="path9011" inkscape:connector-curvature="0" fill="#D9058D" d="M53.526,42.207h5.071L33.998,6.025l-2.657,3.945
	L53.526,42.207z"/>
<path id="path9023" inkscape:connector-curvature="0" fill="#21236A" d="M39.369,1.363L39.369,1.363
	c-0.174-0.25-0.473-0.861-1.134-0.861c-0.085,0-0.164,0.008-0.236,0.026c-0.508,0.125-0.743,0.628-0.895,0.833h0.001L35.72,3.429
	l-0.152,0.228l2.7,3.864l2.647-3.916L39.369,1.363z"/>
<path id="path9027" inkscape:connector-curvature="0" fill="#21236A" d="M33.998,6.025l-2.657,3.945L34,13.834l2.646-3.914
	L33.998,6.025z"/>
<path id="path9031" inkscape:connector-curvature="0" fill="#21236A" d="M38.436,20.28l2.603-3.897l-2.648-3.898l-2.607,3.94
	L38.436,20.28z"/>
<path id="path9035" inkscape:connector-curvature="0" fill="#21236A" d="M42.925,26.803l2.561-3.881l-2.648-3.896l-2.564,3.924
	L42.925,26.803z"/>
<path id="path9047" inkscape:connector-curvature="0" fill="#21236A" d="M26.368,7.375c-0.175-0.25-0.474-0.86-1.135-0.86
	c-0.084,0-0.163,0.007-0.236,0.026c-0.508,0.125-0.742,0.627-0.894,0.832h0.001l-1.539,2.297l2.654,3.925l2.668-3.941l-0.02-0.03
	l-1.502-2.249L26.368,7.375z"/>
<path id="path9051" inkscape:connector-curvature="0" fill="#21236A" d="M32.331,16.305l-2.613-3.912l-2.643,3.947l2.616,3.87
	L32.331,16.305z"/>
<path id="path9055" inkscape:connector-curvature="0" fill="#21236A" d="M36.71,22.863l-2.607-3.902l-2.6,3.931l2.609,3.861
	L36.71,22.863z"/>
<path id="path9059" inkscape:connector-curvature="0" fill="#21236A" d="M41.145,29.501l-2.605-3.9l-2.558,3.915l2.608,3.857
	L41.145,29.501z"/>
</svg>
