<?xml version="1.0" encoding="utf-8"?>
<!-- Generator: Adobe Illustrator 16.0.0, SVG Export Plug-In . SVG Version: 6.00 Build 0)  -->
<!DOCTYPE svg PUBLIC "-//W3C//DTD SVG 1.1//EN" "http://www.w3.org/Graphics/SVG/1.1/DTD/svg11.dtd">
<svg version="1.1" id="Layer_1" xmlns="http://www.w3.org/2000/svg" xmlns:xlink="http://www.w3.org/1999/xlink" x="0px" y="0px"
	 width="216px" height="216px" viewBox="0 0 216 216" enable-background="new 0 0 216 216" xml:space="preserve">
<g>
	<path fill="#E03A3F" d="M128.104,86.007v0.29c-0.496,0.124-0.867-0.662-1.276-0.124c0.37,1.449,2.676,2.442,1.276,3.973
		c-0.947,0.456-2.103,0.538-2.967-0.083c-0.123-0.124-0.289-0.207-0.205-0.414c0.492-0.372,1.646,1.076,1.481-0.289
		c-0.782-0.994-2.103-1.738-1.276-3.187C125.963,85.387,127.198,85.387,128.104,86.007"/>
	<path fill="#E03A3F" d="M131.149,85.801c0,1.489,0.455,3.104,0,4.552h-1.77c-0.369-1.324-0.125-2.897-0.207-4.346
		C129.587,85.469,130.575,85.718,131.149,85.801"/>
	<path fill="#E03A3F" d="M141.446,86.587v0.207c-0.659,0.207-1.482-1.241-2.184-0.29v3.269c0.287,0.332,0.822,0.207,1.193,0.083
		c0.494-0.207,0.659-0.827,1.193-0.786c-0.041,0.579-0.494,1.117-1.11,1.407c-1.113,0.29-2.472,0-3.048-0.91
		c-0.535-0.579-0.576-1.531-0.412-2.277c0.453-0.786,0.988-1.241,1.896-1.613C139.964,85.553,140.787,85.842,141.446,86.587"/>
	<path fill="#E03A3F" d="M132.552,85.801c1.111,0.703,1.979,1.324,3.252,1.862c0.578-0.414,0.123-1.283,0.412-1.862
		c0.288-0.083,0.371,0.289,0.495,0.496l-0.124,4.18c-1.275-0.455-2.389-1.282-3.664-1.821c-0.207,0.621,0.123,1.697-0.66,1.821
		c-0.328-1.448-0.246-3.187-0.123-4.676H132.552"/>
	<path fill="#E03A3F" d="M146.265,86.09v0.207c-0.535,0.331-1.729-0.372-1.854,0.58c0.576,0.413,1.398,0.206,2.059,0.413v0.207
		l-1.977,0.29c-0.04,0.662-0.37,1.78,0.289,2.193h1.688v0.497h-4.035l-0.123-4.387c0.946-0.537,2.473-0.207,3.664-0.289
		L146.265,86.09"/>
	<path fill="#E03A3F" d="M155.077,86.587c0.576,0.952,0.576,2.235,0,3.186c-0.494,0.414-1.071,0.911-1.895,0.994
		c-0.535-0.042-1.235-0.29-1.483-0.704c0.248-0.91,0.989,0.456,1.604,0l0.084-3.476c-0.371-0.58-1.07,0.041-1.359,0.29
		c-0.369,0.248-0.122,0.745-0.205,1.118c0.33,0.247,0.701,0.496,1.193,0.371v0.497c-0.822,0.414-1.604-0.166-1.896-0.868
		c-0.123-1.077,0.495-1.822,1.399-2.194C153.513,85.759,154.459,85.718,155.077,86.587"/>
	<path fill="#E03A3F" d="M162.776,86.38v0.207c-0.576,0.331-1.357-0.91-1.771,0.083c0.495,1.2-0.658,2.897,0.577,3.476
		c0.576-0.041,1.11-0.538,1.317-1.076c0-0.414-0.328-0.828-0.7-0.993c-0.164,0.165-0.494,0.083-0.699,0.083
		c-0.205-0.124-0.205-0.29-0.082-0.497c0.617-0.166,1.481-0.124,1.771,0.497c0.41,0.579,0.082,1.323-0.207,1.82
		c-0.41,0.704-1.151,0.663-1.771,0.787c-1.071-0.124-1.647-0.58-2.183-1.49c-0.247-0.993-0.041-2.152,0.576-2.773
		c0.699-0.579,1.646-0.869,2.594-0.621C162.324,86.173,162.653,86.131,162.776,86.38"/>
	<path fill="#E03A3F" d="M150.629,90.478h-1.771l-0.205-3.476c-0.166-0.207-0.413-0.083-0.577-0.124v-0.373
		c0.782-0.289,1.729-0.538,2.553-0.497V90.478"/>
	<path fill="#E03A3F" d="M158.329,86.297v4.18h-1.854l-0.121-3.311c-0.207-0.496-0.826,0.249-0.785-0.496
		c0.826-0.29,1.604-0.704,2.555-0.663L158.329,86.297"/>
	<g>
		<path fill="#036E67" d="M108.05,128.222c-0.618,1.408-0.041,3.354-0.207,5.134l0.207,0.33c0.783-0.041,1.358-0.33,1.977-0.827
			c0.783-0.621,0.906-1.821,0.658-2.647C110.19,129.009,109.326,128.266,108.05,128.222"/>
		<path fill="#036E67" d="M90.836,131.202c-0.165,0.456-0.864,0.995-0.699,1.573c0.534-0.041,1.112,0.083,1.606-0.084
			C91.62,132.113,91.249,131.451,90.836,131.202"/>
		<path fill="#036E67" d="M183.819,83.111c1.318,3.601,0.371,7.946-1.854,10.636c-0.409,0.331-0.862,0.539-1.397,0.58
			c0.164-1.118,0.617-2.484,0-3.56c-0.411-0.952-1.483-0.248-2.182-0.621c-0.908-0.497-1.605-1.283-1.854-2.359
			c0.079-2.566,0.575-5.463,3.17-6.456C181.39,80.752,183.161,81.703,183.819,83.111"/>
		<path fill="#036E67" d="M89.93,111.502c-0.987,1.738-2.511,2.897-4.611,3.104c-0.784-0.124-1.483-0.29-1.895-0.993
			c-0.535-4.181-0.206-7.988-0.288-12.333l0.7-1.283c0.617-0.787,1.977-0.539,2.842-0.58c-0.577-1.738-2.143-3.394-3.665-4.387
			c-3.46-2.69-9.266-2.525-13.22-0.91c-4.57,2.11-8.07,6.331-8.811,11.422c-1.236,3.269,2.017,5.794,0.123,8.567l1.22,0.141
			l1.538,2.219c2.102,2.524,5.683,3.521,9.102,2.606c1.77-0.33,2.923-1.694,4.53-2.192c1.358,1.533,3.047,2.773,5.353,2.69
			c3.5-0.125,5.93-2.69,7.412-5.588L89.93,111.502 M76.794,111.338c-0.865,1.365-1.688,2.647-3.459,2.979
			c-2.183,0.415-3.953-0.91-4.941-2.482c-1.689-3.727-1.482-8.979,0.205-12.624c0.783-1.118,1.895-2.028,3.254-2.194
			c2.018-0.165,3.665,1.201,4.447,2.773l0.494,1.491V111.338z"/>
		<path fill="#036E67" d="M61.105,114.109c-0.7,0.828-1.812,0.994-2.965,0.87c-0.74-0.373-1.4-0.788-1.812-1.573
			c-0.494-6.416-0.165-13.368-0.288-19.867l0.206-0.91c0.453-1.158,1.811-1.531,3.047-1.49c-0.577-2.4-2.553-4.469-4.447-5.959
			c-3.912-2.981-10.378-3.187-14.701-0.994c-1.112,0.414-1.813,1.739-2.966,1.491c-1.606-2.236-4.24-4.056-6.711-5.132
			c-5.643-1.946-12.19-1.035-16.926,2.276c-2.059,1.365-3.583,2.897-5.23,4.676c-0.659-0.91-0.906-2.193-2.182-2.4
			c-1.071-0.373-2.018,0.166-2.841,0.704c-1.112,1.076-1.607,2.772-1.112,4.345c0.37,1.283,1.77,1.862,2.758,2.318
			c-0.658,1.822-1.44,3.642-1.481,5.753c-0.124,4.47,1.976,8.567,5.64,10.719c2.224,1.447,5.848,1.117,8.031-0.207
			c2.759-1.614,4.365-4.512,5.023-7.532c0.619-3.684,0.083-7.616-2.553-9.934c-0.823-0.372-1.935-0.165-2.594,0.208
			c-0.741,0.537-0.906,1.49-1.07,2.359c0.164,1.034,0.287,2.276,1.358,2.773c0.701,0.166,1.112-0.207,1.607-0.497
			c0.453,1.324,0.082,2.732-0.782,3.683c-0.948,0.91-2.389,1.201-3.789,0.91c-1.112-0.454-2.471-1.282-2.76-2.4
			c-0.658-0.372-0.782-1.2-0.988-1.862c-0.947-4.304,1.236-8.318,4.159-10.76c2.142-1.863,5.642-2.029,8.319-1.159
			c3.253,1.117,6.053,4.345,6.588,7.822l0.33,18.375l-0.412,2.108c-0.783,1.615-2.059,2.649-3.665,3.271
			c-1.112,0.289-1.812-0.125-2.841,0.289c0.042,0.994-0.206,2.108,0.165,2.979l19.478-0.082c0.287-1.157-0.124-1.985,0-3.104
			c-1.072,0.248-2.06-0.332-3.048-0.579c-1.195-0.744-1.811-1.738-2.182-2.98l-0.083-18.375c0.165-1.739,1.359-3.105,2.76-3.973
			c1.441-0.746,3.458-0.746,4.941,0c1.523,0.951,2.471,2.069,2.841,3.849l0.33,18.086c-0.124,0.62-0.577,0.951-1.112,1.2
			c-0.947,0.414-1.607-0.663-2.265-0.993c0.082,1.696,1.235,3.021,2.059,4.263c2.43,2.399,6.136,3.726,9.801,2.689
			c2.388-0.579,4.601-2.963,5.713-5.115L61.105,114.109"/>
		<path fill="#036E67" d="M213.71,114.828c-1.029-3.685-4.611-6.085-7.906-7.451c-0.082-3.932-1.359-7.408-4.242-9.809
			c-2.43-2.98-7.535-0.869-8.895-4.883c-0.371-1.449,0.453-2.69,1.564-3.56c0.74-0.621,2.307-0.331,1.688-1.821l-5.93-0.083
			l-0.289,0.29c-0.37,4.842-0.699,9.643-2.387,13.906c-1.896-0.041-3.584,0.662-4.942,1.779c-2.513,2.484-3.171,7.243-1.688,10.64
			c-0.658,0.742-1.604,1.198-2.554,1.487c-1.069,0.249-2.636,0.498-3.582-0.207l0.124-14.195l0.7-0.787
			c0.618-0.041,1.151,0.042,1.563,0.497l0.205-0.206c0.041-2.153-1.48-3.933-3.17-4.843c-3.008-1.655-7.578-1.324-10.297,0.661
			c-0.533,0.415-1.273,1.284-2.059,1.616c-0.205-1.035,0.041-2.237-0.205-3.271l-1.979,0.083c-0.701,3.766-3.707,6.788-7.125,7.947
			c-1.027,0.413-0.451,1.986-0.492,2.896c0.699-0.247,1.191-0.952,1.977-0.827c0.824,0,1.236,0.704,1.605,1.324
			c-0.205,2.276,0.492,5.009-0.617,6.954c-1.029,1.903-3.008,3.438-5.52,3.063c-1.029-0.332-1.688-1.199-1.688-2.275l0.205-13.204
			l0.783-0.993c0.82-0.704,1.895-0.413,2.883-0.331c-1.153-2.607-4.035-4.097-6.547-4.966c-5.933-1.408-11.53,0.703-15.402,5.089
			c-3.047,3.725-4.776,9.603-2.184,14.116c0.289,0.248,0.289,0.825,0,1.074c-0.369,0.331-1.07,0.662-1.688,0.414
			c-0.699-0.207-0.988-0.785-1.274-1.406c-0.125-3.933-0.207-8.275,0.122-12.417c0.247-1.241,1.813-2.358,2.472-3.268
			c-1.275-2.112-3.377-2.981-5.437-3.478c-3.666-0.496-7.001,0.87-9.39,3.27l-0.206-0.207c-0.246-5.049,0.084-10.306-0.288-15.272
			c-0.576-0.082-1.069,0.083-1.605,0.165c-0.246,3.271-2.225,6.375-4.53,8.278c-0.74,1.324-3.829,1.118-2.677,3.56
			c0.99,0.33,2.429-0.29,3.172,0.496c-0.618,6.912,2.141,14.941-2.966,19.577c-1.277,0.868-2.922,1.199-4.57,0.868
			c-0.7-0.248-1.566-0.538-1.853-1.364c-0.124-5.589-0.247-11.756,0.082-16.888h0.123c1.69,0.456,1.236-1.447,1.153-2.276
			l-1.358-0.124l-0.288-12.127h-1.604c-0.081,5.091-2.717,10.348-7.494,12.251l0.082,1.987c0.947,0.249,2.141-0.207,2.966,0.372
			v12.416l-0.742,2.36l0.257,2.404l0.278-0.008c0.495,2.195,1.483,4.35,3.789,4.969c3.376,1.16,7.412,0.332,9.966-2.274
			c0.657-0.704,1.317-1.615,1.976-2.194c0.247,1.697-0.083,3.601,0.289,5.175h5.723c0.288-5.672-0.165-11.632,0.413-17.177
			c0.74-1.325,1.811-2.649,3.664-2.401c0.865,0.166,1.646,0.828,2.059,1.614l0.123,12.706c-0.453,0.703-1.398,1.076-2.306,1.2
			c0.124,0.58,0.124,1.159,0.411,1.697c0.783,1.986,2.965,2.152,4.736,2.566c3.129,0.082,6.012-1.283,7.698-3.893
			c1.481,1.944,3.212,3.063,5.438,3.686c2.924,0.621,5.641-0.373,8.029-1.49c0.946,1.033,1.978,1.158,3.17,1.697
			c4.078,0.783,7.905-1.201,9.967-4.473c0.369,1.284,0.123,2.854,0.205,4.266c1.812,0.33,3.953,0.248,5.809,0.123l0.328-16.101
			c0.535-1.449,1.938-2.608,3.623-2.691c1.152,0.083,2.348,0.415,2.677,1.574v12.912l-0.698,0.993
			c-0.619,0.29-1.236,0.87-1.979,0.498c0.742,0.95,1.73,1.901,2.966,2.315c4.849,1.651,10.354-0.488,13.444-3.869
			c2.205,3.05,7.125,5.721,11.757,4.862c5.478-0.993,10.378-5.422,12.188-10.761c2.553,0.247,4.57,3.063,5.229,5.38
			c0.576,2.4-0.41,4.388-1.895,6.042c-6.961,6.539-27.469,6.167-27.469,6.167l-69.496-0.413l-0.001-0.07l-16.918-0.069
			l-40.232-0.332l-45.256-0.082c6.341,0.664,11.983,4.139,15.895,9.022l48.139,0.33l37.72,0.232v0.004l71.55,0.606
			c2.759,0,5.329-2.123,6.192-4.607l-0.045-0.026c8.49-0.63,17.5-2.043,23.006-8.276
			C213.833,121.324,214.451,117.931,213.71,114.828 M142.022,112.619c-0.823,1.572-2.556,2.318-4.323,2.194
			c-2.388-0.414-4.2-2.813-4.776-5.09c-1.113-3.684-0.742-8.361,1.977-11.134c1.234-0.786,2.967-1.366,4.447-0.662
			c0.988,0.414,2.02,1.283,2.471,2.276C142.187,104.217,141.94,108.481,142.022,112.619z M186.002,104.549h0.619
			c-0.372,1.573-1.195,2.939-2.101,4.305C184.313,107.239,184.808,105.5,186.002,104.549z M197.657,109.143
			c-1.771,3.229-5.19,5.671-9.268,5.174c-1.521-0.207-2.636-1.408-3.17-2.689c1.315-1.738,2.43-3.891,3.663-5.875
			c1.235,0.993,1.319,2.773,1.194,4.262c-0.493,0.371-1.194,1.199-0.329,1.613c0.164,0.166,0.411,0.082,0.617,0.082
			c2.059-2.274,4.405-4.056,7.7-4.47C198.397,107.819,197.946,108.564,197.657,109.143z M198.974,105.253
			c-1.15,0-2.141,0.413-3.293,0.413c-1.646-2.069-3.131-3.021-5.313-3.973c0.207-1.118,0.125-2.648,1.564-2.897
			c2.473-1.324,5.104,0.042,6.426,2.194C198.974,102.273,199.304,103.845,198.974,105.253z M86.965,130.5v3.354
			c-0.823,0.083-2.017,0.332-2.634-0.166l0.082-5.877c1.688,0.083,3.541-0.165,5.147,0.208c-0.165,1.075-3.5-0.622-2.389,1.487
			c0.783,0.209,1.772-0.041,2.595,0.209v0.289C88.901,130.334,87.583,129.715,86.965,130.5z M92.814,134.059
			c-0.536-1.242-2.266-0.455-3.378-0.703c-0.246,0.371-0.37,0.745-0.865,0.703v-0.496l3.459-5.754l0.495,0.29l3.047,5.877
			C94.79,134.306,93.678,134.184,92.814,134.059z M102.285,133.976c-0.289-0.827-0.371-1.738-0.865-2.483
			c-0.742,0.497-1.153,1.49-1.771,2.193c-0.823-0.454-1.236-1.488-1.894-2.11c-0.618,0.622-0.37,1.862-0.988,2.483h-0.289
			c0.206-1.986,0.947-4.222,1.565-6.042l0.412,0.082c0.699,1.117,1.359,2.111,2.347,2.979l2.182-3.186
			c0.784,1.863,1.483,3.973,1.895,6.084H102.285z M107.226,134.184c-0.865-0.29-1.73-0.952-2.14-1.823
			c-0.289-0.952-0.372-1.985,0.081-2.854c0.659-0.869,1.4-1.612,2.553-1.778c1.771-0.082,2.593,0.745,3.458,1.987
			c0.451,1.28,0.204,2.813-0.865,3.767C109.408,133.976,108.379,134.556,107.226,134.184z M118.015,128.306
			c-0.166,2.152,0.577,5.132-1.771,5.959c-1.606-0.081-3.624,0.373-4.242-1.406l-0.123-4.637c0.659-0.371,2.347-0.619,2.759,0.168
			v5.09c0.33,0.496,1.235,0.247,1.813,0.206c1.854-1.117,0.536-4.056,1.069-5.794C117.81,127.769,118.181,128.141,118.015,128.306z
			 M123.368,133.272c-0.741,1.076-2.223,1.076-3.459,0.911c-0.453-0.167-1.071-0.457-1.194-0.911
			c0.618-0.207,2.226,1.736,2.349-0.083c-0.946-1.573-3.131-2.482-2.143-4.472c0.864-1.363,3.212-1.157,4.118-0.328
			c-0.495,0.494-1.399-0.498-1.976,0.123C121.515,130.334,124.233,131.16,123.368,133.272z"/>
	</g>
</g>
</svg>
