<svg enable-background="new 0 0 216 216" height="216" viewBox="0 0 216 216" width="216" xmlns="http://www.w3.org/2000/svg"><g fill="#e03a3f"><path d="m128.104 86.007v.29c-.496.124-.867-.662-1.276-.124.37 1.449 2.676 2.442 1.276 3.973-.947.456-2.103.538-2.967-.083-.123-.124-.289-.207-.205-.414.492-.372 1.646 1.076 1.481-.289-.782-.994-2.103-1.738-1.276-3.187.826-.786 2.061-.786 2.967-.166"/><path d="m131.149 85.801c0 1.489.455 3.104 0 4.552h-1.77c-.369-1.324-.125-2.897-.207-4.346.415-.538 1.403-.289 1.977-.206"/><path d="m141.446 86.587v.207c-.659.207-1.482-1.241-2.184-.29v3.269c.287.332.822.207 1.193.083.494-.207.659-.827 1.193-.786-.041.579-.494 1.117-1.11 1.407-1.113.29-2.472 0-3.048-.91-.535-.579-.576-1.531-.412-2.277.453-.786.988-1.241 1.896-1.613.99-.124 1.813.165 2.472.91"/><path d="m132.552 85.801c1.111.703 1.979 1.324 3.252 1.862.578-.414.123-1.283.412-1.862.288-.083.371.289.495.496l-.124 4.18c-1.275-.455-2.389-1.282-3.664-1.821-.207.621.123 1.697-.66 1.821-.328-1.448-.246-3.187-.123-4.676z"/><path d="m146.265 86.09v.207c-.535.331-1.729-.372-1.854.58.576.413 1.398.206 2.059.413v.207l-1.977.29c-.04.662-.37 1.78.289 2.193h1.688v.497h-4.035l-.123-4.387c.946-.537 2.473-.207 3.664-.289z"/><path d="m155.077 86.587c.576.952.576 2.235 0 3.186-.494.414-1.071.911-1.895.994-.535-.042-1.235-.29-1.483-.704.248-.91.989.456 1.604 0l.084-3.476c-.371-.58-1.07.041-1.359.29-.369.248-.122.745-.205 1.118.33.247.701.496 1.193.371v.497c-.822.414-1.604-.166-1.896-.868-.123-1.077.495-1.822 1.399-2.194.994-.042 1.94-.083 2.558.786"/><path d="m162.776 86.38v.207c-.576.331-1.357-.91-1.771.083.495 1.2-.658 2.897.577 3.476.576-.041 1.11-.538 1.317-1.076 0-.414-.328-.828-.7-.993-.164.165-.494.083-.699.083-.205-.124-.205-.29-.082-.497.617-.166 1.481-.124 1.771.497.41.579.082 1.323-.207 1.82-.41.704-1.151.663-1.771.787-1.071-.124-1.647-.58-2.183-1.49-.247-.993-.041-2.152.576-2.773.699-.579 1.646-.869 2.594-.621.126.29.455.248.578.497"/><path d="m150.629 90.478h-1.771l-.205-3.476c-.166-.207-.413-.083-.577-.124v-.373c.782-.289 1.729-.538 2.553-.497z"/><path d="m158.329 86.297v4.18h-1.854l-.121-3.311c-.207-.496-.826.249-.785-.496.826-.29 1.604-.704 2.555-.663z"/></g><g fill="#036e67"><path d="m108.05 128.222c-.618 1.408-.041 3.354-.207 5.134l.207.33c.783-.041 1.358-.33 1.977-.827.783-.621.906-1.821.658-2.647-.495-1.203-1.359-1.946-2.635-1.99"/><path d="m90.836 131.202c-.165.456-.864.995-.699 1.573.534-.041 1.112.083 1.606-.084-.123-.578-.494-1.24-.907-1.489"/><path d="m183.819 83.111c1.318 3.601.371 7.946-1.854 10.636-.409.331-.862.539-1.397.58.164-1.118.617-2.484 0-3.56-.411-.952-1.483-.248-2.182-.621-.908-.497-1.605-1.283-1.854-2.359.079-2.566.575-5.463 3.17-6.456 1.688-.579 3.459.372 4.117 1.78"/><path d="m89.93 111.502c-.987 1.738-2.511 2.897-4.611 3.104-.784-.124-1.483-.29-1.895-.993-.535-4.181-.206-7.988-.288-12.333l.7-1.283c.617-.787 1.977-.539 2.842-.58-.577-1.738-2.143-3.394-3.665-4.387-3.46-2.69-9.266-2.525-13.22-.91-4.57 2.11-8.07 6.331-8.811 11.422-1.236 3.269 2.017 5.794.123 8.567l1.22.141 1.538 2.219c2.102 2.524 5.683 3.521 9.102 2.606 1.77-.33 2.923-1.694 4.53-2.192 1.358 1.533 3.047 2.773 5.353 2.69 3.5-.125 5.93-2.69 7.412-5.588zm-13.136-.164c-.865 1.365-1.688 2.647-3.459 2.979-2.183.415-3.953-.91-4.941-2.482-1.689-3.727-1.482-8.979.205-12.624.783-1.118 1.895-2.028 3.254-2.194 2.018-.165 3.665 1.201 4.447 2.773l.494 1.491z"/><path d="m61.105 114.109c-.7.828-1.812.994-2.965.87-.74-.373-1.4-.788-1.812-1.573-.494-6.416-.165-13.368-.288-19.867l.206-.91c.453-1.158 1.811-1.531 3.047-1.49-.577-2.4-2.553-4.469-4.447-5.959-3.912-2.981-10.378-3.187-14.701-.994-1.112.414-1.813 1.739-2.966 1.491-1.606-2.236-4.24-4.056-6.711-5.132-5.643-1.946-12.19-1.035-16.926 2.276-2.059 1.365-3.583 2.897-5.23 4.676-.659-.91-.906-2.193-2.182-2.4-1.071-.373-2.018.166-2.841.704-1.112 1.076-1.607 2.772-1.112 4.345.37 1.283 1.77 1.862 2.758 2.318-.658 1.822-1.44 3.642-1.481 5.753-.124 4.47 1.976 8.567 5.64 10.719 2.224 1.447 5.848 1.117 8.031-.207 2.759-1.614 4.365-4.512 5.023-7.532.619-3.684.083-7.616-2.553-9.934-.823-.372-1.935-.165-2.594.208-.741.537-.906 1.49-1.07 2.359.164 1.034.287 2.276 1.358 2.773.701.166 1.112-.207 1.607-.497.453 1.324.082 2.732-.782 3.683-.948.91-2.389 1.201-3.789.91-1.112-.454-2.471-1.282-2.76-2.4-.658-.372-.782-1.2-.988-1.862-.947-4.304 1.236-8.318 4.159-10.76 2.142-1.863 5.642-2.029 8.319-1.159 3.253 1.117 6.053 4.345 6.588 7.822l.33 18.375-.412 2.108c-.783 1.615-2.059 2.649-3.665 3.271-1.112.289-1.812-.125-2.841.289.042.994-.206 2.108.165 2.979l19.478-.082c.287-1.157-.124-1.985 0-3.104-1.072.248-2.06-.332-3.048-.579-1.195-.744-1.811-1.738-2.182-2.98l-.083-18.375c.165-1.739 1.359-3.105 2.76-3.973 1.441-.746 3.458-.746 4.941 0 1.523.951 2.471 2.069 2.841 3.849l.33 18.086c-.124.62-.577.951-1.112 1.2-.947.414-1.607-.663-2.265-.993.082 1.696 1.235 3.021 2.059 4.263 2.43 2.399 6.136 3.726 9.801 2.689 2.388-.579 4.601-2.963 5.713-5.115z"/><path d="m213.71 114.828c-1.029-3.685-4.611-6.085-7.906-7.451-.082-3.932-1.359-7.408-4.242-9.809-2.43-2.98-7.535-.869-8.895-4.883-.371-1.449.453-2.69 1.564-3.56.74-.621 2.307-.331 1.688-1.821l-5.93-.083-.289.29c-.37 4.842-.699 9.643-2.387 13.906-1.896-.041-3.584.662-4.942 1.779-2.513 2.484-3.171 7.243-1.688 10.64-.658.742-1.604 1.198-2.554 1.487-1.069.249-2.636.498-3.582-.207l.124-14.195.7-.787c.618-.041 1.151.042 1.563.497l.205-.206c.041-2.153-1.48-3.933-3.17-4.843-3.008-1.655-7.578-1.324-10.297.661-.533.415-1.273 1.284-2.059 1.616-.205-1.035.041-2.237-.205-3.271l-1.979.083c-.701 3.766-3.707 6.788-7.125 7.947-1.027.413-.451 1.986-.492 2.896.699-.247 1.191-.952 1.977-.827.824 0 1.236.704 1.605 1.324-.205 2.276.492 5.009-.617 6.954-1.029 1.903-3.008 3.438-5.52 3.063-1.029-.332-1.688-1.199-1.688-2.275l.205-13.204.783-.993c.82-.704 1.895-.413 2.883-.331-1.153-2.607-4.035-4.097-6.547-4.966-5.933-1.408-11.53.703-15.402 5.089-3.047 3.725-4.776 9.603-2.184 14.116.289.248.289.825 0 1.074-.369.331-1.07.662-1.688.414-.699-.207-.988-.785-1.274-1.406-.125-3.933-.207-8.275.122-12.417.247-1.241 1.813-2.358 2.472-3.268-1.275-2.112-3.377-2.981-5.437-3.478-3.666-.496-7.001.87-9.39 3.27l-.206-.207c-.246-5.049.084-10.306-.288-15.272-.576-.082-1.069.083-1.605.165-.246 3.271-2.225 6.375-4.53 8.278-.74 1.324-3.829 1.118-2.677 3.56.99.33 2.429-.29 3.172.496-.618 6.912 2.141 14.941-2.966 19.577-1.277.868-2.922 1.199-4.57.868-.7-.248-1.566-.538-1.853-1.364-.124-5.589-.247-11.756.082-16.888h.123c1.69.456 1.236-1.447 1.153-2.276l-1.358-.124-.288-12.127h-1.604c-.081 5.091-2.717 10.348-7.494 12.251l.082 1.987c.947.249 2.141-.207 2.966.372v12.416l-.742 2.36.257 2.404.278-.008c.495 2.195 1.483 4.35 3.789 4.969 3.376 1.16 7.412.332 9.966-2.274.657-.704 1.317-1.615 1.976-2.194.247 1.697-.083 3.601.289 5.175h5.723c.288-5.672-.165-11.632.413-17.177.74-1.325 1.811-2.649 3.664-2.401.865.166 1.646.828 2.059 1.614l.123 12.706c-.453.703-1.398 1.076-2.306 1.2.124.58.124 1.159.411 1.697.783 1.986 2.965 2.152 4.736 2.566 3.129.082 6.012-1.283 7.698-3.893 1.481 1.944 3.212 3.063 5.438 3.686 2.924.621 5.641-.373 8.029-1.49.946 1.033 1.978 1.158 3.17 1.697 4.078.783 7.905-1.201 9.967-4.473.369 1.284.123 2.854.205 4.266 1.812.33 3.953.248 5.809.123l.328-16.101c.535-1.449 1.938-2.608 3.623-2.691 1.152.083 2.348.415 2.677 1.574v12.912l-.698.993c-.619.29-1.236.87-1.979.498.742.95 1.73 1.901 2.966 2.315 4.849 1.651 10.354-.488 13.444-3.869 2.205 3.05 7.125 5.721 11.757 4.862 5.478-.993 10.378-5.422 12.188-10.761 2.553.247 4.57 3.063 5.229 5.38.576 2.4-.41 4.388-1.895 6.042-6.961 6.539-27.469 6.167-27.469 6.167l-69.496-.413-.001-.07-16.918-.069-40.232-.332-45.256-.082c6.341.664 11.983 4.139 15.895 9.022l48.139.33 37.72.232v.004l71.55.606c2.759 0 5.329-2.123 6.192-4.607l-.045-.026c8.49-.63 17.5-2.043 23.006-8.276 1.905-2.234 2.523-5.627 1.782-8.73m-71.688-2.209c-.823 1.572-2.556 2.318-4.323 2.194-2.388-.414-4.2-2.813-4.776-5.09-1.113-3.684-.742-8.361 1.977-11.134 1.234-.786 2.967-1.366 4.447-.662.988.414 2.02 1.283 2.471 2.276.369 4.014.122 8.278.204 12.416zm43.98-8.07h.619c-.372 1.573-1.195 2.939-2.101 4.305-.207-1.615.288-3.354 1.482-4.305zm11.655 4.594c-1.771 3.229-5.19 5.671-9.268 5.174-1.521-.207-2.636-1.408-3.17-2.689 1.315-1.738 2.43-3.891 3.663-5.875 1.235.993 1.319 2.773 1.194 4.262-.493.371-1.194 1.199-.329 1.613.164.166.411.082.617.082 2.059-2.274 4.405-4.056 7.7-4.47.333.579-.118 1.324-.407 1.903zm1.317-3.89c-1.15 0-2.141.413-3.293.413-1.646-2.069-3.131-3.021-5.313-3.973.207-1.118.125-2.648 1.564-2.897 2.473-1.324 5.104.042 6.426 2.194.616 1.283.946 2.855.616 4.263zm-112.009 25.247v3.354c-.823.083-2.017.332-2.634-.166l.082-5.877c1.688.083 3.541-.165 5.147.208-.165 1.075-3.5-.622-2.389 1.487.783.209 1.772-.041 2.595.209v.289c-.865.33-2.183-.289-2.801.496zm5.849 3.559c-.536-1.242-2.266-.455-3.378-.703-.246.371-.37.745-.865.703v-.496l3.459-5.754.495.29 3.047 5.877c-.782.33-1.894.208-2.758.083zm9.471-.083c-.289-.827-.371-1.738-.865-2.483-.742.497-1.153 1.49-1.771 2.193-.823-.454-1.236-1.488-1.894-2.11-.618.622-.37 1.862-.988 2.483h-.289c.206-1.986.947-4.222 1.565-6.042l.412.082c.699 1.117 1.359 2.111 2.347 2.979l2.182-3.186c.784 1.863 1.483 3.973 1.895 6.084zm4.941.208c-.865-.29-1.73-.952-2.14-1.823-.289-.952-.372-1.985.081-2.854.659-.869 1.4-1.612 2.553-1.778 1.771-.082 2.593.745 3.458 1.987.451 1.28.204 2.813-.865 3.767-.905.493-1.934 1.073-3.087.701zm10.789-5.878c-.166 2.152.577 5.132-1.771 5.959-1.606-.081-3.624.373-4.242-1.406l-.123-4.637c.659-.371 2.347-.619 2.759.168v5.09c.33.496 1.235.247 1.813.206 1.854-1.117.536-4.056 1.069-5.794.29-.123.661.249.495.414zm5.353 4.966c-.741 1.076-2.223 1.076-3.459.911-.453-.167-1.071-.457-1.194-.911.618-.207 2.226 1.736 2.349-.083-.946-1.573-3.131-2.482-2.143-4.472.864-1.363 3.212-1.157 4.118-.328-.495.494-1.399-.498-1.976.123.452 1.822 3.17 2.648 2.305 4.76z"/></g></svg>