<?xml version="1.0" encoding="utf-8"?>
<!-- Generator: Adobe Illustrator 16.0.0, SVG Export Plug-In . SVG Version: 6.00 Build 0)  -->
<!DOCTYPE svg PUBLIC "-//W3C//DTD SVG 1.1//EN" "http://www.w3.org/Graphics/SVG/1.1/DTD/svg11.dtd">
<svg version="1.1"
	 id="svg2" xmlns:dc="http://purl.org/dc/elements/1.1/" xmlns:rdf="http://www.w3.org/1999/02/22-rdf-syntax-ns#" xmlns:svg="http://www.w3.org/2000/svg" xmlns:cc="http://creativecommons.org/ns#" xmlns:inkscape="http://www.inkscape.org/namespaces/inkscape" xmlns:sodipodi="http://sodipodi.sourceforge.net/DTD/sodipodi-0.dtd" sodipodi:docname="Netflix icon.svg" inkscape:version="0.91 r13725"
	 xmlns="http://www.w3.org/2000/svg" xmlns:xlink="http://www.w3.org/1999/xlink" x="0px" y="0px" width="325.835px"
	 height="325.835px" viewBox="0 0 325.835 325.835" enable-background="new 0 0 325.835 325.835" xml:space="preserve">
<title  id="title5759">Netflix icon</title>
<sodipodi:namedview  showgrid="false" fit-margin-left="0" borderopacity="1.0" inkscape:cy="222.84368" id="base" fit-margin-top="0" inkscape:cx="133.94373" bordercolor="#666666" inkscape:zoom="0.70710678" pagecolor="#ffffff" inkscape:window-y="-8" fit-margin-bottom="0" inkscape:window-height="705" inkscape:window-x="-8" inkscape:window-width="1366" fit-margin-right="0" inkscape:window-maximized="1" inkscape:document-units="px" inkscape:pageopacity="0.0" inkscape:pageshadow="2" inkscape:current-layer="layer1">
	</sodipodi:namedview>
<g id="g5747" transform="matrix(0.29074008,0,0,0.29074008,81.631476,113.77111)">
	<path id="path4155" inkscape:connector-curvature="0" fill="#B1060F" stroke="#000000" d="M339.687-210.555l-0.296,168l-0.296,168
		l-13.825-39c-0.003-0.013-0.02-0.062-0.027-0.076l-17.859,374.01c17.564,49.594,26.969,76.065,27.076,76.169
		c0.138,0.141,10.144,0.746,22.239,1.344c36.639,1.821,82.044,5.714,116.49,9.996c7.974,0.988,14.836,1.498,15.249,1.125
		c0.413-0.37,0.638-171.424,0.5-380.12l-0.252-379.448h-74.5H339.687z"/>
	<path id="path4157" inkscape:connector-curvature="0" fill="#B1060F" stroke="#000000" d="M70.187-211.056v379.833
		c0,208.909,0.205,380.038,0.455,380.286c0.25,0.252,13.187-0.967,28.749-2.714c15.563-1.74,37.07-3.91,47.795-4.817
		c16.45-1.384,65.56-4.541,71.247-4.578c1.654-0.01,1.762-8.548,2-160.881l0.254-160.87l11.882,33.619
		c1.837,5.196,2.413,6.819,4.202,11.88l17.856-373.918c-3.782-10.696-1.799-5.082-6.135-17.34
		c-14.589-41.25-26.97-76.238-27.513-77.75l-0.987-2.751H145.09H70.187z"/>
	
		<radialGradient id="path5623_1_" cx="3553.7813" cy="-439.9355" r="368.7096" gradientTransform="matrix(0.0707 -0.0245 -0.897 -2.5906 -373.3261 -888.0295)" gradientUnits="userSpaceOnUse">
		<stop  offset="0" style="stop-color:#000000"/>
		<stop  offset="1" style="stop-color:#000000;stop-opacity:0"/>
	</radialGradient>
	<path id="path5623" inkscape:connector-curvature="0" fill="url(#path5623_1_)" d="M70.187-211.056V2.156l150.198,398.418
		c0.015-9.129,0.034-14.067,0.049-24.5l0.254-160.87l11.882,33.619C298.715,435.99,334.252,536.34,334.461,536.548
		c0.138,0.141,10.144,0.746,22.239,1.344c36.639,1.821,82.044,5.714,116.49,9.996c7.974,0.988,14.836,1.498,15.249,1.125
		c0.282-0.252,0.47-84.127,0.517-202.447L339.465-83.227l-0.074,40.671l-0.296,168l-13.825-39
		c-13.503-38.107-22.521-63.592-76.779-216.999c-14.589-41.25-26.97-76.238-27.513-77.75l-0.987-2.751H145.09H70.187L70.187-211.056
		z"/>
	<path id="path4159" inkscape:connector-curvature="0" fill="#E50914" d="M70.19-211.056l150.497,426.454v-0.195l11.882,33.619
		C298.715,435.99,334.252,536.34,334.461,536.548c0.138,0.141,10.144,0.746,22.239,1.344c36.639,1.821,82.044,5.714,116.49,9.996
		c7.934,0.981,14.759,1.491,15.236,1.129L339.096,125.367v0.077l-13.825-39c-13.503-38.107-22.521-63.592-76.779-216.999
		c-14.589-41.25-26.97-76.238-27.513-77.75l-0.987-2.751H145.09H70.19z"/>
	<path id="path5715" inkscape:connector-curvature="0" fill="#B1060F" stroke="#000000" d="M339.687-210.555l-0.296,168l-0.296,168
		l-13.825-39c-0.003-0.013-0.02-0.062-0.027-0.076l-17.859,374.01c17.564,49.594,26.969,76.065,27.076,76.169
		c0.138,0.141,10.144,0.746,22.239,1.344c36.639,1.821,82.044,5.714,116.49,9.996c7.974,0.988,14.836,1.498,15.249,1.125
		c0.413-0.37,0.638-171.424,0.5-380.12l-0.252-379.448h-74.5H339.687z"/>
	<path id="path5717" inkscape:connector-curvature="0" fill="#B1060F" stroke="#000000" d="M70.187-211.056v379.833
		c0,208.909,0.205,380.038,0.455,380.286c0.25,0.252,13.187-0.967,28.749-2.714c15.563-1.74,37.07-3.91,47.795-4.817
		c16.45-1.384,65.56-4.541,71.247-4.578c1.654-0.01,1.762-8.548,2-160.881l0.254-160.87l11.882,33.619
		c1.837,5.196,2.413,6.819,4.202,11.88l17.856-373.918c-3.782-10.696-1.799-5.082-6.135-17.34
		c-14.589-41.25-26.97-76.238-27.513-77.75l-0.987-2.751H145.09H70.187z"/>
	
		<radialGradient id="path5719_1_" cx="3553.7813" cy="-439.9355" r="368.7096" gradientTransform="matrix(0.0707 -0.0245 -0.897 -2.5906 -373.3261 -888.0295)" gradientUnits="userSpaceOnUse">
		<stop  offset="0" style="stop-color:#000000"/>
		<stop  offset="1" style="stop-color:#000000;stop-opacity:0"/>
	</radialGradient>
	<path id="path5719" inkscape:connector-curvature="0" fill="url(#path5719_1_)" d="M70.187-211.056V2.156l150.198,398.418
		c0.015-9.129,0.034-14.067,0.049-24.5l0.254-160.87l11.882,33.619C298.715,435.99,334.252,536.34,334.461,536.548
		c0.138,0.141,10.144,0.746,22.239,1.344c36.639,1.821,82.044,5.714,116.49,9.996c7.974,0.988,14.836,1.498,15.249,1.125
		c0.282-0.252,0.47-84.127,0.517-202.447L339.465-83.227l-0.074,40.671l-0.296,168l-13.825-39
		c-13.503-38.107-22.521-63.592-76.779-216.999c-14.589-41.25-26.97-76.238-27.513-77.75l-0.987-2.751H145.09H70.187L70.187-211.056
		z"/>
	<path id="path5721" inkscape:connector-curvature="0" fill="#E50914" d="M70.19-211.056l150.497,426.454v-0.195l11.882,33.619
		C298.715,435.99,334.252,536.34,334.461,536.548c0.138,0.141,10.144,0.746,22.239,1.344c36.639,1.821,82.044,5.714,116.49,9.996
		c7.934,0.981,14.759,1.491,15.236,1.129L339.096,125.367v0.077l-13.825-39c-13.503-38.107-22.521-63.592-76.779-216.999
		c-14.589-41.25-26.97-76.238-27.513-77.75l-0.987-2.751H145.09H70.19z"/>
</g>
</svg>
