<svg enable-background="new 0 0 325.835 325.835" height="325.835" viewBox="0 0 325.835 325.835" width="325.835" xmlns="http://www.w3.org/2000/svg" xmlns:xlink="http://www.w3.org/1999/xlink"><radialGradient id="a" cx="3553.7813" cy="-439.9355" gradientTransform="matrix(.0707 -.0245 -.897 -2.5906 -373.3261 -888.0295)" gradientUnits="userSpaceOnUse" r="368.7096"><stop offset="0"/><stop offset="1" stop-opacity="0"/></radialGradient><g transform="matrix(.29074008 0 0 .29074008 81.631476 113.77111)"><path d="m339.687-210.555-.296 168-.296 168-13.825-39c-.003-.013-.02-.062-.027-.076l-17.859 374.01c17.564 49.594 26.969 76.065 27.076 76.169.138.141 10.144.746 22.239 1.344 36.639 1.821 82.044 5.714 116.49 9.996 7.974.988 14.836 1.498 15.249 1.125.413-.37.638-171.424.5-380.12l-.252-379.448h-74.5z" fill="#b1060f" stroke="#000"/><path d="m70.187-211.056v379.833c0 208.909.205 380.038.455 380.286.25.252 13.187-.967 28.749-2.714 15.563-1.74 37.07-3.91 47.795-4.817 16.45-1.384 65.56-4.541 71.247-4.578 1.654-.01 1.762-8.548 2-160.881l.254-160.87 11.882 33.619c1.837 5.196 2.413 6.819 4.202 11.88l17.856-373.918c-3.782-10.696-1.799-5.082-6.135-17.34-14.589-41.25-26.97-76.238-27.513-77.75l-.987-2.751h-74.902-74.903z" fill="#b1060f" stroke="#000"/><path d="m70.187-211.056v213.212l150.198 398.418c.015-9.129.034-14.067.049-24.5l.254-160.87 11.882 33.619c66.145 187.167 101.682 287.517 101.891 287.725.138.141 10.144.746 22.239 1.344 36.639 1.821 82.044 5.714 116.49 9.996 7.974.988 14.836 1.498 15.249 1.125.282-.252.47-84.127.517-202.447l-149.491-429.793-.074 40.671-.296 168-13.825-39c-13.503-38.107-22.521-63.592-76.779-216.999-14.589-41.25-26.97-76.238-27.513-77.75l-.987-2.751h-74.901z" fill="url(#a)"/><path d="m70.19-211.056 150.497 426.454v-.195l11.882 33.619c66.146 187.168 101.683 287.518 101.892 287.726.138.141 10.144.746 22.239 1.344 36.639 1.821 82.044 5.714 116.49 9.996 7.934.981 14.759 1.491 15.236 1.129l-149.33-423.65v.077l-13.825-39c-13.503-38.107-22.521-63.592-76.779-216.999-14.589-41.25-26.97-76.238-27.513-77.75l-.987-2.751h-74.902z" fill="#e50914"/><path d="m339.687-210.555-.296 168-.296 168-13.825-39c-.003-.013-.02-.062-.027-.076l-17.859 374.01c17.564 49.594 26.969 76.065 27.076 76.169.138.141 10.144.746 22.239 1.344 36.639 1.821 82.044 5.714 116.49 9.996 7.974.988 14.836 1.498 15.249 1.125.413-.37.638-171.424.5-380.12l-.252-379.448h-74.5z" fill="#b1060f" stroke="#000"/><path d="m70.187-211.056v379.833c0 208.909.205 380.038.455 380.286.25.252 13.187-.967 28.749-2.714 15.563-1.74 37.07-3.91 47.795-4.817 16.45-1.384 65.56-4.541 71.247-4.578 1.654-.01 1.762-8.548 2-160.881l.254-160.87 11.882 33.619c1.837 5.196 2.413 6.819 4.202 11.88l17.856-373.918c-3.782-10.696-1.799-5.082-6.135-17.34-14.589-41.25-26.97-76.238-27.513-77.75l-.987-2.751h-74.902-74.903z" fill="#b1060f" stroke="#000"/><path d="m70.187-211.056v213.212l150.198 398.418c.015-9.129.034-14.067.049-24.5l.254-160.87 11.882 33.619c66.145 187.167 101.682 287.517 101.891 287.725.138.141 10.144.746 22.239 1.344 36.639 1.821 82.044 5.714 116.49 9.996 7.974.988 14.836 1.498 15.249 1.125.282-.252.47-84.127.517-202.447l-149.491-429.793-.074 40.671-.296 168-13.825-39c-13.503-38.107-22.521-63.592-76.779-216.999-14.589-41.25-26.97-76.238-27.513-77.75l-.987-2.751h-74.901z" fill="url(#a)"/><path d="m70.19-211.056 150.497 426.454v-.195l11.882 33.619c66.146 187.168 101.683 287.518 101.892 287.726.138.141 10.144.746 22.239 1.344 36.639 1.821 82.044 5.714 116.49 9.996 7.934.981 14.759 1.491 15.236 1.129l-149.33-423.65v.077l-13.825-39c-13.503-38.107-22.521-63.592-76.779-216.999-14.589-41.25-26.97-76.238-27.513-77.75l-.987-2.751h-74.902z" fill="#e50914"/></g></svg>