<?xml version="1.0" encoding="utf-8"?>
<!-- Generator: Adobe Illustrator 16.0.0, SVG Export Plug-In . SVG Version: 6.00 Build 0)  -->
<!DOCTYPE svg PUBLIC "-//W3C//DTD SVG 1.1//EN" "http://www.w3.org/Graphics/SVG/1.1/DTD/svg11.dtd">
<svg version="1.1"
	 id="svg8" xmlns:dc="http://purl.org/dc/elements/1.1/" xmlns:cc="http://creativecommons.org/ns#" xmlns:rdf="http://www.w3.org/1999/02/22-rdf-syntax-ns#" xmlns:svg="http://www.w3.org/2000/svg" xmlns:sodipodi="http://sodipodi.sourceforge.net/DTD/sodipodi-0.dtd" xmlns:inkscape="http://www.inkscape.org/namespaces/inkscape" sodipodi:docname="New Japan Pro Wrestling Logo 2.svg" inkscape:version="0.92.3 (2405546, 2018-03-11)"
	 xmlns="http://www.w3.org/2000/svg" xmlns:xlink="http://www.w3.org/1999/xlink" x="0px" y="0px" width="225px" height="223.261px"
	 viewBox="37.5 38.37 225 223.261" enable-background="new 37.5 38.37 225 223.261" xml:space="preserve">
<sodipodi:namedview  objecttolerance="10" guidetolerance="10" gridtolerance="10" showgrid="false" inkscape:cy="518.48739" inkscape:cx="767.64706" inkscape:zoom="0.34" borderopacity="1" bordercolor="#666666" pagecolor="#ffffff" id="namedview8" inkscape:window-height="480" inkscape:window-width="640" inkscape:current-layer="svg8" inkscape:pageopacity="0" inkscape:pageshadow="2" inkscape:snap-global="false" inkscape:showpageshadow="false">
	</sodipodi:namedview>
<title  id="title830">New Japan Pro Wrestling Logo 2</title>
<g id="g1317">
	<path id="path1201" inkscape:connector-curvature="0" d="M147.326,38.733c-9.333-0.069-18.621,1.417-27.549,4.079
		c-25.022,7.265-47.653,22.986-62.633,44.358c-4.637,6.622-8.342,13.855-11.221,21.398c-3.144,7.649-5.702,15.59-6.821,23.794
		c-2.668,17.69-0.998,35.987,4.545,52.965c3.404,10.149,8.524,19.671,14.622,28.45c3.621,5.201,7.823,9.971,12.326,14.426
		c5.053,5.141,10.59,9.818,16.654,13.727c17.887,11.873,39.103,18.838,60.599,19.314c15.162,0.221,30.254-2.872,44.336-8.41
		c19.643-7.78,37.162-21.141,49.33-38.449c6.41-9.201,11.673-19.24,15.383-29.836c4.794-13.704,5.828-28.451,4.982-42.873
		c-0.766-12.174-3.516-24.245-8.492-35.381c-6.625-15.195-16.543-29.01-29.136-39.816c-12.099-10.45-26.451-18.213-41.699-22.959
		c-10.433-3.223-21.353-4.748-32.273-4.784C149.294,38.721,148.31,38.734,147.326,38.733L147.326,38.733z"/>
	<path id="path1210" inkscape:connector-curvature="0" fill="#FF160B" d="M149.082,68.683c-0.358,0.001-0.717,0.003-1.075,0.003v0
		c-6.797-0.05-13.562,1.03-20.064,2.964c-18.223,5.279-34.706,16.705-45.616,32.236c-3.377,4.813-6.075,10.069-8.172,15.55
		c-2.289,5.559-4.152,11.329-4.968,17.292c-1.943,12.856-0.727,26.153,3.31,38.491c2.479,7.377,6.208,14.295,10.65,20.676
		c2.637,3.779,5.697,7.245,8.976,10.482c3.681,3.736,7.713,7.135,12.129,9.977c13.027,8.627,28.479,13.689,44.134,14.035
		c11.043,0.16,22.035-2.087,32.291-6.112c14.306-5.653,27.064-15.362,35.927-27.941c4.669-6.687,8.502-13.982,11.203-21.683
		c3.492-9.959,4.245-20.675,3.629-31.156c-0.557-8.847-2.561-17.619-6.186-25.712c-4.824-11.042-12.048-21.083-21.219-28.936
		c-8.812-7.594-19.265-13.236-30.37-16.685c-7.598-2.342-15.55-3.45-23.504-3.477C149.798,68.682,149.44,68.682,149.082,68.683
		L149.082,68.683z M125.697,123.569c0.306,0,0.665,0.03,1.109,0.08c5.033,0.567,7.252,5.216,3.574,7.489
		c-2.233,1.38-4.049,1.219-5.896-0.524c-0.993-0.938-1.652-2.059-1.838-3.125c-0.247-1.414-0.11-1.841,0.915-2.866
		C124.347,123.837,124.78,123.57,125.697,123.569L125.697,123.569z M172.186,124.506c0.482,0.019,0.847,0.231,1.448,0.679
		c0.907,0.674,1.255,1.367,1.354,2.688c0.253,3.35-1.255,5.318-4.472,5.837c-1.218,0.196-1.716,0.024-2.574-0.892
		c-0.668-0.713-1.148-1.887-1.292-3.154c-0.193-1.723-0.063-2.183,0.897-3.143c0.618-0.619,1.966-1.376,2.995-1.685
		c0.631-0.189,1.068-0.303,1.428-0.327C172.045,124.505,172.117,124.504,172.186,124.506L172.186,124.506z M127.125,125.835
		c-1.195,0.048-1.978,0.786-1.978,1.932c0,2.264,3.208,2.96,4.146,0.9c0.679-1.49,0.027-2.611-1.632-2.809
		C127.474,125.836,127.295,125.828,127.125,125.835z M170.582,127.127c-1.517,0-2.25,0.768-2.25,2.354
		c0,0.902,0.295,1.391,1.012,1.676c1.131,0.45,2.64,0.16,3.143-0.604c0.508-0.771,0.405-2.286-0.195-2.886
		C171.994,127.371,171.225,127.127,170.582,127.127L170.582,127.127z"/>
	<path id="path850" inkscape:connector-curvature="0" fill="#FF160B" d="M56.659,116.895c-1.975,0.04-3.939,0.902-5.432,2.555
		c-3.626,4.014-2.287,9.632,2.843,11.934c3.364,1.509,7.776-0.176,9.453-3.61c1.617-3.312,0.93-6.532-1.928-9.042
		C60.152,117.464,58.401,116.859,56.659,116.895z M242.461,116.915c-2.68-0.035-5.328,1.323-6.665,3.943
		c-2.175,4.264-0.036,9.422,4.474,10.789c5.312,1.609,10.637-3.09,9.711-8.57c-0.166-0.979-0.939-2.47-1.813-3.489
		C246.648,117.813,244.546,116.942,242.461,116.915L242.461,116.915z"/>
	<path id="path896" inkscape:connector-curvature="0" fill="#FFD810" d="M127.125,125.835c-1.195,0.048-1.978,0.786-1.978,1.932
		c0,2.264,3.208,2.96,4.146,0.9c0.679-1.49,0.027-2.611-1.632-2.809C127.474,125.836,127.295,125.828,127.125,125.835z
		 M170.582,127.127c-1.517,0-2.25,0.768-2.25,2.354c0,0.902,0.295,1.391,1.012,1.676c1.131,0.45,2.64,0.16,3.143-0.604
		c0.508-0.771,0.405-2.286-0.195-2.886C171.994,127.371,171.225,127.127,170.582,127.127L170.582,127.127z"/>
	<path id="path828" inkscape:connector-curvature="0" fill="#FF160B" d="M148.764,38.37c-9.631,0.024-15.15,0.642-23.617,2.643
		C92.71,48.68,63.907,70.767,49.791,98.798c-2.003,3.978-5.94,13.683-7.569,18.658c-7.014,21.422-6.167,48.526,2.227,71.241
		c3.544,9.59,10.105,21.203,16.767,29.676c4.555,5.794,13.268,14.553,18.495,18.592c17.775,13.734,38.07,21.904,60.056,24.178
		c24.226,2.504,52.374-4.742,73.499-18.922c16.832-11.297,28.887-25.174,38.267-44.049c7.864-15.825,10.989-29.595,10.968-48.327
		c-0.023-21.012-4.703-38.31-15.229-56.292c-10.603-18.115-26.389-32.888-45.483-42.564
		C184.428,42.192,168.162,38.321,148.764,38.37z M149.481,40.445c21.71,0.064,43.964,6.752,62.354,19.033
		c16.684,11.142,28.218,24.348,37.377,42.796c7.968,16.049,11.085,29.661,11.049,48.246c-0.037,18.806-3.594,33.58-11.912,49.483
		c-11.098,21.218-27.773,37.465-49.202,47.935c-13.639,6.663-26.23,10.14-41.387,11.429c-5.132,0.436-11.186,0.506-14.62,0.169
		c-17.938-1.758-29.985-5.125-44.085-12.319c-27.161-13.859-48.211-39.708-55.819-68.544c-4.822-18.276-5.123-37.672-0.848-54.6
		c2.429-9.617,7.708-22.391,12.604-30.496C62.66,80.883,75.047,68.1,87.933,59.586c14.787-9.771,30.193-15.751,46.66-18.115
		C139.491,40.768,144.472,40.43,149.481,40.445z M156.027,44.979c-2.271-0.013-4.169,0.554-5.23,1.616
		c-1.029,1.029-1.614,4.52-1.073,6.405c0.553,1.926,2.226,3.02,5.12,3.346c3.012,0.34,4.041,0.828,4.041,1.917
		c0,1.73-5.063,1.472-5.313-0.271c-0.107-0.749-0.557-1.042-1.967-1.28c-2.027-0.342-2.599,0.104-2.609,2.039
		c-0.01,2.016,1.434,4.228,3.143,4.811c2.299,0.784,7.012,0.717,8.785-0.124c1.708-0.811,2.46-2.464,2.46-5.408
		c0-3.754-1.536-5.213-6.133-5.823c-2.796-0.371-3.534-0.782-3.159-1.758c0.223-0.579,0.764-0.714,2.428-0.608
		c1.828,0.117,2.162,0.286,2.285,1.15c0.127,0.897,0.402,1.012,2.419,1.012h2.274l-0.22-2.287c-0.292-3.039-1.247-3.926-4.874-4.527
		C157.582,45.053,156.783,44.983,156.027,44.979L156.027,44.979z M170.662,46.88c-0.053,0.002-0.08,0.011-0.08,0.025
		c0,0.117-0.911,4.186-2.024,9.044c-1.114,4.857-2.024,8.987-2.024,9.177s0.657,0.535,1.461,0.768
		c2.691,0.777,2.818,0.696,3.415-2.195c0.307-1.485,0.601-2.697,0.652-2.694c0.052,0.002,1.208,0.305,2.569,0.67
		c3.188,0.855,4.719,0.845,6.07-0.041c1.441-0.944,2.926-5.002,2.926-7.996c0-3.644-1.011-4.319-9.109-6.086
		C172.623,47.139,171.031,46.865,170.662,46.88L170.662,46.88z M139.974,49.427l-4.561,0.833c-2.508,0.458-4.635,0.909-4.727,1.001
		c-0.092,0.092,0.275,2.827,0.816,6.077l0.983,5.91l1.392-0.007c2.145-0.011,2.482-0.418,2.095-2.536l-0.341-1.865l2.63-0.518
		l2.631-0.518v-1.807c0-1.509-0.13-1.769-0.787-1.578c-0.433,0.126-1.749,0.366-2.924,0.531c-1.744,0.246-2.137,0.176-2.137-0.382
		c0-0.475,0.658-0.774,2.159-0.98c3.036-0.417,3.415-0.739,3.065-2.601L139.974,49.427z M174.887,53.03
		c1.054-0.014,2.865,0.429,3.639,0.994c0.672,0.491,0.711,0.759,0.258,1.754c-0.561,1.229-1.756,1.448-4.152,0.761
		c-0.922-0.264-1.1-0.561-0.982-1.642c0.079-0.726,0.306-1.485,0.504-1.688C174.269,53.089,174.535,53.034,174.887,53.03
		L174.887,53.03z M124.786,53.356c-2.546,0.005-6.535,1.739-7.303,3.175c-0.327,0.611-0.43,1.79-0.263,3.009
		c0.324,2.367,2.339,6.282,3.375,6.559c2.443,0.652,6.4-0.384,8.344-2.186c1.878-1.741,1.446-5.867-0.953-9.099
		C127.028,53.525,126.651,53.353,124.786,53.356z M191.492,54.08c-0.119,0.005-0.228,0.017-0.324,0.035
		c-2.638,0.512-7.18,7.681-7.813,12.335c-0.265,1.939-0.173,2.199,1.381,3.918c1.018,1.126,2.565,2.189,3.989,2.736v0
		c3.076,1.183,5.271,1.183,6.777-0.002c1.713-1.348,5.096-7.336,5.721-10.128c0.645-2.883,0.073-4.642-2.028-6.236
		C197.454,55.417,193.275,54.005,191.492,54.08L191.492,54.08z M102.407,56.607c-1.519-0.047-3.317,0.689-5.584,2.203
		c-2.762,1.844-4.066,3.568-4.066,5.375c0,2.722,6.065,11.501,8.669,12.548c1.682,0.677,2.568,0.518,5.341-0.96
		c3.634-1.937,5.333-3.934,5.333-6.271c0-0.998-0.222-2.256-0.493-2.796c-0.868-1.729-3.319-5.255-3.653-5.256
		c-0.528-0.001-6.649,4.063-6.649,4.416c0,0.178,0.517,1.084,1.149,2.015l1.15,1.691l1.282-0.913
		c1.578-1.124,2.267-1.158,2.267-0.113c0,0.798-3.273,3.25-4.339,3.25c-0.688,0-4.14-4.742-4.501-6.186
		c-0.298-1.188,0.427-2.17,2.501-3.392c1.325-0.78,1.391-0.778,2.11,0.061c0.728,0.851,0.776,0.845,2.655-0.319l1.914-1.185
		l-1.182-1.671C105.164,57.485,103.926,56.654,102.407,56.607z M124.437,57.498c0.025,0.001,0.041,0.005,0.047,0.013
		c1.195,1.503,1.413,3.727,0.402,4.115c-1.397,0.536-2.301,0.256-2.815-0.873c-0.809-1.776-0.637-2.325,0.9-2.861
		C123.655,57.654,124.262,57.493,124.437,57.498L124.437,57.498z M192.686,59.349c0.912-0.025,2.008,0.369,3.027,1.146
		c1.36,1.038,1.084,2.542-1.12,6.065c-0.874,1.396-1.825,2.537-2.115,2.537c-0.88-0.001-3.581-1.527-4.041-2.283
		c-0.503-0.826,1.518-5.744,2.858-6.958C191.655,59.53,192.138,59.364,192.686,59.349z M209.292,63.249
		c-0.172,0-2.969,3.333-6.214,7.406l-5.9,7.406l1.8,1.426l1.8,1.425l0.742-1.059c0.408-0.583,1.291-1.672,1.961-2.422l1.219-1.363
		l1.238,0.923c2.246,1.674,2.295,2.13,0.482,4.599l-1.654,2.253l1.593,1.398c1.898,1.667,2.262,1.714,2.966,0.386
		c0.296-0.557,1.213-1.901,2.04-2.988c0.827-1.087,1.503-2.454,1.503-3.037c0-0.738,0.258-1.06,0.848-1.06
		c1.188,0,3.944-3.196,4.576-5.304c0.391-1.305,0.397-2.004,0.025-2.699C217.832,69.635,209.929,63.249,209.292,63.249
		L209.292,63.249z M86.064,66.398c-0.172,0-1.001,0.574-1.843,1.276l-1.529,1.276l3.233,3.839c1.778,2.111,3.233,3.948,3.233,4.082
		c0,0.133-2.144-0.877-4.765-2.246c-5.318-2.777-5.5-2.776-8.247,0.059l-1.375,1.419l6.181,7.061c3.4,3.884,6.374,7.064,6.61,7.068
		c0.235,0.004,1.09-0.634,1.899-1.418l1.471-1.426l-2.805-3.185c-4.494-5.102-4.493-5.107,0.628-2.366
		c2.624,1.404,5.062,2.554,5.417,2.554s1.522-0.893,2.594-1.984l1.948-1.985l-6.168-7.013
		C89.153,69.553,86.236,66.398,86.064,66.398z M209.721,70.088c0.203-0.015,0.42,0.114,0.742,0.359
		c2.46,1.872,2.824,2.365,2.371,3.21c-0.619,1.159-1.735,1.02-3.422-0.424c-1.422-1.218-1.426-1.234-0.605-2.322
		C209.221,70.364,209.46,70.107,209.721,70.088z M224.084,74.868l-1.746,1.5c-0.961,0.825-1.764,1.716-1.785,1.979
		c-0.02,0.263,0.576,1.066,1.326,1.785s1.307,1.522,1.237,1.785c-0.069,0.264-2.252,2.463-4.851,4.889
		c-2.598,2.425-4.797,4.613-4.887,4.861c-0.089,0.248,0.498,1.132,1.305,1.964l1.466,1.513l5.097-4.701
		c2.803-2.585,5.244-4.701,5.426-4.701c0.18,0,1.055,0.708,1.941,1.575l1.614,1.576l1.726-1.767l1.726-1.768l-0.927-1.179
		c-0.51-0.648-2.668-3.008-4.797-5.245L224.084,74.868z M69.896,81.839c-0.739-0.036-1.149,0.625-1.919,1.708l-0.896,1.259
		l7.328,6.067l7.328,6.067l1.462-1.414c0.804-0.777,1.462-1.567,1.462-1.754c0-0.188-3.267-3.084-7.259-6.438
		C72.76,83.435,70.977,81.892,69.896,81.839z M63.961,88.891c-0.138,0-0.83,1.07-1.537,2.377l-1.286,2.377l1.905,3.47
		c1.047,1.909,1.725,3.471,1.506,3.471c-0.22,0-1.503-0.703-2.853-1.563c-1.349-0.86-2.656-1.566-2.903-1.571
		c-0.496-0.009-2.663,3.545-2.352,3.856c0.107,0.107,3.716,2.308,8.021,4.89v0.001c4.305,2.583,7.928,4.703,8.051,4.712
		c0.327,0.023,2.356-3.62,2.138-3.838c-0.101-0.101-1.585-1.091-3.297-2.201l-3.114-2.017l4.727-0.01l4.727-0.01l1.234-2.043
		c0.679-1.123,1.234-2.135,1.234-2.249s-2.532-0.207-5.626-0.207H68.91l-2.35-4.724C65.268,91.016,64.099,88.891,63.961,88.891
		L63.961,88.891z M234.813,90.69c-3.12,0-7.094,3.079-7.098,5.502c-0.002,0.428,0.637,2.073,1.418,3.656
		c1.46,2.962,1.48,4.529,0.056,4.254c-0.427-0.082-1.228-0.953-1.778-1.936c-0.941-1.678-0.955-1.835-0.246-2.62
		c0.711-0.784,0.698-0.934-0.189-2.465c-0.521-0.896-1.154-1.7-1.41-1.785c-0.8-0.267-4.149,3.27-4.149,4.38
		c0,2.346,1.175,4.804,3.39,7.094c2.58,2.667,3.691,2.922,6.412,1.472c4.541-2.42,5.034-4.08,2.712-9.119
		c-1.181-2.563-1.321-3.175-0.798-3.499c0.8-0.495,1.947,0.494,2.71,2.335c0.466,1.125,0.454,1.427-0.071,1.756
		c-0.531,0.333-0.489,0.666,0.266,2.065c0.495,0.917,1.135,1.743,1.42,1.834c0.286,0.091,1.248-0.473,2.137-1.253
		c1.373-1.206,1.617-1.701,1.607-3.285C241.178,95.188,237.754,90.69,234.813,90.69L234.813,90.69z"/>
	<path id="path1225" inkscape:connector-curvature="0" fill="#FFD810" d="M138.408,76.829c-3.945-0.074-7.008,2.039-6.271,5.396
		c0.421,1.917,3.205,4.845,5.605,5.894c1.113,0.487,2.92,1.618,4.014,2.514c1.095,0.896,2.512,1.983,3.149,2.414
		c1.338,0.906,3.657,1.037,4.443,0.251c0.771-0.771,0.677-6.604-0.144-8.933c-0.988-2.801-2.487-4.547-5.142-5.992
		C142.178,77.349,140.202,76.863,138.408,76.829L138.408,76.829z M162.736,77.794c-0.158-0.003-0.316-0.003-0.479,0.001
		c-2.83,0.073-6.131,1.309-7.818,3.23c-2.291,2.609-2.881,9.469-1.113,12.925c0.784,1.531,1.072,1.539,2.444,0.066
		c0.6-0.644,3.042-2.153,5.428-3.354c2.386-1.201,4.765-2.725,5.286-3.388c2.534-3.222,2.153-7.167-0.852-8.814
		C164.848,78.031,163.838,77.818,162.736,77.794L162.736,77.794z M123.837,79.8c-3.268,0.062-5.314,1.045-8.357,3.799
		c-1.822,1.65-2.125,2.148-1.887,3.101c0.387,1.542,1.89,2.127,6.755,2.632c2.27,0.235,4.935,0.724,5.924,1.086
		c2.23,0.816,4.371,0.893,5.082,0.182c2.033-2.033-2.772-10.607-6.036-10.772C124.795,79.801,124.304,79.791,123.837,79.8z
		 M175.413,80.343c-1.928,0-2.426,0.203-3.752,1.53c-1.319,1.32-1.528,1.829-1.527,3.711c0.002,2.805,1.251,4.924,3.242,5.498
		c2.071,0.598,2.867,0.58,6.267-0.141c3.412-0.723,6.445-2.129,6.846-3.174c0.424-1.103-3.02-4.509-6.128-6.062
		C178.432,80.741,176.986,80.343,175.413,80.343L175.413,80.343z M192.035,89.363c-1.809-0.028-2.754,0.401-7.15,2.504
		c-6.07,2.903-6.752,3.005-14.762,2.204c-2.545-0.254-4.083-0.159-6.205,0.385c-6.125,1.569-9.91,4.322-10.877,7.914
		c-0.78,2.897-0.162,11.085,1.008,13.374c0.84,1.64,0.89,2.031,0.378,2.987c-0.914,1.709-2.101,1.968-7.998,1.747
		c-4.383-0.165-5.537-0.345-5.748-0.897c-0.177-0.46,0.992-1.977,3.513-4.556c3.607-3.69,4.911-5.96,4.14-7.208
		c-0.149-0.242-0.07-1.688,0.175-3.213c0.718-4.458-0.556-6.467-5.594-8.827c-2.571-1.203-2.995-1.262-8.996-1.226
		c-4.838,0.029-7.219,0.264-10.27,1.013c-2.184,0.536-5.158,0.974-6.608,0.974c-2.464,0-2.878-0.165-6.316-2.52
		c-5.694-3.9-7.318-4.391-10.12-3.062c-3.105,1.474-4.001,5.969-2.893,14.508c0.443,3.414,0.098,5.019-1.08,5.019
		c-0.325,0-0.909-0.81-1.297-1.799c-0.644-1.639-0.852-1.799-2.339-1.799c-3.259,0-5.491,1.995-8.158,7.29
		c-0.859,1.707-2.283,4.105-3.163,5.331c-1.866,2.597-2.589,5.823-1.306,5.823c0.427,0,1.314-0.378,1.971-0.841
		c1.9-1.34,5.54-3.07,7.658-3.641c1.301-0.35,2.603-1.197,3.914-2.546c2.129-2.19,2.054-2.218,2.548,0.956
		c0.125,0.803,0.487,0.899,3.354,0.899c1.768,0,3.364,0.151,3.549,0.335c0.54,0.539-1.132,2.061-2.901,2.64
		c-2.795,0.916-3.561,1.708-5.424,5.611c-2.259,4.733-3.181,4.916-3.181,0.632c0-2.114-0.789-2.971-3.09-3.359
		c-3.081-0.521-6.926,1.128-9.185,3.939c-3.079,3.831-4.186,8.775-3.744,16.724c0.46,8.276,0.74,10.142,1.522,10.142
		c0.371,0,2.291-1.729,4.268-3.841c1.977-2.113,4.785-4.758,6.24-5.877c2.783-2.141,3.681-3.435,4.187-6.026
		c0.169-0.866,0.521-2.128,0.781-2.804l0.473-1.23l1.229,1.316c1.945,2.082,3.145,2.144,6.879,0.353
		c1.793-0.86,4.05-2.201,5.016-2.979c0.966-0.779,1.84-1.332,1.943-1.229c0.103,0.103-0.219,0.984-0.716,1.958
		c-0.613,1.201-2.121,2.655-4.692,4.523c-2.412,1.752-3.998,3.256-4.361,4.134c-0.909,2.194-0.401,12.269,0.749,14.853
		c1.027,2.309,2.004,3.283,2.902,2.897c0.341-0.147,1.232-1.112,1.981-2.145c0.749-1.033,2.41-2.485,3.689-3.228
		c1.852-1.074,2.446-1.715,2.912-3.14c0.716-2.192,2.347-3.206,3.729-2.318c0.497,0.319,1.644,2.054,2.548,3.856
		c3,5.975,7.281,9.072,13.822,9.998l3.623,0.512l3.022,3.363c1.662,1.85,3.643,3.741,4.401,4.203c1.895,1.156,2.678,1.1,2.334-0.168
		c-0.735-2.715-1.658-9.162-1.437-10.041c0.337-1.344,1.293-1.625,3.057-0.899c1.138,0.468,2.104,0.503,4.25,0.15
		c3.229-0.53,5.504-0.21,6.975,0.981c0.967,0.782,1.045,1.181,1.045,5.344c0,2.475,0.138,4.639,0.307,4.809
		c0.521,0.525,3.355-1.955,5.047-4.416c0.996-1.45,1.78-3.277,2.066-4.812c0.254-1.361,0.77-2.704,1.146-2.983
		c0.737-0.551,5.967-0.323,7.741,0.336c0.846,0.314,1.012,0.712,1.012,2.411c0,2.319,0.301,2.47,1.921,0.968
		c1.897-1.758,3.142-4.717,3.38-8.036c0.306-4.254-0.469-6.669-2.84-8.855c-3.561-3.282-8.811-4.006-14.96-2.063
		c-3.755,1.186-4.787,1.952-5.276,3.911c-0.166,0.665-1.318,2.146-2.563,3.291c-2.261,2.082-2.262,2.085-1.968,4.303
		c0.267,2.014,0.212,2.22-0.6,2.22c-1.868,0-3.186-0.979-3.186-2.367c0-1.312-0.788-2.259-4.443-5.341
		c-1.578-1.332-1.909-3.46-0.694-4.469c0.586-0.487,0.96-0.486,2.137,0.001c0.784,0.325,2.065,0.687,2.846,0.804
		c2.011,0.301,6.232-1.037,7.816-2.478l1.342-1.222l-0.051-6.748c-0.027-3.711-0.069-8.011-0.094-9.554
		c-0.049-3.044,0.981-5.149,2.66-5.437c0.469-0.08,3.016-1.157,5.66-2.393c3.262-1.525,6.002-2.456,8.521-2.896
		c4.9-0.855,5.945-1.542,5.659-3.713c-0.12-0.907-0.358-2.078-0.53-2.603c-0.233-0.709,0.059-1.378,1.137-2.605
		c1.584-1.805,1.532-2.276-0.531-4.84c-1.277-1.586-0.862-2.453,1.493-3.119c2.449-0.693,3.323-1.517,5.047-4.763
		c1.774-3.341,4.257-4.799,7.656-4.499c2.563,0.227,3.853,1.412,3.853,3.541c0,1.87-0.622,2.88-3.856,6.26
		c-3.198,3.342-3.808,4.802-2.706,6.484c1.413,2.156,3.234,1,5.494-3.488c4.977-9.883,3.545-14.965-4.377-15.532
		C192.915,89.4,192.451,89.369,192.035,89.363L192.035,89.363z M102.266,94.285c1.822,0.058,4.149,1.095,5.935,2.88
		c2.885,2.885,2.434,5.398-1.615,9.01c-1.544,1.377-2.931,2.505-3.083,2.506c-0.937,0.007-2.725-2.177-3.519-4.299
		c-1.137-3.04-1.252-7.632-0.228-9.095C100.26,94.567,101.172,94.25,102.266,94.285z M204.479,99.847
		c-0.617-0.045-1.081,0.554-1.662,1.778c-0.965,2.034-0.948,3.746,0.042,4.33c0.433,0.255,1.344,0.366,2.024,0.247
		c4.887-0.857,4.995-1.07,2.176-4.268C205.865,100.581,205.096,99.892,204.479,99.847L204.479,99.847z M208.096,109.644
		c-0.46-0.029-0.669,0.225-1.139,0.805c-0.637,0.786-0.838,1.782-0.838,4.148c0,5.138,1.108,6.81,5.979,9.022
		c2.795,1.27,4.875,1.385,5.93,0.329c0.807-0.809,0.472-5.001-0.559-6.992c-1.26-2.433-5.003-5.758-7.6-6.75
		C208.965,109.86,208.454,109.666,208.096,109.644L208.096,109.644z M198.654,110.02c-1.179-0.039-2.022,1.029-2.303,3.117
		c-0.443,3.313,0.145,4.881,2.254,6.004c1.04,0.555,2.297,1.145,2.791,1.312c1.874,0.633,2.703,0.246,2.641-1.231
		c-0.114-2.747-1.555-6.614-2.948-7.916C200.189,110.465,199.361,110.043,198.654,110.02z M117.02,118.581
		c3.762,0,8.567,1.104,11.714,2.693c2.029,1.024,3.298,1.355,5.193,1.355c2.089,0,2.699,0.192,3.656,1.149
		c1.101,1.101,1.136,1.295,0.837,4.673c-0.196,2.215-0.113,4.482,0.224,6.104c0.499,2.4,0.467,2.672-0.443,3.904
		c-0.881,1.191-0.947,1.66-0.665,4.67c0.223,2.382,0.154,3.538-0.237,4.01c-0.417,0.501-0.429,1.01-0.053,2.089
		c0.273,0.784,0.497,1.496,0.497,1.584c0,0.507-0.946,0.018-1.503-0.777c-0.473-0.674-0.587-1.674-0.413-3.591
		c0.359-3.962-0.529-4.679-8.112-6.542c-8.727-2.145-10.602-4.484-12.459-15.55c-0.498-2.965-0.905-5.478-0.905-5.582
		C114.35,118.666,115.551,118.581,117.02,118.581L117.02,118.581z M198.402,121.76c-0.719,0.003-1.316,0.368-1.665,1.132
		c-0.291,0.64-0.654,2.918-0.807,5.064c-0.358,5.062,0.628,7.601,4.232,10.896c1.359,1.242,2.698,2.182,2.977,2.089
		c0.347-0.117,0.506-2.441,0.506-7.369c0-7.143-0.009-7.212-1.253-9.005C201.131,122.748,199.6,121.753,198.402,121.76
		L198.402,121.76z M209.029,125.887c-1.121,0.015-1.313,0.983-1.19,3.441c0.071,1.441-0.185,3.978-0.569,5.636
		s-0.695,3.662-0.69,4.45c0.015,2.168,1.495,4.991,3.377,6.438c0.926,0.712,3.416,2.762,5.534,4.556
		c4.067,3.444,5.303,3.883,6.777,2.409c2.377-2.377,2.352-11.464-0.048-16.568c-1.919-4.082-6.62-8.276-11.028-9.839
		C210.24,126.071,209.539,125.88,209.029,125.887L209.029,125.887z M196.648,139.724c-0.857,0-0.953,0.403-1.535,6.425
		c-0.139,1.431-0.678,3.833-1.199,5.34c-1.161,3.356-0.767,5.02,1.945,8.192c0.98,1.147,1.945,2.085,2.143,2.085
		c0.503,0,2.047-3.793,2.745-6.747c0.662-2.802,0.789-7.485,0.271-10.036C200.62,143.019,197.881,139.724,196.648,139.724
		L196.648,139.724z M42.823,140.599v2.487v2.486l5.735,0.045c8.847,0.069,8.929,0.289,1.073,2.885l-6.789,2.244l-0.01,3.431
		l-0.01,3.432l1.912-0.201c1.051-0.111,5.758-0.547,10.459-0.968l8.547-0.767l0.142-1.971l0.142-1.969l-5.974,0.315
		c-3.286,0.173-5.875,0.216-5.753,0.095c0.121-0.121,2.746-1.209,5.832-2.417l5.612-2.197l0.134-2.778
		c0.121-2.508,0.047-2.777-0.752-2.777c-1.215,0-14.032-0.828-17.489-1.13L42.823,140.599z M248.771,143.614
		c-1.745,0.006-3.5,0.168-4.64,0.502l-1.35,0.396v3.792v3.791l2.109,0.136l2.11,0.137l0.139-1.932
		c0.15-2.071,1.129-2.76,2.411-1.696c0.892,0.739,0.888,5.077-0.005,5.817c-0.769,0.638-5.574,0.839-7.971,0.333
		c-1.348-0.284-1.749-0.628-2.15-1.844c-0.607-1.84,0.035-3.854,1.338-4.195c0.722-0.188,0.895-0.616,0.895-2.206
		c0-1.814-0.092-1.973-1.146-1.973c-1.515,0-3.655,1.136-4.256,2.257c-0.775,1.452-1.047,6.331-0.471,8.462
		c0.617,2.276,1.877,2.982,6.998,3.92l0,0c3.963,0.725,8.025,0.745,10.326,0.051c2.791-0.842,3.621-2.668,3.607-7.941
		c-0.013-4.785-0.419-5.895-2.589-7.078C253.243,143.859,251.016,143.607,248.771,143.614L248.771,143.614z M92.896,147.82
		c-0.821,0-7.613,5.433-9.203,7.362c-1.764,2.14-3.533,6.68-3.533,9.068c0,4.058,2.987,13.972,4.843,16.072
		c1.433,1.622,2.515,0.721,4.532-3.774c0.736-1.642,2.361-4.112,3.609-5.491c3.494-3.857,3.832-4.754,3.5-9.273
		c-0.275-3.749-1.603-10.248-2.599-12.726C93.771,148.377,93.255,147.82,92.896,147.82z M207.43,148.747
		c-1.059,0.023-1.658,1.509-2.674,5.62c-0.669,2.709-1.547,5.708-1.951,6.666c-1.561,3.704-0.646,5.682,5.285,11.416
		c2.366,2.289,4.584,4.161,4.93,4.161c1.189,0,2.875-1.773,3.938-4.144c1.429-3.188,1.445-8.449,0.038-12.051
		c-1.128-2.889-6.588-10.267-8.324-11.247C208.186,148.895,207.782,148.74,207.43,148.747L207.43,148.747z M63.561,157.411
		c-2.42,0.017-20.322,1.629-20.641,1.885c-0.07,0.057,0.588,3.249,1.462,7.095c0.875,3.847,1.59,7.111,1.59,7.258
		c0,0.145,0.268,0.264,0.595,0.264c0.735,0,4.912-1.365,5.346-1.748c0.174-0.154-0.075-2.075-0.555-4.27
		c-0.479-2.193-0.763-4.166-0.628-4.383c0.134-0.218,0.796-0.395,1.472-0.395c1.174,0,1.262,0.16,2.001,3.676
		c0.425,2.021,0.861,3.766,0.97,3.875c0.2,0.199,4.745-0.781,4.745-1.025c0-0.072-0.324-1.698-0.72-3.612
		c-0.6-2.903-0.619-3.544-0.112-3.864c1.053-0.667,1.432-0.193,2.037,2.553c1.13,5.127,0.797,4.66,2.952,4.131
		c1.053-0.258,1.958-0.5,2.012-0.536c0.179-0.124-2-10.625-2.259-10.884C63.814,157.416,63.722,157.41,63.561,157.411
		L63.561,157.411z M111.587,159.066c-2.801,0-5.56,5.031-5.56,10.141c0,3.01,0.113,3.354,2.25,6.863
		c1.237,2.032,2.909,4.605,3.716,5.717s1.747,2.021,2.09,2.021c0.773,0,6.565-8.611,6.565-9.761c0-1.075-0.999-2.558-3.431-5.091
		c-1.374-1.432-2.269-2.957-3.036-5.173C112.584,159.162,112.531,159.066,111.587,159.066z M235.674,160.877
		c-0.58-0.008-0.925,0-0.955,0.031c-0.105,0.105-0.258,0.994-0.338,1.973l-0.146,1.779l4.461,0.565
		c2.453,0.311,4.681,0.64,4.948,0.73c0.269,0.091-1.988,0.624-5.014,1.184l-5.501,1.017l-0.308,2.316
		c-0.168,1.273-0.309,2.416-0.309,2.54c-0.002,0.124,4.231,1.569,9.406,3.214c5.176,1.644,9.756,3.01,10.178,3.037
		c0.746,0.047,1.087-0.939,1.377-3.983c0.102-1.07-0.104-1.153-6.193-2.501c-3.463-0.768-6.572-1.491-6.906-1.607
		c-0.334-0.117,2.703-0.582,6.748-1.031c4.046-0.449,7.404-0.861,7.462-0.914c0.237-0.221,1.163-7.016,0.98-7.197
		C255.33,161.793,239.731,160.928,235.674,160.877z M191.643,161.346c-0.48,0.037-0.868,0.32-1.044,0.874
		c-0.167,0.526-1.886,2.636-3.819,4.688c-3.754,3.984-4.701,5.439-5.168,7.927c-0.26,1.382-0.01,1.988,2.098,5.124
		c1.316,1.956,2.594,3.824,2.84,4.152s0.883,0.597,1.414,0.597c0.752,0,1.523-0.975,3.471-4.386c3.324-5.824,3.89-7.572,3.89-12.023
		c0-3.107-0.165-3.946-1.026-5.229C193.51,161.898,192.445,161.282,191.643,161.346L191.643,161.346z M66.014,168.965
		c-0.217,0-19.304,8.109-19.464,8.27c-0.081,0.08,0.29,1.289,0.824,2.686c0.625,1.635,1.23,2.54,1.697,2.539
		c0.398,0,2.901-0.584,5.561-1.298s4.836-1.233,4.836-1.153c0,0.078-2.227,1.199-4.948,2.492c-2.721,1.293-4.948,2.596-4.948,2.895
		s0.432,1.584,0.96,2.854c0.528,1.271,1.095,2.309,1.262,2.309s1.505-0.394,2.976-0.875c1.471-0.482,5.961-1.911,9.979-3.176
		l7.305-2.3l-0.684-1.637c-0.376-0.901-0.761-1.714-0.854-1.808s-2.137,0.461-4.542,1.231s-4.434,1.339-4.509,1.265
		c-0.075-0.075,1.778-1.126,4.116-2.334c3.725-1.925,4.216-2.314,3.961-3.143c-0.459-1.49-1.518-3.42-1.875-3.416
		c-0.179,0.002-2.009,0.407-4.066,0.9c-2.057,0.492-3.879,0.891-4.049,0.883c-0.17-0.006,1.311-0.73,3.29-1.609
		c1.979-0.877,3.772-1.763,3.985-1.969C67.152,172.255,66.411,168.965,66.014,168.965z M99.551,171.217
		c-2.374,0.006-5.12,2.719-7.128,7.043c-1.038,2.234-1.222,3.23-1.229,6.675c-0.008,3.52,0.146,4.342,1.179,6.298
		c1.516,2.869,4.582,7.043,8.837,12.033c1.846,2.164,3.626,3.937,3.955,3.937c0.342,0,0.714-0.721,0.87-1.688
		c0.149-0.928,1.272-4.853,2.494-8.724c1.223-3.87,2.223-7.64,2.223-8.377c0-0.847-0.819-2.594-2.225-4.748
		c-1.223-1.874-2.928-4.932-3.79-6.795C102.976,173.059,101.282,171.212,99.551,171.217L99.551,171.217z M201.807,172.063
		c-0.064-0.002-0.128-0.002-0.191,0.001c-1.144,0.062-2.115,1.168-3.217,3.367c-0.759,1.516-2.773,4.996-4.477,7.736
		c-3.709,5.965-3.799,6.699-1.361,11.175c0.955,1.753,2.188,4.554,2.736,6.224c0.862,2.621,1.146,3.037,2.072,3.037
		c1.469,0,3.988-2.32,5.17-4.761c1.154-2.385,0.99-4.446-0.717-8.979c-1.204-3.2-1.076-4.254,0.517-4.254
		c0.762,0,1.401,0.523,2.218,1.816c1.226,1.942,2.859,2.971,4.016,2.527c3.031-1.163,0.883-11.285-3.323-15.647
		C203.859,172.864,202.769,172.107,201.807,172.063L201.807,172.063z M232.141,174.819c-0.283-0.006-1.843,4.116-1.615,4.269
		c0.062,0.042,4.362,1.824,9.559,3.96c5.195,2.136,9.57,3.89,9.723,3.897c0.276,0.014,2.614-5.951,2.424-6.186
		C252.107,180.608,232.561,174.828,232.141,174.819L232.141,174.819z M123.333,177.062c-1.064,0-3.564,4.861-3.883,7.552
		c-0.361,3.047,1.332,6.465,5.188,10.478c1.954,2.032,3.342,3.114,3.999,3.114c0.974,0,1.006-0.144,1.001-4.387
		c-0.007-6.092-1.315-10.703-4.209-14.846C124.695,177.922,123.752,177.062,123.333,177.062L123.333,177.062z M141.715,177.512
		c-0.165,0-0.646,0.907-1.07,2.016c-0.856,2.242-0.733,6.026,0.233,7.191c0.315,0.379,0.925,0.689,1.356,0.689
		c0.959,0,3.155-1.665,3.156-2.395C145.393,184.271,142.082,177.512,141.715,177.512z M161.547,177.76l-1.762,3.137
		c-2.127,3.787-2.233,4.895-0.563,5.813c1.676,0.922,2.899,0.699,3.587-0.651c0.652-1.28,0.372-4.294-0.624-6.735L161.547,177.76z
		 M179.04,179.795c-0.839-0.008-1.864,0.513-3.017,1.553c-2.402,2.172-3.725,5.152-3.885,8.76c-0.072,1.607-0.279,4.209-0.461,5.78
		c-0.258,2.229-0.191,2.944,0.299,3.255c0.842,0.532,0.533,0.643,4.056-1.45c3.8-2.258,5.667-4.399,6.048-6.936
		c0.342-2.275-0.57-8.581-1.443-9.984C180.234,180.125,179.693,179.801,179.04,179.795L179.04,179.795z M150.394,186.059
		c-0.833,0-2.351,0.789-4.33,2.25c-3.457,2.551-4.801,2.781-7.936,1.359c-1.079-0.49-2.423-0.896-2.987-0.9
		c-2.122-0.02-1.814,2.863,0.558,5.235v0.001c0.827,0.826,1.645,1.502,1.817,1.502s2.728-0.81,5.678-1.799
		c6.724-2.256,9.071-2.329,14.493-0.45c4.95,1.715,6.15,1.714,8.115-0.012c3.052-2.681,2.893-5.403-0.278-4.729
		c-4.435,0.943-5.943,0.814-9.952-0.845C153.43,186.783,151.1,186.059,150.394,186.059L150.394,186.059z M243.949,186.155
		l-1.654,3.524l-1.653,3.523l-6.233-3.122c-3.429-1.718-6.401-3.122-6.606-3.122c-0.53,0-2.047,3.318-1.591,3.48
		c0.207,0.074,4.223,2.249,8.924,4.834c4.701,2.584,8.666,4.706,8.811,4.715c0.145,0.008,1.486-2.591,2.984-5.777l2.721-5.793
		l-2.851-1.131L243.949,186.155z M224.909,191.479c-0.038,0-0.063,0.007-0.076,0.021c-0.565,0.603-6.581,9.534-6.474,9.608
		c0.072,0.051,0.867,0.639,1.765,1.306l1.634,1.215l1.291-1.58l1.291-1.58l6.746,4.464c3.712,2.455,6.85,4.471,6.974,4.477
		c0.259,0.017,2.802-4.08,2.604-4.197c-0.072-0.043-3.167-1.869-6.879-4.06c-3.711-2.19-6.834-4.056-6.939-4.145
		c-0.106-0.089,0.248-0.946,0.787-1.905c0.539-0.958,0.979-1.837,0.979-1.951C228.612,192.865,225.469,191.474,224.909,191.479
		L224.909,191.479z M63.935,192.808l-2.121,1.083c-2.934,1.5-4.958,3.617-5.325,5.572c-0.245,1.307-0.049,2.097,1,4.037
		c1.425,2.635,3.477,4.951,4.896,5.526c1.522,0.617,2.437,0.475,5.002-0.782c2.874-1.406,12.348-9.038,12.308-9.913
		c-0.009-0.193-0.507-0.952-1.107-1.687l-1.091-1.334l-1.254,0.923c-3.799,2.796-9.989,6.92-10.387,6.92
		c-0.614,0-2.79-2.614-2.79-3.351c0-0.32,0.708-1.064,1.572-1.652c0.864-0.589,1.573-1.276,1.574-1.528
		c0.001-0.252-0.51-1.214-1.137-2.137L63.935,192.808z M186.97,193.256c-0.345,0-1.997,1.275-3.672,2.832
		c-4.019,3.738-6.071,5.272-9.419,7.037c-3.558,1.877-4.232,3.218-3.145,6.258c0.412,1.15,0.879,3.965,1.04,6.254
		c0.16,2.289,0.354,4.16,0.433,4.16s3.291-1.649,7.139-3.666c7.85-4.113,9.673-5.707,10.779-9.434
		c0.824-2.773,0.887-5.328,0.21-8.483C189.828,195.852,188.066,193.256,186.97,193.256L186.97,193.256z M115.354,193.444
		c-0.727,0.001-1.178,0.349-2.154,1.384c-1.887,2-2.602,5.061-2.386,10.215c0.145,3.459,0.312,4.094,1.53,5.832
		c1.499,2.137,3.941,3.891,10.778,7.742c2.474,1.394,4.798,2.48,5.164,2.415c0.776-0.138,1.091-1.126,1.829-5.733
		c1.385-8.65,1.066-10.781-1.962-13.124c-1.035-0.8-3.244-2.722-4.909-4.271c-3.267-3.039-4.671-3.908-7.041-4.359
		C115.869,193.48,115.596,193.443,115.354,193.444L115.354,193.444z M83.907,203.118l-10.195,3.687
		c-5.607,2.026-10.189,3.805-10.182,3.953c0.007,0.146,0.767,1.121,1.687,2.166l1.674,1.897l2.184-0.964l2.184-0.964l1.51,1.765
		c0.831,0.971,1.519,1.931,1.527,2.134c0.009,0.202-0.583,1.241-1.316,2.307l-1.333,1.938l3.22,3.702l3.22,3.702l2.274-2.535
		c1.251-1.395,2.488-2.529,2.749-2.523c0.261,0.008,1.153,0.714,1.983,1.57c1.902,1.962,4.227,3.094,5.516,2.685
		c0.537-0.171,2.07-1.344,3.406-2.607c3.922-3.709,4.54-5.708,2.584-8.358c-1.066-1.444-6.018-5.891-6.521-5.854
		c-0.134,0.009-3.281,2.926-6.992,6.481s-6.814,6.399-6.896,6.319c-0.164-0.16,4.022-6.838,8.094-12.914
		c1.444-2.156,2.625-4.09,2.625-4.299c0-0.207-0.675-1.033-1.501-1.833L83.907,203.118z M218.236,203.152
		c-2.465,0-6.719,4.343-6.719,6.859c0,1.711,1.01,3.57,2.718,5.008c2.806,2.361,4.855,2.127,8.126-0.933
		c2.012-1.882,2.322-2.027,3.335-1.565c1.526,0.695,1.404,1.557-0.524,3.691l-1.641,1.816l-1.072-1.008l-1.072-1.006l-1.664,1.665
		l-1.664,1.665l1.75,1.463c0.964,0.805,2.175,1.709,2.691,2.01c1.648,0.958,3.943,0.662,5.81-0.75
		c2.243-1.699,4.257-4.387,4.604-6.148c0.557-2.829-2.202-6.174-6.602-8.004c-2.162-0.898-4.035-0.359-6.858,1.976
		c-1.201,0.995-2.248,1.808-2.324,1.808s-0.459-0.123-0.851-0.273c-1.056-0.404-0.87-1.205,0.608-2.622
		c0.98-0.939,1.598-1.195,2.4-0.994c0.811,0.204,1.379-0.043,2.287-0.99c1.146-1.196,1.168-1.298,0.412-1.956
		C220.781,203.812,219.337,203.152,218.236,203.152L218.236,203.152z M137.08,207.752c-1.798-0.092-2.94,2.424-2.927,6.745
		c0.016,5.294,1.487,7.645,5.73,9.159c3.304,1.18,7.756,0.627,7.756-0.962c0-2.097-7.408-13.501-9.496-14.618
		C137.769,207.875,137.413,207.769,137.08,207.752z M80.787,208.645L80.787,208.645c0.036-0.004,0.06-0.001,0.067,0.007
		c0.064,0.068-0.542,0.882-1.346,1.808c-1.443,1.662-1.474,1.673-2.266,0.798c-0.783-0.865-0.75-0.909,1.346-1.808
		C79.624,209.006,80.533,208.676,80.787,208.645L80.787,208.645z M164.461,209.914c-0.938,0.016-2.103,0.47-3.472,1.377
		c-3.744,2.48-8.549,8.696-8.31,10.75c0.091,0.774,0.629,1.378,1.707,1.916c1.925,0.963,2.271,0.969,5.641,0.091
		c4.551-1.185,7.113-4.583,7.156-9.487C167.211,211.463,166.25,209.887,164.461,209.914L164.461,209.914z M209.063,211.456
		c-0.129-0.009-0.242,0.028-0.346,0.108c-3.117,2.402-7.995,6.586-7.995,6.856c0,0.302,3.595,5.573,9.769,14.323l1.992,2.826
		l1.069-0.801c3.109-2.332,10.065-8.036,10.087-8.273c0.038-0.414-3.597-4.449-4.008-4.449c-0.195,0-1.85,1.197-3.672,2.661
		c-3.064,2.458-3.376,2.606-4.104,1.954c-0.433-0.389-0.787-0.961-0.787-1.272s1.314-1.613,2.923-2.893l2.923-2.325l-1.619-1.977
		l-1.619-1.976l-2.93,2.485c-2.813,2.386-2.966,2.455-3.789,1.711c-0.972-0.879-1.094-0.709,2.584-3.636l2.748-2.187l-1.5-1.734
		C209.975,211.918,209.449,211.48,209.063,211.456L209.063,211.456z M89.677,216.648c0.635,0,3.53,2.779,3.53,3.389
		c0,0.329-0.564,1-1.254,1.491l-1.253,0.893l-1.923-1.597l-1.922-1.596l1.235-1.291C88.77,217.229,89.484,216.648,89.677,216.648
		L89.677,216.648z M101.728,220.532c-0.059,0.003-0.107,0.017-0.143,0.037c-0.326,0.194-4.376,3.085-9.001,6.426l-8.41,6.073
		l1.48,1.268c2.573,2.206,2.754,2.225,4.8,0.473l1.869-1.6l2.208,1.417l2.208,1.417l-0.833,2.422
		c-0.628,1.825-0.703,2.523-0.305,2.834c0.966,0.754,8.449,4.693,8.6,4.527c0.082-0.09,1.5-2.865,3.151-6.17s3.06-5.938,3.129-5.849
		c0.07,0.088-0.324,3.298-0.875,7.133c-0.551,3.835-0.968,7.013-0.927,7.063c0.041,0.049,1.384,0.683,2.985,1.407
		c1.6,0.726,3.038,1.191,3.194,1.035c0.157-0.155,1.809-4.434,3.671-9.505c1.862-5.072,3.517-9.55,3.677-9.95
		c0.219-0.549-0.173-0.914-1.59-1.48c-1.035-0.414-1.923-0.693-1.975-0.621s-0.969,2.205-2.04,4.742
		c-1.071,2.535-2.042,4.611-2.158,4.611c-0.234,0,0.26-7.519,0.638-9.71c0.227-1.319,0.121-1.437-2.151-2.38
		c-2.86-1.189-1.988-2.092-7.813,8.078c-2.408,4.205-4.435,7.587-4.503,7.516c-0.069-0.072,1.069-4.267,2.53-9.322
		c1.461-5.055,2.656-9.33,2.656-9.5C105.802,222.302,102.603,220.476,101.728,220.532L101.728,220.532z M197.852,220.7
		c-0.876-0.003-6.93,3.065-8.736,4.428l-1.025,0.773l4.498,9.319c2.475,5.125,4.615,9.318,4.76,9.318
		c0.494,0,3.763-1.787,4.016-2.195c0.139-0.225-0.647-1.988-1.748-3.919l-2-3.509l1.824-1.037c1.003-0.569,2.109-1.035,2.46-1.035
		c0.35,0,1.661,1.404,2.914,3.123l2.278,3.122l2.211-1.36l2.211-1.361l-2.021-2.625c-2.611-3.394-4.628-5.397-5.433-5.397
		c-0.424,0-0.641-0.501-0.641-1.487C203.42,224.412,200.07,220.707,197.852,220.7L197.852,220.7z M197.717,225.679
		c0.459,0.008,0.762,0.235,0.932,0.679c0.473,1.229,0.319,1.498-1.518,2.656c-0.984,0.622-1.871,1.131-1.972,1.131
		s-0.53-0.531-0.956-1.182c-0.842-1.285-0.825-1.313,1.66-2.659C196.648,225.879,197.26,225.67,197.717,225.679L197.717,225.679z
		 M187.62,225.709l-1.96,0.727l-1.96,0.727l1.528,4.275c0.84,2.352,1.453,4.35,1.362,4.439c-0.091,0.091-1.128-1.617-2.305-3.796
		c-1.178-2.179-2.194-4.026-2.259-4.106c-0.258-0.322-4.698,1.514-4.698,1.941c0,0.252,0.498,2.271,1.107,4.484
		c0.608,2.215,1.054,4.08,0.987,4.146c-0.067,0.066-1.012-1.695-2.101-3.916c-1.088-2.221-2.21-4.037-2.493-4.037
		c-0.65,0-3.349,0.932-3.349,1.155c0,0.19,7.404,15.964,8.378,17.847c0.354,0.683,0.781,1.242,0.95,1.242
		c0.644,0,5.517-2.033,5.517-2.302c0-0.155-0.703-2.573-1.563-5.374s-1.507-5.148-1.438-5.217c0.068-0.069,1.221,2.095,2.56,4.809
		s2.677,4.935,2.974,4.935c0.296,0,1.646-0.425,3.002-0.943l2.465-0.943l-3.352-10.046L187.62,225.709z M99.855,226.873
		c0.284,0.014,0.2,0.535-0.107,1.572c-0.63,2.133-1.012,2.387-2.222,1.473c-0.83-0.627-0.823-0.672,0.225-1.566
		C98.918,227.354,99.571,226.859,99.855,226.873L99.855,226.873z M127.33,231.537c-0.081,0.002-0.132,0.014-0.151,0.035
		c-0.175,0.188-4.976,17.242-5.373,19.084c-0.29,1.344-0.23,1.41,1.632,1.857c3.288,0.79,3.093,0.974,3.74-3.514
		c0.469-3.258,0.562-3.318,3.999-2.636c3.631,0.722,5.054,0.323,6.267-1.751c0.931-1.596,1.534-6.773,1.024-8.805
		c-0.16-0.635-0.76-1.463-1.335-1.84C136.224,233.374,128.537,231.498,127.33,231.537L127.33,231.537z M161.506,233.746
		c-3.408,0.003-5.536,0.715-6.865,2.293c-1.057,1.256-1.152,1.719-1.146,5.498c0.01,4.784,0.977,9.936,2.17,11.55
		c0.457,0.618,1.521,1.375,2.363,1.681c1.846,0.67,5.773,0.334,7.887-0.674c2.334-1.113,3.041-3.113,2.732-7.727
		c-0.326-4.882-1.79-9.671-3.471-11.352C164.096,233.936,163.539,233.743,161.506,233.746L161.506,233.746z M145.095,234.193
		c-4.14,0-5.556,0.143-5.561,0.562c-0.003,0.31-0.304,4.712-0.668,9.784s-0.665,9.576-0.668,10.01
		c-0.006,0.654,0.409,0.787,2.467,0.787h2.475v-4.049v-4.049h2.263c1.397,0,2.346,0.216,2.478,0.563
		c0.117,0.31,0.364,2.08,0.548,3.937l0.334,3.374l2.298,0.133l2.298,0.135l-0.172-2.383c-0.094-1.312-0.238-3.348-0.32-4.525
		c-0.084-1.213-0.485-2.513-0.924-2.998c-0.73-0.807-0.73-0.926-0.016-2.018c1.057-1.613,0.775-6.991-0.436-8.329
		C150.725,234.278,150.143,234.193,145.095,234.193L145.095,234.193z M130.382,236.767c0.454,0.006,1.172,0.094,1.95,0.247
		c1.973,0.391,2.261,0.587,2.261,1.542c0,0.603-0.21,1.486-0.466,1.965c-0.256,0.479-0.61,0.849-0.787,0.821
		c-0.177-0.025-1.202-0.244-2.277-0.484l-1.955-0.437l0.309-1.649c0.17-0.906,0.387-1.773,0.481-1.926
		C129.934,236.787,130.11,236.763,130.382,236.767L130.382,236.767z M160.793,238.242c1.576,0,1.801,0.152,2.43,1.658
		c0.381,0.911,0.805,3.137,0.941,4.943l0.248,3.287l-1.624,0.678c-3.563,1.489-4.349,0.711-4.959-4.924
		c-0.444-4.104-0.42-4.438,0.376-5.02C158.674,238.521,159.839,238.242,160.793,238.242z M145.128,238.691
		c2.306,0,2.961,0.398,2.961,1.799c0,0.729-0.298,1.369-0.711,1.527c-0.392,0.15-1.404,0.272-2.25,0.272
		c-1.494,0-1.538-0.052-1.538-1.8S143.634,238.691,145.128,238.691z M173.468,239.246L173.468,239.246
		c-0.26,0.014-1.218,0.25-2.317,0.576c-1.744,0.518-2.246,0.861-2.127,1.46c0.084,0.431,0.267,1.321,0.404,1.978l0.25,1.195
		l2.589-0.674c1.424-0.371,2.642-0.725,2.707-0.788c0.105-0.103-1.188-3.463-1.438-3.738
		C173.527,239.248,173.505,239.246,173.468,239.246L173.468,239.246z"/>
	<path id="path822" inkscape:connector-curvature="0" fill="#FFFFFF" d="M148.579,68.227c-3.946,0.021-7.662,0.221-10.387,0.617
		c-13.761,1.998-23.708,5.714-34.234,12.787c-25.469,17.116-38.981,45.761-35.923,76.153c1.021,10.147,3.39,18.971,7.17,26.701
		c9.39,19.203,27.454,35.377,47.181,42.243c4.602,1.602,11.333,3.071,17.606,3.846c1.856,0.229,7.322,0.336,12.146,0.237
		c7.031-0.143,9.856-0.397,14.233-1.286c13.277-2.696,25.537-8.435,35.707-16.716c4.272-3.479,11.938-11.521,15.396-16.152
		c14.608-19.566,18.853-49.862,10.394-74.167c-9.25-26.574-33.26-47.368-61.164-52.971C162.371,68.649,155.156,68.19,148.579,68.227
		z M150.167,69.574c3.795-0.022,7.397,0.11,10.042,0.422c15.357,1.811,28.986,7.587,41.029,17.388
		c4.526,3.683,11.938,11.592,15.335,16.367c3.437,4.83,8.142,14.021,10.212,19.953c6.658,19.075,4.94,43.014-4.445,61.928
		c-3.748,7.551-7.109,12.294-13.41,18.914c-12.088,12.702-27.066,20.669-45.32,24.106c-4.328,0.814-19.358,1.168-23.788,0.559
		c-9.108-1.251-19.101-4.195-26.147-7.705c-21.956-10.933-38.713-32.698-43.414-56.39c-1.179-5.941-1.618-16.996-0.928-23.368
		c1.141-10.535,3.442-18.415,8.146-27.89c3.715-7.484,7.687-13.17,13.399-19.178c11.867-12.484,26.247-20.6,42.195-23.815
		C136.97,70.079,143.84,69.611,150.167,69.574L150.167,69.574z M56.7,119.188c-0.142-0.003-0.284-0.001-0.425,0.006
		c-3.399,0.257-5.777,4.407-4.288,7.433c1.551,3.264,6.671,4.028,8.877,1.098c1.863-2.303,1.355-6.242-1.355-7.654
		C58.687,119.51,57.693,119.215,56.7,119.188L56.7,119.188z M241.966,119.209c-3.669,0.126-6.092,4.915-4.004,7.94
		c1.651,2.595,5.687,3.405,7.942,1.217c2.277-1.921,2.479-5.834,0.104-7.73C244.86,119.714,243.456,119.138,241.966,119.209
		L241.966,119.209z M182.997,121.054c-0.93-0.001-6.731,1.559-7.118,1.945c-0.199,0.2-0.006,1.059,0.432,1.909
		c1.105,2.15,1.063,6.139-0.08,7.644c-2.445,3.216-6.23,4.048-9.27,2.038c-2.033-1.345-2.678-2.621-2.678-5.297
		c0-1.605-0.084-1.754-0.704-1.24c-1.215,1.008-1.86,2.794-2.139,5.925l-0.27,3.026l1.894-0.235
		c1.041-0.129,2.805-0.045,3.918,0.187c5.658,1.178,9.651-0.085,12.03-3.806c1.229-1.923,4.538-11.661,4.103-12.073
		C183.1,121.061,183.059,121.054,182.997,121.054L182.997,121.054z M118.234,121.279c-0.552,0-0.277,5.689,0.402,8.34
		c1.02,3.978,2.949,6.18,6.116,6.979c0.835,0.21,2.531,0.292,3.768,0.18c1.237-0.112,3.934-0.335,5.992-0.497
		c3.506-0.276,3.729-0.354,3.519-1.238c-0.123-0.519-0.364-1.915-0.536-3.103c-0.296-2.054-1.125-3.464-2.034-3.464
		c-0.229,0-0.418,0.234-0.418,0.52c0,1.077-2.438,3.659-4.221,4.468c-5,2.271-9.832-0.386-10.467-5.756
		c-0.222-1.87-0.096-2.634,0.635-3.873l0.911-1.543l-1.69-0.506C119.28,121.507,118.391,121.279,118.234,121.279z"/>
</g>
</svg>
