<svg enable-background="new 0 0 225 223.261" height="223.261" viewBox="0 0 225 223.261" width="225" xmlns="http://www.w3.org/2000/svg"><path d="m109.826.363c-9.333-.069-18.621 1.417-27.549 4.079-25.023 7.265-47.653 22.986-62.633 44.358-4.637 6.622-8.342 13.855-11.221 21.398-3.144 7.648-5.702 15.59-6.821 23.794-2.668 17.69-.998 35.987 4.545 52.966 3.404 10.148 8.524 19.67 14.622 28.449 3.621 5.201 7.823 9.971 12.326 14.426 5.053 5.141 10.59 9.818 16.654 13.728 17.887 11.872 39.103 18.838 60.599 19.313 15.162.221 30.253-2.871 44.335-8.41 19.644-7.779 37.162-21.141 49.33-38.449 6.41-9.2 11.674-19.239 15.383-29.836 4.795-13.703 5.828-28.45 4.982-42.873-.766-12.174-3.516-24.244-8.492-35.38-6.625-15.195-16.543-29.01-29.136-39.816-12.099-10.45-26.451-18.213-41.698-22.959-10.434-3.223-21.354-4.748-32.273-4.784-.986-.016-1.969-.003-2.953-.004z"/><path d="m111.582 30.313c-.357.001-.717.003-1.075.003-6.797-.05-13.562 1.03-20.063 2.964-18.224 5.279-34.708 16.705-45.617 32.236-3.377 4.813-6.075 10.069-8.172 15.55-2.289 5.56-4.152 11.329-4.968 17.292-1.943 12.855-.727 26.152 3.31 38.49 2.479 7.378 6.208 14.296 10.65 20.677 2.637 3.778 5.697 7.245 8.976 10.481 3.681 3.736 7.713 7.135 12.129 9.978 13.027 8.627 28.479 13.688 44.135 14.035 11.042.159 22.034-2.087 32.29-6.112 14.306-5.652 27.064-15.361 35.927-27.941 4.67-6.687 8.502-13.981 11.203-21.683 3.492-9.959 4.245-20.675 3.629-31.155-.557-8.848-2.561-17.619-6.186-25.713-4.824-11.042-12.048-21.083-21.219-28.936-8.813-7.594-19.266-13.236-30.37-16.685-7.599-2.342-15.55-3.45-23.503-3.477-.361-.005-.719-.005-1.076-.004zm-23.385 54.886c.306 0 .664.03 1.109.08 5.032.567 7.252 5.216 3.573 7.489-2.233 1.38-4.049 1.219-5.896-.523-.993-.939-1.652-2.06-1.838-3.125-.248-1.414-.11-1.842.914-2.867.788-.786 1.22-1.053 2.138-1.054zm46.488.936c.482.02.848.231 1.448.68.907.674 1.255 1.367 1.354 2.688.253 3.351-1.256 5.318-4.473 5.838-1.218.195-1.716.023-2.574-.893-.668-.713-1.147-1.887-1.291-3.154-.193-1.723-.063-2.183.896-3.143.618-.619 1.967-1.376 2.995-1.686.631-.188 1.067-.303 1.429-.326.075-.004.147-.006.216-.004zm-45.06 1.33c-1.195.047-1.979.785-1.979 1.932 0 2.264 3.209 2.96 4.146.9.68-1.49.027-2.611-1.632-2.81-.186-.022-.366-.029-.535-.022zm43.456 1.291c-1.518 0-2.25.769-2.25 2.354 0 .901.295 1.392 1.012 1.677 1.131.449 2.641.159 3.143-.605.509-.77.406-2.285-.194-2.885-.299-.297-1.068-.541-1.711-.541z" fill="#ff160b"/><path d="m19.159 78.525c-1.975.04-3.939.901-5.432 2.556-3.626 4.014-2.287 9.631 2.843 11.934 3.364 1.509 7.776-.176 9.453-3.61 1.617-3.312.93-6.532-1.928-9.042-1.444-1.269-3.195-1.874-4.936-1.838zm185.801.02c-2.68-.035-5.328 1.322-6.665 3.942-2.175 4.265-.036 9.422 4.474 10.789 5.313 1.608 10.638-3.09 9.711-8.569-.166-.979-.938-2.471-1.813-3.49-1.52-1.774-3.622-2.645-5.707-2.672z" fill="#ff160b"/><path d="m89.625 87.465c-1.195.047-1.979.785-1.979 1.932 0 2.264 3.209 2.96 4.146.9.68-1.49.027-2.611-1.632-2.81-.186-.022-.366-.029-.535-.022zm43.456 1.291c-1.518 0-2.25.769-2.25 2.354 0 .901.295 1.392 1.012 1.677 1.131.449 2.641.159 3.143-.605.509-.77.406-2.285-.194-2.885-.299-.297-1.068-.541-1.711-.541z" fill="#ffd810"/><path d="m111.263 0c-9.631.024-15.149.642-23.617 2.643-32.437 7.667-61.239 29.754-75.355 57.785-2.003 3.978-5.94 13.683-7.569 18.659-7.014 21.422-6.167 48.525 2.227 71.24 3.544 9.59 10.105 21.203 16.767 29.676 4.555 5.795 13.268 14.553 18.495 18.592 17.775 13.734 38.07 21.904 60.057 24.179 24.225 2.504 52.373-4.742 73.498-18.922 16.832-11.298 28.887-25.175 38.268-44.05 7.863-15.824 10.988-29.594 10.968-48.326-.022-21.012-4.703-38.31-15.229-56.292-10.603-18.115-26.389-32.888-45.482-42.563-17.364-8.799-33.63-12.67-53.028-12.621zm.717 2.075c21.71.064 43.964 6.752 62.354 19.033 16.685 11.142 28.218 24.348 37.377 42.796 7.968 16.05 11.085 29.661 11.05 48.246-.037 18.806-3.595 33.58-11.912 49.483-11.099 21.218-27.773 37.465-49.203 47.935-13.639 6.663-26.229 10.14-41.387 11.429-5.132.437-11.185.506-14.619.17-17.938-1.759-29.986-5.125-44.085-12.32-27.161-13.858-48.211-39.707-55.819-68.543-4.822-18.276-5.123-37.672-.848-54.6 2.429-9.617 7.708-22.392 12.604-30.497 7.668-12.694 20.054-25.477 32.941-33.991 14.787-9.771 30.192-15.751 46.659-18.115 4.899-.703 9.88-1.041 14.888-1.026zm6.546 4.534c-2.271-.013-4.17.554-5.23 1.616-1.029 1.029-1.613 4.521-1.072 6.405.553 1.926 2.225 3.02 5.119 3.346 3.012.34 4.041.828 4.041 1.917 0 1.73-5.063 1.472-5.313-.271-.107-.749-.557-1.042-1.967-1.28-2.027-.342-2.599.104-2.609 2.039-.01 2.016 1.434 4.228 3.142 4.811 2.299.784 7.012.717 8.785-.124 1.708-.811 2.46-2.464 2.46-5.408 0-3.754-1.536-5.213-6.133-5.823-2.796-.371-3.534-.782-3.159-1.758.223-.579.764-.714 2.428-.608 1.828.117 2.162.286 2.285 1.15.127.897.402 1.012 2.42 1.012h2.273l-.221-2.287c-.291-3.039-1.246-3.926-4.873-4.527-.821-.136-1.62-.206-2.376-.21zm14.635 1.901c-.053.002-.08.011-.08.025 0 .117-.911 4.186-2.023 9.044-1.115 4.857-2.024 8.987-2.024 9.177s.657.535 1.461.768c2.69.777 2.817.696 3.415-2.195.307-1.485.601-2.697.652-2.694.051.002 1.207.305 2.568.67 3.188.855 4.719.845 6.07-.041 1.441-.944 2.926-5.002 2.926-7.996 0-3.644-1.011-4.319-9.109-6.086-1.895-.413-3.487-.687-3.856-.672zm-30.687 2.547-4.562.833c-2.509.458-4.636.909-4.728 1.001s.275 2.827.816 6.077l.982 5.91 1.393-.007c2.145-.011 2.482-.418 2.096-2.536l-.341-1.865 2.63-.518 2.632-.518v-1.807c0-1.509-.131-1.769-.787-1.578-.434.126-1.75.366-2.924.531-1.744.246-2.138.176-2.138-.382 0-.475.658-.774 2.159-.98 3.035-.417 3.415-.739 3.064-2.601zm34.912 3.603c1.055-.014 2.865.429 3.639.994.673.491.711.759.259 1.754-.562 1.229-1.757 1.448-4.152.761-.922-.264-1.1-.561-.981-1.642.078-.726.306-1.485.504-1.688.114-.12.379-.175.731-.179zm-50.1.326c-2.546.005-6.535 1.739-7.304 3.175-.326.611-.43 1.79-.262 3.009.323 2.367 2.338 6.282 3.375 6.559 2.442.652 6.399-.384 8.344-2.186 1.877-1.741 1.445-5.867-.953-9.099-.959-1.289-1.336-1.461-3.2-1.458zm66.705.724c-.119.005-.229.017-.324.035-2.639.512-7.18 7.681-7.813 12.335-.266 1.939-.174 2.199 1.381 3.918 1.018 1.126 2.564 2.189 3.988 2.736 3.076 1.183 5.271 1.183 6.777-.002 1.713-1.348 5.096-7.336 5.721-10.128.646-2.883.073-4.642-2.027-6.236-1.741-1.321-5.92-2.733-7.703-2.658zm-89.084 2.527c-1.519-.047-3.317.689-5.584 2.203-2.762 1.844-4.066 3.568-4.066 5.375 0 2.722 6.065 11.501 8.669 12.548 1.682.677 2.568.518 5.341-.96 3.634-1.937 5.333-3.934 5.333-6.271 0-.998-.222-2.256-.493-2.796-.868-1.729-3.319-5.255-3.653-5.256-.528-.001-6.649 4.063-6.649 4.416 0 .178.517 1.084 1.149 2.015l1.15 1.691 1.282-.913c1.578-1.124 2.267-1.158 2.267-.113 0 .798-3.273 3.25-4.339 3.25-.688 0-4.14-4.742-4.501-6.186-.298-1.188.427-2.17 2.501-3.392 1.325-.78 1.391-.778 2.11.061.728.851.776.845 2.655-.319l1.914-1.185-1.182-1.671c-1.147-1.619-2.386-2.45-3.904-2.497zm22.03.891c.024.001.041.005.047.013 1.195 1.503 1.412 3.727.402 4.115-1.398.536-2.302.256-2.816-.873-.809-1.776-.637-2.325.9-2.861.684-.238 1.291-.399 1.467-.394zm68.248 1.851c.912-.025 2.008.369 3.027 1.146 1.36 1.038 1.084 2.542-1.12 6.065-.874 1.396-1.825 2.537-2.114 2.537-.881-.001-3.582-1.527-4.041-2.283-.504-.826 1.518-5.744 2.857-6.958.359-.326.844-.492 1.391-.507zm16.606 3.9c-.172 0-2.969 3.333-6.214 7.406l-5.9 7.406 1.801 1.426 1.799 1.425.742-1.059c.408-.583 1.291-1.672 1.961-2.422l1.22-1.363 1.237.923c2.246 1.674 2.295 2.13.482 4.599l-1.654 2.253 1.594 1.398c1.897 1.667 2.262 1.714 2.966.386.296-.557 1.213-1.901 2.04-2.988.826-1.087 1.503-2.454 1.503-3.037 0-.738.258-1.06.848-1.06 1.188 0 3.944-3.196 4.576-5.304.392-1.305.397-2.004.024-2.699-.485-.904-8.387-7.29-9.025-7.29zm-123.228 3.149c-.172 0-1.001.574-1.843 1.276l-1.529 1.276 3.233 3.839c1.778 2.111 3.233 3.948 3.233 4.082 0 .133-2.144-.877-4.765-2.246-5.318-2.777-5.5-2.776-8.247.059l-1.375 1.419 6.181 7.061c3.4 3.884 6.374 7.064 6.61 7.068.235.004 1.09-.634 1.899-1.418l1.471-1.426-2.805-3.185c-4.494-5.102-4.493-5.107.628-2.366 2.624 1.404 5.062 2.554 5.417 2.554s1.522-.893 2.594-1.984l1.948-1.985-6.168-7.013c-3.393-3.856-6.31-7.011-6.482-7.011zm123.657 3.69c.203-.015.42.114.742.359 2.46 1.872 2.824 2.365 2.371 3.21-.619 1.159-1.734 1.02-3.422-.424-1.422-1.218-1.426-1.234-.605-2.322.414-.547.653-.804.914-.823zm14.363 4.78-1.746 1.5c-.961.825-1.764 1.716-1.785 1.979-.02.263.576 1.066 1.326 1.785s1.307 1.522 1.237 1.785c-.069.264-2.253 2.463-4.851 4.889-2.599 2.425-4.798 4.613-4.888 4.861-.089.248.498 1.132 1.306 1.964l1.465 1.513 5.098-4.701c2.803-2.585 5.244-4.701 5.426-4.701.18 0 1.055.708 1.941 1.575l1.613 1.576 1.727-1.767 1.727-1.768-.928-1.179c-.51-.648-2.668-3.008-4.797-5.245zm-154.187 6.971c-.739-.036-1.149.625-1.919 1.708l-.896 1.259 7.328 6.067 7.328 6.067 1.462-1.414c.804-.777 1.462-1.567 1.462-1.754 0-.188-3.267-3.084-7.259-6.438-4.643-3.899-6.425-5.442-7.506-5.495zm-5.936 7.052c-.138 0-.83 1.07-1.537 2.377l-1.286 2.377 1.905 3.47c1.047 1.909 1.725 3.471 1.506 3.471-.22 0-1.503-.703-2.853-1.563-1.349-.86-2.656-1.566-2.903-1.571-.496-.009-2.663 3.545-2.352 3.856.107.107 3.716 2.308 8.021 4.89v.001c4.305 2.583 7.928 4.703 8.051 4.712.327.023 2.356-3.62 2.138-3.838-.101-.101-1.585-1.091-3.297-2.201l-3.114-2.017 4.727-.01 4.727-.01 1.234-2.043c.679-1.123 1.234-2.135 1.234-2.249s-2.532-.207-5.626-.207h-5.625l-2.35-4.724c-1.292-2.596-2.461-4.721-2.6-4.721zm170.852 1.799c-3.119 0-7.094 3.079-7.098 5.502-.002.428.637 2.073 1.418 3.656 1.46 2.962 1.48 4.529.057 4.254-.428-.082-1.229-.953-1.778-1.936-.94-1.678-.955-1.835-.246-2.62.711-.784.698-.934-.188-2.465-.521-.896-1.154-1.7-1.41-1.785-.801-.267-4.149 3.27-4.149 4.38 0 2.346 1.175 4.804 3.39 7.094 2.58 2.667 3.691 2.922 6.412 1.472 4.541-2.42 5.034-4.08 2.713-9.119-1.182-2.563-1.322-3.175-.799-3.499.801-.495 1.947.494 2.71 2.335.466 1.125.454 1.427-.071 1.756-.53.333-.488.666.267 2.065.495.917 1.135 1.743 1.42 1.834.286.091 1.248-.473 2.138-1.253 1.372-1.206 1.616-1.701 1.606-3.285-.027-3.888-3.451-8.386-6.392-8.386z" fill="#ff160b"/><path d="m100.908 38.459c-3.945-.074-7.008 2.039-6.271 5.396.422 1.917 3.205 4.845 5.605 5.894 1.113.487 2.92 1.618 4.014 2.514 1.096.896 2.512 1.983 3.148 2.414 1.339.906 3.658 1.037 4.443.251.771-.771.678-6.604-.144-8.933-.988-2.801-2.487-4.547-5.142-5.992-1.884-1.024-3.859-1.51-5.653-1.544zm24.327.965c-.158-.003-.316-.003-.479.001-2.83.073-6.131 1.309-7.817 3.23-2.291 2.609-2.881 9.469-1.113 12.925.783 1.531 1.072 1.539 2.443.066.601-.644 3.043-2.153 5.428-3.354 2.387-1.201 4.766-2.725 5.287-3.388 2.533-3.222 2.152-7.167-.853-8.814-.784-.429-1.794-.642-2.896-.666zm-38.899 2.006c-3.269.062-5.313 1.045-8.356 3.799-1.822 1.65-2.125 2.148-1.888 3.101.388 1.542 1.89 2.127 6.755 2.632 2.271.235 4.936.724 5.924 1.086 2.23.816 4.371.893 5.082.182 2.033-2.033-2.771-10.607-6.035-10.772-.524-.027-1.014-.037-1.482-.028zm51.576.543c-1.929 0-2.427.203-3.752 1.53-1.319 1.32-1.528 1.829-1.527 3.711.003 2.805 1.251 4.924 3.242 5.498 2.071.598 2.867.58 6.267-.141 3.412-.723 6.445-2.129 6.846-3.174.425-1.103-3.02-4.509-6.127-6.062-1.93-.964-3.376-1.362-4.949-1.362zm16.622 9.02c-1.809-.028-2.754.401-7.15 2.504-6.07 2.903-6.752 3.005-14.762 2.204-2.545-.254-4.083-.159-6.205.385-6.125 1.569-9.91 4.322-10.877 7.914-.779 2.897-.162 11.084 1.008 13.374.84 1.641.891 2.031.379 2.987-.914 1.709-2.102 1.968-7.998 1.747-4.384-.165-5.537-.346-5.748-.896-.178-.461.991-1.978 3.512-4.557 3.607-3.69 4.912-5.96 4.141-7.208-.148-.242-.07-1.688.175-3.213.718-4.458-.556-6.467-5.594-8.827-2.571-1.203-2.995-1.262-8.996-1.226-4.838.029-7.219.264-10.271 1.013-2.184.536-5.157.974-6.607.974-2.464 0-2.878-.165-6.316-2.52-5.694-3.9-7.318-4.391-10.12-3.062-3.105 1.474-4.001 5.969-2.894 14.508.443 3.414.098 5.019-1.08 5.019-.325 0-.909-.81-1.297-1.799-.644-1.639-.852-1.799-2.339-1.799-3.259 0-5.491 1.995-8.158 7.291-.859 1.707-2.283 4.105-3.163 5.33-1.866 2.598-2.589 5.824-1.306 5.824.427 0 1.314-.379 1.971-.842 1.9-1.34 5.54-3.07 7.658-3.641 1.301-.35 2.603-1.197 3.914-2.547 2.129-2.189 2.054-2.217 2.548.957.125.803.487.898 3.354.898 1.768 0 3.364.151 3.549.336.54.539-1.132 2.061-2.901 2.639-2.795.916-3.561 1.709-5.424 5.611-2.259 4.733-3.181 4.916-3.181.633 0-2.115-.789-2.972-3.09-3.359-3.081-.521-6.926 1.128-9.185 3.939-3.079 3.83-4.186 8.774-3.744 16.724.46 8.276.74 10.142 1.522 10.142.371 0 2.291-1.729 4.268-3.841s4.785-4.758 6.24-5.877c2.783-2.142 3.681-3.435 4.187-6.026.169-.865.521-2.127.781-2.804l.473-1.229 1.229 1.315c1.945 2.082 3.145 2.144 6.879.353 1.793-.859 4.05-2.201 5.016-2.979.966-.779 1.84-1.332 1.943-1.229s-.219.983-.716 1.957c-.613 1.201-2.121 2.656-4.692 4.523-2.412 1.752-3.998 3.256-4.361 4.135-.909 2.193-.401 12.268.749 14.853 1.027 2.309 2.004 3.282 2.902 2.897.341-.147 1.232-1.113 1.981-2.146s2.41-2.485 3.689-3.228c1.852-1.074 2.446-1.716 2.912-3.141.716-2.191 2.348-3.206 3.729-2.318.498.319 1.645 2.055 2.549 3.856 3 5.976 7.281 9.071 13.822 9.998l3.623.512 3.021 3.363c1.662 1.851 3.643 3.741 4.4 4.202 1.896 1.156 2.679 1.101 2.334-.168-.734-2.715-1.657-9.161-1.437-10.041.337-1.344 1.293-1.625 3.058-.898 1.138.469 2.104.504 4.25.15 3.228-.53 5.503-.211 6.974.98.967.782 1.045 1.182 1.045 5.344 0 2.476.139 4.64.307 4.81.521.524 3.355-1.955 5.047-4.416.996-1.45 1.78-3.276 2.066-4.812.254-1.361.77-2.705 1.146-2.983.736-.552 5.967-.323 7.74.336.846.313 1.012.712 1.012 2.411 0 2.318.302 2.47 1.922.968 1.896-1.758 3.142-4.717 3.38-8.036.306-4.254-.47-6.669-2.84-8.855-3.562-3.281-8.812-4.006-14.96-2.063-3.756 1.186-4.787 1.952-5.276 3.911-.166.665-1.317 2.146-2.563 3.291-2.26 2.082-2.262 2.085-1.967 4.304.266 2.014.211 2.219-.601 2.219-1.868 0-3.186-.979-3.186-2.367 0-1.311-.787-2.258-4.442-5.34-1.578-1.332-1.909-3.461-.694-4.469.586-.488.96-.486 2.137 0 .785.325 2.065.688 2.847.805 2.01.301 6.231-1.037 7.815-2.479l1.342-1.222-.051-6.748c-.027-3.711-.068-8.011-.094-9.554-.049-3.045.98-5.149 2.66-5.438.469-.08 3.016-1.156 5.66-2.393 3.262-1.525 6.002-2.457 8.521-2.896 4.9-.855 5.945-1.542 5.659-3.713-.12-.906-.357-2.078-.529-2.603-.233-.709.059-1.378 1.137-2.605 1.584-1.805 1.531-2.276-.531-4.84-1.277-1.586-.862-2.453 1.492-3.119 2.449-.693 3.324-1.517 5.048-4.763 1.774-3.341 4.257-4.799 7.655-4.499 2.563.227 3.854 1.412 3.854 3.541 0 1.87-.622 2.88-3.855 6.26-3.198 3.342-3.809 4.802-2.707 6.484 1.414 2.156 3.234 1 5.494-3.488 4.978-9.883 3.545-14.965-4.377-15.532-.561-.04-1.025-.071-1.441-.077zm-89.768 4.922c1.822.058 4.149 1.095 5.935 2.88 2.885 2.885 2.434 5.398-1.615 9.01-1.544 1.377-2.931 2.505-3.083 2.506-.937.007-2.725-2.177-3.519-4.299-1.137-3.04-1.252-7.632-.228-9.095.503-.72 1.415-1.037 2.51-1.002zm102.212 5.562c-.617-.045-1.08.554-1.662 1.778-.965 2.034-.947 3.746.043 4.33.433.255 1.344.366 2.023.247 4.887-.857 4.995-1.07 2.176-4.268-1.194-1.353-1.963-2.042-2.58-2.087zm3.617 9.797c-.46-.029-.669.225-1.139.805-.637.786-.838 1.782-.838 4.148 0 5.138 1.107 6.811 5.979 9.021 2.795 1.271 4.875 1.385 5.93.33.808-.81.473-5.002-.559-6.992-1.26-2.434-5.003-5.758-7.6-6.75-.904-.346-1.415-.54-1.773-.562zm-9.442.376c-1.18-.039-2.022 1.029-2.303 3.117-.443 3.313.145 4.881 2.254 6.004 1.039.555 2.297 1.146 2.791 1.312 1.873.633 2.703.246 2.641-1.23-.114-2.747-1.555-6.614-2.948-7.916-.9-.842-1.728-1.264-2.435-1.287zm-81.634 8.561c3.763 0 8.567 1.104 11.715 2.692 2.029 1.024 3.298 1.354 5.192 1.354 2.089 0 2.699.192 3.656 1.149 1.101 1.101 1.136 1.296.837 4.673-.195 2.215-.113 4.482.225 6.104.498 2.399.467 2.672-.443 3.903-.881 1.191-.947 1.66-.665 4.67.223 2.383.153 3.539-.237 4.011-.417.501-.429 1.01-.053 2.089.273.784.497 1.496.497 1.584 0 .507-.946.018-1.503-.777-.473-.674-.588-1.674-.413-3.591.358-3.962-.529-4.679-8.112-6.542-8.727-2.145-10.602-4.484-12.459-15.55-.498-2.965-.904-5.478-.904-5.582-.003-.103 1.198-.187 2.667-.187zm81.382 3.178c-.719.004-1.316.369-1.666 1.133-.291.641-.653 2.918-.807 5.064-.357 5.062.629 7.601 4.232 10.896 1.359 1.241 2.697 2.183 2.977 2.089.348-.117.506-2.441.506-7.369 0-7.143-.009-7.212-1.252-9.005-1.261-1.82-2.792-2.814-3.99-2.808zm10.627 4.128c-1.121.015-1.313.983-1.19 3.44.071 1.441-.185 3.979-.569 5.637-.383 1.658-.694 3.662-.689 4.449.016 2.168 1.495 4.991 3.377 6.438.926.712 3.416 2.763 5.534 4.556 4.067 3.444 5.303 3.883 6.776 2.409 2.377-2.377 2.353-11.464-.047-16.567-1.92-4.082-6.621-8.276-11.029-9.84-.952-.338-1.653-.529-2.163-.522zm-12.381 13.837c-.857 0-.953.402-1.535 6.425-.139 1.431-.678 3.833-1.199 5.341-1.161 3.355-.768 5.02 1.945 8.191.979 1.146 1.945 2.085 2.143 2.085.503 0 2.047-3.793 2.745-6.747.662-2.803.789-7.484.271-10.036-.398-1.964-3.137-5.259-4.37-5.259zm-153.824.875v2.486 2.486l5.735.045c8.847.069 8.929.289 1.073 2.885l-6.789 2.244-.01 3.432-.01 3.432 1.912-.201c1.051-.111 5.758-.547 10.459-.968l8.547-.767.142-1.971.142-1.97-5.974.315c-3.286.173-5.875.216-5.753.095.121-.121 2.746-1.209 5.832-2.417l5.612-2.197.134-2.777c.121-2.508.047-2.777-.752-2.777-1.215 0-14.032-.828-17.489-1.131zm205.948 3.016c-1.746.006-3.5.168-4.641.502l-1.35.396v3.792 3.791l2.109.136 2.109.138.139-1.933c.15-2.071 1.129-2.761 2.411-1.696.892.739.888 5.077-.005 5.817-.77.638-5.574.839-7.971.333-1.348-.284-1.749-.629-2.15-1.844-.607-1.84.035-3.854 1.338-4.195.723-.188.896-.616.896-2.206 0-1.813-.093-1.974-1.146-1.974-1.516 0-3.656 1.137-4.257 2.258-.774 1.451-1.047 6.33-.471 8.462.616 2.276 1.877 2.981 6.998 3.92 3.963.726 8.024.745 10.325.051 2.791-.842 3.621-2.668 3.607-7.94-.013-4.785-.419-5.896-2.589-7.078-.881-.486-3.108-.738-5.352-.73zm-155.875 4.205c-.821 0-7.613 5.434-9.203 7.362-1.764 2.14-3.533 6.68-3.533 9.067 0 4.059 2.987 13.973 4.843 16.072 1.433 1.622 2.515.721 4.532-3.773.736-1.643 2.361-4.112 3.609-5.491 3.494-3.856 3.832-4.754 3.5-9.272-.275-3.75-1.603-10.248-2.599-12.727-.274-.682-.791-1.238-1.149-1.238zm114.533.927c-1.059.022-1.658 1.508-2.674 5.619-.669 2.709-1.547 5.709-1.951 6.666-1.561 3.704-.646 5.682 5.285 11.416 2.366 2.289 4.584 4.161 4.93 4.161 1.189 0 2.875-1.772 3.938-4.144 1.429-3.188 1.444-8.449.038-12.051-1.128-2.89-6.588-10.268-8.324-11.248-.486-.271-.89-.426-1.242-.419zm-143.868 8.665c-2.42.016-20.322 1.629-20.641 1.885-.07.057.588 3.248 1.462 7.095.875 3.847 1.59 7.11 1.59 7.258 0 .146.268.265.595.265.735 0 4.912-1.365 5.346-1.748.174-.154-.075-2.076-.555-4.271-.479-2.192-.763-4.166-.628-4.383.134-.218.796-.396 1.472-.396 1.174 0 1.262.16 2.001 3.676.425 2.021.861 3.767.97 3.875.2.199 4.745-.781 4.745-1.024 0-.072-.324-1.698-.72-3.612-.6-2.902-.619-3.544-.112-3.863 1.053-.668 1.432-.193 2.037 2.553 1.13 5.127.797 4.66 2.952 4.131 1.053-.258 1.958-.5 2.012-.536.179-.124-2-10.625-2.259-10.884-.015-.018-.106-.023-.267-.021zm48.025 1.654c-2.801 0-5.56 5.031-5.56 10.141 0 3.01.113 3.354 2.25 6.863 1.237 2.032 2.909 4.605 3.716 5.717s1.747 2.021 2.09 2.021c.772 0 6.565-8.611 6.565-9.762 0-1.074-1-2.557-3.432-5.09-1.374-1.433-2.269-2.957-3.035-5.174-1.597-4.62-1.65-4.716-2.594-4.716zm124.087 1.81c-.58-.008-.925 0-.955.031-.105.105-.258.994-.338 1.973l-.146 1.779 4.461.565c2.453.312 4.682.64 4.949.729.269.092-1.988.625-5.015 1.185l-5.501 1.017-.309 2.316c-.168 1.273-.309 2.416-.309 2.54-.002.124 4.231 1.569 9.406 3.214 5.176 1.645 9.756 3.01 10.178 3.037.746.047 1.088-.939 1.377-3.982.103-1.07-.104-1.154-6.193-2.502-3.463-.768-6.571-1.49-6.905-1.607-.334-.116 2.703-.582 6.748-1.03 4.046-.449 7.403-.86 7.462-.914.236-.222 1.163-7.017.98-7.197-.234-.238-15.834-1.103-19.89-1.154zm-44.031.47c-.479.036-.867.319-1.043.874-.168.525-1.887 2.636-3.82 4.688-3.754 3.984-4.7 5.439-5.168 7.928-.26 1.381-.01 1.988 2.099 5.123 1.315 1.957 2.595 3.824 2.84 4.152.246.328.884.598 1.414.598.752 0 1.522-.976 3.472-4.387 3.323-5.824 3.89-7.572 3.89-12.023 0-3.106-.165-3.945-1.026-5.229-.791-1.172-1.856-1.787-2.658-1.724zm-125.628 7.618c-.217 0-19.304 8.109-19.464 8.271-.081.08.29 1.289.824 2.687.625 1.635 1.23 2.539 1.697 2.539.398 0 2.901-.584 5.561-1.299 2.66-.713 4.836-1.232 4.836-1.152 0 .078-2.227 1.199-4.948 2.492s-4.948 2.596-4.948 2.895.432 1.584.96 2.854c.528 1.271 1.095 2.31 1.262 2.31s1.505-.394 2.976-.875 5.961-1.911 9.979-3.177l7.305-2.299-.684-1.637c-.376-.902-.761-1.715-.854-1.809s-2.137.461-4.542 1.23c-2.405.771-4.434 1.34-4.509 1.266-.075-.075 1.778-1.127 4.116-2.334 3.725-1.926 4.216-2.314 3.961-3.143-.459-1.49-1.518-3.421-1.875-3.416-.179.002-2.009.406-4.066.899-2.057.491-3.879.892-4.049.883-.17-.006 1.311-.729 3.29-1.608 1.979-.877 3.772-1.764 3.985-1.969.324-.317-.416-3.608-.813-3.608zm33.536 2.252c-2.374.007-5.12 2.72-7.128 7.043-1.038 2.234-1.222 3.23-1.229 6.676-.008 3.52.146 4.342 1.179 6.298 1.516 2.869 4.582 7.043 8.837 12.033 1.846 2.164 3.626 3.937 3.955 3.937.342 0 .714-.721.87-1.688.149-.928 1.272-4.854 2.494-8.725 1.223-3.869 2.223-7.64 2.223-8.377 0-.847-.819-2.594-2.225-4.748-1.223-1.873-2.928-4.932-3.79-6.795-1.76-3.811-3.454-5.658-5.186-5.654zm102.256.847c-.063-.002-.127-.002-.19.001-1.144.063-2.115 1.168-3.218 3.367-.758 1.516-2.772 4.996-4.477 7.736-3.709 5.965-3.799 6.699-1.361 11.174.955 1.754 2.188 4.555 2.736 6.225.862 2.621 1.146 3.037 2.072 3.037 1.469 0 3.988-2.32 5.17-4.762 1.154-2.385.99-4.445-.717-8.979-1.204-3.199-1.076-4.254.517-4.254.763 0 1.401.523 2.218 1.816 1.227 1.941 2.859 2.971 4.017 2.527 3.03-1.164.883-11.285-3.323-15.647-1.392-1.439-2.481-2.197-3.444-2.241zm30.334 2.756c-.283-.006-1.843 4.116-1.615 4.269.063.043 4.363 1.824 9.56 3.961 5.194 2.136 9.569 3.89 9.724 3.896.275.014 2.613-5.951 2.424-6.186-.127-.151-19.673-5.931-20.093-5.94zm-108.807 2.243c-1.063 0-3.563 4.861-3.883 7.553-.361 3.047 1.332 6.465 5.188 10.477 1.953 2.033 3.342 3.115 3.998 3.115.975 0 1.006-.145 1.002-4.388-.008-6.092-1.315-10.702-4.209-14.846-.734-1.052-1.678-1.911-2.096-1.911zm18.381.45c-.165 0-.646.907-1.07 2.016-.855 2.242-.732 6.026.233 7.19.315.38.925.689 1.356.689.959 0 3.154-1.664 3.156-2.395.003-.741-3.307-7.5-3.675-7.5zm19.832.247-1.762 3.138c-2.127 3.787-2.233 4.896-.563 5.813 1.676.922 2.898.699 3.586-.651.652-1.28.373-4.294-.623-6.735zm17.493 2.035c-.839-.008-1.864.514-3.017 1.554-2.402 2.172-3.726 5.151-3.885 8.76-.072 1.606-.279 4.209-.462 5.78-.258 2.229-.19 2.943.3 3.255.842.532.532.644 4.056-1.45 3.8-2.258 5.667-4.398 6.048-6.936.342-2.275-.57-8.582-1.443-9.984-.403-.649-.944-.973-1.597-.979zm-28.645 6.265c-.834 0-2.352.789-4.33 2.25-3.457 2.551-4.801 2.78-7.937 1.358-1.079-.49-2.423-.896-2.987-.899-2.121-.021-1.813 2.862.559 5.235.826.826 1.645 1.502 1.816 1.502s2.729-.81 5.678-1.799c6.725-2.256 9.072-2.328 14.494-.449 4.949 1.715 6.149 1.714 8.114-.012 3.052-2.682 2.894-5.404-.278-4.729-4.435.942-5.942.813-9.951-.845-2.143-.888-4.473-1.612-5.178-1.612zm93.554.096-1.654 3.524-1.652 3.523-6.233-3.123c-3.429-1.718-6.401-3.121-6.606-3.121-.529 0-2.047 3.317-1.591 3.479.207.074 4.224 2.249 8.924 4.834 4.701 2.584 8.666 4.706 8.812 4.715.145.009 1.486-2.591 2.984-5.776l2.721-5.793-2.852-1.131zm-19.04 5.324c-.038 0-.063.007-.076.021-.565.604-6.581 9.535-6.474 9.608.072.052.867.64 1.765 1.306l1.634 1.215 1.291-1.58 1.291-1.58 6.746 4.465c3.712 2.455 6.85 4.471 6.975 4.477.258.018 2.801-4.08 2.604-4.197-.072-.043-3.167-1.869-6.879-4.06-3.711-2.19-6.834-4.056-6.939-4.146-.105-.088.248-.945.787-1.904.539-.958.979-1.837.979-1.951-.002-.288-3.144-1.679-3.704-1.674zm-160.973 1.329-2.121 1.083c-2.934 1.5-4.958 3.616-5.325 5.571-.245 1.308-.049 2.098 1 4.037 1.425 2.635 3.477 4.951 4.896 5.526 1.522.617 2.437.476 5.002-.782 2.874-1.406 12.348-9.037 12.308-9.912-.009-.193-.507-.953-1.107-1.688l-1.091-1.334-1.254.923c-3.799 2.796-9.989 6.92-10.387 6.92-.614 0-2.79-2.614-2.79-3.351 0-.32.708-1.064 1.572-1.652.864-.589 1.573-1.275 1.574-1.527s-.51-1.215-1.137-2.138zm123.035.447c-.346 0-1.998 1.275-3.673 2.832-4.019 3.738-6.071 5.272-9.419 7.037-3.559 1.877-4.232 3.219-3.145 6.258.412 1.15.879 3.966 1.039 6.255.16 2.288.354 4.159.434 4.159s3.291-1.648 7.139-3.666c7.85-4.112 9.674-5.707 10.779-9.434.824-2.773.887-5.328.21-8.482-.507-2.362-2.269-4.959-3.364-4.959zm-71.617.189c-.727.001-1.178.349-2.153 1.384-1.887 2-2.602 5.062-2.386 10.215.145 3.459.312 4.095 1.53 5.832 1.499 2.138 3.941 3.892 10.778 7.742 2.474 1.395 4.798 2.48 5.164 2.416.776-.139 1.091-1.127 1.829-5.734 1.385-8.649 1.066-10.78-1.963-13.123-1.034-.801-3.243-2.723-4.908-4.271-3.268-3.039-4.672-3.908-7.041-4.359-.334-.066-.608-.103-.85-.102zm-31.446 9.675-10.195 3.687c-5.607 2.026-10.189 3.805-10.182 3.952.007.146.767 1.121 1.687 2.166l1.674 1.897 2.184-.964 2.184-.964 1.51 1.765c.831.971 1.519 1.932 1.527 2.135.009.201-.583 1.24-1.316 2.307l-1.333 1.938 3.22 3.703 3.22 3.701 2.274-2.535c1.251-1.395 2.488-2.529 2.749-2.523.261.009 1.153.715 1.983 1.57 1.902 1.963 4.227 3.094 5.516 2.686.537-.172 2.07-1.344 3.406-2.607 3.922-3.709 4.54-5.707 2.584-8.357-1.066-1.444-6.018-5.891-6.521-5.854-.134.009-3.281 2.927-6.992 6.481s-6.814 6.398-6.896 6.318c-.164-.16 4.022-6.838 8.094-12.914 1.444-2.156 2.625-4.09 2.625-4.299 0-.207-.675-1.033-1.501-1.832zm134.328.033c-2.465 0-6.719 4.344-6.719 6.859 0 1.711 1.01 3.57 2.717 5.008 2.807 2.361 4.855 2.127 8.127-.934 2.012-1.881 2.322-2.026 3.334-1.564 1.527.695 1.404 1.557-.523 3.691l-1.641 1.815-1.072-1.008-1.072-1.006-1.664 1.665-1.664 1.664 1.75 1.464c.965.805 2.176 1.709 2.691 2.01 1.648.958 3.943.662 5.811-.75 2.242-1.698 4.256-4.387 4.604-6.147.557-2.83-2.202-6.174-6.602-8.004-2.162-.898-4.035-.359-6.858 1.976-1.201.995-2.248 1.808-2.324 1.808-.075 0-.459-.123-.851-.273-1.057-.403-.87-1.205.607-2.621.98-.939 1.598-1.195 2.4-.994.811.204 1.379-.043 2.287-.99 1.146-1.195 1.168-1.298.412-1.956-1.205-1.053-2.649-1.713-3.75-1.713zm-81.155 4.599c-1.798-.092-2.939 2.424-2.928 6.746.017 5.293 1.488 7.645 5.73 9.158 3.305 1.18 7.756.627 7.756-.962 0-2.097-7.408-13.501-9.496-14.618-.373-.201-.729-.306-1.062-.324zm-56.293.894c.036-.004.06-.001.067.007.064.068-.542.883-1.346 1.809-1.443 1.662-1.474 1.672-2.266.797-.783-.864-.75-.908 1.346-1.807 1.036-.446 1.945-.776 2.199-.806zm83.673 1.268c-.938.017-2.104.471-3.473 1.377-3.743 2.48-8.549 8.696-8.309 10.75.09.774.629 1.379 1.707 1.916 1.924.963 2.271.969 5.641.092 4.551-1.186 7.113-4.584 7.156-9.487.028-3.099-.933-4.674-2.722-4.648zm44.602 1.543c-.129-.01-.242.027-.346.107-3.117 2.402-7.994 6.586-7.994 6.855 0 .303 3.594 5.574 9.769 14.324l1.991 2.825 1.07-.801c3.108-2.332 10.064-8.036 10.086-8.272.039-.414-3.597-4.449-4.008-4.449-.195 0-1.85 1.197-3.672 2.66-3.064 2.459-3.376 2.606-4.104 1.955-.434-.39-.787-.961-.787-1.272s1.313-1.613 2.923-2.894l2.923-2.324-1.619-1.978-1.619-1.976-2.93 2.484c-2.813 2.387-2.966 2.455-3.789 1.711-.973-.879-1.094-.709 2.584-3.636l2.748-2.187-1.5-1.734c-.814-.937-1.34-1.374-1.726-1.398zm-119.386 5.192c.635 0 3.53 2.779 3.53 3.389 0 .33-.564 1-1.254 1.491l-1.253.894-1.923-1.598-1.922-1.596 1.235-1.291c.681-.708 1.394-1.289 1.587-1.289zm12.052 3.885c-.059.002-.107.016-.143.036-.326.194-4.376 3.085-9.001 6.427l-8.41 6.072 1.48 1.268c2.573 2.207 2.754 2.226 4.8.474l1.869-1.601 2.208 1.418 2.208 1.416-.833 2.422c-.628 1.826-.703 2.523-.305 2.834.966.755 8.449 4.693 8.6 4.527.082-.09 1.5-2.865 3.151-6.17s3.06-5.938 3.129-5.849c.07.088-.324 3.298-.875 7.133s-.968 7.013-.927 7.063c.041.049 1.384.683 2.985 1.406 1.6.727 3.038 1.191 3.193 1.035.158-.154 1.81-4.434 3.672-9.505 1.861-5.071 3.517-9.55 3.677-9.95.219-.549-.173-.914-1.59-1.48-1.035-.413-1.923-.692-1.976-.62-.052.071-.969 2.204-2.039 4.741-1.072 2.535-2.043 4.611-2.158 4.611-.234 0 .26-7.519.638-9.709.228-1.32.121-1.438-2.151-2.381-2.86-1.189-1.988-2.092-7.813 8.078-2.408 4.205-4.435 7.587-4.503 7.516-.069-.072 1.069-4.267 2.53-9.322s2.656-9.33 2.656-9.5c.001-.621-3.197-2.447-4.072-2.39zm96.123.168c-.875-.004-6.93 3.064-8.735 4.428l-1.025.772 4.498 9.319c2.476 5.125 4.615 9.318 4.761 9.318.493 0 3.762-1.787 4.016-2.195.139-.225-.647-1.988-1.748-3.92l-2-3.508 1.824-1.037c1.002-.569 2.108-1.035 2.459-1.035s1.662 1.404 2.914 3.123l2.278 3.121 2.212-1.359 2.211-1.361-2.021-2.625c-2.611-3.394-4.628-5.396-5.434-5.396-.424 0-.641-.502-.641-1.487-.001-2.447-3.351-6.153-5.569-6.158zm-.135 4.978c.459.008.762.234.932.679.474 1.229.319 1.498-1.518 2.656-.984.622-1.871 1.131-1.972 1.131s-.53-.53-.956-1.183c-.842-1.285-.825-1.313 1.66-2.658.785-.426 1.397-.635 1.854-.625zm-10.097.029-1.96.728-1.96.728 1.528 4.274c.84 2.353 1.453 4.351 1.361 4.438-.091.092-1.128-1.617-2.305-3.795-1.178-2.18-2.194-4.026-2.26-4.106-.258-.322-4.697 1.515-4.697 1.94 0 .252.498 2.271 1.107 4.484.607 2.215 1.053 4.08.986 4.146-.066.065-1.012-1.695-2.102-3.916-1.088-2.221-2.209-4.037-2.492-4.037-.65 0-3.35.932-3.35 1.154 0 .19 7.404 15.965 8.379 17.848.354.683.781 1.242.949 1.242.645 0 5.518-2.033 5.518-2.303 0-.154-.703-2.572-1.563-5.373-.86-2.802-1.507-5.148-1.438-5.218s1.222 2.095 2.561 4.81c1.34 2.713 2.678 4.935 2.975 4.935.295 0 1.646-.425 3.002-.942l2.465-.943-3.352-10.047zm-87.765 1.164c.284.015.2.535-.107 1.572-.63 2.133-1.012 2.387-2.222 1.473-.83-.627-.823-.672.225-1.565 1.167-.998 1.82-1.493 2.104-1.48zm27.476 4.665c-.081.002-.132.014-.15.035-.176.188-4.977 17.242-5.373 19.084-.291 1.344-.23 1.41 1.631 1.857 3.289.789 3.094.974 3.74-3.514.469-3.258.563-3.318 3.999-2.637 3.632.723 5.054.323 6.267-1.751.932-1.596 1.535-6.772 1.024-8.805-.159-.636-.76-1.464-1.335-1.841-.909-.591-8.596-2.468-9.803-2.428zm34.175 2.208c-3.408.004-5.535.715-6.865 2.293-1.057 1.256-1.152 1.719-1.146 5.498.01 4.784.978 9.937 2.17 11.551.457.617 1.521 1.375 2.362 1.681 1.847.67 5.773.334 7.888-.675 2.334-1.112 3.041-3.112 2.731-7.727-.326-4.882-1.789-9.671-3.471-11.352-1.079-1.078-1.636-1.27-3.669-1.269zm-16.41.448c-4.141 0-5.557.143-5.562.563-.003.31-.304 4.711-.668 9.783s-.665 9.576-.668 10.01c-.007.654.409.787 2.467.787h2.476v-4.049-4.049h2.262c1.397 0 2.347.217 2.479.563.117.311.364 2.08.549 3.938l.334 3.374 2.296.134 2.299.135-.172-2.383c-.095-1.313-.238-3.349-.32-4.525-.084-1.213-.485-2.514-.924-2.998-.73-.807-.73-.926-.017-2.018 1.058-1.613.775-6.992-.436-8.33-.766-.85-1.348-.935-6.395-.935zm-14.714 2.574c.454.006 1.173.094 1.95.247 1.973.391 2.261.587 2.261 1.542 0 .604-.21 1.486-.466 1.965s-.609.85-.787.82c-.177-.024-1.201-.243-2.277-.483l-1.955-.437.31-1.649c.17-.905.388-1.772.481-1.926.035-.059.211-.083.483-.079zm30.411 1.475c1.576 0 1.801.152 2.43 1.658.381.911.805 3.137.941 4.943l.248 3.287-1.624.678c-3.563 1.488-4.349.711-4.959-4.924-.444-4.104-.42-4.438.376-5.02.469-.343 1.634-.622 2.588-.622zm-15.665.449c2.306 0 2.961.398 2.961 1.799 0 .729-.298 1.369-.711 1.527-.392.15-1.403.271-2.25.271-1.494 0-1.538-.052-1.538-1.8 0-1.746.044-1.797 1.538-1.797zm28.34.554c-.26.014-1.218.25-2.317.576-1.743.518-2.246.861-2.127 1.461.084.43.268 1.32.404 1.977l.25 1.195 2.59-.674c1.424-.371 2.642-.725 2.707-.787.104-.104-1.188-3.463-1.438-3.738-.01-.008-.032-.01-.069-.01z" fill="#ffd810"/><path d="m111.079 29.857c-3.946.021-7.662.221-10.388.617-13.76 1.998-23.707 5.714-34.233 12.787-25.469 17.116-38.981 45.761-35.923 76.154 1.021 10.146 3.39 18.971 7.17 26.7 9.39 19.203 27.454 35.377 47.182 42.243 4.602 1.602 11.332 3.07 17.605 3.846 1.855.229 7.322.336 12.146.237 7.03-.144 9.855-.397 14.232-1.286 13.277-2.695 25.537-8.436 35.707-16.716 4.271-3.479 11.938-11.521 15.396-16.151 14.607-19.566 18.853-49.863 10.394-74.168-9.25-26.574-33.261-47.368-61.164-52.971-4.333-.87-11.548-1.329-18.124-1.292zm1.588 1.347c3.794-.022 7.397.11 10.042.422 15.357 1.811 28.986 7.587 41.029 17.388 4.525 3.683 11.938 11.592 15.335 16.367 3.437 4.83 8.142 14.021 10.212 19.954 6.658 19.074 4.939 43.014-4.445 61.928-3.748 7.551-7.109 12.293-13.41 18.914-12.088 12.701-27.065 20.668-45.32 24.105-4.327.814-19.357 1.168-23.787.559-9.108-1.25-19.102-4.194-26.147-7.705-21.956-10.932-38.713-32.697-43.414-56.389-1.179-5.941-1.618-16.996-.928-23.369 1.141-10.535 3.442-18.414 8.146-27.89 3.715-7.484 7.687-13.17 13.399-19.178 11.867-12.484 26.247-20.6 42.195-23.815 3.896-.786 10.765-1.254 17.093-1.291zm-93.467 49.614c-.142-.003-.284-.001-.425.006-3.399.257-5.777 4.407-4.288 7.433 1.551 3.265 6.671 4.028 8.877 1.099 1.863-2.304 1.355-6.242-1.355-7.654-.822-.563-1.817-.858-2.809-.884zm185.265.02c-3.669.127-6.092 4.916-4.004 7.94 1.651 2.595 5.687 3.405 7.942 1.218 2.277-1.922 2.479-5.834.104-7.73-1.149-.922-2.552-1.498-4.042-1.428zm-58.969 1.846c-.931-.001-6.731 1.559-7.118 1.945-.199.199-.006 1.059.432 1.908 1.105 2.15 1.063 6.139-.08 7.645-2.444 3.216-6.229 4.048-9.27 2.037-2.033-1.344-2.678-2.621-2.678-5.297 0-1.604-.084-1.754-.704-1.24-1.215 1.009-1.86 2.795-2.14 5.926l-.27 3.025 1.895-.234c1.041-.129 2.805-.045 3.918.188 5.658 1.178 9.65-.086 12.029-3.807 1.229-1.923 4.538-11.661 4.104-12.072-.015-.017-.056-.024-.118-.024zm-64.762.225c-.553 0-.277 5.689.402 8.34 1.02 3.979 2.948 6.18 6.115 6.979.835.21 2.531.292 3.768.18s3.935-.335 5.992-.497c3.506-.275 3.729-.354 3.52-1.238-.123-.519-.364-1.914-.536-3.103-.296-2.054-1.125-3.464-2.034-3.464-.229 0-.418.234-.418.52 0 1.078-2.438 3.659-4.221 4.469-5 2.271-9.832-.387-10.467-5.756-.223-1.871-.097-2.635.635-3.873l.91-1.543-1.689-.506c-.932-.28-1.821-.508-1.977-.508z" fill="#fff"/></svg>