<?xml version="1.0" encoding="utf-8"?>
<!-- Generator: Adobe Illustrator 16.0.0, SVG Export Plug-In . SVG Version: 6.00 Build 0)  -->
<!DOCTYPE svg PUBLIC "-//W3C//DTD SVG 1.1//EN" "http://www.w3.org/Graphics/SVG/1.1/DTD/svg11.dtd">
<svg version="1.1"
	 id="svg8" xmlns:inkscape="http://www.inkscape.org/namespaces/inkscape" xmlns:sodipodi="http://sodipodi.sourceforge.net/DTD/sodipodi-0.dtd" xmlns:dc="http://purl.org/dc/elements/1.1/" xmlns:cc="http://creativecommons.org/ns#" xmlns:rdf="http://www.w3.org/1999/02/22-rdf-syntax-ns#" xmlns:svg="http://www.w3.org/2000/svg" inkscape:version="0.92.3 (2405546, 2018-03-11)" sodipodi:docname="New Japan Pro Wrestling Logo 2.svg"
	 xmlns="http://www.w3.org/2000/svg" xmlns:xlink="http://www.w3.org/1999/xlink" x="0px" y="0px" width="225px" height="223.261px"
	 viewBox="0 0 225 223.261" enable-background="new 0 0 225 223.261" xml:space="preserve">
<sodipodi:namedview  gridtolerance="10" objecttolerance="10" inkscape:cx="767.64706" borderopacity="1" inkscape:cy="518.48739" pagecolor="#ffffff" showgrid="false" guidetolerance="10" inkscape:zoom="0.34" bordercolor="#666666" id="namedview8" inkscape:snap-global="false" inkscape:current-layer="svg8" inkscape:showpageshadow="false" inkscape:pageopacity="0" inkscape:pageshadow="2" inkscape:window-width="640" inkscape:window-height="480">
	</sodipodi:namedview>
<title  id="title830">New Japan Pro Wrestling Logo 2</title>
<g>
	<path id="path1201" inkscape:connector-curvature="0" d="M109.826,0.363c-9.333-0.069-18.621,1.417-27.549,4.079
		C57.254,11.707,34.624,27.428,19.644,48.8c-4.637,6.622-8.342,13.855-11.221,21.398c-3.144,7.648-5.702,15.59-6.821,23.794
		c-2.668,17.69-0.998,35.987,4.545,52.966c3.404,10.148,8.524,19.67,14.622,28.449c3.621,5.201,7.823,9.971,12.326,14.426
		c5.053,5.141,10.59,9.818,16.654,13.728c17.887,11.872,39.103,18.838,60.599,19.313c15.162,0.221,30.253-2.871,44.335-8.41
		c19.644-7.779,37.162-21.141,49.33-38.449c6.41-9.2,11.674-19.239,15.383-29.836c4.795-13.703,5.828-28.45,4.982-42.873
		c-0.766-12.174-3.516-24.244-8.492-35.38c-6.625-15.195-16.543-29.01-29.136-39.816c-12.099-10.45-26.451-18.213-41.698-22.959
		c-10.434-3.223-21.354-4.748-32.273-4.784C111.793,0.351,110.81,0.364,109.826,0.363L109.826,0.363z"/>
	<path id="path1210" inkscape:connector-curvature="0" fill="#FF160B" d="M111.582,30.313c-0.357,0.001-0.717,0.003-1.075,0.003l0,0
		c-6.797-0.05-13.562,1.03-20.063,2.964C72.22,38.559,55.736,49.985,44.827,65.516c-3.377,4.813-6.075,10.069-8.172,15.55
		c-2.289,5.56-4.152,11.329-4.968,17.292c-1.943,12.855-0.727,26.152,3.31,38.49c2.479,7.378,6.208,14.296,10.65,20.677
		c2.637,3.778,5.697,7.245,8.976,10.481c3.681,3.736,7.713,7.135,12.129,9.978c13.027,8.627,28.479,13.688,44.135,14.035
		c11.042,0.159,22.034-2.087,32.29-6.112c14.306-5.652,27.064-15.361,35.927-27.941c4.67-6.687,8.502-13.981,11.203-21.683
		c3.492-9.959,4.245-20.675,3.629-31.155c-0.557-8.848-2.561-17.619-6.186-25.713c-4.824-11.042-12.048-21.083-21.219-28.936
		c-8.813-7.594-19.266-13.236-30.37-16.685c-7.599-2.342-15.55-3.45-23.503-3.477C112.297,30.312,111.939,30.312,111.582,30.313
		L111.582,30.313z M88.197,85.199c0.306,0,0.664,0.03,1.109,0.08c5.032,0.567,7.252,5.216,3.573,7.489
		c-2.233,1.38-4.049,1.219-5.896-0.523c-0.993-0.939-1.652-2.06-1.838-3.125c-0.248-1.414-0.11-1.842,0.914-2.867
		C86.847,85.467,87.279,85.2,88.197,85.199L88.197,85.199z M134.685,86.135c0.482,0.02,0.848,0.231,1.448,0.68
		c0.907,0.674,1.255,1.367,1.354,2.688c0.253,3.351-1.256,5.318-4.473,5.838c-1.218,0.195-1.716,0.023-2.574-0.893
		c-0.668-0.713-1.147-1.887-1.291-3.154c-0.193-1.723-0.063-2.183,0.896-3.143c0.618-0.619,1.967-1.376,2.995-1.686
		c0.631-0.188,1.067-0.303,1.429-0.326C134.544,86.135,134.616,86.133,134.685,86.135L134.685,86.135z M89.625,87.465
		c-1.195,0.047-1.979,0.785-1.979,1.932c0,2.264,3.209,2.96,4.146,0.9c0.68-1.49,0.027-2.611-1.632-2.81
		C89.974,87.465,89.794,87.458,89.625,87.465z M133.081,88.756c-1.518,0-2.25,0.769-2.25,2.354c0,0.901,0.295,1.392,1.012,1.677
		c1.131,0.449,2.641,0.159,3.143-0.605c0.509-0.77,0.406-2.285-0.194-2.885C134.493,89,133.724,88.756,133.081,88.756
		L133.081,88.756z"/>
	<path id="path850" inkscape:connector-curvature="0" fill="#FF160B" d="M19.159,78.525c-1.975,0.04-3.939,0.901-5.432,2.556
		c-3.626,4.014-2.287,9.631,2.843,11.934c3.364,1.509,7.776-0.176,9.453-3.61c1.617-3.312,0.93-6.532-1.928-9.042
		C22.651,79.094,20.9,78.489,19.159,78.525z M204.96,78.545c-2.68-0.035-5.328,1.322-6.665,3.942
		c-2.175,4.265-0.036,9.422,4.474,10.789c5.313,1.608,10.638-3.09,9.711-8.569c-0.166-0.979-0.938-2.471-1.813-3.49
		C209.147,79.443,207.045,78.572,204.96,78.545L204.96,78.545z"/>
	<path id="path896" inkscape:connector-curvature="0" fill="#FFD810" d="M89.625,87.465c-1.195,0.047-1.979,0.785-1.979,1.932
		c0,2.264,3.209,2.96,4.146,0.9c0.68-1.49,0.027-2.611-1.632-2.81C89.974,87.465,89.794,87.458,89.625,87.465z M133.081,88.756
		c-1.518,0-2.25,0.769-2.25,2.354c0,0.901,0.295,1.392,1.012,1.677c1.131,0.449,2.641,0.159,3.143-0.605
		c0.509-0.77,0.406-2.285-0.194-2.885C134.493,89,133.724,88.756,133.081,88.756L133.081,88.756z"/>
	<path id="path828" inkscape:connector-curvature="0" fill="#FF160B" d="M111.263,0c-9.631,0.024-15.149,0.642-23.617,2.643
		C55.209,10.31,26.407,32.397,12.291,60.428c-2.003,3.978-5.94,13.683-7.569,18.659c-7.014,21.422-6.167,48.525,2.227,71.24
		c3.544,9.59,10.105,21.203,16.767,29.676c4.555,5.795,13.268,14.553,18.495,18.592c17.775,13.734,38.07,21.904,60.057,24.179
		c24.225,2.504,52.373-4.742,73.498-18.922c16.832-11.298,28.887-25.175,38.268-44.05c7.863-15.824,10.988-29.594,10.968-48.326
		c-0.022-21.012-4.703-38.31-15.229-56.292c-10.603-18.115-26.389-32.888-45.482-42.563C146.927,3.822,130.661-0.049,111.263,0z
		 M111.98,2.075c21.71,0.064,43.964,6.752,62.354,19.033c16.685,11.142,28.218,24.348,37.377,42.796
		c7.968,16.05,11.085,29.661,11.05,48.246c-0.037,18.806-3.595,33.58-11.912,49.483c-11.099,21.218-27.773,37.465-49.203,47.935
		c-13.639,6.663-26.229,10.14-41.387,11.429c-5.132,0.437-11.185,0.506-14.619,0.17c-17.938-1.759-29.986-5.125-44.085-12.32
		c-27.161-13.858-48.211-39.707-55.819-68.543c-4.822-18.276-5.123-37.672-0.848-54.6c2.429-9.617,7.708-22.392,12.604-30.497
		C25.16,42.513,37.546,29.73,50.433,21.216C65.22,11.445,80.625,5.465,97.092,3.101C101.991,2.398,106.972,2.06,111.98,2.075z
		 M118.526,6.609c-2.271-0.013-4.17,0.554-5.23,1.616c-1.029,1.029-1.613,4.521-1.072,6.405c0.553,1.926,2.225,3.02,5.119,3.346
		c3.012,0.34,4.041,0.828,4.041,1.917c0,1.73-5.063,1.472-5.313-0.271c-0.107-0.749-0.557-1.042-1.967-1.28
		c-2.027-0.342-2.599,0.104-2.609,2.039c-0.01,2.016,1.434,4.228,3.142,4.811c2.299,0.784,7.012,0.717,8.785-0.124
		c1.708-0.811,2.46-2.464,2.46-5.408c0-3.754-1.536-5.213-6.133-5.823c-2.796-0.371-3.534-0.782-3.159-1.758
		c0.223-0.579,0.764-0.714,2.428-0.608c1.828,0.117,2.162,0.286,2.285,1.15c0.127,0.897,0.402,1.012,2.42,1.012h2.273l-0.221-2.287
		c-0.291-3.039-1.246-3.926-4.873-4.527C120.081,6.683,119.282,6.613,118.526,6.609L118.526,6.609z M133.161,8.51
		c-0.053,0.002-0.08,0.011-0.08,0.025c0,0.117-0.911,4.186-2.023,9.044c-1.115,4.857-2.024,8.987-2.024,9.177
		s0.657,0.535,1.461,0.768c2.69,0.777,2.817,0.696,3.415-2.195c0.307-1.485,0.601-2.697,0.652-2.694
		c0.051,0.002,1.207,0.305,2.568,0.67c3.188,0.855,4.719,0.845,6.07-0.041c1.441-0.944,2.926-5.002,2.926-7.996
		c0-3.644-1.011-4.319-9.109-6.086C135.122,8.769,133.53,8.495,133.161,8.51L133.161,8.51z M102.474,11.057l-4.562,0.833
		c-2.509,0.458-4.636,0.909-4.728,1.001c-0.092,0.092,0.275,2.827,0.816,6.077l0.982,5.91l1.393-0.007
		c2.145-0.011,2.482-0.418,2.096-2.536L98.13,20.47l2.63-0.518l2.632-0.518v-1.807c0-1.509-0.131-1.769-0.787-1.578
		c-0.434,0.126-1.75,0.366-2.924,0.531c-1.744,0.246-2.138,0.176-2.138-0.382c0-0.475,0.658-0.774,2.159-0.98
		c3.035-0.417,3.415-0.739,3.064-2.601L102.474,11.057z M137.386,14.66c1.055-0.014,2.865,0.429,3.639,0.994
		c0.673,0.491,0.711,0.759,0.259,1.754c-0.562,1.229-1.757,1.448-4.152,0.761c-0.922-0.264-1.1-0.561-0.981-1.642
		c0.078-0.726,0.306-1.485,0.504-1.688C136.769,14.719,137.034,14.664,137.386,14.66L137.386,14.66z M87.286,14.986
		c-2.546,0.005-6.535,1.739-7.304,3.175c-0.326,0.611-0.43,1.79-0.262,3.009c0.323,2.367,2.338,6.282,3.375,6.559
		c2.442,0.652,6.399-0.384,8.344-2.186c1.877-1.741,1.445-5.867-0.953-9.099C89.527,15.155,89.15,14.983,87.286,14.986z
		 M153.991,15.71c-0.119,0.005-0.229,0.017-0.324,0.035c-2.639,0.512-7.18,7.681-7.813,12.335c-0.266,1.939-0.174,2.199,1.381,3.918
		c1.018,1.126,2.564,2.189,3.988,2.736l0,0c3.076,1.183,5.271,1.183,6.777-0.002c1.713-1.348,5.096-7.336,5.721-10.128
		c0.646-2.883,0.073-4.642-2.027-6.236C159.953,17.047,155.774,15.635,153.991,15.71L153.991,15.71z M64.907,18.237
		c-1.519-0.047-3.317,0.689-5.584,2.203c-2.762,1.844-4.066,3.568-4.066,5.375c0,2.722,6.065,11.501,8.669,12.548
		c1.682,0.677,2.568,0.518,5.341-0.96c3.634-1.937,5.333-3.934,5.333-6.271c0-0.998-0.222-2.256-0.493-2.796
		c-0.868-1.729-3.319-5.255-3.653-5.256c-0.528-0.001-6.649,4.063-6.649,4.416c0,0.178,0.517,1.084,1.149,2.015l1.15,1.691
		l1.282-0.913c1.578-1.124,2.267-1.158,2.267-0.113c0,0.798-3.273,3.25-4.339,3.25c-0.688,0-4.14-4.742-4.501-6.186
		c-0.298-1.188,0.427-2.17,2.501-3.392c1.325-0.78,1.391-0.778,2.11,0.061c0.728,0.851,0.776,0.845,2.655-0.319l1.914-1.185
		l-1.182-1.671C67.664,19.115,66.425,18.284,64.907,18.237z M86.937,19.128c0.024,0.001,0.041,0.005,0.047,0.013
		c1.195,1.503,1.412,3.727,0.402,4.115c-1.398,0.536-2.302,0.256-2.816-0.873c-0.809-1.776-0.637-2.325,0.9-2.861
		C86.154,19.284,86.761,19.123,86.937,19.128L86.937,19.128z M155.185,20.979c0.912-0.025,2.008,0.369,3.027,1.146
		c1.36,1.038,1.084,2.542-1.12,6.065c-0.874,1.396-1.825,2.537-2.114,2.537c-0.881-0.001-3.582-1.527-4.041-2.283
		c-0.504-0.826,1.518-5.744,2.857-6.958C154.153,21.16,154.638,20.994,155.185,20.979z M171.791,24.879
		c-0.172,0-2.969,3.333-6.214,7.406l-5.9,7.406l1.801,1.426l1.799,1.425l0.742-1.059c0.408-0.583,1.291-1.672,1.961-2.422
		l1.22-1.363l1.237,0.923c2.246,1.674,2.295,2.13,0.482,4.599l-1.654,2.253l1.594,1.398c1.897,1.667,2.262,1.714,2.966,0.386
		c0.296-0.557,1.213-1.901,2.04-2.988c0.826-1.087,1.503-2.454,1.503-3.037c0-0.738,0.258-1.06,0.848-1.06
		c1.188,0,3.944-3.196,4.576-5.304c0.392-1.305,0.397-2.004,0.024-2.699C180.331,31.265,172.429,24.879,171.791,24.879
		L171.791,24.879z M48.563,28.028c-0.172,0-1.001,0.574-1.843,1.276l-1.529,1.276l3.233,3.839c1.778,2.111,3.233,3.948,3.233,4.082
		c0,0.133-2.144-0.877-4.765-2.246c-5.318-2.777-5.5-2.776-8.247,0.059l-1.375,1.419l6.181,7.061c3.4,3.884,6.374,7.064,6.61,7.068
		c0.235,0.004,1.09-0.634,1.899-1.418l1.471-1.426l-2.805-3.185c-4.494-5.102-4.493-5.107,0.628-2.366
		c2.624,1.404,5.062,2.554,5.417,2.554s1.522-0.893,2.594-1.984l1.948-1.985l-6.168-7.013
		C51.652,31.183,48.735,28.028,48.563,28.028z M172.22,31.718c0.203-0.015,0.42,0.114,0.742,0.359
		c2.46,1.872,2.824,2.365,2.371,3.21c-0.619,1.159-1.734,1.02-3.422-0.424c-1.422-1.218-1.426-1.234-0.605-2.322
		C171.72,31.994,171.959,31.737,172.22,31.718z M186.583,36.498l-1.746,1.5c-0.961,0.825-1.764,1.716-1.785,1.979
		c-0.02,0.263,0.576,1.066,1.326,1.785c0.75,0.719,1.307,1.522,1.237,1.785c-0.069,0.264-2.253,2.463-4.851,4.889
		c-2.599,2.425-4.798,4.613-4.888,4.861c-0.089,0.248,0.498,1.132,1.306,1.964l1.465,1.513l5.098-4.701
		c2.803-2.585,5.244-4.701,5.426-4.701c0.18,0,1.055,0.708,1.941,1.575l1.613,1.576l1.727-1.767l1.727-1.768l-0.928-1.179
		c-0.51-0.648-2.668-3.008-4.797-5.245L186.583,36.498z M32.396,43.469c-0.739-0.036-1.149,0.625-1.919,1.708l-0.896,1.259
		l7.328,6.067l7.328,6.067l1.462-1.414c0.804-0.777,1.462-1.567,1.462-1.754c0-0.188-3.267-3.084-7.259-6.438
		C35.259,45.065,33.477,43.522,32.396,43.469z M26.46,50.521c-0.138,0-0.83,1.07-1.537,2.377l-1.286,2.377l1.905,3.47
		c1.047,1.909,1.725,3.471,1.506,3.471c-0.22,0-1.503-0.703-2.853-1.563c-1.349-0.86-2.656-1.566-2.903-1.571
		c-0.496-0.009-2.663,3.545-2.352,3.856c0.107,0.107,3.716,2.308,8.021,4.89v0.001c4.305,2.583,7.928,4.703,8.051,4.712
		c0.327,0.023,2.356-3.62,2.138-3.838c-0.101-0.101-1.585-1.091-3.297-2.201l-3.114-2.017l4.727-0.01l4.727-0.01l1.234-2.043
		c0.679-1.123,1.234-2.135,1.234-2.249c0-0.114-2.532-0.207-5.626-0.207H31.41l-2.35-4.724
		C27.768,52.646,26.599,50.521,26.46,50.521L26.46,50.521z M197.312,52.32c-3.119,0-7.094,3.079-7.098,5.502
		c-0.002,0.428,0.637,2.073,1.418,3.656c1.46,2.962,1.48,4.529,0.057,4.254c-0.428-0.082-1.229-0.953-1.778-1.936
		c-0.94-1.678-0.955-1.835-0.246-2.62c0.711-0.784,0.698-0.934-0.188-2.465c-0.521-0.896-1.154-1.7-1.41-1.785
		c-0.801-0.267-4.149,3.27-4.149,4.38c0,2.346,1.175,4.804,3.39,7.094c2.58,2.667,3.691,2.922,6.412,1.472
		c4.541-2.42,5.034-4.08,2.713-9.119c-1.182-2.563-1.322-3.175-0.799-3.499c0.801-0.495,1.947,0.494,2.71,2.335
		c0.466,1.125,0.454,1.427-0.071,1.756c-0.53,0.333-0.488,0.666,0.267,2.065c0.495,0.917,1.135,1.743,1.42,1.834
		c0.286,0.091,1.248-0.473,2.138-1.253c1.372-1.206,1.616-1.701,1.606-3.285C203.677,56.818,200.253,52.32,197.312,52.32
		L197.312,52.32z"/>
	<path id="path1225" inkscape:connector-curvature="0" fill="#FFD810" d="M100.908,38.459c-3.945-0.074-7.008,2.039-6.271,5.396
		c0.422,1.917,3.205,4.845,5.605,5.894c1.113,0.487,2.92,1.618,4.014,2.514c1.096,0.896,2.512,1.983,3.148,2.414
		c1.339,0.906,3.658,1.037,4.443,0.251c0.771-0.771,0.678-6.604-0.144-8.933c-0.988-2.801-2.487-4.547-5.142-5.992
		C104.677,38.979,102.702,38.493,100.908,38.459L100.908,38.459z M125.235,39.424c-0.158-0.003-0.316-0.003-0.479,0.001
		c-2.83,0.073-6.131,1.309-7.817,3.23c-2.291,2.609-2.881,9.469-1.113,12.925c0.783,1.531,1.072,1.539,2.443,0.066
		c0.601-0.644,3.043-2.153,5.428-3.354c2.387-1.201,4.766-2.725,5.287-3.388c2.533-3.222,2.152-7.167-0.853-8.814
		C127.347,39.661,126.337,39.448,125.235,39.424L125.235,39.424z M86.336,41.43c-3.269,0.062-5.313,1.045-8.356,3.799
		c-1.822,1.65-2.125,2.148-1.888,3.101c0.388,1.542,1.89,2.127,6.755,2.632c2.271,0.235,4.936,0.724,5.924,1.086
		c2.23,0.816,4.371,0.893,5.082,0.182c2.033-2.033-2.771-10.607-6.035-10.772C87.294,41.431,86.804,41.421,86.336,41.43z
		 M137.912,41.973c-1.929,0-2.427,0.203-3.752,1.53c-1.319,1.32-1.528,1.829-1.527,3.711c0.003,2.805,1.251,4.924,3.242,5.498
		c2.071,0.598,2.867,0.58,6.267-0.141c3.412-0.723,6.445-2.129,6.846-3.174c0.425-1.103-3.02-4.509-6.127-6.062
		C140.931,42.371,139.485,41.973,137.912,41.973L137.912,41.973z M154.534,50.993c-1.809-0.028-2.754,0.401-7.15,2.504
		c-6.07,2.903-6.752,3.005-14.762,2.204c-2.545-0.254-4.083-0.159-6.205,0.385c-6.125,1.569-9.91,4.322-10.877,7.914
		c-0.779,2.897-0.162,11.084,1.008,13.374c0.84,1.641,0.891,2.031,0.379,2.987c-0.914,1.709-2.102,1.968-7.998,1.747
		c-4.384-0.165-5.537-0.346-5.748-0.896c-0.178-0.461,0.991-1.978,3.512-4.557c3.607-3.69,4.912-5.96,4.141-7.208
		c-0.148-0.242-0.07-1.688,0.175-3.213c0.718-4.458-0.556-6.467-5.594-8.827c-2.571-1.203-2.995-1.262-8.996-1.226
		c-4.838,0.029-7.219,0.264-10.271,1.013c-2.184,0.536-5.157,0.974-6.607,0.974c-2.464,0-2.878-0.165-6.316-2.52
		c-5.694-3.9-7.318-4.391-10.12-3.062C60,54.06,59.104,58.555,60.211,67.094c0.443,3.414,0.098,5.019-1.08,5.019
		c-0.325,0-0.909-0.81-1.297-1.799c-0.644-1.639-0.852-1.799-2.339-1.799c-3.259,0-5.491,1.995-8.158,7.291
		c-0.859,1.707-2.283,4.105-3.163,5.33c-1.866,2.598-2.589,5.824-1.306,5.824c0.427,0,1.314-0.379,1.971-0.842
		c1.9-1.34,5.54-3.07,7.658-3.641c1.301-0.35,2.603-1.197,3.914-2.547c2.129-2.189,2.054-2.217,2.548,0.957
		c0.125,0.803,0.487,0.898,3.354,0.898c1.768,0,3.364,0.151,3.549,0.336c0.54,0.539-1.132,2.061-2.901,2.639
		c-2.795,0.916-3.561,1.709-5.424,5.611c-2.259,4.733-3.181,4.916-3.181,0.633c0-2.115-0.789-2.972-3.09-3.359
		c-3.081-0.521-6.926,1.128-9.185,3.939c-3.079,3.83-4.186,8.774-3.744,16.724c0.46,8.276,0.74,10.142,1.522,10.142
		c0.371,0,2.291-1.729,4.268-3.841s4.785-4.758,6.24-5.877c2.783-2.142,3.681-3.435,4.187-6.026
		c0.169-0.865,0.521-2.127,0.781-2.804l0.473-1.229l1.229,1.315c1.945,2.082,3.145,2.144,6.879,0.353
		c1.793-0.859,4.05-2.201,5.016-2.979c0.966-0.779,1.84-1.332,1.943-1.229c0.103,0.103-0.219,0.983-0.716,1.957
		c-0.613,1.201-2.121,2.656-4.692,4.523c-2.412,1.752-3.998,3.256-4.361,4.135c-0.909,2.193-0.401,12.268,0.749,14.853
		c1.027,2.309,2.004,3.282,2.902,2.897c0.341-0.147,1.232-1.113,1.981-2.146c0.749-1.033,2.41-2.485,3.689-3.228
		c1.852-1.074,2.446-1.716,2.912-3.141c0.716-2.191,2.348-3.206,3.729-2.318c0.498,0.319,1.645,2.055,2.549,3.856
		c3,5.976,7.281,9.071,13.822,9.998l3.623,0.512l3.021,3.363c1.662,1.851,3.643,3.741,4.4,4.202
		c1.896,1.156,2.679,1.101,2.334-0.168c-0.734-2.715-1.657-9.161-1.437-10.041c0.337-1.344,1.293-1.625,3.058-0.898
		c1.138,0.469,2.104,0.504,4.25,0.15c3.228-0.53,5.503-0.211,6.974,0.98c0.967,0.782,1.045,1.182,1.045,5.344
		c0,2.476,0.139,4.64,0.307,4.81c0.521,0.524,3.355-1.955,5.047-4.416c0.996-1.45,1.78-3.276,2.066-4.812
		c0.254-1.361,0.77-2.705,1.146-2.983c0.736-0.552,5.967-0.323,7.74,0.336c0.846,0.313,1.012,0.712,1.012,2.411
		c0,2.318,0.302,2.47,1.922,0.968c1.896-1.758,3.142-4.717,3.38-8.036c0.306-4.254-0.47-6.669-2.84-8.855
		c-3.562-3.281-8.812-4.006-14.96-2.063c-3.756,1.186-4.787,1.952-5.276,3.911c-0.166,0.665-1.317,2.146-2.563,3.291
		c-2.26,2.082-2.262,2.085-1.967,4.304c0.266,2.014,0.211,2.219-0.601,2.219c-1.868,0-3.186-0.979-3.186-2.367
		c0-1.311-0.787-2.258-4.442-5.34c-1.578-1.332-1.909-3.461-0.694-4.469c0.586-0.488,0.96-0.486,2.137,0
		c0.785,0.325,2.065,0.688,2.847,0.805c2.01,0.301,6.231-1.037,7.815-2.479l1.342-1.222l-0.051-6.748
		c-0.027-3.711-0.068-8.011-0.094-9.554c-0.049-3.045,0.98-5.149,2.66-5.438c0.469-0.08,3.016-1.156,5.66-2.393
		c3.262-1.525,6.002-2.457,8.521-2.896c4.9-0.855,5.945-1.542,5.659-3.713c-0.12-0.906-0.357-2.078-0.529-2.603
		c-0.233-0.709,0.059-1.378,1.137-2.605c1.584-1.805,1.531-2.276-0.531-4.84c-1.277-1.586-0.862-2.453,1.492-3.119
		c2.449-0.693,3.324-1.517,5.048-4.763c1.774-3.341,4.257-4.799,7.655-4.499c2.563,0.227,3.854,1.412,3.854,3.541
		c0,1.87-0.622,2.88-3.855,6.26c-3.198,3.342-3.809,4.802-2.707,6.484c1.414,2.156,3.234,1,5.494-3.488
		c4.978-9.883,3.545-14.965-4.377-15.532C155.414,51.03,154.95,50.999,154.534,50.993L154.534,50.993z M64.766,55.915
		c1.822,0.058,4.149,1.095,5.935,2.88c2.885,2.885,2.434,5.398-1.615,9.01c-1.544,1.377-2.931,2.505-3.083,2.506
		c-0.937,0.007-2.725-2.177-3.519-4.299c-1.137-3.04-1.252-7.632-0.228-9.095C62.759,56.197,63.671,55.88,64.766,55.915z
		 M166.978,61.477c-0.617-0.045-1.08,0.554-1.662,1.778c-0.965,2.034-0.947,3.746,0.043,4.33c0.433,0.255,1.344,0.366,2.023,0.247
		c4.887-0.857,4.995-1.07,2.176-4.268C168.364,62.211,167.595,61.522,166.978,61.477L166.978,61.477z M170.595,71.274
		c-0.46-0.029-0.669,0.225-1.139,0.805c-0.637,0.786-0.838,1.782-0.838,4.148c0,5.138,1.107,6.811,5.979,9.021
		c2.795,1.271,4.875,1.385,5.93,0.33c0.808-0.81,0.473-5.002-0.559-6.992c-1.26-2.434-5.003-5.758-7.6-6.75
		C171.464,71.49,170.953,71.296,170.595,71.274L170.595,71.274z M161.153,71.65c-1.18-0.039-2.022,1.029-2.303,3.117
		c-0.443,3.313,0.145,4.881,2.254,6.004c1.039,0.555,2.297,1.146,2.791,1.312c1.873,0.633,2.703,0.246,2.641-1.23
		c-0.114-2.747-1.555-6.614-2.948-7.916C162.688,72.095,161.86,71.673,161.153,71.65z M79.519,80.211
		c3.763,0,8.567,1.104,11.715,2.692c2.029,1.024,3.298,1.354,5.192,1.354c2.089,0,2.699,0.192,3.656,1.149
		c1.101,1.101,1.136,1.296,0.837,4.673c-0.195,2.215-0.113,4.482,0.225,6.104c0.498,2.399,0.467,2.672-0.443,3.903
		c-0.881,1.191-0.947,1.66-0.665,4.67c0.223,2.383,0.153,3.539-0.237,4.011c-0.417,0.501-0.429,1.01-0.053,2.089
		c0.273,0.784,0.497,1.496,0.497,1.584c0,0.507-0.946,0.018-1.503-0.777c-0.473-0.674-0.588-1.674-0.413-3.591
		c0.358-3.962-0.529-4.679-8.112-6.542c-8.727-2.145-10.602-4.484-12.459-15.55c-0.498-2.965-0.904-5.478-0.904-5.582
		C76.849,80.295,78.05,80.211,79.519,80.211L79.519,80.211z M160.901,83.389c-0.719,0.004-1.316,0.369-1.666,1.133
		c-0.291,0.641-0.653,2.918-0.807,5.064c-0.357,5.062,0.629,7.601,4.232,10.896c1.359,1.241,2.697,2.183,2.977,2.089
		c0.348-0.117,0.506-2.441,0.506-7.369c0-7.143-0.009-7.212-1.252-9.005C163.63,84.377,162.099,83.383,160.901,83.389
		L160.901,83.389z M171.528,87.517c-1.121,0.015-1.313,0.983-1.19,3.44c0.071,1.441-0.185,3.979-0.569,5.637
		c-0.383,1.658-0.694,3.662-0.689,4.449c0.016,2.168,1.495,4.991,3.377,6.438c0.926,0.712,3.416,2.763,5.534,4.556
		c4.067,3.444,5.303,3.883,6.776,2.409c2.377-2.377,2.353-11.464-0.047-16.567c-1.92-4.082-6.621-8.276-11.029-9.84
		C172.739,87.701,172.038,87.51,171.528,87.517L171.528,87.517z M159.147,101.354c-0.857,0-0.953,0.402-1.535,6.425
		c-0.139,1.431-0.678,3.833-1.199,5.341c-1.161,3.355-0.768,5.02,1.945,8.191c0.979,1.146,1.945,2.085,2.143,2.085
		c0.503,0,2.047-3.793,2.745-6.747c0.662-2.803,0.789-7.484,0.271-10.036C163.119,104.649,160.38,101.354,159.147,101.354
		L159.147,101.354z M5.323,102.229v2.486v2.486l5.735,0.045c8.847,0.069,8.929,0.289,1.073,2.885l-6.789,2.244l-0.01,3.432
		l-0.01,3.432l1.912-0.201c1.051-0.111,5.758-0.547,10.459-0.968l8.547-0.767l0.142-1.971l0.142-1.97l-5.974,0.315
		c-3.286,0.173-5.875,0.216-5.753,0.095c0.121-0.121,2.746-1.209,5.832-2.417l5.612-2.197l0.134-2.777
		c0.121-2.508,0.047-2.777-0.752-2.777c-1.215,0-14.032-0.828-17.489-1.131L5.323,102.229z M211.271,105.245
		c-1.746,0.006-3.5,0.168-4.641,0.502l-1.35,0.396v3.792v3.791l2.109,0.136l2.109,0.138l0.139-1.933
		c0.15-2.071,1.129-2.761,2.411-1.696c0.892,0.739,0.888,5.077-0.005,5.817c-0.77,0.638-5.574,0.839-7.971,0.333
		c-1.348-0.284-1.749-0.629-2.15-1.844c-0.607-1.84,0.035-3.854,1.338-4.195c0.723-0.188,0.896-0.616,0.896-2.206
		c0-1.813-0.093-1.974-1.146-1.974c-1.516,0-3.656,1.137-4.257,2.258c-0.774,1.451-1.047,6.33-0.471,8.462
		c0.616,2.276,1.877,2.981,6.998,3.92l0,0c3.963,0.726,8.024,0.745,10.325,0.051c2.791-0.842,3.621-2.668,3.607-7.94
		c-0.013-4.785-0.419-5.896-2.589-7.078C215.742,105.489,213.515,105.237,211.271,105.245L211.271,105.245z M55.396,109.45
		c-0.821,0-7.613,5.434-9.203,7.362c-1.764,2.14-3.533,6.68-3.533,9.067c0,4.059,2.987,13.973,4.843,16.072
		c1.433,1.622,2.515,0.721,4.532-3.773c0.736-1.643,2.361-4.112,3.609-5.491c3.494-3.856,3.832-4.754,3.5-9.272
		c-0.275-3.75-1.603-10.248-2.599-12.727C56.271,110.006,55.754,109.45,55.396,109.45z M169.929,110.377
		c-1.059,0.022-1.658,1.508-2.674,5.619c-0.669,2.709-1.547,5.709-1.951,6.666c-1.561,3.704-0.646,5.682,5.285,11.416
		c2.366,2.289,4.584,4.161,4.93,4.161c1.189,0,2.875-1.772,3.938-4.144c1.429-3.188,1.444-8.449,0.038-12.051
		c-1.128-2.89-6.588-10.268-8.324-11.248C170.685,110.525,170.281,110.37,169.929,110.377L169.929,110.377z M26.061,119.042
		c-2.42,0.016-20.322,1.629-20.641,1.885c-0.07,0.057,0.588,3.248,1.462,7.095c0.875,3.847,1.59,7.11,1.59,7.258
		c0,0.146,0.268,0.265,0.595,0.265c0.735,0,4.912-1.365,5.346-1.748c0.174-0.154-0.075-2.076-0.555-4.271
		c-0.479-2.192-0.763-4.166-0.628-4.383c0.134-0.218,0.796-0.396,1.472-0.396c1.174,0,1.262,0.16,2.001,3.676
		c0.425,2.021,0.861,3.767,0.97,3.875c0.2,0.199,4.745-0.781,4.745-1.024c0-0.072-0.324-1.698-0.72-3.612
		c-0.6-2.902-0.619-3.544-0.112-3.863c1.053-0.668,1.432-0.193,2.037,2.553c1.13,5.127,0.797,4.66,2.952,4.131
		c1.053-0.258,1.958-0.5,2.012-0.536c0.179-0.124-2-10.625-2.259-10.884C26.313,119.045,26.222,119.04,26.061,119.042
		L26.061,119.042z M74.086,120.696c-2.801,0-5.56,5.031-5.56,10.141c0,3.01,0.113,3.354,2.25,6.863
		c1.237,2.032,2.909,4.605,3.716,5.717c0.807,1.112,1.747,2.021,2.09,2.021c0.772,0,6.565-8.611,6.565-9.762
		c0-1.074-1-2.557-3.432-5.09c-1.374-1.433-2.269-2.957-3.035-5.174C75.083,120.792,75.03,120.696,74.086,120.696z M198.173,122.506
		c-0.58-0.008-0.925,0-0.955,0.031c-0.105,0.105-0.258,0.994-0.338,1.973l-0.146,1.779l4.461,0.565
		c2.453,0.312,4.682,0.64,4.949,0.729c0.269,0.092-1.988,0.625-5.015,1.185l-5.501,1.017l-0.309,2.316
		c-0.168,1.273-0.309,2.416-0.309,2.54c-0.002,0.124,4.231,1.569,9.406,3.214c5.176,1.645,9.756,3.01,10.178,3.037
		c0.746,0.047,1.088-0.939,1.377-3.982c0.103-1.07-0.104-1.154-6.193-2.502c-3.463-0.768-6.571-1.49-6.905-1.607
		c-0.334-0.116,2.703-0.582,6.748-1.03c4.046-0.449,7.403-0.86,7.462-0.914c0.236-0.222,1.163-7.017,0.98-7.197
		C217.829,123.422,202.229,122.557,198.173,122.506z M154.142,122.976c-0.479,0.036-0.867,0.319-1.043,0.874
		c-0.168,0.525-1.887,2.636-3.82,4.688c-3.754,3.984-4.7,5.439-5.168,7.928c-0.26,1.381-0.01,1.988,2.099,5.123
		c1.315,1.957,2.595,3.824,2.84,4.152c0.246,0.328,0.884,0.598,1.414,0.598c0.752,0,1.522-0.976,3.472-4.387
		c3.323-5.824,3.89-7.572,3.89-12.023c0-3.106-0.165-3.945-1.026-5.229C156.009,123.528,154.944,122.913,154.142,122.976
		L154.142,122.976z M28.514,130.594c-0.217,0-19.304,8.109-19.464,8.271c-0.081,0.08,0.29,1.289,0.824,2.687
		c0.625,1.635,1.23,2.539,1.697,2.539c0.398,0,2.901-0.584,5.561-1.299c2.66-0.713,4.836-1.232,4.836-1.152
		c0,0.078-2.227,1.199-4.948,2.492s-4.948,2.596-4.948,2.895s0.432,1.584,0.96,2.854c0.528,1.271,1.095,2.31,1.262,2.31
		s1.505-0.394,2.976-0.875s5.961-1.911,9.979-3.177l7.305-2.299l-0.684-1.637c-0.376-0.902-0.761-1.715-0.854-1.809
		c-0.093-0.094-2.137,0.461-4.542,1.23c-2.405,0.771-4.434,1.34-4.509,1.266c-0.075-0.075,1.778-1.127,4.116-2.334
		c3.725-1.926,4.216-2.314,3.961-3.143c-0.459-1.49-1.518-3.421-1.875-3.416c-0.179,0.002-2.009,0.406-4.066,0.899
		c-2.057,0.491-3.879,0.892-4.049,0.883c-0.17-0.006,1.311-0.729,3.29-1.608c1.979-0.877,3.772-1.764,3.985-1.969
		C29.651,133.885,28.911,130.594,28.514,130.594z M62.05,132.846c-2.374,0.007-5.12,2.72-7.128,7.043
		c-1.038,2.234-1.222,3.23-1.229,6.676c-0.008,3.52,0.146,4.342,1.179,6.298c1.516,2.869,4.582,7.043,8.837,12.033
		c1.846,2.164,3.626,3.937,3.955,3.937c0.342,0,0.714-0.721,0.87-1.688c0.149-0.928,1.272-4.854,2.494-8.725
		c1.223-3.869,2.223-7.64,2.223-8.377c0-0.847-0.819-2.594-2.225-4.748c-1.223-1.873-2.928-4.932-3.79-6.795
		C65.476,134.689,63.782,132.842,62.05,132.846L62.05,132.846z M164.306,133.693c-0.063-0.002-0.127-0.002-0.19,0.001
		c-1.144,0.063-2.115,1.168-3.218,3.367c-0.758,1.516-2.772,4.996-4.477,7.736c-3.709,5.965-3.799,6.699-1.361,11.174
		c0.955,1.754,2.188,4.555,2.736,6.225c0.862,2.621,1.146,3.037,2.072,3.037c1.469,0,3.988-2.32,5.17-4.762
		c1.154-2.385,0.99-4.445-0.717-8.979c-1.204-3.199-1.076-4.254,0.517-4.254c0.763,0,1.401,0.523,2.218,1.816
		c1.227,1.941,2.859,2.971,4.017,2.527c3.03-1.164,0.883-11.285-3.323-15.647C166.358,134.495,165.269,133.737,164.306,133.693
		L164.306,133.693z M194.64,136.449c-0.283-0.006-1.843,4.116-1.615,4.269c0.063,0.043,4.363,1.824,9.56,3.961
		c5.194,2.136,9.569,3.89,9.724,3.896c0.275,0.014,2.613-5.951,2.424-6.186C214.606,142.238,195.06,136.458,194.64,136.449
		L194.64,136.449z M85.833,138.692c-1.063,0-3.563,4.861-3.883,7.553c-0.361,3.047,1.332,6.465,5.188,10.477
		c1.953,2.033,3.342,3.115,3.998,3.115c0.975,0,1.006-0.145,1.002-4.388c-0.008-6.092-1.315-10.702-4.209-14.846
		C87.195,139.551,86.251,138.692,85.833,138.692L85.833,138.692z M104.214,139.142c-0.165,0-0.646,0.907-1.07,2.016
		c-0.855,2.242-0.732,6.026,0.233,7.19c0.315,0.38,0.925,0.689,1.356,0.689c0.959,0,3.154-1.664,3.156-2.395
		C107.892,145.901,104.582,139.142,104.214,139.142z M124.046,139.389l-1.762,3.138c-2.127,3.787-2.233,4.896-0.563,5.813
		c1.676,0.922,2.898,0.699,3.586-0.651c0.652-1.28,0.373-4.294-0.623-6.735L124.046,139.389z M141.539,141.424
		c-0.839-0.008-1.864,0.514-3.017,1.554c-2.402,2.172-3.726,5.151-3.885,8.76c-0.072,1.606-0.279,4.209-0.462,5.78
		c-0.258,2.229-0.19,2.943,0.3,3.255c0.842,0.532,0.532,0.644,4.056-1.45c3.8-2.258,5.667-4.398,6.048-6.936
		c0.342-2.275-0.57-8.582-1.443-9.984C142.733,141.754,142.192,141.43,141.539,141.424L141.539,141.424z M112.894,147.689
		c-0.834,0-2.352,0.789-4.33,2.25c-3.457,2.551-4.801,2.78-7.937,1.358c-1.079-0.49-2.423-0.896-2.987-0.899
		c-2.121-0.021-1.813,2.862,0.559,5.235l0,0c0.826,0.826,1.645,1.502,1.816,1.502s2.729-0.81,5.678-1.799
		c6.725-2.256,9.072-2.328,14.494-0.449c4.949,1.715,6.149,1.714,8.114-0.012c3.052-2.682,2.894-5.404-0.278-4.729
		c-4.435,0.942-5.942,0.813-9.951-0.845C115.929,148.413,113.599,147.689,112.894,147.689L112.894,147.689z M206.448,147.785
		l-1.654,3.524l-1.652,3.523l-6.233-3.123c-3.429-1.718-6.401-3.121-6.606-3.121c-0.529,0-2.047,3.317-1.591,3.479
		c0.207,0.074,4.224,2.249,8.924,4.834c4.701,2.584,8.666,4.706,8.812,4.715c0.145,0.009,1.486-2.591,2.984-5.776l2.721-5.793
		l-2.852-1.131L206.448,147.785z M187.408,153.109c-0.038,0-0.063,0.007-0.076,0.021c-0.565,0.604-6.581,9.535-6.474,9.608
		c0.072,0.052,0.867,0.64,1.765,1.306l1.634,1.215l1.291-1.58l1.291-1.58l6.746,4.465c3.712,2.455,6.85,4.471,6.975,4.477
		c0.258,0.018,2.801-4.08,2.604-4.197c-0.072-0.043-3.167-1.869-6.879-4.06c-3.711-2.19-6.834-4.056-6.939-4.146
		c-0.105-0.088,0.248-0.945,0.787-1.904c0.539-0.958,0.979-1.837,0.979-1.951C191.11,154.495,187.968,153.104,187.408,153.109
		L187.408,153.109z M26.435,154.438l-2.121,1.083c-2.934,1.5-4.958,3.616-5.325,5.571c-0.245,1.308-0.049,2.098,1,4.037
		c1.425,2.635,3.477,4.951,4.896,5.526c1.522,0.617,2.437,0.476,5.002-0.782c2.874-1.406,12.348-9.037,12.308-9.912
		c-0.009-0.193-0.507-0.953-1.107-1.688l-1.091-1.334l-1.254,0.923c-3.799,2.796-9.989,6.92-10.387,6.92
		c-0.614,0-2.79-2.614-2.79-3.351c0-0.32,0.708-1.064,1.572-1.652c0.864-0.589,1.573-1.275,1.574-1.527s-0.51-1.215-1.137-2.138
		L26.435,154.438z M149.47,154.885c-0.346,0-1.998,1.275-3.673,2.832c-4.019,3.738-6.071,5.272-9.419,7.037
		c-3.559,1.877-4.232,3.219-3.145,6.258c0.412,1.15,0.879,3.966,1.039,6.255c0.16,2.288,0.354,4.159,0.434,4.159
		s3.291-1.648,7.139-3.666c7.85-4.112,9.674-5.707,10.779-9.434c0.824-2.773,0.887-5.328,0.21-8.482
		C152.327,157.482,150.565,154.885,149.47,154.885L149.47,154.885z M77.853,155.074c-0.727,0.001-1.178,0.349-2.153,1.384
		c-1.887,2-2.602,5.062-2.386,10.215c0.145,3.459,0.312,4.095,1.53,5.832c1.499,2.138,3.941,3.892,10.778,7.742
		c2.474,1.395,4.798,2.48,5.164,2.416c0.776-0.139,1.091-1.127,1.829-5.734c1.385-8.649,1.066-10.78-1.963-13.123
		c-1.034-0.801-3.243-2.723-4.908-4.271c-3.268-3.039-4.672-3.908-7.041-4.359C78.369,155.11,78.095,155.073,77.853,155.074
		L77.853,155.074z M46.407,164.749l-10.195,3.687c-5.607,2.026-10.189,3.805-10.182,3.952c0.007,0.146,0.767,1.121,1.687,2.166
		l1.674,1.897l2.184-0.964l2.184-0.964l1.51,1.765c0.831,0.971,1.519,1.932,1.527,2.135c0.009,0.201-0.583,1.24-1.316,2.307
		l-1.333,1.938l3.22,3.703l3.22,3.701l2.274-2.535c1.251-1.395,2.488-2.529,2.749-2.523c0.261,0.009,1.153,0.715,1.983,1.57
		c1.902,1.963,4.227,3.094,5.516,2.686c0.537-0.172,2.07-1.344,3.406-2.607c3.922-3.709,4.54-5.707,2.584-8.357
		c-1.066-1.444-6.018-5.891-6.521-5.854c-0.134,0.009-3.281,2.927-6.992,6.481s-6.814,6.398-6.896,6.318
		c-0.164-0.16,4.022-6.838,8.094-12.914c1.444-2.156,2.625-4.09,2.625-4.299c0-0.207-0.675-1.033-1.501-1.832L46.407,164.749z
		 M180.735,164.782c-2.465,0-6.719,4.344-6.719,6.859c0,1.711,1.01,3.57,2.717,5.008c2.807,2.361,4.855,2.127,8.127-0.934
		c2.012-1.881,2.322-2.026,3.334-1.564c1.527,0.695,1.404,1.557-0.523,3.691l-1.641,1.815l-1.072-1.008l-1.072-1.006l-1.664,1.665
		l-1.664,1.664l1.75,1.464c0.965,0.805,2.176,1.709,2.691,2.01c1.648,0.958,3.943,0.662,5.811-0.75
		c2.242-1.698,4.256-4.387,4.604-6.147c0.557-2.83-2.202-6.174-6.602-8.004c-2.162-0.898-4.035-0.359-6.858,1.976
		c-1.201,0.995-2.248,1.808-2.324,1.808c-0.075,0-0.459-0.123-0.851-0.273c-1.057-0.403-0.87-1.205,0.607-2.621
		c0.98-0.939,1.598-1.195,2.4-0.994c0.811,0.204,1.379-0.043,2.287-0.99c1.146-1.195,1.168-1.298,0.412-1.956
		C183.28,165.442,181.836,164.782,180.735,164.782L180.735,164.782z M99.58,169.381c-1.798-0.092-2.939,2.424-2.928,6.746
		c0.017,5.293,1.488,7.645,5.73,9.158c3.305,1.18,7.756,0.627,7.756-0.962c0-2.097-7.408-13.501-9.496-14.618
		C100.269,169.504,99.913,169.399,99.58,169.381z M43.287,170.275L43.287,170.275c0.036-0.004,0.06-0.001,0.067,0.007
		c0.064,0.068-0.542,0.883-1.346,1.809c-1.443,1.662-1.474,1.672-2.266,0.797c-0.783-0.864-0.75-0.908,1.346-1.807
		C42.124,170.635,43.033,170.305,43.287,170.275L43.287,170.275z M126.96,171.543c-0.938,0.017-2.104,0.471-3.473,1.377
		c-3.743,2.48-8.549,8.696-8.309,10.75c0.09,0.774,0.629,1.379,1.707,1.916c1.924,0.963,2.271,0.969,5.641,0.092
		c4.551-1.186,7.113-4.584,7.156-9.487C129.71,173.092,128.749,171.517,126.96,171.543L126.96,171.543z M171.562,173.086
		c-0.129-0.01-0.242,0.027-0.346,0.107c-3.117,2.402-7.994,6.586-7.994,6.855c0,0.303,3.594,5.574,9.769,14.324l1.991,2.825
		l1.07-0.801c3.108-2.332,10.064-8.036,10.086-8.272c0.039-0.414-3.597-4.449-4.008-4.449c-0.195,0-1.85,1.197-3.672,2.66
		c-3.064,2.459-3.376,2.606-4.104,1.955c-0.434-0.39-0.787-0.961-0.787-1.272s1.313-1.613,2.923-2.894l2.923-2.324l-1.619-1.978
		l-1.619-1.976l-2.93,2.484c-2.813,2.387-2.966,2.455-3.789,1.711c-0.973-0.879-1.094-0.709,2.584-3.636l2.748-2.187l-1.5-1.734
		C172.474,173.547,171.948,173.11,171.562,173.086L171.562,173.086z M52.176,178.278c0.635,0,3.53,2.779,3.53,3.389
		c0,0.33-0.564,1-1.254,1.491l-1.253,0.894l-1.923-1.598l-1.922-1.596l1.235-1.291C51.27,178.859,51.983,178.278,52.176,178.278
		L52.176,178.278z M64.228,182.163c-0.059,0.002-0.107,0.016-0.143,0.036c-0.326,0.194-4.376,3.085-9.001,6.427l-8.41,6.072
		l1.48,1.268c2.573,2.207,2.754,2.226,4.8,0.474l1.869-1.601l2.208,1.418l2.208,1.416l-0.833,2.422
		c-0.628,1.826-0.703,2.523-0.305,2.834c0.966,0.755,8.449,4.693,8.6,4.527c0.082-0.09,1.5-2.865,3.151-6.17s3.06-5.938,3.129-5.849
		c0.07,0.088-0.324,3.298-0.875,7.133c-0.551,3.835-0.968,7.013-0.927,7.063c0.041,0.049,1.384,0.683,2.985,1.406
		c1.6,0.727,3.038,1.191,3.193,1.035c0.158-0.154,1.81-4.434,3.672-9.505c1.861-5.071,3.517-9.55,3.677-9.95
		c0.219-0.549-0.173-0.914-1.59-1.48c-1.035-0.413-1.923-0.692-1.976-0.62c-0.052,0.071-0.969,2.204-2.039,4.741
		c-1.072,2.535-2.043,4.611-2.158,4.611c-0.234,0,0.26-7.519,0.638-9.709c0.228-1.32,0.121-1.438-2.151-2.381
		c-2.86-1.189-1.988-2.092-7.813,8.078c-2.408,4.205-4.435,7.587-4.503,7.516c-0.069-0.072,1.069-4.267,2.53-9.322
		c1.461-5.055,2.656-9.33,2.656-9.5C68.301,183.932,65.103,182.106,64.228,182.163L64.228,182.163z M160.351,182.331
		c-0.875-0.004-6.93,3.064-8.735,4.428l-1.025,0.772l4.498,9.319c2.476,5.125,4.615,9.318,4.761,9.318
		c0.493,0,3.762-1.787,4.016-2.195c0.139-0.225-0.647-1.988-1.748-3.92l-2-3.508l1.824-1.037c1.002-0.569,2.108-1.035,2.459-1.035
		s1.662,1.404,2.914,3.123l2.278,3.121l2.212-1.359l2.211-1.361l-2.021-2.625c-2.611-3.394-4.628-5.396-5.434-5.396
		c-0.424,0-0.641-0.502-0.641-1.487C165.919,186.042,162.569,182.336,160.351,182.331L160.351,182.331z M160.216,187.309
		c0.459,0.008,0.762,0.234,0.932,0.679c0.474,1.229,0.319,1.498-1.518,2.656c-0.984,0.622-1.871,1.131-1.972,1.131
		s-0.53-0.53-0.956-1.183c-0.842-1.285-0.825-1.313,1.66-2.658C159.147,187.508,159.759,187.299,160.216,187.309L160.216,187.309z
		 M150.119,187.338l-1.96,0.728l-1.96,0.728l1.528,4.274c0.84,2.353,1.453,4.351,1.361,4.438c-0.091,0.092-1.128-1.617-2.305-3.795
		c-1.178-2.18-2.194-4.026-2.26-4.106c-0.258-0.322-4.697,1.515-4.697,1.94c0,0.252,0.498,2.271,1.107,4.484
		c0.607,2.215,1.053,4.08,0.986,4.146c-0.066,0.065-1.012-1.695-2.102-3.916c-1.088-2.221-2.209-4.037-2.492-4.037
		c-0.65,0-3.35,0.932-3.35,1.154c0,0.19,7.404,15.965,8.379,17.848c0.354,0.683,0.781,1.242,0.949,1.242
		c0.645,0,5.518-2.033,5.518-2.303c0-0.154-0.703-2.572-1.563-5.373c-0.86-2.802-1.507-5.148-1.438-5.218s1.222,2.095,2.561,4.81
		c1.34,2.713,2.678,4.935,2.975,4.935c0.295,0,1.646-0.425,3.002-0.942l2.465-0.943l-3.352-10.047L150.119,187.338z M62.354,188.502
		c0.284,0.015,0.2,0.535-0.107,1.572c-0.63,2.133-1.012,2.387-2.222,1.473c-0.83-0.627-0.823-0.672,0.225-1.565
		C61.417,188.984,62.07,188.489,62.354,188.502L62.354,188.502z M89.83,193.167c-0.081,0.002-0.132,0.014-0.15,0.035
		c-0.176,0.188-4.977,17.242-5.373,19.084c-0.291,1.344-0.23,1.41,1.631,1.857c3.289,0.789,3.094,0.974,3.74-3.514
		c0.469-3.258,0.563-3.318,3.999-2.637c3.632,0.723,5.054,0.323,6.267-1.751c0.932-1.596,1.535-6.772,1.024-8.805
		c-0.159-0.636-0.76-1.464-1.335-1.841C98.724,195.004,91.037,193.127,89.83,193.167L89.83,193.167z M124.005,195.375
		c-3.408,0.004-5.535,0.715-6.865,2.293c-1.057,1.256-1.152,1.719-1.146,5.498c0.01,4.784,0.978,9.937,2.17,11.551
		c0.457,0.617,1.521,1.375,2.362,1.681c1.847,0.67,5.773,0.334,7.888-0.675c2.334-1.112,3.041-3.112,2.731-7.727
		c-0.326-4.882-1.789-9.671-3.471-11.352C126.595,195.566,126.038,195.374,124.005,195.375L124.005,195.375z M107.595,195.823
		c-4.141,0-5.557,0.143-5.562,0.563c-0.003,0.31-0.304,4.711-0.668,9.783s-0.665,9.576-0.668,10.01
		c-0.007,0.654,0.409,0.787,2.467,0.787h2.476v-4.049v-4.049h2.262c1.397,0,2.347,0.217,2.479,0.563
		c0.117,0.311,0.364,2.08,0.549,3.938l0.334,3.374l2.296,0.134l2.299,0.135l-0.172-2.383c-0.095-1.313-0.238-3.349-0.32-4.525
		c-0.084-1.213-0.485-2.514-0.924-2.998c-0.73-0.807-0.73-0.926-0.017-2.018c1.058-1.613,0.775-6.992-0.436-8.33
		C113.224,195.908,112.642,195.823,107.595,195.823L107.595,195.823z M92.881,198.397c0.454,0.006,1.173,0.094,1.95,0.247
		c1.973,0.391,2.261,0.587,2.261,1.542c0,0.604-0.21,1.486-0.466,1.965s-0.609,0.85-0.787,0.82
		c-0.177-0.024-1.201-0.243-2.277-0.483l-1.955-0.437l0.31-1.649c0.17-0.905,0.388-1.772,0.481-1.926
		C92.433,198.417,92.609,198.393,92.881,198.397L92.881,198.397z M123.292,199.872c1.576,0,1.801,0.152,2.43,1.658
		c0.381,0.911,0.805,3.137,0.941,4.943l0.248,3.287l-1.624,0.678c-3.563,1.488-4.349,0.711-4.959-4.924
		c-0.444-4.104-0.42-4.438,0.376-5.02C121.173,200.151,122.338,199.872,123.292,199.872z M107.627,200.321
		c2.306,0,2.961,0.398,2.961,1.799c0,0.729-0.298,1.369-0.711,1.527c-0.392,0.15-1.403,0.271-2.25,0.271
		c-1.494,0-1.538-0.052-1.538-1.8C106.089,200.372,106.133,200.321,107.627,200.321z M135.967,200.875L135.967,200.875
		c-0.26,0.014-1.218,0.25-2.317,0.576c-1.743,0.518-2.246,0.861-2.127,1.461c0.084,0.43,0.268,1.32,0.404,1.977l0.25,1.195
		l2.59-0.674c1.424-0.371,2.642-0.725,2.707-0.787c0.104-0.104-1.188-3.463-1.438-3.738
		C136.026,200.877,136.004,200.875,135.967,200.875L135.967,200.875z"/>
	<path id="path822" inkscape:connector-curvature="0" fill="#FFFFFF" d="M111.079,29.857c-3.946,0.021-7.662,0.221-10.388,0.617
		c-13.76,1.998-23.707,5.714-34.233,12.787c-25.469,17.116-38.981,45.761-35.923,76.154c1.021,10.146,3.39,18.971,7.17,26.7
		c9.39,19.203,27.454,35.377,47.182,42.243c4.602,1.602,11.332,3.07,17.605,3.846c1.855,0.229,7.322,0.336,12.146,0.237
		c7.03-0.144,9.855-0.397,14.232-1.286c13.277-2.695,25.537-8.436,35.707-16.716c4.271-3.479,11.938-11.521,15.396-16.151
		c14.607-19.566,18.853-49.863,10.394-74.168c-9.25-26.574-33.261-47.368-61.164-52.971C124.87,30.279,117.655,29.82,111.079,29.857
		z M112.667,31.204c3.794-0.022,7.397,0.11,10.042,0.422c15.357,1.811,28.986,7.587,41.029,17.388
		c4.525,3.683,11.938,11.592,15.335,16.367c3.437,4.83,8.142,14.021,10.212,19.954c6.658,19.074,4.939,43.014-4.445,61.928
		c-3.748,7.551-7.109,12.293-13.41,18.914c-12.088,12.701-27.065,20.668-45.32,24.105c-4.327,0.814-19.357,1.168-23.787,0.559
		c-9.108-1.25-19.102-4.194-26.147-7.705c-21.956-10.932-38.713-32.697-43.414-56.389c-1.179-5.941-1.618-16.996-0.928-23.369
		c1.141-10.535,3.442-18.414,8.146-27.89c3.715-7.484,7.687-13.17,13.399-19.178c11.867-12.484,26.247-20.6,42.195-23.815
		C99.47,31.709,106.339,31.241,112.667,31.204L112.667,31.204z M19.2,80.818c-0.142-0.003-0.284-0.001-0.425,0.006
		c-3.399,0.257-5.777,4.407-4.288,7.433c1.551,3.265,6.671,4.028,8.877,1.099c1.863-2.304,1.355-6.242-1.355-7.654
		C21.187,81.139,20.192,80.844,19.2,80.818L19.2,80.818z M204.465,80.838c-3.669,0.127-6.092,4.916-4.004,7.94
		c1.651,2.595,5.687,3.405,7.942,1.218c2.277-1.922,2.479-5.834,0.104-7.73C207.358,81.344,205.955,80.768,204.465,80.838
		L204.465,80.838z M145.496,82.684c-0.931-0.001-6.731,1.559-7.118,1.945c-0.199,0.199-0.006,1.059,0.432,1.908
		c1.105,2.15,1.063,6.139-0.08,7.645c-2.444,3.216-6.229,4.048-9.27,2.037c-2.033-1.344-2.678-2.621-2.678-5.297
		c0-1.604-0.084-1.754-0.704-1.24c-1.215,1.009-1.86,2.795-2.14,5.926l-0.27,3.025l1.895-0.234c1.041-0.129,2.805-0.045,3.918,0.188
		c5.658,1.178,9.65-0.086,12.029-3.807c1.229-1.923,4.538-11.661,4.104-12.072C145.599,82.691,145.558,82.684,145.496,82.684
		L145.496,82.684z M80.734,82.909c-0.553,0-0.277,5.689,0.402,8.34c1.02,3.979,2.948,6.18,6.115,6.979
		c0.835,0.21,2.531,0.292,3.768,0.18c1.237-0.112,3.935-0.335,5.992-0.497c3.506-0.275,3.729-0.354,3.52-1.238
		c-0.123-0.519-0.364-1.914-0.536-3.103c-0.296-2.054-1.125-3.464-2.034-3.464c-0.229,0-0.418,0.234-0.418,0.52
		c0,1.078-2.438,3.659-4.221,4.469c-5,2.271-9.832-0.387-10.467-5.756c-0.223-1.871-0.097-2.635,0.635-3.873l0.91-1.543
		l-1.689-0.506C81.779,83.137,80.89,82.909,80.734,82.909z"/>
</g>
</svg>
