<svg enable-background="new 0 0 350 350" height="350" viewBox="0 0 350 350" width="350" xmlns="http://www.w3.org/2000/svg"><path d="m59.399 150.085s-7.962 15.054-7.962 28.083c0 0-.724 30.687 30.979 30.687h4.342s6.369 2.025 116.088-30.687h-27.789l-1.449-34.453-13.027 34.453h-19.975l31.556-83.668h19.108l-8.686 24.03 20.553-24.03h60.219l-5.213 13.897h-20.555l-6.367 17.659h19.105l-6.078 15.633h-18.818l-7.526 20.554h22.583l-1.738 6.079s81.928-21.133 90.613-23.449c0 0-233.499 110.655-271.713 110.655 0 0-36.897.226-36.897-29.884-.001.001-4.199-28.08 38.647-75.559zm135.053 22.293 27.986-75.659-29.723 31.653zm-45.74-77.878-31.075 83.669h19.3l31.269-83.669zm-86.464 83.668h19.299l13.896-36.479-1.545 36.479h20.458l31.268-83.668h-19.106l-14.284 36.961 2.317-36.961h-20.653zm14.51 19.285c0 .738-.185 1.426-.554 2.066-.369.639-.874 1.144-1.512 1.512-.638.367-1.328.551-2.066.551-.735 0-1.422-.184-2.061-.551-.639-.368-1.143-.873-1.512-1.512-.369-.641-.554-1.328-.554-2.066 0-.739.186-1.428.554-2.066.369-.641.874-1.145 1.512-1.512.639-.369 1.326-.553 2.061-.553.738 0 1.428.184 2.066.553.639.367 1.143.871 1.512 1.512.369.638.554 1.327.554 2.066zm-.804 0c0-.922-.327-1.707-.978-2.358-.649-.653-1.434-.977-2.354-.977-.918 0-1.702.323-2.354.977-.65.651-.976 1.437-.976 2.358 0 .918.325 1.705.976 2.357.651.649 1.436.977 2.354.977.92 0 1.704-.327 2.354-.977.651-.652.978-1.439.978-2.357zm-5.203-2.211h1.974c.559 0 .963.111 1.215.336.25.229.375.53.375.91 0 .297-.095.555-.286.771-.193.217-.493.373-.904.471.17.066.296.135.376.207.11.102.229.252.351.448.009.016.247.44.717 1.278h-1.302c-.424-.839-.708-1.344-.852-1.506-.144-.164-.29-.248-.435-.248-.031 0-.077.004-.135.018v1.736h-1.094zm1.094 1.88h.478c.32 0 .544-.051.675-.156.129-.103.197-.237.197-.4 0-.165-.063-.298-.188-.399-.127-.105-.338-.156-.639-.156h-.522v1.111zm203.863-98.519c0 .739-.184 1.428-.553 2.066-.369.639-.873 1.142-1.51 1.512-.639.368-1.328.551-2.068.551-.734 0-1.422-.184-2.061-.551-.639-.37-1.143-.873-1.512-1.512-.371-.639-.557-1.328-.557-2.066s.186-1.426.557-2.066c.369-.64.873-1.144 1.512-1.513.639-.368 1.326-.551 2.061-.551.74 0 1.43.184 2.068.551.637.37 1.141.874 1.51 1.513.369.64.553 1.328.553 2.066zm-.803 0c0-.921-.326-1.708-.975-2.358-.65-.651-1.436-.978-2.355-.978-.918 0-1.703.327-2.354.978-.65.65-.975 1.437-.975 2.358 0 .918.324 1.706.975 2.356.65.65 1.436.978 2.354.978.92 0 1.705-.328 2.355-.978.649-.65.975-1.438.975-2.356zm-5.203-2.213h1.975c.559 0 .963.114 1.215.338.25.229.377.531.377.91 0 .297-.098.555-.289.772-.189.217-.49.375-.9.472.17.065.291.134.373.206.111.101.23.251.352.449.008.014.248.44.717 1.277h-1.303c-.424-.84-.707-1.343-.852-1.507-.145-.163-.289-.245-.434-.245-.033 0-.076.005-.135.015v1.737h-1.096zm1.095 1.882h.477c.32 0 .545-.052.676-.156s.195-.237.195-.401c0-.165-.063-.298-.186-.401-.127-.104-.338-.155-.639-.155h-.523z"/></svg>