<?xml version="1.0" encoding="utf-8"?>
<!-- Generator: Adobe Illustrator 16.0.0, SVG Export Plug-In . SVG Version: 6.00 Build 0)  -->
<!DOCTYPE svg PUBLIC "-//W3C//DTD SVG 1.1//EN" "http://www.w3.org/Graphics/SVG/1.1/DTD/svg11.dtd">
<svg version="1.1" id="Layer_1" xmlns="http://www.w3.org/2000/svg" xmlns:xlink="http://www.w3.org/1999/xlink" x="0px" y="0px"
	 width="350px" height="350px" viewBox="0 0 350 350" enable-background="new 0 0 350 350" xml:space="preserve">
<path d="M59.399,150.085c0,0-7.962,15.054-7.962,28.083c0,0-0.724,30.687,30.979,30.687h4.342c0,0,6.369,2.025,116.088-30.687
	h-27.789l-1.449-34.453l-13.027,34.453h-19.975L172.162,94.5h19.108l-8.686,24.03l20.553-24.03h60.219l-5.213,13.897h-20.555
	l-6.367,17.659h19.105l-6.078,15.633H225.43l-7.526,20.554h22.583l-1.738,6.079c0,0,81.928-21.133,90.613-23.449
	c0,0-233.499,110.655-271.713,110.655c0,0-36.897,0.226-36.897-29.884C20.751,225.645,16.553,197.564,59.399,150.085z
	 M194.452,172.378l27.986-75.659l-29.723,31.653L194.452,172.378z M148.712,94.5l-31.075,83.669h19.3L168.206,94.5H148.712z
	 M62.248,178.168h19.299l13.896-36.479l-1.545,36.479h20.458L145.624,94.5h-19.106l-14.284,36.961l2.317-36.961H93.898
	L62.248,178.168z M76.758,197.453c0,0.738-0.185,1.426-0.554,2.066c-0.369,0.639-0.874,1.144-1.512,1.512
	c-0.638,0.367-1.328,0.551-2.066,0.551c-0.735,0-1.422-0.184-2.061-0.551c-0.639-0.368-1.143-0.873-1.512-1.512
	c-0.369-0.641-0.554-1.328-0.554-2.066c0-0.739,0.186-1.428,0.554-2.066c0.369-0.641,0.874-1.145,1.512-1.512
	c0.639-0.369,1.326-0.553,2.061-0.553c0.738,0,1.428,0.184,2.066,0.553c0.639,0.367,1.143,0.871,1.512,1.512
	C76.573,196.025,76.758,196.714,76.758,197.453z M75.954,197.453c0-0.922-0.327-1.707-0.978-2.358
	c-0.649-0.653-1.434-0.977-2.354-0.977c-0.918,0-1.702,0.323-2.354,0.977c-0.65,0.651-0.976,1.437-0.976,2.358
	c0,0.918,0.325,1.705,0.976,2.357c0.651,0.649,1.436,0.977,2.354,0.977c0.92,0,1.704-0.327,2.354-0.977
	C75.627,199.158,75.954,198.371,75.954,197.453z M70.751,195.242h1.974c0.559,0,0.963,0.111,1.215,0.336
	c0.25,0.229,0.375,0.53,0.375,0.91c0,0.297-0.095,0.555-0.286,0.771c-0.193,0.217-0.493,0.373-0.904,0.471
	c0.17,0.066,0.296,0.135,0.376,0.207c0.11,0.102,0.229,0.252,0.351,0.448c0.009,0.016,0.247,0.44,0.717,1.278h-1.302
	c-0.424-0.839-0.708-1.344-0.852-1.506c-0.144-0.164-0.29-0.248-0.435-0.248c-0.031,0-0.077,0.004-0.135,0.018v1.736h-1.094V195.242
	z M71.845,197.122h0.478c0.32,0,0.544-0.051,0.675-0.156c0.129-0.103,0.197-0.237,0.197-0.4c0-0.165-0.063-0.298-0.188-0.399
	c-0.127-0.105-0.338-0.156-0.639-0.156h-0.522V197.122z M275.708,98.603c0,0.739-0.184,1.428-0.553,2.066
	c-0.369,0.639-0.873,1.142-1.51,1.512c-0.639,0.368-1.328,0.551-2.068,0.551c-0.734,0-1.422-0.184-2.061-0.551
	c-0.639-0.37-1.143-0.873-1.512-1.512c-0.371-0.639-0.557-1.328-0.557-2.066c0-0.738,0.186-1.426,0.557-2.066
	c0.369-0.64,0.873-1.144,1.512-1.513c0.639-0.368,1.326-0.551,2.061-0.551c0.74,0,1.43,0.184,2.068,0.551
	c0.637,0.37,1.141,0.874,1.51,1.513C275.524,97.177,275.708,97.865,275.708,98.603z M274.905,98.603
	c0-0.921-0.326-1.708-0.975-2.358c-0.65-0.651-1.436-0.978-2.355-0.978c-0.918,0-1.703,0.327-2.354,0.978
	c-0.65,0.65-0.975,1.437-0.975,2.358c0,0.918,0.324,1.706,0.975,2.356c0.65,0.65,1.436,0.978,2.354,0.978
	c0.92,0,1.705-0.328,2.355-0.978C274.579,100.309,274.905,99.521,274.905,98.603z M269.702,96.39h1.975
	c0.559,0,0.963,0.114,1.215,0.338c0.25,0.229,0.377,0.531,0.377,0.91c0,0.297-0.098,0.555-0.289,0.772
	c-0.189,0.217-0.49,0.375-0.9,0.472c0.17,0.065,0.291,0.134,0.373,0.206c0.111,0.101,0.23,0.251,0.352,0.449
	c0.008,0.014,0.248,0.44,0.717,1.277h-1.303c-0.424-0.84-0.707-1.343-0.852-1.507c-0.145-0.163-0.289-0.245-0.434-0.245
	c-0.033,0-0.076,0.005-0.135,0.015v1.737h-1.096V96.39z M270.797,98.272h0.477c0.32,0,0.545-0.052,0.676-0.156
	c0.131-0.104,0.195-0.237,0.195-0.401c0-0.165-0.063-0.298-0.186-0.401c-0.127-0.104-0.338-0.155-0.639-0.155h-0.523V98.272z"/>
</svg>
