<?xml version="1.0" encoding="utf-8"?>
<!-- Generator: Adobe Illustrator 16.0.0, SVG Export Plug-In . SVG Version: 6.00 Build 0)  -->
<!DOCTYPE svg PUBLIC "-//W3C//DTD SVG 1.1//EN" "http://www.w3.org/Graphics/SVG/1.1/DTD/svg11.dtd">
<svg version="1.1" id="Nissan_Logo" xmlns="http://www.w3.org/2000/svg" xmlns:xlink="http://www.w3.org/1999/xlink" x="0px"
	 y="0px" width="1300px" height="1300px" viewBox="310 -110 1300 1300" enable-background="new 310 -110 1300 1300"
	 xml:space="preserve">
<g>
	
		<linearGradient id="SVGID_1_" gradientUnits="userSpaceOnUse" x1="208.4937" y1="627.4121" x2="208.4935" y2="488.0113" gradientTransform="matrix(5.9669 0 0 -5.9669 -284.0537 3787.8188)">
		<stop  offset="0.1944" style="stop-color:#FFFFFF"/>
		<stop  offset="0.2085" style="stop-color:#F8F8F8"/>
		<stop  offset="0.3657" style="stop-color:#AEAEAE"/>
		<stop  offset="0.5133" style="stop-color:#707070"/>
		<stop  offset="0.6468" style="stop-color:#404040"/>
		<stop  offset="0.7637" style="stop-color:#1D1D1D"/>
		<stop  offset="0.8595" style="stop-color:#080808"/>
		<stop  offset="0.9222" style="stop-color:#000000"/>
	</linearGradient>
	<path fill="url(#SVGID_1_)" d="M1515.514,416.486c-10.74-2.983-23.271-4.773-48.928-7.757
		c-107.403-4.773-371.735-14.917-506.586-14.917s-399.183,10.144-506.586,14.917c-25.657,2.983-38.188,4.773-48.928,7.757
		c-34.012,7.757-41.172,19.69-41.172,44.154v165.282c0,23.867,25.657,40.574,43.559,43.558c17.9,3.58,29.237,4.773,47.734,6.563
		c95.47,5.967,318.033,18.497,505.393,18.497s409.326-12.53,505.393-18.497c18.497-1.79,29.834-2.983,47.734-6.563
		c17.9-2.983,43.559-19.69,43.559-43.558V460.641C1556.686,436.177,1549.525,424.243,1515.514,416.486z"/>
	
		<radialGradient id="SVGID_2_" cx="152.3506" cy="664.3672" r="139.4622" gradientTransform="matrix(5.9669 0 0 -5.9669 -284.0537 3787.8188)" gradientUnits="userSpaceOnUse">
		<stop  offset="0.2022" style="stop-color:#FFFFFF"/>
		<stop  offset="0.3822" style="stop-color:#FDFDFD"/>
		<stop  offset="0.4874" style="stop-color:#F4F4F4"/>
		<stop  offset="0.5732" style="stop-color:#E6E6E6"/>
		<stop  offset="0.6483" style="stop-color:#D2D2D2"/>
		<stop  offset="0.6889" style="stop-color:#C4C4C4"/>
		<stop  offset="1" style="stop-color:#333333"/>
	</radialGradient>
	<path fill="url(#SVGID_2_)" d="M530.387,423.05c52.508-183.183,225.547-317.437,431.403-317.437
		c204.663,0,377.702,133.657,430.807,316.243c0,0.597,0,1.193,0.597,1.79c30.431-3.58,57.879-8.95,76.973-13.724
		c-0.597-1.193-0.597-1.193-0.597-2.387C1409.304,189.149,1204.641,29.237,961.79,29.237
		c-243.447,0-448.707,161.105-508.376,379.492C480.266,415.89,499.956,418.873,530.387,423.05z"/>
	
		<radialGradient id="SVGID_3_" cx="489.8618" cy="440.9863" r="290.4512" gradientTransform="matrix(5.9669 0 0 -5.9669 -284.0537 3787.8188)" gradientUnits="userSpaceOnUse">
		<stop  offset="0.2022" style="stop-color:#FFFFFF"/>
		<stop  offset="0.368" style="stop-color:#E4E4E4"/>
		<stop  offset="0.5944" style="stop-color:#C4C4C4"/>
		<stop  offset="1" style="stop-color:#333333"/>
	</radialGradient>
	<path fill="url(#SVGID_3_)" d="M1391.403,662.917c-0.597,1.79-1.193,3.58-1.193,4.177c-56.089,178.409-226.74,307.89-428.42,307.89
		c-203.47,0-374.718-131.271-429.613-312.066c-33.414,5.967-44.751,8.354-77.569,12.53
		c61.459,216.597,264.929,375.315,507.183,375.315s446.32-159.315,507.183-375.912
		C1439.734,671.867,1423.027,668.884,1391.403,662.917z"/>
	
		<radialGradient id="SVGID_4_" cx="185.8496" cy="505.0801" r="89.1697" gradientTransform="matrix(5.9669 0 0 -5.9669 -284.0537 3787.8188)" gradientUnits="userSpaceOnUse">
		<stop  offset="0.2022" style="stop-color:#FFFFFF"/>
		<stop  offset="0.368" style="stop-color:#E4E4E4"/>
		<stop  offset="0.5944" style="stop-color:#C4C4C4"/>
		<stop  offset="1" style="stop-color:#333333"/>
	</radialGradient>
	<path fill="url(#SVGID_4_)" d="M541.724,422.453c12.53-5.37,25.061-13.724,44.155-19.094
		c57.281-147.978,204.065-253.591,376.508-253.591c171.846,0,318.63,105.017,375.912,252.398c0,0.597,0.596,1.193,0.596,1.193
		c10.145,3.58,38.785,14.917,47.735,19.094c1.193,0,4.177,0,6.563,0c0-0.597-0.597-1.193-0.597-1.79
		C1339.492,238.077,1166.453,104.42,961.79,104.42c-205.26,0-378.298,134.254-431.403,317.437
		C533.967,423.05,539.337,422.453,541.724,422.453z"/>
	<path fill="#FFFFFF" d="M958.807,117.547c192.133,0,362.784,114.563,427.227,303.713c0,0.597,0.597,1.193,0.597,1.79
		c1.193,0,4.773,0,6.563,0c0-0.597-0.597-1.193-0.597-1.79c-53.104-182.586-226.144-316.243-430.807-316.243
		c-205.26,0-378.298,134.254-431.403,317.437c4.177,0,5.967,0,10.74-0.597C599.006,242.851,767.867,117.547,958.807,117.547z"/>
	
		<radialGradient id="SVGID_5_" cx="257.8066" cy="413.9043" r="169.1907" gradientTransform="matrix(5.9669 0 0 -5.9669 -284.0537 3787.8188)" gradientUnits="userSpaceOnUse">
		<stop  offset="0.2022" style="stop-color:#FFFFFF"/>
		<stop  offset="0.368" style="stop-color:#E4E4E4"/>
		<stop  offset="0.5944" style="stop-color:#C4C4C4"/>
		<stop  offset="1" style="stop-color:#333333"/>
	</radialGradient>
	<path fill="url(#SVGID_5_)" d="M1380.663,663.514c-13.724,7.757-31.027,14.917-44.751,19.69c0,0.597-1.193,2.387-1.193,2.983
		c-59.669,143.205-204.066,244.642-372.929,244.642c-170.056,0-315.05-102.63-374.122-247.028
		c-16.11-4.177-39.381-14.917-48.331-19.69c-3.58,0-5.37,0-7.16-0.597C587.072,843.713,758.32,975.58,961.79,975.58
		c202.276,0,373.524-130.077,428.42-309.083c0-0.597,0.597-2.387,0.597-2.387C1388.42,662.917,1383.05,663.514,1380.663,663.514z"/>
	
		<radialGradient id="SVGID_6_" cx="207.1543" cy="612.2988" r="134.4511" gradientTransform="matrix(5.9669 0 0 -5.9669 -284.0537 3787.8188)" gradientUnits="userSpaceOnUse">
		<stop  offset="0.2022" style="stop-color:#FFFFFF"/>
		<stop  offset="0.3966" style="stop-color:#FDFDFD"/>
		<stop  offset="0.5101" style="stop-color:#F4F4F4"/>
		<stop  offset="0.6029" style="stop-color:#E6E6E6"/>
		<stop  offset="0.6839" style="stop-color:#D2D2D2"/>
		<stop  offset="0.7278" style="stop-color:#C4C4C4"/>
		<stop  offset="1" style="stop-color:#4D4D4D"/>
	</radialGradient>
	<path fill="url(#SVGID_6_)" d="M1505.967,428.42c-28.641-3.58-47.734-2.983-116.95-5.37c-2.983,0-6.563,0-9.547-0.597
		c-125.304-4.177-313.26-10.144-419.47-10.144s-294.763,5.967-419.47,10.144c-2.983,0-6.563,0-9.547,0.597
		c-69.216,2.387-88.31,1.79-116.95,5.37c-28.642,3.58-50.719,15.514-50.719,36.994v153.349c0,20.884,26.851,38.188,50.719,38.188
		c0,0,302.52,18.497,545.967,19.094c243.447,0,545.967-19.094,545.967-19.094c23.867,0,50.719-17.304,50.719-38.188V465.414
		C1556.686,443.934,1534.607,432,1505.967,428.42z"/>
	<path fill="#FFFFFF" d="M1380.663,663.514c-59.669,176.022-226.74,298.939-415.293,298.939
		c-190.939,0-359.801-112.773-425.437-298.939c-2.387,0-4.773,0-7.16-0.597c54.895,180.199,226.144,312.066,429.613,312.066
		S1337.105,843.116,1392,662.917C1387.823,662.917,1384.243,663.514,1380.663,663.514z"/>
	<path fill="#8C8C8C" d="M1380.663,663.514L1380.663,663.514c-14.32,7.757-31.624,14.917-45.349,19.69
		c0,0.597-1.193,2.387-1.193,2.983c-19.094,45.349-45.944,86.52-79.955,121.724C1307.867,768.53,1350.829,719.603,1380.663,663.514z
		"/>
	<path fill="#4D4D4D" d="M680.751,818.652c-39.978-38.188-71.602-84.133-92.485-135.448c-16.111-4.177-39.382-14.917-48.332-19.69
		c9.547,20.287,20.884,38.785,33.414,56.686c26.255,34.011,58.476,65.038,94.276,90.695
		C671.801,813.282,676.574,816.266,680.751,818.652z"/>
	<path fill="#252525" d="M532.177,662.917L532.177,662.917L532.177,662.917c-33.414,5.967-44.751,8.354-77.569,12.53
		c2.387,9.547,5.37,18.497,8.95,28.044L532.177,662.917z"/>
	
		<radialGradient id="NISSAN_1_" cx="210.269" cy="598.833" r="90.5601" gradientTransform="matrix(5.9669 0 0 -5.9669 -284.0537 3787.8188)" gradientUnits="userSpaceOnUse">
		<stop  offset="0.1111" style="stop-color:#4D4D4D"/>
		<stop  offset="0.248" style="stop-color:#494949"/>
		<stop  offset="0.3546" style="stop-color:#404040"/>
		<stop  offset="0.451" style="stop-color:#2F2F2F"/>
		<stop  offset="0.5409" style="stop-color:#181818"/>
		<stop  offset="0.6111" style="stop-color:#000000"/>
	</radialGradient>
	<path id="NISSAN" fill="url(#NISSAN_1_)" d="M1202.254,495.846c-10.144-22.078-6.563-19.691-28.044-20.288
		c-1.79-0.597-6.563-0.597-13.127-0.597s-7.757,0-13.127,0.597c-20.287,0-16.707-1.193-23.868,13.725
		c0,0-35.204,78.762-50.121,111.58l-0.597,1.192c-2.983,5.968-1.193,5.968,3.58,5.968h31.624c2.387,0,3.58-1.193,4.178-2.387
		c0,0,4.773-10.144,10.74-23.868h76.972c5.967,13.725,10.144,23.271,10.144,23.868c0.597,1.79,2.387,2.387,4.177,2.387h32.818
		c4.773,0,5.967,0.597,4.177-3.58C1245.813,590.121,1207.624,508.376,1202.254,495.846L1202.254,495.846z M1135.426,553.724
		c10.144-23.271,19.69-45.944,19.69-46.541c0.597-1.193,1.79-1.79,3.58-1.79c0.597-0.597,2.387-0.597,4.177-0.597
		c1.193,0,2.983,0,3.58,0.597c1.193,0,2.387,0.597,2.983,2.387c2.387,6.563,11.337,26.254,19.094,45.944H1135.426L1135.426,553.724z
		 M713.569,473.768c2.983,0,3.58,1.193,3.58,3.58v125.305c0,2.983-0.597,4.177-4.177,4.177h-30.432c-3.58,0-4.177-0.597-4.177-4.177
		V477.348c0-2.387,0.597-3.58,2.983-3.58H713.569L713.569,473.768z M648.53,474.961c3.58,0,4.177,1.193,4.177,4.177v124.708
		c0,3.58-0.597,4.177-4.177,4.177h-35.801c-20.884,0-22.675,0-29.835-11.935c-14.32-22.674-58.475-90.099-58.475-90.099v97.856
		c0,3.58-0.597,4.177-4.177,4.177h-26.254c-3.58,0-4.177-0.597-4.177-4.177V479.138c0-2.983,0.597-4.177,4.177-4.177
		c0,0,7.16,0,30.431,0c22.674,0,25.657-0.597,34.011,11.338c6.563,10.74,59.669,92.485,59.669,92.485v-99.646
		c0-2.983,0.597-4.177,4.177-4.177H648.53L648.53,474.961z M1430.188,474.961c3.58,0,4.177,1.193,4.177,4.177v124.708
		c0,3.58-0.597,4.177-4.177,4.177h-35.801c-20.884,0-22.674,0-29.834-11.935c-14.917-22.674-58.476-90.099-58.476-90.099v97.856
		c0,3.58-0.597,4.177-4.177,4.177h-26.254c-3.58,0-4.177-0.597-4.177-4.177V479.138c0-2.983,0.597-4.177,4.177-4.177
		c0,0,7.16,0,30.431,0c22.675,0,25.657-0.597,34.011,11.338c7.161,10.74,59.669,92.485,59.669,92.485v-99.646
		c0-2.983,0.597-4.177,4.177-4.177H1430.188L1430.188,474.961z M847.823,525.68c23.271,2.387,40.574,6.563,45.348,28.641
		c0,1.79,0.597,7.757,0.597,14.32c0,4.177,0,9.547-1.193,14.32c-4.177,20.885-19.69,25.062-44.751,25.062H749.37
		c-3.58,0-4.177-0.597-4.177-4.177v-20.885c0-3.58,0.597-4.177,4.177-4.177c0,0,97.856,0,99.646,0c4.177,0,5.37-1.193,5.967-4.177
		c0-2.387,0-3.58,0-5.37s0-2.983,0-3.58c-0.597-2.387-1.193-5.967-6.563-6.563c-11.337-0.597-44.154-3.58-66.232-5.967
		c-28.641-2.983-35.801-14.917-36.994-25.657c-0.597-3.58-0.597-8.354-0.597-12.53c0-3.58,0-8.95,0.597-13.127
		c4.177-18.497,17.9-27.448,42.961-27.448h95.47c3.58,0,4.773,0.597,4.773,3.581v21.48c0,2.983-1.193,4.177-4.773,3.58
		c0,0-91.293,0-93.68,0c-4.177,0-5.967,1.79-6.563,5.967c0,0.597,0,1.193,0,2.387s0,1.79,0,2.983c0,2.983,1.79,5.37,5.967,5.967
		C800.088,522.1,834.696,524.486,847.823,525.68L847.823,525.68z M1016.686,525.68c23.271,2.387,40.574,6.563,45.348,28.641
		c0,1.79,0.597,7.757,0.597,14.32c0,4.177,0,9.547-1.193,14.32c-4.177,20.885-19.69,25.062-44.751,25.062h-97.857
		c-3.58,0-4.176-0.597-4.176-4.177v-20.885c0-3.58,0.596-4.177,4.176-4.177c0,0,97.857,0,99.646,0c4.178,0,5.371-1.193,5.968-4.177
		c0-2.387,0-3.58,0-5.37s0-2.983,0-3.58c-0.597-2.387-1.79-5.967-6.563-6.563c-11.338-0.597-44.155-3.58-66.232-5.967
		c-28.641-2.983-35.204-14.917-36.994-25.657c-0.597-3.58-0.597-8.354-0.597-12.53c0-3.58,0-8.95,0.597-13.127
		c4.177-18.497,17.9-27.448,42.961-27.448h95.47c3.58,0,4.773,0.597,4.773,3.581v21.48c0,2.983-1.193,4.177-4.773,3.58
		c0,0-91.293,0-93.68,0c-4.177,0-5.967,1.79-6.563,5.967c0,0.597,0,1.193,0,2.387s0,1.79,0,2.983c0,2.983,1.193,5.37,5.967,5.967
		C969.547,522.1,1004.154,524.486,1016.686,525.68L1016.686,525.68z"/>
</g>
</svg>
