<svg enable-background="new 310 -110 1300 1300" height="1300" viewBox="310 -110 1300 1300" width="1300" xmlns="http://www.w3.org/2000/svg" xmlns:xlink="http://www.w3.org/1999/xlink"><linearGradient id="a" gradientTransform="matrix(5.9669 0 0 -5.9669 -284.0537 3787.8188)" gradientUnits="userSpaceOnUse" x1="208.4937" x2="208.4935" y1="627.4121" y2="488.0113"><stop offset=".1944" stop-color="#fff"/><stop offset=".2085" stop-color="#f8f8f8"/><stop offset=".3657" stop-color="#aeaeae"/><stop offset=".5133" stop-color="#707070"/><stop offset=".6468" stop-color="#404040"/><stop offset=".7637" stop-color="#1d1d1d"/><stop offset=".8595" stop-color="#080808"/><stop offset=".9222"/></linearGradient><radialGradient id="b" cx="152.3506" cy="664.3672" gradientTransform="matrix(5.9669 0 0 -5.9669 -284.0537 3787.8188)" gradientUnits="userSpaceOnUse" r="139.4622"><stop offset=".2022" stop-color="#fff"/><stop offset=".3822" stop-color="#fdfdfd"/><stop offset=".4874" stop-color="#f4f4f4"/><stop offset=".5732" stop-color="#e6e6e6"/><stop offset=".6483" stop-color="#d2d2d2"/><stop offset=".6889" stop-color="#c4c4c4"/><stop offset="1" stop-color="#333"/></radialGradient><linearGradient id="c"><stop offset=".2022" stop-color="#fff"/><stop offset=".368" stop-color="#e4e4e4"/><stop offset=".5944" stop-color="#c4c4c4"/><stop offset="1" stop-color="#333"/></linearGradient><radialGradient id="d" cx="489.8618" cy="440.9863" gradientTransform="matrix(5.9669 0 0 -5.9669 -284.0537 3787.8188)" gradientUnits="userSpaceOnUse" r="290.4512" xlink:href="#c"/><radialGradient id="e" cx="185.8496" cy="505.0801" gradientTransform="matrix(5.9669 0 0 -5.9669 -284.0537 3787.8188)" gradientUnits="userSpaceOnUse" r="89.1697" xlink:href="#c"/><radialGradient id="f" cx="257.8066" cy="413.9043" gradientTransform="matrix(5.9669 0 0 -5.9669 -284.0537 3787.8188)" gradientUnits="userSpaceOnUse" r="169.1907" xlink:href="#c"/><radialGradient id="g" cx="207.1543" cy="612.2988" gradientTransform="matrix(5.9669 0 0 -5.9669 -284.0537 3787.8188)" gradientUnits="userSpaceOnUse" r="134.4511"><stop offset=".2022" stop-color="#fff"/><stop offset=".3966" stop-color="#fdfdfd"/><stop offset=".5101" stop-color="#f4f4f4"/><stop offset=".6029" stop-color="#e6e6e6"/><stop offset=".6839" stop-color="#d2d2d2"/><stop offset=".7278" stop-color="#c4c4c4"/><stop offset="1" stop-color="#4d4d4d"/></radialGradient><radialGradient id="h" cx="210.269" cy="598.833" gradientTransform="matrix(5.9669 0 0 -5.9669 -284.0537 3787.8188)" gradientUnits="userSpaceOnUse" r="90.5601"><stop offset=".1111" stop-color="#4d4d4d"/><stop offset=".248" stop-color="#494949"/><stop offset=".3546" stop-color="#404040"/><stop offset=".451" stop-color="#2f2f2f"/><stop offset=".5409" stop-color="#181818"/><stop offset=".6111"/></radialGradient><path d="m1515.514 416.486c-10.74-2.983-23.271-4.773-48.928-7.757-107.403-4.773-371.735-14.917-506.586-14.917s-399.183 10.144-506.586 14.917c-25.657 2.983-38.188 4.773-48.928 7.757-34.012 7.757-41.172 19.69-41.172 44.154v165.282c0 23.867 25.657 40.574 43.559 43.558 17.9 3.58 29.237 4.773 47.734 6.563 95.47 5.967 318.033 18.497 505.393 18.497s409.326-12.53 505.393-18.497c18.497-1.79 29.834-2.983 47.734-6.563 17.9-2.983 43.559-19.69 43.559-43.558v-165.281c0-24.464-7.161-36.398-41.172-44.155z" fill="url(#a)"/><path d="m530.387 423.05c52.508-183.183 225.547-317.437 431.403-317.437 204.663 0 377.702 133.657 430.807 316.243 0 .597 0 1.193.597 1.79 30.431-3.58 57.879-8.95 76.973-13.724-.597-1.193-.597-1.193-.597-2.387-60.266-218.386-264.929-378.298-507.78-378.298-243.447 0-448.707 161.105-508.376 379.492 26.852 7.161 46.542 10.144 76.973 14.321z" fill="url(#b)"/><path d="m1391.403 662.917c-.597 1.79-1.193 3.58-1.193 4.177-56.089 178.409-226.74 307.89-428.42 307.89-203.47 0-374.718-131.271-429.613-312.066-33.414 5.967-44.751 8.354-77.569 12.53 61.459 216.597 264.929 375.315 507.183 375.315s446.32-159.315 507.183-375.912c-29.24-2.984-45.947-5.967-77.571-11.934z" fill="url(#d)"/><path d="m541.724 422.453c12.53-5.37 25.061-13.724 44.155-19.094 57.281-147.978 204.065-253.591 376.508-253.591 171.846 0 318.63 105.017 375.912 252.398 0 .597.596 1.193.596 1.193 10.145 3.58 38.785 14.917 47.735 19.094h6.563c0-.597-.597-1.193-.597-1.79-53.104-182.586-226.143-316.243-430.806-316.243-205.26 0-378.298 134.254-431.403 317.437 3.58 1.193 8.95.596 11.337.596z" fill="url(#e)"/><path d="m958.807 117.547c192.133 0 362.784 114.563 427.227 303.713 0 .597.597 1.193.597 1.79h6.563c0-.597-.597-1.193-.597-1.79-53.104-182.586-226.144-316.243-430.807-316.243-205.26 0-378.298 134.254-431.403 317.437 4.177 0 5.967 0 10.74-.597 57.879-179.006 226.74-304.31 417.68-304.31z" fill="#fff"/><path d="m1380.663 663.514c-13.724 7.757-31.027 14.917-44.751 19.69 0 .597-1.193 2.387-1.193 2.983-59.669 143.205-204.066 244.642-372.929 244.642-170.056 0-315.05-102.63-374.122-247.028-16.11-4.177-39.381-14.917-48.331-19.69-3.58 0-5.37 0-7.16-.597 54.895 180.199 226.143 312.066 429.613 312.066 202.276 0 373.524-130.077 428.42-309.083 0-.597.597-2.387.597-2.387-2.387-1.193-7.757-.596-10.144-.596z" fill="url(#f)"/><path d="m1505.967 428.42c-28.641-3.58-47.734-2.983-116.95-5.37-2.983 0-6.563 0-9.547-.597-125.304-4.177-313.26-10.144-419.47-10.144s-294.763 5.967-419.47 10.144c-2.983 0-6.563 0-9.547.597-69.216 2.387-88.31 1.79-116.95 5.37-28.642 3.58-50.719 15.514-50.719 36.994v153.349c0 20.884 26.851 38.188 50.719 38.188 0 0 302.52 18.497 545.967 19.094 243.447 0 545.967-19.094 545.967-19.094 23.867 0 50.719-17.304 50.719-38.188v-153.349c0-21.48-22.079-33.414-50.719-36.994z" fill="url(#g)"/><path d="m1380.663 663.514c-59.669 176.022-226.74 298.939-415.293 298.939-190.939 0-359.801-112.773-425.437-298.939-2.387 0-4.773 0-7.16-.597 54.895 180.199 226.144 312.066 429.613 312.066s374.719-131.867 429.614-312.066c-4.177 0-7.757.597-11.337.597z" fill="#fff"/><path d="m1380.663 663.514c-14.32 7.757-31.624 14.917-45.349 19.69 0 .597-1.193 2.387-1.193 2.983-19.094 45.349-45.944 86.52-79.955 121.724 53.701-39.381 96.663-88.308 126.497-144.397z" fill="#8c8c8c"/><path d="m680.751 818.652c-39.978-38.188-71.602-84.133-92.485-135.448-16.111-4.177-39.382-14.917-48.332-19.69 9.547 20.287 20.884 38.785 33.414 56.686 26.255 34.011 58.476 65.038 94.276 90.695 4.177 2.387 8.95 5.371 13.127 7.757z" fill="#4d4d4d"/><path d="m532.177 662.917c-33.414 5.967-44.751 8.354-77.569 12.53 2.387 9.547 5.37 18.497 8.95 28.044z" fill="#252525"/><path d="m1202.254 495.846c-10.144-22.078-6.563-19.691-28.044-20.288-1.79-.597-6.563-.597-13.127-.597s-7.757 0-13.127.597c-20.287 0-16.707-1.193-23.868 13.725 0 0-35.204 78.762-50.121 111.58l-.597 1.192c-2.983 5.968-1.193 5.968 3.58 5.968h31.624c2.387 0 3.58-1.193 4.178-2.387 0 0 4.773-10.144 10.74-23.868h76.972c5.967 13.725 10.144 23.271 10.144 23.868.597 1.79 2.387 2.387 4.177 2.387h32.818c4.773 0 5.967.597 4.177-3.58-5.967-14.322-44.156-96.067-49.526-108.597zm-66.828 57.878c10.144-23.271 19.69-45.944 19.69-46.541.597-1.193 1.79-1.79 3.58-1.79.597-.597 2.387-.597 4.177-.597 1.193 0 2.983 0 3.58.597 1.193 0 2.387.597 2.983 2.387 2.387 6.563 11.337 26.254 19.094 45.944zm-421.857-79.956c2.983 0 3.58 1.193 3.58 3.58v125.305c0 2.983-.597 4.177-4.177 4.177h-30.432c-3.58 0-4.177-.597-4.177-4.177v-125.305c0-2.387.597-3.58 2.983-3.58zm-65.039 1.193c3.58 0 4.177 1.193 4.177 4.177v124.708c0 3.58-.597 4.177-4.177 4.177h-35.801c-20.884 0-22.675 0-29.835-11.935-14.32-22.674-58.475-90.099-58.475-90.099v97.856c0 3.58-.597 4.177-4.177 4.177h-26.254c-3.58 0-4.177-.597-4.177-4.177v-124.707c0-2.983.597-4.177 4.177-4.177h30.431c22.674 0 25.657-.597 34.011 11.338 6.563 10.74 59.669 92.485 59.669 92.485v-99.646c0-2.983.597-4.177 4.177-4.177zm781.658 0c3.58 0 4.177 1.193 4.177 4.177v124.708c0 3.58-.597 4.177-4.177 4.177h-35.801c-20.884 0-22.674 0-29.834-11.935-14.917-22.674-58.476-90.099-58.476-90.099v97.856c0 3.58-.597 4.177-4.177 4.177h-26.254c-3.58 0-4.177-.597-4.177-4.177v-124.707c0-2.983.597-4.177 4.177-4.177h30.431c22.675 0 25.657-.597 34.011 11.338 7.161 10.74 59.669 92.485 59.669 92.485v-99.646c0-2.983.597-4.177 4.177-4.177zm-582.365 50.719c23.271 2.387 40.574 6.563 45.348 28.641 0 1.79.597 7.757.597 14.32 0 4.177 0 9.547-1.193 14.32-4.177 20.885-19.69 25.062-44.751 25.062h-98.454c-3.58 0-4.177-.597-4.177-4.177v-20.885c0-3.58.597-4.177 4.177-4.177h99.646c4.177 0 5.37-1.193 5.967-4.177 0-2.387 0-3.58 0-5.37s0-2.983 0-3.58c-.597-2.387-1.193-5.967-6.563-6.563-11.337-.597-44.154-3.58-66.232-5.967-28.641-2.983-35.801-14.917-36.994-25.657-.597-3.58-.597-8.354-.597-12.53 0-3.58 0-8.95.597-13.127 4.177-18.497 17.9-27.448 42.961-27.448h95.47c3.58 0 4.773.597 4.773 3.581v21.48c0 2.983-1.193 4.177-4.773 3.58 0 0-91.293 0-93.68 0-4.177 0-5.967 1.79-6.563 5.967v2.387s0 1.79 0 2.983c0 2.983 1.79 5.37 5.967 5.967 10.739 1.79 45.347 4.176 58.474 5.37zm168.863 0c23.271 2.387 40.574 6.563 45.348 28.641 0 1.79.597 7.757.597 14.32 0 4.177 0 9.547-1.193 14.32-4.177 20.885-19.69 25.062-44.751 25.062h-97.857c-3.58 0-4.176-.597-4.176-4.177v-20.885c0-3.58.596-4.177 4.176-4.177h99.646c4.178 0 5.371-1.193 5.968-4.177 0-2.387 0-3.58 0-5.37s0-2.983 0-3.58c-.597-2.387-1.79-5.967-6.563-6.563-11.338-.597-44.155-3.58-66.232-5.967-28.641-2.983-35.204-14.917-36.994-25.657-.597-3.58-.597-8.354-.597-12.53 0-3.58 0-8.95.597-13.127 4.177-18.497 17.9-27.448 42.961-27.448h95.47c3.58 0 4.773.597 4.773 3.581v21.48c0 2.983-1.193 4.177-4.773 3.58 0 0-91.293 0-93.68 0-4.177 0-5.967 1.79-6.563 5.967v2.387s0 1.79 0 2.983c0 2.983 1.193 5.37 5.967 5.967 10.737 1.79 45.344 4.176 57.876 5.37z" fill="url(#h)"/></svg>