<svg enable-background="new -10 -10 150 150" height="150" viewBox="-10 -10 150 150" width="150" xmlns="http://www.w3.org/2000/svg"><g fill="#f68b33"><path d="m12.862 51.804-6.889-11.194h-.074l.097 11.193h-4.013v-17.115h4.713l6.865 11.168h.075l-.096-11.168h4.013v17.116z"/><path d="m28.792 44.549v7.255h-4.135v-7.255l-6.431-9.862h5.004l3.652 6.334 3.651-6.334h4.834z"/><path d="m46.561 51.501c-1.11.507-2.393.763-3.842.763-1.322 0-2.544-.219-3.663-.655-1.12-.435-2.092-1.052-2.915-1.848-.82-.8-1.465-1.753-1.933-2.866-.467-1.111-.7-2.335-.7-3.674 0-1.37.236-2.61.712-3.723s1.133-2.058 1.971-2.84c.839-.782 1.821-1.383 2.949-1.802 1.128-.42 2.344-.629 3.649-.629 1.211 0 2.397.215 3.565.639 1.169.43 2.117 1.054 2.843 1.875l-2.805 2.805c-.386-.53-.895-.927-1.524-1.183-.626-.259-1.272-.389-1.932-.389-.724 0-1.391.133-1.995.398-.603.267-1.123.635-1.56 1.1-.435.468-.773 1.021-1.015 1.656-.242.639-.363 1.333-.363 2.092 0 .774.121 1.484.363 2.128.241.645.576 1.196 1.004 1.655.427.458.938.818 1.535 1.075.595.259 1.248.387 1.957.387.822 0 1.539-.161 2.152-.483.61-.323 1.104-.74 1.473-1.256l2.877 2.708c-.758.871-1.693 1.56-2.803 2.067"/></g><g fill="#1e478e"><path d="m12.789 73.561v-7.156h-6.67v7.156h-4.136v-17.118h4.135v6.48h6.67v-6.48h4.133v17.118z"/><path d="m19.423 73.561v-17.118h11.505v3.48h-7.518v3.239h7.108v3.313h-7.108v3.556h7.955v3.528h-11.942z"/><path d="m45.941 73.559-1.33-3.359h-6.624l-1.257 3.359h-4.499l7.181-17.115h4.012l7.108 17.115zm-4.592-12.546-2.176 5.873h4.301z"/><path d="m51.357 73.561v-17.118h4.157v13.514h6.625v3.604z"/><path d="m69.396 59.973v13.587h-4.132v-13.587h-4.834v-3.527h13.802v3.527z"/><path d="m86.816 73.561v-7.156h-6.672v7.156h-4.133v-17.118h4.133v6.48h6.672v-6.48h4.136v17.118z"/><path d="m12.789 95.314v-7.155h-6.67v7.155h-4.136v-17.113h4.135v6.479h6.67v-6.479h4.133v17.113z"/><path d="m37.181 86.688c0 1.352-.233 2.59-.699 3.709-.469 1.121-1.119 2.08-1.948 2.877-.83.797-1.817 1.414-2.961 1.849-1.144.438-2.387.651-3.723.651-1.337 0-2.573-.215-3.711-.651-1.136-.437-2.12-1.052-2.946-1.849-.832-.797-1.48-1.758-1.947-2.877-.468-1.119-.701-2.357-.701-3.709 0-1.371.233-2.605.701-3.711.467-1.104 1.115-2.041 1.947-2.817.827-.772 1.812-1.367 2.946-1.787 1.138-.42 2.375-.629 3.711-.629s2.579.209 3.723.629 2.131 1.017 2.961 1.787c.831.776 1.48 1.713 1.948 2.817.465 1.104.699 2.337.699 3.711m-4.423 0c0-.742-.121-1.436-.364-2.078-.24-.646-.575-1.198-1.001-1.658-.429-.459-.944-.822-1.548-1.09-.604-.264-1.27-.396-1.995-.396-.727 0-1.385.133-1.981.396-.597.268-1.112.631-1.549 1.09-.435.459-.769 1.014-1.001 1.658-.234.644-.351 1.336-.351 2.078 0 .771.122 1.485.361 2.14.243.651.578 1.213 1.003 1.679.429.469.94.835 1.537 1.1.596.267 1.255.399 1.981.399.725 0 1.385-.134 1.981-.399.597-.265 1.113-.631 1.549-1.1.433-.466.773-1.025 1.013-1.679.244-.655.365-1.37.365-2.14"/><path d="m47.841 82.65c-.352-.451-.817-.812-1.39-1.076-.572-.268-1.124-.4-1.654-.4-.276 0-.554.024-.833.073-.284.049-.537.142-.763.278-.227.138-.415.314-.569.531-.152.219-.229.495-.229.836 0 .287.062.53.183.725.123.193.297.361.529.508.236.145.513.275.834.398.324.119.686.246 1.089.373.579.194 1.184.41 1.812.642.628.233 1.199.546 1.717.933.515.385.94.866 1.279 1.437.338.575.508 1.286.508 2.14 0 .984-.18 1.834-.542 2.551-.362.719-.851 1.311-1.464 1.777-.612.467-1.313.813-2.101 1.042-.791.224-1.605.336-2.443.336-1.225 0-2.411-.215-3.555-.642-1.143-.426-2.095-1.035-2.852-1.822l2.708-2.758c.419.518.971.945 1.656 1.293.684.349 1.367.521 2.042.521.305 0 .604-.035.895-.1.291-.063.544-.168.762-.313.217-.146.392-.341.519-.58.129-.242.194-.533.194-.871 0-.322-.083-.594-.241-.82-.163-.229-.392-.43-.689-.617-.3-.186-.669-.354-1.112-.506-.444-.154-.948-.318-1.511-.496-.549-.177-1.085-.389-1.608-.629-.524-.243-.992-.553-1.403-.93-.412-.381-.74-.838-.99-1.379-.251-.541-.375-1.195-.375-1.972 0-.95.193-1.764.58-2.438.387-.676.896-1.234 1.521-1.668.63-.438 1.338-.754 2.129-.957.791-.2 1.586-.301 2.393-.301.967 0 1.955.176 2.96.53 1.009.354 1.89.88 2.648 1.57z"/><path d="m65.441 83.47c0 1.003-.184 1.843-.556 2.528-.372.684-.869 1.236-1.5 1.654-.627.418-1.352.729-2.175.918-.823.195-1.677.291-2.561.291h-2.055v6.455h-4.133v-17.114h6.285c.932 0 1.808.096 2.623.276.813.187 1.524.484 2.127.896.604.407 1.08.95 1.426 1.617.344.67.519 1.495.519 2.479m-4.133.024c0-.401-.083-.73-.243-.99-.162-.258-.377-.459-.652-.604-.276-.145-.585-.24-.931-.291-.347-.047-.707-.07-1.076-.07h-1.812v4.036h1.743c.384 0 .756-.032 1.109-.097.354-.063.673-.178.955-.342.283-.158.504-.373.665-.64.159-.262.242-.598.242-1.002"/><path d="m67.061 78.201h4.16v17.113h-4.16z"/><path d="m81.779 81.73v13.584h-4.133v-13.584h-4.834v-3.529h13.804v3.529z"/><path d="m98.003 95.314-1.329-3.36h-6.622l-1.26 3.36h-4.496l7.183-17.113h4.013l7.104 17.113zm-4.592-12.544-2.179 5.875h4.306z"/><path d="m103.746 95.314v-17.113h4.158v13.513h6.625v3.603h-10.783z"/><path d="m125.382 82.65c-.354-.451-.819-.812-1.391-1.076-.57-.268-1.124-.4-1.654-.4-.276 0-.553.024-.834.073-.282.049-.535.142-.761.278-.227.138-.416.314-.569.531-.153.219-.229.495-.229.836 0 .287.061.53.182.725.122.193.299.361.531.508s.512.275.834.398c.32.119.684.246 1.088.373.58.194 1.184.41 1.813.642.629.233 1.2.546 1.717.933.517.385.943.866 1.281 1.437.338.575.506 1.286.506 2.14 0 .984-.18 1.834-.541 2.551-.361.719-.851 1.311-1.465 1.777-.611.467-1.313.813-2.1 1.042-.791.224-1.605.336-2.441.336-1.227 0-2.41-.215-3.555-.642-1.145-.426-2.098-1.035-2.854-1.822l2.709-2.758c.418.518.969.945 1.654 1.293.686.349 1.364.521 2.045.521.305 0 .604-.035.895-.1.289-.063.543-.168.76-.313.217-.146.393-.341.52-.58.129-.242.193-.533.193-.871 0-.322-.082-.594-.242-.82-.16-.229-.39-.43-.688-.617-.299-.186-.67-.354-1.113-.506-.441-.154-.947-.318-1.51-.496-.551-.177-1.084-.389-1.607-.629-.522-.243-.992-.553-1.404-.93-.41-.381-.737-.838-.989-1.379-.25-.541-.375-1.195-.375-1.972 0-.95.192-1.764.579-2.438.387-.678.896-1.234 1.523-1.668.629-.438 1.338-.754 2.127-.957.789-.2 1.586-.301 2.396-.301.965 0 1.954.176 2.959.53 1.008.354 1.89.88 2.647 1.57z"/></g><path d="m112.294 62.921h-6.479v-6.476h-4.157v6.476h-6.479v4.16h6.479v6.476h4.157v-6.476h6.479z" fill="#4598cb"/></svg>