<?xml version="1.0" encoding="utf-8"?>
<!-- Generator: Adobe Illustrator 16.0.0, SVG Export Plug-In . SVG Version: 6.00 Build 0)  -->
<!DOCTYPE svg PUBLIC "-//W3C//DTD SVG 1.1//EN" "http://www.w3.org/Graphics/SVG/1.1/DTD/svg11.dtd">
<svg version="1.1"
	 id="svg834" xmlns:dc="http://purl.org/dc/elements/1.1/" xmlns:cc="http://creativecommons.org/ns#" xmlns:rdf="http://www.w3.org/1999/02/22-rdf-syntax-ns#" xmlns:svg="http://www.w3.org/2000/svg"
	 xmlns="http://www.w3.org/2000/svg" xmlns:xlink="http://www.w3.org/1999/xlink" x="0px" y="0px" width="150px" height="150px"
	 viewBox="-10 -10 150 150" enable-background="new -10 -10 150 150" xml:space="preserve">
<g>
	<path id="path1024" fill="#F68B33" d="M12.862,51.804L5.973,40.61H5.899l0.097,11.193H1.983V34.688h4.713l6.865,11.168h0.075
		L13.54,34.688h4.013v17.116H12.862z"/>
	<path id="path1028" fill="#F68B33" d="M28.792,44.549v7.255h-4.135v-7.255l-6.431-9.862h5.004l3.652,6.334l3.651-6.334h4.834
		L28.792,44.549z"/>
	<path id="path1040" fill="#F68B33" d="M46.561,51.501c-1.11,0.507-2.393,0.763-3.842,0.763c-1.322,0-2.544-0.219-3.663-0.655
		c-1.12-0.435-2.092-1.052-2.915-1.848c-0.82-0.8-1.465-1.753-1.933-2.866c-0.467-1.111-0.7-2.335-0.7-3.674
		c0-1.37,0.236-2.61,0.712-3.723c0.476-1.113,1.133-2.058,1.971-2.84c0.839-0.782,1.821-1.383,2.949-1.802
		c1.128-0.42,2.344-0.629,3.649-0.629c1.211,0,2.397,0.215,3.565,0.639c1.169,0.43,2.117,1.054,2.843,1.875l-2.805,2.805
		c-0.386-0.53-0.895-0.927-1.524-1.183c-0.626-0.259-1.272-0.389-1.932-0.389c-0.724,0-1.391,0.133-1.995,0.398
		c-0.603,0.267-1.123,0.635-1.56,1.1c-0.435,0.468-0.773,1.021-1.015,1.656c-0.242,0.639-0.363,1.333-0.363,2.092
		c0,0.774,0.121,1.484,0.363,2.128c0.241,0.645,0.576,1.196,1.004,1.655c0.427,0.458,0.938,0.818,1.535,1.075
		c0.595,0.259,1.248,0.387,1.957,0.387c0.822,0,1.539-0.161,2.152-0.483c0.61-0.323,1.104-0.74,1.473-1.256l2.877,2.708
		C48.606,50.305,47.671,50.994,46.561,51.501"/>
	<path id="path1044" fill="#1E478E" d="M12.789,73.561v-7.156h-6.67v7.156H1.983V56.443h4.135v6.48h6.67v-6.48h4.133v17.118H12.789z
		"/>
	<path id="path1048" fill="#1E478E" d="M19.423,73.561V56.443h11.505v3.48H23.41v3.239h7.108v3.313H23.41v3.556h7.955v3.528H19.423
		V73.561z"/>
	<path id="path1052" fill="#1E478E" d="M45.941,73.559l-1.33-3.359h-6.624l-1.257,3.359h-4.499l7.181-17.115h4.012l7.108,17.115
		H45.941z M41.349,61.013l-2.176,5.873h4.301L41.349,61.013z"/>
	<path id="path1056" fill="#1E478E" d="M51.357,73.561V56.443h4.157v13.514h6.625v3.604H51.357L51.357,73.561z"/>
	<path id="path1060" fill="#1E478E" d="M69.396,59.973v13.587h-4.132V59.973H60.43v-3.527h13.802v3.527H69.396z"/>
	<path id="path1064" fill="#1E478E" d="M86.816,73.561v-7.156h-6.672v7.156h-4.133V56.443h4.133v6.48h6.672v-6.48h4.136v17.118
		H86.816z"/>
	<path id="path1068" fill="#1E478E" d="M12.789,95.314v-7.155h-6.67v7.155H1.983V78.201h4.135v6.479h6.67v-6.479h4.133v17.113
		H12.789z"/>
	<path id="path1080" fill="#1E478E" d="M37.181,86.688c0,1.352-0.233,2.59-0.699,3.709c-0.469,1.121-1.119,2.08-1.948,2.877
		c-0.83,0.797-1.817,1.414-2.961,1.849c-1.144,0.438-2.387,0.651-3.723,0.651c-1.337,0-2.573-0.215-3.711-0.651
		c-1.136-0.437-2.12-1.052-2.946-1.849c-0.832-0.797-1.48-1.758-1.947-2.877c-0.468-1.119-0.701-2.357-0.701-3.709
		c0-1.371,0.233-2.605,0.701-3.711c0.467-1.104,1.115-2.041,1.947-2.817c0.827-0.772,1.812-1.367,2.946-1.787
		c1.138-0.42,2.375-0.629,3.711-0.629s2.579,0.209,3.723,0.629c1.144,0.42,2.131,1.017,2.961,1.787
		c0.831,0.776,1.48,1.713,1.948,2.817C36.947,84.081,37.181,85.314,37.181,86.688 M32.758,86.688c0-0.742-0.121-1.436-0.364-2.078
		c-0.24-0.646-0.575-1.198-1.001-1.658c-0.429-0.459-0.944-0.822-1.548-1.09c-0.604-0.264-1.27-0.396-1.995-0.396
		c-0.727,0-1.385,0.133-1.981,0.396c-0.597,0.268-1.112,0.631-1.549,1.09c-0.435,0.459-0.769,1.014-1.001,1.658
		c-0.234,0.644-0.351,1.336-0.351,2.078c0,0.771,0.122,1.485,0.361,2.14c0.243,0.651,0.578,1.213,1.003,1.679
		c0.429,0.469,0.94,0.835,1.537,1.1c0.596,0.267,1.255,0.399,1.981,0.399c0.725,0,1.385-0.134,1.981-0.399
		c0.597-0.265,1.113-0.631,1.549-1.1c0.433-0.466,0.773-1.025,1.013-1.679C32.637,88.173,32.758,87.458,32.758,86.688"/>
	<path id="path1084" fill="#1E478E" d="M47.841,82.65c-0.352-0.451-0.817-0.812-1.39-1.076c-0.572-0.268-1.124-0.4-1.654-0.4
		c-0.276,0-0.554,0.024-0.833,0.073c-0.284,0.049-0.537,0.142-0.763,0.278c-0.227,0.138-0.415,0.314-0.569,0.531
		c-0.152,0.219-0.229,0.495-0.229,0.836c0,0.287,0.062,0.53,0.183,0.725c0.123,0.193,0.297,0.361,0.529,0.508
		c0.236,0.145,0.513,0.275,0.834,0.398c0.324,0.119,0.686,0.246,1.089,0.373c0.579,0.194,1.184,0.41,1.812,0.642
		c0.628,0.233,1.199,0.546,1.717,0.933c0.515,0.385,0.94,0.866,1.279,1.437c0.338,0.575,0.508,1.286,0.508,2.14
		c0,0.984-0.18,1.834-0.542,2.551c-0.362,0.719-0.851,1.311-1.464,1.777c-0.612,0.467-1.313,0.813-2.101,1.042
		c-0.791,0.224-1.605,0.336-2.443,0.336c-1.225,0-2.411-0.215-3.555-0.642c-1.143-0.426-2.095-1.035-2.852-1.822l2.708-2.758
		c0.419,0.518,0.971,0.945,1.656,1.293c0.684,0.349,1.367,0.521,2.042,0.521c0.305,0,0.604-0.035,0.895-0.1
		c0.291-0.063,0.544-0.168,0.762-0.313c0.217-0.146,0.392-0.341,0.519-0.58c0.129-0.242,0.194-0.533,0.194-0.871
		c0-0.322-0.083-0.594-0.241-0.82c-0.163-0.229-0.392-0.43-0.689-0.617c-0.3-0.186-0.669-0.354-1.112-0.506
		c-0.444-0.154-0.948-0.318-1.511-0.496c-0.549-0.177-1.085-0.389-1.608-0.629c-0.524-0.243-0.992-0.553-1.403-0.93
		c-0.412-0.381-0.74-0.838-0.99-1.379c-0.251-0.541-0.375-1.195-0.375-1.972c0-0.95,0.193-1.764,0.58-2.438
		c0.387-0.676,0.896-1.234,1.521-1.668c0.63-0.438,1.338-0.754,2.129-0.957c0.791-0.2,1.586-0.301,2.393-0.301
		c0.967,0,1.955,0.176,2.96,0.53c1.009,0.354,1.89,0.88,2.648,1.57L47.841,82.65z"/>
	<path id="path1088" fill="#1E478E" d="M65.441,83.47c0,1.003-0.184,1.843-0.556,2.528c-0.372,0.684-0.869,1.236-1.5,1.654
		c-0.627,0.418-1.352,0.729-2.175,0.918c-0.823,0.195-1.677,0.291-2.561,0.291h-2.055v6.455h-4.133V78.202h6.285
		c0.932,0,1.808,0.096,2.623,0.276c0.813,0.187,1.524,0.484,2.127,0.896c0.604,0.407,1.08,0.95,1.426,1.617
		C65.266,81.661,65.441,82.486,65.441,83.47 M61.308,83.494c0-0.401-0.083-0.73-0.243-0.99c-0.162-0.258-0.377-0.459-0.652-0.604
		c-0.276-0.145-0.585-0.24-0.931-0.291c-0.347-0.047-0.707-0.07-1.076-0.07h-1.812v4.036h1.743c0.384,0,0.756-0.032,1.109-0.097
		c0.354-0.063,0.673-0.178,0.955-0.342c0.283-0.158,0.504-0.373,0.665-0.64C61.225,84.234,61.308,83.898,61.308,83.494"/>
	<path id="path1090" fill="#1E478E" d="M67.061,78.201h4.16v17.113h-4.16V78.201z"/>
	<path id="path1094" fill="#1E478E" d="M81.779,81.73v13.584h-4.133V81.73h-4.834v-3.529h13.804v3.529H81.779z"/>
	<path id="path1098" fill="#1E478E" d="M98.003,95.314l-1.329-3.36h-6.622l-1.26,3.36h-4.496l7.183-17.113h4.013l7.104,17.113
		H98.003z M93.411,82.77l-2.179,5.875h4.306L93.411,82.77z"/>
	<path id="path1102" fill="#1E478E" d="M103.746,95.314V78.201h4.158v13.513h6.625v3.603h-10.783V95.314z"/>
	<path id="path1114" fill="#1E478E" d="M125.382,82.65c-0.354-0.451-0.819-0.812-1.391-1.076c-0.57-0.268-1.124-0.4-1.654-0.4
		c-0.276,0-0.553,0.024-0.834,0.073c-0.282,0.049-0.535,0.142-0.761,0.278c-0.227,0.138-0.416,0.314-0.569,0.531
		c-0.153,0.219-0.229,0.495-0.229,0.836c0,0.287,0.061,0.53,0.182,0.725c0.122,0.193,0.299,0.361,0.531,0.508
		s0.512,0.275,0.834,0.398c0.32,0.119,0.684,0.246,1.088,0.373c0.58,0.194,1.184,0.41,1.813,0.642
		c0.629,0.233,1.2,0.546,1.717,0.933c0.517,0.385,0.943,0.866,1.281,1.437c0.338,0.575,0.506,1.286,0.506,2.14
		c0,0.984-0.18,1.834-0.541,2.551c-0.361,0.719-0.851,1.311-1.465,1.777c-0.611,0.467-1.313,0.813-2.1,1.042
		c-0.791,0.224-1.605,0.336-2.441,0.336c-1.227,0-2.41-0.215-3.555-0.642c-1.145-0.426-2.098-1.035-2.854-1.822l2.709-2.758
		c0.418,0.518,0.969,0.945,1.654,1.293c0.686,0.349,1.364,0.521,2.045,0.521c0.305,0,0.604-0.035,0.895-0.1
		c0.289-0.063,0.543-0.168,0.76-0.313c0.217-0.146,0.393-0.341,0.52-0.58c0.129-0.242,0.193-0.533,0.193-0.871
		c0-0.322-0.082-0.594-0.242-0.82c-0.16-0.229-0.39-0.43-0.688-0.617c-0.299-0.186-0.67-0.354-1.113-0.506
		c-0.441-0.154-0.947-0.318-1.51-0.496c-0.551-0.177-1.084-0.389-1.607-0.629c-0.522-0.243-0.992-0.553-1.404-0.93
		c-0.41-0.381-0.737-0.838-0.989-1.379c-0.25-0.541-0.375-1.195-0.375-1.972c0-0.95,0.192-1.764,0.579-2.438
		c0.387-0.678,0.896-1.234,1.523-1.668c0.629-0.438,1.338-0.754,2.127-0.957c0.789-0.2,1.586-0.301,2.396-0.301
		c0.965,0,1.954,0.176,2.959,0.53c1.008,0.354,1.89,0.88,2.647,1.57L125.382,82.65z"/>
	<path id="path1118" fill="#4598CB" d="M112.294,62.921h-6.479v-6.476h-4.157v6.476h-6.479v4.16h6.479v6.476h4.157v-6.476h6.479
		V62.921z"/>
</g>
</svg>
