<?xml version="1.0" encoding="utf-8"?>
<!-- Generator: Adobe Illustrator 16.0.0, SVG Export Plug-In . SVG Version: 6.00 Build 0)  -->
<!DOCTYPE svg PUBLIC "-//W3C//DTD SVG 1.1//EN" "http://www.w3.org/Graphics/SVG/1.1/DTD/svg11.dtd">
<svg version="1.1" xmlns="http://www.w3.org/2000/svg" xmlns:xlink="http://www.w3.org/1999/xlink" x="0px" y="0px"
	 width="595.276px" height="595.275px" viewBox="0 0 595.276 595.275" enable-background="new 0 0 595.276 595.275"
	 xml:space="preserve">
<g id="Layer_2">
	<rect fill="#EE2529" width="595.276" height="595.275"/>
</g>
<g id="Layer_1">
	<g>
		<path fill-rule="evenodd" clip-rule="evenodd" fill="#FFFFFF" d="M550.026,395.909v3.026h1.212c0.604,0,1.21-0.604,1.21-0.604
			c0.606,0,0.606-0.605,0.606-0.605c0-0.606,0-1.21-0.606-1.21c0,0-0.606-0.606-1.21-0.606H550.026L550.026,395.909z
			 M548.211,395.305h3.026c1.21,0,2.42,0,3.026,0.604c0,0,0.604,0.606,0.604,1.21c0,0.606,0,1.212-0.604,1.816
			c0,0-0.606,0.606-1.21,0.606l1.813,3.63h-1.813l-1.816-3.63h-1.212v3.63h-1.814V395.305L548.211,395.305z M551.238,392.883
			c0.604,0,1.816,0.606,2.42,0.606c0.606,0.604,1.21,0.604,1.816,1.21c0.605,0.605,1.212,1.21,1.212,2.42
			c0.604,0.606,0.604,1.212,0.604,2.423c0,0.604,0,1.21-0.604,1.815c0,1.212-0.606,1.814-1.212,2.422
			c-0.606,0-1.21,0.604-1.816,1.208c-0.604,0-1.816,0-2.42,0c-0.606,0-1.816,0-2.423,0c-0.604-0.604-1.21-1.208-1.815-1.815
			c-0.604-0.603-1.211-1.21-1.211-1.814c-0.604-0.605-0.604-1.212-0.604-2.422c0-0.604,0-1.21,0.604-1.816
			c0-1.21,0.606-1.814,1.211-2.42c0.605-0.606,1.212-0.606,1.815-1.21C549.421,393.489,550.631,392.883,551.238,392.883
			L551.238,392.883z M551.238,392.278c1.21,0,1.816,0,3.026,0.604c0.604,0,1.21,0.606,1.815,1.21
			c1.211,0.606,1.211,1.816,1.818,2.423c0.603,0.604,0.603,1.815,0.603,2.42c0,1.21,0,2.422-0.603,3.026
			c-0.607,0.607-0.607,1.817-1.818,2.422c-0.605,0.604-1.212,1.21-1.815,1.21c-1.21,0.606-1.816,0.606-3.026,0.606
			c-0.606,0-1.816,0-2.423-0.606c-1.21,0-1.815-0.606-2.42-1.21c-0.606-0.604-1.21-1.814-1.816-2.422
			c0-1.21-0.605-1.816-0.605-3.026c0-0.604,0.605-1.816,0.605-2.42c0.606-1.211,1.21-1.816,1.816-2.423
			c0.604-0.604,1.21-1.21,2.42-1.21C549.421,392.278,550.026,392.278,551.238,392.278L551.238,392.278z"/>
		<g>
			<path fill-rule="evenodd" clip-rule="evenodd" fill="#FFFFFF" d="M133.042,346.21h-12.155v45.25h12.155
				c6.285,0,11.731-2.095,15.501-6.282c4.189-4.191,6.703-10.056,6.703-16.339c0-6.285-2.514-11.731-6.703-15.928
				C144.772,348.724,139.326,346.21,133.042,346.21L133.042,346.21z M186.253,330.282h73.327h1.675v1.683v19.691v1.675h-1.675
				h-21.791h-1.67v-1.675v-5.446h-11.735v5.446v8.378v2.52h11.735v-2.52v-1.67h1.67h14.668h1.676v1.67v17.602v1.675h-1.676h-14.668
				h-1.67v-1.675v-2.096h-11.735v15.92h11.735v-5.027v-1.676h1.67h21.791h1.675v1.676v18.853v1.677h-1.675h-73.327h-1.675v-1.677
				v-12.147v-1.678h1.675h12.568v-45.25h-12.568h-1.675v-1.683v-12.563v-1.683H186.253L186.253,330.282z M316.985,346.21h-7.127
				v21.37h7.127c2.928,0,5.441-1.256,7.541-3.351c2.095-1.676,2.934-4.613,2.934-7.542c0-2.938-0.839-5.45-2.934-7.545
				C322.426,347.465,319.913,346.21,316.985,346.21L316.985,346.21z M271.31,330.282h51.96c0.419,0,0.419,0,0.419,0
				c2.095,0,4.188,0.421,6.696,0.421c2.102,0.423,4.195,0.844,6.291,1.682c10.475,2.926,19.271,10.473,19.689,23.884v0.419
				c0,8.799-4.189,15.083-10.474,19.691c-5.865,4.188-13.825,6.284-21.366,6.284h-0.418h-14.25v8.797h12.987h1.681v1.678v12.147
				v1.677h-1.681H271.31h-1.675v-1.677v-12.147v-1.678h1.675h12.987v-45.25H271.31h-1.675v-1.683v-12.563v-1.683H271.31
				L271.31,330.282z M412.516,346.21h-0.426c-5.864,0-11.311,2.514-15.5,6.701c-3.771,4.196-6.285,9.643-6.285,15.928
				c0,6.283,2.515,12.147,6.285,16.339c4.189,4.188,9.636,6.282,15.5,6.282h0.426c5.864,0,11.311-2.095,15.5-6.282
				c3.771-4.191,6.285-10.056,6.285-16.339c0-6.285-2.515-11.731-6.285-15.928C423.827,348.724,418.38,346.21,412.516,346.21
				L412.516,346.21z M410.835,329.027c1.681,0,2.938,0,4.612,0c12.568,0,24.299,2.938,32.685,8.804
				c8.797,5.865,14.662,14.662,15.499,25.979c0,0.419,0,1.257,0,2.096l0,0v0.418c0,3.352-0.419,6.702-1.256,9.636
				c-0.838,3.351-2.096,6.285-3.771,8.797c-7.966,13.827-24.723,22.624-44.414,23.881l0,0c-1.257,0-2.101,0.418-2.938,0.418
				c-13.406,0.419-25.137-2.514-33.936-8.378c-9.216-6.285-15.087-14.664-15.924-26.393c0-0.419,0-0.839,0-1.678l0,0l0,0
				c0-3.769,0.418-7.121,0.837-10.054c0.838-3.353,2.095-6.285,3.771-8.804C373.967,339.507,391.144,330.703,410.835,329.027
				L410.835,329.027z M467.822,330.282h87.989h1.675v1.683v19.691v1.675h-1.675h-19.273h-1.673v-1.675v-5.446h-10.062v45.25h11.734
				h1.678v1.678v12.147v1.677h-1.678h-49.863h-1.677v-1.677v-12.147v-1.678h1.677h12.992v-45.25h-11.318v5.446v1.675h-1.674h-18.853
				h-1.677v-1.675v-19.691v-1.683H467.822L467.822,330.282z M82.344,330.282h63.266c9.635,0,19.277,3.353,26.398,9.643
				c7.123,6.71,12.15,15.926,12.15,28.495c0,12.986-6.284,22.203-15.082,28.905c-8.798,6.284-20.115,9.637-29.75,9.637H82.344
				h-1.676v-1.677v-12.147v-1.678h1.676H95.75v-45.25H82.344h-1.676v-1.683v-12.563v-1.683H82.344L82.344,330.282z"/>
			<path fill-rule="evenodd" clip-rule="evenodd" fill="#FFFFFF" d="M545.731,255.4c0-3.133-1.789-6.703-4.022-9.383
				c-2.678-3.131-6.692-4.911-11.606-4.911c-0.894,0-1.34,0-2.232,0c-4.912,0-8.933,1.78-12.059,4.019
				c-2.68,2.68-4.465,6.25-4.911,10.275H545.731L545.731,255.4z M85.799,194.217L85.799,194.217
				c1.786-0.446,3.123-0.446,4.911-0.446c16.966-0.446,32.152,4.022,44.207,12.507c11.611,8.928,19.647,21.434,20.541,37.959
				c0.446,0.888,0.446,1.78,0.446,3.121c0.446,25.454-13.844,45.099-35.724,55.369c-4.464,1.785-8.929,3.57-13.84,4.909
				c-4.465,0.894-9.826,1.786-14.737,2.233h-0.446c-0.893,0-2.235,0.446-3.125,0.446c-17.419,0.446-33.492-3.572-45.103-12.502
				c-12.055-8.037-20.091-21.43-21.431-38.402c0-0.446,0-1.339,0-2.227c-1.339-25.908,13.394-45.999,35.721-55.817
				c4.019-2.237,8.93-3.576,13.394-4.917C75.527,195.113,80.438,194.667,85.799,194.217L85.799,194.217z M89.372,215.651
				c-2.233,0-4.468,0.447-6.254,0.893c-2.679,0.447-4.911,0.893-7.144,1.787c-2.232,0.893-4.464,2.231-6.697,3.57
				c-9.376,6.705-16.077,17.42-16.077,29.92c0,2.238,0,4.025,0.446,6.252c1.34,7.596,4.468,14.292,9.826,19.204
				c4.912,5.357,11.162,8.93,18.306,10.269c2.232,0,4.467,0.446,6.7,0.446c1.786,0,4.019,0,5.801-0.446
				c2.682-0.446,4.915-1.339,7.15-2.231c2.676-0.893,4.912-2.233,6.694-3.572c9.826-6.25,16.079-17.412,16.079-29.921
				c0-1.785,0-4.017-0.446-5.804c-0.893-7.589-4.468-14.294-9.379-19.651c-5.357-4.911-11.611-8.48-18.755-9.822
				C93.386,216.099,91.603,215.651,89.372,215.651L89.372,215.651z M163.495,226.366h17.862v-11.609
				c0-7.142,3.125-13.834,8.486-19.197c5.358-5.357,13.394-8.933,22.77-8.933h26.345h1.789v1.787v13.398v1.785h-1.789h-12.501
				c-4.465,0-8.483,0.446-11.165,2.231c-2.679,1.341-4.465,4.02-4.465,8.036v12.502h21.88h1.786v1.793v13.387v1.792h-1.786h-21.88
				v48.227h18.755h1.789v1.787v12.946v1.785h-1.789h-66.088h-1.785v-1.785v-12.946v-1.787h1.785h17.862v-48.227h-17.862h-1.785
				v-1.792v-13.387v-1.793H163.495L163.495,226.366z M245.211,226.366h17.416v-11.609c0-7.142,3.122-13.834,8.482-19.197
				c5.805-5.357,13.397-8.933,23.22-8.933h26.349h1.785v1.787v13.398v1.785h-1.785H308.17c-4.462,0-8.482,0.446-11.608,2.231
				c-2.232,1.341-4.019,4.02-4.019,8.036v12.502h21.435h1.785v1.793v13.387v1.792h-1.785h-21.435v48.227h18.755h1.786v1.787v12.946
				v1.785h-1.786h-66.087h-1.789v-1.785v-12.946v-1.787h1.789h17.416v-48.227h-17.416h-1.789v-1.792v-13.387v-1.793H245.211
				L245.211,226.366z M358.186,186.181c4.909,0,9.824,1.787,13.396,4.022c3.572,2.676,5.806,6.696,5.806,10.72
				c0,4.013-2.233,8.033-5.806,10.711c-3.571,2.231-8.486,4.018-13.396,4.018c-5.362,0-9.824-1.787-13.399-4.018
				c-3.567-2.678-5.8-6.698-5.8-10.711c0-4.024,2.232-8.044,5.8-10.72C348.362,187.967,352.824,186.181,358.186,186.181
				L358.186,186.181z M326.479,226.366h45.549h1.785v1.793v63.405h14.735h1.785v1.787v12.946v1.785h-1.785h-62.069h-1.786v-1.785
				v-12.946v-1.787h1.786h17.415v-48.227h-17.415h-1.786v-1.792v-13.387v-1.793H326.479L326.479,226.366z M471.159,228.159v23.662
				v1.792h-1.783h-17.864h-1.785v-1.792v-8.483c-0.896,0-1.343,0-1.789,0c-1.339,0-2.678,0-3.57,0c-3.126,0-6.255,0.453-8.933,1.341
				c-0.443,0-0.89,0-0.89,0.446c-2.232,0.446-4.021,1.787-5.809,2.68c0,0.446-0.446,0.893-0.893,0.893
				c-0.893,0.893-1.339,1.339-2.228,2.231c-0.45,0.446-0.896,1.339-1.343,2.238c-2.68,3.572-4.021,7.591-4.021,12.056
				c0,0.446,0,0.893,0,1.341c0.446,0.893,0.446,1.785,0.446,2.678c0.446,0.893,0.446,1.785,0.895,2.678
				c1.339,4.466,4.022,8.482,8.035,11.608c4.916,3.572,11.612,4.911,18.755,4.911c7.145,0.446,14.738-0.893,20.544-1.785
				l2.231-0.446v1.785v15.182v1.339l-1.337,0.446c-5.361,1.339-9.825,2.231-14.74,3.124c-4.907,0.447-9.822,0.895-15.183,0.895
				c-0.895,0-1.787,0-2.676,0c-3.571,0-6.7-0.447-9.826-0.895c-3.57-0.893-6.698-1.785-9.825-2.678
				c-15.182-5.357-26.346-16.967-26.346-38.842c0,0,0,0,0-0.448l0,0c0-3.126,0.446-6.703,1.339-9.822
				c0.896-3.126,2.236-6.257,4.023-8.935c8.485-13.848,25.005-22.331,42.416-22.777h0.448c1.342,0,2.681,0,4.468,0
				c1.339,0,3.124,0,4.909,0c7.145,0.446,14.292,0.893,20.546,1.785l1.783,0.448V228.159L471.159,228.159z M535.909,290.672
				c1.783,0,3.122,0,4.461,0s3.126,0,4.469,0c8.036-0.448,16.071-1.787,21.881-4.465l2.674-1.339v2.678v15.628v1.339l-1.339,0.446
				c-1.335,0.446-3.12,0.893-4.461,1.339c-1.789,0.446-3.576,0.893-4.915,1.339c-8.933,1.786-18.755,2.68-28.131,2.68
				c-0.893,0-2.231,0-3.124-0.446c-3.573,0-7.147-0.447-10.72-0.893c-3.572-0.895-7.143-1.787-10.268-2.68
				c-16.522-5.804-27.685-16.967-28.131-38.842c0-0.446,0-0.893,0-0.893c0.446-4.021,0.893-8.044,1.785-11.163
				c1.34-3.579,2.676-6.703,4.461-9.829c8.933-14.74,26.349-21.885,45.104-21.885h0.447c3.571,0,7.147,0.448,10.268,0.895
				c3.126,0.446,6.256,1.339,8.93,2.686c14.74,5.35,24.563,17.412,24.563,36.617v6.25v1.785h-63.409c0,1.34,0.446,2.68,0.893,4.02
				c0.446,1.785,0.893,3.124,1.785,4.463C517.152,287.546,525.637,290.224,535.909,290.672L535.909,290.672L535.909,290.672z"/>
		</g>
	</g>
</g>
</svg>
