<svg enable-background="new 0 0 595.276 595.275" height="595.275" viewBox="0 0 595.276 595.275" width="595.276" xmlns="http://www.w3.org/2000/svg"><path d="m0 0h595.276v595.275h-595.276z" fill="#ee2529"/><g clip-rule="evenodd" fill="#fff" fill-rule="evenodd"><path d="m550.026 395.909v3.026h1.212c.604 0 1.21-.604 1.21-.604.606 0 .606-.605.606-.605 0-.606 0-1.21-.606-1.21 0 0-.606-.606-1.21-.606h-1.212zm-1.815-.604h3.026c1.21 0 2.42 0 3.026.604 0 0 .604.606.604 1.21 0 .606 0 1.212-.604 1.816 0 0-.606.606-1.21.606l1.813 3.63h-1.813l-1.816-3.63h-1.212v3.63h-1.814zm3.027-2.422c.604 0 1.816.606 2.42.606.606.604 1.21.604 1.816 1.21.605.605 1.212 1.21 1.212 2.42.604.606.604 1.212.604 2.423 0 .604 0 1.21-.604 1.815 0 1.212-.606 1.814-1.212 2.422-.606 0-1.21.604-1.816 1.208-.604 0-1.816 0-2.42 0-.606 0-1.816 0-2.423 0-.604-.604-1.21-1.208-1.815-1.815-.604-.603-1.211-1.21-1.211-1.814-.604-.605-.604-1.212-.604-2.422 0-.604 0-1.21.604-1.816 0-1.21.606-1.814 1.211-2.42s1.212-.606 1.815-1.21c.606-.001 1.816-.607 2.423-.607zm0-.605c1.21 0 1.816 0 3.026.604.604 0 1.21.606 1.815 1.21 1.211.606 1.211 1.816 1.818 2.423.603.604.603 1.815.603 2.42 0 1.21 0 2.422-.603 3.026-.607.607-.607 1.817-1.818 2.422-.605.604-1.212 1.21-1.815 1.21-1.21.606-1.816.606-3.026.606-.606 0-1.816 0-2.423-.606-1.21 0-1.815-.606-2.42-1.21-.606-.604-1.21-1.814-1.816-2.422 0-1.21-.605-1.816-.605-3.026 0-.604.605-1.816.605-2.42.606-1.211 1.21-1.816 1.816-2.423.604-.604 1.21-1.21 2.42-1.21.606-.604 1.211-.604 2.423-.604z"/><path d="m133.042 346.21h-12.155v45.25h12.155c6.285 0 11.731-2.095 15.501-6.282 4.189-4.191 6.703-10.056 6.703-16.339 0-6.285-2.514-11.731-6.703-15.928-3.771-4.187-9.217-6.701-15.501-6.701zm53.211-15.928h73.327 1.675v1.683 19.691 1.675h-1.675-21.791-1.67v-1.675-5.446h-11.735v5.446 8.378 2.52h11.735v-2.52-1.67h1.67 14.668 1.676v1.67 17.602 1.675h-1.676-14.668-1.67v-1.675-2.096h-11.735v15.92h11.735v-5.027-1.676h1.67 21.791 1.675v1.676 18.853 1.677h-1.675-73.327-1.675v-1.677-12.147-1.678h1.675 12.568v-45.25h-12.568-1.675v-1.683-12.563-1.683zm130.732 15.928h-7.127v21.37h7.127c2.928 0 5.441-1.256 7.541-3.351 2.095-1.676 2.934-4.613 2.934-7.542 0-2.938-.839-5.45-2.934-7.545-2.1-1.677-4.613-2.932-7.541-2.932zm-45.675-15.928h51.96.419c2.095 0 4.188.421 6.696.421 2.102.423 4.195.844 6.291 1.682 10.475 2.926 19.271 10.473 19.689 23.884v.419c0 8.799-4.189 15.083-10.474 19.691-5.865 4.188-13.825 6.284-21.366 6.284h-.418-14.25v8.797h12.987 1.681v1.678 12.147 1.677h-1.681-51.534-1.675v-1.677-12.147-1.678h1.675 12.987v-45.25h-12.987-1.675v-1.683-12.563-1.683h1.675zm141.206 15.928h-.426c-5.864 0-11.311 2.514-15.5 6.701-3.771 4.196-6.285 9.643-6.285 15.928 0 6.283 2.515 12.147 6.285 16.339 4.189 4.188 9.636 6.282 15.5 6.282h.426c5.864 0 11.311-2.095 15.5-6.282 3.771-4.191 6.285-10.056 6.285-16.339 0-6.285-2.515-11.731-6.285-15.928-4.189-4.187-9.636-6.701-15.5-6.701zm-1.681-17.183h4.612c12.568 0 24.299 2.938 32.685 8.804 8.797 5.865 14.662 14.662 15.499 25.979v2.096.418c0 3.352-.419 6.702-1.256 9.636-.838 3.351-2.096 6.285-3.771 8.797-7.966 13.827-24.723 22.624-44.414 23.881-1.257 0-2.101.418-2.938.418-13.406.419-25.137-2.514-33.936-8.378-9.216-6.285-15.087-14.664-15.924-26.393 0-.419 0-.839 0-1.678 0-3.769.418-7.121.837-10.054.838-3.353 2.095-6.285 3.771-8.804 7.967-14.242 25.144-23.046 44.835-24.722zm56.987 1.255h87.989 1.675v1.683 19.691 1.675h-1.675-19.273-1.673v-1.675-5.446h-10.062v45.25h11.734 1.678v1.678 12.147 1.677h-1.678-49.863-1.677v-1.677-12.147-1.678h1.677 12.992v-45.25h-11.318v5.446 1.675h-1.674-18.853-1.677v-1.675-19.691-1.683zm-385.478 0h63.266c9.635 0 19.277 3.353 26.398 9.643 7.123 6.71 12.15 15.926 12.15 28.495 0 12.986-6.284 22.203-15.082 28.905-8.798 6.284-20.115 9.637-29.75 9.637h-56.982-1.676v-1.677-12.147-1.678h1.676 13.406v-45.25h-13.406-1.676v-1.683-12.563-1.683h1.676z"/><path d="m545.731 255.4c0-3.133-1.789-6.703-4.022-9.383-2.678-3.131-6.692-4.911-11.606-4.911-.894 0-1.34 0-2.232 0-4.912 0-8.933 1.78-12.059 4.019-2.68 2.68-4.465 6.25-4.911 10.275zm-459.932-61.183c1.786-.446 3.123-.446 4.911-.446 16.966-.446 32.152 4.022 44.207 12.507 11.611 8.928 19.647 21.434 20.541 37.959.446.888.446 1.78.446 3.121.446 25.454-13.844 45.099-35.724 55.369-4.464 1.785-8.929 3.57-13.84 4.909-4.465.894-9.826 1.786-14.737 2.233h-.446c-.893 0-2.235.446-3.125.446-17.419.446-33.492-3.572-45.103-12.502-12.055-8.037-20.091-21.43-21.431-38.402 0-.446 0-1.339 0-2.227-1.339-25.908 13.394-45.999 35.721-55.817 4.019-2.237 8.93-3.576 13.394-4.917 4.914-1.337 9.825-1.783 15.186-2.233zm3.573 21.434c-2.233 0-4.468.447-6.254.893-2.679.447-4.911.893-7.144 1.787-2.232.893-4.464 2.231-6.697 3.57-9.376 6.705-16.077 17.42-16.077 29.92 0 2.238 0 4.025.446 6.252 1.34 7.596 4.468 14.292 9.826 19.204 4.912 5.357 11.162 8.93 18.306 10.269 2.232 0 4.467.446 6.7.446 1.786 0 4.019 0 5.801-.446 2.682-.446 4.915-1.339 7.15-2.231 2.676-.893 4.912-2.233 6.694-3.572 9.826-6.25 16.079-17.412 16.079-29.921 0-1.785 0-4.017-.446-5.804-.893-7.589-4.468-14.294-9.379-19.651-5.357-4.911-11.611-8.48-18.755-9.822-2.236-.446-4.019-.894-6.25-.894zm74.123 10.715h17.862v-11.609c0-7.142 3.125-13.834 8.486-19.197 5.358-5.357 13.394-8.933 22.77-8.933h26.345 1.789v1.787 13.398 1.785h-1.789-12.501c-4.465 0-8.483.446-11.165 2.231-2.679 1.341-4.465 4.02-4.465 8.036v12.502h21.88 1.786v1.793 13.387 1.792h-1.786-21.88v48.227h18.755 1.789v1.787 12.946 1.785h-1.789-66.088-1.785v-1.785-12.946-1.787h1.785 17.862v-48.227h-17.862-1.785v-1.792-13.387-1.793zm81.716 0h17.416v-11.609c0-7.142 3.122-13.834 8.482-19.197 5.805-5.357 13.397-8.933 23.22-8.933h26.349 1.785v1.787 13.398 1.785h-1.785-12.508c-4.462 0-8.482.446-11.608 2.231-2.232 1.341-4.019 4.02-4.019 8.036v12.502h21.435 1.785v1.793 13.387 1.792h-1.785-21.435v48.227h18.755 1.786v1.787 12.946 1.785h-1.786-66.087-1.789v-1.785-12.946-1.787h1.789 17.416v-48.227h-17.416-1.789v-1.792-13.387-1.793zm112.975-40.185c4.909 0 9.824 1.787 13.396 4.022 3.572 2.676 5.806 6.696 5.806 10.72 0 4.013-2.233 8.033-5.806 10.711-3.571 2.231-8.486 4.018-13.396 4.018-5.362 0-9.824-1.787-13.399-4.018-3.567-2.678-5.8-6.698-5.8-10.711 0-4.024 2.232-8.044 5.8-10.72 3.575-2.236 8.037-4.022 13.399-4.022zm-31.707 40.185h45.549 1.785v1.793 63.405h14.735 1.785v1.787 12.946 1.785h-1.785-62.069-1.786v-1.785-12.946-1.787h1.786 17.415v-48.227h-17.415-1.786v-1.792-13.387-1.793h1.786zm144.68 1.793v23.662 1.792h-1.783-17.864-1.785v-1.792-8.483c-.896 0-1.343 0-1.789 0-1.339 0-2.678 0-3.57 0-3.126 0-6.255.453-8.933 1.341-.443 0-.89 0-.89.446-2.232.446-4.021 1.787-5.809 2.68 0 .446-.446.893-.893.893-.893.893-1.339 1.339-2.228 2.231-.45.446-.896 1.339-1.343 2.238-2.68 3.572-4.021 7.591-4.021 12.056v1.341c.446.893.446 1.785.446 2.678.446.893.446 1.785.895 2.678 1.339 4.466 4.022 8.482 8.035 11.608 4.916 3.572 11.612 4.911 18.755 4.911 7.145.446 14.738-.893 20.544-1.785l2.231-.446v1.785 15.182 1.339l-1.337.446c-5.361 1.339-9.825 2.231-14.74 3.124-4.907.447-9.822.895-15.183.895-.895 0-1.787 0-2.676 0-3.571 0-6.7-.447-9.826-.895-3.57-.893-6.698-1.785-9.825-2.678-15.182-5.357-26.346-16.967-26.346-38.842 0 0 0 0 0-.448 0-3.126.446-6.703 1.339-9.822.896-3.126 2.236-6.257 4.023-8.935 8.485-13.848 25.005-22.331 42.416-22.777h.448 4.468 4.909c7.145.446 14.292.893 20.546 1.785l1.783.448v1.344zm64.75 62.513h4.461s3.126 0 4.469 0c8.036-.448 16.071-1.787 21.881-4.465l2.674-1.339v2.678 15.628 1.339l-1.339.446c-1.335.446-3.12.893-4.461 1.339-1.789.446-3.576.893-4.915 1.339-8.933 1.786-18.755 2.68-28.131 2.68-.893 0-2.231 0-3.124-.446-3.573 0-7.147-.447-10.72-.893-3.572-.895-7.143-1.787-10.268-2.68-16.522-5.804-27.685-16.967-28.131-38.842 0-.446 0-.893 0-.893.446-4.021.893-8.044 1.785-11.163 1.34-3.579 2.676-6.703 4.461-9.829 8.933-14.74 26.349-21.885 45.104-21.885h.447c3.571 0 7.147.448 10.268.895 3.126.446 6.256 1.339 8.93 2.686 14.74 5.35 24.563 17.412 24.563 36.617v6.25 1.785h-63.409c0 1.34.446 2.68.893 4.02.446 1.785.893 3.124 1.785 4.463 4.02 7.144 12.505 9.822 22.777 10.27z"/></g></svg>