<svg enable-background="new 0 0 80 80" height="80" viewBox="0 0 80 80" width="80" xmlns="http://www.w3.org/2000/svg"><path d="m73.517 40.37c-.699-.05-1.398.08-2.119.06-2.201.06-4.431-.3-6.5-1.1-.17-.1-.4-.15-.5-.36-.351-.67-.5-1.4-.67-2.14.83-1.1 1.039-2.5.948-3.83-.149-2.14-.698-4.22-1.299-6.28-.701.92-1.131 2-1.431 3.1-1.041-.43-2.131-.73-3.229-.97-.021.37-.03.73-.03 1.1 1.051.3 2.08.64 3.069 1.1-.118 1.75.201 3.55 1.101 5.08.5.75.551 1.68.801 2.53-2.26-1-4.07-3-4.84-5.33-.601-1.97-.57-4.1-.26-6.12.129-.5.159-1.1.479-1.54.739-.2 1.528-.46 2.299-.28 2.121.33 4.261-.34 6.08-1.4.899-.55 1.801-1.2 2.451-2.06-1.142.04-2.281.17-3.4.3-1.42.18-2.87.45-4.079 1.25-.57.34-1.021.84-1.57 1.2-.521.26-1.121.3-1.68.42.68-1.7 1.819-3.17 3.26-4.28 1.5.32 3-.3 4.25-1.07 1.819-1.1 3.399-2.53 4.979-3.94-2.44-.35-5 .3-6.961 1.8-1.039.76-1.83 1.78-2.521 2.85-1 .77-1.92 1.66-2.699 2.68-.041-.66-.17-1.3-.301-1.94.23-.34.601-.6.701-1.02.17-.8-.22-1.67-.93-2.06-.799-.42-1.939 0-2.199.9-.42 1.16.641 2.6 1.92 2.3.23 1.07.551 2.26.021 3.3-.279.6-.479 1.24-.75 1.85-.199-.34-.521-.66-.5-1.07.021-.98-.24-1.96-.771-2.78-1.131-1.84-3.1-3.04-5.18-3.53.818 1.54 1.58 3.13 2.568 4.58.701 1.02 1.631 2.02 2.92 2.17.5.84.9 1.8.631 2.8-1.029-.16-2.061-.27-3.1-.4.219.35.399.72.66 1.03.778.17 1.569.26 2.35.4-.041 1.25-.021 2.5.301 3.7.119.5.369.97.359 1.5-.73-.3-1.4-.7-2.029-1.16-.602-3.57-2.801-6.58-5.102-9.27-.181 1.15-.17 2.32-.07 3.47-.84-.16-1.729-.2-2.521-.54-.35-.55-.579-1.17-.799-1.8-.121-.23.039-.47.101-.7.528-1.37.299-2.88 0-4.27-.5-1.9-1.24-3.76-2.07-5.55-.029 0-.1-.04-.13-.05-.55 1.25-.97 2.6-.95 3.97-.05 2.18 1 4.2 2.131 5.98.459.65.699 1.4.939 2.15-2.181-.65-3.851-2.46-4.82-4.46-.43-1.1-1.199-2.02-2.16-2.7-1.959-1.45-4.45-2.06-6.87-1.96 1.16 1.26 2.34 2.53 3.77 3.48 1.3.88 2.87 1.23 4.42 1.4.34 0 .58.25.721.54.629 1.22 1.5 2.3 2.561 3.18-.602-.12-1.2-.22-1.721-.58-2.221-1.35-5-1.36-7.45-.7-.83.23-1.72.38-2.43.9 1.56 1.18 3.55 1.8 5.52 1.68 1.56-.06 3.05-.57 4.5-1.08 1.271.14 2.5.48 3.67.98 1.199.5 2.47.76 3.74.97.398 1.78 1.199 3.6 2.729 4.68.619.46 1.4.64 2.119.84.762.4 1.479.88 2.271 1.22.77.32 1.07 1.18 1.6 1.78-.539.04-1.08.1-1.6.17-.68-.93-2.131-.88-2.83-.02-.68.76-.32 2.12.641 2.46 1.199.5 2.771-.63 2.369-1.97.67-.12 1.351-.15 2.021-.03 1.601 1.62 3.701 2.72 5.871 3.38 2.5.721 5.198 1.021 7.799.641.021-.561-.25-1.101-.56-1.549zm-10.181-4.7c-.369-.9-.399-1.9-.469-2.86-.021-1.34-.021-2.72.271-4.04.1 1.7.219 3.4.299 5.1.03.6 0 1.22-.101 1.82zm4.601-12.85c-1.699 1.07-3.681 1.67-5.66 1.96l-.029-.18c1.939-.47 3.771-1.26 5.699-1.78zm-2.84-4.26c1.34-.8 2.78-1.5 4.319-1.86-.699.52-1.549.84-2.299 1.28-1.32.67-2.57 1.46-3.921 2.03.539-.6 1.229-1 1.9-1.44v-.01zm-7.6.86c-.5-.34.102-.78.48-.87.369-.1.698.12 1 .3-.552 0-1.07.18-1.472.57zm-2.539 3.35c-.65-.87-1.42-1.63-2.141-2.43 1.77 1.1 3.301 2.75 4.029 4.73-.729-.68-1.261-1.54-1.9-2.3zm-8.881-1.13c-.34-1.5-.55-3.06-.4-4.6.451 2.38 1.07 4.73 1.352 7.14-.479-.77-.7-1.67-.94-2.54zm-7.86-1.34c-.86-.53-1.74-1-2.55-1.57 2.23.6 4.37 1.73 6.021 3.36-1.241-.44-2.351-1.15-3.48-1.8zm-.94 6.25c-.61-.04-1.23-.1-1.83-.27 2.3-.17 4.64-.2 6.941.1-1.671.36-3.401.3-5.101.17zm15.559 3.38c-.5-1.14-.969-2.3-1.149-3.54.569 1.2 1.102 2.43 1.78 3.58.57 1.05 1.25 2.05 1.681 3.18-1.07-.82-1.73-2.05-2.301-3.23zm3.142 8.4-.302-.3c.4-.62 1.201-.8 1.83-.48-.56.2-1.129.36-1.539.8z" fill="#b2ba21"/><path d="m64.958 31.46c.1.63.16 1.26.18 1.9 1.039 1.05 1.75 2.36 2.439 3.66.48-.02.971-.15 1.4-.36-.801-2.07-2.281-3.84-4.019-5.2zm-37.441 30.94v2.55h.55v-2.57zm18.541 0v1.56c-.4-.521-.802-1.04-1.181-1.56h-.529v2.55h.569v-1.6l1.201 1.602h.5c-.021-.86 0-1.7-.021-2.561h-.539zm7.099 2.55h.551c0-.851-.021-1.7 0-2.54h-.561v2.55zm9.91-1.55h-1.051v-1h-.539v2.539c.18 0 .358 0 .549.021v-1.04h1.051v1.02h.57v-2.54h-.58zm6.789-1v1.5c-.439-.471-.818-1-1.199-1.5h-.5v2.55h.539v-1.62c.4.5.762 1.061 1.201 1.55l.5.12v-2.6zm-40.599.5h.8c0 .68 0 1.358-.02 2.039.14 0 .42 0 .56.021v-2.04c.25 0 .5 0 .75-.04 0-.12.04-.36.05-.479h-2.13v.5h-.01zm3.83-.53-1.1 2.6c.14-.02.45-.03.6-.04.06-.199.12-.369.2-.55h1.05c.15.38.37.7.86.601-.35-.871-.74-1.721-1.1-2.601h-.5zm-.1 1.5.33-.8.36.8h-.7zm3.38-1.47h-.55v2.55h1.84v-.5h-1.3v-2.05zm2.45 0v2.55h.57v-2.55h-.58zm2.801-.02c-.371.86-.721 1.72-1.101 2.57h.601l.199-.57h1.1l.222.56h.6c-.38-.84-.74-1.698-1.1-2.568h-.521zm-.1 1.5.34-.8.37.8h-.7zm10.499-1.51c-.83-.17-1.199.67-1.72 1.13v-1.1h-.569c0 .85 0 1.699.02 2.539h.561c0-.399-.02-.799.271-1.119l.819 1.13h.67c-.35-.5-.719-1-1.1-1.479.369-.361.729-.721 1.07-1.101zm4.941.04c-.682-.03-1.371 0-2.061 0v.5h.778v2.04h.562v-2.03h.84l-.119-.48zm1.559 1.43c-.17-.84.86-1.26 1.45-.72l.341-.4c-.5-.38-1.24-.53-1.802-.159-.75.471-.76 1.699-.021 2.199.57.4 1.341.23 1.841-.199l-.359-.36c-.48.399-1.3.349-1.45-.361zm8.4-1.44h-1.95v2.539h1.95v-.5h-1.4l.021-.539h1.199v-.5c-.4 0-.801 0-1.199.02v-.529h1.33l.059-.5z" fill="#b2ba21"/><g fill="#fff"><path d="m29.297 40.24c1.24.369 2.6-.1 3.48-1-.2-.58-.43-1.16-.68-1.72-.45.4-.86.92-1.48 1.08-.56.17-1.22-.02-1.56-.5-.48-.67-.56-1.53-.58-2.33-.02-1.55 0-3.1-.02-4.64-.56-.02-1.13-.02-1.7 0 .03 1.95-.1 3.92.1 5.87-.8 1.1-2.15 1.88-3.53 1.6-.57-.1-.93-.6-1.23-1.05 1.62-2.42 2.7-5.26 2.8-8.2.03-1.22-.15-2.6-1.1-3.48-.74-.75-2.05-.7-2.8.04-.85.85-1.02 2.14-1.08 3.3 0 2-.02 4.03 0 6.05.08 1.47.35 3.07 1.43 4.16.98 1 2.5 1.13 3.8.8.9-.2 1.65-.729 2.34-1.32.45.62 1.05 1.18 1.8 1.36zm-7.68-10.7c0-.9.07-1.94.78-2.6.85.63.8 1.8.77 2.76-.16 2-.64 3.97-1.54 5.75v-5.9zm-4.73 9.22c1.44-1.53 2-3.7 1.94-5.77-.03-2-.5-4.12-1.85-5.66-1-1.17-2.57-1.8-4.1-1.68-1.2.03-2.43.7-2.92 1.84-.6 1.28-.2 3 1 3.76 1.23.8 2.85.54 4.08-.1l-.6-1.53c-.77.26-1.64.63-2.42.25-.9-.46-.77-1.9.12-2.3 1.2-.55 2.7-.07 3.54.9 1 1.15 1.36 2.7 1.46 4.18.1 1.67-.22 3.5-1.36 4.78-1.7 1.96-5.12 1.96-6.77-.05-1.9-2.34-1.75-5.97.07-8.3-.2-.6-.44-1.17-.7-1.73-1.93 1.79-2.69 4.55-2.41 7.05.18 1.78.93 3.55 2.3 4.73 2.38 2.101 6.43 1.96 8.6-.37z"/><path d="m28.587 28.85c.2-.8-.8-1.47-1.48-1.02-.58.3-.65 1.2-.14 1.6.54.5 1.52.15 1.6-.58zm7.13 11.4c1.52-1.94 2.87-4.15 3.14-6.65.4.37.83.74 1.26 1.1-.15 1.32 0 2.74.78 3.85.85 1.3 2.46 1.92 3.979 1.8 1.449-.03 2.799-.7 3.83-1.7-.222-.57-.451-1.14-.701-1.7-.639.55-1.219 1.2-2.039 1.47-1.069.37-2.42.38-3.301-.45-.64-.58-.869-1.479-.93-2.33 1.58.67 3.57.82 4.971-.3 1.219-.96 1.299-2.96.219-4.03-1.059-1.03-2.778-1.16-4.1-.58-1.02.43-1.74 1.33-2.24 2.3-.799-.68-1.479-1.46-2.149-2.26-.55-.02-1.1.3-1.63.45.94 2.45-.2 5.06-1.64 7.05-.86-2.45-1.83-4.86-3.07-7.15-.64 0-1.27 0-1.9.05 1.57 2.9 2.9 5.93 3.85 9.1h1.65zm8.301-8.1c.648-.13 1.47-.04 1.851.57.299.5.039 1.2-.5 1.45-1.041.54-2.261.23-3.281-.2.32-.86 1-1.67 1.94-1.83zm-20.861 15.25c-.04 1-.17 2-.6 2.898-.52 1.25-1.54 2.32-2.86 2.721-1.35.399-2.94.25-4.07-.641-.9-.699-1.43-1.8-1.62-2.92-.27-1.779.02-3.729 1.15-5.2 1.2-1.6 3.53-2.229 5.35-1.399.96.399 1.43 1.631 1 2.601-.2.56-.73.87-1.14 1.261.14.521.38 1 .58 1.521 1.45-.562 2.5-2.062 2.42-3.632.02-1.448-.95-2.818-2.28-3.368-2.68-1.12-6.1-.101-7.62 2.399-1.13 1.779-1.47 3.979-1.17 6.039.23 1.42.86 2.801 1.93 3.801 1.6 1.459 4.02 1.819 6.04 1.141 1.18-.4 2.13-1.262 2.87-2.24-.02 1.4.16 2.86-.4 4.17-.25.631-.85 1.12-1.55 1.141-.7.101-1.3-.279-1.87-.629l-.65 1.6c1.4 1 3.5 1.02 4.78-.16 1.13-1.061 1.38-2.7 1.42-4.18 0-2.301.02-4.602 0-6.9h-1.68zm49.49 5.03c-.439.471-1.16.82-1.771.5-.621-.5-.451-1.398-.479-2.1-.051-1.4.221-2.92-.5-4.2-.621-1.1-2-1.5-3.181-1.36-.8.08-1.521.521-2.149 1.021v-.931c-.562-.021-1.131-.021-1.699 0v3.561c0 .4.039.83-.16 1.2-.66 1.35-1.852 2.54-3.359 2.83-.951.18-2.07.1-2.801-.601-.521-.479-.699-1.199-.852-1.859 1.451.47 3.201.699 4.541-.221 1.4-.899 1.66-3.141.4-4.3-1.561-1.479-4.302-.97-5.58.66-1.24 1.55-1.351 3.771-.65 5.57-.4.399-.92.96-1.551.7-.66-.36-.729-1.221-.779-1.9-.029-3.4 0-6.83-.02-10.26h-1.681c-.021 1.77 0 3.529 0 5.3-.972-.74-2.222-1.14-3.42-.84-1.531.26-2.67 1.6-3 3.069-.399 1.7-.271 3.66.83 5.08.969 1.271 2.799 1.699 4.278 1.199.74-.25 1.33-.8 1.851-1.35.399.648.972 1.3 1.76 1.43 1.041.24 2-.37 2.74-1.05 1.301 1.2 3.271 1.45 4.899.88 1.031-.352 1.851-1.102 2.562-1.898v1.979h1.681c.049-1.398 0-2.8.02-4.229.029-1.121.5-2.28 1.43-2.961.561-.431 1.361-.521 2-.199.4.199.602.67.641 1.1.121 1.38-.069 2.78.101 4.15.131 1.1.979 2.18 2.149 2.3 1.181.239 2.351-.36 3.142-1.22-.24-.521-.42-1.051-.67-1.562-.33-.021-.5.351-.74.5zm-15.529-5.33c.719-.34 1.699-.449 2.328.102.57.47.342 1.47-.318 1.76-1.041.521-2.271.16-3.271-.3.301-.601.649-1.24 1.281-1.552zm-7.701 5.3c-.869.92-2.561.858-3.299-.182-.65-.92-.74-2.119-.57-3.199.149-.859.619-1.771 1.5-2.069.729-.25 1.619-.15 2.199.37.721.6 1 1.57 1 2.47.051.92-.17 1.92-.84 2.601z"/><path d="m45.417 55.84c-1.14-.43-2-1.449-2.379-2.6-.67-1.881-.301-3.9-.451-5.85-.06-.74-.5-1.432-1.198-1.722-.921-.43-1.971-.062-2.921-.37-.45-.1-.72-.5-1-.85-.52.158-1.04.318-1.56.5.56 1.96.72 4.029.5 6.06-.1.642-.2 1.32-.62 1.802-.3.34-.86.299-1.14-.03-.5-.58-.5-1.4-.56-2.12v-5.301c-.55 0-1.1-.029-1.63 0-.04.201-.08.399-.1.621-1.38-1.102-3.5-1.16-4.9-.08-1.08.82-1.57 2.22-1.65 3.55-.08 1.42.2 2.97 1.17 4.069.97 1.121 2.64 1.479 4.04 1.051.78-.24 1.4-.801 1.92-1.37.3.42.58.87 1.03 1.149.95.649 2.4.5 3.14-.399.73-.86.93-2.021 1.05-3.12.1-1.3.06-2.6-.1-3.87.7.17 1.44.229 2.16.2.26 0 .661.05.661.38.101 1.819-.131 3.681.3 5.47.36 1.54 1.2 3 2.54 3.87 1.619 1.101 3.72 1.2 5.57.75-.052-.569-.36-1.069-.57-1.6-1.1.18-2.25.229-3.301-.181zm-13.83-3.6c-.8 1.1-2.68 1.08-3.46-.051-.63-.959-.7-2.199-.5-3.299.16-.802.62-1.642 1.43-1.94.94-.36 2.1-.04 2.65.819.86 1.301.85 3.2-.1 4.45z"/></g></svg>