<?xml version="1.0" encoding="utf-8"?>
<!-- Generator: Adobe Illustrator 16.0.0, SVG Export Plug-In . SVG Version: 6.00 Build 0)  -->
<!DOCTYPE svg PUBLIC "-//W3C//DTD SVG 1.1//EN" "http://www.w3.org/Graphics/SVG/1.1/DTD/svg11.dtd">
<svg version="1.1" id="Layer_1" xmlns="http://www.w3.org/2000/svg" xmlns:xlink="http://www.w3.org/1999/xlink" x="0px" y="0px"
	 width="80px" height="80px" viewBox="0 0 80 80" enable-background="new 0 0 80 80" xml:space="preserve">
<g>
	<path fill="#B2BA21" d="M73.517,40.37c-0.699-0.05-1.398,0.08-2.119,0.06c-2.201,0.06-4.431-0.3-6.5-1.1
		c-0.17-0.1-0.4-0.15-0.5-0.36c-0.351-0.67-0.5-1.4-0.67-2.14c0.83-1.1,1.039-2.5,0.948-3.83c-0.149-2.14-0.698-4.22-1.299-6.28
		c-0.701,0.92-1.131,2-1.431,3.1c-1.041-0.43-2.131-0.73-3.229-0.97c-0.021,0.37-0.03,0.73-0.03,1.1c1.051,0.3,2.08,0.64,3.069,1.1
		c-0.118,1.75,0.201,3.55,1.101,5.08c0.5,0.75,0.551,1.68,0.801,2.53c-2.26-1-4.07-3-4.84-5.33c-0.601-1.97-0.57-4.1-0.26-6.12
		c0.129-0.5,0.159-1.1,0.479-1.54c0.739-0.2,1.528-0.46,2.299-0.28c2.121,0.33,4.261-0.34,6.08-1.4c0.899-0.55,1.801-1.2,2.451-2.06
		c-1.142,0.04-2.281,0.17-3.4,0.3c-1.42,0.18-2.87,0.45-4.079,1.25c-0.57,0.34-1.021,0.84-1.57,1.2c-0.521,0.26-1.121,0.3-1.68,0.42
		c0.68-1.7,1.819-3.17,3.26-4.28c1.5,0.32,3-0.3,4.25-1.07c1.819-1.1,3.399-2.53,4.979-3.94c-2.44-0.35-5,0.3-6.961,1.8
		c-1.039,0.76-1.83,1.78-2.521,2.85c-1,0.77-1.92,1.66-2.699,2.68c-0.041-0.66-0.17-1.3-0.301-1.94c0.23-0.34,0.601-0.6,0.701-1.02
		c0.17-0.8-0.22-1.67-0.93-2.06c-0.799-0.42-1.939,0-2.199,0.9c-0.42,1.16,0.641,2.6,1.92,2.3c0.23,1.07,0.551,2.26,0.021,3.3
		c-0.279,0.6-0.479,1.24-0.75,1.85c-0.199-0.34-0.521-0.66-0.5-1.07c0.021-0.98-0.24-1.96-0.771-2.78
		c-1.131-1.84-3.1-3.04-5.18-3.53c0.818,1.54,1.58,3.13,2.568,4.58c0.701,1.02,1.631,2.02,2.92,2.17c0.5,0.84,0.9,1.8,0.631,2.8
		c-1.029-0.16-2.061-0.27-3.1-0.4c0.219,0.35,0.399,0.72,0.66,1.03c0.778,0.17,1.569,0.26,2.35,0.4c-0.041,1.25-0.021,2.5,0.301,3.7
		c0.119,0.5,0.369,0.97,0.359,1.5c-0.73-0.3-1.4-0.7-2.029-1.16c-0.602-3.57-2.801-6.58-5.102-9.27c-0.181,1.15-0.17,2.32-0.07,3.47
		c-0.84-0.16-1.729-0.2-2.521-0.54c-0.35-0.55-0.579-1.17-0.799-1.8c-0.121-0.23,0.039-0.47,0.101-0.7c0.528-1.37,0.299-2.88,0-4.27
		c-0.5-1.9-1.24-3.76-2.07-5.55c-0.029,0-0.1-0.04-0.13-0.05c-0.55,1.25-0.97,2.6-0.95,3.97c-0.05,2.18,1,4.2,2.131,5.98
		c0.459,0.65,0.699,1.4,0.939,2.15c-2.181-0.65-3.851-2.46-4.82-4.46c-0.43-1.1-1.199-2.02-2.16-2.7
		c-1.959-1.45-4.45-2.06-6.87-1.96c1.16,1.26,2.34,2.53,3.77,3.48c1.3,0.88,2.87,1.23,4.42,1.4c0.34,0,0.58,0.25,0.721,0.54
		c0.629,1.22,1.5,2.3,2.561,3.18c-0.602-0.12-1.2-0.22-1.721-0.58c-2.221-1.35-5-1.36-7.45-0.7c-0.83,0.23-1.72,0.38-2.43,0.9
		c1.56,1.18,3.55,1.8,5.52,1.68c1.56-0.06,3.05-0.57,4.5-1.08c1.271,0.14,2.5,0.48,3.67,0.98c1.199,0.5,2.47,0.76,3.74,0.97
		c0.398,1.78,1.199,3.6,2.729,4.68c0.619,0.46,1.4,0.64,2.119,0.84c0.762,0.4,1.479,0.88,2.271,1.22c0.77,0.32,1.07,1.18,1.6,1.78
		c-0.539,0.04-1.08,0.1-1.6,0.17c-0.68-0.93-2.131-0.88-2.83-0.02c-0.68,0.76-0.32,2.12,0.641,2.46c1.199,0.5,2.771-0.63,2.369-1.97
		c0.67-0.12,1.351-0.15,2.021-0.03c1.601,1.62,3.701,2.72,5.871,3.38c2.5,0.721,5.198,1.021,7.799,0.641
		c0.021-0.561-0.25-1.101-0.56-1.549L73.517,40.37z M63.336,35.67c-0.369-0.9-0.399-1.9-0.469-2.86
		c-0.021-1.34-0.021-2.72,0.271-4.04c0.1,1.7,0.219,3.4,0.299,5.1c0.03,0.6,0,1.22-0.101,1.82V35.67z M67.937,22.82
		c-1.699,1.07-3.681,1.67-5.66,1.96l-0.029-0.18c1.939-0.47,3.771-1.26,5.699-1.78H67.937z M65.097,18.56
		c1.34-0.8,2.78-1.5,4.319-1.86c-0.699,0.52-1.549,0.84-2.299,1.28c-1.32,0.67-2.57,1.46-3.921,2.03c0.539-0.6,1.229-1,1.9-1.44
		V18.56L65.097,18.56z M57.497,19.42c-0.5-0.34,0.102-0.78,0.48-0.87c0.369-0.1,0.698,0.12,1,0.3c-0.552,0-1.07,0.18-1.472,0.57
		H57.497z M54.958,22.77c-0.65-0.87-1.42-1.63-2.141-2.43c1.77,1.1,3.301,2.75,4.029,4.73c-0.729-0.68-1.261-1.54-1.9-2.3H54.958z
		 M46.077,21.64c-0.34-1.5-0.55-3.06-0.4-4.6c0.451,2.38,1.07,4.73,1.352,7.14c-0.479-0.77-0.7-1.67-0.94-2.54H46.077z M38.217,20.3
		c-0.86-0.53-1.74-1-2.55-1.57c2.23,0.6,4.37,1.73,6.021,3.36c-1.241-0.44-2.351-1.15-3.48-1.8L38.217,20.3z M37.277,26.55
		c-0.61-0.04-1.23-0.1-1.83-0.27c2.3-0.17,4.64-0.2,6.941,0.1c-1.671,0.36-3.401,0.3-5.101,0.17H37.277z M52.836,29.93
		c-0.5-1.14-0.969-2.3-1.149-3.54c0.569,1.2,1.102,2.43,1.78,3.58c0.57,1.05,1.25,2.05,1.681,3.18c-1.07-0.82-1.73-2.05-2.301-3.23
		L52.836,29.93z M55.978,38.33l-0.302-0.3c0.4-0.62,1.201-0.8,1.83-0.48c-0.56,0.2-1.129,0.36-1.539,0.8L55.978,38.33z"/>
	<path fill="#B2BA21" d="M64.958,31.46c0.1,0.63,0.16,1.26,0.18,1.9c1.039,1.05,1.75,2.36,2.439,3.66c0.48-0.02,0.971-0.15,1.4-0.36
		C68.176,34.59,66.696,32.82,64.958,31.46z M27.517,62.4v2.55h0.55v-2.57L27.517,62.4z M46.058,62.4v1.56
		c-0.4-0.521-0.802-1.04-1.181-1.56h-0.529v2.55h0.569V63.35l1.201,1.602h0.5c-0.021-0.86,0-1.7-0.021-2.561h-0.539V62.4z
		 M53.157,64.95h0.551c0-0.851-0.021-1.7,0-2.54h-0.561v2.55L53.157,64.95z M63.067,63.4h-1.051v-1h-0.539v2.539
		c0.18,0,0.358,0,0.549,0.021v-1.04h1.051v1.02h0.57V62.4h-0.58V63.4z M69.856,62.4v1.5c-0.439-0.471-0.818-1-1.199-1.5h-0.5v2.55
		h0.539v-1.62c0.4,0.5,0.762,1.061,1.201,1.55l0.5,0.12v-2.6H69.856z M29.257,62.9h0.8c0,0.68,0,1.358-0.02,2.039
		c0.14,0,0.42,0,0.56,0.021v-2.04c0.25,0,0.5,0,0.75-0.04c0-0.12,0.04-0.36,0.05-0.479h-2.13v0.5H29.257L29.257,62.9z M33.087,62.37
		l-1.1,2.6c0.14-0.02,0.45-0.03,0.6-0.04c0.06-0.199,0.12-0.369,0.2-0.55h1.05c0.15,0.38,0.37,0.7,0.86,0.601
		c-0.35-0.871-0.74-1.721-1.1-2.601h-0.5L33.087,62.37z M32.987,63.87l0.33-0.8l0.36,0.8h-0.7H32.987z M36.367,62.4h-0.55v2.55h1.84
		v-0.5h-1.3V62.4H36.367z M38.817,62.4v2.55h0.57V62.4h-0.58H38.817z M41.618,62.38c-0.371,0.86-0.721,1.72-1.101,2.57h0.601
		l0.199-0.57h1.1l0.222,0.56h0.6c-0.38-0.84-0.74-1.698-1.1-2.568h-0.521V62.38z M41.518,63.88l0.34-0.8l0.37,0.8h-0.7H41.518z
		 M52.017,62.37c-0.83-0.17-1.199,0.67-1.72,1.13v-1.1h-0.569c0,0.85,0,1.699,0.02,2.539h0.561c0-0.399-0.02-0.799,0.271-1.119
		l0.819,1.13h0.67c-0.35-0.5-0.719-1-1.1-1.479c0.369-0.361,0.729-0.721,1.07-1.101H52.017z M56.958,62.41
		c-0.682-0.03-1.371,0-2.061,0v0.5h0.778v2.04h0.562v-2.03h0.84l-0.119-0.48V62.41z M58.517,63.84c-0.17-0.84,0.86-1.26,1.45-0.72
		l0.341-0.4c-0.5-0.38-1.24-0.53-1.802-0.159c-0.75,0.471-0.76,1.699-0.021,2.199c0.57,0.4,1.341,0.23,1.841-0.199l-0.359-0.36
		C59.487,64.6,58.667,64.55,58.517,63.84z M66.917,62.4h-1.95v2.539h1.95v-0.5h-1.4l0.021-0.539h1.199v-0.5
		c-0.4,0-0.801,0-1.199,0.02v-0.529h1.33l0.059-0.5L66.917,62.4z"/>
	<path fill="#FFFFFF" d="M29.297,40.24c1.24,0.369,2.6-0.1,3.48-1c-0.2-0.58-0.43-1.16-0.68-1.72c-0.45,0.4-0.86,0.92-1.48,1.08
		c-0.56,0.17-1.22-0.02-1.56-0.5c-0.48-0.67-0.56-1.53-0.58-2.33c-0.02-1.55,0-3.1-0.02-4.64c-0.56-0.02-1.13-0.02-1.7,0
		c0.03,1.95-0.1,3.92,0.1,5.87c-0.8,1.1-2.15,1.88-3.53,1.6c-0.57-0.1-0.93-0.6-1.23-1.05c1.62-2.42,2.7-5.26,2.8-8.2
		c0.03-1.22-0.15-2.6-1.1-3.48c-0.74-0.75-2.05-0.7-2.8,0.04c-0.85,0.85-1.02,2.14-1.08,3.3c0,2-0.02,4.03,0,6.05
		c0.08,1.47,0.35,3.07,1.43,4.16c0.98,1,2.5,1.13,3.8,0.8c0.9-0.2,1.65-0.729,2.34-1.32c0.45,0.62,1.05,1.18,1.8,1.36L29.297,40.24z
		 M21.617,29.54c0-0.9,0.07-1.94,0.78-2.6c0.85,0.63,0.8,1.8,0.77,2.76c-0.16,2-0.64,3.97-1.54,5.75v-5.9L21.617,29.54z
		 M16.887,38.76c1.44-1.53,2-3.7,1.94-5.77c-0.03-2-0.5-4.12-1.85-5.66c-1-1.17-2.57-1.8-4.1-1.68c-1.2,0.03-2.43,0.7-2.92,1.84
		c-0.6,1.28-0.2,3,1,3.76c1.23,0.8,2.85,0.54,4.08-0.1l-0.6-1.53c-0.77,0.26-1.64,0.63-2.42,0.25c-0.9-0.46-0.77-1.9,0.12-2.3
		c1.2-0.55,2.7-0.07,3.54,0.9c1,1.15,1.36,2.7,1.46,4.18c0.1,1.67-0.22,3.5-1.36,4.78c-1.7,1.96-5.12,1.96-6.77-0.05
		c-1.9-2.34-1.75-5.97,0.07-8.3c-0.2-0.6-0.44-1.17-0.7-1.73c-1.93,1.79-2.69,4.55-2.41,7.05c0.18,1.78,0.93,3.55,2.3,4.73
		c2.38,2.101,6.43,1.96,8.6-0.37H16.887z"/>
	<path fill="#FFFFFF" d="M28.587,28.85c0.2-0.8-0.8-1.47-1.48-1.02c-0.58,0.3-0.65,1.2-0.14,1.6c0.54,0.5,1.52,0.15,1.6-0.58H28.587
		z M35.717,40.25c1.52-1.94,2.87-4.15,3.14-6.65c0.4,0.37,0.83,0.74,1.26,1.1c-0.15,1.32,0,2.74,0.78,3.85
		c0.85,1.3,2.46,1.92,3.979,1.8c1.449-0.03,2.799-0.7,3.83-1.7c-0.222-0.57-0.451-1.14-0.701-1.7c-0.639,0.55-1.219,1.2-2.039,1.47
		c-1.069,0.37-2.42,0.38-3.301-0.45c-0.64-0.58-0.869-1.479-0.93-2.33c1.58,0.67,3.57,0.82,4.971-0.3
		c1.219-0.96,1.299-2.96,0.219-4.03c-1.059-1.03-2.778-1.16-4.1-0.58c-1.02,0.43-1.74,1.33-2.24,2.3
		c-0.799-0.68-1.479-1.46-2.149-2.26c-0.55-0.02-1.1,0.3-1.63,0.45c0.94,2.45-0.2,5.06-1.64,7.05c-0.86-2.45-1.83-4.86-3.07-7.15
		c-0.64,0-1.27,0-1.9,0.05c1.57,2.9,2.9,5.93,3.85,9.1h1.65L35.717,40.25z M44.018,32.15c0.648-0.13,1.47-0.04,1.851,0.57
		c0.299,0.5,0.039,1.2-0.5,1.45c-1.041,0.54-2.261,0.23-3.281-0.2c0.32-0.86,1-1.67,1.94-1.83L44.018,32.15z M23.157,47.4
		c-0.04,1-0.17,2-0.6,2.898c-0.52,1.25-1.54,2.32-2.86,2.721c-1.35,0.399-2.94,0.25-4.07-0.641c-0.9-0.699-1.43-1.8-1.62-2.92
		c-0.27-1.779,0.02-3.729,1.15-5.2c1.2-1.6,3.53-2.229,5.35-1.399c0.96,0.399,1.43,1.631,1,2.601c-0.2,0.56-0.73,0.87-1.14,1.261
		c0.14,0.521,0.38,1,0.58,1.521c1.45-0.562,2.5-2.062,2.42-3.632c0.02-1.448-0.95-2.818-2.28-3.368c-2.68-1.12-6.1-0.101-7.62,2.399
		c-1.13,1.779-1.47,3.979-1.17,6.039c0.23,1.42,0.86,2.801,1.93,3.801c1.6,1.459,4.02,1.819,6.04,1.141
		c1.18-0.4,2.13-1.262,2.87-2.24c-0.02,1.4,0.16,2.86-0.4,4.17c-0.25,0.631-0.85,1.12-1.55,1.141c-0.7,0.101-1.3-0.279-1.87-0.629
		l-0.65,1.6c1.4,1,3.5,1.02,4.78-0.16c1.13-1.061,1.38-2.7,1.42-4.18c0-2.301,0.02-4.602,0-6.9h-1.68L23.157,47.4z M72.647,52.43
		c-0.439,0.471-1.16,0.82-1.771,0.5c-0.621-0.5-0.451-1.398-0.479-2.1c-0.051-1.4,0.221-2.92-0.5-4.2c-0.621-1.1-2-1.5-3.181-1.36
		c-0.8,0.08-1.521,0.521-2.149,1.021v-0.931c-0.562-0.021-1.131-0.021-1.699,0v3.561c0,0.4,0.039,0.83-0.16,1.2
		c-0.66,1.35-1.852,2.54-3.359,2.83c-0.951,0.18-2.07,0.1-2.801-0.601c-0.521-0.479-0.699-1.199-0.852-1.859
		c1.451,0.47,3.201,0.699,4.541-0.221c1.4-0.899,1.66-3.141,0.4-4.3c-1.561-1.479-4.302-0.97-5.58,0.66
		c-1.24,1.55-1.351,3.771-0.65,5.57c-0.4,0.399-0.92,0.96-1.551,0.7c-0.66-0.36-0.729-1.221-0.779-1.9c-0.029-3.4,0-6.83-0.02-10.26
		h-1.681c-0.021,1.77,0,3.529,0,5.3c-0.972-0.74-2.222-1.14-3.42-0.84c-1.531,0.26-2.67,1.6-3,3.069
		c-0.399,1.7-0.271,3.66,0.83,5.08c0.969,1.271,2.799,1.699,4.278,1.199c0.74-0.25,1.33-0.8,1.851-1.35
		c0.399,0.648,0.972,1.3,1.76,1.43c1.041,0.24,2-0.37,2.74-1.05c1.301,1.2,3.271,1.45,4.899,0.88
		c1.031-0.352,1.851-1.102,2.562-1.898v1.979h1.681c0.049-1.398,0-2.8,0.02-4.229c0.029-1.121,0.5-2.28,1.43-2.961
		c0.561-0.431,1.361-0.521,2-0.199c0.4,0.199,0.602,0.67,0.641,1.1c0.121,1.38-0.069,2.78,0.101,4.15
		c0.131,1.1,0.979,2.18,2.149,2.3c1.181,0.239,2.351-0.36,3.142-1.22c-0.24-0.521-0.42-1.051-0.67-1.562
		c-0.33-0.021-0.5,0.351-0.74,0.5L72.647,52.43z M57.118,47.1c0.719-0.34,1.699-0.449,2.328,0.102c0.57,0.47,0.342,1.47-0.318,1.76
		c-1.041,0.521-2.271,0.16-3.271-0.3c0.301-0.601,0.649-1.24,1.281-1.552L57.118,47.1z M49.417,52.4
		c-0.869,0.92-2.561,0.858-3.299-0.182c-0.65-0.92-0.74-2.119-0.57-3.199c0.149-0.859,0.619-1.771,1.5-2.069
		c0.729-0.25,1.619-0.15,2.199,0.37c0.721,0.6,1,1.57,1,2.47c0.051,0.92-0.17,1.92-0.84,2.601L49.417,52.4z"/>
	<path fill="#FFFFFF" d="M45.417,55.84c-1.14-0.43-2-1.449-2.379-2.6c-0.67-1.881-0.301-3.9-0.451-5.85
		c-0.06-0.74-0.5-1.432-1.198-1.722c-0.921-0.43-1.971-0.062-2.921-0.37c-0.45-0.1-0.72-0.5-1-0.85c-0.52,0.158-1.04,0.318-1.56,0.5
		c0.56,1.96,0.72,4.029,0.5,6.06c-0.1,0.642-0.2,1.32-0.62,1.802c-0.3,0.34-0.86,0.299-1.14-0.03c-0.5-0.58-0.5-1.4-0.56-2.12
		v-5.301c-0.55,0-1.1-0.029-1.63,0c-0.04,0.201-0.08,0.399-0.1,0.621c-1.38-1.102-3.5-1.16-4.9-0.08c-1.08,0.82-1.57,2.22-1.65,3.55
		c-0.08,1.42,0.2,2.97,1.17,4.069c0.97,1.121,2.64,1.479,4.04,1.051c0.78-0.24,1.4-0.801,1.92-1.37c0.3,0.42,0.58,0.87,1.03,1.149
		c0.95,0.649,2.4,0.5,3.14-0.399c0.73-0.86,0.93-2.021,1.05-3.12c0.1-1.3,0.06-2.6-0.1-3.87c0.7,0.17,1.44,0.229,2.16,0.2
		c0.26,0,0.661,0.05,0.661,0.38c0.101,1.819-0.131,3.681,0.3,5.47c0.36,1.54,1.2,3,2.54,3.87c1.619,1.101,3.72,1.2,5.57,0.75
		c-0.052-0.569-0.36-1.069-0.57-1.6c-1.1,0.18-2.25,0.229-3.301-0.181L45.417,55.84L45.417,55.84z M31.587,52.24
		c-0.8,1.1-2.68,1.08-3.46-0.051c-0.63-0.959-0.7-2.199-0.5-3.299c0.16-0.802,0.62-1.642,1.43-1.94c0.94-0.36,2.1-0.04,2.65,0.819
		c0.86,1.301,0.85,3.2-0.1,4.45L31.587,52.24z"/>
</g>
</svg>
