<?xml version="1.0" encoding="utf-8"?>
<!-- Generator: Adobe Illustrator 16.0.0, SVG Export Plug-In . SVG Version: 6.00 Build 0)  -->
<!DOCTYPE svg PUBLIC "-//W3C//DTD SVG 1.1//EN" "http://www.w3.org/Graphics/SVG/1.1/DTD/svg11.dtd">
<svg version="1.1" id="Layer_1" xmlns="http://www.w3.org/2000/svg" xmlns:xlink="http://www.w3.org/1999/xlink" x="0px" y="0px"
	 width="400px" height="400px" viewBox="0 0 400 400" enable-background="new 0 0 400 400" xml:space="preserve">
<g>
	<path fill-rule="evenodd" clip-rule="evenodd" fill="#F9FCFD" d="M294.539,163.554c0.439,16.17-2,31.908-8.27,46.847
		c-10.169,24.227-27.815,40.829-52.637,49.358c-24.895,8.555-49.838,8.071-74.2-2.068c-22.169-9.228-37.981-25.244-46.126-47.861
		c-11.249-31.235-10.713-62.654,3.088-92.921c13.872-30.419,39.111-46.254,71.648-50.835c16.38-2.307,32.626-0.848,48.293,4.712
		c34.165,12.124,51.719,37.476,57.063,72.37c0.528,3.446,0.906,6.928,1.101,10.407C294.685,156.883,294.539,160.223,294.539,163.554
		z M241.669,168.428c0.282-10.841-0.331-21.674-1.301-32.43c-1.193-13.243-3.067-26.456-8.839-38.729
		c-6.508-13.838-17.419-20.465-32.625-20.271c-15.162,0.193-25.468,7.473-31.274,21.346c-4.222,10.087-6.091,20.734-7.103,31.523
		c-2.134,22.772-1.936,45.578,0.099,68.335c1.112,12.438,3.227,24.752,8.755,36.176c6.619,13.676,17.903,19.695,32.705,19.395
		c15.201-0.31,25.909-7.484,31.445-21.838c1.253-3.25,2.334-6.59,3.194-9.965C241.205,204.389,241.424,186.402,241.669,168.428z"/>
	<path fill-rule="evenodd" clip-rule="evenodd" fill="#F9FCFD" d="M200.042,334.972c-26.151,0.005-52.302,0.007-78.453,0.003
		c-6.879-0.001-9.771-4.562-5.801-10.208c7.272-10.345,15.089-20.311,22.831-30.316c1.941-2.51,4.971-3.098,8.115-3.096
		c35.812,0.024,71.624,0.032,107.436-0.007c3.995-0.005,7.034,1.545,9.396,4.697c6.79,9.061,13.611,18.098,20.415,27.147
		c1.003,1.334,1.863,2.696,2.126,4.439c0.855,5.669-0.439,7.323-6.114,7.327C253.344,334.977,226.693,334.967,200.042,334.972z"/>
</g>
</svg>
