<svg enable-background="new 0 0 400 400" height="400" viewBox="0 0 400 400" width="400" xmlns="http://www.w3.org/2000/svg"><g clip-rule="evenodd" fill="#f9fcfd" fill-rule="evenodd"><path d="m294.539 163.554c.439 16.17-2 31.908-8.27 46.847-10.169 24.227-27.815 40.829-52.637 49.358-24.895 8.555-49.838 8.071-74.2-2.068-22.169-9.228-37.981-25.244-46.126-47.861-11.249-31.235-10.713-62.654 3.088-92.921 13.872-30.419 39.111-46.254 71.648-50.835 16.38-2.307 32.626-.848 48.293 4.712 34.165 12.124 51.719 37.476 57.063 72.37.528 3.446.906 6.928 1.101 10.407.186 3.32.04 6.66.04 9.991zm-52.87 4.874c.282-10.841-.331-21.674-1.301-32.43-1.193-13.243-3.067-26.456-8.839-38.729-6.508-13.838-17.419-20.465-32.625-20.271-15.162.193-25.468 7.473-31.274 21.346-4.222 10.087-6.091 20.734-7.103 31.523-2.134 22.772-1.936 45.578.099 68.335 1.112 12.438 3.227 24.752 8.755 36.176 6.619 13.676 17.903 19.695 32.705 19.395 15.201-.31 25.909-7.484 31.445-21.838 1.253-3.25 2.334-6.59 3.194-9.965 4.48-17.581 4.699-35.568 4.944-53.542z"/><path d="m200.042 334.972c-26.151.005-52.302.007-78.453.003-6.879-.001-9.771-4.562-5.801-10.208 7.272-10.345 15.089-20.311 22.831-30.316 1.941-2.51 4.971-3.098 8.115-3.096 35.812.024 71.624.032 107.436-.007 3.995-.005 7.034 1.545 9.396 4.697 6.79 9.061 13.611 18.098 20.415 27.147 1.003 1.334 1.863 2.696 2.126 4.439.855 5.669-.439 7.323-6.114 7.327-26.649.019-53.3.009-79.951.014z"/></g></svg>