<?xml version="1.0" encoding="utf-8"?>
<!-- Generator: Adobe Illustrator 16.0.0, SVG Export Plug-In . SVG Version: 6.00 Build 0)  -->
<!DOCTYPE svg PUBLIC "-//W3C//DTD SVG 1.1//EN" "http://www.w3.org/Graphics/SVG/1.1/DTD/svg11.dtd">
<svg version="1.1" id="Layer_1" xmlns="http://www.w3.org/2000/svg" xmlns:xlink="http://www.w3.org/1999/xlink" x="0px" y="0px"
	 width="400px" height="400px" viewBox="0 0 400 400" enable-background="new 0 0 400 400" xml:space="preserve">
<g>
	<path fill="#2B559C" d="M52.026,256.268C25.825,250.99,6.786,234.213,0,213.479c2.451,15.645,11.687,30.348,26.956,40.339
		c32.611,21.489,80.679,14.703,107.446-14.892c2.074-2.262,3.958-4.713,5.655-7.163c-9.614,8.482-21.301,14.325-33.553,17.719
		C90.292,257.021,70.876,260.037,52.026,256.268"/>
	<path fill="#AC2748" d="M133.082,237.795c2.639-1.885,4.901-3.959,7.163-6.032c-32.422,18.661-75.023,14.892-99.152-10.368
		c-23.939-25.259-20.924-62.771,5.655-87.653c-2.828,1.508-5.467,3.205-8.106,5.278c-33.176,24.316-39.02,66.352-12.818,93.685
		C51.838,259.85,99.906,262.111,133.082,237.795"/>
	<path fill="#2B559C" d="M142.696,154.477c-6.221-6.409-15.269-9.802-26.202-9.802c-11.499,0-22.055,4.335-29.595,12.252
		c-9.048,9.425-14.137,22.998-14.137,37.135c0,22.621,13.383,36.192,35.626,36.192c12.064,0,22.62-4.523,30.16-13.006
		c8.483-9.236,13.572-22.432,13.572-35.25C152.121,170.5,148.916,160.886,142.696,154.477 M126.484,205.938
		c-3.958,5.844-9.991,8.859-16.965,8.859c-12.253,0-18.851-7.352-18.851-20.735c0-19.981,10.179-33.93,24.694-33.93
		c12.441,0,18.85,6.975,18.85,20.17C134.213,189.35,131.197,199.152,126.484,205.938z M237.323,215.174
		c-2.827,0-3.394-1.131-3.394-3.016c0-0.188,0.189-0.754,0.189-1.319c0.188-0.754,0.377-1.696,0.564-3.017
		c0,0,4.336-24.505,4.902-28.086h8.482v-0.377l1.695-11.31l0.189-0.565h-8.482l3.016-16.965l0.188-0.565h-16.399v0.377
		l-3.016,17.153h-8.482v0.377l-1.886,11.31l-0.188,0.566h8.294l-5.843,33.365c-0.189,1.508-0.377,3.203-0.377,4.9
		c0,8.105,4.9,11.688,15.645,11.688c2.828,0,5.655-0.377,8.482-1.32l0.189-0.188v-0.377l2.262-13.572l0.188-0.754l-0.754,0.188
		C240.34,214.797,238.454,215.174,237.323,215.174z M343.638,183.695v-0.566l2.828-16.399l0.188-0.565h-0.565
		c-1.131-0.188-2.64,0-3.017,0c-4.335,0.188-12.44,4.712-16.965,11.122l1.696-8.86l0.188-0.565h-15.08v0.377l-10.556,59.378
		l-0.188,0.566h16.588v-0.378l5.09-28.086c2.073-11.499,6.598-16.777,13.949-16.777c1.319,0,3.581,0.377,5.277,0.754H343.638z
		 M393.025,173.327c-4.713-4.712-11.31-7.163-19.604-7.163c-8.859,0-16.776,3.582-22.432,9.991
		c-5.654,6.409-8.671,15.269-8.671,25.259c0,8.859,2.451,16.022,6.786,20.924c4.524,4.9,11.311,7.539,19.416,7.539
		c14.892,0,25.636-7.162,29.029-19.227l0.188-0.565H379.83l-0.188,0.188c-2.262,3.959-5.466,5.844-10.179,5.844
		c-6.786,0-10.557-4.524-10.745-12.441h40.151v-0.377c0.565-4.335,0.942-7.54,0.942-10.368
		C400,184.637,397.55,177.851,393.025,173.327z M383.224,190.858c0,0.188,0,0.377,0,0.565h-22.809
		c1.696-7.729,6.409-12.253,13.194-12.253c6.598,0,9.803,3.582,9.803,10.745C383.412,190.292,383.412,190.669,383.224,190.858z
		 M298.209,225.73c-0.942-0.942-1.319-2.074-1.319-3.77c0-0.943,0.188-2.074,0.377-3.582l5.467-31.479
		c0.188-1.32,0.377-2.451,0.377-3.582c0-5.089-2.263-9.425-6.409-12.441c-4.336-3.016-10.367-4.712-17.908-4.712
		c-15.457,0-23.563,5.843-25.636,18.473l-0.188,0.565h16.211v-0.377c0.754-3.958,3.394-5.844,8.482-5.844
		c5.278,0,8.482,1.885,8.482,4.901c0,4.712-2.639,4.901-10.367,5.655l-3.581,0.377c-18.097,2.074-25.448,8.294-25.448,22.055
		c0,10.745,7.164,17.53,18.285,17.53c6.221,0,10.933-2.073,16.022-6.598v5.09h16.022l0,0h0.565l0,0h0.188h0.566l0,0h1.695h0.566
		v-1.508h-0.566C299.152,226.484,298.586,225.919,298.209,225.73z M282.752,205.75c-1.131,5.843-6.408,10.178-12.818,10.178
		c-3.958,0-6.408-2.072-6.408-5.466c0-6.409,4.335-7.163,11.498-8.671c2.639-0.566,5.655-1.131,9.049-2.074
		C283.695,201.414,282.752,205.75,282.752,205.75z M191.895,165.787c-7.352,0-12.818,3.016-17.531,9.613l1.319-7.352l0.188-0.565
		h-16.776h-0.565l-2.074,0.188h-0.377l-0.188,0.377l-0.188,0.566l-0.188,0.565h0.754c0.754,0,1.32,0.377,1.697,0.754l0,0
		c1.131,1.131,1.319,2.073,1.319,3.958c0,0.942-0.188,2.073-0.377,3.582l-2.451,14.326l-10.368,59.567l-0.188,0.564h16.4v-0.377
		l6.221-32.987c3.016,7.352,8.671,10.933,16.965,10.933c16.022,0,28.087-16.588,28.087-38.642
		C213.572,175.4,205.277,165.787,191.895,165.787z M181.715,214.797c-6.598,0-10.368-4.9-10.368-12.817
		c0-12.818,6.409-22.621,14.892-22.621c6.409,0,10.179,4.336,10.179,12.064C196.418,205.184,190.386,214.797,181.715,214.797z"/>
</g>
</svg>
