<svg enable-background="new 0 0 400 400" height="400" viewBox="0 0 400 400" width="400" xmlns="http://www.w3.org/2000/svg"><path d="m52.026 256.268c-26.201-5.278-45.24-22.055-52.026-42.789 2.451 15.645 11.687 30.348 26.956 40.339 32.611 21.489 80.679 14.703 107.446-14.892 2.074-2.262 3.958-4.713 5.655-7.163-9.614 8.482-21.301 14.325-33.553 17.719-16.212 7.539-35.628 10.555-54.478 6.786" fill="#2b559c"/><path d="m133.082 237.795c2.639-1.885 4.901-3.959 7.163-6.032-32.422 18.661-75.023 14.892-99.152-10.368-23.939-25.259-20.924-62.771 5.655-87.653-2.828 1.508-5.467 3.205-8.106 5.278-33.176 24.316-39.02 66.352-12.818 93.685 26.014 27.145 74.082 29.406 107.258 5.09" fill="#ac2748"/><path d="m142.696 154.477c-6.221-6.409-15.269-9.802-26.202-9.802-11.499 0-22.055 4.335-29.595 12.252-9.048 9.425-14.137 22.998-14.137 37.135 0 22.621 13.383 36.192 35.626 36.192 12.064 0 22.62-4.523 30.16-13.006 8.483-9.236 13.572-22.432 13.572-35.25.001-11.498-3.204-21.112-9.424-27.521m-16.212 51.461c-3.958 5.844-9.991 8.859-16.965 8.859-12.253 0-18.851-7.352-18.851-20.735 0-19.981 10.179-33.93 24.694-33.93 12.441 0 18.85 6.975 18.85 20.17.001 9.048-3.015 18.85-7.728 25.636zm110.839 9.236c-2.827 0-3.394-1.131-3.394-3.016 0-.188.189-.754.189-1.319.188-.754.377-1.696.564-3.017 0 0 4.336-24.505 4.902-28.086h8.482v-.377l1.695-11.31.189-.565h-8.482l3.016-16.965.188-.565h-16.399v.377l-3.016 17.153h-8.482v.377l-1.886 11.31-.188.566h8.294l-5.843 33.365c-.189 1.508-.377 3.203-.377 4.9 0 8.105 4.9 11.688 15.645 11.688 2.828 0 5.655-.377 8.482-1.32l.189-.188v-.377l2.262-13.572.188-.754-.754.188c-2.447 1.13-4.333 1.507-5.464 1.507zm106.315-31.479v-.566l2.828-16.399.188-.565h-.565c-1.131-.188-2.64 0-3.017 0-4.335.188-12.44 4.712-16.965 11.122l1.696-8.86.188-.565h-15.08v.377l-10.556 59.378-.188.566h16.588v-.378l5.09-28.086c2.073-11.499 6.598-16.777 13.949-16.777 1.319 0 3.581.377 5.277.754h.567zm49.387-10.368c-4.713-4.712-11.31-7.163-19.604-7.163-8.859 0-16.776 3.582-22.432 9.991-5.654 6.409-8.671 15.269-8.671 25.259 0 8.859 2.451 16.022 6.786 20.924 4.524 4.9 11.311 7.539 19.416 7.539 14.892 0 25.636-7.162 29.029-19.227l.188-.565h-17.907l-.188.188c-2.262 3.959-5.466 5.844-10.179 5.844-6.786 0-10.557-4.524-10.745-12.441h40.151v-.377c.565-4.335.942-7.54.942-10.368.189-8.294-2.261-15.08-6.786-19.604zm-9.801 17.531v.565h-22.809c1.696-7.729 6.409-12.253 13.194-12.253 6.598 0 9.803 3.582 9.803 10.745 0 .377 0 .754-.188.943zm-85.015 34.872c-.942-.942-1.319-2.074-1.319-3.77 0-.943.188-2.074.377-3.582l5.467-31.479c.188-1.32.377-2.451.377-3.582 0-5.089-2.263-9.425-6.409-12.441-4.336-3.016-10.367-4.712-17.908-4.712-15.457 0-23.563 5.843-25.636 18.473l-.188.565h16.211v-.377c.754-3.958 3.394-5.844 8.482-5.844 5.278 0 8.482 1.885 8.482 4.901 0 4.712-2.639 4.901-10.367 5.655l-3.581.377c-18.097 2.074-25.448 8.294-25.448 22.055 0 10.745 7.164 17.53 18.285 17.53 6.221 0 10.933-2.073 16.022-6.598v5.09h16.022.565.188.566 1.695.566v-1.508h-.566c-.94.001-1.506-.564-1.883-.753zm-15.457-19.98c-1.131 5.843-6.408 10.178-12.818 10.178-3.958 0-6.408-2.072-6.408-5.466 0-6.409 4.335-7.163 11.498-8.671 2.639-.566 5.655-1.131 9.049-2.074-.378 1.697-1.321 6.033-1.321 6.033zm-90.857-39.963c-7.352 0-12.818 3.016-17.531 9.613l1.319-7.352.188-.565h-16.776-.565l-2.074.188h-.377l-.188.377-.188.566-.188.565h.754c.754 0 1.32.377 1.697.754 1.131 1.131 1.319 2.073 1.319 3.958 0 .942-.188 2.073-.377 3.582l-2.451 14.326-10.368 59.567-.188.564h16.4v-.377l6.221-32.987c3.016 7.352 8.671 10.933 16.965 10.933 16.022 0 28.087-16.588 28.087-38.642-.002-15.457-8.297-25.07-21.679-25.07zm-10.18 49.01c-6.598 0-10.368-4.9-10.368-12.817 0-12.818 6.409-22.621 14.892-22.621 6.409 0 10.179 4.336 10.179 12.064 0 13.761-6.032 23.374-14.703 23.374z" fill="#2b559c"/></svg>