<?xml version="1.0" encoding="utf-8"?>
<!-- Generator: Adobe Illustrator 16.0.0, SVG Export Plug-In . SVG Version: 6.00 Build 0)  -->
<!DOCTYPE svg PUBLIC "-//W3C//DTD SVG 1.1//EN" "http://www.w3.org/Graphics/SVG/1.1/DTD/svg11.dtd">
<svg version="1.1" xmlns="http://www.w3.org/2000/svg" xmlns:xlink="http://www.w3.org/1999/xlink" x="0px" y="0px" width="1200px"
	 height="1200px" viewBox="-1 -201 1200 1200" enable-background="new -1 -201 1200 1200" xml:space="preserve">
<g id="Layer_2">
	<rect x="-1" y="-201" fill="#EE2E24" width="1200" height="1200"/>
</g>
<g id="Layer_1">
	<path fill="#FFFFFF" d="M893.732,556.355c88.164,0,159.9-72.209,159.9-160.95c0-88.795-71.736-160.951-159.9-160.951
		c-88.182,0-159.9,72.156-159.9,160.951C733.832,484.146,805.551,556.355,893.732,556.355z M893.732,338.013
		c31.42,0,57.007,25.745,57.007,57.375s-25.604,57.34-57.024,57.34c-31.437,0-56.989-25.71-56.989-57.357
		c0-31.665,25.569-57.393,56.989-57.393L893.732,338.013z M290.456,556.355c88.164,0,159.9-72.209,159.9-160.95
		c0-88.795-71.736-160.951-159.9-160.951c-88.146,0-159.9,72.156-159.9,160.951C130.556,484.146,202.309,556.355,290.456,556.355z
		 M290.456,338.013c31.437,0,57.007,25.745,57.007,57.375s-25.57,57.34-57.007,57.34c-31.419,0-56.972-25.71-56.972-57.357
		c0-31.665,25.57-57.393,56.972-57.393V338.013z M592.007,334.388l-49.091-97.832H427.974l107.358,214.018v100.756h113.366V450.573
		l107.359-214.018H641.063l-49.038,97.832H592.007z"/>
</g>
</svg>
