<svg enable-background="new -1 -201 1200 1200" height="1200" viewBox="-1 -201 1200 1200" width="1200" xmlns="http://www.w3.org/2000/svg"><path d="m-1-201h1200v1200h-1200z" fill="#ee2e24"/><path d="m893.732 556.355c88.164 0 159.9-72.209 159.9-160.95 0-88.795-71.736-160.951-159.9-160.951-88.182 0-159.9 72.156-159.9 160.951 0 88.741 71.719 160.95 159.9 160.95zm0-218.342c31.42 0 57.007 25.745 57.007 57.375s-25.604 57.34-57.024 57.34c-31.437 0-56.989-25.71-56.989-57.357 0-31.665 25.569-57.393 56.989-57.393zm-603.276 218.342c88.164 0 159.9-72.209 159.9-160.95 0-88.795-71.736-160.951-159.9-160.951-88.146 0-159.9 72.156-159.9 160.951 0 88.741 71.753 160.95 159.9 160.95zm0-218.342c31.437 0 57.007 25.745 57.007 57.375s-25.57 57.34-57.007 57.34c-31.419 0-56.972-25.71-56.972-57.357 0-31.665 25.57-57.393 56.972-57.393zm301.551-3.625-49.091-97.832h-114.942l107.358 214.018v100.756h113.366v-100.757l107.359-214.018h-114.994l-49.038 97.832h-.018z" fill="#fff"/></svg>