<svg enable-background="new 0 0 400 400" height="400" viewBox="0 0 400 400" width="400" xmlns="http://www.w3.org/2000/svg"><g clip-rule="evenodd" fill-rule="evenodd"><path d="m188.831 104.278c41.741.115 83.479.239 125.22.34 23.059.055 28.239 5.524 27.35 28.813-.104 2.65.278 5.319.439 7.979-.121 13.812-.242 27.624-.366 41.435-.406 1.388.245 1.867 1.54 1.793 4.147.43 9.925.139 10.161 5.261.396 8.514 4.538 7.725 10.73 7.144 5.235-.49 12.353-2.806 15.256 4.116 2.491 5.939-3.176 8.713-7.038 11.602-3.822 2.855-2.331 4.775.566 6.941 1.825 1.367 3.471 2.977 5.181 4.496 2.63 2.33 5.284 4.84 3.944 8.76-1.547 4.531-5.632 4.473-9.512 4.576-9.732.26-19.204-1.9-29.257-.432-13.011 1.9-27.093 3.129-39.607.092-15.091-3.664-28.895 1.83-43.276 1.023-1.562-.027-3.122-.059-4.683-.086-1.626-.18-3.249-.354-4.875-.535-2.95-2.377-5.613-5.313-8.914-7.016-6.881-3.553-13.929-5.807-19.694 2.377-1.224 1.738-3.556 4.096-5.161 3.941-14.502-1.4-30.294 6.9-43.392-6.625-3.499-3.613-10.421-5.051-14.36 1.988-.725 1.295-1.66 3.359-2.674 3.473-15.488 1.713-10.066 13.508-10.995 22.293-1.305 12.352 3.028 25.127-2.806 37.127-25.278.189-50.557.379-75.836.568-1.63-1.6-3.259-3.199-4.887-4.795.124-.697.082-1.383-.128-2.061-.022-16.225-.044-32.449-.066-48.674-.051-1.607 1.435-4.457-2.418-3-7.949 1.512-18.305-2.367-21.147 10.379-.638 2.859-5.236 2.041-8.13 2.514-9.25.264-12.665-4.264-12.112-13.365.574-9.438.209-18.936.078-28.408-.065-4.768.46-9.112 5.078-11.782 3.767-.007 7.535-.013 11.303-.02 2.397-.029 4.794-.057 7.191-.086 5.313.07 10.625.14 15.938.208.569.394 1.199.567 1.891.515 3.269 1.375 2.32-1.204 2.53-2.696-.051-27.75-.104-55.499-.155-83.249.146-.628.172-1.264.077-1.904 3.371-5.901 9.11-4.634 14.355-4.656 37.553-.147 75.107-.248 112.661-.364zm80.469 83.128c3 4.967 7.683 2.137 11.671 2.516 1.448.016 2.896.032 4.343.046 1.173-.808 2.347-1.614 3.521-2.421 8.387-2.983 11.405-8.756 10.698-17.687-.751-9.479-.074-19.065-.238-28.6-.095-5.504 1.857-12.662-5.455-14.658-8.365-2.285-17.329-3.06-25.596.792-4.737 2.207-.629 4.824.607 7.156-.014.765.144 1.492.47 2.184-.007 16.891-.014 33.782-.021 50.672zm-108.477-62.111c-27.994 0-55.99.196-83.979-.145-6.538-.08-8.582 1.83-8.274 8.337.506 10.712.139 21.467.139 32.204 0 32.912 0 32.912 32.67 30.732.381-.026.769-.039 1.149-.002 3.74.349 5.997-.952 5.518-5.1-1.036-8.985 5.924-6.751 9.854-5.989 4.646.901 13.566-5.571 13.263 6.132-.11 4.213 2.209 5.193 5.813 4.95 4.259-.289 3.246-3.57 3.286-5.983.131-8.051.049-16.106.049-24.159 0-27.25 0-27.371 27.081-27.217 28.477.162 25.371-4.464 25.739 26.985.095 8.063-3.834 11.09-11.129 11.152-8.424.072-16.858.249-25.269-.084-5.715-.227-6.968 2.28-7.005 7.515-.039 5.554 1.89 7.233 7.33 7.197 29.526-.205 59.057.145 88.581-.227 11.545-.146 16.47-5.688 16.838-17.374.293-9.194.119-18.405.054-27.608-.112-16.483-4.822-21.262-21.178-21.299-26.846-.061-53.686-.017-80.53-.017zm140.819 65.065c5.577 0 10.849.072 16.12-.014 14.09-.229 18.196-4.364 18.266-18.533.069-14.563.146-29.127-.025-43.689-.144-12.622-4.655-17.104-17.328-17.114-80.096-.058-160.195-.07-240.293.104-3.369.007-9.764-2.987-9.331 4.246.355 5.947 6.013 3.237 9.214 3.25 45.605.185 91.213.125 136.819.125 22.994 0 45.989-.156 68.983.075 9.363.093 20.393 1.196 20.895 12.805.827 19.226 3.894 38.854-3.32 58.745zm-197.934 98.521c9.936 0 19.873-.148 29.803.066 4.477.1 7.064-.578 6.906-6.07-.35-12.219-.247-24.455-.035-36.678.075-4.35-1.239-6.039-5.801-5.994-19.868.186-39.741.225-59.607-.023-5.137-.066-6.477 1.789-6.354 6.635.289 11.457.384 22.938-.032 34.383-.214 5.9 1.426 8.146 7.616 7.811 9.143-.499 18.334-.13 27.504-.13zm61.784-143.433c-21.721.033-22.071.473-20.362 18.576.43 4.55 1.697 7.122 6.668 7.061 9.128-.111 18.258.008 27.389-.031 3.086-.012 5.791-.19 7.012-4.149 4.338-14.072-.702-21.472-15.001-21.465-1.903 0-3.804 0-5.706.008zm-131.624 82.507c8.254 4.234 15.474 4.145 22.706 2.697 8.038-1.615 7.904-7.875 8.061-14.275.159-6.502-1.464-12.162-8.469-12.672-9.968-.725-21.318-2.749-29.624 1.09-5.572 2.578-1.373 14.715-1.972 22.547-.261 3.422.018 6.887-.053 10.328-.061 2.926.262 5.266 4.095 5.346 3.857.08 5.656-1.336 5.299-5.369-.23-2.604-.043-5.245-.043-9.692zm295.443-6.559c.019-17.582-.603-18.215-16.041-18.271-3.046-.012-6.159.443-9.132-.02-12.813-1.998-8.693 9.07-11.395 14.727-1.682 3.521-1.832 7.566.72 10.832 2.009 2.568 5.337 2.662 8.407 2.793 5.714.238 12.667-3.232 16.462-1.813 12.881 4.819 11.103-2.941 10.979-8.248zm-234.092-10.88c.009.721.018 1.436.027 2.156-5.524 0-11.123-.563-16.549.16-5.157.689-9.452 3.98-9.507 9.611-.057 5.906 4.122 8.479 9.779 8.973 8.577.754 17.031-2.352 25.651-.646 2.368.467 2.9-1.447 3.447-3.473 4.591-16.979-.977-24.213-18.814-24.16-3.812.008-7.623.191-11.434.328-3.941.145-6.533 1.691-6.244 7.051zm98.301.541c-2.247.859-3.195 1.375-4.207 1.578-6.642 1.346-11.492 4.098-10.106 12.139 1.308 7.59 7.432 6.076 12.465 6.725 5.027.646 9.649-2.121 14.354-2.006 3.688.09 9.364 3.854 9.926-1.387.796-7.434 4.03-16.289-2.797-22.756-5.751-5.448-27.452-2.271-33.547 4.695 4.429.322 8.5.615 13.912 1.012zm50.788 13.191c10.502 10.779 21.525 6.488 31.629 6.604 5.406.061 8.529-2.875 8.975-8.367.483-5.932-3.242-8.264-8.253-8.846-6.562-.764-13.182-1.049-22.506-1.746 9.302-5.928 16.112-2.137 22.862-1.426 2.026.217 5.293 1.164 5.884-1.578.646-2.98-1.891-5.09-4.827-5.217-7.271-.324-14.563-.414-21.841-.262-5.491.117-9.982 2.227-9.966 8.6.013 6.66 4.83 7.439 10.236 8.105 6.078.746 12.79-2.381 18.983 2.604-9.718 8.072-19.487-1.93-31.176 1.529zm-119.406-5.674c9.191 5.131 13.735 16.688 25.516 11.326-2.943-6.129-9.895-8.328-13.651-14.143 3.8-3.621 7.715-7.35 11.366-10.832-10.708-6.2-15.284 4.139-23.734 8.463 0-6.785-.124-11.984.042-17.177.114-3.578-1.565-4.582-4.846-4.529-3.045.049-5.19.44-5.141 4.277.136 10.357.048 20.714.101 31.072.015 2.803 1.483 3.986 4.349 3.867 2.778-.115 5.5.141 5.488-3.883-.004-2.242.259-4.486.51-8.441zm222.772-5.125c0-6.93-.091-11.902.032-16.868.075-3.133-.605-5.136-4.368-4.894-2.784.179-5.428-.023-5.403 3.959.06 10.336.048 20.676 0 31.012-.015 3.615 1.936 4.254 5.121 4.291 3.476.039 4.768-1.16 4.694-4.629-.04-2.066-.993-4.559 2.304-6.984 6.957 4.641 11.965 16.078 24.056 10.043-4.902-4.473-9.615-8.773-14.598-13.322 4.34-4.057 8.327-7.787 12.03-11.25-10.506-5.907-15.299 3.826-23.868 8.642zm-182.803-1.654c-3.213 1.65-9.653-3.287-10.098 4.713-.391 7.049 5.141 5.355 8.727 4.992 3.698-.373 9.851 3.4 10.345-4.471.454-7.236-5.192-4.468-8.974-5.234zm67.172 10.307c2.681-2.041 8.774 2.586 9.04-4.891.29-8.178-6.092-5.18-9.737-5.055-3.573.123-10.102-3.523-9.938 4.729.158 8.166 6.732 3.342 10.635 5.217z" fill="#efe7e8"/><g fill="#eb2226"><path d="m160.823 125.295c26.843 0 53.684-.044 80.53.016 16.355.037 21.065 4.816 21.178 21.299.065 9.203.239 18.414-.054 27.608-.368 11.686-5.293 17.228-16.838 17.374-29.524.372-59.055.022-88.581.227-5.44.037-7.369-1.643-7.33-7.197.038-5.234 1.29-7.741 7.005-7.515 8.411.333 16.845.156 25.269.084 7.295-.062 11.224-3.089 11.129-11.152-.368-31.449 2.738-26.823-25.739-26.985-27.081-.154-27.081-.033-27.081 27.217 0 8.052.082 16.107-.049 24.159-.04 2.413.973 5.694-3.286 5.983-3.603.243-5.923-.736-5.813-4.95.303-11.703-8.617-5.231-13.263-6.132-3.931-.762-10.891-2.996-9.854 5.989.479 4.148-1.778 5.449-5.518 5.1-.38-.036-.768-.023-1.149.002-32.67 2.179-32.67 2.179-32.67-30.732 0-10.737.367-21.492-.139-32.204-.308-6.507 1.736-8.417 8.274-8.337 27.989.342 55.986.146 83.979.146z"/><path d="m301.642 190.36c7.215-19.891 4.147-39.519 3.319-58.746-.502-11.609-11.531-12.711-20.895-12.805-22.994-.23-45.989-.075-68.983-.075-45.606 0-91.214.06-136.819-.125-3.201-.013-8.859 2.696-9.214-3.25-.433-7.232 5.962-4.238 9.331-4.246 80.098-.174 160.198-.163 240.293-.104 12.673.01 17.185 4.493 17.328 17.114.172 14.562.095 29.126.025 43.689-.069 14.168-4.176 18.304-18.266 18.533-5.271.087-10.542.015-16.119.015z"/><path d="m103.708 288.881c-9.17 0-18.361-.369-27.505.129-6.19.336-7.831-1.91-7.616-7.811.417-11.445.321-22.926.032-34.383-.122-4.846 1.217-6.701 6.354-6.635 19.867.248 39.739.209 59.607.023 4.562-.045 5.876 1.645 5.801 5.994-.212 12.223-.315 24.459.035 36.678.158 5.492-2.43 6.17-6.906 6.07-9.929-.214-19.866-.065-29.802-.065z"/></g><g fill="#252425"><path d="m33.868 227.955c0 4.447-.187 7.088.044 9.691.356 4.033-1.442 5.449-5.299 5.369-3.833-.08-4.156-2.42-4.095-5.346.07-3.441-.208-6.906.053-10.328.599-7.832-3.6-19.969 1.972-22.547 8.306-3.838 19.655-1.814 29.624-1.09 7.005.51 8.628 6.17 8.469 12.672-.157 6.4-.023 12.66-8.061 14.275-7.234 1.449-14.453 1.538-22.707-2.696zm9.879-3.904c5.409.83 10.521.066 10.688-7.316.141-6.295-4.699-7.01-9.386-6.969-4.634.039-10.352-1.316-10.8 6.291-.389 6.625 3.015 8.793 9.498 7.994z"/><path d="m329.311 221.396c.124 5.307 1.902 13.066-10.979 8.248-3.795-1.42-10.748 2.051-16.462 1.813-3.07-.131-6.398-.225-8.407-2.793-2.552-3.266-2.401-7.311-.72-10.832 2.701-5.656-1.419-16.725 11.395-14.727 2.973.463 6.086.008 9.132.02 15.438.057 16.059.689 16.041 18.271zm-10.166-.322c-2.16-2.289-4.522-2.035-6.668-1.832-3.49.328-7.564-1.648-10.232 2.121-.351.494.252 2.287.928 2.775 3.298 2.414 7.162 2.145 10.774 1.17 1.875-.503 4.619-.628 5.198-4.234z"/><path d="m95.219 210.516c-7.875 0-15.75 0-23.644 0-.29-5.359 2.302-6.906 6.244-7.051 3.811-.137 7.622-.32 11.434-.328 17.838-.053 23.405 7.182 18.814 24.16-.547 2.025-1.079 3.939-3.447 3.473-8.621-1.705-17.075 1.4-25.651.646-5.657-.494-9.836-3.066-9.779-8.973.055-5.631 4.35-8.922 9.507-9.611 5.426-.723 11.025-.16 16.549-.16-.009-.721-.018-1.436-.027-2.156zm-5.769 15.463c1.528-1.996 7.488.539 6.591-4.568-.742-4.225-5.697-1.891-8.737-2.102-2.248-.152-6.315-1.488-6.383 2.295-.086 4.843 4.484 3.828 8.529 4.375z"/><path d="m193.52 211.057c-5.411-.396-9.482-.689-13.913-1.012 6.096-6.967 27.796-10.143 33.547-4.695 6.827 6.467 3.593 15.322 2.797 22.756-.562 5.24-6.238 1.477-9.926 1.387-4.705-.115-9.327 2.652-14.354 2.006-5.033-.648-11.157.865-12.465-6.725-1.386-8.041 3.464-10.793 10.106-12.139 1.012-.203 1.96-.719 4.208-1.578zm15.017 8.103c-8.289.818-13.883-2.027-19.248 2.033-.322.242.127 2.52.716 2.799 5.727 2.707 11.309 3.301 18.532-4.832z"/><path d="m244.308 224.248c11.689-3.459 21.458 6.543 31.177-1.529-6.193-4.984-12.905-1.857-18.983-2.604-5.406-.666-10.224-1.445-10.236-8.105-.017-6.373 4.475-8.482 9.966-8.6 7.277-.152 14.57-.063 21.841.262 2.937.127 5.473 2.236 4.827 5.217-.591 2.742-3.857 1.795-5.884 1.578-6.75-.711-13.561-4.502-22.862 1.426 9.324.697 15.944.982 22.506 1.746 5.011.582 8.736 2.914 8.253 8.846-.445 5.492-3.568 8.428-8.975 8.367-10.105-.116-21.128 4.175-31.63-6.604z"/><path d="m124.902 218.574c-.251 3.955-.514 6.199-.508 8.441.011 4.023-2.71 3.768-5.488 3.883-2.866.119-4.334-1.064-4.349-3.867-.053-10.357.035-20.715-.101-31.072-.049-3.837 2.096-4.229 5.141-4.277 3.281-.053 4.959.952 4.846 4.529-.166 5.193-.042 10.392-.042 17.177 8.451-4.324 13.026-14.663 23.734-8.463-3.651 3.482-7.566 7.211-11.366 10.832 3.756 5.814 10.708 8.014 13.651 14.143-11.783 5.362-16.327-6.195-25.518-11.326z"/><path d="m347.674 213.449c8.569-4.816 13.362-14.549 23.868-8.643-3.703 3.463-7.69 7.193-12.03 11.25 4.982 4.549 9.695 8.85 14.598 13.322-12.091 6.035-17.099-5.402-24.056-10.043-3.297 2.426-2.344 4.918-2.304 6.984.073 3.469-1.219 4.668-4.694 4.629-3.186-.037-5.136-.676-5.121-4.291.048-10.336.06-20.676 0-31.012-.024-3.982 2.619-3.78 5.403-3.959 3.763-.243 4.443 1.761 4.368 4.894-.123 4.967-.032 9.94-.032 16.869z"/><path d="m164.871 211.795c3.782.766 9.428-2.002 8.974 5.234-.494 7.871-6.647 4.098-10.345 4.471-3.586.363-9.118 2.057-8.727-4.992.444-8 6.884-3.063 10.098-4.713z"/><path d="m232.043 222.102c-3.903-1.875-10.477 2.949-10.636-5.217-.163-8.252 6.365-4.605 9.938-4.729 3.646-.125 10.027-3.123 9.737 5.055-.265 7.477-6.358 2.85-9.039 4.891z"/></g><g fill="#efe7e8"><path d="m43.747 224.051c-6.483.799-9.887-1.369-9.498-7.994.448-7.607 6.166-6.252 10.8-6.291 4.687-.041 9.527.674 9.386 6.969-.168 7.382-5.279 8.146-10.688 7.316z"/><path d="m319.145 221.074c-.578 3.605-3.322 3.73-5.198 4.234-3.612.975-7.477 1.244-10.774-1.17-.676-.488-1.278-2.281-.928-2.775 2.668-3.77 6.742-1.793 10.232-2.121 2.145-.203 4.507-.457 6.668 1.832z"/><path d="m89.45 225.979c-4.045-.547-8.615.469-8.529-4.375.067-3.783 4.135-2.447 6.383-2.295 3.04.211 7.996-2.123 8.737 2.102.897 5.107-5.063 2.571-6.591 4.568z"/><path d="m208.537 219.16c-7.223 8.133-12.805 7.539-18.532 4.832-.588-.279-1.038-2.557-.716-2.799 5.365-4.06 10.959-1.214 19.248-2.033z"/></g></g></svg>