<?xml version="1.0" encoding="utf-8"?>
<!-- Generator: Adobe Illustrator 16.0.0, SVG Export Plug-In . SVG Version: 6.00 Build 0)  -->
<!DOCTYPE svg PUBLIC "-//W3C//DTD SVG 1.1//EN" "http://www.w3.org/Graphics/SVG/1.1/DTD/svg11.dtd">
<svg version="1.1" id="Layer_1" xmlns="http://www.w3.org/2000/svg" xmlns:xlink="http://www.w3.org/1999/xlink" x="0px" y="0px"
	 width="400px" height="400px" viewBox="0 0 400 400" enable-background="new 0 0 400 400" xml:space="preserve">
<g>
	<path fill-rule="evenodd" clip-rule="evenodd" fill="#EFE7E8" d="M188.831,104.278c41.741,0.115,83.479,0.239,125.22,0.34
		c23.059,0.055,28.239,5.524,27.35,28.813c-0.104,2.65,0.278,5.319,0.439,7.979c-0.121,13.812-0.242,27.624-0.366,41.435
		c-0.406,1.388,0.245,1.867,1.54,1.793c4.147,0.43,9.925,0.139,10.161,5.261c0.396,8.514,4.538,7.725,10.73,7.144
		c5.235-0.49,12.353-2.806,15.256,4.116c2.491,5.939-3.176,8.713-7.038,11.602c-3.822,2.855-2.331,4.775,0.566,6.941
		c1.825,1.367,3.471,2.977,5.181,4.496c2.63,2.33,5.284,4.84,3.944,8.76c-1.547,4.531-5.632,4.473-9.512,4.576
		c-9.732,0.26-19.204-1.9-29.257-0.432c-13.011,1.9-27.093,3.129-39.607,0.092c-15.091-3.664-28.895,1.83-43.276,1.023
		c-1.562-0.027-3.122-0.059-4.683-0.086c-1.626-0.18-3.249-0.354-4.875-0.535c-2.95-2.377-5.613-5.313-8.914-7.016
		c-6.881-3.553-13.929-5.807-19.694,2.377c-1.224,1.738-3.556,4.096-5.161,3.941c-14.502-1.4-30.294,6.9-43.392-6.625
		c-3.499-3.613-10.421-5.051-14.36,1.988c-0.725,1.295-1.66,3.359-2.674,3.473c-15.488,1.713-10.066,13.508-10.995,22.293
		c-1.305,12.352,3.028,25.127-2.806,37.127c-25.278,0.189-50.557,0.379-75.836,0.568c-1.63-1.6-3.259-3.199-4.887-4.795
		c0.124-0.697,0.082-1.383-0.128-2.061c-0.022-16.225-0.044-32.449-0.066-48.674c-0.051-1.607,1.435-4.457-2.418-3
		c-7.949,1.512-18.305-2.367-21.147,10.379c-0.638,2.859-5.236,2.041-8.13,2.514c-9.25,0.264-12.665-4.264-12.112-13.365
		c0.574-9.438,0.209-18.936,0.078-28.408c-0.065-4.768,0.46-9.112,5.078-11.782c3.767-0.007,7.535-0.013,11.303-0.02
		c2.397-0.029,4.794-0.057,7.191-0.086c5.313,0.07,10.625,0.14,15.938,0.208c0.569,0.394,1.199,0.567,1.891,0.515
		c3.269,1.375,2.32-1.204,2.53-2.696c-0.051-27.75-0.104-55.499-0.155-83.249c0.146-0.628,0.172-1.264,0.077-1.904
		c3.371-5.901,9.11-4.634,14.355-4.656C113.723,104.495,151.277,104.394,188.831,104.278z M269.3,187.406
		c3,4.967,7.683,2.137,11.671,2.516c1.448,0.016,2.896,0.032,4.343,0.046c1.173-0.808,2.347-1.614,3.521-2.421
		c8.387-2.983,11.405-8.756,10.698-17.687c-0.751-9.479-0.074-19.065-0.238-28.6c-0.095-5.504,1.857-12.662-5.455-14.658
		c-8.365-2.285-17.329-3.06-25.596,0.792c-4.737,2.207-0.629,4.824,0.607,7.156c-0.014,0.765,0.144,1.492,0.47,2.184
		C269.314,153.625,269.307,170.516,269.3,187.406z M160.823,125.295c-27.994,0-55.99,0.196-83.979-0.145
		c-6.538-0.08-8.582,1.83-8.274,8.337c0.506,10.712,0.139,21.467,0.139,32.204c0,32.912,0,32.912,32.67,30.732
		c0.381-0.026,0.769-0.039,1.149-0.002c3.74,0.349,5.997-0.952,5.518-5.1c-1.036-8.985,5.924-6.751,9.854-5.989
		c4.646,0.901,13.566-5.571,13.263,6.132c-0.11,4.213,2.209,5.193,5.813,4.95c4.259-0.289,3.246-3.57,3.286-5.983
		c0.131-8.051,0.049-16.106,0.049-24.159c0-27.25,0-27.371,27.081-27.217c28.477,0.162,25.371-4.464,25.739,26.985
		c0.095,8.063-3.834,11.09-11.129,11.152c-8.424,0.072-16.858,0.249-25.269-0.084c-5.715-0.227-6.968,2.28-7.005,7.515
		c-0.039,5.554,1.89,7.233,7.33,7.197c29.526-0.205,59.057,0.145,88.581-0.227c11.545-0.146,16.47-5.688,16.838-17.374
		c0.293-9.194,0.119-18.405,0.054-27.608c-0.112-16.483-4.822-21.262-21.178-21.299
		C214.507,125.251,187.667,125.295,160.823,125.295z M301.642,190.36c5.577,0,10.849,0.072,16.12-0.014
		c14.09-0.229,18.196-4.364,18.266-18.533c0.069-14.563,0.146-29.127-0.025-43.689c-0.144-12.622-4.655-17.104-17.328-17.114
		c-80.096-0.058-160.195-0.07-240.293,0.104c-3.369,0.007-9.764-2.987-9.331,4.246c0.355,5.947,6.013,3.237,9.214,3.25
		c45.605,0.185,91.213,0.125,136.819,0.125c22.994,0,45.989-0.156,68.983,0.075c9.363,0.093,20.393,1.196,20.895,12.805
		C305.789,150.841,308.856,170.469,301.642,190.36z M103.708,288.881c9.936,0,19.873-0.148,29.803,0.066
		c4.477,0.1,7.064-0.578,6.906-6.07c-0.35-12.219-0.247-24.455-0.035-36.678c0.075-4.35-1.239-6.039-5.801-5.994
		c-19.868,0.186-39.741,0.225-59.607-0.023c-5.137-0.066-6.477,1.789-6.354,6.635c0.289,11.457,0.384,22.938-0.032,34.383
		c-0.214,5.9,1.426,8.146,7.616,7.811C85.347,288.512,94.538,288.881,103.708,288.881z M165.492,145.448
		c-21.721,0.033-22.071,0.473-20.362,18.576c0.43,4.55,1.697,7.122,6.668,7.061c9.128-0.111,18.258,0.008,27.389-0.031
		c3.086-0.012,5.791-0.19,7.012-4.149c4.338-14.072-0.702-21.472-15.001-21.465C169.295,145.44,167.394,145.44,165.492,145.448z
		 M33.868,227.955c8.254,4.234,15.474,4.145,22.706,2.697c8.038-1.615,7.904-7.875,8.061-14.275
		c0.159-6.502-1.464-12.162-8.469-12.672c-9.968-0.725-21.318-2.749-29.624,1.09c-5.572,2.578-1.373,14.715-1.972,22.547
		c-0.261,3.422,0.018,6.887-0.053,10.328c-0.061,2.926,0.262,5.266,4.095,5.346c3.857,0.08,5.656-1.336,5.299-5.369
		C33.681,235.043,33.868,232.402,33.868,227.955z M329.311,221.396c0.019-17.582-0.603-18.215-16.041-18.271
		c-3.046-0.012-6.159,0.443-9.132-0.02c-12.813-1.998-8.693,9.07-11.395,14.727c-1.682,3.521-1.832,7.566,0.72,10.832
		c2.009,2.568,5.337,2.662,8.407,2.793c5.714,0.238,12.667-3.232,16.462-1.813C331.213,234.463,329.435,226.703,329.311,221.396z
		 M95.219,210.516c0.009,0.721,0.018,1.436,0.027,2.156c-5.524,0-11.123-0.563-16.549,0.16c-5.157,0.689-9.452,3.98-9.507,9.611
		c-0.057,5.906,4.122,8.479,9.779,8.973c8.577,0.754,17.031-2.352,25.651-0.646c2.368,0.467,2.9-1.447,3.447-3.473
		c4.591-16.979-0.977-24.213-18.814-24.16c-3.812,0.008-7.623,0.191-11.434,0.328c-3.941,0.145-6.533,1.691-6.244,7.051
		C79.469,210.516,87.344,210.516,95.219,210.516z M193.52,211.057c-2.247,0.859-3.195,1.375-4.207,1.578
		c-6.642,1.346-11.492,4.098-10.106,12.139c1.308,7.59,7.432,6.076,12.465,6.725c5.027,0.646,9.649-2.121,14.354-2.006
		c3.688,0.09,9.364,3.854,9.926-1.387c0.796-7.434,4.03-16.289-2.797-22.756c-5.751-5.448-27.452-2.271-33.547,4.695
		C184.037,210.367,188.108,210.66,193.52,211.057z M244.308,224.248c10.502,10.779,21.525,6.488,31.629,6.604
		c5.406,0.061,8.529-2.875,8.975-8.367c0.483-5.932-3.242-8.264-8.253-8.846c-6.562-0.764-13.182-1.049-22.506-1.746
		c9.302-5.928,16.112-2.137,22.862-1.426c2.026,0.217,5.293,1.164,5.884-1.578c0.646-2.98-1.891-5.09-4.827-5.217
		c-7.271-0.324-14.563-0.414-21.841-0.262c-5.491,0.117-9.982,2.227-9.966,8.6c0.013,6.66,4.83,7.439,10.236,8.105
		c6.078,0.746,12.79-2.381,18.983,2.604C265.766,230.791,255.997,220.789,244.308,224.248z M124.902,218.574
		c9.191,5.131,13.735,16.688,25.516,11.326c-2.943-6.129-9.895-8.328-13.651-14.143c3.8-3.621,7.715-7.35,11.366-10.832
		c-10.708-6.2-15.284,4.139-23.734,8.463c0-6.785-0.124-11.984,0.042-17.177c0.114-3.578-1.565-4.582-4.846-4.529
		c-3.045,0.049-5.19,0.44-5.141,4.277c0.136,10.357,0.048,20.714,0.101,31.072c0.015,2.803,1.483,3.986,4.349,3.867
		c2.778-0.115,5.5,0.141,5.488-3.883C124.388,224.773,124.651,222.529,124.902,218.574z M347.674,213.449
		c0-6.93-0.091-11.902,0.032-16.868c0.075-3.133-0.605-5.136-4.368-4.894c-2.784,0.179-5.428-0.023-5.403,3.959
		c0.06,10.336,0.048,20.676,0,31.012c-0.015,3.615,1.936,4.254,5.121,4.291c3.476,0.039,4.768-1.16,4.694-4.629
		c-0.04-2.066-0.993-4.559,2.304-6.984c6.957,4.641,11.965,16.078,24.056,10.043c-4.902-4.473-9.615-8.773-14.598-13.322
		c4.34-4.057,8.327-7.787,12.03-11.25C361.036,198.9,356.243,208.633,347.674,213.449z M164.871,211.795
		c-3.213,1.65-9.653-3.287-10.098,4.713c-0.391,7.049,5.141,5.355,8.727,4.992c3.698-0.373,9.851,3.4,10.345-4.471
		C174.299,209.793,168.653,212.561,164.871,211.795z M232.043,222.102c2.681-2.041,8.774,2.586,9.04-4.891
		c0.29-8.178-6.092-5.18-9.737-5.055c-3.573,0.123-10.102-3.523-9.938,4.729C221.566,225.051,228.14,220.227,232.043,222.102z"/>
	<path fill-rule="evenodd" clip-rule="evenodd" fill="#EB2226" d="M160.823,125.295c26.843,0,53.684-0.044,80.53,0.016
		c16.355,0.037,21.065,4.816,21.178,21.299c0.065,9.203,0.239,18.414-0.054,27.608c-0.368,11.686-5.293,17.228-16.838,17.374
		c-29.524,0.372-59.055,0.022-88.581,0.227c-5.44,0.037-7.369-1.643-7.33-7.197c0.038-5.234,1.29-7.741,7.005-7.515
		c8.411,0.333,16.845,0.156,25.269,0.084c7.295-0.062,11.224-3.089,11.129-11.152c-0.368-31.449,2.738-26.823-25.739-26.985
		c-27.081-0.154-27.081-0.033-27.081,27.217c0,8.052,0.082,16.107-0.049,24.159c-0.04,2.413,0.973,5.694-3.286,5.983
		c-3.603,0.243-5.923-0.736-5.813-4.95c0.303-11.703-8.617-5.231-13.263-6.132c-3.931-0.762-10.891-2.996-9.854,5.989
		c0.479,4.148-1.778,5.449-5.518,5.1c-0.38-0.036-0.768-0.023-1.149,0.002c-32.67,2.179-32.67,2.179-32.67-30.732
		c0-10.737,0.367-21.492-0.139-32.204c-0.308-6.507,1.736-8.417,8.274-8.337C104.833,125.491,132.83,125.295,160.823,125.295z"/>
	<path fill-rule="evenodd" clip-rule="evenodd" fill="#EB2226" d="M301.642,190.36c7.215-19.891,4.147-39.519,3.319-58.746
		c-0.502-11.609-11.531-12.711-20.895-12.805c-22.994-0.23-45.989-0.075-68.983-0.075c-45.606,0-91.214,0.06-136.819-0.125
		c-3.201-0.013-8.859,2.696-9.214-3.25c-0.433-7.232,5.962-4.238,9.331-4.246c80.098-0.174,160.198-0.163,240.293-0.104
		c12.673,0.01,17.185,4.493,17.328,17.114c0.172,14.562,0.095,29.126,0.025,43.689c-0.069,14.168-4.176,18.304-18.266,18.533
		C312.49,190.432,307.219,190.36,301.642,190.36z"/>
	<path fill-rule="evenodd" clip-rule="evenodd" fill="#EB2226" d="M103.708,288.881c-9.17,0-18.361-0.369-27.505,0.129
		c-6.19,0.336-7.831-1.91-7.616-7.811c0.417-11.445,0.321-22.926,0.032-34.383c-0.122-4.846,1.217-6.701,6.354-6.635
		c19.867,0.248,39.739,0.209,59.607,0.023c4.562-0.045,5.876,1.645,5.801,5.994c-0.212,12.223-0.315,24.459,0.035,36.678
		c0.158,5.492-2.43,6.17-6.906,6.07C123.581,288.732,113.644,288.881,103.708,288.881z"/>
	<path fill-rule="evenodd" clip-rule="evenodd" fill="#252425" d="M33.868,227.955c0,4.447-0.187,7.088,0.044,9.691
		c0.356,4.033-1.442,5.449-5.299,5.369c-3.833-0.08-4.156-2.42-4.095-5.346c0.07-3.441-0.208-6.906,0.053-10.328
		c0.599-7.832-3.6-19.969,1.972-22.547c8.306-3.838,19.655-1.814,29.624-1.09c7.005,0.51,8.628,6.17,8.469,12.672
		c-0.157,6.4-0.023,12.66-8.061,14.275C49.341,232.1,42.122,232.189,33.868,227.955z M43.747,224.051
		c5.409,0.83,10.521,0.066,10.688-7.316c0.141-6.295-4.699-7.01-9.386-6.969c-4.634,0.039-10.352-1.316-10.8,6.291
		C33.86,222.682,37.264,224.85,43.747,224.051z"/>
	<path fill-rule="evenodd" clip-rule="evenodd" fill="#252425" d="M329.311,221.396c0.124,5.307,1.902,13.066-10.979,8.248
		c-3.795-1.42-10.748,2.051-16.462,1.813c-3.07-0.131-6.398-0.225-8.407-2.793c-2.552-3.266-2.401-7.311-0.72-10.832
		c2.701-5.656-1.419-16.725,11.395-14.727c2.973,0.463,6.086,0.008,9.132,0.02C328.708,203.182,329.329,203.814,329.311,221.396z
		 M319.145,221.074c-2.16-2.289-4.522-2.035-6.668-1.832c-3.49,0.328-7.564-1.648-10.232,2.121
		c-0.351,0.494,0.252,2.287,0.928,2.775c3.298,2.414,7.162,2.145,10.774,1.17C315.822,224.805,318.566,224.68,319.145,221.074z"/>
	<path fill-rule="evenodd" clip-rule="evenodd" fill="#252425" d="M95.219,210.516c-7.875,0-15.75,0-23.644,0
		c-0.29-5.359,2.302-6.906,6.244-7.051c3.811-0.137,7.622-0.32,11.434-0.328c17.838-0.053,23.405,7.182,18.814,24.16
		c-0.547,2.025-1.079,3.939-3.447,3.473c-8.621-1.705-17.075,1.4-25.651,0.646c-5.657-0.494-9.836-3.066-9.779-8.973
		c0.055-5.631,4.35-8.922,9.507-9.611c5.426-0.723,11.025-0.16,16.549-0.16C95.237,211.951,95.228,211.236,95.219,210.516z
		 M89.45,225.979c1.528-1.996,7.488,0.539,6.591-4.568c-0.742-4.225-5.697-1.891-8.737-2.102c-2.248-0.152-6.315-1.488-6.383,2.295
		C80.835,226.447,85.405,225.432,89.45,225.979z"/>
	<path fill-rule="evenodd" clip-rule="evenodd" fill="#252425" d="M193.52,211.057c-5.411-0.396-9.482-0.689-13.913-1.012
		c6.096-6.967,27.796-10.143,33.547-4.695c6.827,6.467,3.593,15.322,2.797,22.756c-0.562,5.24-6.238,1.477-9.926,1.387
		c-4.705-0.115-9.327,2.652-14.354,2.006c-5.033-0.648-11.157,0.865-12.465-6.725c-1.386-8.041,3.464-10.793,10.106-12.139
		C190.324,212.432,191.272,211.916,193.52,211.057z M208.537,219.16c-8.289,0.818-13.883-2.027-19.248,2.033
		c-0.322,0.242,0.127,2.52,0.716,2.799C195.732,226.699,201.314,227.293,208.537,219.16z"/>
	<path fill-rule="evenodd" clip-rule="evenodd" fill="#252425" d="M244.308,224.248c11.689-3.459,21.458,6.543,31.177-1.529
		c-6.193-4.984-12.905-1.857-18.983-2.604c-5.406-0.666-10.224-1.445-10.236-8.105c-0.017-6.373,4.475-8.482,9.966-8.6
		c7.277-0.152,14.57-0.063,21.841,0.262c2.937,0.127,5.473,2.236,4.827,5.217c-0.591,2.742-3.857,1.795-5.884,1.578
		c-6.75-0.711-13.561-4.502-22.862,1.426c9.324,0.697,15.944,0.982,22.506,1.746c5.011,0.582,8.736,2.914,8.253,8.846
		c-0.445,5.492-3.568,8.428-8.975,8.367C265.833,230.736,254.81,235.027,244.308,224.248z"/>
	<path fill-rule="evenodd" clip-rule="evenodd" fill="#252425" d="M124.902,218.574c-0.251,3.955-0.514,6.199-0.508,8.441
		c0.011,4.023-2.71,3.768-5.488,3.883c-2.866,0.119-4.334-1.064-4.349-3.867c-0.053-10.357,0.035-20.715-0.101-31.072
		c-0.049-3.837,2.096-4.229,5.141-4.277c3.281-0.053,4.959,0.952,4.846,4.529c-0.166,5.193-0.042,10.392-0.042,17.177
		c8.451-4.324,13.026-14.663,23.734-8.463c-3.651,3.482-7.566,7.211-11.366,10.832c3.756,5.814,10.708,8.014,13.651,14.143
		C138.637,235.262,134.093,223.705,124.902,218.574z"/>
	<path fill-rule="evenodd" clip-rule="evenodd" fill="#252425" d="M347.674,213.449c8.569-4.816,13.362-14.549,23.868-8.643
		c-3.703,3.463-7.69,7.193-12.03,11.25c4.982,4.549,9.695,8.85,14.598,13.322c-12.091,6.035-17.099-5.402-24.056-10.043
		c-3.297,2.426-2.344,4.918-2.304,6.984c0.073,3.469-1.219,4.668-4.694,4.629c-3.186-0.037-5.136-0.676-5.121-4.291
		c0.048-10.336,0.06-20.676,0-31.012c-0.024-3.982,2.619-3.78,5.403-3.959c3.763-0.243,4.443,1.761,4.368,4.894
		C347.583,201.547,347.674,206.52,347.674,213.449z"/>
	<path fill-rule="evenodd" clip-rule="evenodd" fill="#252425" d="M164.871,211.795c3.782,0.766,9.428-2.002,8.974,5.234
		c-0.494,7.871-6.647,4.098-10.345,4.471c-3.586,0.363-9.118,2.057-8.727-4.992C155.217,208.508,161.657,213.445,164.871,211.795z"
		/>
	<path fill-rule="evenodd" clip-rule="evenodd" fill="#252425" d="M232.043,222.102c-3.903-1.875-10.477,2.949-10.636-5.217
		c-0.163-8.252,6.365-4.605,9.938-4.729c3.646-0.125,10.027-3.123,9.737,5.055C240.817,224.688,234.724,220.061,232.043,222.102z"/>
	<path fill-rule="evenodd" clip-rule="evenodd" fill="#EFE7E8" d="M43.747,224.051c-6.483,0.799-9.887-1.369-9.498-7.994
		c0.448-7.607,6.166-6.252,10.8-6.291c4.687-0.041,9.527,0.674,9.386,6.969C54.267,224.117,49.156,224.881,43.747,224.051z"/>
	<path fill-rule="evenodd" clip-rule="evenodd" fill="#EFE7E8" d="M319.145,221.074c-0.578,3.605-3.322,3.73-5.198,4.234
		c-3.612,0.975-7.477,1.244-10.774-1.17c-0.676-0.488-1.278-2.281-0.928-2.775c2.668-3.77,6.742-1.793,10.232-2.121
		C314.622,219.039,316.984,218.785,319.145,221.074z"/>
	<path fill-rule="evenodd" clip-rule="evenodd" fill="#EFE7E8" d="M89.45,225.979c-4.045-0.547-8.615,0.469-8.529-4.375
		c0.067-3.783,4.135-2.447,6.383-2.295c3.04,0.211,7.996-2.123,8.737,2.102C96.938,226.518,90.978,223.982,89.45,225.979z"/>
	<path fill-rule="evenodd" clip-rule="evenodd" fill="#EFE7E8" d="M208.537,219.16c-7.223,8.133-12.805,7.539-18.532,4.832
		c-0.588-0.279-1.038-2.557-0.716-2.799C194.654,217.133,200.248,219.979,208.537,219.16z"/>
</g>
</svg>
