<?xml version="1.0" encoding="utf-8"?>
<!-- Generator: Adobe Illustrator 16.0.0, SVG Export Plug-In . SVG Version: 6.00 Build 0)  -->
<!DOCTYPE svg PUBLIC "-//W3C//DTD SVG 1.1//EN" "http://www.w3.org/Graphics/SVG/1.1/DTD/svg11.dtd">
<svg version="1.1"
	 id="svg2" xmlns:dc="http://purl.org/dc/elements/1.1/" xmlns:cc="http://creativecommons.org/ns#" xmlns:rdf="http://www.w3.org/1999/02/22-rdf-syntax-ns#" xmlns:svg="http://www.w3.org/2000/svg"
	 xmlns="http://www.w3.org/2000/svg" xmlns:xlink="http://www.w3.org/1999/xlink" x="0px" y="0px" width="4581.236px"
	 height="1944.429px" viewBox="0 0 4581.236 1944.429" enable-background="new 0 0 4581.236 1944.429" xml:space="preserve">
<g>
	<g id="g14" transform="scale(2.10807)">
		<path id="path16" fill="#077954" d="M2093.443,406.964c-153.467-88.378-507.254-178.29-656.88-190.209l-112.703-9.035
			c-120.217-9.784-186.567-15.03-237.324-15.03s-349.835,24.226-349.835,24.226C587.002,228.832,233.29,318.72,79.752,407.12
			C7.807,448.447,0,477.895,0,575.57v249.005c0,20.253,2.443,49.701,23.558,72.068c24.338,25.732,55.861,25.732,92.375,25.732
			h1941.363c36.467,0,67.987,0,92.334-25.732c21.107-22.367,23.56-51.814,23.56-72.068V575.436
			C2173.19,477.758,2165.376,448.447,2093.443,406.964z"/>
	</g>
	<g id="g18" transform="scale(2.10807)">
		<path id="path20" d="M2093.443,406.964c-153.467-88.378-507.254-178.29-656.88-190.209l-112.703-9.035
			c-120.217-9.784-186.567-15.03-237.324-15.03c-50.756,0-349.835,24.226-349.835,24.226
			C587.002,228.832,233.29,318.72,79.752,407.12C7.807,448.447,0,477.895,0,575.57v249.005c0,20.253,2.443,49.701,23.558,72.068
			c24.338,25.732,55.861,25.732,92.375,25.732h1941.363c36.467,0,67.987,0,92.334-25.732c21.107-22.369,23.56-51.814,23.56-72.068
			V575.436C2173.19,477.758,2165.376,448.447,2093.443,406.964 M2093.443,406.964c71.933,41.483,79.747,70.794,79.747,168.473
			v249.138c0,20.253-2.453,49.698-23.56,72.068c-24.347,25.732-55.867,25.732-92.334,25.732H115.933
			c-36.514,0-68.037,0-92.375-25.732C2.443,874.276,0,844.828,0,824.575V575.57c0-97.675,7.807-127.123,79.752-168.45
			c153.537-88.4,507.25-178.288,656.949-190.204c0,0,299.079-24.226,349.835-24.226c50.757,0,117.107,5.245,237.324,15.03
			l112.703,9.035C1586.19,228.673,1939.977,318.586,2093.443,406.964z"/>
	</g>
	<g id="g22" transform="scale(2.08509)">
		<path id="path24" fill="#FFFFFF" d="M2172.948,833.508c0,15.919-1.707,38.893-16.72,54.774
			c-17.533,18.539-42.147,18.539-76.254,18.499H117.289c-34.184,0-58.716,0-76.258-18.499
			c-15.015-15.879-16.716-38.855-16.716-54.774V581.776c0-95.411,8.228-113.395,68.028-147.833
			c152.523-87.935,505.162-177.41,654.382-189.263l113.944-9.154c121.168-13.866,188.425-18.38,238.796-18.38
			c50.365,0,126.664,3.188,237.35,18.38l113.947,9.154c149.307,11.853,501.893,101.328,654.4,189.263
			c59.773,34.44,68.027,52.421,68.027,147.833v251.731H2172.948z"/>
	</g>
	<g id="g26" transform="scale(2.08509)">
		<path id="path28" d="M2172.948,833.508c0,15.919-1.707,38.893-16.72,54.774c-17.533,18.539-42.147,18.539-76.254,18.499H117.289
			c-34.184,0-58.716,0-76.258-18.499c-15.015-15.879-16.716-38.855-16.716-54.774V581.776c0-95.411,8.228-113.395,68.028-147.833
			c152.523-87.935,505.162-177.41,654.382-189.263l113.944-9.154c121.171-13.866,188.425-18.38,238.796-18.38
			c50.365,0,126.661,3.188,237.35,18.38l113.947,9.154c149.307,11.853,501.893,101.328,654.4,189.263
			c59.773,34.44,68.027,52.421,68.027,147.833v251.731H2172.948 M2172.948,833.508h0.24V581.776
			c0-95.411-8.253-113.393-68.027-147.833c-152.507-87.935-505.093-177.41-654.4-189.263l-113.947-9.154
			c-110.689-15.193-186.985-18.38-237.35-18.38c-50.371,0-117.625,4.514-238.796,18.38l-113.944,9.154
			c-149.22,11.853-501.859,101.328-654.382,189.263c-59.8,34.437-68.028,52.421-68.028,147.833v251.731
			c0,15.919,1.701,38.895,16.716,54.774c17.542,18.499,42.074,18.499,76.258,18.499h1962.686c34.107,0.04,58.72,0.04,76.253-18.499
			C2171.241,872.401,2172.948,849.427,2172.948,833.508L2172.948,833.508z"/>
	</g>
	<g id="g30" transform="scale(1.51017)">
		<path id="path32" fill="#DF2A27" d="M2173.133,182.699l-19.613-6.173c-5.24-1.476-131.733-35.777-173.8-36.708l9.534-50.668
			c0.547-4.041-0.707-8.139-3.44-11.17C1967.973,53.7,1781.76,0,1514.666,0c-263.776-0.003-456.71,49.705-474.903,71.584
			c-2.652,2.791-3.826,6.691-3.141,10.488l12.726,57.689c-41.953,1.2-168.272,35.458-173.789,36.706L856,182.586l11.855,13.609
			l74.732,79.34l-16.203,134.493l-1.994,18.328l17.096-4.267c15.733-3.873,33.081-9.067,51.549-14.584
			c42.741-12.668,91.191-27.04,125.117-27.04c0.272,0,25.431-0.545,50.259-2.676c8.684-0.79,13.414-3.3,14.476-7.729
			c2.811-11.632-26.221-31.462-33.789-36.105c13.113-11.501,214.661-33.429,365.568-32.694h6.56
			c150.627,0,347.64,21.548,359.16,32.584c-7.427,4.754-36.707,24.528-33.92,36.22c1.066,4.426,5.76,6.936,14.48,7.726
			c24.786,2.131,49.973,2.676,50.28,2.676c33.893,0,82.347,14.372,125.093,27.04c18.427,5.245,35.92,10.491,51.48,14.588
			l17.16,4.263l-18.2-152.821l74.787-79.395L2173.133,182.699z"/>
	</g>
	<g id="g34" transform="scale(1.51017)">
		<path id="path36" d="M2173.133,182.699l-19.613-6.173c-5.24-1.476-131.733-35.777-173.8-36.708l9.534-50.668
			c0.547-4.038-0.707-8.139-3.44-11.17C1967.973,53.7,1781.76,0,1514.666,0c-263.776-0.003-456.71,49.708-474.903,71.584
			c-2.652,2.791-3.826,6.691-3.141,10.488l12.726,57.689c-36.858,1.055-138.85,27.628-166.809,34.912
			c-3.861,1.004-6.311,1.645-6.98,1.793L856,182.586l11.855,13.609l74.732,79.34l-16.203,134.493l-1.994,18.328l17.096-4.267
			c15.498-3.813,32.58-8.915,50.738-14.344l0.811-0.24c0.041-0.015,0.055-0.019,0.1-0.032
			c42.718-12.66,91.118-27.008,125.017-27.008c0.272,0,25.431-0.545,50.259-2.676c8.684-0.79,13.414-3.3,14.476-7.729
			c2.811-11.632-26.221-31.462-33.789-36.105c13.113-11.501,214.661-33.429,365.568-32.694h6.56
			c150.627,0,347.64,21.548,359.16,32.584c-7.427,4.754-36.707,24.528-33.92,36.22c1.066,4.426,5.76,6.936,14.48,7.726
			c24.786,2.131,49.973,2.676,50.28,2.676c33.867,0,82.254,14.342,124.96,27.001c-0.067-0.021,0.2,0.059,0.133,0.039
			c5.827,1.659,11.573,3.32,17.173,4.941c5.374,1.552,10.614,3.07,15.733,4.525c6.44,1.831,12.64,3.561,18.573,5.122l17.16,4.263
			l-18.2-152.821l74.787-79.395L2173.133,182.699 M2173.133,182.699l-11.586,13.441l-74.787,79.395l18.2,152.821l-17.16-4.263
			c-5.933-1.561-12.133-3.291-18.573-5.122c-5.12-1.456-10.359-2.973-15.733-4.525c-5.6-1.621-11.346-3.282-17.173-4.941
			c0.067,0.02-0.2-0.06-0.133-0.039c-42.707-12.66-91.093-27.001-124.96-27.001c-0.307,0-25.493-0.545-50.28-2.676
			c-8.72-0.79-13.414-3.301-14.48-7.726c-2.787-11.692,26.493-31.466,33.92-36.22c-11.52-11.036-208.533-32.584-359.16-32.584h-6.56
			c-150.907-0.735-352.455,21.194-365.568,32.694c7.568,4.643,36.6,24.473,33.789,36.105c-1.063,4.43-5.792,6.94-14.476,7.729
			c-24.828,2.131-49.987,2.676-50.259,2.676c-33.898,0-82.299,14.348-125.017,27.008c-0.045,0.013-0.059,0.017-0.1,0.032
			l-0.811,0.24c-18.158,5.429-35.24,10.531-50.738,14.344l-17.096,4.267l1.994-18.328l16.203-134.493l-74.732-79.34L856,182.585
			l19.559-6.118c0.669-0.148,3.12-0.79,6.98-1.793c27.96-7.284,129.952-33.857,166.809-34.912l-12.726-57.689
			c-0.684-3.797,0.49-7.697,3.141-10.488C1057.957,49.708,1250.89-0.003,1514.666,0c267.093,0,453.307,53.7,471.147,77.979
			c2.733,3.032,3.987,7.132,3.44,11.171l-9.533,50.668c42.066,0.931,168.56,35.232,173.8,36.708L2173.133,182.699z"/>
	</g>
	<g id="g38" transform="scale(1.36158)">
		<path id="path40" fill="#077954" d="M2118.404,358.413l-4.427-3.428c-17.453-16.868-240.32-43.863-429.6-41.258
			c-189.613-2.67-426.263,28.445-438.844,46.531l-2.022,2.18l-1.458-5.819c-0.483-2.448-51.954-240.921-54.861-253.494
			c0.272-2.181,1.239-4.212,2.731-5.816c18.441-23.785,234.748-70.252,494.401-70.252c112.987,0.547,225.706,10.96,336.893,31.107
			c81.826,14.853,140.467,30.546,150.533,43.504c1.12,2.272,1.361,4.847,0.694,7.275c-2.906,12.509-48.44,223.537-48.934,225.905
			L2118.404,358.413z"/>
	</g>
	<g id="g42" transform="scale(1.36158)">
		<path id="path44" d="M2118.404,358.413l-4.427-3.428c-17.453-16.868-240.32-43.863-429.6-41.258
			c-189.613-2.67-426.263,28.445-438.844,46.531l-2.022,2.18l-1.458-5.819c-0.483-2.451-51.95-240.917-54.861-253.494
			c0.272-2.181,1.239-4.212,2.731-5.816c18.441-23.785,234.748-70.252,494.401-70.252c112.987,0.547,225.706,10.96,336.893,31.107
			c81.826,14.853,140.467,30.546,150.533,43.504c1.12,2.272,1.361,4.847,0.694,7.275c-2.906,12.512-48.44,223.533-48.934,225.905
			L2118.404,358.413 M2118.404,358.413l5.107-23.567c0.493-2.373,46.027-213.394,48.934-225.905
			c0.667-2.428,0.427-5.003-0.694-7.275c-10.066-12.957-68.707-28.651-150.533-43.504c-111.187-20.147-223.906-30.56-336.893-31.107
			c-259.653,0-475.96,46.467-494.401,70.252c-1.492,1.604-2.459,3.635-2.731,5.816c2.911,12.577,54.379,251.043,54.861,253.494
			l1.458,5.819l2.022-2.18c12.582-18.086,249.231-49.2,438.844-46.531c189.28-2.604,412.147,24.391,429.6,41.258L2118.404,358.413z"
			/>
	</g>
	<path id="path46" fill="#077954" d="M1657.417,526.811l-65.253-283.28h-1.44c-50.187,0-234.826,49.493-234.826,49.493
		l105.026,110.867l-22.573,195.773c0,0,63.36-16.467,92.601-24.467c33.253-9.28,64.6-17.987,91.613-23.747
		c16.826-3.521,33.866-5.786,50.986-6.733l13.56-0.946l-6.093-3.427L1657.417,526.811z"/>
	<path id="path48" d="M1657.417,526.811l-65.253-283.28h-1.44c-50.187,0-234.826,49.493-234.826,49.493l105.026,110.867
		l-22.573,195.773c0.014,0,63.36-16.467,92.601-24.467c33.253-9.28,64.6-17.987,91.613-23.747
		c16.826-3.521,33.866-5.786,50.986-6.733l13.56-0.946l-6.093-3.427L1657.417,526.811 M1657.417,526.811l23.601,13.533l6.093,3.427
		l-13.56,0.946c-17.12,0.947-34.16,3.213-50.986,6.733c-27.014,5.76-58.36,14.467-91.613,23.747
		c-29.24,8-92.587,24.467-92.601,24.467l22.573-195.773l-105.026-110.867c0,0,184.64-49.493,234.826-49.493h1.44L1657.417,526.811z"
		/>
	<g id="g50" transform="scale(1.48079)">
		<path id="path52" fill="#077954" d="M1969.529,359.384l44.066-191.336h0.987c33.893,0,158.546,33.487,158.546,33.487
			l-70.92,74.539l15.267,132.203c0,0-42.787-11.118-62.534-16.517c-22.453-6.219-43.653-12.094-61.866-16.045
			c-11.374-2.424-22.893-3.958-34.52-4.541l-9.08-0.7l4.134-2.311L1969.529,359.384z"/>
	</g>
	<g id="g54" transform="scale(1.48079)">
		<path id="path56" d="M1969.529,359.384l44.066-191.336h0.987c33.893,0,158.546,33.487,158.546,33.487l-70.92,74.539
			l15.267,132.203c0.013,0.003-42.8-11.122-62.534-16.517l-0.453-0.124c-22.28-6.172-43.32-11.997-61.414-15.921
			c-11.374-2.424-22.907-3.958-34.52-4.542l-9.08-0.7l4.134-2.311L1969.529,359.384 M1969.529,359.384l-15.92,8.778l-4.134,2.311
			l9.08,0.7c11.614,0.584,23.147,2.118,34.52,4.542c18.094,3.924,39.133,9.749,61.414,15.921l0.453,0.124
			c19.734,5.395,62.547,16.52,62.534,16.517l-15.267-132.203l70.92-74.539c0,0-124.653-33.487-158.546-33.487h-0.987
			L1969.529,359.384z"/>
	</g>
	<path id="path58" fill="#DF2A27" d="M369.995,1468.3l-11.219,1.322c0.489,77.166,1.02,154.303,1.561,231.525l-159.952,0.697
		v-612.201c55.468-20.746,111.244-40.631,167.25-59.689c132.942-46.482,215.901,0.543,218.089,171.506
		C587.952,1370.711,505.364,1453.867,369.995,1468.3L369.995,1468.3z M378.495,1176.226l-21.704,5.688
		c0.286,53.297,0.666,106.512,1.078,159.76l21.776-4.129c39.593-7.387,56.625-50.783,56.172-98.912
		C435.333,1190.451,418.088,1165.623,378.495,1176.226L378.495,1176.226z"/>
	<path id="path60" d="M369.995,1468.3l-11.219,1.322c0.489,77.182,1.02,154.287,1.561,231.525l-159.952,0.697v-612.201
		c55.468-20.74,111.25-40.631,167.25-59.689c100.803-35.244,172.865-16.734,202.771,68.807
		c9.537,27.273,14.787,61.365,15.318,102.699C587.952,1370.711,505.364,1453.867,369.995,1468.3 M369.995,1468.3
		c135.369-14.434,217.957-97.59,215.729-266.84c-0.531-41.334-5.781-75.426-15.318-102.699
		c-29.905-85.541-101.968-104.051-202.771-68.807c-56,19.059-111.781,38.949-167.25,59.689v612.201l159.952-0.697
		c-0.541-77.238-1.071-154.344-1.561-231.525L369.995,1468.3z M378.495,1176.226l-21.704,5.688v0.025
		c0.286,53.297,0.666,106.486,1.078,159.734l21.776-4.129c39.593-7.387,56.625-50.783,56.172-98.912
		c-0.412-41.016-12.97-65.109-41.125-64.822C389.776,1173.857,384.38,1174.652,378.495,1176.226 M378.495,1176.226
		c5.885-1.572,11.281-2.369,16.197-2.416c28.155-0.287,40.713,23.807,41.125,64.822c0.453,48.129-16.579,91.525-56.172,98.912
		l-21.776,4.129c-0.412-53.248-0.792-106.438-1.078-159.734v-0.025L378.495,1176.226z"/>
	<path id="path62" fill="#DF2A27" d="M1205.266,1389.804l-14.475,1.031v307.75l-164.339-0.004l-1.281-855.929
		c0,0,114.923-23.76,172.589-34.232c137.018-25.746,241.791,48.254,244.298,261.347
		C1444.457,1280.502,1340.725,1375.695,1205.266,1389.804L1205.266,1389.804z M1210.333,994.685
		c-7.25,1.035-19.215,3.422-19.215,3.422s-0.708,142.551,0,213.176c73.549-6.229,89.954-39.598,89.954-125.354
		C1281.41,1018.535,1250.671,988.91,1210.333,994.685z"/>
	<path id="path64" d="M1205.266,1389.804l-14.475,1.031v307.75l-164.339-0.004l-1.281-855.929c0,0,114.928-23.76,172.589-34.232
		c116.025-21.803,208.924,27.921,236.191,173.056c4.933,26.262,7.72,55.646,8.106,88.291
		C1444.457,1280.502,1340.724,1375.695,1205.266,1389.804 M1205.266,1389.804c135.458-14.109,239.191-109.303,236.792-320.037
		c-0.387-32.645-3.174-62.029-8.107-88.291c-27.267-145.135-120.165-194.859-236.19-173.056
		c-57.661,10.473-172.589,34.232-172.589,34.232l1.281,855.929l164.339,0.004v-307.75L1205.266,1389.804z M1210.333,994.685
		c-7.256,1.035-19.215,3.422-19.215,3.422c0-0.047-0.317,63.4-0.317,126.521c0,31.572,0.079,63.125,0.317,86.654
		c73.549-6.229,89.954-39.598,89.954-125.354c0.313-61.729-25.454-91.771-60.781-91.949
		C1217.052,993.966,1213.724,994.201,1210.333,994.685 M1210.333,994.685c3.391-0.484,6.719-0.719,9.958-0.705
		c35.327,0.178,61.094,30.221,60.781,91.949c0,85.756-16.405,119.125-89.954,125.354c-0.238-23.529-0.317-55.082-0.317-86.654
		c0-63.121,0.317-126.568,0.317-126.521C1191.118,998.107,1203.077,995.72,1210.333,994.685z"/>
	<g id="g66" transform="scale(1.8632)">
		<path id="path68" fill="#DF2A27" d="M2152.891,594.298c-11.641-2.147-23.307-4.253-35.027-6.333
			c2.854-28.336,6.56-57.626,9.387-85.519c15.28,4.25,30.773,9.368,45.92,13.902C2166.838,541.608,2159.317,567.78,2152.891,594.298
			L2152.891,594.298z"/>
	</g>
	<g id="g70" transform="scale(1.8632)">
		<path id="path72" d="M2152.891,594.298c-11.641-2.147-23.307-4.253-35.027-6.333c1.454-14.44,3.134-29.128,4.8-43.75
			c1.6-14.042,3.213-28.124,4.587-41.768c9.586,2.664,19.253,5.672,28.867,8.663c5.72,1.778,11.4,3.548,17.053,5.239
			c-2.8,11.171-5.853,22.573-8.92,34.054c-3.133,11.749-6.32,23.677-9.32,35.644
			C2154.238,588.799,2153.557,591.538,2152.891,594.298 M2152.891,594.298c0.666-2.76,1.346-5.499,2.04-8.252
			c3-11.967,6.186-23.895,9.32-35.644c3.067-11.481,6.12-22.883,8.92-34.054c-5.653-1.691-11.333-3.46-17.053-5.239
			c-9.613-2.991-19.28-5.999-28.867-8.663c-1.373,13.644-2.987,27.727-4.587,41.768c-1.666,14.622-3.346,29.31-4.8,43.75
			C2129.584,590.045,2141.25,592.151,2152.891,594.298z"/>
	</g>
	<g id="g74" transform="scale(1.8034)">
		<path id="path76" fill="#DF2A27" d="M2173.166,899.498c0-17.999,0-35.771,0-53.311V512.434l-2.333-0.602
			c-26.88-6.993-43.92-11.48-72.053-18.619l-0.934-0.267c0,5.873,0,11.641,0,17.293v208.953
			c-22.64-85.153-47.786-154.661-73.653-242.372c-1.44,0-2.92-0.347-4.387-0.573l-80.786-17.292v281.306
			c-1.013,65.393-2.027,131.448-3.04,201.278l86.574-0.002V703.207c21.959,81.813,50.706,161.48,71.88,238.584l78.733-0.004
			L2173.166,899.498z"/>
	</g>
	<g id="g78" transform="scale(1.8034)">
		<path id="path80" d="M2173.166,899.498V512.433l-2.333-0.601l-13.707-3.572l-11.507-2.997c-14.773-3.844-28.427-7.38-46.84-12.05
			l-0.933-0.268v17.294v208.953c-13.507-50.77-27.894-95.982-42.787-142.803c-10.093-31.725-20.413-64.137-30.867-99.569
			c-1.08,0-2.187-0.196-3.279-0.386c-0.361-0.064-0.747-0.133-1.107-0.188l-80.787-17.292v281.306l-0.027,1.958l-0.253,15.909
			l-0.24,15.982c-0.84,54.302-1.68,109.718-2.52,167.429l86.574-0.002V703.207c11.52,42.952,24.92,85.311,38.12,127.017
			c11.933,37.727,23.707,74.948,33.76,111.567l78.734-0.004V899.498 M2173.166,899.498v42.289l-78.734,0.004
			c-10.053-36.618-21.827-73.839-33.76-111.567c-13.2-41.706-26.6-84.065-38.12-127.017v238.329l-86.574,0.002
			c0.84-57.711,1.68-113.127,2.52-167.429l0.24-15.982l0.253-15.909l0.027-1.958V458.955l80.787,17.292
			c0.36,0.055,0.746,0.124,1.107,0.188c1.093,0.19,2.2,0.386,3.279,0.386c10.453,35.432,20.773,67.844,30.867,99.569
			c14.893,46.821,29.28,92.033,42.787,142.803V510.239v-17.293l0.933,0.268c18.414,4.669,32.067,8.206,46.84,12.049l11.507,2.997
			l13.707,3.572l2.333,0.601V899.498z"/>
	</g>
	<g id="g82" transform="scale(1.58404)">
		<path id="path84" fill="#DF2A27" d="M2173.143,516.705l-2.32-0.339c-35-6.067-102.227-16.252-102.227-16.252v213.789h-76.453
			V510.398c0-6.845,0-13.379,0-19.451l-13.04-1.74l-82.293-11.307l-12.933-1.793v6.147c-0.973,103.739-0.534,199.986,0,293.671
			v295.506h108.16V851.888h76.613v219.542h104.44L2173.143,516.705z"/>
	</g>
	<g id="g86" transform="scale(1.58404)">
		<path id="path88" d="M2173.143,516.705l-2.32-0.339c-35-6.067-102.227-16.252-102.227-16.252v213.789h-76.453V490.947l-13.04-1.74
			l-82.293-11.307l-12.933-1.793v6.147c-0.973,103.779-0.534,199.946,0,293.671v295.506h108.16V851.888h76.613v219.542h104.44
			L2173.143,516.705 M2173.142,516.705l-0.053,554.726h-104.44V851.888h-76.613v219.542h-108.16V775.924
			c-0.534-93.724-0.973-189.892,0-293.671v-6.147l12.933,1.793l82.293,11.307l13.04,1.74v222.956h76.453V500.114
			c0,0,67.227,10.185,102.227,16.252L2173.142,516.705z"/>
	</g>
	<g id="g90" transform="scale(2.02659)">
		<path id="path92" fill="#DF2A27" d="M2087.371,623.845c-12.827-13.677-20.387-25.135-20.387-34.701
			c0-10.54,3.907-19.785,15.933-19.146c14.147,0.789,16.44,18.476,17.12,30.161c0,2.627,0.347,5.309,0.507,7.816h71.16
			c-2.186-62.525-25.067-100.976-79.947-111.988c-52.253-10.48-102.4,13.087-103.213,78.159
			c-0.506,40.097,17.24,75.961,46.893,105.103c13.453,13.397,26.907,26.422,40.4,39.08c12.906,12.05,19.533,20.498,19.307,29.308
			c0,10.792-5.813,19.54-17.787,19.54c-14.4,0-20.773-14.61-21.399-26.844c-0.227-4.924-0.44-10.463-0.48-15.858h-71.52
			c0,3.566,0,7.105,0,10.666c-0.853,66.212,36.28,107.586,90.56,107.586c63.413,0,98.666-40.054,98.546-93.787
			c0-31.767-18.28-56.272-46.146-84.525C2113.69,651.327,2100.504,637.81,2087.371,623.845z"/>
	</g>
	<g id="g94" transform="scale(2.02648)">
		<path id="path96" d="M2087.491,623.878c-12.827-13.677-20.4-25.136-20.4-34.701c0-10.196,3.666-19.181,14.787-19.181
			c0.373,0,0.76,0.01,1.159,0.032c14.147,0.789,16.44,18.478,17.12,30.164c0,1.779,0.147,3.581,0.307,5.338
			c0.067,0.848,0.146,1.662,0.2,2.477h71.16c-2.187-62.528-25.067-100.979-79.96-111.993c-46.427-9.313-91.2,8.262-101.173,57.954
			c-1.24,6.227-1.946,12.959-2.04,20.208c-0.507,40.1,17.24,75.967,46.893,105.109c13.453,13.395,26.92,26.426,40.4,39.081
			c12.906,12.052,19.546,20.5,19.32,29.309c0,10.793-5.813,19.542-17.786,19.542c-14.413,0-20.786-14.611-21.413-26.846
			c-0.227-4.927-0.427-10.464-0.467-15.857h-71.52v10.665c-0.854,65.655,35.64,106.892,89.173,107.584
			c0.466,0.005,0.92,0.008,1.373,0.008c63.32,0,98.561-39.92,98.561-93.52c0-0.121,0-0.152,0-0.273
			c0-31.769-18.281-56.275-46.147-84.529C2113.811,651.361,2100.625,637.845,2087.491,623.878 M2087.491,623.878
			c13.134,13.966,26.321,27.483,39.547,40.573c27.866,28.254,46.147,52.76,46.147,84.529c0,0.12,0,0.151,0,0.273
			c0,53.6-35.241,93.52-98.561,93.52c-0.453,0-0.907-0.003-1.373-0.008c-53.533-0.692-90.027-41.929-89.173-107.584v-10.665h71.52
			c0.04,5.393,0.24,10.93,0.467,15.857c0.627,12.234,7,26.846,21.413,26.846c11.973,0,17.786-8.749,17.786-19.542
			c0.227-8.809-6.413-17.257-19.32-29.309c-13.48-12.656-26.947-25.686-40.4-39.081c-29.653-29.142-47.4-65.009-46.893-105.109
			c0.093-7.249,0.8-13.981,2.04-20.208c9.973-49.693,54.747-67.268,101.173-57.954c54.893,11.013,77.773,49.465,79.96,111.993
			h-71.16c-0.053-0.815-0.133-1.629-0.2-2.477c-0.16-1.757-0.307-3.558-0.307-5.338c-0.68-11.686-2.973-29.375-17.12-30.164
			c-0.4-0.022-0.787-0.032-1.159-0.032c-11.12,0-14.787,8.985-14.787,19.181C2067.091,598.742,2074.664,610.201,2087.491,623.878
			L2087.491,623.878z"/>
	</g>
	<path id="path98" fill="#DF2A27" d="M850.49,881.216c-57.084,13.865-114.011,28.625-170.766,44.265
		c-41.5,270.615-83.442,529.412-126.13,774.83l160.035-0.453c3.011-31.053,9.282-93.631,9.282-93.631h94.453
		c0,0,7.917,61.088,11.683,93.225h165.275C946.348,1416.529,898.422,1143.758,850.49,881.216z M736.932,1461.492
		c0,0,18.692-190.072,27.391-285.104l1.735-0.006c11.009,91.619,35.723,285.109,35.723,285.109H736.932z"/>
	<path id="path100" d="M850.49,881.216c-57.084,13.865-114.011,28.625-170.766,44.265c-41.5,270.615-83.442,529.408-126.13,774.83
		l160.035-0.453c3.011-31.063,9.276-93.621,9.282-93.631h94.453c0.011,0.078-0.011-0.057,0.005,0.063
		c0.281,2.156,7.979,61.604,11.678,93.162h165.275C946.348,1416.529,898.422,1143.758,850.49,881.216 M850.49,881.216
		c47.933,262.542,95.858,535.313,143.833,818.235H829.047c-3.699-31.559-11.396-91.006-11.678-93.162
		c-0.016-0.119,0.006,0.016-0.005-0.063h-94.453c-0.006,0.01-6.271,62.568-9.282,93.631l-160.035,0.453
		c42.688-245.422,84.63-504.215,126.13-774.83C736.479,909.841,793.406,895.081,850.49,881.216L850.49,881.216z M736.932,1461.492
		c0.006-0.016,18.692-190.057,27.391-285.104l1.735-0.006c11.015,91.66,35.719,285.063,35.723,285.109H736.932 M736.932,1461.492
		h64.849c-0.004-0.047-24.708-193.449-35.723-285.109l-1.735,0.006C755.625,1271.435,736.938,1461.476,736.932,1461.492z"/>
	<path id="path102" fill="#DF2A27" d="M1759.018,742.294c-60.174,6.599-161.934,16.62-223.24,23.135
		c-44.84,319.881-89,624.631-132.906,932.704l179.066-0.006l9.733-112.764h118.333c0,0,7.92,74.822,12.094,112.848h182.146
		C1856.285,1373.638,1808.764,1058.629,1759.018,742.294L1759.018,742.294z M1610.071,1413.238l38.654-344.094h3.053l46.106,343.719
		L1610.071,1413.238z"/>
	<path id="path104" d="M1759.018,742.294c-34.28,3.761-81.947,8.62-128.04,13.317c-34.827,3.547-68.827,7.017-95.2,9.817
		c-29.906,213.417-59.479,419.723-88.906,625.163c-14.721,102.65-29.36,204.834-44,307.541l179.066-0.004l9.733-112.766h118.333
		c0,0,7.92,74.822,12.094,112.848h182.146C1856.285,1373.658,1808.764,1058.601,1759.018,742.294 M1759.018,742.294
		c49.746,316.307,97.267,631.364,145.227,955.917h-182.146c-4.174-38.025-12.094-112.848-12.094-112.848h-118.333l-9.733,112.764
		l-179.066,0.006c14.64-102.707,29.279-204.891,44-307.541c29.426-205.439,59-411.746,88.906-625.163
		c26.373-2.801,60.373-6.271,95.2-9.817C1677.071,750.914,1724.738,746.055,1759.018,742.294L1759.018,742.294z M1610.071,1413.238
		l38.654-344.094h3.053l46.106,343.719L1610.071,1413.238 M1610.071,1413.238l87.813-0.375l-46.106-343.719h-3.053
		L1610.071,1413.238z"/>
	<g id="g106" transform="scale(1.34933)">
		<path id="path108" fill="#DF2A27" d="M2000.909,536.515c-96.08-3.365-171.334,73.517-171.68,206.956
			c-0.36,103.02-0.706,206.038-0.999,309.051c-0.4,132.366,79.052,213.957,173.44,213.779
			c94.373-0.193,166.333-85.359,167.68-214.115c1.066-100.545,1.346-195.671,2.413-296.209
			C2173.109,626.179,2110.07,540.276,2000.909,536.515L2000.909,536.515z M2032.123,1092.264c0,16.209-13.147,29.348-29.347,29.348
			l-5.293-0.004c-16.2,0.004-29.347-13.134-29.347-29.343v-382.08c0-16.204,13.147-29.352,29.347-29.352h5.293
			c16.2,0,29.347,13.147,29.347,29.348V1092.264z"/>
	</g>
	<g id="g110" transform="scale(1.34933)">
		<path id="path112" d="M2000.909,536.515c-93.346-3.268-167.04,69.202-171.467,195.693c-0.133,3.72-0.2,7.449-0.214,11.263
			l-1,309.051c-0.4,131.987,78.6,213.493,172.639,213.776c0.267,0.003,0.534,0.003,0.8,0.003
			c94.373-0.193,166.333-85.359,167.68-214.115c0.533-50.282,0.866-99.167,1.2-148.094c0.346-48.945,0.68-97.784,1.213-148.077
			v-0.038C2173.109,626.179,2110.069,540.276,2000.909,536.515 M2000.909,536.515c109.16,3.761,172.2,89.664,170.853,219.462v0.038
			c-0.533,50.293-0.867,99.132-1.213,148.077c-0.333,48.928-0.667,97.812-1.2,148.094c-1.347,128.756-73.307,213.923-167.68,214.115
			c-0.266,0-0.533,0-0.8-0.003c-94.04-0.284-173.039-81.79-172.639-213.776l1-309.051c0.014-3.814,0.08-7.543,0.214-11.263
			C1833.869,605.717,1907.563,533.247,2000.909,536.515L2000.909,536.515z M2032.122,1092.264c0,16.209-13.147,29.348-29.346,29.348
			l-5.293-0.004c-16.2,0.004-29.347-13.134-29.347-29.343v-382.08c0-16.204,13.147-29.352,29.347-29.352h5.293
			c16.199,0,29.346,13.147,29.346,29.348V1092.264 M2032.122,1092.264V710.179c0-16.2-13.147-29.348-29.346-29.348h-5.293
			c-16.2,0-29.347,13.147-29.347,29.352v382.08c0,16.209,13.147,29.348,29.347,29.343l5.293,0.004
			C2018.975,1121.611,2032.122,1108.472,2032.122,1092.264z"/>
	</g>
	<g id="g114" transform="scale(1.11254)">
		<path id="path116" fill="#DF2A27" d="M2016.235,647.78v693.682c0,12.529-9.013,23.244-21.347,25.44
			c-0.64,0.037-1.267,0.037-1.933,0h-4.187c-14.2-0.042-25.747-11.573-25.773-25.772v-87.908c-44,0-98.507,0.776-142.374,1.413
			c0,21.356,0,70.742,0,91.901c0,110.823,67.707,187.01,168.92,187.01c8.64-0.037,17.28-0.588,25.84-1.736
			c110.787-8.01,156.613-81.495,156.613-247.631l1.066-636.106L2016.235,647.78z"/>
	</g>
	<g id="g118" transform="scale(1.11254)">
		<path id="path120" d="M2016.235,647.78v693.682c0,12.529-9.013,23.244-21.347,25.44c-0.64,0.037-1.267,0.037-1.933,0h-4.187
			c-14.2-0.042-25.747-11.573-25.773-25.772v-87.908c-44,0-98.52,0.776-142.374,1.413v91.901c0,110.823,67.707,187.01,168.92,187.01
			c8.64-0.037,17.28-0.588,25.84-1.736c110.787-8.01,156.613-81.495,156.613-247.631l1.066-636.106L2016.235,647.78
			 M2016.235,647.78l156.826,0.293l-1.066,636.106c0,166.137-45.826,239.621-156.613,247.633c-8.56,1.146-17.2,1.698-25.84,1.734
			c-101.213,0-168.92-76.188-168.92-187.01v-91.901c43.854-0.637,98.373-1.413,142.374-1.413v87.908
			c0.026,14.199,11.573,25.729,25.773,25.772h4.187c0.666,0.037,1.293,0.037,1.933,0c12.334-2.196,21.347-12.91,21.347-25.44V647.78
			z"/>
	</g>
	<path id="path122" fill="#FFFFFF" d="M1877.724,383.144l-29.986-242.827l71.894-8.867c48.479-5.934,86.173,14.733,91.854,60.84
		c5.693,46.067-25.894,78.16-74.36,84.187l-18.934,2.267l12.134,97.84L1877.724,383.144z M1932.058,234.317
		c17.933-1.52,30.56-18.267,27.173-35.92c-2.227-18.227-15.84-26.693-34.6-24.413l-18.854,2.293l7.427,60.36L1932.058,234.317z"/>
	<path id="path124" d="M1877.724,383.144l-29.986-242.827l71.894-8.867c48.479-5.934,86.173,14.733,91.854,60.84
		c5.693,46.067-25.894,78.16-74.36,84.187l-18.934,2.267l12.134,97.84L1877.724,383.144 M1877.724,383.144l52.601-6.56
		l-12.134-97.84l18.934-2.267c48.467-6.026,80.054-38.12,74.36-84.187c-5.681-46.106-43.374-66.773-91.854-60.84l-71.894,8.867
		L1877.724,383.144z M1932.058,234.317c16.853-1.427,29.013-16.293,27.613-32.72c-0.094-1.066-0.228-2.133-0.44-3.2
		c-2.227-18.227-15.84-26.693-34.6-24.413l-18.854,2.293l7.427,60.36L1932.058,234.317 M1932.058,234.317l-18.854,2.32l-7.427-60.36
		l18.854-2.293c18.76-2.28,32.373,6.187,34.6,24.413c0.213,1.067,0.347,2.134,0.44,3.2
		C1961.071,218.024,1948.91,232.89,1932.058,234.317z"/>
	<path id="path126" fill="#FFFFFF" d="M2061.244,360.584l-14.36-244.267l53.174-3.053l14.227,244.146L2061.244,360.584z"/>
	<path id="path128" d="M2061.244,360.584l-14.36-244.267l53.174-3.053l14.227,244.146L2061.244,360.584 M2061.244,360.584
		l53.04-3.173l-14.227-244.146l-53.174,3.053L2061.244,360.584z"/>
	<g id="g130" transform="scale(1.06881)">
		<path id="path132" fill="#FFFFFF" d="M2028.864,330.923l-0.386-33.946l82.399-155.16l-81.507,0.974l-0.506-40.747l139.133-1.627
			l0.386,31.333l-83.36,157.813l87.56-1.053l0.467,40.76L2028.864,330.923z"/>
	</g>
	<g id="g134" transform="scale(1.06881)">
		<path id="path136" d="M2028.864,330.923l-0.386-33.946l82.399-155.16l-81.507,0.974l-0.506-40.747l139.133-1.627l0.386,31.333
			l-83.36,157.813l87.56-1.053l0.467,40.76L2028.864,330.923 M2028.864,330.923l144.187-1.653l-0.467-40.76l-87.56,1.053
			l83.36-157.813l-0.386-31.333l-139.133,1.627l0.506,40.747l81.507-0.974l-82.399,155.16L2028.864,330.923z"/>
	</g>
	<g id="g138" transform="scale(1.16589)">
		<path id="path140" fill="#FFFFFF" d="M2032.433,301.326l1.56-31.093l84.173-137.347l-74.373-3.827l1.84-37.28l127.439,6.36
			l-1.466,28.694l-85.294,139.72l80.133,3.987l-1.8,37.293L2032.433,301.326z"/>
	</g>
	<g id="g142" transform="scale(1.16589)">
		<path id="path144" d="M2032.433,301.326l1.56-31.093l84.173-137.347l-74.373-3.827l1.84-37.28l127.439,6.36l-1.466,28.694
			l-85.294,139.72l80.133,3.987l-1.8,37.293L2032.433,301.326 M2032.433,301.326l132.214,6.507l1.8-37.293l-80.133-3.987
			l85.294-139.72l1.466-28.694l-127.439-6.36l-1.84,37.28l74.373,3.827l-84.173,137.347L2032.433,301.326z"/>
	</g>
	<g id="g146" transform="scale(1.2579)">
		<path id="path148" fill="#FFFFFF" d="M2129.252,300.563l-1.386-24.099l-39.08-5.055l-7.374,23.049l-41.947-5.345l71.56-187
			l42.227,5.413l19.839,198.575L2129.252,300.563z M2123.546,168.353h-0.654l-23.907,72.888l28.133,3.605L2123.546,168.353z"/>
	</g>
	<g id="g150" transform="scale(1.2579)">
		<path id="path152" d="M2129.252,300.563l-1.386-24.099l-39.08-5.055l-7.374,23.049l-41.947-5.345l71.56-187l42.227,5.413
			l19.839,198.575L2129.252,300.563 M2129.252,300.563l43.84,5.539l-19.839-198.575l-42.227-5.413l-71.56,187l41.947,5.345
			l7.374-23.049l39.08,5.054L2129.252,300.563z M2123.546,168.353h-0.654l-23.907,72.888l28.133,3.605L2123.546,168.353
			 M2123.546,168.353l3.573,76.493l-28.133-3.605l23.907-72.888H2123.546z"/>
	</g>
</g>
</svg>
