<svg enable-background="new 0 0 4581.236 1944.429" height="1944.429" viewBox="0 0 4581.236 1944.429" width="4581.236" xmlns="http://www.w3.org/2000/svg"><path d="m2093.443 406.964c-153.467-88.378-507.254-178.29-656.88-190.209l-112.703-9.035c-120.217-9.784-186.567-15.03-237.324-15.03s-349.835 24.226-349.835 24.226c-149.699 11.916-503.411 101.804-656.949 190.204-71.945 41.327-79.752 70.775-79.752 168.45v249.005c0 20.253 2.443 49.701 23.558 72.068 24.338 25.732 55.861 25.732 92.375 25.732h1941.363c36.467 0 67.987 0 92.334-25.732 21.107-22.367 23.56-51.814 23.56-72.068v-249.139c0-97.678-7.814-126.989-79.747-168.472z" fill="#077954" transform="scale(2.10807)"/><path d="m2093.443 406.964c-153.467-88.378-507.254-178.29-656.88-190.209l-112.703-9.035c-120.217-9.784-186.567-15.03-237.324-15.03-50.756 0-349.835 24.226-349.835 24.226-149.699 11.916-503.411 101.804-656.949 190.204-71.945 41.327-79.752 70.775-79.752 168.45v249.005c0 20.253 2.443 49.701 23.558 72.068 24.338 25.732 55.861 25.732 92.375 25.732h1941.363c36.467 0 67.987 0 92.334-25.732 21.107-22.369 23.56-51.814 23.56-72.068v-249.139c0-97.678-7.814-126.989-79.747-168.472m0 0c71.933 41.483 79.747 70.794 79.747 168.473v249.138c0 20.253-2.453 49.698-23.56 72.068-24.347 25.732-55.867 25.732-92.334 25.732h-1941.363c-36.514 0-68.037 0-92.375-25.732-21.115-22.367-23.558-51.815-23.558-72.068v-249.005c0-97.675 7.807-127.123 79.752-168.45 153.537-88.4 507.25-178.288 656.949-190.204 0 0 299.079-24.226 349.835-24.226 50.757 0 117.107 5.245 237.324 15.03l112.703 9.035c149.627 11.918 503.414 101.831 656.88 190.209z" transform="scale(2.10807)"/><path d="m2172.948 833.508c0 15.919-1.707 38.893-16.72 54.774-17.533 18.539-42.147 18.539-76.254 18.499h-1962.685c-34.184 0-58.716 0-76.258-18.499-15.015-15.879-16.716-38.855-16.716-54.774v-251.732c0-95.411 8.228-113.395 68.028-147.833 152.523-87.935 505.162-177.41 654.382-189.263l113.944-9.154c121.168-13.866 188.425-18.38 238.796-18.38 50.365 0 126.664 3.188 237.35 18.38l113.947 9.154c149.307 11.853 501.893 101.328 654.4 189.263 59.773 34.44 68.027 52.421 68.027 147.833v251.731h-.241z" fill="#fff" transform="scale(2.08509)"/><path d="m2172.948 833.508c0 15.919-1.707 38.893-16.72 54.774-17.533 18.539-42.147 18.539-76.254 18.499h-1962.685c-34.184 0-58.716 0-76.258-18.499-15.015-15.879-16.716-38.855-16.716-54.774v-251.732c0-95.411 8.228-113.395 68.028-147.833 152.523-87.935 505.162-177.41 654.382-189.263l113.944-9.154c121.171-13.866 188.425-18.38 238.796-18.38 50.365 0 126.661 3.188 237.35 18.38l113.947 9.154c149.307 11.853 501.893 101.328 654.4 189.263 59.773 34.44 68.027 52.421 68.027 147.833v251.731h-.241m0 .001h.24v-251.732c0-95.411-8.253-113.393-68.027-147.833-152.507-87.935-505.093-177.41-654.4-189.263l-113.947-9.154c-110.689-15.193-186.985-18.38-237.35-18.38-50.371 0-117.625 4.514-238.796 18.38l-113.944 9.154c-149.22 11.853-501.859 101.328-654.382 189.263-59.8 34.437-68.028 52.421-68.028 147.833v251.731c0 15.919 1.701 38.895 16.716 54.774 17.542 18.499 42.074 18.499 76.258 18.499h1962.686c34.107.04 58.72.04 76.253-18.499 15.014-15.88 16.721-38.854 16.721-54.773z" transform="scale(2.08509)"/><path d="m2173.133 182.699-19.613-6.173c-5.24-1.476-131.733-35.777-173.8-36.708l9.534-50.668c.547-4.041-.707-8.139-3.44-11.17-17.841-24.28-204.054-77.98-471.148-77.98-263.776-.003-456.71 49.705-474.903 71.584-2.652 2.791-3.826 6.691-3.141 10.488l12.726 57.689c-41.953 1.2-168.272 35.458-173.789 36.706l-19.559 6.119 11.855 13.609 74.732 79.34-16.203 134.493-1.994 18.328 17.096-4.267c15.733-3.873 33.081-9.067 51.549-14.584 42.741-12.668 91.191-27.04 125.117-27.04.272 0 25.431-.545 50.259-2.676 8.684-.79 13.414-3.3 14.476-7.729 2.811-11.632-26.221-31.462-33.789-36.105 13.113-11.501 214.661-33.429 365.568-32.694h6.56c150.627 0 347.64 21.548 359.16 32.584-7.427 4.754-36.707 24.528-33.92 36.22 1.066 4.426 5.76 6.936 14.48 7.726 24.786 2.131 49.973 2.676 50.28 2.676 33.893 0 82.347 14.372 125.093 27.04 18.427 5.245 35.92 10.491 51.48 14.588l17.16 4.263-18.2-152.821 74.787-79.395z" fill="#df2a27" transform="scale(1.51017)"/><path d="m2173.133 182.699-19.613-6.173c-5.24-1.476-131.733-35.777-173.8-36.708l9.534-50.668c.547-4.038-.707-8.139-3.44-11.17-17.841-24.28-204.054-77.98-471.148-77.98-263.776-.003-456.71 49.708-474.903 71.584-2.652 2.791-3.826 6.691-3.141 10.488l12.726 57.689c-36.858 1.055-138.85 27.628-166.809 34.912-3.861 1.004-6.311 1.645-6.98 1.793l-19.559 6.12 11.855 13.609 74.732 79.34-16.203 134.493-1.994 18.328 17.096-4.267c15.498-3.813 32.58-8.915 50.738-14.344l.811-.24c.041-.015.055-.019.1-.032 42.718-12.66 91.118-27.008 125.017-27.008.272 0 25.431-.545 50.259-2.676 8.684-.79 13.414-3.3 14.476-7.729 2.811-11.632-26.221-31.462-33.789-36.105 13.113-11.501 214.661-33.429 365.568-32.694h6.56c150.627 0 347.64 21.548 359.16 32.584-7.427 4.754-36.707 24.528-33.92 36.22 1.066 4.426 5.76 6.936 14.48 7.726 24.786 2.131 49.973 2.676 50.28 2.676 33.867 0 82.254 14.342 124.96 27.001-.067-.021.2.059.133.039 5.827 1.659 11.573 3.32 17.173 4.941 5.374 1.552 10.614 3.07 15.733 4.525 6.44 1.831 12.64 3.561 18.573 5.122l17.16 4.263-18.2-152.821 74.787-79.395zm0 0-11.586 13.441-74.787 79.395 18.2 152.821-17.16-4.263c-5.933-1.561-12.133-3.291-18.573-5.122-5.12-1.456-10.359-2.973-15.733-4.525-5.6-1.621-11.346-3.282-17.173-4.941.067.02-.2-.06-.133-.039-42.707-12.66-91.093-27.001-124.96-27.001-.307 0-25.493-.545-50.28-2.676-8.72-.79-13.414-3.301-14.48-7.726-2.787-11.692 26.493-31.466 33.92-36.22-11.52-11.036-208.533-32.584-359.16-32.584h-6.56c-150.907-.735-352.455 21.194-365.568 32.694 7.568 4.643 36.6 24.473 33.789 36.105-1.063 4.43-5.792 6.94-14.476 7.729-24.828 2.131-49.987 2.676-50.259 2.676-33.898 0-82.299 14.348-125.017 27.008-.045.013-.059.017-.1.032l-.811.24c-18.158 5.429-35.24 10.531-50.738 14.344l-17.096 4.267 1.994-18.328 16.203-134.493-74.732-79.34-11.857-13.608 19.559-6.118c.669-.148 3.12-.79 6.98-1.793 27.96-7.284 129.952-33.857 166.809-34.912l-12.726-57.689c-.684-3.797.49-7.697 3.141-10.488 18.194-21.877 211.127-71.588 474.903-71.585 267.093 0 453.307 53.7 471.147 77.979 2.733 3.032 3.987 7.132 3.44 11.171l-9.533 50.668c42.066.931 168.56 35.232 173.8 36.708z" transform="scale(1.51017)"/><path d="m2118.404 358.413-4.427-3.428c-17.453-16.868-240.32-43.863-429.6-41.258-189.613-2.67-426.263 28.445-438.844 46.531l-2.022 2.18-1.458-5.819c-.483-2.448-51.954-240.921-54.861-253.494.272-2.181 1.239-4.212 2.731-5.816 18.441-23.785 234.748-70.252 494.401-70.252 112.987.547 225.706 10.96 336.893 31.107 81.826 14.853 140.467 30.546 150.533 43.504 1.12 2.272 1.361 4.847.694 7.275-2.906 12.509-48.44 223.537-48.934 225.905z" fill="#077954" transform="scale(1.36158)"/><path d="m2118.404 358.413-4.427-3.428c-17.453-16.868-240.32-43.863-429.6-41.258-189.613-2.67-426.263 28.445-438.844 46.531l-2.022 2.18-1.458-5.819c-.483-2.451-51.95-240.917-54.861-253.494.272-2.181 1.239-4.212 2.731-5.816 18.441-23.785 234.748-70.252 494.401-70.252 112.987.547 225.706 10.96 336.893 31.107 81.826 14.853 140.467 30.546 150.533 43.504 1.12 2.272 1.361 4.847.694 7.275-2.906 12.512-48.44 223.533-48.934 225.905zm0 0 5.107-23.567c.493-2.373 46.027-213.394 48.934-225.905.667-2.428.427-5.003-.694-7.275-10.066-12.957-68.707-28.651-150.533-43.504-111.187-20.147-223.906-30.56-336.893-31.107-259.653 0-475.96 46.467-494.401 70.252-1.492 1.604-2.459 3.635-2.731 5.816 2.911 12.577 54.379 251.043 54.861 253.494l1.458 5.819 2.022-2.18c12.582-18.086 249.231-49.2 438.844-46.531 189.28-2.604 412.147 24.391 429.6 41.258z" transform="scale(1.36158)"/><path d="m1657.417 526.811-65.253-283.28h-1.44c-50.187 0-234.826 49.493-234.826 49.493l105.026 110.867-22.573 195.773s63.36-16.467 92.601-24.467c33.253-9.28 64.6-17.987 91.613-23.747 16.826-3.521 33.866-5.786 50.986-6.733l13.56-.946-6.093-3.427z" fill="#077954"/><path d="m1657.417 526.811-65.253-283.28h-1.44c-50.187 0-234.826 49.493-234.826 49.493l105.026 110.867-22.573 195.773c.014 0 63.36-16.467 92.601-24.467 33.253-9.28 64.6-17.987 91.613-23.747 16.826-3.521 33.866-5.786 50.986-6.733l13.56-.946-6.093-3.427zm0 0 23.601 13.533 6.093 3.427-13.56.946c-17.12.947-34.16 3.213-50.986 6.733-27.014 5.76-58.36 14.467-91.613 23.747-29.24 8-92.587 24.467-92.601 24.467l22.573-195.773-105.026-110.867s184.64-49.493 234.826-49.493h1.44z"/><path d="m1969.529 359.384 44.066-191.336h.987c33.893 0 158.546 33.487 158.546 33.487l-70.92 74.539 15.267 132.203s-42.787-11.118-62.534-16.517c-22.453-6.219-43.653-12.094-61.866-16.045-11.374-2.424-22.893-3.958-34.52-4.541l-9.08-.7 4.134-2.311z" fill="#077954" transform="scale(1.48079)"/><path d="m1969.529 359.384 44.066-191.336h.987c33.893 0 158.546 33.487 158.546 33.487l-70.92 74.539 15.267 132.203c.013.003-42.8-11.122-62.534-16.517l-.453-.124c-22.28-6.172-43.32-11.997-61.414-15.921-11.374-2.424-22.907-3.958-34.52-4.542l-9.08-.7 4.134-2.311zm0 0-15.92 8.778-4.134 2.311 9.08.7c11.614.584 23.147 2.118 34.52 4.542 18.094 3.924 39.133 9.749 61.414 15.921l.453.124c19.734 5.395 62.547 16.52 62.534 16.517l-15.267-132.203 70.92-74.539s-124.653-33.487-158.546-33.487h-.987z" transform="scale(1.48079)"/><path d="m369.995 1468.3-11.219 1.322c.489 77.166 1.02 154.303 1.561 231.525l-159.952.697v-612.201c55.468-20.746 111.244-40.631 167.25-59.689 132.942-46.482 215.901.543 218.089 171.506 2.228 169.251-80.36 252.407-215.729 266.84zm8.5-292.074-21.704 5.688c.286 53.297.666 106.512 1.078 159.76l21.776-4.129c39.593-7.387 56.625-50.783 56.172-98.912-.484-48.182-17.729-73.01-57.322-62.407z" fill="#df2a27"/><path d="m369.995 1468.3-11.219 1.322c.489 77.182 1.02 154.287 1.561 231.525l-159.952.697v-612.201c55.468-20.74 111.25-40.631 167.25-59.689 100.803-35.244 172.865-16.734 202.771 68.807 9.537 27.273 14.787 61.365 15.318 102.699 2.228 169.251-80.36 252.407-215.729 266.84m0 0c135.369-14.434 217.957-97.59 215.729-266.84-.531-41.334-5.781-75.426-15.318-102.699-29.905-85.541-101.968-104.051-202.771-68.807-56 19.059-111.781 38.949-167.25 59.689v612.201l159.952-.697c-.541-77.238-1.071-154.344-1.561-231.525zm8.5-292.074-21.704 5.688v.025c.286 53.297.666 106.486 1.078 159.734l21.776-4.129c39.593-7.387 56.625-50.783 56.172-98.912-.412-41.016-12.97-65.109-41.125-64.822-4.916.047-10.312.842-16.197 2.416m0 0c5.885-1.572 11.281-2.369 16.197-2.416 28.155-.287 40.713 23.807 41.125 64.822.453 48.129-16.579 91.525-56.172 98.912l-21.776 4.129c-.412-53.248-.792-106.438-1.078-159.734v-.025z"/><path d="m1205.266 1389.804-14.475 1.031v307.75l-164.339-.004-1.281-855.929s114.923-23.76 172.589-34.232c137.018-25.746 241.791 48.254 244.298 261.347 2.399 210.735-101.333 305.928-236.792 320.037zm5.067-395.119c-7.25 1.035-19.215 3.422-19.215 3.422s-.708 142.551 0 213.176c73.549-6.229 89.954-39.598 89.954-125.354.338-67.394-30.401-97.019-70.739-91.244z" fill="#df2a27"/><path d="m1205.266 1389.804-14.475 1.031v307.75l-164.339-.004-1.281-855.929s114.928-23.76 172.589-34.232c116.025-21.803 208.924 27.921 236.191 173.056 4.933 26.262 7.72 55.646 8.106 88.291 2.4 210.735-101.333 305.928-236.791 320.037m0 0c135.458-14.109 239.191-109.303 236.792-320.037-.387-32.645-3.174-62.029-8.107-88.291-27.267-145.135-120.165-194.859-236.19-173.056-57.661 10.473-172.589 34.232-172.589 34.232l1.281 855.929 164.339.004v-307.75zm5.067-395.119c-7.256 1.035-19.215 3.422-19.215 3.422 0-.047-.317 63.4-.317 126.521 0 31.572.079 63.125.317 86.654 73.549-6.229 89.954-39.598 89.954-125.354.313-61.729-25.454-91.771-60.781-91.949-3.239-.013-6.567.222-9.958.706m0 0c3.391-.484 6.719-.719 9.958-.705 35.327.178 61.094 30.221 60.781 91.949 0 85.756-16.405 119.125-89.954 125.354-.238-23.529-.317-55.082-.317-86.654 0-63.121.317-126.568.317-126.521 0-.001 11.959-2.388 19.215-3.423z"/><path d="m2152.891 594.298c-11.641-2.147-23.307-4.253-35.027-6.333 2.854-28.336 6.56-57.626 9.387-85.519 15.28 4.25 30.773 9.368 45.92 13.902-6.333 25.26-13.854 51.432-20.28 77.95z" fill="#df2a27" transform="scale(1.8632)"/><path d="m2152.891 594.298c-11.641-2.147-23.307-4.253-35.027-6.333 1.454-14.44 3.134-29.128 4.8-43.75 1.6-14.042 3.213-28.124 4.587-41.768 9.586 2.664 19.253 5.672 28.867 8.663 5.72 1.778 11.4 3.548 17.053 5.239-2.8 11.171-5.853 22.573-8.92 34.054-3.133 11.749-6.32 23.677-9.32 35.644-.693 2.752-1.374 5.491-2.04 8.251m0 0c.666-2.76 1.346-5.499 2.04-8.252 3-11.967 6.186-23.895 9.32-35.644 3.067-11.481 6.12-22.883 8.92-34.054-5.653-1.691-11.333-3.46-17.053-5.239-9.613-2.991-19.28-5.999-28.867-8.663-1.373 13.644-2.987 27.727-4.587 41.768-1.666 14.622-3.346 29.31-4.8 43.75 11.72 2.081 23.386 4.187 35.027 6.334z" transform="scale(1.8632)"/><path d="m2173.166 899.498c0-17.999 0-35.771 0-53.311v-333.753l-2.333-.602c-26.88-6.993-43.92-11.48-72.053-18.619l-.934-.267v17.293 208.953c-22.64-85.153-47.786-154.661-73.653-242.372-1.44 0-2.92-.347-4.387-.573l-80.786-17.292v281.306c-1.013 65.393-2.027 131.448-3.04 201.278l86.574-.002v-238.33c21.959 81.813 50.706 161.48 71.88 238.584l78.733-.004z" fill="#df2a27" transform="scale(1.8034)"/><path d="m2173.166 899.498v-387.065l-2.333-.601-13.707-3.572-11.507-2.997c-14.773-3.844-28.427-7.38-46.84-12.05l-.933-.268v17.294 208.953c-13.507-50.77-27.894-95.982-42.787-142.803-10.093-31.725-20.413-64.137-30.867-99.569-1.08 0-2.187-.196-3.279-.386-.361-.064-.747-.133-1.107-.188l-80.787-17.292v281.306l-.027 1.958-.253 15.909-.24 15.982c-.84 54.302-1.68 109.718-2.52 167.429l86.574-.002v-238.329c11.52 42.952 24.92 85.311 38.12 127.017 11.933 37.727 23.707 74.948 33.76 111.567l78.734-.004v-42.289m-.001 0v42.289l-78.734.004c-10.053-36.618-21.827-73.839-33.76-111.567-13.2-41.706-26.6-84.065-38.12-127.017v238.329l-86.574.002c.84-57.711 1.68-113.127 2.52-167.429l.24-15.982.253-15.909.027-1.958v-281.305l80.787 17.292c.36.055.746.124 1.107.188 1.093.19 2.2.386 3.279.386 10.453 35.432 20.773 67.844 30.867 99.569 14.893 46.821 29.28 92.033 42.787 142.803v-208.954-17.293l.933.268c18.414 4.669 32.067 8.206 46.84 12.049l11.507 2.997 13.707 3.572 2.333.601v387.065z" transform="scale(1.8034)"/><path d="m2173.143 516.705-2.32-.339c-35-6.067-102.227-16.252-102.227-16.252v213.789h-76.453v-203.505c0-6.845 0-13.379 0-19.451l-13.04-1.74-82.293-11.307-12.933-1.793v6.147c-.973 103.739-.534 199.986 0 293.671v295.506h108.16v-219.543h76.613v219.542h104.44z" fill="#df2a27" transform="scale(1.58404)"/><path d="m2173.143 516.705-2.32-.339c-35-6.067-102.227-16.252-102.227-16.252v213.789h-76.453v-222.956l-13.04-1.74-82.293-11.307-12.933-1.793v6.147c-.973 103.779-.534 199.946 0 293.671v295.506h108.16v-219.543h76.613v219.542h104.44zm-.001 0-.053 554.726h-104.44v-219.543h-76.613v219.542h-108.16v-295.506c-.534-93.724-.973-189.892 0-293.671v-6.147l12.933 1.793 82.293 11.307 13.04 1.74v222.956h76.453v-213.788s67.227 10.185 102.227 16.252z" transform="scale(1.58404)"/><path d="m2087.371 623.845c-12.827-13.677-20.387-25.135-20.387-34.701 0-10.54 3.907-19.785 15.933-19.146 14.147.789 16.44 18.476 17.12 30.161 0 2.627.347 5.309.507 7.816h71.16c-2.186-62.525-25.067-100.976-79.947-111.988-52.253-10.48-102.4 13.087-103.213 78.159-.506 40.097 17.24 75.961 46.893 105.103 13.453 13.397 26.907 26.422 40.4 39.08 12.906 12.05 19.533 20.498 19.307 29.308 0 10.792-5.813 19.54-17.787 19.54-14.4 0-20.773-14.61-21.399-26.844-.227-4.924-.44-10.463-.48-15.858h-71.52v10.666c-.853 66.212 36.28 107.586 90.56 107.586 63.413 0 98.666-40.054 98.546-93.787 0-31.767-18.28-56.272-46.146-84.525-13.228-13.088-26.414-26.605-39.547-40.57z" fill="#df2a27" transform="scale(2.02659)"/><path d="m2087.491 623.878c-12.827-13.677-20.4-25.136-20.4-34.701 0-10.196 3.666-19.181 14.787-19.181.373 0 .76.01 1.159.032 14.147.789 16.44 18.478 17.12 30.164 0 1.779.147 3.581.307 5.338.067.848.146 1.662.2 2.477h71.16c-2.187-62.528-25.067-100.979-79.96-111.993-46.427-9.313-91.2 8.262-101.173 57.954-1.24 6.227-1.946 12.959-2.04 20.208-.507 40.1 17.24 75.967 46.893 105.109 13.453 13.395 26.92 26.426 40.4 39.081 12.906 12.052 19.546 20.5 19.32 29.309 0 10.793-5.813 19.542-17.786 19.542-14.413 0-20.786-14.611-21.413-26.846-.227-4.927-.427-10.464-.467-15.857h-71.52v10.665c-.854 65.655 35.64 106.892 89.173 107.584.466.005.92.008 1.373.008 63.32 0 98.561-39.92 98.561-93.52 0-.121 0-.152 0-.273 0-31.769-18.281-56.275-46.147-84.529-13.227-13.088-26.413-26.604-39.547-40.571m0 0c13.134 13.966 26.321 27.483 39.547 40.573 27.866 28.254 46.147 52.76 46.147 84.529v.273c0 53.6-35.241 93.52-98.561 93.52-.453 0-.907-.003-1.373-.008-53.533-.692-90.027-41.929-89.173-107.584v-10.665h71.52c.04 5.393.24 10.93.467 15.857.627 12.234 7 26.846 21.413 26.846 11.973 0 17.786-8.749 17.786-19.542.227-8.809-6.413-17.257-19.32-29.309-13.48-12.656-26.947-25.686-40.4-39.081-29.653-29.142-47.4-65.009-46.893-105.109.093-7.249.8-13.981 2.04-20.208 9.973-49.693 54.747-67.268 101.173-57.954 54.893 11.013 77.773 49.465 79.96 111.993h-71.16c-.053-.815-.133-1.629-.2-2.477-.16-1.757-.307-3.558-.307-5.338-.68-11.686-2.973-29.375-17.12-30.164-.4-.022-.787-.032-1.159-.032-11.12 0-14.787 8.985-14.787 19.181 0 9.563 7.573 21.022 20.4 34.699z" transform="scale(2.02648)"/><path d="m850.49 881.216c-57.084 13.865-114.011 28.625-170.766 44.265-41.5 270.615-83.442 529.412-126.13 774.83l160.035-.453c3.011-31.053 9.282-93.631 9.282-93.631h94.453s7.917 61.088 11.683 93.225h165.275c-47.974-282.923-95.9-555.694-143.832-818.236zm-113.558 580.276s18.692-190.072 27.391-285.104l1.735-.006c11.009 91.619 35.723 285.109 35.723 285.109h-64.849z" fill="#df2a27"/><path d="m850.49 881.216c-57.084 13.865-114.011 28.625-170.766 44.265-41.5 270.615-83.442 529.408-126.13 774.83l160.035-.453c3.011-31.063 9.276-93.621 9.282-93.631h94.453c.011.078-.011-.057.005.063.281 2.156 7.979 61.604 11.678 93.162h165.275c-47.974-282.923-95.9-555.694-143.832-818.236m0 0c47.933 262.542 95.858 535.313 143.833 818.235h-165.276c-3.699-31.559-11.396-91.006-11.678-93.162-.016-.119.006.016-.005-.063h-94.453c-.006.01-6.271 62.568-9.282 93.631l-160.035.453c42.688-245.422 84.63-504.215 126.13-774.83 56.755-15.639 113.682-30.399 170.766-44.264zm-113.558 580.276c.006-.016 18.692-190.057 27.391-285.104l1.735-.006c11.015 91.66 35.719 285.063 35.723 285.109h-64.849m0 .001h64.849c-.004-.047-24.708-193.449-35.723-285.109l-1.735.006c-8.698 95.046-27.385 285.087-27.391 285.103z"/><path d="m1759.018 742.294c-60.174 6.599-161.934 16.62-223.24 23.135-44.84 319.881-89 624.631-132.906 932.704l179.066-.006 9.733-112.764h118.333s7.92 74.822 12.094 112.848h182.146c-47.959-324.573-95.48-639.582-145.226-955.917zm-148.947 670.944 38.654-344.094h3.053l46.106 343.719z" fill="#df2a27"/><path d="m1759.018 742.294c-34.28 3.761-81.947 8.62-128.04 13.317-34.827 3.547-68.827 7.017-95.2 9.817-29.906 213.417-59.479 419.723-88.906 625.163-14.721 102.65-29.36 204.834-44 307.541l179.066-.004 9.733-112.766h118.333s7.92 74.822 12.094 112.848h182.146c-47.959-324.552-95.48-639.609-145.226-955.916m0 0c49.746 316.307 97.267 631.364 145.227 955.917h-182.146c-4.174-38.025-12.094-112.848-12.094-112.848h-118.333l-9.733 112.764-179.066.006c14.64-102.707 29.279-204.891 44-307.541 29.426-205.439 59-411.746 88.906-625.163 26.373-2.801 60.373-6.271 95.2-9.817 46.092-4.698 93.759-9.557 128.039-13.318zm-148.947 670.944 38.654-344.094h3.053l46.106 343.719zm0 0 87.813-.375-46.106-343.719h-3.053z"/><path d="m2000.909 536.515c-96.08-3.365-171.334 73.517-171.68 206.956-.36 103.02-.706 206.038-.999 309.051-.4 132.366 79.052 213.957 173.44 213.779 94.373-.193 166.333-85.359 167.68-214.115 1.066-100.545 1.346-195.671 2.413-296.209 1.346-129.798-61.693-215.701-170.854-219.462zm31.214 555.749c0 16.209-13.147 29.348-29.347 29.348l-5.293-.004c-16.2.004-29.347-13.134-29.347-29.343v-382.08c0-16.204 13.147-29.352 29.347-29.352h5.293c16.2 0 29.347 13.147 29.347 29.348z" fill="#df2a27" transform="scale(1.34933)"/><path d="m2000.909 536.515c-93.346-3.268-167.04 69.202-171.467 195.693-.133 3.72-.2 7.449-.214 11.263l-1 309.051c-.4 131.987 78.6 213.493 172.639 213.776.267.003.534.003.8.003 94.373-.193 166.333-85.359 167.68-214.115.533-50.282.866-99.167 1.2-148.094.346-48.945.68-97.784 1.213-148.077v-.038c1.349-129.798-61.691-215.701-170.851-219.462m0 0c109.16 3.761 172.2 89.664 170.853 219.462v.038c-.533 50.293-.867 99.132-1.213 148.077-.333 48.928-.667 97.812-1.2 148.094-1.347 128.756-73.307 213.923-167.68 214.115-.266 0-.533 0-.8-.003-94.04-.284-173.039-81.79-172.639-213.776l1-309.051c.014-3.814.08-7.543.214-11.263 4.425-126.491 78.119-198.961 171.465-195.693zm31.213 555.749c0 16.209-13.147 29.348-29.346 29.348l-5.293-.004c-16.2.004-29.347-13.134-29.347-29.343v-382.08c0-16.204 13.147-29.352 29.347-29.352h5.293c16.199 0 29.346 13.147 29.346 29.348zm0 0v-382.085c0-16.2-13.147-29.348-29.346-29.348h-5.293c-16.2 0-29.347 13.147-29.347 29.352v382.08c0 16.209 13.147 29.348 29.347 29.343l5.293.004c16.199.001 29.346-13.138 29.346-29.346z" transform="scale(1.34933)"/><path d="m2016.235 647.78v693.682c0 12.529-9.013 23.244-21.347 25.44-.64.037-1.267.037-1.933 0h-4.187c-14.2-.042-25.747-11.573-25.773-25.772v-87.908c-44 0-98.507.776-142.374 1.413v91.901c0 110.823 67.707 187.01 168.92 187.01 8.64-.037 17.28-.588 25.84-1.736 110.787-8.01 156.613-81.495 156.613-247.631l1.066-636.106z" fill="#df2a27" transform="scale(1.11254)"/><path d="m2016.235 647.78v693.682c0 12.529-9.013 23.244-21.347 25.44-.64.037-1.267.037-1.933 0h-4.187c-14.2-.042-25.747-11.573-25.773-25.772v-87.908c-44 0-98.52.776-142.374 1.413v91.901c0 110.823 67.707 187.01 168.92 187.01 8.64-.037 17.28-.588 25.84-1.736 110.787-8.01 156.613-81.495 156.613-247.631l1.066-636.106zm0 0 156.826.293-1.066 636.106c0 166.137-45.826 239.621-156.613 247.633-8.56 1.146-17.2 1.698-25.84 1.734-101.213 0-168.92-76.188-168.92-187.01v-91.901c43.854-.637 98.373-1.413 142.374-1.413v87.908c.026 14.199 11.573 25.729 25.773 25.772h4.187c.666.037 1.293.037 1.933 0 12.334-2.196 21.347-12.91 21.347-25.44v-693.682z" transform="scale(1.11254)"/><path d="m1877.724 383.144-29.986-242.827 71.894-8.867c48.479-5.934 86.173 14.733 91.854 60.84 5.693 46.067-25.894 78.16-74.36 84.187l-18.934 2.267 12.134 97.84zm54.334-148.827c17.933-1.52 30.56-18.267 27.173-35.92-2.227-18.227-15.84-26.693-34.6-24.413l-18.854 2.293 7.427 60.36z" fill="#fff"/><path d="m1877.724 383.144-29.986-242.827 71.894-8.867c48.479-5.934 86.173 14.733 91.854 60.84 5.693 46.067-25.894 78.16-74.36 84.187l-18.934 2.267 12.134 97.84zm0 0 52.601-6.56-12.134-97.84 18.934-2.267c48.467-6.026 80.054-38.12 74.36-84.187-5.681-46.106-43.374-66.773-91.854-60.84l-71.894 8.867zm54.334-148.827c16.853-1.427 29.013-16.293 27.613-32.72-.094-1.066-.228-2.133-.44-3.2-2.227-18.227-15.84-26.693-34.6-24.413l-18.854 2.293 7.427 60.36zm0 0-18.854 2.32-7.427-60.36 18.854-2.293c18.76-2.28 32.373 6.187 34.6 24.413.213 1.067.347 2.134.44 3.2 1.4 16.427-10.761 31.293-27.613 32.72z"/><path d="m2061.244 360.584-14.36-244.267 53.174-3.053 14.227 244.146z" fill="#fff"/><path d="m2061.244 360.584-14.36-244.267 53.174-3.053 14.227 244.146zm0 0 53.04-3.173-14.227-244.146-53.174 3.053z"/><path d="m2028.864 330.923-.386-33.946 82.399-155.16-81.507.974-.506-40.747 139.133-1.627.386 31.333-83.36 157.813 87.56-1.053.467 40.76z" fill="#fff" transform="scale(1.06881)"/><path d="m2028.864 330.923-.386-33.946 82.399-155.16-81.507.974-.506-40.747 139.133-1.627.386 31.333-83.36 157.813 87.56-1.053.467 40.76zm0 0 144.187-1.653-.467-40.76-87.56 1.053 83.36-157.813-.386-31.333-139.133 1.627.506 40.747 81.507-.974-82.399 155.16z" transform="scale(1.06881)"/><path d="m2032.433 301.326 1.56-31.093 84.173-137.347-74.373-3.827 1.84-37.28 127.439 6.36-1.466 28.694-85.294 139.72 80.133 3.987-1.8 37.293z" fill="#fff" transform="scale(1.16589)"/><path d="m2032.433 301.326 1.56-31.093 84.173-137.347-74.373-3.827 1.84-37.28 127.439 6.36-1.466 28.694-85.294 139.72 80.133 3.987-1.8 37.293zm0 0 132.214 6.507 1.8-37.293-80.133-3.987 85.294-139.72 1.466-28.694-127.439-6.36-1.84 37.28 74.373 3.827-84.173 137.347z" transform="scale(1.16589)"/><g transform="scale(1.2579)"><path d="m2129.252 300.563-1.386-24.099-39.08-5.055-7.374 23.049-41.947-5.345 71.56-187 42.227 5.413 19.839 198.575zm-5.706-132.21h-.654l-23.907 72.888 28.133 3.605z" fill="#fff"/><path d="m2129.252 300.563-1.386-24.099-39.08-5.055-7.374 23.049-41.947-5.345 71.56-187 42.227 5.413 19.839 198.575zm0 0 43.84 5.539-19.839-198.575-42.227-5.413-71.56 187 41.947 5.345 7.374-23.049 39.08 5.054zm-5.706-132.21h-.654l-23.907 72.888 28.133 3.605zm0 0 3.573 76.493-28.133-3.605 23.907-72.888z"/></g></svg>