<svg enable-background="new 0 0 510 510" height="510" viewBox="0 0 510 510" width="510" xmlns="http://www.w3.org/2000/svg"><g fill="#008bb0"><path d="m259.322 158.802c-38.479.396-71.249 3.946-121.517 20.178-2.254.715-2.352-.338-.654-1.162 51.778-18.978 79.327-24.985 122.171-24.697 42.832-.288 70.393 5.721 122.182 24.698 1.674.824 1.57 1.877-.664 1.162-50.283-16.233-83.027-19.783-121.518-20.179m0 28.849c50.654-.945 119.525 6.086 175.063 31.729 1.871 1.003 2.344-.401.646-1.169-58.604-28.483-132.908-37.743-175.709-36.562-42.832-1.183-117.124 8.077-175.708 36.561-1.698.768-1.242 2.172.655 1.169 55.532-25.643 124.38-32.674 175.053-31.728m0-13.914c38.146-.096 101.967 3.934 151.33 25.886 2.018 1.111 2.549-.281.684-1.169-50.227-23.503-109.098-31.223-151.934-30.833-42.866-.39-101.882 7.331-152.092 30.833-1.877.888-1.329 2.28.667 1.169 49.369-21.952 113.195-25.98 151.345-25.886"/><path d="m37.262 351.893c0 2.872-.025 3.158 3.531 3.324v1.125c-1.759-.108-3.531-.187-5.322-.187-1.833 0-3.557.076-5.223.187v-1.125c3.543-.166 3.502-.452 3.502-3.324v-8.598h-14.801v8.598c0 2.872-.029 3.158 3.516 3.324v1.125c-1.772-.108-3.516-.187-5.335-.187-1.803 0-3.55.076-5.21.187v-1.125c3.557-.166 3.519-.452 3.519-3.324v-16.979c0-2.886.038-3.154-3.519-3.339v-1.099c1.66.095 3.407.179 5.21.179 1.82 0 3.563-.084 5.335-.179v1.099c-3.544.185-3.516.453-3.516 3.339v6.852h14.801v-6.852c0-2.886.042-3.154-3.502-3.339v-1.099c1.666.095 3.391.179 5.223.179 1.791 0 3.563-.084 5.322-.179v1.099c-3.557.185-3.531.453-3.531 3.339zm38.028-.621v-7.146c8.354-.306 8.635-.521 8.635 3.653h1.204v-8.537h-1.204c-.038 3.614-.573 3.173-8.635 3.083v-6.896c0-1.313.057-2.164.194-3.069 1.216-.191 2.95-.191 4.577-.191 1.855 0 3.752.063 5.523.627.269 1.148.485 2.178.512 3.633h1.152c0-.784.114-1.41.114-2.202.055-1.188.166-2.362.591-3.575-1.261-.172-3.824-.134-6.14-.172-2.225.095-4.472.172-6.774.172s-4.536-.077-6.781-.172v1.104c3.545.178 3.519.446 3.519 3.325v16.985c0 2.489-1.327 3.269-3.183 3.332v1.125c2.254-.116 4.45-.205 6.695-.205 2.26 0 4.484.089 6.668.205 2.289-.06 4.779 0 6.146-.205v-3.054c0-1.198.223-2.223.374-3.015h-1.229l-.336 2.052c-.07.656-.261 1.314-.442 1.877-1.917.549-3.969.625-5.965.625-1.771 0-3.655 0-5.021-.166-.137-.983-.194-1.858-.194-3.193m64.229.045-8.921-21.071h-1.187c-.978 2.669-2.172 5.363-3.382 7.994l-4.983 11.168-1.804 3.819c-.891 1.934-1.166 1.582-3.23 1.997v1.117c1.397-.108 2.813-.187 4.248-.187 1.447 0 2.845.076 4.247.187v-1.117c-1.328-.166-3.136 0-3.136-1.215 0-.815 2.05-5.217 2.475-6.229h10.525l2.254 5.414c.298.665.257 1.259-.258 1.514-.798.453-1.82.479-2.781.519v1.116c1.636-.107 3.25-.186 4.937-.186 1.656 0 3.305.076 4.916.186v-1.116c-.843-.038-1.611-.263-2.037-.625-.918-.89-1.396-2.117-1.883-3.285m-15.066-5.127 4.616-11.04 4.629 11.04zm53.34 6.895v-18.179c0-2.873-.028-3.143 3.521-3.326v-1.104c-1.797.089-3.521.179-5.328.179-1.823 0-3.551-.09-5.235-.179v1.104c3.55.187 3.524.453 3.524 3.326v15.995c0 2.963-.262 4.016-2.003 4.321v1.125c2.165-.115 4.231-.197 6.37-.197 2.158 0 4.274.082 6.334.197 2.184-.059 4.559 0 5.741-.197l.404-3.876c.16-.996.263-1.967.374-2.496l-1.197-.07-.83 3.109c-.138.453-.233.843-.386 1.192-1.923.551-3.944.619-5.961.619-1.772 0-3.662 0-5.221-.172zm46.975-17.03v15.83c0 2.881.038 3.166-3.513 3.332v1.117c1.683-.103 3.388-.185 5.227-.185 1.805 0 3.537.082 5.328.185v-1.117c-3.563-.166-3.523-.453-3.523-3.332v-15.83c.044-1.424.044-2.592.155-3.695l5.761.173c.791.044 1.245.153 1.315 1.104.123.896.347 1.858.392 2.854h1.117c0-.709 0-1.354.026-2.057.041-1.315.066-2.611.197-3.952-3.598.096-7.113.166-10.705.166-3.607 0-7.138-.07-10.645-.166.1 1.341.132 2.637.163 3.952.048.701.048 1.348.048 2.057h1.118c.032-.996.249-1.961.38-2.854.083-.949.536-1.061 1.318-1.104l5.695-.173c.107 1.104.107 2.271.146 3.695m65.011 15.838v-16.979c0-2.886-.043-3.154 3.514-3.339v-1.099c-1.756.095-3.514.179-5.326.179-1.818 0-3.555-.084-5.215-.179v1.099c3.537.185 3.51.453 3.51 3.339v6.852h-14.818v-6.852c0-2.886-.039-3.154 3.512-3.339v-1.099c-1.764.095-3.512.179-5.313.179-1.813 0-3.57-.084-5.227-.179v1.099c3.559.185 3.508.453 3.508 3.339v16.979c0 2.872.051 3.158-3.508 3.324v1.125c1.656-.108 3.412-.187 5.227-.187 1.801 0 3.549.076 5.313.187v-1.125c-3.551-.166-3.512-.452-3.512-3.324v-8.598h14.818v8.598c0 2.872.027 3.158-3.51 3.324v1.125c1.66-.108 3.395-.187 5.215-.187 1.813 0 3.57.076 5.326.187v-1.125c-3.557-.166-3.514-.452-3.514-3.324m54.2 2.815.729-1.654-.324-.368c-2.248 1.462-4.859 2.315-7.51 2.315-7.451 0-12.258-5.113-12.258-12.516 0-6.704 4.207-11.033 10.33-11.033 2.648 0 4.426.639 5.957 1.379 2.156 1.062 1.602 1.909 1.686 4.305h1.1c.211-1.871.422-3.717.805-5.556-3.109-.895-6.365-1.687-9.646-1.687-7.311 0-14.215 4.819-14.215 13.401 0 8.785 6.814 13.595 14.961 13.595 2.357.003 6.066-.855 8.385-2.181m51.662-3.391-8.926-21.071h-1.188c-.957 2.669-2.18 5.363-3.363 7.994l-4.988 11.168-1.813 3.819c-.889 1.934-1.135 1.582-3.236 1.997v1.117c1.418-.108 2.822-.187 4.26-.187 1.471 0 2.867.076 4.268.187v-1.117c-1.316-.166-3.154 0-3.154-1.215 0-.815 2.043-5.217 2.496-6.229h10.52l2.23 5.414c.324.665.273 1.259-.236 1.514-.824.453-1.826.479-2.77.519v1.116c1.619-.107 3.219-.186 4.928-.186 1.648 0 3.289.076 4.885.186v-1.116c-.814-.038-1.596-.263-2.021-.625-.924-.89-1.387-2.117-1.892-3.285m-15.063-5.127 4.629-11.04 4.629 11.04zm49.844-11.284v16.979c0 2.881.012 3.166-3.545 3.34v1.125c1.674-.116 3.416-.192 5.236-.192 1.813 0 3.545.076 5.332.192v-1.125c-3.553-.174-3.52-.459-3.52-3.34v-16.979c0-1.155 0-1.922.209-2.548 1.01-.308 2.428-.498 3.697-.498 2.754 0 5.703 1.176 5.703 5.198 0 2.72-2.203 4.73-4.805 5.166-1.115.189-2.26.234-3.408.146l-.166.567 8.824 11.335c.535.61.939 1.274 1.525 2.073.861-.114 1.68-.19 2.496-.19.85 0 1.725.076 2.535.19v-1.125c-.754-.09-1.521-.338-2.125-1.032l-8.385-10.95c3.619-.709 7.238-3.123 7.238-7.141 0-3.114-2.393-5.894-7.508-5.617-2.146.089-4.305.166-6.457.166-2.193 0-4.354-.077-6.43-.166v1.093c3.566.185 3.554.448 3.554 3.333m53.775 16.366v-7.146c8.357-.306 8.613-.521 8.613 3.653h1.23v-8.537h-1.23c-.021 3.614-.563 3.173-8.613 3.083v-6.896c0-1.313.014-2.164.166-3.069 1.23-.191 2.977-.191 4.598-.191 1.865 0 3.742.063 5.521.627.25 1.148.484 2.178.512 3.633h1.164c0-.784.105-1.41.105-2.202.033-1.188.182-2.362.582-3.575-1.277-.172-3.813-.134-6.148-.172-2.223.095-4.473.172-6.77.172-2.271 0-4.488-.077-6.773-.172v1.104c3.576.178 3.545.446 3.545 3.325v16.985c0 2.489-1.35 3.269-3.219 3.332v1.125c2.283-.116 4.469-.205 6.717-.205 2.26 0 4.48.089 6.674.205 2.266-.06 4.756 0 6.129-.205v-3.054c0-1.198.223-2.223.377-3.015h-1.219l-.359 2.052c-.082.656-.236 1.314-.434 1.877-1.896.549-3.947.625-5.939.625-1.787 0-3.684 0-5.063-.166-.152-.983-.166-1.858-.166-3.193"/><path d="m179.512 301.006c-.635-.562-2.877-3.332-6.729-8.307l-13.495-17.751c-3.32-4.342-5.434-7.106-6.346-8.371 4.903-1.079 8.885-2.586 11.937-4.56 3.062-1.959 5.383-4.443 6.992-7.374 1.599-2.956 2.403-5.965 2.403-8.928 0-3.244-.868-6.192-2.563-8.938-1.73-2.738-4.15-4.693-7.27-5.926-3.112-1.188-8.086-1.808-14.913-1.808-.883 0-4.108.115-9.683.326-4.277.128-7.448.217-9.482.217l-10.273-.281c-2.854-.069-4.98-.114-6.379-.146v3.429c4.243.076 6.833.249 7.726.557.917.307 1.591.767 2.002 1.392.406.62.661 2.618.754 6.027.108 4.644.182 9.38.182 14.227v24.808c-.117 9.38-.198 14.449-.204 15.195-.114 2.758-.383 4.481-.824 5.186-.345.55-1.005.965-1.909 1.265-.267.09-.695.167-1.219.229-1.251-.108-2.175-.279-2.672-.518-.792-.396-1.543-1.214-2.203-2.459-1.223-2.209-3.681-7.675-7.416-16.385l-22.854-53.71h-3.461c-4.817 11.455-7.948 18.868-9.395 22.162l-13.397 30.216c-3.981 8.716-6.296 13.696-6.944 15.037-1.104 2.315-1.97 3.755-2.545 4.311-.574.543-1.223.926-1.921 1.116-.713.211-2.452.325-5.291.371v3.634c4.105-.318 7.898-.492 11.365-.492 2.989 0 7.506.174 13.541.492v-3.634c-3.32-.046-5.648-.217-6.95-.491-.837-.187-1.424-.512-1.836-.978-.288-.303-.412-.729-.412-1.245 0-1.124.508-2.912 1.549-5.39l5.826-13.768h31.022l6.574 16.391c.494 1.238.749 2.254.749 3.064 0 .491-.169.906-.462 1.239-.287.339-.878.601-1.74.792-.855.166-3.288.299-7.263.383v3.633h.009l-.009.008h50.902l-.006-.008v-3.44c-4.212-.063-6.789-.248-7.701-.563-.936-.3-1.615-.753-2.009-1.398-.424-.645-.635-2.66-.73-6.063-.149-4.598-.225-9.322-.225-14.181v-23.786c.225-9.871.35-15.082.394-15.579.051-1.674.182-3.467.301-5.409 3.537-1.117 7.167-1.653 10.813-1.653 5.888 0 10.236 1.276 13.138 3.884 2.864 2.578 4.323 6.06 4.323 10.477 0 5.026-1.683 9.074-5.029 12.141-3.361 3.076-8.278 4.615-14.772 4.615-.973 0-2.385-.07-4.235-.173l-.55 1.609c3.413 3.889 6.964 8.212 10.718 13.013 2.354 2.905 5.016 6.494 8.049 10.815 5.459 7.771 9.342 13 11.679 15.701 3.059-.234 5.635-.332 7.748-.332 2.023 0 4.399.098 7.132.332v-3.446c-1.826 0-3.007-.077-3.53-.249-.344-.124-.65-.278-.981-.554zm-112.486-25.794 13.639-32.291 13.419 32.291zm240.486-45.84c3.711 0 7.096-.07 10.109-.217v3.356c-3.385.064-5.627.326-6.666.838-.461.19-.762.563-.99 1.026-.314.69-.529 2.574-.684 5.652-.197 4.699-.281 8.766-.281 12.137v25.746c0 5.229.068 14.948.256 29.174l-5.031-1.584-1.191-.248c-.193-.076-.359-.211-.508-.324-.24-.18-.859-.896-1.863-2.141-2.699-3.378-4.676-5.9-5.934-7.623l-6.301-8.717-34.544-45.361v41.063c0 3.506.096 7.617.338 12.359.138 2.996.342 4.771.648 5.461.201.529.562.861 1.011 1.1 1.062.497 3.289.777 6.67.798v3.385c-2.856-.269-5.993-.384-9.446-.384-3.767 0-7.859.115-12.254.384v-3.385c3.375-.021 5.617-.313 6.709-.855.452-.229.772-.555.967-1.041.315-.7.555-2.571.668-5.6.217-4.725.302-8.793.302-12.222v-43.63c0-1.188-.065-1.936-.179-2.292-.274-.664-.861-1.411-1.758-2.307-.595-.573-1.274-.957-2.04-1.085-.505-.113-1.577-.186-2.899-.242-.262 3.703-.438 8.471-.555 14.283h-3.407l-.45-5.146c-.294-3.116-.498-4.866-.58-5.307-.113-.435-.282-.74-.467-.899-.201-.187-.488-.339-.875-.436-.505-.121-2.282-.241-5.36-.421-3.063-.198-5.494-.295-7.273-.295h-6.531c-.374 3.438-.53 8.078-.53 13.896v31.317c0 4.86.041 9.592.138 14.188.13 3.396.393 5.421.778 6.064.419.646 1.093 1.111 2.002 1.404.881.313 3.482.492 7.72.563v3.439c-6.378-.307-11.193-.447-14.389-.447-1.392 0-6.971.143-16.714.447v-3.439c4.25-.07 6.826-.25 7.768-.563.929-.293 1.552-.722 1.884-1.277.45-.7.719-2.426.85-5.172 0-.746.054-5.821.217-15.209v-31.213c0-1.494-.025-3.142-.111-4.942l-.343-9.055h-7.962c-4.597 0-8.259.198-10.979.543-.868.108-1.397.357-1.641.696-.424.626-.757 2.565-1.098 5.849l-.588 5.415h-3.308c-.048-8.543-.224-14.424-.53-17.725 3.876.152 9.99.312 18.307.521 6.743.153 11.235.219 13.502.219 2.413 0 8.042-.104 16.876-.319 4.802-.111 8.626-.207 11.471-.313v-.106c.571.016 1.028.023 1.556.041.299-.018.66-.028.929-.041-.004.019-.004.044-.007.063 3.945.104 6.577.154 7.761.154 2.348 0 4.716-.07 7.049-.217 2.752 3.958 4.807 6.889 6.107 8.778l10.078 13.657 14.719 19.477c4.705 6.206 8.498 11.129 11.354 14.673 1.809 2.383 3.359 4.221 4.584 5.58v-39.155c0-3.505-.113-7.598-.344-12.31-.143-2.957-.357-4.803-.641-5.511-.217-.467-.566-.806-1.016-.996-1.086-.512-3.326-.772-6.686-.838v-3.356c3.843.15 7.723.22 11.626.22zm66.324 57.224h3.537c-.945 7.216-1.438 13.191-1.438 17.941-3.039.461-6.813.717-11.176.717l-31.971-.44c-.447 0-5.127.128-14.002.44v-3.386c3.732-.021 6.191-.313 7.381-.854.492-.229.855-.557 1.066-1.041.377-.701.6-2.572.76-5.6.217-4.726.316-8.794.316-12.223v-27.36c0-4.853-.057-9.571-.172-14.219-.102-3.417-.355-5.415-.77-6.035-.408-.625-1.066-1.079-1.986-1.396-.906-.295-3.492-.474-7.738-.55v-3.435l15.273.312 16.135-.268c7.771-.103 13.377-.153 16.891-.153 3.537 0 6.869.191 9.992.596-.582 2.018-.951 3.792-1.162 5.278-.084.333-.377 4.056-.938 11.155h-3.379c.02-3.652-.229-6.973-.701-9.974-1.973-.812-4.113-1.373-6.479-1.666-3.984-.468-7.994-.729-12.008-.729-.854 0-2.764.051-5.699.217-2.988.143-5.098.256-6.395.358-.145 3.979-.232 7.682-.311 11.154l-.213 18.09c4.176.204 8 .308 11.5.308 4.229 0 7.881-.199 10.861-.582 1.129-.146 1.877-.429 2.215-.844.307-.435.596-1.908.844-4.386l.326-3.756h3.217v1.01l-.262 11.142.262 12.465h-3.754l-.172-3.621c-.061-2.654-.295-4.282-.723-4.935-.396-.646-1.188-1.099-2.313-1.341-2.043-.431-6.01-.646-11.838-.646-2.4 0-5.816.09-10.166.271-.186 3.563-.293 8.875-.293 15.897 0 6.607.107 11.642.293 15.063 5.113.389 10.881.574 17.283.574 4.527 0 7.752-.147 9.705-.435 1.922-.289 3.691-.762 5.334-1.442.436-1.087.855-2.58 1.289-4.489.8-3.178 1.304-5.561 1.579-7.182zm75.109 14.962c.518.172 1.717.247 3.543.247v3.449c-2.738-.235-5.098-.334-7.125-.334-2.127 0-4.705.099-7.777.334-2.332-2.701-6.219-7.932-11.666-15.703-3.033-4.32-5.721-7.909-8.059-10.814-3.742-4.801-7.299-9.124-10.695-13.014l.543-1.608c1.865.104 3.27.173 4.234.173 6.484 0 11.436-1.538 14.762-4.616 3.357-3.063 5.057-7.111 5.057-12.14 0-4.417-1.461-7.897-4.348-10.478-2.898-2.605-7.279-3.883-13.121-3.883-3.699 0-7.307.536-10.811 1.653-.146 1.942-.271 3.735-.326 5.409-.039.497-.152 5.708-.377 15.579v23.785c0 4.857.068 9.582.225 14.182.09 3.403.313 5.421.732 6.064.402.646 1.055 1.1 2 1.397.904.313 3.479.499 7.699.563v3.447c-5.045-.307-9.725-.435-13.971-.435-3.418 0-9.201.128-17.305.435v-3.447c4.213-.063 6.807-.25 7.707-.563.932-.3 1.582-.715 1.953-1.265.416-.702.684-2.427.805-5.187.014-.746.084-5.814.191-15.195v-24.807c0-4.847-.037-9.583-.16-14.227-.096-3.409-.363-5.407-.762-6.027-.438-.625-1.084-1.085-2.018-1.392-.887-.308-3.467-.479-7.719-.557v-3.429c1.393.031 3.529.076 6.373.146l10.285.281c2.057 0 5.195-.089 9.486-.217 5.559-.211 8.801-.326 9.682-.326 6.84 0 11.787.619 14.896 1.808 3.127 1.231 5.535 3.188 7.277 5.926 1.699 2.746 2.561 5.694 2.561 8.938 0 2.963-.803 5.972-2.404 8.928-1.615 2.931-3.936 5.413-6.984 7.373-3.033 1.975-7.031 3.479-11.922 4.561.898 1.266 3.014 4.029 6.334 8.371l13.473 17.751c3.852 4.976 6.123 7.745 6.762 8.308.324.28.658.434.97.556zm-408.382-33.198c-2.957.122-5.591-.226-7.12-.646l-1.21-4.073c1.641.435 4.281.882 7.008.995 8.971.332 15.863-6.454 15.863-15.758 0-11.392-6.893-16.641-17.843-16.641-3.716 0-7.311.9-10.822 1.545-.643 1.853-.643 4.15-.643 7.549v50.227c0 8.535-.121 9.303 10.398 9.84v3.279c-5.271-.323-10.398-.543-15.778-.543-5.354 0-10.507.22-15.417.543v-3.279c10.5-.537 10.382-1.305 10.382-9.84v-50.227c0-8.524.118-9.298-10.382-9.841v-3.301c6.334.346 12.678.55 19.261.55 6.468 0 12.783-.204 19.14-.55 10.605 0 22.648 4.615 22.648 16.959.001 13.685-11.82 22.675-25.485 23.212zm464.437 10.964c0 18.707-16.748 27.681-33.043 27.681-6.582 0-12.707-1.631-18.729-4.146.439-4.17.662-9.412.799-13.658v-3.09h3.684v5.146c0 2.414.242 4.496 1.539 5.703 4.387 3.805 11.373 5.023 16.986 5.023 9.832 0 19.447-5.797 19.447-16.646 0-26.467-43.322-1.734-43.322-33.579 0-14.979 12.691-24.514 26.822-24.514 7.412 0 14.322 2.42 21.23 5.051-.346 1.744-.785 3.486-.896 5.236-.209 3.274-.654 6.455-.777 9.737h-3.729c0-4.156 0-7.013-1.059-8.742-2.982-4.604-10.734-6.372-15.896-6.372-8.943 0-16.617 6.252-16.617 15.663.002 23.743 43.561 4.062 43.561 31.507z"/></g></svg>