<?xml version="1.0" encoding="utf-8"?>
<!-- Generator: Adobe Illustrator 16.0.0, SVG Export Plug-In . SVG Version: 6.00 Build 0)  -->
<!DOCTYPE svg PUBLIC "-//W3C//DTD SVG 1.1//EN" "http://www.w3.org/Graphics/SVG/1.1/DTD/svg11.dtd">
<svg version="1.1"
	 id="svg3336" xmlns:dc="http://purl.org/dc/elements/1.1/" xmlns:svg="http://www.w3.org/2000/svg" xmlns:sodipodi="http://sodipodi.sourceforge.net/DTD/sodipodi-0.dtd" xmlns:rdf="http://www.w3.org/1999/02/22-rdf-syntax-ns#" xmlns:cc="http://creativecommons.org/ns#" xmlns:inkscape="http://www.inkscape.org/namespaces/inkscape" inkscape:version="0.91 r13725" sodipodi:docname="Party City.svg"
	 xmlns="http://www.w3.org/2000/svg" xmlns:xlink="http://www.w3.org/1999/xlink" x="0px" y="0px" width="240px" height="240px"
	 viewBox="0 0 240 240" enable-background="new 0 0 240 240" xml:space="preserve">
<sodipodi:namedview  pagecolor="#ffffff" id="namedview3338" bordercolor="#666666" fit-margin-top="0" fit-margin-left="0" guidetolerance="10" gridtolerance="10" objecttolerance="10" inkscape:cy="42.770356" inkscape:cx="204.95458" inkscape:zoom="3.0275" showgrid="false" borderopacity="1" inkscape:pageopacity="0" fit-margin-bottom="0" fit-margin-right="0" inkscape:window-height="931" inkscape:current-layer="g3344" inkscape:window-maximized="1" inkscape:window-y="1" inkscape:window-x="0" inkscape:window-width="1680" inkscape:pageshadow="2">
	</sodipodi:namedview>
<g>
	<path id="path4116" inkscape:connector-curvature="0" fill="#F6842A" d="M96.563,144.383h15.58v44.142h-15.58V144.383z"/>
	<path id="path4120" inkscape:connector-curvature="0" fill="#3DB94D" d="M126.837,157.039h-7.649v-12.656h7.649v-13.162h15.31
		v13.162h7.639v12.656h-7.639v31.481h-15.31V157.039L126.837,157.039z"/>
	<path id="path4128" inkscape:connector-curvature="0" fill="#6F7BC6" d="M176.988,165.949l8.338-21.566h16.648l-27.752,63.661
		h-17.365l12.443-26.243l-16.943-37.418h16.402L176.988,165.949L176.988,165.949z"/>
	<path id="path4144" inkscape:connector-curvature="0" fill="#289EE0" d="M112.294,132.195c0,4.595-3.729,8.32-8.324,8.32
		c-4.598,0-8.323-3.727-8.323-8.32c0-4.6,3.727-8.33,8.323-8.33C108.563,123.865,112.294,127.597,112.294,132.195"/>
	<path id="path4148" inkscape:connector-curvature="0" fill="#ED1C24" d="M87.064,167.529c-3.317,4.548-8.678,7.505-14.729,7.505
		c-10.078,0-18.237-8.161-18.237-18.233c0-10.064,8.159-18.225,18.237-18.225c6.053,0,11.412,2.953,14.729,7.504v-20.26
		c-4.473-2.125-9.463-3.317-14.729-3.317c-18.954,0-34.31,15.354-34.31,34.298c0,18.947,15.354,34.306,34.31,34.306
		c5.269,0,10.258-1.189,14.729-3.32V167.529z"/>
</g>
<g>
	<path id="path4114" inkscape:connector-curvature="0" fill="#F6842A" d="M112.806,69.382h14.676v8.534
		c2.873-7.335,8.324-9.516,15.135-9.516c1.072,0,1.799,0.094,3.682,0.273l-0.014,14.098c-1.879-0.533-4.305-0.598-6.104-0.583
		c-6.924,0.067-11.887,4.217-11.887,13.076v18.26h-15.49L112.806,69.382L112.806,69.382z"/>
	<path id="path4124" inkscape:connector-curvature="0" fill="#289EE0" d="M158.814,82.039h-7.645V69.383h7.645V56.22h15.314v13.163
		h7.641v12.656h-7.641v31.482h-15.314V82.039L158.814,82.039z"/>
	<path id="path4132" inkscape:connector-curvature="0" fill="#3DB94D" d="M209.004,90.949l8.336-21.567h16.656l-27.76,63.662
		h-17.369l12.449-26.243l-16.945-37.418h16.406L209.004,90.949L209.004,90.949z"/>
	<path id="path4152" inkscape:connector-curvature="0" fill="#ED1C24" d="M29.271,49.378H6.004v64.205h16.442V95.177l6.824-0.153
		c13.417,0,24.59-9.266,24.348-23.505C53.417,58.646,43.221,49.287,29.271,49.378 M29.612,79.558h-7.41l-0.025-14.762h7.435
		c4.247,0,7.688,2.835,7.688,7.075C37.3,76.118,33.859,79.558,29.612,79.558"/>
	<path id="path4156" inkscape:connector-curvature="0" fill="#6F7BC6" d="M88.357,69.34v3.458
		c-3.334-2.796-8.022-4.029-12.482-4.029c-12.006,0-22.279,10.153-22.279,22.939c0,12.77,9.407,22.832,22.178,22.832
		c4.457,0,10.909-1.852,12.584-4.455v3.484h14.779v-44.23L88.357,69.34L88.357,69.34z M78.751,101.512
		c-5.703,0-10.327-4.623-10.327-10.326c0-5.704,4.624-10.328,10.327-10.328s10.324,4.624,10.324,10.328
		C89.076,96.889,84.455,101.512,78.751,101.512"/>
</g>
</svg>
