<svg enable-background="new 0 0 240 240" height="240" viewBox="0 0 240 240" width="240" xmlns="http://www.w3.org/2000/svg"><path d="m96.563 144.383h15.58v44.142h-15.58z" fill="#f6842a"/><path d="m126.837 157.039h-7.649v-12.656h7.649v-13.162h15.31v13.162h7.639v12.656h-7.639v31.481h-15.31z" fill="#3db94d"/><path d="m176.988 165.949 8.338-21.566h16.648l-27.752 63.661h-17.365l12.443-26.243-16.943-37.418h16.402z" fill="#6f7bc6"/><path d="m112.294 132.195c0 4.595-3.729 8.32-8.324 8.32-4.598 0-8.323-3.727-8.323-8.32 0-4.6 3.727-8.33 8.323-8.33 4.593 0 8.324 3.732 8.324 8.33" fill="#289ee0"/><path d="m87.064 167.529c-3.317 4.548-8.678 7.505-14.729 7.505-10.078 0-18.237-8.161-18.237-18.233 0-10.064 8.159-18.225 18.237-18.225 6.053 0 11.412 2.953 14.729 7.504v-20.26c-4.473-2.125-9.463-3.317-14.729-3.317-18.954 0-34.31 15.354-34.31 34.298 0 18.947 15.354 34.306 34.31 34.306 5.269 0 10.258-1.189 14.729-3.32z" fill="#ed1c24"/><path d="m112.806 69.382h14.676v8.534c2.873-7.335 8.324-9.516 15.135-9.516 1.072 0 1.799.094 3.682.273l-.014 14.098c-1.879-.533-4.305-.598-6.104-.583-6.924.067-11.887 4.217-11.887 13.076v18.26h-15.49z" fill="#f6842a"/><path d="m158.814 82.039h-7.645v-12.656h7.645v-13.163h15.314v13.163h7.641v12.656h-7.641v31.482h-15.314z" fill="#289ee0"/><path d="m209.004 90.949 8.336-21.567h16.656l-27.76 63.662h-17.369l12.449-26.243-16.945-37.418h16.406z" fill="#3db94d"/><path d="m29.271 49.378h-23.267v64.205h16.442v-18.406l6.824-.153c13.417 0 24.59-9.266 24.348-23.505-.201-12.873-10.397-22.232-24.347-22.141m.341 30.18h-7.41l-.025-14.762h7.435c4.247 0 7.688 2.835 7.688 7.075 0 4.247-3.441 7.687-7.688 7.687" fill="#ed1c24"/><path d="m88.357 69.34v3.458c-3.334-2.796-8.022-4.029-12.482-4.029-12.006 0-22.279 10.153-22.279 22.939 0 12.77 9.407 22.832 22.178 22.832 4.457 0 10.909-1.852 12.584-4.455v3.484h14.779v-44.23zm-9.606 32.172c-5.703 0-10.327-4.623-10.327-10.326 0-5.704 4.624-10.328 10.327-10.328s10.324 4.624 10.324 10.328c.001 5.703-4.62 10.326-10.324 10.326" fill="#6f7bc6"/></svg>