<?xml version="1.0" encoding="utf-8"?>
<!-- Generator: Adobe Illustrator 16.0.0, SVG Export Plug-In . SVG Version: 6.00 Build 0)  -->
<!DOCTYPE svg PUBLIC "-//W3C//DTD SVG 1.1//EN" "http://www.w3.org/Graphics/SVG/1.1/DTD/svg11.dtd">
<svg version="1.1" id="Layer_1" xmlns="http://www.w3.org/2000/svg" xmlns:xlink="http://www.w3.org/1999/xlink" x="0px" y="0px"
	 width="510px" height="510px" viewBox="-5 -153.109 510 510" enable-background="new -5 -153.109 510 510" xml:space="preserve">
<path fill="#008BB0" d="M254.322,5.692c-38.479,0.396-71.249,3.946-121.517,20.177c-2.254,0.715-2.352-0.338-0.654-1.162
	C183.929,5.73,211.478-0.278,254.322,0.01c42.832-0.288,70.392,5.721,122.182,24.698c1.673,0.824,1.57,1.877-0.665,1.162
	C325.557,9.638,292.813,6.088,254.322,5.692 M254.322,34.541c50.654-0.945,119.525,6.086,175.063,31.729
	c1.871,1.003,2.344-0.402,0.646-1.169c-58.604-28.484-132.908-37.743-175.709-36.562C211.49,27.357,137.198,36.616,78.614,65.1
	c-1.698,0.767-1.242,2.172,0.655,1.169C134.801,40.626,203.649,33.595,254.322,34.541 M254.322,20.627
	c38.146-0.096,101.967,3.934,151.33,25.886c2.017,1.111,2.548-0.281,0.684-1.169c-50.227-23.503-109.098-31.223-151.934-30.833
	c-42.866-0.39-101.882,7.331-152.092,30.833c-1.877,0.888-1.329,2.28,0.667,1.169C152.345,24.561,216.172,20.532,254.322,20.627"/>
<path fill="#008BB0" d="M32.261,198.782c0,2.873-0.025,3.159,3.531,3.325v1.125c-1.759-0.109-3.531-0.187-5.322-0.187
	c-1.833,0-3.557,0.076-5.223,0.187v-1.125c3.543-0.166,3.502-0.452,3.502-3.325v-8.597H13.948v8.597
	c0,2.873-0.029,3.159,3.516,3.325v1.125c-1.772-0.109-3.516-0.187-5.335-0.187c-1.803,0-3.55,0.076-5.21,0.187v-1.125
	c3.557-0.166,3.519-0.452,3.519-3.325v-16.979c0-2.886,0.038-3.154-3.519-3.339v-1.099c1.66,0.095,3.407,0.179,5.21,0.179
	c1.82,0,3.563-0.084,5.335-0.179v1.099c-3.544,0.185-3.516,0.453-3.516,3.339v6.852H28.75v-6.852c0-2.886,0.042-3.154-3.502-3.339
	v-1.099c1.666,0.095,3.391,0.179,5.223,0.179c1.791,0,3.563-0.084,5.322-0.179v1.099c-3.557,0.185-3.531,0.453-3.531,3.339v16.979
	 M70.289,198.162v-7.146c8.354-0.306,8.635-0.522,8.635,3.653h1.204v-8.537h-1.204c-0.038,3.614-0.573,3.173-8.635,3.083v-6.896
	c0-1.314,0.057-2.164,0.194-3.07c1.216-0.191,2.95-0.191,4.577-0.191c1.855,0,3.752,0.063,5.523,0.627
	c0.269,1.148,0.485,2.178,0.512,3.633h1.152c0-0.785,0.114-1.411,0.114-2.203c0.055-1.188,0.166-2.362,0.591-3.575
	c-1.261-0.172-3.824-0.134-6.14-0.172c-2.225,0.095-4.472,0.172-6.774,0.172c-2.302,0-4.536-0.077-6.781-0.172v1.104
	c3.545,0.178,3.519,0.446,3.519,3.325v16.985c0,2.49-1.327,3.269-3.183,3.332v1.125c2.254-0.116,4.45-0.205,6.695-0.205
	c2.26,0,4.484,0.089,6.668,0.205c2.289-0.059,4.779,0,6.146-0.205v-3.053c0-1.199,0.223-2.223,0.374-3.015h-1.229l-0.336,2.052
	c-0.07,0.656-0.261,1.314-0.442,1.877c-1.917,0.549-3.969,0.625-5.965,0.625c-1.771,0-3.655,0-5.021-0.166
	C70.346,200.372,70.289,199.497,70.289,198.162 M134.518,198.207l-8.921-21.071h-1.187c-0.978,2.669-2.172,5.363-3.382,7.994
	l-4.983,11.168l-1.804,3.819c-0.891,1.934-1.166,1.582-3.23,1.997v1.118c1.397-0.109,2.813-0.187,4.248-0.187
	c1.447,0,2.845,0.076,4.247,0.187v-1.118c-1.328-0.166-3.136,0-3.136-1.214c0-0.816,2.05-5.217,2.475-6.23h10.525l2.254,5.414
	c0.298,0.665,0.257,1.259-0.258,1.514c-0.798,0.453-1.82,0.479-2.781,0.518v1.117c1.636-0.108,3.25-0.186,4.937-0.186
	c1.656,0,3.305,0.076,4.916,0.186v-1.117c-0.843-0.038-1.611-0.262-2.037-0.625C135.484,200.602,135.006,199.375,134.518,198.207
	 M119.452,193.08l4.616-11.04l4.629,11.04H119.452z M172.793,199.975v-18.179c0-2.873-0.028-3.142,3.521-3.326v-1.104
	c-1.797,0.089-3.521,0.179-5.328,0.179c-1.823,0-3.551-0.09-5.235-0.179v1.104c3.55,0.186,3.524,0.453,3.524,3.326v15.995
	c0,2.963-0.262,4.016-2.003,4.322v1.125c2.165-0.116,4.231-0.198,6.37-0.198c2.158,0,4.274,0.082,6.334,0.198
	c2.184-0.059,4.559,0,5.741-0.198l0.404-3.876c0.16-0.996,0.263-1.967,0.374-2.496l-1.197-0.07l-0.83,3.109
	c-0.138,0.453-0.233,0.843-0.386,1.193c-1.923,0.55-3.944,0.619-5.961,0.619c-1.772,0-3.662,0-5.221-0.172L172.793,199.975
	 M219.767,182.945v15.83c0,2.88,0.038,3.166-3.513,3.332v1.117c1.683-0.103,3.388-0.185,5.227-0.185
	c1.805,0,3.537,0.082,5.328,0.185v-1.117c-3.563-0.166-3.523-0.453-3.523-3.332v-15.83c0.044-1.424,0.044-2.592,0.155-3.696
	l5.761,0.173c0.791,0.044,1.245,0.153,1.315,1.104c0.123,0.895,0.347,1.858,0.392,2.854h1.117c0-0.709,0-1.354,0.026-2.057
	c0.041-1.315,0.066-2.611,0.197-3.952c-3.598,0.096-7.113,0.166-10.705,0.166c-3.607,0-7.138-0.07-10.645-0.166
	c0.1,1.341,0.132,2.637,0.163,3.952c0.048,0.702,0.048,1.348,0.048,2.057h1.118c0.032-0.996,0.249-1.961,0.38-2.854
	c0.083-0.95,0.536-1.061,1.318-1.104l5.695-0.173C219.728,180.354,219.728,181.521,219.767,182.945 M284.78,198.782v-16.979
	c0-2.886-0.044-3.154,3.512-3.339v-1.099c-1.755,0.095-3.512,0.179-5.325,0.179c-1.818,0-3.556-0.084-5.216-0.179v1.099
	c3.537,0.185,3.511,0.453,3.511,3.339v6.852h-14.818v-6.852c0-2.886-0.039-3.154,3.511-3.339v-1.099
	c-1.763,0.095-3.511,0.179-5.312,0.179c-1.814,0-3.57-0.084-5.228-0.179v1.099c3.56,0.185,3.509,0.453,3.509,3.339v16.979
	c0,2.873,0.051,3.159-3.509,3.325v1.125c1.657-0.109,3.412-0.187,5.228-0.187c1.801,0,3.549,0.076,5.312,0.187v-1.125
	c-3.55-0.166-3.511-0.452-3.511-3.325v-8.597h14.818v8.597c0,2.873,0.026,3.159-3.511,3.325v1.125
	c1.66-0.109,3.396-0.187,5.216-0.187c1.813,0,3.57,0.076,5.325,0.187v-1.125C284.736,201.941,284.78,201.655,284.78,198.782
	 M338.979,201.598l0.728-1.654l-0.325-0.369c-2.247,1.462-4.859,2.316-7.509,2.316c-7.452,0-12.259-5.113-12.259-12.516
	c0-6.704,4.207-11.033,10.33-11.033c2.649,0,4.426,0.639,5.957,1.379c2.158,1.061,1.603,1.909,1.687,4.305h1.099
	c0.211-1.871,0.422-3.717,0.805-5.556c-3.109-0.895-6.365-1.687-9.647-1.687c-7.311,0-14.214,4.82-14.214,13.402
	c0,8.785,6.813,13.595,14.961,13.595C332.95,203.781,336.66,202.924,338.979,201.598 M390.641,198.207l-8.927-21.071h-1.188
	c-0.957,2.669-2.178,5.363-3.363,7.994l-4.987,11.168l-1.813,3.819c-0.889,1.934-1.135,1.582-3.236,1.997v1.118
	c1.418-0.109,2.822-0.187,4.259-0.187c1.47,0,2.867,0.076,4.267,0.187v-1.118c-1.315-0.166-3.154,0-3.154-1.214
	c0-0.816,2.043-5.217,2.496-6.23h10.521l2.229,5.414c0.325,0.665,0.274,1.259-0.235,1.514c-0.824,0.453-1.826,0.479-2.771,0.518
	v1.117c1.62-0.108,3.219-0.186,4.929-0.186c1.648,0,3.289,0.076,4.885,0.186v-1.117c-0.816-0.038-1.596-0.262-2.023-0.625
	C391.609,200.602,391.146,199.375,390.641,198.207 M375.578,193.08l4.629-11.04l4.629,11.04H375.578z M425.421,181.796v16.979
	c0,2.88,0.013,3.166-3.544,3.339v1.125c1.674-0.116,3.416-0.192,5.235-0.192c1.813,0,3.545,0.076,5.332,0.192v-1.125
	c-3.551-0.173-3.519-0.459-3.519-3.339v-16.979c0-1.155,0-1.922,0.21-2.548c1.009-0.307,2.427-0.498,3.697-0.498
	c2.753,0,5.702,1.176,5.702,5.198c0,2.72-2.203,4.731-4.803,5.166c-1.116,0.19-2.261,0.235-3.409,0.146l-0.166,0.567l8.825,11.335
	c0.535,0.611,0.938,1.275,1.525,2.074c0.86-0.115,1.679-0.191,2.496-0.191c0.849,0,1.725,0.076,2.535,0.191v-1.125
	c-0.754-0.09-1.521-0.338-2.126-1.033l-8.385-10.95c3.62-0.709,7.239-3.123,7.239-7.14c0-3.115-2.393-5.894-7.508-5.618
	c-2.146,0.089-4.304,0.166-6.456,0.166c-2.194,0-4.354-0.077-6.43-0.166v1.093C425.434,178.648,425.421,178.91,425.421,181.796
	 M479.197,198.162v-7.146c8.357-0.306,8.613-0.522,8.613,3.653h1.231v-8.537h-1.231c-0.021,3.614-0.563,3.173-8.613,3.083v-6.896
	c0-1.314,0.013-2.164,0.166-3.07c1.23-0.191,2.976-0.191,4.598-0.191c1.864,0,3.741,0.063,5.521,0.627
	c0.25,1.148,0.485,2.178,0.512,3.633h1.163c0-0.785,0.106-1.411,0.106-2.203c0.033-1.188,0.181-2.362,0.582-3.575
	c-1.277-0.172-3.813-0.134-6.148-0.172c-2.223,0.095-4.472,0.172-6.77,0.172c-2.272,0-4.488-0.077-6.773-0.172v1.104
	c3.576,0.178,3.544,0.446,3.544,3.325v16.985c0,2.49-1.349,3.269-3.218,3.332v1.125c2.284-0.116,4.469-0.205,6.717-0.205
	c2.26,0,4.481,0.089,6.673,0.205c2.266-0.059,4.756,0,6.13-0.205v-3.053c0-1.199,0.223-2.223,0.376-3.015h-1.219l-0.358,2.052
	c-0.083,0.656-0.236,1.314-0.435,1.877c-1.896,0.549-3.946,0.625-5.938,0.625c-1.788,0-3.685,0-5.063-0.166
	C479.21,200.372,479.197,199.497,479.197,198.162"/>
<path fill="#008BB0" d="M174.511,147.896c-0.635-0.562-2.877-3.332-6.729-8.307l-13.495-17.751c-3.32-4.342-5.434-7.106-6.346-8.371
	c4.903-1.079,8.885-2.586,11.937-4.56c3.062-1.959,5.383-4.443,6.992-7.374c1.599-2.956,2.403-5.964,2.403-8.927
	c0-3.244-0.868-6.193-2.563-8.939c-1.73-2.738-4.15-4.693-7.27-5.926c-3.112-1.188-8.086-1.807-14.913-1.807
	c-0.883,0-4.108,0.115-9.683,0.326c-4.277,0.128-7.448,0.217-9.482,0.217l-10.273-0.281c-2.854-0.07-4.98-0.115-6.379-0.146v3.429
	c4.243,0.076,6.833,0.249,7.726,0.556c0.917,0.307,1.591,0.767,2.002,1.392c0.406,0.62,0.661,2.618,0.754,6.027
	c0.108,4.644,0.182,9.38,0.182,14.227v24.808c-0.117,9.379-0.198,14.449-0.204,15.195c-0.114,2.758-0.383,4.481-0.824,5.185
	c-0.345,0.55-1.005,0.965-1.909,1.265c-0.267,0.09-0.695,0.167-1.219,0.23c-1.251-0.109-2.175-0.28-2.672-0.518
	c-0.792-0.396-1.543-1.214-2.203-2.459c-1.223-2.209-3.681-7.675-7.416-16.385L80.073,75.292h-3.461
	c-4.817,11.455-7.948,18.868-9.395,22.162L53.821,127.67c-3.981,8.716-6.296,13.696-6.944,15.037
	c-1.104,2.316-1.97,3.755-2.545,4.311c-0.574,0.543-1.223,0.926-1.921,1.116c-0.713,0.211-2.452,0.325-5.291,0.371v3.634
	c4.105-0.318,7.898-0.492,11.365-0.492c2.989,0,7.506,0.174,13.541,0.492v-3.634c-3.32-0.046-5.648-0.217-6.95-0.491
	c-0.837-0.187-1.424-0.512-1.836-0.978c-0.288-0.302-0.412-0.729-0.412-1.245c0-1.124,0.508-2.912,1.549-5.389l5.826-13.768h31.022
	l6.574,16.391c0.494,1.238,0.749,2.254,0.749,3.064c0,0.491-0.169,0.906-0.462,1.239c-0.287,0.339-0.878,0.601-1.74,0.792
	c-0.855,0.166-3.288,0.299-7.263,0.383v3.633h0.009l-0.009,0.008h50.902l-0.006-0.008v-3.44c-4.212-0.063-6.789-0.249-7.701-0.563
	c-0.936-0.3-1.615-0.753-2.009-1.398c-0.424-0.645-0.635-2.661-0.73-6.064c-0.149-4.598-0.225-9.322-0.225-14.181v-23.786
	c0.225-9.871,0.35-15.082,0.394-15.579c0.051-1.674,0.182-3.467,0.301-5.409c3.537-1.117,7.167-1.653,10.813-1.653
	c5.888,0,10.236,1.276,13.138,3.883c2.864,2.579,4.323,6.06,4.323,10.477c0,5.026-1.683,9.074-5.029,12.141
	c-3.361,3.076-8.278,4.615-14.772,4.615c-0.973,0-2.385-0.07-4.235-0.173l-0.55,1.609c3.413,3.889,6.964,8.212,10.718,13.013
	c2.354,2.905,5.016,6.494,8.049,10.816c5.459,7.771,9.342,13,11.679,15.701c3.059-0.235,5.635-0.332,7.748-0.332
	c2.023,0,4.399,0.097,7.132,0.332v-3.447c-1.826,0-3.007-0.077-3.53-0.249C175.149,148.325,174.843,148.172,174.511,147.896z
	 M62.026,122.102l13.639-32.291l13.419,32.291H62.026z M302.512,76.262c3.711,0,7.094-0.07,10.108-0.217v3.357
	c-3.384,0.064-5.626,0.326-6.666,0.837c-0.46,0.191-0.761,0.563-0.99,1.027c-0.313,0.69-0.528,2.574-0.684,5.652
	c-0.197,4.699-0.281,8.766-0.281,12.137v25.746c0,5.229,0.069,14.948,0.257,29.174l-5.031-1.584l-1.193-0.248
	c-0.192-0.076-0.358-0.211-0.506-0.324c-0.242-0.18-0.861-0.896-1.864-2.141c-2.7-3.378-4.675-5.9-5.933-7.623l-6.302-8.717
	l-34.544-45.361v41.063c0,3.506,0.096,7.617,0.338,12.36c0.138,2.996,0.342,4.771,0.648,5.461c0.201,0.529,0.562,0.861,1.012,1.099
	c1.061,0.497,3.289,0.778,6.67,0.798v3.385c-2.857-0.269-5.994-0.384-9.447-0.384c-3.767,0-7.859,0.115-12.254,0.384v-3.385
	c3.375-0.02,5.617-0.313,6.709-0.855c0.452-0.229,0.772-0.555,0.967-1.041c0.315-0.701,0.555-2.572,0.668-5.6
	c0.217-4.725,0.302-8.793,0.302-12.222V85.41c0-1.188-0.065-1.935-0.179-2.292c-0.274-0.664-0.861-1.411-1.758-2.306
	c-0.595-0.574-1.274-0.957-2.04-1.085c-0.505-0.114-1.577-0.186-2.899-0.242c-0.262,3.703-0.438,8.47-0.555,14.283h-3.407
	l-0.45-5.146c-0.294-3.116-0.498-4.866-0.58-5.306c-0.113-0.435-0.282-0.741-0.467-0.9c-0.201-0.186-0.488-0.339-0.875-0.435
	c-0.505-0.121-2.282-0.242-5.36-0.421c-3.063-0.198-5.494-0.295-7.273-0.295h-6.531c-0.374,3.437-0.53,8.078-0.53,13.895v31.318
	c0,4.86,0.041,9.592,0.138,14.188c0.13,3.397,0.393,5.421,0.778,6.065c0.419,0.646,1.093,1.111,2.002,1.404
	c0.881,0.313,3.482,0.492,7.72,0.563v3.44c-6.378-0.307-11.193-0.447-14.389-0.447c-1.392,0-6.971,0.142-16.714,0.447v-3.44
	c4.25-0.07,6.826-0.25,7.768-0.563c0.929-0.293,1.552-0.722,1.884-1.277c0.45-0.701,0.719-2.426,0.85-5.172
	c0-0.746,0.054-5.822,0.217-15.209V95.264c0-1.494-0.025-3.142-0.111-4.942l-0.343-9.055h-7.962c-4.597,0-8.259,0.198-10.979,0.543
	c-0.868,0.108-1.397,0.357-1.641,0.696c-0.424,0.626-0.757,2.566-1.098,5.849l-0.588,5.415h-3.308
	c-0.048-8.543-0.224-14.424-0.53-17.725c3.876,0.152,9.99,0.312,18.307,0.522c6.743,0.153,11.235,0.218,13.502,0.218
	c2.413,0,8.042-0.103,16.876-0.319c4.802-0.111,8.626-0.207,11.471-0.313v-0.107c0.571,0.016,1.028,0.024,1.556,0.041
	c0.299-0.017,0.66-0.028,0.929-0.041c-0.004,0.019-0.004,0.044-0.007,0.063c3.945,0.103,6.577,0.154,7.761,0.154
	c2.348,0,4.716-0.07,7.049-0.217c2.752,3.958,4.806,6.889,6.107,8.778l10.079,13.658l14.719,19.476
	c4.705,6.206,8.498,11.129,11.354,14.673c1.807,2.383,3.358,4.221,4.584,5.58V99.056c0-3.505-0.115-7.598-0.345-12.31
	c-0.142-2.957-0.357-4.802-0.64-5.51c-0.217-0.467-0.567-0.806-1.016-0.997c-1.085-0.511-3.326-0.772-6.685-0.837v-3.357
	C294.729,76.192,298.609,76.262,302.512,76.262z M368.835,133.486h3.537c-0.944,7.215-1.437,13.191-1.437,17.941
	c-3.039,0.461-6.813,0.717-11.175,0.717l-31.971-0.441c-0.447,0-5.127,0.128-14.003,0.441v-3.386
	c3.734-0.02,6.193-0.313,7.381-0.854c0.492-0.229,0.855-0.557,1.066-1.041c0.377-0.702,0.601-2.573,0.76-5.6
	c0.218-4.726,0.318-8.794,0.318-12.223v-27.36c0-4.853-0.057-9.571-0.172-14.219c-0.103-3.417-0.356-5.415-0.771-6.035
	c-0.408-0.625-1.066-1.079-1.985-1.396c-0.907-0.295-3.493-0.474-7.739-0.55v-3.435l15.273,0.312l16.136-0.268
	c7.771-0.102,13.376-0.153,16.89-0.153c3.537,0,6.869,0.191,9.992,0.595c-0.582,2.018-0.951,3.792-1.162,5.279
	c-0.084,0.333-0.377,4.055-0.938,11.155h-3.378c0.02-3.652-0.229-6.973-0.702-9.974c-1.973-0.811-4.112-1.373-6.479-1.666
	c-3.984-0.467-7.994-0.729-12.006-0.729c-0.854,0-2.765,0.051-5.701,0.217c-2.987,0.142-5.096,0.256-6.393,0.358
	c-0.146,3.979-0.234,7.682-0.312,11.154l-0.212,18.09c4.176,0.204,8,0.308,11.5,0.308c4.228,0,7.88-0.199,10.861-0.582
	c1.129-0.146,1.877-0.429,2.215-0.844c0.307-0.434,0.595-1.908,0.844-4.386l0.326-3.755h3.217v1.009l-0.262,11.142l0.262,12.465
	h-3.754l-0.172-3.621c-0.06-2.655-0.295-4.283-0.723-4.935c-0.396-0.646-1.188-1.099-2.312-1.341
	c-2.044-0.43-6.009-0.646-11.839-0.646c-2.4,0-5.816,0.09-10.166,0.27c-0.185,3.563-0.293,8.875-0.293,15.898
	c0,6.607,0.108,11.641,0.293,15.063c5.115,0.389,10.882,0.574,17.285,0.574c4.527,0,7.752-0.147,9.705-0.434
	c1.922-0.289,3.691-0.762,5.334-1.443c0.434-1.086,0.854-2.58,1.289-4.489C368.057,137.489,368.561,135.107,368.835,133.486z
	 M443.944,148.447c0.518,0.172,1.717,0.248,3.544,0.248v3.449c-2.739-0.236-5.097-0.334-7.125-0.334
	c-2.127,0-4.706,0.098-7.778,0.334c-2.331-2.701-6.219-7.932-11.665-15.703c-3.033-4.321-5.722-7.91-8.06-10.815
	c-3.741-4.801-7.298-9.124-10.694-13.013l0.543-1.609c1.864,0.104,3.27,0.173,4.233,0.173c6.486,0,11.436-1.538,14.762-4.616
	c3.358-3.064,5.058-7.112,5.058-12.14c0-4.417-1.462-7.897-4.348-10.477c-2.899-2.606-7.28-3.883-13.122-3.883
	c-3.698,0-7.306,0.536-10.811,1.653c-0.146,1.942-0.27,3.735-0.325,5.409c-0.039,0.497-0.153,5.708-0.377,15.579v23.786
	c0,4.857,0.069,9.582,0.224,14.181c0.09,3.403,0.313,5.421,0.733,6.065c0.402,0.646,1.055,1.099,1.999,1.397
	c0.905,0.313,3.479,0.499,7.7,0.563v3.447c-5.045-0.307-9.725-0.435-13.971-0.435c-3.417,0-9.201,0.128-17.304,0.435v-3.447
	c4.213-0.063,6.807-0.25,7.707-0.563c0.931-0.3,1.582-0.715,1.952-1.265c0.416-0.702,0.685-2.426,0.806-5.186
	c0.013-0.746,0.083-5.815,0.19-15.195v-24.807c0-4.847-0.037-9.583-0.159-14.227c-0.095-3.409-0.363-5.407-0.761-6.027
	c-0.438-0.625-1.084-1.085-2.018-1.392c-0.888-0.307-3.467-0.479-7.719-0.556v-3.429c1.392,0.031,3.529,0.076,6.372,0.146
	l10.286,0.281c2.057,0,5.196-0.089,9.487-0.217c5.557-0.211,8.8-0.326,9.681-0.326c6.839,0,11.787,0.619,14.896,1.807
	c3.128,1.232,5.536,3.188,7.278,5.926c1.699,2.746,2.561,5.695,2.561,8.939c0,2.963-0.804,5.971-2.405,8.927
	c-1.616,2.931-3.935,5.414-6.985,7.374c-3.033,1.974-7.031,3.479-11.922,4.56c0.899,1.266,3.014,4.029,6.334,8.371l13.474,17.751
	c3.851,4.976,6.123,7.745,6.762,8.308C443.299,148.172,443.632,148.325,443.944,148.447z M35.563,115.25
	c-2.957,0.122-5.591-0.225-7.12-0.645l-1.21-4.074c1.641,0.435,4.281,0.882,7.008,0.996c8.971,0.332,15.863-6.455,15.863-15.758
	c0-11.392-6.893-16.641-17.843-16.641c-3.716,0-7.311,0.901-10.822,1.545c-0.643,1.853-0.643,4.15-0.643,7.549v50.226
	c0,8.536-0.121,9.303,10.398,9.84v3.28c-5.271-0.324-10.398-0.543-15.778-0.543c-5.354,0-10.507,0.219-15.417,0.543v-3.28
	c10.5-0.537,10.382-1.304,10.382-9.84V88.222c0-8.525,0.118-9.298-10.382-9.841V75.08c6.334,0.346,12.678,0.55,19.261,0.55
	c6.468,0,12.783-0.204,19.14-0.55c10.605,0,22.648,4.616,22.648,16.959C61.049,105.723,49.227,114.713,35.563,115.25z M500,126.214
	c0,18.707-16.748,27.681-33.043,27.681c-6.583,0-12.707-1.631-18.729-4.146c0.44-4.17,0.663-9.412,0.799-13.658v-3.09h3.684v5.146
	c0,2.414,0.242,4.496,1.539,5.703c4.387,3.805,11.373,5.023,16.985,5.023c9.833,0,19.448-5.797,19.448-16.646
	c0-26.467-43.323-1.735-43.323-33.579c0-14.98,12.692-24.514,26.823-24.514c7.413,0,14.322,2.42,21.23,5.051
	c-0.345,1.744-0.785,3.486-0.895,5.236c-0.209,3.275-0.656,6.455-0.778,9.737h-3.729c0-4.156,0-7.012-1.059-8.742
	c-2.982-4.604-10.733-6.372-15.895-6.372c-8.944,0-16.619,6.252-16.619,15.663C456.44,118.449,500,98.769,500,126.214z"/>
</svg>
