<?xml version="1.0" encoding="utf-8"?>
<!-- Generator: Adobe Illustrator 16.0.0, SVG Export Plug-In . SVG Version: 6.00 Build 0)  -->
<!DOCTYPE svg PUBLIC "-//W3C//DTD SVG 1.1//EN" "http://www.w3.org/Graphics/SVG/1.1/DTD/svg11.dtd">
<svg version="1.1" id="Layer_1" xmlns="http://www.w3.org/2000/svg" xmlns:xlink="http://www.w3.org/1999/xlink" x="0px" y="0px"
	 width="510px" height="510px" viewBox="0 0 510 510" enable-background="new 0 0 510 510" xml:space="preserve">
<g>
	<path fill="#008BB0" d="M259.322,158.802c-38.479,0.396-71.249,3.946-121.517,20.178c-2.254,0.715-2.352-0.338-0.654-1.162
		c51.778-18.978,79.327-24.985,122.171-24.697c42.832-0.288,70.393,5.721,122.182,24.698c1.674,0.824,1.57,1.877-0.664,1.162
		C330.557,162.748,297.813,159.198,259.322,158.802 M259.322,187.651c50.654-0.945,119.525,6.086,175.063,31.729
		c1.871,1.003,2.344-0.401,0.646-1.169c-58.604-28.483-132.908-37.743-175.709-36.562c-42.832-1.183-117.124,8.077-175.708,36.561
		c-1.698,0.768-1.242,2.172,0.655,1.169C139.801,193.736,208.649,186.705,259.322,187.651 M259.322,173.737
		c38.146-0.096,101.967,3.934,151.33,25.886c2.018,1.111,2.549-0.281,0.684-1.169c-50.227-23.503-109.098-31.223-151.934-30.833
		c-42.866-0.39-101.882,7.331-152.092,30.833c-1.877,0.888-1.329,2.28,0.667,1.169C157.346,177.671,221.172,173.643,259.322,173.737
		"/>
	<path fill="#008BB0" d="M37.262,351.893c0,2.872-0.025,3.158,3.531,3.324v1.125c-1.759-0.108-3.531-0.187-5.322-0.187
		c-1.833,0-3.557,0.076-5.223,0.187v-1.125c3.543-0.166,3.502-0.452,3.502-3.324v-8.598H18.949v8.598
		c0,2.872-0.029,3.158,3.516,3.324v1.125c-1.772-0.108-3.516-0.187-5.335-0.187c-1.803,0-3.55,0.076-5.21,0.187v-1.125
		c3.557-0.166,3.519-0.452,3.519-3.324v-16.979c0-2.886,0.038-3.154-3.519-3.339v-1.099c1.66,0.095,3.407,0.179,5.21,0.179
		c1.82,0,3.563-0.084,5.335-0.179v1.099c-3.544,0.185-3.516,0.453-3.516,3.339v6.852H33.75v-6.852c0-2.886,0.042-3.154-3.502-3.339
		v-1.099c1.666,0.095,3.391,0.179,5.223,0.179c1.791,0,3.563-0.084,5.322-0.179v1.099c-3.557,0.185-3.531,0.453-3.531,3.339
		L37.262,351.893 M75.29,351.272v-7.146c8.354-0.306,8.635-0.521,8.635,3.653h1.204v-8.537h-1.204
		c-0.038,3.614-0.573,3.173-8.635,3.083v-6.896c0-1.313,0.057-2.164,0.194-3.069c1.216-0.191,2.95-0.191,4.577-0.191
		c1.855,0,3.752,0.063,5.523,0.627c0.269,1.148,0.485,2.178,0.512,3.633h1.152c0-0.784,0.114-1.41,0.114-2.202
		c0.055-1.188,0.166-2.362,0.591-3.575c-1.261-0.172-3.824-0.134-6.14-0.172c-2.225,0.095-4.472,0.172-6.774,0.172
		c-2.302,0-4.536-0.077-6.781-0.172v1.104c3.545,0.178,3.519,0.446,3.519,3.325v16.985c0,2.489-1.327,3.269-3.183,3.332v1.125
		c2.254-0.116,4.45-0.205,6.695-0.205c2.26,0,4.484,0.089,6.668,0.205c2.289-0.06,4.779,0,6.146-0.205v-3.054
		c0-1.198,0.223-2.223,0.374-3.015h-1.229l-0.336,2.052c-0.07,0.656-0.261,1.314-0.442,1.877c-1.917,0.549-3.969,0.625-5.965,0.625
		c-1.771,0-3.655,0-5.021-0.166C75.347,353.482,75.29,352.607,75.29,351.272 M139.519,351.317l-8.921-21.071h-1.187
		c-0.978,2.669-2.172,5.363-3.382,7.994l-4.983,11.168l-1.804,3.819c-0.891,1.934-1.166,1.582-3.23,1.997v1.117
		c1.397-0.108,2.813-0.187,4.248-0.187c1.447,0,2.845,0.076,4.247,0.187v-1.117c-1.328-0.166-3.136,0-3.136-1.215
		c0-0.815,2.05-5.217,2.475-6.229h10.525l2.254,5.414c0.298,0.665,0.257,1.259-0.258,1.514c-0.798,0.453-1.82,0.479-2.781,0.519
		v1.116c1.636-0.107,3.25-0.186,4.937-0.186c1.656,0,3.305,0.076,4.916,0.186v-1.116c-0.843-0.038-1.611-0.263-2.037-0.625
		C140.484,353.712,140.006,352.485,139.519,351.317 M124.453,346.19l4.616-11.04l4.629,11.04H124.453z M177.793,353.085v-18.179
		c0-2.873-0.028-3.143,3.521-3.326v-1.104c-1.797,0.089-3.521,0.179-5.328,0.179c-1.823,0-3.551-0.09-5.235-0.179v1.104
		c3.55,0.187,3.524,0.453,3.524,3.326v15.995c0,2.963-0.262,4.016-2.003,4.321v1.125c2.165-0.115,4.231-0.197,6.37-0.197
		c2.158,0,4.274,0.082,6.334,0.197c2.184-0.059,4.559,0,5.741-0.197l0.404-3.876c0.16-0.996,0.263-1.967,0.374-2.496l-1.197-0.07
		l-0.83,3.109c-0.138,0.453-0.233,0.843-0.386,1.192c-1.923,0.551-3.944,0.619-5.961,0.619c-1.772,0-3.662,0-5.221-0.172
		L177.793,353.085 M224.768,336.055v15.83c0,2.881,0.038,3.166-3.513,3.332v1.117c1.683-0.103,3.388-0.185,5.227-0.185
		c1.805,0,3.537,0.082,5.328,0.185v-1.117c-3.563-0.166-3.523-0.453-3.523-3.332v-15.83c0.044-1.424,0.044-2.592,0.155-3.695
		l5.761,0.173c0.791,0.044,1.245,0.153,1.315,1.104c0.123,0.896,0.347,1.858,0.392,2.854h1.117c0-0.709,0-1.354,0.026-2.057
		c0.041-1.315,0.066-2.611,0.197-3.952c-3.598,0.096-7.113,0.166-10.705,0.166c-3.607,0-7.138-0.07-10.645-0.166
		c0.1,1.341,0.132,2.637,0.163,3.952c0.048,0.701,0.048,1.348,0.048,2.057h1.118c0.032-0.996,0.249-1.961,0.38-2.854
		c0.083-0.949,0.536-1.061,1.318-1.104l5.695-0.173C224.729,333.464,224.729,334.631,224.768,336.055 M289.779,351.893v-16.979
		c0-2.886-0.043-3.154,3.514-3.339v-1.099c-1.756,0.095-3.514,0.179-5.326,0.179c-1.818,0-3.555-0.084-5.215-0.179v1.099
		c3.537,0.185,3.51,0.453,3.51,3.339v6.852h-14.818v-6.852c0-2.886-0.039-3.154,3.512-3.339v-1.099
		c-1.764,0.095-3.512,0.179-5.313,0.179c-1.813,0-3.57-0.084-5.227-0.179v1.099c3.559,0.185,3.508,0.453,3.508,3.339v16.979
		c0,2.872,0.051,3.158-3.508,3.324v1.125c1.656-0.108,3.412-0.187,5.227-0.187c1.801,0,3.549,0.076,5.313,0.187v-1.125
		c-3.551-0.166-3.512-0.452-3.512-3.324v-8.598h14.818v8.598c0,2.872,0.027,3.158-3.51,3.324v1.125
		c1.66-0.108,3.395-0.187,5.215-0.187c1.813,0,3.57,0.076,5.326,0.187v-1.125C289.736,355.051,289.779,354.765,289.779,351.893
		 M343.979,354.708l0.729-1.654l-0.324-0.368c-2.248,1.462-4.859,2.315-7.51,2.315c-7.451,0-12.258-5.113-12.258-12.516
		c0-6.704,4.207-11.033,10.33-11.033c2.648,0,4.426,0.639,5.957,1.379c2.156,1.062,1.602,1.909,1.686,4.305h1.1
		c0.211-1.871,0.422-3.717,0.805-5.556c-3.109-0.895-6.365-1.687-9.646-1.687c-7.311,0-14.215,4.819-14.215,13.401
		c0,8.785,6.814,13.595,14.961,13.595C337.951,356.892,341.66,356.034,343.979,354.708 M395.641,351.317l-8.926-21.071h-1.188
		c-0.957,2.669-2.18,5.363-3.363,7.994l-4.988,11.168l-1.813,3.819c-0.889,1.934-1.135,1.582-3.236,1.997v1.117
		c1.418-0.108,2.822-0.187,4.26-0.187c1.471,0,2.867,0.076,4.268,0.187v-1.117c-1.316-0.166-3.154,0-3.154-1.215
		c0-0.815,2.043-5.217,2.496-6.229h10.52l2.23,5.414c0.324,0.665,0.273,1.259-0.236,1.514c-0.824,0.453-1.826,0.479-2.77,0.519
		v1.116c1.619-0.107,3.219-0.186,4.928-0.186c1.648,0,3.289,0.076,4.885,0.186v-1.116c-0.814-0.038-1.596-0.263-2.021-0.625
		C396.609,353.712,396.146,352.485,395.641,351.317 M380.578,346.19l4.629-11.04l4.629,11.04H380.578z M430.422,334.906v16.979
		c0,2.881,0.012,3.166-3.545,3.34v1.125c1.674-0.116,3.416-0.192,5.236-0.192c1.813,0,3.545,0.076,5.332,0.192v-1.125
		c-3.553-0.174-3.52-0.459-3.52-3.34v-16.979c0-1.155,0-1.922,0.209-2.548c1.01-0.308,2.428-0.498,3.697-0.498
		c2.754,0,5.703,1.176,5.703,5.198c0,2.72-2.203,4.73-4.805,5.166c-1.115,0.189-2.26,0.234-3.408,0.146l-0.166,0.567l8.824,11.335
		c0.535,0.61,0.939,1.274,1.525,2.073c0.861-0.114,1.68-0.19,2.496-0.19c0.85,0,1.725,0.076,2.535,0.19v-1.125
		c-0.754-0.09-1.521-0.338-2.125-1.032l-8.385-10.95c3.619-0.709,7.238-3.123,7.238-7.141c0-3.114-2.393-5.894-7.508-5.617
		c-2.146,0.089-4.305,0.166-6.457,0.166c-2.193,0-4.354-0.077-6.43-0.166v1.093C430.434,331.758,430.422,332.021,430.422,334.906
		 M484.197,351.272v-7.146c8.357-0.306,8.613-0.521,8.613,3.653h1.23v-8.537h-1.23c-0.021,3.614-0.563,3.173-8.613,3.083v-6.896
		c0-1.313,0.014-2.164,0.166-3.069c1.23-0.191,2.977-0.191,4.598-0.191c1.865,0,3.742,0.063,5.521,0.627
		c0.25,1.148,0.484,2.178,0.512,3.633h1.164c0-0.784,0.105-1.41,0.105-2.202c0.033-1.188,0.182-2.362,0.582-3.575
		c-1.277-0.172-3.813-0.134-6.148-0.172c-2.223,0.095-4.473,0.172-6.77,0.172c-2.271,0-4.488-0.077-6.773-0.172v1.104
		c3.576,0.178,3.545,0.446,3.545,3.325v16.985c0,2.489-1.35,3.269-3.219,3.332v1.125c2.283-0.116,4.469-0.205,6.717-0.205
		c2.26,0,4.48,0.089,6.674,0.205c2.266-0.06,4.756,0,6.129-0.205v-3.054c0-1.198,0.223-2.223,0.377-3.015h-1.219l-0.359,2.052
		c-0.082,0.656-0.236,1.314-0.434,1.877c-1.896,0.549-3.947,0.625-5.939,0.625c-1.787,0-3.684,0-5.063-0.166
		C484.211,353.482,484.197,352.607,484.197,351.272"/>
	<path fill="#008BB0" d="M179.512,301.006c-0.635-0.562-2.877-3.332-6.729-8.307l-13.495-17.751
		c-3.32-4.342-5.434-7.106-6.346-8.371c4.903-1.079,8.885-2.586,11.937-4.56c3.062-1.959,5.383-4.443,6.992-7.374
		c1.599-2.956,2.403-5.965,2.403-8.928c0-3.244-0.868-6.192-2.563-8.938c-1.73-2.738-4.15-4.693-7.27-5.926
		c-3.112-1.188-8.086-1.808-14.913-1.808c-0.883,0-4.108,0.115-9.683,0.326c-4.277,0.128-7.448,0.217-9.482,0.217l-10.273-0.281
		c-2.854-0.069-4.98-0.114-6.379-0.146v3.429c4.243,0.076,6.833,0.249,7.726,0.557c0.917,0.307,1.591,0.767,2.002,1.392
		c0.406,0.62,0.661,2.618,0.754,6.027c0.108,4.644,0.182,9.38,0.182,14.227v24.808c-0.117,9.38-0.198,14.449-0.204,15.195
		c-0.114,2.758-0.383,4.481-0.824,5.186c-0.345,0.55-1.005,0.965-1.909,1.265c-0.267,0.09-0.695,0.167-1.219,0.229
		c-1.251-0.108-2.175-0.279-2.672-0.518c-0.792-0.396-1.543-1.214-2.203-2.459c-1.223-2.209-3.681-7.675-7.416-16.385l-22.854-53.71
		h-3.461c-4.817,11.455-7.948,18.868-9.395,22.162L58.821,280.78c-3.981,8.716-6.296,13.696-6.944,15.037
		c-1.104,2.315-1.97,3.755-2.545,4.311c-0.574,0.543-1.223,0.926-1.921,1.116c-0.713,0.211-2.452,0.325-5.291,0.371v3.634
		c4.105-0.318,7.898-0.492,11.365-0.492c2.989,0,7.506,0.174,13.541,0.492v-3.634c-3.32-0.046-5.648-0.217-6.95-0.491
		c-0.837-0.187-1.424-0.512-1.836-0.978c-0.288-0.303-0.412-0.729-0.412-1.245c0-1.124,0.508-2.912,1.549-5.39l5.826-13.768h31.022
		l6.574,16.391c0.494,1.238,0.749,2.254,0.749,3.064c0,0.491-0.169,0.906-0.462,1.239c-0.287,0.339-0.878,0.601-1.74,0.792
		c-0.855,0.166-3.288,0.299-7.263,0.383v3.633h0.009l-0.009,0.008h50.902l-0.006-0.008v-3.44c-4.212-0.063-6.789-0.248-7.701-0.563
		c-0.936-0.3-1.615-0.753-2.009-1.398c-0.424-0.645-0.635-2.66-0.73-6.063c-0.149-4.598-0.225-9.322-0.225-14.181v-23.786
		c0.225-9.871,0.35-15.082,0.394-15.579c0.051-1.674,0.182-3.467,0.301-5.409c3.537-1.117,7.167-1.653,10.813-1.653
		c5.888,0,10.236,1.276,13.138,3.884c2.864,2.578,4.323,6.06,4.323,10.477c0,5.026-1.683,9.074-5.029,12.141
		c-3.361,3.076-8.278,4.615-14.772,4.615c-0.973,0-2.385-0.07-4.235-0.173l-0.55,1.609c3.413,3.889,6.964,8.212,10.718,13.013
		c2.354,2.905,5.016,6.494,8.049,10.815c5.459,7.771,9.342,13,11.679,15.701c3.059-0.234,5.635-0.332,7.748-0.332
		c2.023,0,4.399,0.098,7.132,0.332v-3.446c-1.826,0-3.007-0.077-3.53-0.249C180.149,301.436,179.843,301.282,179.512,301.006z
		 M67.026,275.212l13.639-32.291l13.419,32.291H67.026z M307.512,229.372c3.711,0,7.096-0.07,10.109-0.217v3.356
		c-3.385,0.064-5.627,0.326-6.666,0.838c-0.461,0.19-0.762,0.563-0.99,1.026c-0.314,0.69-0.529,2.574-0.684,5.652
		c-0.197,4.699-0.281,8.766-0.281,12.137v25.746c0,5.229,0.068,14.948,0.256,29.174l-5.031-1.584l-1.191-0.248
		c-0.193-0.076-0.359-0.211-0.508-0.324c-0.24-0.18-0.859-0.896-1.863-2.141c-2.699-3.378-4.676-5.9-5.934-7.623l-6.301-8.717
		l-34.544-45.361v41.063c0,3.506,0.096,7.617,0.338,12.359c0.138,2.996,0.342,4.771,0.648,5.461c0.201,0.529,0.562,0.861,1.011,1.1
		c1.062,0.497,3.289,0.777,6.67,0.798v3.385c-2.856-0.269-5.993-0.384-9.446-0.384c-3.767,0-7.859,0.115-12.254,0.384v-3.385
		c3.375-0.021,5.617-0.313,6.709-0.855c0.452-0.229,0.772-0.555,0.967-1.041c0.315-0.7,0.555-2.571,0.668-5.6
		c0.217-4.725,0.302-8.793,0.302-12.222v-43.63c0-1.188-0.065-1.936-0.179-2.292c-0.274-0.664-0.861-1.411-1.758-2.307
		c-0.595-0.573-1.274-0.957-2.04-1.085c-0.505-0.113-1.577-0.186-2.899-0.242c-0.262,3.703-0.438,8.471-0.555,14.283h-3.407
		l-0.45-5.146c-0.294-3.116-0.498-4.866-0.58-5.307c-0.113-0.435-0.282-0.74-0.467-0.899c-0.201-0.187-0.488-0.339-0.875-0.436
		c-0.505-0.121-2.282-0.241-5.36-0.421c-3.063-0.198-5.494-0.295-7.273-0.295h-6.531c-0.374,3.438-0.53,8.078-0.53,13.896v31.317
		c0,4.86,0.041,9.592,0.138,14.188c0.13,3.396,0.393,5.421,0.778,6.064c0.419,0.646,1.093,1.111,2.002,1.404
		c0.881,0.313,3.482,0.492,7.72,0.563v3.439c-6.378-0.307-11.193-0.447-14.389-0.447c-1.392,0-6.971,0.143-16.714,0.447v-3.439
		c4.25-0.07,6.826-0.25,7.768-0.563c0.929-0.293,1.552-0.722,1.884-1.277c0.45-0.7,0.719-2.426,0.85-5.172
		c0-0.746,0.054-5.821,0.217-15.209v-31.213c0-1.494-0.025-3.142-0.111-4.942l-0.343-9.055h-7.962
		c-4.597,0-8.259,0.198-10.979,0.543c-0.868,0.108-1.397,0.357-1.641,0.696c-0.424,0.626-0.757,2.565-1.098,5.849l-0.588,5.415
		h-3.308c-0.048-8.543-0.224-14.424-0.53-17.725c3.876,0.152,9.99,0.312,18.307,0.521c6.743,0.153,11.235,0.219,13.502,0.219
		c2.413,0,8.042-0.104,16.876-0.319c4.802-0.111,8.626-0.207,11.471-0.313v-0.106c0.571,0.016,1.028,0.023,1.556,0.041
		c0.299-0.018,0.66-0.028,0.929-0.041c-0.004,0.019-0.004,0.044-0.007,0.063c3.945,0.104,6.577,0.154,7.761,0.154
		c2.348,0,4.716-0.07,7.049-0.217c2.752,3.958,4.807,6.889,6.107,8.778l10.078,13.657l14.719,19.477
		c4.705,6.206,8.498,11.129,11.354,14.673c1.809,2.383,3.359,4.221,4.584,5.58v-39.155c0-3.505-0.113-7.598-0.344-12.31
		c-0.143-2.957-0.357-4.803-0.641-5.511c-0.217-0.467-0.566-0.806-1.016-0.996c-1.086-0.512-3.326-0.772-6.686-0.838v-3.356
		C299.729,229.302,303.609,229.372,307.512,229.372z M373.836,286.596h3.537c-0.945,7.216-1.438,13.191-1.438,17.941
		c-3.039,0.461-6.813,0.717-11.176,0.717l-31.971-0.44c-0.447,0-5.127,0.128-14.002,0.44v-3.386
		c3.732-0.021,6.191-0.313,7.381-0.854c0.492-0.229,0.855-0.557,1.066-1.041c0.377-0.701,0.6-2.572,0.76-5.6
		c0.217-4.726,0.316-8.794,0.316-12.223v-27.36c0-4.853-0.057-9.571-0.172-14.219c-0.102-3.417-0.355-5.415-0.77-6.035
		c-0.408-0.625-1.066-1.079-1.986-1.396c-0.906-0.295-3.492-0.474-7.738-0.55v-3.435l15.273,0.312l16.135-0.268
		c7.771-0.103,13.377-0.153,16.891-0.153c3.537,0,6.869,0.191,9.992,0.596c-0.582,2.018-0.951,3.792-1.162,5.278
		c-0.084,0.333-0.377,4.056-0.938,11.155h-3.379c0.02-3.652-0.229-6.973-0.701-9.974c-1.973-0.812-4.113-1.373-6.479-1.666
		c-3.984-0.468-7.994-0.729-12.008-0.729c-0.854,0-2.764,0.051-5.699,0.217c-2.988,0.143-5.098,0.256-6.395,0.358
		c-0.145,3.979-0.232,7.682-0.311,11.154l-0.213,18.09c4.176,0.204,8,0.308,11.5,0.308c4.229,0,7.881-0.199,10.861-0.582
		c1.129-0.146,1.877-0.429,2.215-0.844c0.307-0.435,0.596-1.908,0.844-4.386l0.326-3.756h3.217v1.01l-0.262,11.142l0.262,12.465
		h-3.754l-0.172-3.621c-0.061-2.654-0.295-4.282-0.723-4.935c-0.396-0.646-1.188-1.099-2.313-1.341
		c-2.043-0.431-6.01-0.646-11.838-0.646c-2.4,0-5.816,0.09-10.166,0.271c-0.186,3.563-0.293,8.875-0.293,15.897
		c0,6.607,0.107,11.642,0.293,15.063c5.113,0.389,10.881,0.574,17.283,0.574c4.527,0,7.752-0.147,9.705-0.435
		c1.922-0.289,3.691-0.762,5.334-1.442c0.436-1.087,0.855-2.58,1.289-4.489C373.057,290.6,373.561,288.217,373.836,286.596z
		 M448.945,301.558c0.518,0.172,1.717,0.247,3.543,0.247v3.449c-2.738-0.235-5.098-0.334-7.125-0.334
		c-2.127,0-4.705,0.099-7.777,0.334c-2.332-2.701-6.219-7.932-11.666-15.703c-3.033-4.32-5.721-7.909-8.059-10.814
		c-3.742-4.801-7.299-9.124-10.695-13.014l0.543-1.608c1.865,0.104,3.27,0.173,4.234,0.173c6.484,0,11.436-1.538,14.762-4.616
		c3.357-3.063,5.057-7.111,5.057-12.14c0-4.417-1.461-7.897-4.348-10.478c-2.898-2.605-7.279-3.883-13.121-3.883
		c-3.699,0-7.307,0.536-10.811,1.653c-0.146,1.942-0.271,3.735-0.326,5.409c-0.039,0.497-0.152,5.708-0.377,15.579v23.785
		c0,4.857,0.068,9.582,0.225,14.182c0.09,3.403,0.313,5.421,0.732,6.064c0.402,0.646,1.055,1.1,2,1.397
		c0.904,0.313,3.479,0.499,7.699,0.563v3.447c-5.045-0.307-9.725-0.435-13.971-0.435c-3.418,0-9.201,0.128-17.305,0.435v-3.447
		c4.213-0.063,6.807-0.25,7.707-0.563c0.932-0.3,1.582-0.715,1.953-1.265c0.416-0.702,0.684-2.427,0.805-5.187
		c0.014-0.746,0.084-5.814,0.191-15.195v-24.807c0-4.847-0.037-9.583-0.16-14.227c-0.096-3.409-0.363-5.407-0.762-6.027
		c-0.438-0.625-1.084-1.085-2.018-1.392c-0.887-0.308-3.467-0.479-7.719-0.557v-3.429c1.393,0.031,3.529,0.076,6.373,0.146
		l10.285,0.281c2.057,0,5.195-0.089,9.486-0.217c5.559-0.211,8.801-0.326,9.682-0.326c6.84,0,11.787,0.619,14.896,1.808
		c3.127,1.231,5.535,3.188,7.277,5.926c1.699,2.746,2.561,5.694,2.561,8.938c0,2.963-0.803,5.972-2.404,8.928
		c-1.615,2.931-3.936,5.413-6.984,7.373c-3.033,1.975-7.031,3.479-11.922,4.561c0.898,1.266,3.014,4.029,6.334,8.371l13.473,17.751
		c3.852,4.976,6.123,7.745,6.762,8.308C448.299,301.282,448.633,301.436,448.945,301.558z M40.563,268.36
		c-2.957,0.122-5.591-0.226-7.12-0.646l-1.21-4.073c1.641,0.435,4.281,0.882,7.008,0.995c8.971,0.332,15.863-6.454,15.863-15.758
		c0-11.392-6.893-16.641-17.843-16.641c-3.716,0-7.311,0.9-10.822,1.545c-0.643,1.853-0.643,4.15-0.643,7.549v50.227
		c0,8.535-0.121,9.303,10.398,9.84v3.279c-5.271-0.323-10.398-0.543-15.778-0.543c-5.354,0-10.507,0.22-15.417,0.543v-3.279
		c10.5-0.537,10.382-1.305,10.382-9.84v-50.227c0-8.524,0.118-9.298-10.382-9.841v-3.301c6.334,0.346,12.678,0.55,19.261,0.55
		c6.468,0,12.783-0.204,19.14-0.55c10.605,0,22.648,4.615,22.648,16.959C66.049,258.833,54.228,267.823,40.563,268.36z M505,279.324
		c0,18.707-16.748,27.681-33.043,27.681c-6.582,0-12.707-1.631-18.729-4.146c0.439-4.17,0.662-9.412,0.799-13.658v-3.09h3.684v5.146
		c0,2.414,0.242,4.496,1.539,5.703c4.387,3.805,11.373,5.023,16.986,5.023c9.832,0,19.447-5.797,19.447-16.646
		c0-26.467-43.322-1.734-43.322-33.579c0-14.979,12.691-24.514,26.822-24.514c7.412,0,14.322,2.42,21.23,5.051
		c-0.346,1.744-0.785,3.486-0.896,5.236c-0.209,3.274-0.654,6.455-0.777,9.737h-3.729c0-4.156,0-7.013-1.059-8.742
		c-2.982-4.604-10.734-6.372-15.896-6.372c-8.943,0-16.617,6.252-16.617,15.663C461.441,271.56,505,251.879,505,279.324z"/>
</g>
</svg>
