<svg enable-background="new 0 0 500 500" height="500" viewBox="0 0 500 500" width="500" xmlns="http://www.w3.org/2000/svg"><g clip-rule="evenodd" fill-rule="evenodd"><g fill="#3a3781"><path d="m21.703 355c-1 0-1-.147-1-1 0-34.666 0-69.334 0-104 5.655.008 11.326.286 16.959-.061 4.437-.273 7.23.481 5.845 6.873 9.546-8.344 19.721-10.459 30.843-7.67 7.867 1.973 14.131 6.51 19.046 12.929 11.55 15.083 10.888 38.059-1.504 52.29-12.25 14.07-28.556 15.691-48.163 4.341 0 10.265.007 20.159-.005 30.054-.002 2.131.34 4.33-1.021 6.244-.667 0-1.333 0-2 0m3.032-67.773c-.066 10.669 7.201 18.278 17.499 18.324 10.705.049 18.175-7.416 18.236-18.221.06-10.561-7.306-18.229-17.598-18.318-10.709-.094-18.069 7.298-18.137 18.215z"/><path d="m341.67 318.672c-19.354 11.391-36.012 9.728-47.85-4.199-12.963-15.25-13.166-38.515-.471-53.86 11.838-14.31 28.232-16.085 48.162-4.938-.461-5.593 2.887-6.07 7.121-5.688 4.773.43 11.021-1.977 13.992.893 3.229 3.117 1.016 9.457 1.051 14.375.137 18.144-.045 36.291.137 54.434.037 3.693-.971 5.115-4.734 4.834-3.643-.271-7.328-.193-10.982-.02-3.852.184-7.196.018-6.426-5.831zm.201-31.598c-.029-10.823-7.42-18.147-18.229-18.064-10.332.08-17.605 7.579-17.631 18.183-.029 10.827 7.309 18.309 18 18.356 10.585.049 17.889-7.508 17.86-18.475z"/><path d="m194.727 296.027c-7.156.001-14.313-.043-21.468.039-1.371.016-3.361-.82-3.964 1.002-.49 1.479.974 2.727 1.917 3.85 5.493 6.549 17.908 8.125 26.172 2.72 3.097-2.026 5.2-1.831 7.933-.067 3.071 1.982 6.153 4.018 9.449 5.564 3.713 1.744 3.071 3.354.734 5.834-12.136 12.887-36.313 15.496-52.669 5.568-15.293-9.282-22.001-29.285-15.708-46.844 6.845-19.098 26.44-29.47 46.595-24.663 18.261 4.354 30.497 22.559 28.45 42.036-.38 3.611-1.463 5.242-5.477 5.057-7.307-.34-14.641-.097-21.964-.096zm-10.737-16.251c4.33 0 8.66-.054 12.988.021 2.607.045 3.412-.935 2.209-3.313-3.015-5.963-7.989-8.65-14.555-8.732-6.674-.084-12.032 2.131-15.244 8.366-1.25 2.427-1.011 3.745 2.112 3.681 4.163-.088 8.327-.022 12.49-.023z"/><path d="m238.916 288.127c0-3.498-.27-7.021.065-10.484.45-4.645-.974-6.992-5.962-6.191-.649.104-1.335-.047-1.995.016-2.894.275-4.289-.75-4.146-3.92.202-4.486.162-8.993.012-13.484-.099-2.964.935-4.055 4.019-4.107 7.986-.135 8.207-.289 7.914-8.396-.149-4.161.975-6.403 5.277-7.297 4.542-.944 8.965-2.511 13.395-3.942 2.66-.859 3.707-.021 3.674 2.712-.057 4.495.07 8.993-.002 13.488-.041 2.501.896 3.754 3.51 3.508.824-.078 1.664-.006 2.496-.003 9.313.032 9.313.032 9.313 9.599v.999c0 10.481.002 10.654-10.662 10.761-3.898.039-4.807 1.602-4.703 5.092.188 6.322.031 12.654.055 18.982.023 6.699 1.697 8.474 8.412 9.021 6.896.561 6.896.561 6.898 7.625.004 13.062.004 13.062-12.916 12.869-15.623-.231-23.004-6.885-24.351-22.377-.416-4.789-.064-9.645-.064-14.469-.081-.002-.16-.002-.239-.002z"/><path d="m112.242 287.494c-.001-10.993.107-21.988-.066-32.98-.054-3.407.898-4.797 4.481-4.553 4.145.281 8.343.313 12.483-.006 4.112-.316 5.471 1.047 5.413 5.27-.222 16.154-.088 32.314-.089 48.472 0 5.663-.11 11.329.038 16.989.075 2.834-1.03 3.867-3.793 3.801-4.828-.115-9.665-.162-14.489.02-3.039.115-4.066-.992-4.029-4.031.135-10.994.053-21.988.051-32.982z"/><path d="m136.635 230.229c-.147 7.445-6.125 13.115-13.674 12.971-7.44-.143-13.258-6.224-13.003-13.592.254-7.375 6.372-13.012 13.876-12.784 7.002.212 12.939 6.429 12.801 13.405z"/></g><g fill="#ed7128"><path d="m393.402 147.355c5.943 2.607 6.709 3.749 5.113 10.354-2.539 10.515-6.422 20.584-10.582 30.549-5.568 13.336-11.385 26.554-18.857 38.964-.891 1.48-1.633 4.003-3.639 3.483-1.906-.493-1.662-3.016-1.582-4.771 1.178-25.538 5.201-50.529 14.746-74.398.939-2.35 2.715-4.366 4.102-6.537h4"/><path d="m479.297 237.953c-4.814 6.665-11.549 8.11-18.809 10.307-20.889 6.318-42.203 10.331-64.057 11.083-2.324.079-5.992 1.047-6.613-1.402-.639-2.511 3.006-3.548 5.135-4.573 22.975-11.049 47.102-18.876 71.75-25.129 6.482-1.645 10.377 1.926 12.439 7.865"/><path d="m402.703 355c-7.105-9.58-11.314-20.542-15.07-31.711-.348-1.035-.953-2.48.162-3.24 1.49-1.014 2.43.531 3.256 1.414 7.199 7.693 12.967 16.414 18.066 25.591 2.242 4.034-.723 5.962-3.414 7.946-1 0-2 0-3 0z"/><path d="m448.623 177.784c4.883.646 7.367 4.652 9.52 8.804 1.883 3.626-1.305 5.675-3.365 7.467-20.334 17.687-42.934 31.963-67.021 43.949-.594.297-1.215.571-1.855.735-1.256.321-2.803 1.144-3.686-.167-.654-.973.342-2.203.961-3.18 3.939-6.23 8.904-11.639 13.988-16.902 12.734-13.186 25.863-25.96 41.117-36.288 2.978-2.017 5.931-4.39 10.341-4.418z"/><path d="m397.75 270.96c22.152 1.772 45.369 4.818 68.346 9.683 4.152.878 6.66 3.059 7.4 7.007.896 4.782 1.359 9.683-2.176 13.781-2.082 2.417-4.869 1.673-7.469 1.13-13.883-2.895-27.121-7.846-40.348-12.805-10.426-3.91-20.768-8.061-30.646-13.23-1.902-.996-5.457-1.766-4.725-4.254.695-2.359 4.145-.979 6.369-1.297.653-.094 1.331-.015 3.249-.015z"/><path d="m440.92 336.622c-.086.994-.105 1.999-.268 2.981-1.295 7.828-4.398 9.424-11.25 5.506-8.777-5.019-15.727-12.223-22.523-19.543-8.041-8.657-15.768-17.576-21.682-27.892-.814-1.423-2.268-3.206-1.188-4.562 1.451-1.817 3.443-.135 4.92.621 18.037 9.23 34.527 20.613 48.455 35.457 1.909 2.037 3.862 4.238 3.536 7.432z"/><path d="m348.184 228.242c-4.439-5.239-6.166-10.127-8.131-14.805-7.867-18.736-15.436-37.597-18.92-57.765-1.105-6.399 2.258-9.699 8.695-9.04 3.352.343 4.781 2.741 6.008 5.342 4.238 8.979 6.129 18.636 7.953 28.291 2.541 13.428 4.543 26.931 4.824 40.628.039 1.935-.217 3.876-.429 7.349z"/><path d="m428.117 228.115c8.402-8.937 17.793-16.624 28.748-22.396 3.592-1.893 4.859.639 6.061 2.993 1.604 3.145 1.627 6.375-1.965 8.106-5.367 2.588-10.895 4.87-16.438 7.069-5.176 2.054-10.461 3.83-15.697 5.729-.236-.501-.472-1.001-.709-1.501z"/><path d="m420.348 175.884c-.096 1.465-.6 2.652-1.459 3.729-6.635 8.317-13.52 16.408-21.543 23.441-1.045.915-2.27 2.581-3.781 1.407-1.27-.986-.039-2.541.447-3.65 4.43-10.098 10.518-19.211 17.123-27.974 1.363-1.811 3.293-3.293 6.053-2.08 2.373 1.043 2.849 3.031 3.16 5.127z"/><path d="m321.947 192.554c.146 2.728-.98 3.054-2.719 2.053-1.143-.657-2.223-1.466-3.203-2.349-6.926-6.243-13.023-13.217-18.447-20.807-2.014-2.815-2.025-5.136.844-7.254 2.762-2.039 5.039-1.778 7.238 1.056 5.613 7.229 10.688 14.786 14.68 23.034.717 1.48 1.17 3.087 1.607 4.267z"/><path d="m351.373 161.78c.064-1.451.082-3.442.258-5.419.283-3.169 1.645-5.61 5.234-5.258 3.453.339 6.693 1.454 6.531 5.912-.346 9.494-1.848 18.787-5.18 27.724-.324.871-.453 2.191-1.678 2.212-1.547.026-1.59-1.509-1.873-2.52-2.013-7.229-2.835-14.641-3.292-22.651z"/><path d="m457.766 269.095c-7.816-.241-15.607-.776-23.313-2.163-1.4-.252-3.496-.412-3.654-2.016-.172-1.769 1.938-1.948 3.275-2.25 10.732-2.424 21.605-3.744 32.615-3.631 3.004.031 5.191 1.451 5.039 4.86-.139 3.093-1.875 4.979-4.986 5.161-2.982.176-5.982.039-8.976.039z"/><path d="m455.24 317.829c-.008 4.028-4.078 6.888-7.502 4.99-8.916-4.943-17.057-10.976-24.195-18.288-1.107-1.133-2.93-2.479-1.814-4.141.838-1.25 2.846-.6 4.223-.093 9.561 3.522 18.523 8.235 26.973 13.915 1.235.833 2.313 1.926 2.315 3.617z"/></g></g></svg>