<?xml version="1.0" encoding="utf-8"?>
<!-- Generator: Adobe Illustrator 16.0.0, SVG Export Plug-In . SVG Version: 6.00 Build 0)  -->
<!DOCTYPE svg PUBLIC "-//W3C//DTD SVG 1.1//EN" "http://www.w3.org/Graphics/SVG/1.1/DTD/svg11.dtd">
<svg version="1.1" id="Layer_1" xmlns="http://www.w3.org/2000/svg" xmlns:xlink="http://www.w3.org/1999/xlink" x="0px" y="0px"
	 width="500px" height="500px" viewBox="0 0 500 500" enable-background="new 0 0 500 500" xml:space="preserve">
<g>
	<path fill-rule="evenodd" clip-rule="evenodd" fill="#3A3781" d="M21.703,355c-1,0-1-0.147-1-1c0-34.666,0-69.334,0-104
		c5.655,0.008,11.326,0.286,16.959-0.061c4.437-0.273,7.23,0.481,5.845,6.873c9.546-8.344,19.721-10.459,30.843-7.67
		c7.867,1.973,14.131,6.51,19.046,12.929c11.55,15.083,10.888,38.059-1.504,52.29c-12.25,14.07-28.556,15.691-48.163,4.341
		c0,10.265,0.007,20.159-0.005,30.054c-0.002,2.131,0.34,4.33-1.021,6.244c-0.667,0-1.333,0-2,0 M43.735,287.227
		c-0.066,10.669,7.201,18.278,17.499,18.324c10.705,0.049,18.175-7.416,18.236-18.221c0.06-10.561-7.306-18.229-17.598-18.318
		C51.163,268.918,43.803,276.31,43.735,287.227z"/>
	<path fill-rule="evenodd" clip-rule="evenodd" fill="#3A3781" d="M341.67,318.672c-19.354,11.391-36.012,9.728-47.85-4.199
		c-12.963-15.25-13.166-38.515-0.471-53.86c11.838-14.31,28.232-16.085,48.162-4.938c-0.461-5.593,2.887-6.07,7.121-5.688
		c4.773,0.43,11.021-1.977,13.992,0.893c3.229,3.117,1.016,9.457,1.051,14.375c0.137,18.144-0.045,36.291,0.137,54.434
		c0.037,3.693-0.971,5.115-4.734,4.834c-3.643-0.271-7.328-0.193-10.982-0.02C344.244,324.687,340.9,324.521,341.67,318.672z
		 M341.871,287.074c-0.029-10.823-7.42-18.147-18.229-18.064c-10.332,0.08-17.605,7.579-17.631,18.183
		c-0.029,10.827,7.309,18.309,18,18.356C334.596,305.598,341.9,298.041,341.871,287.074z"/>
	<path fill-rule="evenodd" clip-rule="evenodd" fill="#3A3781" d="M194.727,296.027c-7.156,0.001-14.313-0.043-21.468,0.039
		c-1.371,0.016-3.361-0.82-3.964,1.002c-0.49,1.479,0.974,2.727,1.917,3.85c5.493,6.549,17.908,8.125,26.172,2.72
		c3.097-2.026,5.2-1.831,7.933-0.067c3.071,1.982,6.153,4.018,9.449,5.564c3.713,1.744,3.071,3.354,0.734,5.834
		c-12.136,12.887-36.313,15.496-52.669,5.568c-15.293-9.282-22.001-29.285-15.708-46.844c6.845-19.098,26.44-29.47,46.595-24.663
		c18.261,4.354,30.497,22.559,28.45,42.036c-0.38,3.611-1.463,5.242-5.477,5.057C209.384,295.783,202.05,296.026,194.727,296.027z
		 M183.99,279.776c4.33,0,8.66-0.054,12.988,0.021c2.607,0.045,3.412-0.935,2.209-3.313c-3.015-5.963-7.989-8.65-14.555-8.732
		c-6.674-0.084-12.032,2.131-15.244,8.366c-1.25,2.427-1.011,3.745,2.112,3.681C175.663,279.711,179.827,279.777,183.99,279.776z"/>
	<path fill-rule="evenodd" clip-rule="evenodd" fill="#3A3781" d="M238.916,288.127c0-3.498-0.27-7.021,0.065-10.484
		c0.45-4.645-0.974-6.992-5.962-6.191c-0.649,0.104-1.335-0.047-1.995,0.016c-2.894,0.275-4.289-0.75-4.146-3.92
		c0.202-4.486,0.162-8.993,0.012-13.484c-0.099-2.964,0.935-4.055,4.019-4.107c7.986-0.135,8.207-0.289,7.914-8.396
		c-0.149-4.161,0.975-6.403,5.277-7.297c4.542-0.944,8.965-2.511,13.395-3.942c2.66-0.859,3.707-0.021,3.674,2.712
		c-0.057,4.495,0.07,8.993-0.002,13.488c-0.041,2.501,0.896,3.754,3.51,3.508c0.824-0.078,1.664-0.006,2.496-0.003
		c9.313,0.032,9.313,0.032,9.313,9.599c0,0.332,0,0.666,0,0.999c0,10.481,0.002,10.654-10.662,10.761
		c-3.898,0.039-4.807,1.602-4.703,5.092c0.188,6.322,0.031,12.654,0.055,18.982c0.023,6.699,1.697,8.474,8.412,9.021
		c6.896,0.561,6.896,0.561,6.898,7.625c0.004,13.062,0.004,13.062-12.916,12.869c-15.623-0.231-23.004-6.885-24.351-22.377
		c-0.416-4.789-0.064-9.645-0.064-14.469C239.074,288.127,238.995,288.127,238.916,288.127z"/>
	<path fill-rule="evenodd" clip-rule="evenodd" fill="#3A3781" d="M112.242,287.494c-0.001-10.993,0.107-21.988-0.066-32.98
		c-0.054-3.407,0.898-4.797,4.481-4.553c4.145,0.281,8.343,0.313,12.483-0.006c4.112-0.316,5.471,1.047,5.413,5.27
		c-0.222,16.154-0.088,32.314-0.089,48.472c0,5.663-0.11,11.329,0.038,16.989c0.075,2.834-1.03,3.867-3.793,3.801
		c-4.828-0.115-9.665-0.162-14.489,0.02c-3.039,0.115-4.066-0.992-4.029-4.031C112.326,309.482,112.244,298.488,112.242,287.494z"/>
	<path fill-rule="evenodd" clip-rule="evenodd" fill="#3A3781" d="M136.635,230.229c-0.147,7.445-6.125,13.115-13.674,12.971
		c-7.44-0.143-13.258-6.224-13.003-13.592c0.254-7.375,6.372-13.012,13.876-12.784C130.836,217.036,136.773,223.253,136.635,230.229
		z"/>
</g>
<g>
	<path fill-rule="evenodd" clip-rule="evenodd" fill="#ED7128" d="M393.402,147.355c5.943,2.607,6.709,3.749,5.113,10.354
		c-2.539,10.515-6.422,20.584-10.582,30.549c-5.568,13.336-11.385,26.554-18.857,38.964c-0.891,1.48-1.633,4.003-3.639,3.483
		c-1.906-0.493-1.662-3.016-1.582-4.771c1.178-25.538,5.201-50.529,14.746-74.398c0.939-2.35,2.715-4.366,4.102-6.537
		c1.334,0,2.668,0,4,0"/>
	<path fill-rule="evenodd" clip-rule="evenodd" fill="#ED7128" d="M479.297,237.953c-4.814,6.665-11.549,8.11-18.809,10.307
		c-20.889,6.318-42.203,10.331-64.057,11.083c-2.324,0.079-5.992,1.047-6.613-1.402c-0.639-2.511,3.006-3.548,5.135-4.573
		c22.975-11.049,47.102-18.876,71.75-25.129c6.482-1.645,10.377,1.926,12.439,7.865"/>
	<path fill-rule="evenodd" clip-rule="evenodd" fill="#ED7128" d="M402.703,355c-7.105-9.58-11.314-20.542-15.07-31.711
		c-0.348-1.035-0.953-2.48,0.162-3.24c1.49-1.014,2.43,0.531,3.256,1.414c7.199,7.693,12.967,16.414,18.066,25.591
		c2.242,4.034-0.723,5.962-3.414,7.946C404.703,355,403.703,355,402.703,355z"/>
	<path fill-rule="evenodd" clip-rule="evenodd" fill="#ED7128" d="M448.623,177.784c4.883,0.646,7.367,4.652,9.52,8.804
		c1.883,3.626-1.305,5.675-3.365,7.467c-20.334,17.687-42.934,31.963-67.021,43.949c-0.594,0.297-1.215,0.571-1.855,0.735
		c-1.256,0.321-2.803,1.144-3.686-0.167c-0.654-0.973,0.342-2.203,0.961-3.18c3.939-6.23,8.904-11.639,13.988-16.902
		c12.734-13.186,25.863-25.96,41.117-36.288C441.26,180.185,444.213,177.812,448.623,177.784z"/>
	<path fill-rule="evenodd" clip-rule="evenodd" fill="#ED7128" d="M397.75,270.96c22.152,1.772,45.369,4.818,68.346,9.683
		c4.152,0.878,6.66,3.059,7.4,7.007c0.896,4.782,1.359,9.683-2.176,13.781c-2.082,2.417-4.869,1.673-7.469,1.13
		c-13.883-2.895-27.121-7.846-40.348-12.805c-10.426-3.91-20.768-8.061-30.646-13.23c-1.902-0.996-5.457-1.766-4.725-4.254
		c0.695-2.359,4.145-0.979,6.369-1.297C395.154,270.881,395.832,270.96,397.75,270.96z"/>
	<path fill-rule="evenodd" clip-rule="evenodd" fill="#ED7128" d="M440.92,336.622c-0.086,0.994-0.105,1.999-0.268,2.981
		c-1.295,7.828-4.398,9.424-11.25,5.506c-8.777-5.019-15.727-12.223-22.523-19.543c-8.041-8.657-15.768-17.576-21.682-27.892
		c-0.814-1.423-2.268-3.206-1.188-4.562c1.451-1.817,3.443-0.135,4.92,0.621c18.037,9.23,34.527,20.613,48.455,35.457
		C439.293,331.227,441.246,333.428,440.92,336.622z"/>
	<path fill-rule="evenodd" clip-rule="evenodd" fill="#ED7128" d="M348.184,228.242c-4.439-5.239-6.166-10.127-8.131-14.805
		c-7.867-18.736-15.436-37.597-18.92-57.765c-1.105-6.399,2.258-9.699,8.695-9.04c3.352,0.343,4.781,2.741,6.008,5.342
		c4.238,8.979,6.129,18.636,7.953,28.291c2.541,13.428,4.543,26.931,4.824,40.628C348.652,222.828,348.396,224.769,348.184,228.242z
		"/>
	<path fill-rule="evenodd" clip-rule="evenodd" fill="#ED7128" d="M428.117,228.115c8.402-8.937,17.793-16.624,28.748-22.396
		c3.592-1.893,4.859,0.639,6.061,2.993c1.604,3.145,1.627,6.375-1.965,8.106c-5.367,2.588-10.895,4.87-16.438,7.069
		c-5.176,2.054-10.461,3.83-15.697,5.729C428.59,229.115,428.354,228.615,428.117,228.115z"/>
	<path fill-rule="evenodd" clip-rule="evenodd" fill="#ED7128" d="M420.348,175.884c-0.096,1.465-0.6,2.652-1.459,3.729
		c-6.635,8.317-13.52,16.408-21.543,23.441c-1.045,0.915-2.27,2.581-3.781,1.407c-1.27-0.986-0.039-2.541,0.447-3.65
		c4.43-10.098,10.518-19.211,17.123-27.974c1.363-1.811,3.293-3.293,6.053-2.08C419.561,171.8,420.037,173.788,420.348,175.884z"/>
	<path fill-rule="evenodd" clip-rule="evenodd" fill="#ED7128" d="M321.947,192.554c0.146,2.728-0.98,3.054-2.719,2.053
		c-1.143-0.657-2.223-1.466-3.203-2.349c-6.926-6.243-13.023-13.217-18.447-20.807c-2.014-2.815-2.025-5.136,0.844-7.254
		c2.762-2.039,5.039-1.778,7.238,1.056c5.613,7.229,10.688,14.786,14.68,23.034C321.057,189.767,321.51,191.374,321.947,192.554z"/>
	<path fill-rule="evenodd" clip-rule="evenodd" fill="#ED7128" d="M351.373,161.78c0.064-1.451,0.082-3.442,0.258-5.419
		c0.283-3.169,1.645-5.61,5.234-5.258c3.453,0.339,6.693,1.454,6.531,5.912c-0.346,9.494-1.848,18.787-5.18,27.724
		c-0.324,0.871-0.453,2.191-1.678,2.212c-1.547,0.026-1.59-1.509-1.873-2.52C352.652,177.202,351.83,169.79,351.373,161.78z"/>
	<path fill-rule="evenodd" clip-rule="evenodd" fill="#ED7128" d="M457.766,269.095c-7.816-0.241-15.607-0.776-23.313-2.163
		c-1.4-0.252-3.496-0.412-3.654-2.016c-0.172-1.769,1.938-1.948,3.275-2.25c10.732-2.424,21.605-3.744,32.615-3.631
		c3.004,0.031,5.191,1.451,5.039,4.86c-0.139,3.093-1.875,4.979-4.986,5.161C463.76,269.232,460.76,269.095,457.766,269.095z"/>
	<path fill-rule="evenodd" clip-rule="evenodd" fill="#ED7128" d="M455.24,317.829c-0.008,4.028-4.078,6.888-7.502,4.99
		c-8.916-4.943-17.057-10.976-24.195-18.288c-1.107-1.133-2.93-2.479-1.814-4.141c0.838-1.25,2.846-0.6,4.223-0.093
		c9.561,3.522,18.523,8.235,26.973,13.915C454.16,315.045,455.238,316.138,455.24,317.829z"/>
</g>
</svg>
