<svg enable-background="new 0 0 400 400" height="400" viewBox="0 0 400 400" width="400" xmlns="http://www.w3.org/2000/svg"><path d="m303.613 326.432c-3.901-1.95-8.689-4.787-20.393-24.116l-23.23-37.77-27.129-44.508-1.951-3.9c.887 0 2.837-.89 3.901-.89 31.032-10.637 49.296-38.654 49.296-79.263 0-20.392-7.802-38.656-23.229-52.311-1.95-1.95-4.788-3.901-6.738-5.851-21.278-13.477-49.296-18.442-86.002-18.442h-70.576c-3.901 0-4.787 2.837-2.837 4.787 1.951 1.952 3.901 4.789 3.901 12.59v222.542c-.886 8.688-2.836 11.527-3.901 13.479-1.95 1.95-.886 4.787 3.901 4.787h51.247v-93.806h23.23l16.491 28.018 20.393 34.756 9.752 17.379c11.526 19.329 22.166 31.918 40.608 34.755 1.95 0 11.526 1.95 15.427 1.95h3.901c7.801 0 15.427-2.836 20.392-4.787 0 0 .887-.886 1.95-.886 6.383-3.548 4.433-7.449 1.596-8.513zm-120.935-139.199h-32.982v-90.968h32.804c16.491 0 29.082 1.951 37.77 10.64 3.9 2.837 5.852 6.737 7.803 11.526 1.951 5.852 3.901 12.589 3.901 21.278.001 11.704-.887 47.524-49.296 47.524z" fill="#fff"/></svg>