<?xml version="1.0" encoding="utf-8"?>
<!-- Generator: Adobe Illustrator 16.0.0, SVG Export Plug-In . SVG Version: 6.00 Build 0)  -->
<!DOCTYPE svg PUBLIC "-//W3C//DTD SVG 1.1//EN" "http://www.w3.org/Graphics/SVG/1.1/DTD/svg11.dtd">
<svg version="1.1" id="layer" xmlns="http://www.w3.org/2000/svg" xmlns:xlink="http://www.w3.org/1999/xlink" x="0px" y="0px"
	 width="400px" height="400px" viewBox="0 0 400 400" enable-background="new 0 0 400 400" xml:space="preserve">
<path fill="#FFFFFF" d="M303.613,326.432c-3.901-1.95-8.689-4.787-20.393-24.116l-23.23-37.77l-27.129-44.508l-1.951-3.9
	c0.887,0,2.837-0.89,3.901-0.89c31.032-10.637,49.296-38.654,49.296-79.263c0-20.392-7.802-38.656-23.229-52.311
	c-1.95-1.95-4.788-3.901-6.738-5.851c-21.278-13.477-49.296-18.442-86.002-18.442H97.562c-3.901,0-4.787,2.837-2.837,4.787
	c1.951,1.952,3.901,4.789,3.901,12.59v222.542c-0.886,8.688-2.836,11.527-3.901,13.479c-1.95,1.95-0.886,4.787,3.901,4.787h51.247
	v-93.806h23.23l16.491,28.018l20.393,34.756l9.752,17.379c11.526,19.329,22.166,31.918,40.608,34.755
	c1.95,0,11.526,1.95,15.427,1.95h3.901c7.801,0,15.427-2.836,20.392-4.787c0,0,0.887-0.886,1.95-0.886
	C308.4,331.397,306.45,327.496,303.613,326.432z M182.678,187.233h-32.982V96.265H182.5c16.491,0,29.082,1.951,37.77,10.64
	c3.9,2.837,5.852,6.737,7.803,11.526c1.951,5.852,3.901,12.589,3.901,21.278C231.975,151.413,231.087,187.233,182.678,187.233z"/>
</svg>
