<svg enable-background="new 0 0 400 400" height="400" viewBox="0 0 400 400" width="400" xmlns="http://www.w3.org/2000/svg"><path d="m399.993 200c0 110.463-89.537 200-200 200s-199.993-89.537-199.993-200 89.537-200 199.993-200 200 89.544 200 200z" fill="#ef373e"/><path d="m333.732 156.919c23.723 73.665-16.911 152.671-90.74 176.456-73.83 23.785-152.967-16.637-176.669-90.287-23.702-73.651 16.911-152.67 90.775-176.462 73.864-23.793 152.911 16.642 176.634 90.293z" fill="#0054a6"/><path d="m45.281 282.67 4.812-2.509-3.533-6.785 3.671-1.911 3.561 6.785 9.514-4.949 2.2 4.213-21.688 11.302-5.98-11.474 3.671-1.91zm3.581-36.008c2.64.859 4.929 3.218 6.029 6.359s.9 6.4-.598 8.736c-1.127 1.727-2.839 2.93-5.568 3.898l-14.03 5.045-1.608-4.481 13.144-4.736c2.344-.839 3.052-1.244 3.836-2.192 1.687-2.304 1.187-5.539-1.117-7.226-.533-.391-1.137-.675-1.777-.839-1.21-.227-2.021-.096-4.358.75l-13.171 4.736-1.608-4.482 14.072-5.039c2.699-.982 4.809-1.147 6.754-.529zm-1.464-20.045-8.352 8.373.11.611 9.624-1.904.914 4.682-23.957 4.723-1.375-6.943c-1.072-5.375.908-8.984 5.403-9.864 3.657-.729 6.455.735 7.864 4.124l8.6-9.548zm-19.083 9.624.282 1.437 7.259-1.437-.268-1.375c-.591-2.997-2.2-4.31-4.599-3.85s-3.251 2.331-2.674 5.231zm17.227-38.42-16.437 15.46 16.499-.584.165 4.764-24.975.873-.11-3.293 16.499-15.467-16.437.584-.165-4.757 24.885-.88zm.062-8.95-24.335-2.179.426-4.757 24.335 2.193zm-17.55-21.338 19.977 3.527-.825 4.688-19.983-3.533-.928 5.382-4.125-.729 2.75-15.467 4.069.688zm24.149-22.775c1.588 2.275 1.932 5.541.921 8.717s-3.176 5.644-5.768 6.585c-1.953.688-4.042.605-6.799-.275l-14.209-4.496 1.437-4.543 13.343 4.228c2.372.749 3.189.859 4.386.584 2.742-.821 4.3-3.709 3.479-6.452-.187-.625-.491-1.209-.895-1.722-.818-.907-1.54-1.292-3.918-2.062l-13.343-4.228 1.437-4.544 14.216 4.496c2.757.901 4.51 2.042 5.713 3.712zm10.827-16.814-11.687 1.609-.275.557 8.827 4.324-2.063 4.269-22.004-10.731 3.107-6.352c2.413-4.936 6.187-6.606 10.311-4.592 3.362 1.636 4.695 4.503 3.774 8.036l12.628-2.378zm-21.014-3.884-.64 1.327 6.647 3.245.612-1.244c1.334-2.75.853-4.757-1.375-5.843-2.227-1.087-3.931-.152-5.244 2.515zm25.359-3.863-20.423-13.398 7.411-11.301 3.437 2.275-4.812 7.314 4.53 2.97 4.62-7.039 3.437 2.269-4.62 7.053 5.5 3.609 4.812-7.321 3.437 2.269zm17.419-34.22c-1.945 2.016-5.157 2.073-7.173.128s-2.074-5.157-.128-7.173c1.945-2.016 5.157-2.074 7.173-.128.008.008.017.016.025.024 1.99 1.951 2.036 5.141.103 7.149zm37.052-20.012-4.578-3.196-8.373 5.465.983 5.5-4.242 2.75-4.736-26.68 3.004-1.959 22.204 15.309zm-15.583-11.102 1.835 9.308 5.83-3.801zm25.929-4.227-2.784 1.306 3.836 8.188-4.311 2.014-10.359-22.115 6.469-3.024c2.887-1.375 4.661-1.623 6.627-1.045 2.093.661 3.808 2.181 4.715 4.179 2.09 4.475.585 8.249-4.193 10.497zm-6.056-9.583-1.499.688 3.011 6.427 1.76-.811c2.75-1.286 3.547-2.97 2.53-5.149-1.018-2.179-2.853-2.543-5.802-1.155zm25.538 2.124-2.921.942 2.75 8.606-4.537 1.464-7.486-23.263 6.806-2.186c3.031-.976 4.812-1.017 6.709-.206 1.982.935 3.48 2.662 4.125 4.757 1.545 4.703-.421 8.264-5.446 9.886zm-4.812-10.27-1.567.502 2.172 6.764 1.849-.591c2.86-.921 3.891-2.481 3.162-4.812s-2.502-2.867-5.609-1.863zm18.801 15.756-4.812-23.957 4.674-.935 3.987 19.935 7.362-1.485.818 4.056zm15.302-2.654-2.791-24.266 4.729-.55 2.798 24.266zm26.933-1.45-2.11-5.163h-10.002l-2.179 5.176h-5.053l10.532-24.974h3.588l10.312 24.919zm-7.039-17.79-3.534 8.799h6.958zm34.351 22.011-11.817-19.248-2.749 16.292-4.688-.804 4.193-24.624 3.252.557 11.81 19.248 2.75-16.216 4.667.811-4.166 24.541zm19.585 5.994c-6.649-2.142-10.304-9.268-8.162-15.917.033-.105.068-.209.105-.313 2.334-6.701 9.659-10.24 16.359-7.905.033.011.065.023.098.034 1.938.662 3.674 1.807 5.045 3.327l-1.814 5.293c-1.237-2.475-2.605-3.795-4.757-4.537-4.234-1.444-8.751.907-10.276 5.341-1.609 4.681.48 9.074 5.018 10.634 2.063.688 3.884.522 6.317-.687l-1.821 5.3c-2.054.302-4.15.106-6.112-.57zm9.961 3.231 10.813-21.901 12.127 5.981-1.843 3.712-7.843-3.877-2.399 4.874 7.562 3.733-1.842 3.698-7.563-3.732-2.914 5.912 7.844 3.877-1.829 3.699zm21.262 12.718c-3.024-1.98-4.447-4.626-4.529-8.524l4.199-.797c-.314 2.205.691 4.388 2.571 5.582 1.538 1.151 3.718.838 4.869-.7.037-.05.073-.101.108-.152.576-.864.648-1.969.191-2.901-.57-1.052-1.237-2.048-1.993-2.977-2.859-3.788-3.196-6.07-1.375-8.888 2.193-3.341 6.593-4.049 10.208-1.685 2.217 1.438 3.826 3.64 4.523 6.187l-3.87 1.375c-.282-1.842-.948-2.977-2.131-3.76-1.726-1.121-3.622-.969-4.462.316-.721 1.107-.398 2.159 1.375 4.613 3.438 4.62 3.844 6.971 1.712 10.215-2.535 3.958-7.258 4.804-11.396 2.096zm30.123 13.879c-2.007-1.955-2.049-5.167-.094-7.174s5.167-2.049 7.174-.094 2.049 5.167.094 7.174c-.006.006-.012.012-.018.018-1.961 1.983-5.153 2.016-7.156.076zm10.435 23.496 20.244-13.659 7.563 11.205-3.438 2.31-4.901-7.259-4.489 3.039 4.723 6.991-3.437 2.303-4.723-6.984-5.466 3.691 4.901 7.252-3.437 2.316zm9.858 15.172 21.585-11.446 2.234 4.207-17.921 9.507 3.52 6.633-3.664 1.925zm7.045 13.968 22.686-9.06 5.011 12.559-3.836 1.533-3.251-8.132-5.025 2.021 3.114 7.823-3.856 1.526-3.121-7.823-6.118 2.44 3.238 8.139-3.836 1.533zm8.896 28.398c-1.854-6.735 2.103-13.698 8.838-15.552.11-.031.221-.06.332-.087 6.866-1.73 13.835 2.433 15.565 9.298.011.044.022.089.032.133.51 1.982.51 4.061 0 6.042l-5.424 1.375c1.375-2.399 1.739-4.262 1.176-6.476-1.106-4.324-5.555-6.812-10.098-5.65-4.813 1.217-7.321 5.382-6.139 10.029.536 2.097 1.697 3.534 4.021 4.909l-5.431 1.375c-1.372-1.545-2.357-3.395-2.872-5.396zm23.758 14.848-20.128 2.564-.605-4.729 20.107-2.564-.688-5.41 4.125-.515 1.986 15.584-4.124.522zm-19.282 23.098 9.768-6.662v-.619l-9.81.069-.041-4.771 24.438-.151.041 7.074c0 5.5-2.578 8.655-7.156 8.675-3.739.035-6.187-1.932-6.971-5.5l-10.229 7.762zm20.546-5.885v-1.471l-7.403.062v1.375c0 3.039 1.375 4.633 3.794 4.626 2.42-.007 3.63-1.622 3.609-4.592zm-22.857 26.369c1.135-7.383 7.445-12.092 14.767-10.964 6.874 1.052 11.576 7.699 10.469 14.835-1.106 7.211-7.499 12.022-14.58 10.964-6.989-1.085-11.775-7.63-10.69-14.62.011-.071.022-.142.034-.215zm20.967 3.198c.856-4.572-2.155-8.972-6.727-9.828-4.571-.855-8.971 2.155-9.827 6.727s2.155 8.971 6.727 9.828c.102.019.204.035.307.051 4.496.741 8.749-2.286 9.52-6.778zm-30.522 32.109 20.953-8.414-15.605-5.5 1.561-4.495 23.6 8.249-1.1 3.114-20.946 8.441 15.536 5.41-1.574 4.495-23.523-8.187zm-3.217 8.572 21.889 10.861-2.111 4.262-21.888-10.867zm-11.274 18.664c3.623-5.973 11.401-7.879 17.375-4.256.096.059.19.118.285.179 5.973 3.817 7.72 11.754 3.902 17.726-.02.031-.04.063-.06.093-1.097 1.723-2.609 3.142-4.399 4.124l-4.736-2.996c2.688-.626 4.296-1.65 5.499-3.568 2.393-3.781 1.155-8.717-2.818-11.232-4.166-2.653-8.937-1.629-11.494 2.434-1.161 1.814-1.374 3.656-.817 6.283l-4.743-2.998c.2-2.062.888-4.046 2.006-5.789zm-10.434 13.803c2.337-2.75 5.128-3.87 9.005-3.484l.289 4.275c-2.152-.582-4.446.158-5.851 1.891-1.322 1.361-1.291 3.537.071 4.859.061.061.125.117.19.172.784.676 1.871.877 2.846.529 1.114-.434 2.183-.978 3.189-1.622 4.125-2.378 6.414-2.454 8.999-.282 3.052 2.558 3.23 7.02.446 10.313-1.688 2.034-4.071 3.371-6.688 3.753l-.894-4.008c1.862-.056 3.072-.577 3.994-1.671 1.319-1.566 1.374-3.479.206-4.461-1.004-.846-2.063-.688-4.736.846-5.005 2.873-7.383 2.983-10.353.48-3.615-3.018-3.904-7.809-.713-11.59zm-17.337 27.869c2.175-1.766 5.37-1.434 7.136.741s1.434 5.37-.742 7.136c-2.175 1.766-5.37 1.434-7.136-.741-.01-.012-.02-.023-.028-.035-1.728-2.18-1.386-5.343.77-7.101zm-35.375 12.656c6.177-3.254 13.822-.884 17.076 5.294.057.105.111.214.164.322 3.148 6.358.547 14.066-5.812 17.215-.026.014-.054.026-.079.039-1.832.919-3.865 1.358-5.912 1.279l-2.517-5.012c2.64.846 4.537.805 6.565-.22 4-2.001 5.499-6.874 3.382-11.075-2.214-4.42-6.813-6-11.116-3.855-1.938.969-3.086 2.412-3.938 4.97l-2.509-5.005c1.229-1.672 2.838-3.027 4.696-3.952zm-20.52 8.104c7.142-2.213 14.126 1.416 16.305 8.496 2.063 6.648-1.869 13.749-8.764 15.887-6.896 2.139-14.113-1.478-16.224-8.352-2.069-6.752 1.728-13.902 8.479-15.971.068-.021.136-.04.204-.06zm6.262 20.225c4.477-1.231 7.109-5.858 5.878-10.336-1.23-4.477-5.858-7.108-10.335-5.877-4.477 1.23-7.109 5.857-5.878 10.334.024.09.051.18.079.27 1.297 4.368 5.877 6.873 10.256 5.609zm-45.315-12.745 3.725 14.711 5.088-15.962 1.313-.131 8.022 14.601.907-15.198 4.771-.488-1.967 25.207-3.252.344-8.248-15.24-5.246 16.623-3.278.344-6.606-24.322zm-17.681 8.661 3.073.186.563-9.019 4.757.296-1.533 24.383-7.128-.454c-3.176-.186-4.867-.825-6.324-2.269-1.507-1.59-2.276-3.74-2.118-5.926.303-4.936 3.445-7.527 8.71-7.197zm.722 11.308 1.65.104.44-7.081-1.932-.124c-3.004-.192-4.544.887-4.688 3.293s1.278 3.609 4.53 3.808zm-29.862-22.046c2.104-1.802 5.307-2.481 8.572-1.808s5.939 2.584 7.135 5.08c.887 1.869 1.011 3.952.426 6.791l-3.052 14.594-4.661-.969 2.853-13.7c.516-2.434.529-3.259.137-4.421-1.093-2.645-4.124-3.903-6.77-2.811-.601.248-1.149.607-1.617 1.059-.825.914-1.134 1.678-1.65 4.124l-2.853 13.687-4.633-.976 3.039-14.595c.572-2.831 1.52-4.7 3.074-6.055zm-20.327 11.391 6.716-19.159 4.496 1.574-6.723 19.152 5.149 1.814-1.375 3.898-14.821-5.204 1.375-3.905zm-1.451-22.136-10.559 22.061-12.188-5.844 1.787-3.739 7.892 3.788 2.344-4.881-7.596-3.65 1.794-3.732 7.562 3.643 2.853-5.953-7.878-3.781 1.78-3.725zm-26.513-14.621.22 11.824.516.336 5.328-8.248 4.001 2.584-13.254 20.52-5.933-3.836c-4.612-2.977-5.836-6.874-3.348-10.751 2.063-3.128 5.018-4.124 8.442-2.798l-.887-12.82zm-6.332 20.41 1.224.79 4.015-6.187-1.162-.75c-2.564-1.643-4.626-1.422-5.96.646-1.334 2.071-.619 3.9 1.883 5.501zm-5.706-30.584c2.75 2.352 3.85 5.148 3.437 9.025l-4.262.269c.589-2.146-.135-4.438-1.849-5.856-1.382-1.334-3.584-1.296-4.918.086-.046.048-.091.098-.134.147-.672.786-.88 1.866-.55 2.846.437 1.112.978 2.18 1.615 3.19 2.351 4.124 2.413 6.434.227 8.998-2.585 3.045-7.04 3.196-10.312.398-2.022-1.707-3.342-4.102-3.705-6.723l4.007-.866c.048 1.876.557 3.087 1.643 3.993 1.561 1.375 3.472 1.416 4.468.255.853-1.011.653-2.063-.832-4.757-2.846-5.012-2.929-7.404-.419-10.359 3.04-3.595 7.817-3.849 11.584-.646zm-27.703-17.633c1.75 2.189 1.394 5.381-.795 7.131s-5.381 1.394-7.13-.795-1.394-5.381.795-7.131c.01-.008.02-.016.029-.023 2.19-1.724 5.361-1.358 7.101.818z" fill="#fff"/><path d="m86.204 166.17 176.937-66.542 6.458 17.173-176.937 66.542z" fill="#ef373e"/><path d="m194.301 248.896c-25.937.688-45.274-20.285-63.147-35.059 11.851-4.455 16.106-8.249 13.817-14.36-1.966-5.231-6.586-5.706-11.625-3.815l-12.731 4.812 18.973 50.643-18.842 7.012-23.868-63.587 44.49-16.739c4.476-1.677 15.027-.144 19.172 11.219 4.606 12.662-4.324 19.722-7.376 22.472 4.991 3.828 9.624 7.143 14.491 10.867 1.773-18.223 3.478-37.512 4.991-56.286 6.936-2.619 14.285-5.383 21.187-7.967 15.385 15.501 31.264 30.982 47.363 46.105 1.471-1.602 2.214-3.788 3.162-5.877-9.279-5.768-15.329-16.794-16.209-27.917-1.574-11.556 6.076-23.971 15.261-30.027 8.627-5.664 20.622-10.174 30.707-11.535l5.657 15.055c-10.057.474-23.297 3.547-28.975 12.449-4.881 6.874-2.75 15.261 1.072 21.798 4.283 5.857 12.725 8.937 19.813 7.479 7.809-1.375 14.195-6.029 19.935-10.428l5.499 14.587c-9.781 7.843-24.547 14.257-37.121 13.061-12.503 25.526-35.82 45.214-65.696 46.038zm-4.358-67.931-.688 18.994 14.141-5.321c-4.187-4.352-9.095-9.418-13.467-13.673zm24.307 24.527-25.538 9.625c-.254 6.564-.57 11.892-1.045 17.873 13.171 1.807 29.14-4.174 38.729-14.189l-12.146-13.254z" fill="#ffdf00"/><g fill="#fff"><path d="m312.408 242.586c-.514-1.389.196-2.931 1.585-3.443 1.389-.514 2.931.195 3.444 1.585.514 1.389-.196 2.931-1.585 3.444-.003 0-.005.002-.008.002-1.346.53-2.866-.131-3.396-1.478-.013-.036-.027-.073-.04-.11zm3.273 1.176c1.156-.371 1.794-1.609 1.423-2.766-.37-1.158-1.608-1.795-2.766-1.424-1.157.37-1.794 1.608-1.424 2.766.006.016.011.033.017.049.35 1.124 1.544 1.752 2.667 1.402.028-.009.055-.018.083-.027zm-.75-.448-.439.158-1.018-2.88 1.093-.386c.688-.24 1.1-.109 1.3.447.172.41-.021.881-.43 1.053-.011.005-.021.009-.031.013l1.271.962-.495.187-1.168-.977-.495.172.446 1.251zm-.062-1.807c.371-.131.688-.269.536-.688s-.475-.31-.776-.206l-.592.206.31.894.522-.186zm-171.554 40.056c2.859-.887 5.025.193 6.015 3.053 1.801 5.225-3.176 8.16-3.176 8.16 1.616.921 2.296 4.069 3.575 6.125.337.536 1.443.24 1.45.797l.413 2.338-4.853 1.725s-3.204-7.259-3.63-7.815c-.756-1.004-2.062-.481-3.224.075.193 3.087.653 9.906.653 9.906l-6.091 2.151-.117-2.097c.33-.337 1.512-1.443 1.499-2.385 0 0-1.01-13.371-1.182-14.697-.073-.748-.68-1.332-1.43-1.375l-.206-2.255 10.312-3.685zm-3.534 11.177s1.705-.529 3.547-1.271 1.78-3.196 1.375-4.475-1.093-2.262-2.399-1.795c-1.306.468-2.956 1.08-2.956 1.08l.419 6.461zm78.676-19.095c.44.955 1.773.824 1.773.824l.482 2.028-8.201 2.915-.255-2.248s1.45-.997 1.561-1.891l-.688-2.316-6.407 2.275-.281 2.853c-.055.57 1.031.536 1.031.536l.494 2.454-6.379 2.33-.199-2.419s1.154-.585 1.307-1.252l4.268-17.378c.187-1.018-1.43-.688-1.43-.688l-1.037-2.405 7.83-2.805zm-6.283-3.101-2.715-7.755-2.063 9.508zm-15.845 7.968c1.279.302 2.75-1.231 3.238-3.438s-.145-4.193-1.443-4.482c-1.299-.289-2.75 1.224-3.245 3.438-.495 2.212.151 4.199 1.45 4.482zm25.366-8.992c1.293.295 2.75-1.237 3.244-3.438.495-2.199-.158-4.199-1.437-4.496-1.278-.295-2.749 1.238-3.245 3.438-.493 2.2.145 4.2 1.438 4.496zm22.637-9.453c.439 5.499-2.983 10.022-5.85 11.04-4.304 1.54-6.875-.123-8.868-5.691-2.316-6.518.44-15.812 6.386-17.922 1.953-.688 3.197-.996 4.902.385l.611-1.883 2.063-.805.385 8.518-2.166.838c-1.045-2.199-2.55-4.605-4.468-3.925-3.272 1.161-4.901 8.249-3.169 13.062 1.121 3.127 2.57 3.801 4.654 3.065 1.738-.618 2.254-2.825 2.818-5.768l2.688-.941zm38.29-28.651.282 3.945 2.996-1.065.296 2.701-3.106 1.101.914 12.009c.206 2.564 2.75 0 2.75 0l.865.529c-.048 1.974-1.416 3.087-2.543 3.774s-5.08 2.254-5.664-2.488l-1.031-12.182-1.128.42-.124-2.641s3.438-1.705 3.555-5.402l1.945-.688z"/><path d="m299.58 233.244 5.252-5.637 2.311-.812.502 2.228c1.224-2.564 2.543-5.5 4.646-4.304 2.956 1.712 1.705 7.095-.281 8.249-1.987 1.155-2.826-.887-2.523-2.371-1.038-1.162-1.76 1.34-1.78 2.75 0 .824.371 7.85.371 7.85.138 1.176 2.145 1.024 2.158 1.506l.31 2.344-7.686 2.75-.584-1.691s1.547-1.491 1.52-2.592c-.027-1.1-.818-10.662-.818-10.662l-11.686 11.879c.543 1.815 1.512 2.558 2.921 2.791 1.685.282 3.691-3.224 5.169-5.499l1.836.859c-.592 3.183-3.926 6.874-5.156 7.514-1.505.756-8.324 3.644-9.066-6.125-.316-4.083.873-8.442 2.949-10.429 3.554-3.389 6.303-3.21 7.65-2.543.849.443 1.545 1.131 2 1.973zm-8.145 2.117c-1.251 1.547-1.505 3.939-.804 6.874.096-.048 5.396-5.678 5.396-5.678s-2.207-4.125-4.593-1.183v-.013zm-32.88 12.484 5.231-5.623 2.323-.817.42 3.271c1.588-2.316 4.75-6.469 7.465-4.956 1.059.591 1.217 2.214 1.547 4.124 0 0 .495 7.432.688 9.322.076.763 1.471.907 1.471.907l.076 2.688-5.719 2.021-1.039-12.758c-.322-2.688-4.338-.357-3.918 1.787l1.127 12.313-6.372 2.247-.584-1.685s1.499-1.478 1.499-2.592c0-1.113-.818-10.654-.818-10.654l-11.687 11.871c.543 1.815 1.505 2.551 2.907 2.791 1.691.282 3.691-3.21 5.177-5.499l1.829.859c-.578 3.183-3.919 6.874-5.149 7.514-1.505.763-8.317 3.644-9.067-6.118-.303-4.083.881-8.448 2.949-10.428 3.547-3.403 6.318-3.218 7.658-2.551.844.447 1.539 1.131 2 1.966zm-8.159 2.124c-1.32 1.492-1.513 3.939-.812 6.875.11-.063 5.403-5.699 5.403-5.699s-1.842-4.311-4.591-1.176zm-86.974 32.213 5.231-5.637 2.331-.818.419 3.272c1.588-2.31 4.744-6.469 7.459-4.956 1.065.591 1.224 2.213 1.553 4.125 0 0 .502 7.431.688 9.328.076.77 1.464.914 1.464.914l.083 2.66-5.727 2.063-1.072-12.772c-.316-2.681-4.331-.344-3.911 1.787l1.127 12.319-6.365 2.254-.591-1.697s1.547-1.479 1.519-2.578c-.027-1.1-.832-10.662-.832-10.662l-11.687 11.872c.55 1.814 1.506 2.55 2.915 2.749 1.691.289 3.691-3.203 5.183-5.499l1.822.859c-.578 3.19-3.925 6.874-5.142 7.521-1.512.756-8.325 3.644-9.067-6.132-.316-4.083.873-8.441 2.942-10.421 3.547-3.39 6.317-3.218 7.651-2.558.851.448 1.547 1.14 2 1.986zm-8.139 2.103c-1.423 1.375-1.512 3.939-.811 6.875l5.403-5.686c0 .001-1.375-4.337-4.592-1.189zm31.965-18.89.275 3.946 3.011-1.065.289 2.701-3.107 1.107.907 11.995c.206 2.578 2.75 0 2.75 0l.852.55c-.041 1.973-1.375 3.08-2.55 3.768s-5.066 2.254-5.65-2.482l-.997-12.236-1.134.42-.117-2.633s3.437-1.691 3.54-5.396l1.953-.688z"/></g></svg>