<?xml version="1.0" encoding="utf-8"?>
<!-- Generator: Adobe Illustrator 16.0.0, SVG Export Plug-In . SVG Version: 6.00 Build 0)  -->
<!DOCTYPE svg PUBLIC "-//W3C//DTD SVG 1.1//EN" "http://www.w3.org/Graphics/SVG/1.1/DTD/svg11.dtd">
<svg version="1.1" id="Layer_1" xmlns="http://www.w3.org/2000/svg" xmlns:xlink="http://www.w3.org/1999/xlink" x="0px" y="0px"
	 width="400px" height="400px" viewBox="0 0 400 400" enable-background="new 0 0 400 400" xml:space="preserve">
<path fill="#EF373E" d="M399.993,200c0,110.463-89.537,200-200,200S0,310.463,0,200S89.537,0,199.993,0S399.993,89.544,399.993,200z
	"/>
<path fill="#0054A6" d="M333.732,156.919c23.723,73.665-16.911,152.671-90.74,176.456c-73.83,23.785-152.967-16.637-176.669-90.287
	c-23.702-73.651,16.911-152.67,90.775-176.462C230.962,42.833,310.009,83.268,333.732,156.919L333.732,156.919z"/>
<path fill="#FFFFFF" d="M45.281,282.67l4.812-2.509l-3.533-6.785l3.671-1.911l3.561,6.785l9.514-4.949l2.2,4.213l-21.688,11.302
	l-5.98-11.474l3.671-1.91L45.281,282.67z M48.862,246.662c2.64,0.859,4.929,3.218,6.029,6.359c1.1,3.141,0.9,6.4-0.598,8.736
	c-1.127,1.727-2.839,2.93-5.568,3.898l-14.03,5.045l-1.608-4.481l13.144-4.736c2.344-0.839,3.052-1.244,3.836-2.192
	c1.687-2.304,1.187-5.539-1.117-7.226c-0.533-0.391-1.137-0.675-1.777-0.839c-1.21-0.227-2.021-0.096-4.358,0.75l-13.171,4.736
	l-1.608-4.482l14.072-5.039C44.807,246.209,46.917,246.044,48.862,246.662z M47.398,226.617l-8.352,8.373l0.11,0.611l9.624-1.904
	l0.914,4.682l-23.957,4.723l-1.375-6.943c-1.072-5.375,0.908-8.984,5.403-9.864c3.657-0.729,6.455,0.735,7.864,4.124l8.6-9.548
	L47.398,226.617z M28.315,236.241l0.282,1.437l7.259-1.437l-0.268-1.375c-0.591-2.997-2.2-4.31-4.599-3.85
	c-2.399,0.46-3.251,2.331-2.674,5.231V236.241z M45.542,197.821l-16.437,15.46l16.499-0.584l0.165,4.764l-24.975,0.873l-0.11-3.293
	l16.499-15.467l-16.437,0.584l-0.165-4.757l24.885-0.88L45.542,197.821z M45.604,188.871l-24.335-2.179l0.426-4.757l24.335,2.193
	L45.604,188.871z M28.054,167.533l19.977,3.527l-0.825,4.688l-19.983-3.533l-0.928,5.382l-4.125-0.729l2.75-15.467l4.069,0.688
	L28.054,167.533z M52.203,144.758c1.588,2.275,1.932,5.541,0.921,8.717c-1.011,3.176-3.176,5.644-5.768,6.585
	c-1.953,0.688-4.042,0.605-6.799-0.275l-14.209-4.496l1.437-4.543l13.343,4.228c2.372,0.749,3.189,0.859,4.386,0.584
	c2.742-0.821,4.3-3.709,3.479-6.452c-0.187-0.625-0.491-1.209-0.895-1.722c-0.818-0.907-1.54-1.292-3.918-2.062l-13.343-4.228
	l1.437-4.544l14.216,4.496C49.247,141.947,51,143.088,52.203,144.758z M63.03,127.944l-11.687,1.609l-0.275,0.557l8.827,4.324
	l-2.063,4.269l-22.004-10.731l3.107-6.352c2.413-4.936,6.187-6.606,10.311-4.592c3.362,1.636,4.695,4.503,3.774,8.036l12.628-2.378
	L63.03,127.944z M42.016,124.06l-0.64,1.327l6.647,3.245l0.612-1.244c1.334-2.75,0.853-4.757-1.375-5.843
	C45.033,120.458,43.329,121.393,42.016,124.06z M67.375,120.197l-20.423-13.398l7.411-11.301l3.437,2.275l-4.812,7.314l4.53,2.97
	l4.62-7.039l3.437,2.269l-4.62,7.053l5.5,3.609l4.812-7.321l3.437,2.269L67.375,120.197z M84.794,85.977
	c-1.945,2.016-5.157,2.073-7.173,0.128s-2.074-5.157-0.128-7.173c1.945-2.016,5.157-2.074,7.173-0.128
	c0.008,0.008,0.017,0.016,0.025,0.024C86.681,80.779,86.727,83.969,84.794,85.977z M121.846,65.965l-4.578-3.196l-8.373,5.465
	l0.983,5.5l-4.242,2.75L100.9,49.804l3.004-1.959l22.204,15.309L121.846,65.965z M106.263,54.863l1.835,9.308l5.83-3.801
	L106.263,54.863z M132.192,50.636l-2.784,1.306l3.836,8.188l-4.311,2.014l-10.359-22.115l6.469-3.024
	c2.887-1.375,4.661-1.623,6.627-1.045c2.093,0.661,3.808,2.181,4.715,4.179C138.475,44.614,136.97,48.388,132.192,50.636
	L132.192,50.636z M126.136,41.053l-1.499,0.688l3.011,6.427l1.76-0.811c2.75-1.286,3.547-2.97,2.53-5.149
	C130.92,40.029,129.085,39.665,126.136,41.053L126.136,41.053z M151.674,43.177l-2.921,0.942l2.75,8.606l-4.537,1.464l-7.486-23.263
	l6.806-2.186c3.031-0.976,4.812-1.017,6.709-0.206c1.982,0.935,3.48,2.662,4.125,4.757
	C158.665,37.994,156.699,41.555,151.674,43.177z M146.862,32.907l-1.567,0.502l2.172,6.764l1.849-0.591
	c2.86-0.921,3.891-2.481,3.162-4.812c-0.729-2.331-2.502-2.867-5.609-1.863H146.862z M165.663,48.663l-4.812-23.957l4.674-0.935
	l3.987,19.935l7.362-1.485l0.818,4.056L165.663,48.663z M180.965,46.009l-2.791-24.266l4.729-0.55l2.798,24.266L180.965,46.009z
	 M207.898,44.559l-2.11-5.163h-10.002l-2.179,5.176h-5.053l10.532-24.974h3.588l10.312,24.919L207.898,44.559z M200.859,26.769
	l-3.534,8.799h6.958L200.859,26.769z M235.21,48.78l-11.817-19.248l-2.749,16.292l-4.688-0.804l4.193-24.624l3.252,0.557
	l11.81,19.248l2.75-16.216l4.667,0.811l-4.166,24.541L235.21,48.78z M254.795,54.774c-6.649-2.142-10.304-9.268-8.162-15.917
	c0.033-0.105,0.068-0.209,0.105-0.313c2.334-6.701,9.659-10.24,16.359-7.905c0.033,0.011,0.065,0.023,0.098,0.034
	c1.938,0.662,3.674,1.807,5.045,3.327l-1.814,5.293c-1.237-2.475-2.605-3.795-4.757-4.537c-4.234-1.444-8.751,0.907-10.276,5.341
	c-1.609,4.681,0.48,9.074,5.018,10.634c2.063,0.688,3.884,0.522,6.317-0.687l-1.821,5.3
	C258.853,55.646,256.757,55.45,254.795,54.774L254.795,54.774z M264.756,58.005l10.813-21.901l12.127,5.981l-1.843,3.712
	l-7.843-3.877l-2.399,4.874l7.562,3.733l-1.842,3.698l-7.563-3.732l-2.914,5.912l7.844,3.877l-1.829,3.699L264.756,58.005z
	 M286.018,70.723c-3.024-1.98-4.447-4.626-4.529-8.524l4.199-0.797c-0.314,2.205,0.691,4.388,2.571,5.582
	c1.538,1.151,3.718,0.838,4.869-0.7c0.037-0.05,0.073-0.101,0.108-0.152c0.576-0.864,0.648-1.969,0.191-2.901
	c-0.57-1.052-1.237-2.048-1.993-2.977c-2.859-3.788-3.196-6.07-1.375-8.888c2.193-3.341,6.593-4.049,10.208-1.685
	c2.217,1.438,3.826,3.64,4.523,6.187l-3.87,1.375c-0.282-1.842-0.948-2.977-2.131-3.76c-1.726-1.121-3.622-0.969-4.462,0.316
	c-0.721,1.107-0.398,2.159,1.375,4.613c3.438,4.62,3.844,6.971,1.712,10.215C294.879,72.585,290.156,73.431,286.018,70.723z
	 M316.141,84.602c-2.007-1.955-2.049-5.167-0.094-7.174s5.167-2.049,7.174-0.094s2.049,5.167,0.094,7.174
	c-0.006,0.006-0.012,0.012-0.018,0.018C321.336,86.509,318.144,86.542,316.141,84.602z M326.576,108.098l20.244-13.659l7.563,11.205
	l-3.438,2.31l-4.901-7.259l-4.489,3.039l4.723,6.991l-3.437,2.303l-4.723-6.984l-5.466,3.691l4.901,7.252l-3.437,2.316
	L326.576,108.098z M336.434,123.27l21.585-11.446l2.234,4.207l-17.921,9.507l3.52,6.633l-3.664,1.925L336.434,123.27z
	 M343.479,137.238l22.686-9.06l5.011,12.559l-3.836,1.533l-3.251-8.132l-5.025,2.021l3.114,7.823l-3.856,1.526l-3.121-7.823
	l-6.118,2.44l3.238,8.139l-3.836,1.533L343.479,137.238z M352.375,165.636c-1.854-6.735,2.103-13.698,8.838-15.552
	c0.11-0.031,0.221-0.06,0.332-0.087c6.866-1.73,13.835,2.433,15.565,9.298c0.011,0.044,0.022,0.089,0.032,0.133
	c0.51,1.982,0.51,4.061,0,6.042l-5.424,1.375c1.375-2.399,1.739-4.262,1.176-6.476c-1.106-4.324-5.555-6.812-10.098-5.65
	c-4.813,1.217-7.321,5.382-6.139,10.029c0.536,2.097,1.697,3.534,4.021,4.909l-5.431,1.375
	C353.875,169.487,352.89,167.637,352.375,165.636z M376.133,180.484l-20.128,2.564l-0.605-4.729l20.107-2.564l-0.688-5.41
	l4.125-0.515l1.986,15.584l-4.124,0.522L376.133,180.484z M356.851,203.582l9.768-6.662v-0.619l-9.81,0.069l-0.041-4.771
	l24.438-0.151l0.041,7.074c0,5.5-2.578,8.655-7.156,8.675c-3.739,0.035-6.187-1.932-6.971-5.5l-10.229,7.762L356.851,203.582z
	 M377.397,197.697v-1.471l-7.403,0.062v1.375c0,3.039,1.375,4.633,3.794,4.626C376.208,202.282,377.418,200.667,377.397,197.697z
	 M354.54,224.066c1.135-7.383,7.445-12.092,14.767-10.964c6.874,1.052,11.576,7.699,10.469,14.835
	c-1.106,7.211-7.499,12.022-14.58,10.964c-6.989-1.085-11.775-7.63-10.69-14.62C354.517,224.21,354.528,224.139,354.54,224.066z
	 M375.507,227.264c0.856-4.572-2.155-8.972-6.727-9.828c-4.571-0.855-8.971,2.155-9.827,6.727s2.155,8.971,6.727,9.828
	c0.102,0.019,0.204,0.035,0.307,0.051C370.483,234.783,374.736,231.756,375.507,227.264z M344.985,259.373l20.953-8.414l-15.605-5.5
	l1.561-4.495l23.6,8.249l-1.1,3.114l-20.946,8.441l15.536,5.41l-1.574,4.495l-23.523-8.187L344.985,259.373z M341.768,267.945
	l21.889,10.861l-2.111,4.262l-21.888-10.867L341.768,267.945z M330.494,286.609c3.623-5.973,11.401-7.879,17.375-4.256
	c0.096,0.059,0.19,0.118,0.285,0.179c5.973,3.817,7.72,11.754,3.902,17.726c-0.02,0.031-0.04,0.063-0.06,0.093
	c-1.097,1.723-2.609,3.142-4.399,4.124l-4.736-2.996c2.688-0.626,4.296-1.65,5.499-3.568c2.393-3.781,1.155-8.717-2.818-11.232
	c-4.166-2.653-8.937-1.629-11.494,2.434c-1.161,1.814-1.374,3.656-0.817,6.283l-4.743-2.998
	C328.688,290.336,329.376,288.352,330.494,286.609z M320.06,300.412c2.337-2.75,5.128-3.87,9.005-3.484l0.289,4.275
	c-2.152-0.582-4.446,0.158-5.851,1.891c-1.322,1.361-1.291,3.537,0.071,4.859c0.061,0.061,0.125,0.117,0.19,0.172
	c0.784,0.676,1.871,0.877,2.846,0.529c1.114-0.434,2.183-0.978,3.189-1.622c4.125-2.378,6.414-2.454,8.999-0.282
	c3.052,2.558,3.23,7.02,0.446,10.313c-1.688,2.034-4.071,3.371-6.688,3.753l-0.894-4.008c1.862-0.056,3.072-0.577,3.994-1.671
	c1.319-1.566,1.374-3.479,0.206-4.461c-1.004-0.846-2.063-0.688-4.736,0.846c-5.005,2.873-7.383,2.983-10.353,0.48
	C317.158,308.984,316.869,304.193,320.06,300.412L320.06,300.412z M302.723,328.281c2.175-1.766,5.37-1.434,7.136,0.741
	s1.434,5.37-0.742,7.136c-2.175,1.766-5.37,1.434-7.136-0.741c-0.01-0.012-0.02-0.023-0.028-0.035
	C300.225,333.202,300.567,330.039,302.723,328.281z M267.348,340.937c6.177-3.254,13.822-0.884,17.076,5.294
	c0.057,0.105,0.111,0.214,0.164,0.322c3.148,6.358,0.547,14.066-5.812,17.215c-0.026,0.014-0.054,0.026-0.079,0.039
	c-1.832,0.919-3.865,1.358-5.912,1.279l-2.517-5.012c2.64,0.846,4.537,0.805,6.565-0.22c4-2.001,5.499-6.874,3.382-11.075
	c-2.214-4.42-6.813-6-11.116-3.855c-1.938,0.969-3.086,2.412-3.938,4.97l-2.509-5.005
	C263.881,343.217,265.49,341.862,267.348,340.937L267.348,340.937z M246.828,349.041c7.142-2.213,14.126,1.416,16.305,8.496
	c2.063,6.648-1.869,13.749-8.764,15.887c-6.896,2.139-14.113-1.478-16.224-8.352c-2.069-6.752,1.728-13.902,8.479-15.971
	C246.692,349.08,246.76,349.061,246.828,349.041z M253.09,369.266c4.477-1.231,7.109-5.858,5.878-10.336
	c-1.23-4.477-5.858-7.108-10.335-5.877c-4.477,1.23-7.109,5.857-5.878,10.334c0.024,0.09,0.051,0.18,0.079,0.27
	C244.131,368.025,248.711,370.53,253.09,369.266z M207.775,356.521l3.725,14.711l5.088-15.962l1.313-0.131l8.022,14.601
	l0.907-15.198l4.771-0.488l-1.967,25.207l-3.252,0.344l-8.248-15.24l-5.246,16.623l-3.278,0.344l-6.606-24.322L207.775,356.521z
	 M190.094,365.182l3.073,0.186l0.563-9.019l4.757,0.296l-1.533,24.383l-7.128-0.454c-3.176-0.186-4.867-0.825-6.324-2.269
	c-1.507-1.59-2.276-3.74-2.118-5.926C181.687,367.443,184.829,364.852,190.094,365.182L190.094,365.182z M190.816,376.49l1.65,0.104
	l0.44-7.081l-1.932-0.124c-3.004-0.192-4.544,0.887-4.688,3.293C186.142,375.088,187.564,376.291,190.816,376.49z M160.954,354.444
	c2.104-1.802,5.307-2.481,8.572-1.808s5.939,2.584,7.135,5.08c0.887,1.869,1.011,3.952,0.426,6.791l-3.052,14.594l-4.661-0.969
	l2.853-13.7c0.516-2.434,0.529-3.259,0.137-4.421c-1.093-2.645-4.124-3.903-6.77-2.811c-0.601,0.248-1.149,0.607-1.617,1.059
	c-0.825,0.914-1.134,1.678-1.65,4.124l-2.853,13.687l-4.633-0.976l3.039-14.595C158.452,357.668,159.4,355.799,160.954,354.444
	L160.954,354.444z M140.627,365.835l6.716-19.159l4.496,1.574l-6.723,19.152l5.149,1.814l-1.375,3.898l-14.821-5.204l1.375-3.905
	L140.627,365.835z M139.176,343.699l-10.559,22.061l-12.188-5.844l1.787-3.739l7.892,3.788l2.344-4.881l-7.596-3.65l1.794-3.732
	l7.562,3.643l2.853-5.953l-7.878-3.781l1.78-3.725L139.176,343.699z M112.663,329.078l0.22,11.824l0.516,0.336l5.328-8.248
	l4.001,2.584l-13.254,20.52l-5.933-3.836c-4.612-2.977-5.836-6.874-3.348-10.751c2.063-3.128,5.018-4.124,8.442-2.798l-0.887-12.82
	L112.663,329.078z M106.331,349.488l1.224,0.79l4.015-6.187l-1.162-0.75c-2.564-1.643-4.626-1.422-5.96,0.646
	C103.114,346.058,103.829,347.887,106.331,349.488z M100.625,318.904c2.75,2.352,3.85,5.148,3.437,9.025l-4.262,0.269
	c0.589-2.146-0.135-4.438-1.849-5.856c-1.382-1.334-3.584-1.296-4.918,0.086c-0.046,0.048-0.091,0.098-0.134,0.147
	c-0.672,0.786-0.88,1.866-0.55,2.846c0.437,1.112,0.978,2.18,1.615,3.19c2.351,4.124,2.413,6.434,0.227,8.998
	c-2.585,3.045-7.04,3.196-10.312,0.398c-2.022-1.707-3.342-4.102-3.705-6.723l4.007-0.866c0.048,1.876,0.557,3.087,1.643,3.993
	c1.561,1.375,3.472,1.416,4.468,0.255c0.853-1.011,0.653-2.063-0.832-4.757c-2.846-5.012-2.929-7.404-0.419-10.359
	C92.081,315.955,96.858,315.701,100.625,318.904L100.625,318.904z M72.922,301.271c1.75,2.189,1.394,5.381-0.795,7.131
	s-5.381,1.394-7.13-0.795s-1.394-5.381,0.795-7.131c0.01-0.008,0.02-0.016,0.029-0.023
	C68.011,298.729,71.182,299.095,72.922,301.271z"/>
<path fill="#EF373E" d="M86.204,166.17l176.937-66.542l6.458,17.173L92.662,183.343L86.204,166.17z"/>
<path fill="#FFDF00" d="M194.301,248.896c-25.937,0.688-45.274-20.285-63.147-35.059c11.851-4.455,16.106-8.249,13.817-14.36
	c-1.966-5.231-6.586-5.706-11.625-3.815l-12.731,4.812l18.973,50.643l-18.842,7.012l-23.868-63.587l44.49-16.739
	c4.476-1.677,15.027-0.144,19.172,11.219c4.606,12.662-4.324,19.722-7.376,22.472c4.991,3.828,9.624,7.143,14.491,10.867
	c1.773-18.223,3.478-37.512,4.991-56.286c6.936-2.619,14.285-5.383,21.187-7.967c15.385,15.501,31.264,30.982,47.363,46.105
	c1.471-1.602,2.214-3.788,3.162-5.877c-9.279-5.768-15.329-16.794-16.209-27.917c-1.574-11.556,6.076-23.971,15.261-30.027
	c8.627-5.664,20.622-10.174,30.707-11.535l5.657,15.055c-10.057,0.474-23.297,3.547-28.975,12.449
	c-4.881,6.874-2.75,15.261,1.072,21.798c4.283,5.857,12.725,8.937,19.813,7.479c7.809-1.375,14.195-6.029,19.935-10.428
	l5.499,14.587c-9.781,7.843-24.547,14.257-37.121,13.061C247.494,228.384,224.177,248.072,194.301,248.896L194.301,248.896z
	 M189.943,180.965l-0.688,18.994l14.141-5.321c-4.187-4.352-9.095-9.418-13.467-13.673H189.943z M214.25,205.492l-25.538,9.625
	c-0.254,6.564-0.57,11.892-1.045,17.873c13.171,1.807,29.14-4.174,38.729-14.189l-12.146-13.254V205.492z"/>
<g>
	<path fill="#FFFFFF" d="M312.408,242.586c-0.514-1.389,0.196-2.931,1.585-3.443c1.389-0.514,2.931,0.195,3.444,1.585
		c0.514,1.389-0.196,2.931-1.585,3.444c-0.003,0-0.005,0.002-0.008,0.002c-1.346,0.53-2.866-0.131-3.396-1.478
		C312.435,242.66,312.421,242.623,312.408,242.586z M315.681,243.762c1.156-0.371,1.794-1.609,1.423-2.766
		c-0.37-1.158-1.608-1.795-2.766-1.424c-1.157,0.37-1.794,1.608-1.424,2.766c0.006,0.016,0.011,0.033,0.017,0.049
		c0.35,1.124,1.544,1.752,2.667,1.402C315.626,243.78,315.653,243.771,315.681,243.762z M314.931,243.314l-0.439,0.158l-1.018-2.88
		l1.093-0.386c0.688-0.24,1.1-0.109,1.3,0.447c0.172,0.41-0.021,0.881-0.43,1.053c-0.011,0.005-0.021,0.009-0.031,0.013l1.271,0.962
		l-0.495,0.187l-1.168-0.977l-0.495,0.172l0.446,1.251H314.931z M314.869,241.507c0.371-0.131,0.688-0.269,0.536-0.688
		s-0.475-0.31-0.776-0.206l-0.592,0.206l0.31,0.894l0.522-0.186V241.507z M143.315,281.563c2.859-0.887,5.025,0.193,6.015,3.053
		c1.801,5.225-3.176,8.16-3.176,8.16c1.616,0.921,2.296,4.069,3.575,6.125c0.337,0.536,1.443,0.24,1.45,0.797l0.413,2.338
		l-4.853,1.725c0,0-3.204-7.259-3.63-7.815c-0.756-1.004-2.062-0.481-3.224,0.075c0.193,3.087,0.653,9.906,0.653,9.906l-6.091,2.151
		l-0.117-2.097c0.33-0.337,1.512-1.443,1.499-2.385c0,0-1.01-13.371-1.182-14.697c-0.073-0.748-0.68-1.332-1.43-1.375l-0.206-2.255
		l10.312-3.685L143.315,281.563z M139.781,292.74c0,0,1.705-0.529,3.547-1.271s1.78-3.196,1.375-4.475
		c-0.405-1.279-1.093-2.262-2.399-1.795c-1.306,0.468-2.956,1.08-2.956,1.08l0.419,6.461H139.781z M218.457,273.645
		c0.44,0.955,1.773,0.824,1.773,0.824l0.482,2.028l-8.201,2.915l-0.255-2.248c0,0,1.45-0.997,1.561-1.891l-0.688-2.316l-6.407,2.275
		l-0.281,2.853c-0.055,0.57,1.031,0.536,1.031,0.536l0.494,2.454l-6.379,2.33l-0.199-2.419c0,0,1.154-0.585,1.307-1.252
		l4.268-17.378c0.187-1.018-1.43-0.688-1.43-0.688l-1.037-2.405l7.83-2.805L218.457,273.645L218.457,273.645z M212.174,270.544
		l-2.715-7.755l-2.063,9.508L212.174,270.544z M196.329,278.512c1.279,0.302,2.75-1.231,3.238-3.438
		c0.488-2.207-0.145-4.193-1.443-4.482c-1.299-0.289-2.75,1.224-3.245,3.438C194.384,276.242,195.03,278.229,196.329,278.512
		L196.329,278.512z M221.695,269.52c1.293,0.295,2.75-1.237,3.244-3.438c0.495-2.199-0.158-4.199-1.437-4.496
		c-1.278-0.295-2.749,1.238-3.245,3.438C219.764,267.224,220.402,269.224,221.695,269.52z M244.332,260.067
		c0.439,5.499-2.983,10.022-5.85,11.04c-4.304,1.54-6.875-0.123-8.868-5.691c-2.316-6.518,0.44-15.812,6.386-17.922
		c1.953-0.688,3.197-0.996,4.902,0.385l0.611-1.883l2.063-0.805l0.385,8.518l-2.166,0.838c-1.045-2.199-2.55-4.605-4.468-3.925
		c-3.272,1.161-4.901,8.249-3.169,13.062c1.121,3.127,2.57,3.801,4.654,3.065c1.738-0.618,2.254-2.825,2.818-5.768l2.688-0.941
		L244.332,260.067z M282.622,231.416l0.282,3.945l2.996-1.065l0.296,2.701l-3.106,1.101l0.914,12.009c0.206,2.564,2.75,0,2.75,0
		l0.865,0.529c-0.048,1.974-1.416,3.087-2.543,3.774s-5.08,2.254-5.664-2.488l-1.031-12.182l-1.128,0.42l-0.124-2.641
		c0,0,3.438-1.705,3.555-5.402l1.945-0.688L282.622,231.416z"/>
	<path fill="#FFFFFF" d="M299.58,233.244l5.252-5.637l2.311-0.812l0.502,2.228c1.224-2.564,2.543-5.5,4.646-4.304
		c2.956,1.712,1.705,7.095-0.281,8.249c-1.987,1.155-2.826-0.887-2.523-2.371c-1.038-1.162-1.76,1.34-1.78,2.75
		c0,0.824,0.371,7.85,0.371,7.85c0.138,1.176,2.145,1.024,2.158,1.506l0.31,2.344l-7.686,2.75l-0.584-1.691
		c0,0,1.547-1.491,1.52-2.592c-0.027-1.1-0.818-10.662-0.818-10.662l-11.686,11.879c0.543,1.815,1.512,2.558,2.921,2.791
		c1.685,0.282,3.691-3.224,5.169-5.499l1.836,0.859c-0.592,3.183-3.926,6.874-5.156,7.514c-1.505,0.756-8.324,3.644-9.066-6.125
		c-0.316-4.083,0.873-8.442,2.949-10.429c3.554-3.389,6.303-3.21,7.65-2.543c0.849,0.443,1.545,1.131,2,1.973L299.58,233.244z
		 M291.435,235.361c-1.251,1.547-1.505,3.939-0.804,6.874c0.096-0.048,5.396-5.678,5.396-5.678s-2.207-4.125-4.593-1.183V235.361z
		 M258.555,247.845l5.231-5.623l2.323-0.817l0.42,3.271c1.588-2.316,4.75-6.469,7.465-4.956c1.059,0.591,1.217,2.214,1.547,4.124
		c0,0,0.495,7.432,0.688,9.322c0.076,0.763,1.471,0.907,1.471,0.907l0.076,2.688l-5.719,2.021l-1.039-12.758
		c-0.322-2.688-4.338-0.357-3.918,1.787l1.127,12.313l-6.372,2.247l-0.584-1.685c0,0,1.499-1.478,1.499-2.592
		c0-1.113-0.818-10.654-0.818-10.654l-11.687,11.871c0.543,1.815,1.505,2.551,2.907,2.791c1.691,0.282,3.691-3.21,5.177-5.499
		l1.829,0.859c-0.578,3.183-3.919,6.874-5.149,7.514c-1.505,0.763-8.317,3.644-9.067-6.118c-0.303-4.083,0.881-8.448,2.949-10.428
		c3.547-3.403,6.318-3.218,7.658-2.551c0.844,0.447,1.539,1.131,2,1.966H258.555z M250.396,249.969
		c-1.32,1.492-1.513,3.939-0.812,6.875c0.11-0.063,5.403-5.699,5.403-5.699S253.145,246.834,250.396,249.969z M163.422,282.182
		l5.231-5.637l2.331-0.818l0.419,3.272c1.588-2.31,4.744-6.469,7.459-4.956c1.065,0.591,1.224,2.213,1.553,4.125
		c0,0,0.502,7.431,0.688,9.328c0.076,0.77,1.464,0.914,1.464,0.914l0.083,2.66l-5.727,2.063l-1.072-12.772
		c-0.316-2.681-4.331-0.344-3.911,1.787l1.127,12.319l-6.365,2.254l-0.591-1.697c0,0,1.547-1.479,1.519-2.578
		c-0.027-1.1-0.832-10.662-0.832-10.662l-11.687,11.872c0.55,1.814,1.506,2.55,2.915,2.749c1.691,0.289,3.691-3.203,5.183-5.499
		l1.822,0.859c-0.578,3.19-3.925,6.874-5.142,7.521c-1.512,0.756-8.325,3.644-9.067-6.132c-0.316-4.083,0.873-8.441,2.942-10.421
		c3.547-3.39,6.317-3.218,7.651-2.558c0.851,0.448,1.547,1.14,2,1.986L163.422,282.182z M155.283,284.285
		c-1.423,1.375-1.512,3.939-0.811,6.875l5.403-5.686C159.875,285.475,158.5,281.137,155.283,284.285L155.283,284.285z
		 M187.248,265.395l0.275,3.946l3.011-1.065l0.289,2.701l-3.107,1.107l0.907,11.995c0.206,2.578,2.75,0,2.75,0l0.852,0.55
		c-0.041,1.973-1.375,3.08-2.55,3.768c-1.175,0.688-5.066,2.254-5.65-2.482l-0.997-12.236l-1.134,0.42l-0.117-2.633
		c0,0,3.437-1.691,3.54-5.396l1.953-0.688L187.248,265.395z"/>
</g>
</svg>
