<svg enable-background="new -12.757 -90.498 480 480" height="480" viewBox="-12.757 -90.498 480 480" width="480" xmlns="http://www.w3.org/2000/svg"><g fill="#d6001c"><path d="m0 293.687h62.458v-198.671l-62.458 35.953z"/><path d="m264.12 234.884c-20.819 0-38.206-17.425-38.206-38.339 0-21.605 17.387-38.333 38.206-38.333 21.484 0 38.871 16.728 38.871 38.333-.001 20.914-17.387 38.339-38.871 38.339m0-140.792c-13.178 0-26.356 2.785-38.871 7.669 0-101.761 0-101.761 0-101.761-62.458 36.938-62.458 36.938-62.458 36.938v159.606c0 56.456 45.792 102.459 101.329 102.459 56.202 0 101.994-46.003 101.994-102.459-.001-56.45-45.793-102.452-101.994-102.452"/><path d="m71.761 132.558c0-21.103 17.11-38.206 38.206-38.206s38.206 17.104 38.206 38.206-17.11 38.206-38.206 38.206c-21.097 0-38.206-17.104-38.206-38.206z"/><path d="m384.053 293.687h63.123v-198.671l-63.123 35.952z"/><path d="m377.408 56.81c0-21.102 17.276-38.206 38.539-38.206 21.262 0 38.538 17.104 38.538 38.206 0 21.103-17.276 38.206-38.538 38.206s-38.539-17.103-38.539-38.206z"/></g></svg>