<svg enable-background="new 0 0 73.875 73.875" height="73.875" viewBox="0 0 73.875 73.875" width="73.875" xmlns="http://www.w3.org/2000/svg"><g fill="#fff"><path d="m37.031 10.5c2.646 2.56 5.603 5.275 8.164 7.921l-2.992 3.856v.19l7.934 3.546 5.362-3.684-3.235-3.598v-.259c3.321-2.353 6.175-4.618 9.392-6.78l-1.558 16.119h-46.311l-1.557-16.118c3.217 2.162 6.07 4.427 9.391 6.78v.259l-3.234 3.598 5.361 3.684 7.935-3.546v-.19l-2.992-3.856c2.56-2.646 5.517-5.362 8.163-7.921"/><path d="m59.744 30.718-.468 5.372-17.145-.007.005 18.56 8.35-.055c1.862-.003 3.823-1.963 3.424-3.251-.449-1.868-2.127-3.113-3.683-4.047.311 0 6.036-4.22 8.717-6.036-.122 1.158-2.042 16.326-2.058 16.569l-19.786 7.523h-.315l-19.785-7.522c-.018-.243-1.937-15.411-2.058-16.569 2.681 1.816 8.405 6.036 8.717 6.036-1.557.934-3.234 2.179-3.684 4.047-.398 1.288 1.563 3.248 3.424 3.251l8.351.055.005-18.56-17.146.006-.467-5.372"/></g></svg>