<?xml version="1.0" encoding="utf-8"?>
<!-- Generator: Adobe Illustrator 16.0.0, SVG Export Plug-In . SVG Version: 6.00 Build 0)  -->
<!DOCTYPE svg PUBLIC "-//W3C//DTD SVG 1.1//EN" "http://www.w3.org/Graphics/SVG/1.1/DTD/svg11.dtd">
<svg version="1.1"
	 id="svg3777" xmlns:dc="http://purl.org/dc/elements/1.1/" xmlns:cc="http://creativecommons.org/ns#" xmlns:rdf="http://www.w3.org/1999/02/22-rdf-syntax-ns#" xmlns:svg="http://www.w3.org/2000/svg"
	 xmlns="http://www.w3.org/2000/svg" xmlns:xlink="http://www.w3.org/1999/xlink" x="0px" y="0px" width="73.875px"
	 height="73.875px" viewBox="0 0 73.875 73.875" enable-background="new 0 0 73.875 73.875" xml:space="preserve">
<path id="path3179" fill="#FFFFFF" d="M37.031,10.5c2.646,2.56,5.603,5.275,8.164,7.921l-2.992,3.856v0.19l7.934,3.546l5.362-3.684
	l-3.235-3.598v-0.259c3.321-2.353,6.175-4.618,9.392-6.78l-1.558,16.119H13.787L12.23,11.693c3.217,2.162,6.07,4.427,9.391,6.78
	v0.259l-3.234,3.598l5.361,3.684l7.935-3.546v-0.19l-2.992-3.856c2.56-2.646,5.517-5.362,8.163-7.921"/>
<path id="path3181" fill="#FFFFFF" d="M59.744,30.718l-0.468,5.372l-17.145-0.007l0.005,18.56l8.35-0.055
	c1.862-0.003,3.823-1.963,3.424-3.251c-0.449-1.868-2.127-3.113-3.683-4.047c0.311,0,6.036-4.22,8.717-6.036
	c-0.122,1.158-2.042,16.326-2.058,16.569L37.1,65.346h-0.315l-19.785-7.522c-0.018-0.243-1.937-15.411-2.058-16.569
	c2.681,1.816,8.405,6.036,8.717,6.036c-1.557,0.934-3.234,2.179-3.684,4.047c-0.398,1.288,1.563,3.248,3.424,3.251l8.351,0.055
	l0.005-18.56L14.609,36.09l-0.467-5.372"/>
</svg>
