<?xml version="1.0" encoding="utf-8"?>
<!-- Generator: Adobe Illustrator 16.0.0, SVG Export Plug-In . SVG Version: 6.00 Build 0)  -->
<!DOCTYPE svg PUBLIC "-//W3C//DTD SVG 1.1//EN" "http://www.w3.org/Graphics/SVG/1.1/DTD/svg11.dtd">
<svg version="1.1" id="Layer_1" xmlns="http://www.w3.org/2000/svg" xmlns:xlink="http://www.w3.org/1999/xlink" x="0px" y="0px"
	 width="260px" height="260px" viewBox="-5 -62.829 260 260" enable-background="new -5 -62.829 260 260" xml:space="preserve">
<g>
	<path d="M250,107.308c0,14.923-12.104,27.027-27.029,27.027H27.03C12.103,134.336,0,122.23,0,107.308V27.033
		C0,12.109,12.103,0.007,27.03,0.007h195.941C237.896,0.007,250,12.109,250,27.033V107.308"/>
	<path fill="#FFFFFF" d="M222.975,6.168H27.03c-11.504,0-20.868,9.364-20.868,20.865v80.274c0,11.505,9.364,20.867,20.868,20.867
		h195.943c11.504,0,20.866-9.362,20.866-20.867V27.033C243.84,15.533,234.477,6.168,222.975,6.168 M241.081,107.308
		c0,9.983-8.122,18.111-18.106,18.111H27.03c-9.984,0-18.109-8.128-18.109-18.111V27.033c0-9.984,8.125-18.106,18.109-18.106
		h195.943c9.985,0,18.107,8.122,18.107,18.106L241.081,107.308L241.081,107.308z"/>
	<rect x="162.491" y="55.716" fill="#E4503C" width="15.058" height="36.055"/>
	<path fill="#E4503C" d="M197.305,54.455c-8.854,0.148-15.128,5.864-15.438,11.107c-0.095,3.469,1.396,7.008,6.952,10.007
		c2.879,1.558,8.347,2.13,10.957,3.607c0.982,0.598,1.645,1.829,1.645,2.912c0,1.151-0.927,2.058-2.49,2.058
		c-1.682,0-2.025-1.36-2.021-3.707l0.004-1.766h-14.901v0.949c0,2.564,0,5.219,1.588,7.294c3.021,3.756,8.496,5.979,14.305,5.827
		c3.744,0,11.871-1.169,15.625-5.655c0.971-1.164,2.877-3.374,2.877-7.045c0-0.98-0.158-4.334-2.233-6.409
		c-1.813-1.822-4.448-3.52-10.743-5.012c-4.957-1.175-6.805-1.856-6.568-4.315c0.041-0.465,0.314-1.535,2.043-1.535
		c1.772,0,2.22,1.727,2.22,2.565v0.939h14.202l-0.037-0.976C214.979,57.075,205.794,54.304,197.305,54.455"/>
	<path fill="#E4503C" d="M47.469,68.836v11.907c0,9.055,8.487,12.281,16.429,12.281c7.794,0,12.084-1.73,14.354-5.794
		c1.015-1.752,1.454-5.014,1.378-8.775v-0.897H66.304v5.087c0,1.422-1.029,1.927-1.908,1.927c-0.77,0-2.066-0.434-2.066-2.069
		V64.635c0-1.63,1.296-2.066,2.066-2.066c0.879,0,1.908,0.506,1.908,1.929v4.44h13.604v-0.834c0-2.831-0.433-6.199-1.787-8.046
		c-1.577-2.146-4.614-5.603-15.062-5.603C53.299,54.456,47.469,59.832,47.469,68.836"/>
	<polygon fill="#E4503C" points="103.284,55.714 103.284,65.939 98.576,65.939 98.576,55.714 83.519,55.714 83.519,91.765 
		98.576,91.765 98.576,77.342 103.284,77.342 103.284,91.765 118.334,91.765 118.334,55.714 	"/>
	<path fill="#E4503C" d="M151.73,77.545c3.199-1.971,5.029-5.635,5.029-10.264c0-5.563-4.496-11.567-11.767-11.567h-22.075v36.052
		h15.055V80.647l5.243,11.117h16.587C159.805,91.765,152.543,78.979,151.73,77.545 M138.919,71.166h-0.924v-7.801h0.924
		c2.288,0,3.479,1.974,3.479,3.917C142.398,69.509,140.561,71.166,138.919,71.166"/>
	<polygon fill="#FFFFFF" points="98.925,99.133 105.262,99.133 105.262,104.503 111.593,99.133 118.771,99.133 111.593,105.768 
		118.488,116.929 111.735,116.929 107.369,109.722 105.262,111.843 105.262,116.929 98.925,116.929 	"/>
	<polygon fill="#FFFFFF" points="59.012,99.133 74.472,99.133 74.472,103.545 65.393,103.545 65.393,105.962 73.054,105.962 
		73.054,110.094 65.393,110.094 65.393,112.655 74.472,112.655 74.472,116.929 59.012,116.929 	"/>
	<polygon fill="#FFFFFF" points="39.58,99.133 56.743,99.133 56.743,103.973 51.21,103.973 51.21,116.929 44.968,116.929 
		44.968,103.973 39.58,103.973 	"/>
	<path fill="#FFFFFF" d="M83.351,99.133h6.475l6.895,17.797h-6.336l-0.703-2.262h-6.047l-0.703,2.262h-6.195L83.351,99.133z
		 M84.76,109.866h3.799l-1.829-4.52L84.76,109.866z"/>
	<polygon fill="#FFFFFF" points="213.557,99.133 229.012,99.133 229.012,103.545 219.932,103.545 219.932,105.962 227.596,105.962 
		227.596,110.094 219.932,110.094 219.932,112.655 229.012,112.655 229.012,116.929 213.557,116.929 	"/>
	<path fill="#FFFFFF" d="M32.126,104.385c-0.325-2.28-4.269-2.28-4.75-0.993c-0.455,1.173,1.564,1.709,3.688,1.987
		c4.253,0.854,6.949,2.564,7.09,5.835c0.145,4.135-4.112,6.27-8.368,6.27c-4.54,0-8.794-1.571-8.794-6.121h5.463
		c0.57,1.563,2.197,1.989,3.616,1.989c1.986,0,2.837-1.989,0.71-2.563c-4.683-1.14-10.213-1.992-9.361-7.397
		c0.283-2.853,2.976-5.126,7.941-5.126c3.688,0,7.516,1.279,8.229,6.119H32.126"/>
	<path fill="#FFFFFF" d="M205.126,104.385c-0.321-2.28-4.271-2.28-4.751-0.993c-0.452,1.173,1.563,1.709,3.686,1.987
		c4.256,0.854,6.953,2.564,7.094,5.835c0.146,4.135-4.112,6.27-8.37,6.27c-4.532,0-8.79-1.571-8.79-6.121h5.462
		c0.565,1.563,2.198,1.989,3.614,1.989c1.986,0,2.839-1.989,0.712-2.563c-4.687-1.14-10.218-1.992-9.363-7.397
		c0.286-2.853,2.978-5.126,7.942-5.126c3.688,0,7.52,1.279,8.228,6.119H205.126"/>
	<path fill="#FFFFFF" d="M173.297,99.133h6.051v11.301c0,4.381,5.77,4.517,5.77,0V99.133h6.191v11.301
		c0,4.664-3.373,7.063-9.006,7.063c-5.77,0-9.006-2.397-9.006-7.487V99.133"/>
	<polygon fill="#FFFFFF" points="131.007,99.133 137.344,99.133 137.344,105.208 142.686,105.208 142.686,99.133 149.02,99.133 
		149.02,116.929 142.686,116.929 142.686,110.148 137.344,110.148 137.344,116.929 131.007,116.929 	"/>
	<path fill="#FFFFFF" d="M161.24,98.443c13.229,0,13.652,19.07,0.281,19.07C147.73,117.514,148.012,99.004,161.24,98.443
		 M161.521,103.247c-2.109,0-3.658,1.551-3.658,4.802c0,3.391,1.266,5.226,3.658,5.226c2.11,0,3.373-1.978,3.373-5.226
		C164.896,104.656,163.068,103.247,161.521,103.247"/>
	<path fill="#FFFFFF" d="M129.195,26.475h5.174v5.236c0,0.747-0.518,2.209-1.211,3.247h-3.278c1.271-1.579,1.214-2.59,1.214-2.768
		h-1.896v-5.716"/>
	<path fill="#FFFFFF" d="M27.343,48.285V25.948h13.042c11.65,0,10.779,12.917,4.344,14.487l4.349,7.85h-8.342l-3.658-6.8h-2.087v6.8
		H27.343 M34.991,36.772h4.178c3.474,0,3.474-6.107,0-6.107h-4.178V36.772z"/>
	<polygon fill="#FFFFFF" points="78.892,26.472 99.932,26.472 99.932,32.407 93.151,32.407 93.151,48.285 85.497,48.285 
		85.497,32.407 78.892,32.407 	"/>
	<path fill="#FFFFFF" d="M149.874,32.931c-0.397-2.801-5.237-2.801-5.825-1.225c-0.558,1.441,1.912,2.098,4.523,2.441
		c5.209,1.05,8.539,3.149,8.693,7.154c0.188,5.063-5.043,7.686-10.263,7.686c-5.563,0-10.774-1.924-10.774-7.508h6.695
		c0.689,1.917,2.688,2.439,4.434,2.439c2.433,0,3.474-2.439,0.863-3.136c-5.74-1.404-12.522-2.447-11.477-9.078
		c0.348-3.493,3.652-6.282,9.738-6.282c4.521,0,9.215,1.57,10.09,7.507L149.874,32.931"/>
	<path fill="#FFFFFF" d="M52.938,26.475h7.421v13.855c0,5.367,7.072,5.536,7.072,0V26.475h7.591v13.855
		c0,5.713-4.143,8.658-11.043,8.658c-7.076,0-11.041-2.945-11.041-9.178V26.475"/>
	<polygon fill="#FFFFFF" points="103.935,26.469 111.703,26.469 111.703,33.917 118.254,33.917 118.254,26.469 126.02,26.469 
		126.02,48.287 118.254,48.287 118.254,39.977 111.703,39.977 111.703,48.287 103.935,48.287 	"/>
	<path fill="#FFFFFF" d="M219.598,87.458h0.422c0.285,0,0.422,0.148,0.422,0.572c0,0.142-0.137,0.567-0.422,0.567h-0.422V87.458
		 M219.598,89.17h0.139c0.853,0,0.705,0.419,0.705,0.989c0,0.285,0,0.566,0.146,0.852h0.988c-0.139-0.141-0.139-0.993-0.139-1.279
		c0-0.854-0.711-0.854-0.851-0.854c0.563-0.14,0.851-0.563,0.851-1.136c0-0.705-0.428-1.131-1.133-1.131h-1.699v4.398h0.99v-1.84
		H219.598z M220.02,91.863c-1.69,0-2.973-1.419-2.973-2.985c0-1.699,1.281-2.978,2.973-2.978c1.558,0,2.975,1.276,2.975,2.978
		C222.993,90.444,221.576,91.863,220.02,91.863 M220.02,85.189c-2.121,0-3.678,1.563-3.678,3.688c0,1.992,1.557,3.697,3.678,3.697
		c1.979,0,3.676-1.705,3.676-3.697C223.695,86.753,221.998,85.189,220.02,85.189"/>
	<path d="M206.764,53.476c-3.914,3.582-7.815,5.794-11.578,6.587c-3.076,0.604-6.972,0.479-10.679-0.349
		c-0.036-0.009-0.514-0.107-0.514-0.107c-0.539-0.135-1.28-0.317-1.728,0.351l-0.222,0.331l0.354,0.174
		c2.137,1.024,4.806,1.58,7.516,1.558h0.055l0.047-0.013c1.293-0.409,2.676-0.453,4.014-0.498c1.953-0.06,3.965-0.14,5.607-1.364
		c2.666-0.986,4.987-2.938,6.902-4.724c0.041-0.039,0.182-0.214,0.182-0.214c0.284-0.345,0.653-0.791,0.666-1.245
		c0.004-0.126-0.016-0.25-0.074-0.373l-0.192-0.435L206.764,53.476"/>
	<path d="M164.428,35.414c-0.38,0.969-0.445,1.88-0.48,2.892c-0.004,0.142-0.03,1.059-0.03,1.059
		c-0.049,0.219-0.073,0.433-0.082,0.641c-0.032,1.002,0.388,1.896,0.796,2.759c0.251,0.529,0.487,1.028,0.62,1.549
		c0,0.016,0.099,0.744,0.099,0.744c0.059,0.381,0.116,0.753,0.107,1.095c-0.01,0.302-0.077,0.582-0.253,0.818l-0.099,0.133
		l0.037,0.156c0.608,2.375,1.602,4.667,2.873,6.632c0.275,0.604,0.75,1.149,1.202,1.673c0.401,0.454,0.802,0.924,1.093,1.454
		c4.15,4.444,8.217,7.055,12.853,8.281c0.03,0,1.207,0.273,1.207,0.273c0.797,0.202,1.622,0.411,2.629,0.445
		c1.371-0.187,2.688-0.151,4.086-0.111c2.241,0.068,4.556,0.132,6.929-0.759c0.035-0.016,1.508-0.734,1.508-0.734
		c4.56-2.226,9.729-4.745,12.364-9.133l0.009-0.021l0.021-0.063l0.175-0.425c0.194-0.413,0.484-1.041-0.092-1.489l-0.212-0.163
		l-0.207,0.157c-0.957,0.719-1.751,1.669-2.589,2.671c-0.862,1.033-1.759,2.1-2.876,2.957c-4.531,3.408-9.408,5.211-14.904,5.522
		c-6.795,0.568-13.664-2.457-21.018-9.237c-3.446-5.939-4.517-13.279-5.104-19.683l-0.132-1.452L164.428,35.414"/>
	<path d="M170.395,29.826c-1.349,2.891-2.133,5.688-2.33,8.33c-0.323,2.991,0.043,6.161,1,8.686
		c0.024,0.052,1.416,2.633,1.416,2.633c1.537,2.947,2.99,5.73,6.104,7.762c0.006,0.003,0.837,0.571,0.837,0.571l1.606,0.986
		l0.05-0.006c0.153,0.021,0.483,0.066,0.681-0.174c0.057-0.066,0.104-0.164,0.11-0.299c0.004-0.075-0.007-0.165-0.045-0.271
		l-0.038-0.098l-0.076-0.063c-2.74-2.066-5.32-4.021-7.122-6.961c-0.12-0.476-0.392-0.927-0.687-1.393l-0.582-1.029
		c-0.428-0.825-0.672-1.639-0.924-2.494c-0.299-0.986-0.609-2.001-1.201-3.003c-0.139-0.968-0.182-1.924-0.146-2.875
		c0.169-4.758,2.258-9.335,4.125-13.45c0,0,0.563-0.989,0.379-1.125c-0.188-0.139-0.964,0.771-0.964,0.771
		C171.998,27.067,171.113,28.477,170.395,29.826"/>
	<path fill="#FFFFFF" d="M206.998,53.731c0.197,0.448-0.389,1.05-0.689,1.438c-1.931,1.793-4.215,3.701-6.791,4.653
		c-2.643,2.037-6.295,0.813-9.566,1.847c-2.549,0.017-5.193-0.489-7.35-1.521c0.418-0.625,1.211-0.185,1.875-0.103
		c3.461,0.776,7.418,1.02,10.808,0.344C199.818,59.438,203.824,56.635,206.998,53.731"/>
	<path fill="#FFFFFF" d="M182.061,14.569c3.783-1.142,8.125-1.639,11.826-1.195c1.563,0.571,3.127,1.139,4.776,0.997
		c4.741,1.102,8.132,3.936,11.303,7.063c2.085,3.949,5.522,7.032,6.151,11.305c-0.213,0.313-0.307,0.656-0.489,0.852
		c-1.758-5.083-4.919-10.826-9.326-14.437c-0.78-1.588-2.985-1.221-3.891-2.353c-1.647-0.719-3.242-1.17-4.96-1.667
		c-5.197-2.105-11.105-0.45-16.715,1.045C180.852,15.341,181.639,15.197,182.061,14.569"/>
	<path fill="#FFFFFF" d="M177.313,16.932c0.592-0.331,1.4-0.59,2.201-0.361c-2.367,0.936-4.356,2.72-6.373,4.621
		c-0.252,0.424-0.695,0.668-0.908,0.978c-1.086,0.802-1.563,2.031-2.35,3.048c-0.443,1.11-1.09,1.663-1.508,2.665
		c-0.782,1.013-1.021,2.309-1.743,3.086c-0.312-0.21-0.558-0.646-0.428-1.104c0.514-1.345,1.13-2.647,2.044-4.121
		c1.1-1.673,2.318-2.937,3.611-4.419C173.448,19.666,175.372,18.111,177.313,16.932"/>
	<path fill="#FFFFFF" d="M164.8,35.654c0.609,6.495,1.716,13.869,5.194,19.819c5.665,5.214,12.936,10.018,21.281,9.309
		c5.774-0.334,10.651-2.282,15.062-5.608c2.22-1.709,3.546-4.19,5.437-5.625c0.506,0.389-0.03,0.98-0.193,1.552
		c-2.852,4.763-8.756,7.285-13.648,9.726c-3.742,1.41-7.386,0.367-10.861,0.86c-1.465-0.052-2.573-0.491-3.746-0.7
		c-5.167-1.357-9.129-4.344-12.629-8.076c-0.647-1.176-1.774-1.991-2.311-3.141c-1.289-1.979-2.248-4.235-2.836-6.507
		c0.607-0.817,0.182-1.931,0.1-2.939c-0.403-1.612-1.739-2.983-1.326-4.839C164.378,38.009,164.323,36.876,164.8,35.654"/>
	<path fill="#FFFFFF" d="M172.783,26.627c-2.381,5.291-4.777,10.751-3.922,16.539c1.119,1.829,1.215,3.71,2.166,5.53
		c0.395,0.893,1.141,1.666,1.293,2.45c1.824,2.938,4.369,4.871,7.227,7.014c0.131,0.354-0.201,0.313-0.372,0.288
		c-0.957-0.46-1.487-0.953-2.349-1.482c-3.917-2.53-5.131-6.246-7.417-10.174c-0.888-2.313-1.337-5.419-1.013-8.521
		c0.199-2.854,1.066-5.625,2.242-8.184C171.314,28.819,172.184,27.4,172.783,26.627"/>
	<path fill="#FFFFFF" d="M211.441,46.239c0.313,0.211,0.384,0.307,0.178,0.619c-0.547,1.625-1.139,3.581-2.293,4.622
		c-0.545-0.322,0.04-0.928,0.175-1.327C210.262,48.799,210.8,47.346,211.441,46.239"/>
	<path fill="#FFFFFF" d="M216.161,39.071c0.72,0.082,0.86,0.864,0.815,1.469c-0.041,0.981-0.188,1.927-0.562,2.813
		c-0.16-0.29-0.19-1.047-0.323-1.453c0.03-0.987-0.422-1.983,0.004-2.601L216.161,39.071"/>
	<path fill="#FFFFFF" d="M215.551,45.09c0.111,0.036,0.487,0.014,0.506,0.392c-0.242,1.29-0.478,2.96-1.445,4.172
		c-0.418-0.243-0.81-0.609-0.594-0.917C214.684,47.689,214.568,45.923,215.551,45.09"/>
	<polygon fill="#FFFFFF" points="196.875,29.231 197.676,30.909 196.579,31.368 195.779,29.688 	"/>
	<path fill="#FFFFFF" d="M190.473,25.032c-0.459-0.605-0.779-0.804-1.293-1.186c-0.463-0.114-0.808-0.198-1.212-0.055
		c-0.286,0.171-0.459,0.37-0.634,0.571c-0.057,0.234-0.259,0.551-0.232,0.924c-0.058,0.231,0.112,0.523,0.258,0.927
		c0.172,0.29,0.459,0.608,0.886,0.839c0.204,0.175,0.575,0.145,1.063,0.142c0.379-0.024,0.863-0.021,1.467,0.006
		c0.466,0.114,0.843,0.085,1.27,0.319c0.229,0.057,0.521,0.378,0.801,0.695c0.403,0.349,0.586,0.641,0.721,1.038
		c0.233,0.549,0.429,1.217,0.309,1.679c0.117,0.521,0,0.986-0.113,1.446c-0.352,0.4-0.555,0.723-0.951,0.864
		c-0.41,0.141-0.692,0.313-1.067,0.34c-0.404,0.143-0.638,0.086-1.127,0.086c-0.201-0.174-0.636-0.404-0.921-0.723
		c-0.426-0.229-0.807-0.693-1.258-1.301l0.635-0.574c0.46,0.604,0.943,1.101,1.486,1.362c0.459,0.111,0.955,0.111,1.358-0.033
		c0.428-0.255,0.749-0.544,0.868-1.008c0.336-0.403,0.229-0.922-0.083-1.618c-0.117-0.521-0.519-0.867-0.858-0.952
		c-0.23-0.061-0.545-0.261-1.035-0.261c-0.492,0-0.981-0.003-1.354,0.023c-0.375,0.029-0.869,0.029-1.068-0.145
		c-0.342-0.088-0.771-0.322-1.06-0.638c-0.147-0.409-0.552-0.756-0.806-1.186c-0.229-0.548-0.226-1.044-0.34-1.564
		c0.114-0.455,0.23-0.921,0.465-1.354c0.23-0.436,0.641-0.581,1.041-0.722c0.172-0.202,0.431-0.26,0.658-0.199
		c0.262-0.058,0.635-0.089,0.985,0c0.2,0.172,0.515,0.378,0.828,0.576c0.317,0.203,0.604,0.53,0.94,1.104L190.473,25.032"/>
	<polygon fill="#FFFFFF" points="187.363,33.464 188.162,35.137 187.035,35.714 186.234,34.044 	"/>
	<path fill="#FFFFFF" d="M179.582,26.459l0.688-0.314l3.004,7.023c0.313,0.688,0.369,1.444,0.483,1.964
		c0.082,0.635,0.052,1.246-0.18,1.674c-0.228,0.433-0.402,0.634-0.957,0.861c-0.259,0.06-0.659,0.202-1.173,0.317
		c-0.348-0.085-0.579-0.148-0.869-0.463c-0.432-0.229-0.744-0.436-1.003-0.864c-0.283-0.322-0.519-0.87-0.742-1.421l-3.119-7.051
		l0.834-0.4l3.206,7.189c0.286,0.813,0.632,1.393,0.941,1.594c0.438,0.231,0.779,0.322,1.324,0.088
		c0.987-0.485,1.25-1.529,0.528-3.06L179.582,26.459"/>
	<polygon fill="#FFFFFF" points="201.782,34.036 205.825,32.107 206.363,33.35 203.158,34.875 204.445,38.024 207.068,36.846 
		207.527,37.94 204.904,39.125 206.619,43 209.936,41.502 210.539,42.51 206.382,44.412 	"/>
	<polygon fill="#FFFFFF" points="192.328,38.032 193.568,37.484 199.236,45.066 197.404,35.873 198.643,35.325 203.238,45.707 
		202.4,46.104 198.43,37.121 200.326,47.058 199.893,47.316 193.65,39.104 197.709,48.234 197.012,48.556 	"/>
	<polygon fill="#FFFFFF" points="194.016,49.763 193.208,50.043 188.604,39.67 189.415,39.384 	"/>
	<path fill="#FFFFFF" d="M174.245,46.116l2.218-1.031c0.406-0.142,0.898-0.142,1.243-0.054c0.462,0.114,0.887,0.348,1.18,0.664
		c0.313,0.204,0.689,0.667,0.919,1.216c0.309,0.69,0.504,1.356,0.65,1.763c0.081,0.629-0.063,1.207-0.182,1.674
		c-0.312,0.291-0.658,0.69-1.211,0.927l-1.385,0.628l1.971,4.304l-0.828,0.407L174.245,46.116 M175.422,46.784l1.773,4.136
		l1.496-0.607c0.291-0.174,0.611-0.458,0.668-0.691c0.199-0.319,0.173-0.688,0.004-0.979c-0.025-0.377-0.17-0.785-0.309-1.187
		c-0.18-0.287-0.318-0.689-0.522-0.861c-0.287-0.327-0.487-0.496-0.72-0.557c-0.342-0.09-0.6-0.033-1,0.112L175.422,46.784z"/>
	<path fill="#FFFFFF" d="M182.516,43.912l1.653,3.613l1.761-0.666c0.406-0.141,0.633-0.58,0.725-0.925
		c0-0.488-0.084-1.121-0.422-1.704c-0.146-0.402-0.545-0.751-0.741-0.925c-0.404-0.347-0.785-0.314-1.188-0.173L182.516,43.912
		 M181.167,42.956l2.45-0.982c0.689-0.316,1.417-0.257,1.928,0.116c0.551,0.269,1.121,0.905,1.635,1.767
		c0.2,0.668,0.283,1.306,0.369,1.938c-0.029,0.612-0.146,1.069-0.492,1.477l3.498,4.08l-0.949,0.368l-3.186-3.871l-1.786,0.778
		l1.937,4.422l-0.687,0.313L181.167,42.956z"/>
	<path fill="#FFFFFF" d="M195.014,17.986c2.127,0.604,4.34,1.141,6.313,2.323c1.773,0.725,3.236,1.841,4.438,3.02
		c0.486,0.222,0.609,0.583,0.922,0.792c0.766,0.604,1.276,1.263,1.711,1.823c1.051,1.744,2.496,3.616,3.041,5.3
		c1.281,3.21,2.172,7.475,1.34,11.267c-0.098,0.072-0.113,0.243-0.113,0.243c-0.409-0.142-0.482-0.236-0.529-0.499
		c0.586-4.498-0.252-8.502-1.777-11.825c-0.45-1.756-1.131-3.026-2.34-4.193c-0.713-0.344-1.062-0.982-1.492-1.542
		c-1.064-0.983-2.231-1.725-3.295-2.705c-3.125-2.087-6.588-2.866-9.83-3.95c-1.506-0.188-2.65-0.502-3.883-0.156
		c-5.195,0.875-9.703,2.259-13.365,5.692c-0.611,0.772-1.229,0.948-1.957,1.365c0.527-1.457,2.158-2.271,3.313-3.314
		c2.686-1.781,5.006-2.669,7.825-3.499c0.858-0.065,1.304-0.265,2.235-0.229C190.063,17.617,192.686,17.692,195.014,17.986"/>
</g>
</svg>
