<svg enable-background="new -5 -62.829 260 260" height="260" viewBox="-5 -62.829 260 260" width="260" xmlns="http://www.w3.org/2000/svg"><path d="m250 107.308c0 14.923-12.104 27.027-27.029 27.027h-195.941c-14.927.001-27.03-12.105-27.03-27.027v-80.275c0-14.924 12.103-27.026 27.03-27.026h195.941c14.925 0 27.029 12.102 27.029 27.026z"/><path d="m222.975 6.168h-195.945c-11.504 0-20.868 9.364-20.868 20.865v80.274c0 11.505 9.364 20.867 20.868 20.867h195.943c11.504 0 20.866-9.362 20.866-20.867v-80.274c.001-11.5-9.362-20.865-20.864-20.865m18.106 101.14c0 9.983-8.122 18.111-18.106 18.111h-195.945c-9.984 0-18.109-8.128-18.109-18.111v-80.275c0-9.984 8.125-18.106 18.109-18.106h195.943c9.985 0 18.107 8.122 18.107 18.106z" fill="#fff"/><g fill="#e4503c"><path d="m162.491 55.716h15.058v36.055h-15.058z"/><path d="m197.305 54.455c-8.854.148-15.128 5.864-15.438 11.107-.095 3.469 1.396 7.008 6.952 10.007 2.879 1.558 8.347 2.13 10.957 3.607.982.598 1.645 1.829 1.645 2.912 0 1.151-.927 2.058-2.49 2.058-1.682 0-2.025-1.36-2.021-3.707l.004-1.766h-14.901v.949c0 2.564 0 5.219 1.588 7.294 3.021 3.756 8.496 5.979 14.305 5.827 3.744 0 11.871-1.169 15.625-5.655.971-1.164 2.877-3.374 2.877-7.045 0-.98-.158-4.334-2.233-6.409-1.813-1.822-4.448-3.52-10.743-5.012-4.957-1.175-6.805-1.856-6.568-4.315.041-.465.314-1.535 2.043-1.535 1.772 0 2.22 1.727 2.22 2.565v.939h14.202l-.037-.976c-.313-8.225-9.498-10.996-17.987-10.845"/><path d="m47.469 68.836v11.907c0 9.055 8.487 12.281 16.429 12.281 7.794 0 12.084-1.73 14.354-5.794 1.015-1.752 1.454-5.014 1.378-8.775v-.897h-13.326v5.087c0 1.422-1.029 1.927-1.908 1.927-.77 0-2.066-.434-2.066-2.069v-17.868c0-1.63 1.296-2.066 2.066-2.066.879 0 1.908.506 1.908 1.929v4.44h13.604v-.834c0-2.831-.433-6.199-1.787-8.046-1.577-2.146-4.614-5.603-15.062-5.603-9.76.001-15.59 5.377-15.59 14.381"/><path d="m103.284 55.714v10.225h-4.708v-10.225h-15.057v36.051h15.057v-14.423h4.708v14.423h15.05v-36.051z"/><path d="m151.73 77.545c3.199-1.971 5.029-5.635 5.029-10.264 0-5.563-4.496-11.567-11.767-11.567h-22.075v36.052h15.055v-11.119l5.243 11.117h16.587c.003.001-7.259-12.785-8.072-14.219m-12.811-6.379h-.924v-7.801h.924c2.288 0 3.479 1.974 3.479 3.917 0 2.227-1.837 3.884-3.479 3.884"/></g><g fill="#fff"><path d="m98.925 99.133h6.337v5.37l6.331-5.37h7.178l-7.178 6.635 6.895 11.161h-6.753l-4.366-7.207-2.107 2.121v5.086h-6.337z"/><path d="m59.012 99.133h15.46v4.412h-9.079v2.417h7.661v4.132h-7.661v2.561h9.079v4.274h-15.46z"/><path d="m39.58 99.133h17.163v4.84h-5.533v12.956h-6.242v-12.956h-5.388z"/><path d="m83.351 99.133h6.475l6.895 17.797h-6.336l-.703-2.262h-6.047l-.703 2.262h-6.195zm1.409 10.733h3.799l-1.829-4.52z"/><path d="m213.557 99.133h15.455v4.412h-9.08v2.417h7.664v4.132h-7.664v2.561h9.08v4.274h-15.455z"/><path d="m32.126 104.385c-.325-2.28-4.269-2.28-4.75-.993-.455 1.173 1.564 1.709 3.688 1.987 4.253.854 6.949 2.564 7.09 5.835.145 4.135-4.112 6.27-8.368 6.27-4.54 0-8.794-1.571-8.794-6.121h5.463c.57 1.563 2.197 1.989 3.616 1.989 1.986 0 2.837-1.989.71-2.563-4.683-1.14-10.213-1.992-9.361-7.397.283-2.853 2.976-5.126 7.941-5.126 3.688 0 7.516 1.279 8.229 6.119z"/><path d="m205.126 104.385c-.321-2.28-4.271-2.28-4.751-.993-.452 1.173 1.563 1.709 3.686 1.987 4.256.854 6.953 2.564 7.094 5.835.146 4.135-4.112 6.27-8.37 6.27-4.532 0-8.79-1.571-8.79-6.121h5.462c.565 1.563 2.198 1.989 3.614 1.989 1.986 0 2.839-1.989.712-2.563-4.687-1.14-10.218-1.992-9.363-7.397.286-2.853 2.978-5.126 7.942-5.126 3.688 0 7.52 1.279 8.228 6.119z"/><path d="m173.297 99.133h6.051v11.301c0 4.381 5.77 4.517 5.77 0v-11.301h6.191v11.301c0 4.664-3.373 7.063-9.006 7.063-5.77 0-9.006-2.397-9.006-7.487z"/><path d="m131.007 99.133h6.337v6.075h5.342v-6.075h6.334v17.796h-6.334v-6.781h-5.342v6.781h-6.337z"/><path d="m161.24 98.443c13.229 0 13.652 19.07.281 19.07-13.791.001-13.509-18.509-.281-19.07m.281 4.804c-2.109 0-3.658 1.551-3.658 4.802 0 3.391 1.266 5.226 3.658 5.226 2.11 0 3.373-1.978 3.373-5.226.002-3.393-1.826-4.802-3.373-4.802"/><path d="m129.195 26.475h5.174v5.236c0 .747-.518 2.209-1.211 3.247h-3.278c1.271-1.579 1.214-2.59 1.214-2.768h-1.896v-5.716"/><path d="m27.343 48.285v-22.337h13.042c11.65 0 10.779 12.917 4.344 14.487l4.349 7.85h-8.342l-3.658-6.8h-2.087v6.8zm7.648-11.513h4.178c3.474 0 3.474-6.107 0-6.107h-4.178z"/><path d="m78.892 26.472h21.04v5.935h-6.781v15.878h-7.654v-15.878h-6.605z"/><path d="m149.874 32.931c-.397-2.801-5.237-2.801-5.825-1.225-.558 1.441 1.912 2.098 4.523 2.441 5.209 1.05 8.539 3.149 8.693 7.154.188 5.063-5.043 7.686-10.263 7.686-5.563 0-10.774-1.924-10.774-7.508h6.695c.689 1.917 2.688 2.439 4.434 2.439 2.433 0 3.474-2.439.863-3.136-5.74-1.404-12.522-2.447-11.477-9.078.348-3.493 3.652-6.282 9.738-6.282 4.521 0 9.215 1.57 10.09 7.507z"/><path d="m52.938 26.475h7.421v13.855c0 5.367 7.072 5.536 7.072 0v-13.855h7.591v13.855c0 5.713-4.143 8.658-11.043 8.658-7.076 0-11.041-2.945-11.041-9.178z"/><path d="m103.935 26.469h7.768v7.448h6.551v-7.448h7.766v21.818h-7.766v-8.31h-6.551v8.31h-7.768z"/><path d="m219.598 87.458h.422c.285 0 .422.148.422.572 0 .142-.137.567-.422.567h-.422zm0 1.712h.139c.853 0 .705.419.705.989 0 .285 0 .566.146.852h.988c-.139-.141-.139-.993-.139-1.279 0-.854-.711-.854-.851-.854.563-.14.851-.563.851-1.136 0-.705-.428-1.131-1.133-1.131h-1.699v4.398h.99v-1.84h.003zm.422 2.693c-1.69 0-2.973-1.419-2.973-2.985 0-1.699 1.281-2.978 2.973-2.978 1.558 0 2.975 1.276 2.975 2.978-.002 1.566-1.419 2.985-2.975 2.985m0-6.674c-2.121 0-3.678 1.563-3.678 3.688 0 1.992 1.557 3.697 3.678 3.697 1.979 0 3.676-1.705 3.676-3.697-.001-2.124-1.698-3.688-3.676-3.688"/></g><path d="m206.764 53.476c-3.914 3.582-7.815 5.794-11.578 6.587-3.076.604-6.972.479-10.679-.349-.036-.009-.514-.107-.514-.107-.539-.135-1.28-.317-1.728.351l-.222.331.354.174c2.137 1.024 4.806 1.58 7.516 1.558h.055l.047-.013c1.293-.409 2.676-.453 4.014-.498 1.953-.06 3.965-.14 5.607-1.364 2.666-.986 4.987-2.938 6.902-4.724.041-.039.182-.214.182-.214.284-.345.653-.791.666-1.245.004-.126-.016-.25-.074-.373l-.192-.435z"/><path d="m164.428 35.414c-.38.969-.445 1.88-.48 2.892-.004.142-.03 1.059-.03 1.059-.049.219-.073.433-.082.641-.032 1.002.388 1.896.796 2.759.251.529.487 1.028.62 1.549 0 .016.099.744.099.744.059.381.116.753.107 1.095-.01.302-.077.582-.253.818l-.099.133.037.156c.608 2.375 1.602 4.667 2.873 6.632.275.604.75 1.149 1.202 1.673.401.454.802.924 1.093 1.454 4.15 4.444 8.217 7.055 12.853 8.281.03 0 1.207.273 1.207.273.797.202 1.622.411 2.629.445 1.371-.187 2.688-.151 4.086-.111 2.241.068 4.556.132 6.929-.759.035-.016 1.508-.734 1.508-.734 4.56-2.226 9.729-4.745 12.364-9.133l.009-.021.021-.063.175-.425c.194-.413.484-1.041-.092-1.489l-.212-.163-.207.157c-.957.719-1.751 1.669-2.589 2.671-.862 1.033-1.759 2.1-2.876 2.957-4.531 3.408-9.408 5.211-14.904 5.522-6.795.568-13.664-2.457-21.018-9.237-3.446-5.939-4.517-13.279-5.104-19.683l-.132-1.452z"/><path d="m170.395 29.826c-1.349 2.891-2.133 5.688-2.33 8.33-.323 2.991.043 6.161 1 8.686.024.052 1.416 2.633 1.416 2.633 1.537 2.947 2.99 5.73 6.104 7.762.006.003.837.571.837.571l1.606.986.05-.006c.153.021.483.066.681-.174.057-.066.104-.164.11-.299.004-.075-.007-.165-.045-.271l-.038-.098-.076-.063c-2.74-2.066-5.32-4.021-7.122-6.961-.12-.476-.392-.927-.687-1.393l-.582-1.029c-.428-.825-.672-1.639-.924-2.494-.299-.986-.609-2.001-1.201-3.003-.139-.968-.182-1.924-.146-2.875.169-4.758 2.258-9.335 4.125-13.45 0 0 .563-.989.379-1.125-.188-.139-.964.771-.964.771-.59.743-1.475 2.153-2.193 3.502"/><g fill="#fff"><path d="m206.998 53.731c.197.448-.389 1.05-.689 1.438-1.931 1.793-4.215 3.701-6.791 4.653-2.643 2.037-6.295.813-9.566 1.847-2.549.017-5.193-.489-7.35-1.521.418-.625 1.211-.185 1.875-.103 3.461.776 7.418 1.02 10.808.344 4.533-.951 8.539-3.754 11.713-6.658"/><path d="m182.061 14.569c3.783-1.142 8.125-1.639 11.826-1.195 1.563.571 3.127 1.139 4.776.997 4.741 1.102 8.132 3.936 11.303 7.063 2.085 3.949 5.522 7.032 6.151 11.305-.213.313-.307.656-.489.852-1.758-5.083-4.919-10.826-9.326-14.437-.78-1.588-2.985-1.221-3.891-2.353-1.647-.719-3.242-1.17-4.96-1.667-5.197-2.105-11.105-.45-16.715 1.045.116-.838.903-.982 1.325-1.61"/><path d="m177.313 16.932c.592-.331 1.4-.59 2.201-.361-2.367.936-4.356 2.72-6.373 4.621-.252.424-.695.668-.908.978-1.086.802-1.563 2.031-2.35 3.048-.443 1.11-1.09 1.663-1.508 2.665-.782 1.013-1.021 2.309-1.743 3.086-.312-.21-.558-.646-.428-1.104.514-1.345 1.13-2.647 2.044-4.121 1.1-1.673 2.318-2.937 3.611-4.419 1.589-1.659 3.513-3.214 5.454-4.393"/><path d="m164.8 35.654c.609 6.495 1.716 13.869 5.194 19.819 5.665 5.214 12.936 10.018 21.281 9.309 5.774-.334 10.651-2.282 15.062-5.608 2.22-1.709 3.546-4.19 5.437-5.625.506.389-.03.98-.193 1.552-2.852 4.763-8.756 7.285-13.648 9.726-3.742 1.41-7.386.367-10.861.86-1.465-.052-2.573-.491-3.746-.7-5.167-1.357-9.129-4.344-12.629-8.076-.647-1.176-1.774-1.991-2.311-3.141-1.289-1.979-2.248-4.235-2.836-6.507.607-.817.182-1.931.1-2.939-.403-1.612-1.739-2.983-1.326-4.839.054-1.476-.001-2.609.476-3.831"/><path d="m172.783 26.627c-2.381 5.291-4.777 10.751-3.922 16.539 1.119 1.829 1.215 3.71 2.166 5.53.395.893 1.141 1.666 1.293 2.45 1.824 2.938 4.369 4.871 7.227 7.014.131.354-.201.313-.372.288-.957-.46-1.487-.953-2.349-1.482-3.917-2.53-5.131-6.246-7.417-10.174-.888-2.313-1.337-5.419-1.013-8.521.199-2.854 1.066-5.625 2.242-8.184.676-1.268 1.546-2.687 2.145-3.46"/><path d="m211.441 46.239c.313.211.384.307.178.619-.547 1.625-1.139 3.581-2.293 4.622-.545-.322.04-.928.175-1.327.761-1.354 1.299-2.807 1.94-3.914"/><path d="m216.161 39.071c.72.082.86.864.815 1.469-.041.981-.188 1.927-.562 2.813-.16-.29-.19-1.047-.323-1.453.03-.987-.422-1.983.004-2.601z"/><path d="m215.551 45.09c.111.036.487.014.506.392-.242 1.29-.478 2.96-1.445 4.172-.418-.243-.81-.609-.594-.917.666-1.048.55-2.814 1.533-3.647"/><path d="m196.875 29.231.801 1.678-1.097.459-.8-1.68z"/><path d="m190.473 25.032c-.459-.605-.779-.804-1.293-1.186-.463-.114-.808-.198-1.212-.055-.286.171-.459.37-.634.571-.057.234-.259.551-.232.924-.058.231.112.523.258.927.172.29.459.608.886.839.204.175.575.145 1.063.142.379-.024.863-.021 1.467.006.466.114.843.085 1.27.319.229.057.521.378.801.695.403.349.586.641.721 1.038.233.549.429 1.217.309 1.679.117.521 0 .986-.113 1.446-.352.4-.555.723-.951.864-.41.141-.692.313-1.067.34-.404.143-.638.086-1.127.086-.201-.174-.636-.404-.921-.723-.426-.229-.807-.693-1.258-1.301l.635-.574c.46.604.943 1.101 1.486 1.362.459.111.955.111 1.358-.033.428-.255.749-.544.868-1.008.336-.403.229-.922-.083-1.618-.117-.521-.519-.867-.858-.952-.23-.061-.545-.261-1.035-.261-.492 0-.981-.003-1.354.023-.375.029-.869.029-1.068-.145-.342-.088-.771-.322-1.06-.638-.147-.409-.552-.756-.806-1.186-.229-.548-.226-1.044-.34-1.564.114-.455.23-.921.465-1.354.23-.436.641-.581 1.041-.722.172-.202.431-.26.658-.199.262-.058.635-.089.985 0 .2.172.515.378.828.576.317.203.604.53.94 1.104z"/><path d="m187.363 33.464.799 1.673-1.127.577-.801-1.67z"/><path d="m179.582 26.459.688-.314 3.004 7.023c.313.688.369 1.444.483 1.964.082.635.052 1.246-.18 1.674-.228.433-.402.634-.957.861-.259.06-.659.202-1.173.317-.348-.085-.579-.148-.869-.463-.432-.229-.744-.436-1.003-.864-.283-.322-.519-.87-.742-1.421l-3.119-7.051.834-.4 3.206 7.189c.286.813.632 1.393.941 1.594.438.231.779.322 1.324.088.987-.485 1.25-1.529.528-3.06z"/><path d="m201.782 34.036 4.043-1.929.538 1.243-3.205 1.525 1.287 3.149 2.623-1.178.459 1.094-2.623 1.185 1.715 3.875 3.317-1.498.603 1.008-4.157 1.902z"/><path d="m192.328 38.032 1.24-.548 5.668 7.582-1.832-9.193 1.239-.548 4.595 10.382-.838.397-3.97-8.983 1.896 9.937-.433.258-6.243-8.212 4.059 9.13-.697.322z"/><path d="m194.016 49.763-.808.28-4.604-10.373.811-.286z"/><path d="m174.245 46.116 2.218-1.031c.406-.142.898-.142 1.243-.054.462.114.887.348 1.18.664.313.204.689.667.919 1.216.309.69.504 1.356.65 1.763.081.629-.063 1.207-.182 1.674-.312.291-.658.69-1.211.927l-1.385.628 1.971 4.304-.828.407zm1.177.668 1.773 4.136 1.496-.607c.291-.174.611-.458.668-.691.199-.319.173-.688.004-.979-.025-.377-.17-.785-.309-1.187-.18-.287-.318-.689-.522-.861-.287-.327-.487-.496-.72-.557-.342-.09-.6-.033-1 .112z"/><path d="m182.516 43.912 1.653 3.613 1.761-.666c.406-.141.633-.58.725-.925 0-.488-.084-1.121-.422-1.704-.146-.402-.545-.751-.741-.925-.404-.347-.785-.314-1.188-.173zm-1.349-.956 2.45-.982c.689-.316 1.417-.257 1.928.116.551.269 1.121.905 1.635 1.767.2.668.283 1.306.369 1.938-.029.612-.146 1.069-.492 1.477l3.498 4.08-.949.368-3.186-3.871-1.786.778 1.937 4.422-.687.313z"/><path d="m195.014 17.986c2.127.604 4.34 1.141 6.313 2.323 1.773.725 3.236 1.841 4.438 3.02.486.222.609.583.922.792.766.604 1.276 1.263 1.711 1.823 1.051 1.744 2.496 3.616 3.041 5.3 1.281 3.21 2.172 7.475 1.34 11.267-.098.072-.113.243-.113.243-.409-.142-.482-.236-.529-.499.586-4.498-.252-8.502-1.777-11.825-.45-1.756-1.131-3.026-2.34-4.193-.713-.344-1.062-.982-1.492-1.542-1.064-.983-2.231-1.725-3.295-2.705-3.125-2.087-6.588-2.866-9.83-3.95-1.506-.188-2.65-.502-3.883-.156-5.195.875-9.703 2.259-13.365 5.692-.611.772-1.229.948-1.957 1.365.527-1.457 2.158-2.271 3.313-3.314 2.686-1.781 5.006-2.669 7.825-3.499.858-.065 1.304-.265 2.235-.229 2.492-.282 5.115-.207 7.443.087"/></g></svg>