<svg enable-background="new 0 0 400 400" height="400" viewBox="0 0 400 400" width="400" xmlns="http://www.w3.org/2000/svg"><g clip-rule="evenodd" fill-rule="evenodd"><path d="m262.721 205.486c4.842-13.177 8.971-24.279 12.998-35.418 2.141-5.92 3.525-10.983 12.404-10.91 8.777.073 11.164 4.033 13.406 10.952 3.637 11.219 8.102 22.17 12.973 35.266 5.443-14.304 10.16-26.627 14.818-38.973 1.426-3.775 2.633-6.588 7.955-7.037 12.445-1.052 18.006.012 10.939 14.672-8.896 18.458-15.475 38.048-22.742 57.267-2.238 5.923-4.119 10.044-12.146 10.021-7.801-.022-9.225-4.269-11.168-9.708-4.105-11.483-8.473-22.872-13.502-36.365-4.979 13.38-9.227 24.663-13.367 35.984-1.926 5.262-2.926 10.062-10.959 10.089-7.771.025-10.135-3.518-12.43-9.576-7.748-20.447-16.09-40.672-23.623-61.195-1.145-3.118-7.039-9.224-1.008-10.213 6.086-.999 15.73-5.946 19.936 4.419 5.172 12.743 9.82 25.698 15.516 40.725z" fill="#f5f6f5"/><path d="m229.414 202.424c-.074 13.456-3.15 22.094-8.418 30.021-5.705 8.587-11.902 12.4-22.28 5.649-10.565-6.874-22.414-6.313-32.991.644-8.383 5.514-14.263 3.343-19.419-4.033-13.013-18.614-14.13-37.927-1.046-56.601 12.692-18.114 31.031-23.94 51.855-17.247 21.401 6.878 31.362 23.252 32.299 41.567zm-23.484 3.027c-.963-14.762-8.922-23.538-23.263-23.422-14.313.115-23.014 9.146-22.901 23.577.112 14.37 8.651 23.273 23.184 23.177 14.513-.096 22.15-8.897 22.98-23.332z" fill="#81b3a0"/><path d="m49.338 199.358c0-8.657-.408-17.341.167-25.959.303-4.54-3.229-12.092 2.354-13.044 5.373-.916 13.557-5.342 18.212 3.347.229.427 4.37-.901 6.476-1.874 23.572-10.886 49.072 3.637 50.924 29.459.831 11.6.589 23.286.568 34.933-.013 7.291 3.245 15.295-10.645 15.285-13.922-.011-10.358-8.127-10.51-15.272-.211-9.983.234-19.988-.184-29.959-.471-11.243-5.784-18.695-18.021-17.55-10.897 1.02-18.959 5.352-17.836 18.827.799 9.589.179 19.298.147 28.953-.023 7.586 2.575 15.11-11.048 15.024-13.789-.088-10.456-7.967-10.57-15.202-.141-8.987-.034-17.978-.034-26.968z" fill="#f5f6f5"/></g></svg>