<?xml version="1.0" encoding="utf-8"?>
<!-- Generator: Adobe Illustrator 16.0.0, SVG Export Plug-In . SVG Version: 6.00 Build 0)  -->
<!DOCTYPE svg PUBLIC "-//W3C//DTD SVG 1.1//EN" "http://www.w3.org/Graphics/SVG/1.1/DTD/svg11.dtd">
<svg version="1.1" id="Layer_1" xmlns="http://www.w3.org/2000/svg" xmlns:xlink="http://www.w3.org/1999/xlink" x="0px" y="0px"
	 width="400px" height="400px" viewBox="0 0 400 400" enable-background="new 0 0 400 400" xml:space="preserve">
<g>
	<path fill-rule="evenodd" clip-rule="evenodd" fill="#F5F6F5" d="M262.721,205.486c4.842-13.177,8.971-24.279,12.998-35.418
		c2.141-5.92,3.525-10.983,12.404-10.91c8.777,0.073,11.164,4.033,13.406,10.952c3.637,11.219,8.102,22.17,12.973,35.266
		c5.443-14.304,10.16-26.627,14.818-38.973c1.426-3.775,2.633-6.588,7.955-7.037c12.445-1.052,18.006,0.012,10.939,14.672
		c-8.896,18.458-15.475,38.048-22.742,57.267c-2.238,5.923-4.119,10.044-12.146,10.021c-7.801-0.022-9.225-4.269-11.168-9.708
		c-4.105-11.483-8.473-22.872-13.502-36.365c-4.979,13.38-9.227,24.663-13.367,35.984c-1.926,5.262-2.926,10.062-10.959,10.089
		c-7.771,0.025-10.135-3.518-12.43-9.576c-7.748-20.447-16.09-40.672-23.623-61.195c-1.145-3.118-7.039-9.224-1.008-10.213
		c6.086-0.999,15.73-5.946,19.936,4.419C252.377,177.504,257.025,190.459,262.721,205.486z"/>
	<path fill-rule="evenodd" clip-rule="evenodd" fill="#81B3A0" d="M229.414,202.424c-0.074,13.456-3.15,22.094-8.418,30.021
		c-5.705,8.587-11.902,12.4-22.28,5.649c-10.565-6.874-22.414-6.313-32.991,0.644c-8.383,5.514-14.263,3.343-19.419-4.033
		c-13.013-18.614-14.13-37.927-1.046-56.601c12.692-18.114,31.031-23.94,51.855-17.247
		C218.516,167.735,228.477,184.109,229.414,202.424z M205.93,205.451c-0.963-14.762-8.922-23.538-23.263-23.422
		c-14.313,0.115-23.014,9.146-22.901,23.577c0.112,14.37,8.651,23.273,23.184,23.177C197.463,228.687,205.1,219.886,205.93,205.451z
		"/>
	<path fill-rule="evenodd" clip-rule="evenodd" fill="#F5F6F5" d="M49.338,199.358c0-8.657-0.408-17.341,0.167-25.959
		c0.303-4.54-3.229-12.092,2.354-13.044c5.373-0.916,13.557-5.342,18.212,3.347c0.229,0.427,4.37-0.901,6.476-1.874
		c23.572-10.886,49.072,3.637,50.924,29.459c0.831,11.6,0.589,23.286,0.568,34.933c-0.013,7.291,3.245,15.295-10.645,15.285
		c-13.922-0.011-10.358-8.127-10.51-15.272c-0.211-9.983,0.234-19.988-0.184-29.959c-0.471-11.243-5.784-18.695-18.021-17.55
		c-10.897,1.02-18.959,5.352-17.836,18.827c0.799,9.589,0.179,19.298,0.147,28.953c-0.023,7.586,2.575,15.11-11.048,15.024
		c-13.789-0.088-10.456-7.967-10.57-15.202C49.231,217.339,49.338,208.348,49.338,199.358z"/>
</g>
</svg>
