<svg enable-background="new 208.103 -13 150 150" height="150" viewBox="208.103 -13 150 150" width="150" xmlns="http://www.w3.org/2000/svg"><g fill="#55a335"><path d="m-189.583-713.228v-3.225-3.235c3.368-.083 4.078-1.065 4.717-1.936.611-.922.657-2.131.653-2.138v-.024c.021-8.05-5.059-15.733-14.063-21.606-8.959-5.834-21.645-9.566-35.673-9.559-14.028-.007-26.714 3.725-35.663 9.559-9.011 5.874-14.084 13.557-14.063 21.606v.024c.018 0 .042 1.216.643 2.138.65.87 1.363 1.852 4.72 1.936h88.728v3.235 3.225h-88.728c-5.08.094-8.668-2.352-10.209-4.996-1.586-2.603-1.601-4.972-1.614-5.538v-.024c.405-21.949 26.092-37.566 56.186-37.629 30.106.063 55.784 15.681 56.196 37.629v.024c-.018.566-.042 2.928-1.629 5.538-1.502 2.599-4.992 5.003-9.919 5.003-.09 0-.181-.007-.282-.007" transform="translate(517.1888 761.4161)"/><path d="m-246.204-615.718c-8.158-.066-13.284-.723-17.046-3.756-3.773-3.246-4.168-7.837-4.183-12.799v-.014c.014-.59.066-2.799 1.761-5.139 1.702-2.387 5.161-4.277 10.066-4.225h88.728v3.225 3.235h-88.728c-3.525.056-4.388 1.013-4.867 1.593-.412.524-.489 1.111-.5 1.262v.049.014c-.01 4.826.622 6.887 1.873 7.855 1.248 1.188 5.122 2.299 12.896 2.235h66.524c9.479.046 14.27-1.275 16.023-2.718 1.631-1.24 2.106-3.022 2.148-7.212 0-.046 0-.108-.007-.175-.024-.018.007-.102-.057-.37-.08-.272-.202-.622-.433-.94-.493-.58-1.338-1.537-4.874-1.593v-3.235-3.225c4.912-.053 8.375 1.838 10.069 4.225 1.495 2.057 1.701 4.038 1.75 4.87.011.021.011.069.011.14l.004.143c.021 4.448-.496 9.298-4.689 12.502-4.108 3.025-10.021 3.993-19.946 4.053z" transform="translate(494.4852 739.7178)"/><path d="m-254.282-657.07c-5.332-.014-9.881-4.134-9.905-9.545.024-5.434 4.573-9.535 9.905-9.557h92.574c5.321.021 9.871 4.123 9.898 9.557-.027 5.411-4.577 9.531-9.898 9.545zm-3.452-9.545c0 1.547 1.408 3.061 3.452 3.074h92.574c2.02-.014 3.438-1.527 3.438-3.074 0-1.572-1.419-3.079-3.438-3.1h-92.574c-2.044.021-3.452 1.528-3.452 3.1" transform="translate(491.2459 748.9197)"/><path d="m-227.996-695.462c-.929-1.062-.964-2.037-4.077-2.24-2.072 0-3.218 1.164-3.714 1.744-.14.15-.133.15-.171.23-.209.356-3.071 4.762-9.35 4.822-5.964.186-9.084-4.318-9.175-4.556-.926-1.076-.96-2.037-4.077-2.24-2.072 0-3.214 1.164-3.721 1.744-.125.15-.125.15-.161.23-.203.356-3.064 4.762-9.35 4.822-1.786 0-3.232-1.447-3.232-3.218 0-1.792 1.446-3.235 3.232-3.235 2.152 0 3.291-1.136 3.767-1.667.119-.136.108-.136.077-.077.196-.329 3.005-4.979 9.388-5.073 5.992-.192 9.067 4.49 9.168 4.734.699.772.94 1.894 4.084 2.083 2.145 0 3.288-1.136 3.756-1.667.063-.063.087-.091.102-.104.325-.535 3.141-4.951 9.377-5.045 5.978-.192 9.056 4.479 9.154 4.734.712.779.943 1.894 4.087 2.083 2.138 0 3.281-1.136 3.756-1.667.056-.042.08-.077.091-.091.311-.503 3.131-4.965 9.392-5.059 5.988-.192 9.063 4.49 9.165 4.734.698.772.932 1.894 4.059 2.083 1.797 0 3.243 1.443 3.243 3.235 0 1.771-1.446 3.218-3.243 3.218-5.939.186-9.063-4.318-9.146-4.556-.93-1.076-.961-2.037-4.077-2.24-2.075 0-3.229 1.164-3.725 1.744-.13.15-.122.167-.164.23-.217.339-3.064 4.762-9.35 4.822-.119.007-.244.018-.363.018-5.713-.002-8.721-4.359-8.802-4.575" transform="translate(501.7861 757.4628)"/><path d="m-190.194-695.462c-.94-1.076-.972-2.037-4.085-2.24-2.071 0-3.225 1.164-3.721 1.744-.122.15-.122.15-.161.23-.209.342-3.061 4.762-9.363 4.822-1.771 0-3.208-1.447-3.208-3.218 0-1.792 1.437-3.235 3.208-3.235 2.166 0 3.306-1.136 3.784-1.667.111-.136.111-.136.073-.077.192-.329 3.005-4.979 9.388-5.059 5.985-.206 9.063 4.476 9.168 4.73.688.755.947 1.883 4.085 2.072 1.781 0 3.221 1.443 3.221 3.235 0 1.771-1.439 3.218-3.221 3.218-.123.007-.23.018-.343.018-5.74-.01-8.742-4.336-8.825-4.573" transform="translate(516.9437 757.4628)"/></g></svg>