<?xml version="1.0" encoding="utf-8"?>
<!-- Generator: Adobe Illustrator 16.0.0, SVG Export Plug-In . SVG Version: 6.00 Build 0)  -->
<!DOCTYPE svg PUBLIC "-//W3C//DTD SVG 1.1//EN" "http://www.w3.org/Graphics/SVG/1.1/DTD/svg11.dtd">
<svg version="1.1"
	 id="svg815" xmlns:dc="http://purl.org/dc/elements/1.1/" xmlns:cc="http://creativecommons.org/ns#" xmlns:rdf="http://www.w3.org/1999/02/22-rdf-syntax-ns#" xmlns:svg="http://www.w3.org/2000/svg" xmlns:sodipodi="http://sodipodi.sourceforge.net/DTD/sodipodi-0.dtd" xmlns:inkscape="http://www.inkscape.org/namespaces/inkscape" inkscape:version="0.92.2 (5c3e80d, 2017-08-06)" sodipodi:docname="Shake Shack Logo.svg"
	 xmlns="http://www.w3.org/2000/svg" xmlns:xlink="http://www.w3.org/1999/xlink" x="0px" y="0px" width="150px" height="150px"
	 viewBox="208.103 -13 150 150" enable-background="new 208.103 -13 150 150" xml:space="preserve">
<sodipodi:namedview  inkscape:cy="-325.15487" inkscape:cx="372.27294" inkscape:zoom="0.81912879" fit-margin-left="0" fit-margin-top="0" showgrid="false" guidetolerance="10" gridtolerance="10" objecttolerance="10" borderopacity="1" pagecolor="#ffffff" bordercolor="#666666" id="namedview817" fit-margin-bottom="0" fit-margin-right="0" inkscape:window-height="480" inkscape:window-width="640" inkscape:pageshadow="2" inkscape:pageopacity="0" inkscape:current-layer="g823">
	</sodipodi:namedview>
<g>
	<g id="g945" transform="translate(517.1888,761.4161)">
		<path id="path947" inkscape:connector-curvature="0" fill="#55A335" d="M-189.583-713.228v-3.225v-3.235
			c3.368-0.083,4.078-1.065,4.717-1.936c0.611-0.922,0.657-2.131,0.653-2.138v-0.024c0.021-8.05-5.059-15.733-14.063-21.606
			c-8.959-5.834-21.645-9.566-35.673-9.559c-14.028-0.007-26.714,3.725-35.663,9.559c-9.011,5.874-14.084,13.557-14.063,21.606
			v0.024c0.018,0,0.042,1.216,0.643,2.138c0.65,0.87,1.363,1.852,4.72,1.936h88.728v3.235V-713.228h-88.728
			c-5.08,0.094-8.668-2.352-10.209-4.996c-1.586-2.603-1.601-4.972-1.614-5.538v-0.024c0.405-21.949,26.092-37.566,56.186-37.629
			c30.106,0.063,55.784,15.681,56.196,37.629v0.024c-0.018,0.566-0.042,2.928-1.629,5.538c-1.502,2.599-4.992,5.003-9.919,5.003
			C-189.391-713.221-189.482-713.228-189.583-713.228"/>
	</g>
	<g id="g949" transform="translate(494.4852,739.7178)">
		<path id="path951" inkscape:connector-curvature="0" fill="#55A335" d="M-246.204-615.718c-8.158-0.066-13.284-0.723-17.046-3.756
			c-3.773-3.246-4.168-7.837-4.183-12.799v-0.014c0.014-0.59,0.066-2.799,1.761-5.139c1.702-2.387,5.161-4.277,10.066-4.225h88.728
			v3.225v3.235h-88.728c-3.525,0.056-4.388,1.013-4.867,1.593c-0.412,0.524-0.489,1.111-0.5,1.262v0.049v0.014
			c-0.01,4.826,0.622,6.887,1.873,7.855c1.248,1.188,5.122,2.299,12.896,2.235h66.524c9.479,0.046,14.27-1.275,16.023-2.718
			c1.631-1.24,2.106-3.022,2.148-7.212c0-0.046,0-0.108-0.007-0.175c-0.024-0.018,0.007-0.102-0.057-0.37
			c-0.08-0.272-0.202-0.622-0.433-0.94c-0.493-0.58-1.338-1.537-4.874-1.593v-3.235v-3.225c4.912-0.053,8.375,1.838,10.069,4.225
			c1.495,2.057,1.701,4.038,1.75,4.87c0.011,0.021,0.011,0.069,0.011,0.14l0.004,0.143c0.021,4.448-0.496,9.298-4.689,12.502
			c-4.108,3.025-10.021,3.993-19.946,4.053H-246.204z"/>
	</g>
	<g id="g953" transform="translate(491.2459,748.9197)">
		<path id="path955" inkscape:connector-curvature="0" fill="#55A335" d="M-254.282-657.07c-5.332-0.014-9.881-4.134-9.905-9.545
			c0.024-5.434,4.573-9.535,9.905-9.557h92.574c5.321,0.021,9.871,4.123,9.898,9.557c-0.027,5.411-4.577,9.531-9.898,9.545H-254.282
			z M-257.734-666.615c0,1.547,1.408,3.061,3.452,3.074h92.574c2.02-0.014,3.438-1.527,3.438-3.074c0-1.572-1.419-3.079-3.438-3.1
			h-92.574C-256.326-669.694-257.734-668.187-257.734-666.615"/>
	</g>
	<g id="g957" transform="translate(501.7861,757.4628)">
		<path id="path959" inkscape:connector-curvature="0" fill="#55A335" d="M-227.996-695.462c-0.929-1.062-0.964-2.037-4.077-2.24
			c-2.072,0-3.218,1.164-3.714,1.744c-0.14,0.15-0.133,0.15-0.171,0.23c-0.209,0.356-3.071,4.762-9.35,4.822
			c-5.964,0.186-9.084-4.318-9.175-4.556c-0.926-1.076-0.96-2.037-4.077-2.24c-2.072,0-3.214,1.164-3.721,1.744
			c-0.125,0.15-0.125,0.15-0.161,0.23c-0.203,0.356-3.064,4.762-9.35,4.822c-1.786,0-3.232-1.447-3.232-3.218
			c0-1.792,1.446-3.235,3.232-3.235c2.152,0,3.291-1.136,3.767-1.667c0.119-0.136,0.108-0.136,0.077-0.077
			c0.196-0.329,3.005-4.979,9.388-5.073c5.992-0.192,9.067,4.49,9.168,4.734c0.699,0.772,0.94,1.894,4.084,2.083
			c2.145,0,3.288-1.136,3.756-1.667c0.063-0.063,0.087-0.091,0.102-0.104c0.325-0.535,3.141-4.951,9.377-5.045
			c5.978-0.192,9.056,4.479,9.154,4.734c0.712,0.779,0.943,1.894,4.087,2.083c2.138,0,3.281-1.136,3.756-1.667
			c0.056-0.042,0.08-0.077,0.091-0.091c0.311-0.503,3.131-4.965,9.392-5.059c5.988-0.192,9.063,4.49,9.165,4.734
			c0.698,0.772,0.932,1.894,4.059,2.083c1.797,0,3.243,1.443,3.243,3.235c0,1.771-1.446,3.218-3.243,3.218
			c-5.939,0.186-9.063-4.318-9.146-4.556c-0.93-1.076-0.961-2.037-4.077-2.24c-2.075,0-3.229,1.164-3.725,1.744
			c-0.13,0.15-0.122,0.167-0.164,0.23c-0.217,0.339-3.064,4.762-9.35,4.822c-0.119,0.007-0.244,0.018-0.363,0.018
			C-224.907-690.889-227.915-695.246-227.996-695.462"/>
	</g>
	<g id="g961" transform="translate(516.9437,757.4628)">
		<path id="path963" inkscape:connector-curvature="0" fill="#55A335" d="M-190.194-695.462c-0.94-1.076-0.972-2.037-4.085-2.24
			c-2.071,0-3.225,1.164-3.721,1.744c-0.122,0.15-0.122,0.15-0.161,0.23c-0.209,0.342-3.061,4.762-9.363,4.822
			c-1.771,0-3.208-1.447-3.208-3.218c0-1.792,1.437-3.235,3.208-3.235c2.166,0,3.306-1.136,3.784-1.667
			c0.111-0.136,0.111-0.136,0.073-0.077c0.192-0.329,3.005-4.979,9.388-5.059c5.985-0.206,9.063,4.476,9.168,4.73
			c0.688,0.755,0.947,1.883,4.085,2.072c1.781,0,3.221,1.443,3.221,3.235c0,1.771-1.439,3.218-3.221,3.218
			c-0.123,0.007-0.23,0.018-0.343,0.018C-187.109-690.899-190.111-695.225-190.194-695.462"/>
	</g>
</g>
</svg>
