<svg enable-background="new 0 0 400 400" height="400" viewBox="0 0 400 400" width="400" xmlns="http://www.w3.org/2000/svg"><path clip-rule="evenodd" d="m0 0h400v400h-400z" fill="#981d30" fill-rule="evenodd"/><path d="m265.527 37.927h8.862v73.853h-9.399c-2.148-20.41-9.533-36.343-22.156-47.803-12.621-11.455-28.513-17.188-47.668-17.188-17.011 0-30.708 4.297-41.089 12.891-10.386 8.594-15.576 20.054-15.576 34.375 0 13.252 4.297 25.337 12.891 36.255 8.594 10.923 27.212 24.976 55.859 42.163 33.301 19.873 55.679 37.241 67.139 52.101 11.455 14.862 17.188 31.869 17.188 51.025 0 24.707-8.762 45.834-26.28 63.379-17.52 17.549-38.613 26.318-63.278 26.318-14.301 0-32.537-3.941-54.701-11.816-9.119-3.223-14.926-4.834-17.427-4.834-5.187 0-9.211 4.027-12.068 12.084h-9.399v-85.131h9.399c.177 23.456 7.817 42.255 22.915 56.396 15.098 14.145 32.747 21.215 52.939 21.215 19.117 0 34.441-5.105 45.969-15.32 11.522-10.213 17.288-23.83 17.288-40.854 0-12.719-4.737-24.9-14.208-36.549-9.476-11.648-29.269-26.662-59.381-45.041-24.56-15.165-40.949-27.133-49.174-35.911s-14.305-18.404-18.236-28.887c-3.937-10.478-5.9-21.987-5.9-34.53 0-24.178 7.922-43.795 23.768-58.843 15.844-15.047 36.477-22.571 61.901-22.571 13.965 0 29.18 2.778 45.654 8.325 7.695 2.51 13.066 3.76 16.113 3.76 2.505 0 4.204-.537 5.103-1.611.892-1.074 1.878-3.491 2.952-7.251z" fill="#fbf7f7"/></svg>