<?xml version="1.0" encoding="utf-8"?>
<!-- Generator: Adobe Illustrator 16.0.0, SVG Export Plug-In . SVG Version: 6.00 Build 0)  -->
<!DOCTYPE svg PUBLIC "-//W3C//DTD SVG 1.1//EN" "http://www.w3.org/Graphics/SVG/1.1/DTD/svg11.dtd">
<svg version="1.1" id="Layer_1" xmlns="http://www.w3.org/2000/svg" xmlns:xlink="http://www.w3.org/1999/xlink" x="0px" y="0px"
	 width="400px" height="400px" viewBox="0 0 400 400" enable-background="new 0 0 400 400" xml:space="preserve">
<rect fill-rule="evenodd" clip-rule="evenodd" fill="#981D30" width="400" height="400"/>
<g>
	<path fill="#FBF7F7" d="M265.527,37.927h8.862v73.853h-9.399c-2.148-20.41-9.533-36.343-22.156-47.803
		c-12.621-11.455-28.513-17.188-47.668-17.188c-17.011,0-30.708,4.297-41.089,12.891c-10.386,8.594-15.576,20.054-15.576,34.375
		c0,13.252,4.297,25.337,12.891,36.255c8.594,10.923,27.212,24.976,55.859,42.163c33.301,19.873,55.679,37.241,67.139,52.101
		c11.455,14.862,17.188,31.869,17.188,51.025c0,24.707-8.762,45.834-26.28,63.379c-17.52,17.549-38.613,26.318-63.278,26.318
		c-14.301,0-32.537-3.941-54.701-11.816c-9.119-3.223-14.926-4.834-17.427-4.834c-5.187,0-9.211,4.027-12.068,12.084h-9.399v-85.131
		h9.399c0.177,23.456,7.817,42.255,22.915,56.396c15.098,14.145,32.747,21.215,52.939,21.215c19.117,0,34.441-5.105,45.969-15.32
		c11.522-10.213,17.288-23.83,17.288-40.854c0-12.719-4.737-24.9-14.208-36.549c-9.476-11.648-29.269-26.662-59.381-45.041
		c-24.56-15.165-40.949-27.133-49.174-35.911s-14.305-18.404-18.236-28.887c-3.937-10.478-5.9-21.987-5.9-34.53
		c0-24.178,7.922-43.795,23.768-58.843c15.844-15.047,36.477-22.571,61.901-22.571c13.965,0,29.18,2.778,45.654,8.325
		c7.695,2.51,13.066,3.76,16.113,3.76c2.505,0,4.204-0.537,5.103-1.611C263.467,44.104,264.453,41.687,265.527,37.927z"/>
</g>
</svg>
