<?xml version="1.0" encoding="utf-8"?>
<!-- Generator: Adobe Illustrator 16.0.0, SVG Export Plug-In . SVG Version: 6.00 Build 0)  -->
<!DOCTYPE svg PUBLIC "-//W3C//DTD SVG 1.1//EN" "http://www.w3.org/Graphics/SVG/1.1/DTD/svg11.dtd">
<svg version="1.1"
	 id="Layer_1" xmlns:svg="http://www.w3.org/2000/svg" xmlns:dc="http://purl.org/dc/elements/1.1/" xmlns:rdf="http://www.w3.org/1999/02/22-rdf-syntax-ns#" xmlns:cc="http://creativecommons.org/ns#" xmlns:sodipodi="http://sodipodi.sourceforge.net/DTD/sodipodi-0.dtd" xmlns:inkscape="http://www.inkscape.org/namespaces/inkscape" sodipodi:docname="SNC-Lavalin_logo.svg" inkscape:version="0.92.2 (5c3e80d, 2017-08-06)"
	 xmlns="http://www.w3.org/2000/svg" xmlns:xlink="http://www.w3.org/1999/xlink" x="0px" y="0px" width="512px" height="512px"
	 viewBox="-20.982 -204.858 512 512" enable-background="new -20.982 -204.858 512 512" xml:space="preserve">
<path id="path8" inkscape:connector-curvature="0" d="M407.25,207.253c0,1.896,1.795,2.492,2.811,2.492h2.306
	c1.891,0,1.891,3.271,0,3.271h-22.226c-1.889,0-1.889-3.271,0-3.271h2.303c1.021,0,2.813-0.597,2.813-2.492v-34.529
	c0-1.888-1.793-2.496-2.813-2.496h-2.303c-1.889,0-1.889-3.268,0-3.268h22.226c1.891,0,1.891,3.268,0,3.268h-2.306
	c-1.016,0-2.811,0.608-2.811,2.496V207.253z"/>
<path id="path10" inkscape:connector-curvature="0" d="M327.633,207.253c1.014,2.492-0.688,2.492-1.705,2.492h-2.307
	c-1.889,0-1.889,3.271,0,3.271h22.229c1.888,0,1.888-3.271,0-3.271h-1.567c-1.017,0-2.261,0-3.367-2.492
	c0,0-17.381-39.79-17.754-40.665c-0.363-0.872-0.871-0.731-1.244-0.731h-2.442c-0.875,0-1.15,0.731-1.33,1.013
	c-0.189,0.275-17.711,40.385-17.711,40.385c-1.291,2.492-2.074,2.492-3.09,2.492h-2.306c-1.892,0-1.892,3.271,0,3.271h16.045
	c1.89,0,1.89-3.271,0-3.271h-4.146c-1.018,0-3.002,0.366-1.895-2.492l11.344-27.479L327.633,207.253z"/>
<polygon id="polygon12" points="323.533,197.208 322.17,193.926 310.553,193.926 309.195,197.208 "/>
<path id="path14" inkscape:connector-curvature="0" d="M276.063,172.723c-1.016-2.496,0.685-2.496,1.703-2.496h2.306
	c1.887,0,1.887-3.268,0-3.268h-22.226c-1.893,0-1.893,3.268,0,3.268h1.566c1.016,0,2.26,0,3.363,2.496
	c0,0,17.383,39.421,17.75,40.292c0.371,0.877,0.879,0.739,1.248,0.739h1.707c0.547,0,0.672,0.168,1.213-0.73
	c0.176-0.275,17.828-40.301,17.828-40.301c1.291-2.496,2.074-2.496,3.092-2.496h2.303c1.891,0,1.891-3.268,0-3.268h-13.828
	c-1.893,0-1.893,3.268,0,3.268h1.932c1.015,0,2.998-0.362,1.892,2.496l-11.338,26.375L276.063,172.723z"/>
<path id="path16" inkscape:connector-curvature="0" d="M251.096,207.253c1.014,2.492-0.686,2.492-1.703,2.492h-2.313
	c-1.881,0-1.881,3.271,0,3.271h22.23c1.891,0,1.891-3.271,0-3.271h-1.568c-1.012,0-2.26,0-3.367-2.492
	c0,0-17.381-39.79-17.744-40.665c-0.373-0.872-0.881-0.731-1.25-0.731h-2.447c-0.381,0-0.713-0.044-1.248,0.842
	c-0.174,0.288-17.792,40.556-17.792,40.556c-1.292,2.492-2.075,2.492-3.083,2.492h-2.312c-1.892,0-1.892,3.271,0,3.271h16.045
	c1.892,0,1.892-3.271,0-3.271h-4.147c-1.015,0-2.994,0.366-1.892-2.492l11.347-27.479L251.096,207.253z"/>
<polygon id="polygon18" points="246.994,197.208 245.637,193.926 234.015,193.926 232.656,197.208 "/>
<rect id="rect20" x="149.82" y="183.604" transform="matrix(-0.7071 -0.7071 0.7071 -0.7071 132.3195 434.7973)" width="12.778" height="12.78"/>
<path id="path22" inkscape:connector-curvature="0" d="M0,201.171c0-1.478,3.227-1.94,3.227,0c0,3.595,1.683,11.201,11.181,11.201
	s10.396-6.774,10.396-9.083c0-10.326-23.88-7.839-23.88-23.704c0-11.241,10.028-15.068,17.728-15.068
	c6.729,0,9.748,1.61,10.579,2.255c0.832,0.648,0.921,1.196,0.921,1.85v8.578c0,1.19-1.845,2.115-2.576,0
	c-0.739-2.123-3.231-9.6-8.946-9.6c-6.46,0-8.759,4.523-8.759,7.292c0,10.418,23.788,6.358,23.788,23.513
	c0,9.771-9.039,17.238-19.273,17.238c-10.238,0-13.558-4.168-14.385-5.092L0,201.171L0,201.171z"/>
<path id="path24" inkscape:connector-curvature="0" d="M131.865,201.757c0.74-1.476,2.487-1.2,2.487,0.73v6.092
	c0,0.275,0,0.829-0.455,1.194c-0.465,0.368-6,5.168-15.034,5.168c-13.369,0-28.586-7.839-28.586-24.717
	c0-14.844,15.633-24.158,28.91-24.158c3.872,0,10.927,1.563,12.219,2.114c1.291,0.556,1.472,1.107,1.567,1.805
	c0.092,0.688,0.643,5.119,0.827,6.223c0.188,1.107-1.563,2.498-2.768,0.369c-1.195-2.12-4.055-7.375-11.89-7.375
	c-7.839,0-16.509,5.995-16.509,21.209c0,15.217,9.405,21.392,16.229,21.392C123.384,211.802,128.914,209.774,131.865,201.757"/>
<path id="path26" inkscape:connector-curvature="0" d="M435.623,166.96l23.818,29.512v-23.748c0-1.888-1.802-2.496-2.816-2.496
	h-2.299c-1.896,0-1.896-3.268,0-3.268h14.289c1.893,0,1.893,3.268,0,3.268h-2.305c-1.017,0-2.812,0.608-2.812,2.496v40.893
	c0,0.368-0.139,0.827-0.832,0.827h-3.596c-0.275,0-0.509-0.091-0.783-0.362c-0.281-0.28-30.572-38.173-30.572-38.173v31.346
	c0,1.896,1.801,2.492,2.812,2.492h2.309c1.893,0,1.893,3.271,0,3.271h-14.293c-1.893,0-1.893-3.271,0-3.271h2.305
	c1.015,0,2.812-0.597,2.812-2.492v-33.79c0-2.168-1.703-3.235-3.185-3.235h-1.932c-1.893,0-1.893-3.268,0-3.268L435.623,166.96
	L435.623,166.96z"/>
<path id="path28" inkscape:connector-curvature="0" d="M54.538,166.96l23.81,29.512v-23.748c0-1.888-1.791-2.496-2.812-2.496h-2.304
	c-1.891,0-1.891-3.268,0-3.268h14.29c1.896,0,1.896,3.268,0,3.268h-2.298c-1.012,0-2.815,0.608-2.815,2.496v40.893
	c0,0.368-0.142,0.827-0.829,0.827h-3.6c-0.275,0-0.503-0.091-0.783-0.362c-0.272-0.28-30.566-38.173-30.566-38.173v31.346
	c0,1.896,1.795,2.492,2.811,2.492h2.308c1.888,0,1.888,3.271,0,3.271h-14.3c-1.892,0-1.892-3.271,0-3.271h2.313
	c1.012,0,2.812-0.597,2.812-2.492v-33.79c0-2.168-1.708-3.235-3.18-3.235h-1.944c-1.892,0-1.892-3.268,0-3.268L54.538,166.96
	L54.538,166.96z"/>
<path id="path30" inkscape:connector-curvature="0" d="M201.569,210.72c1.817,0,7.549-0.03,11.412-8.027
	c0.661-1.804,3.451-1.399,3.135,0.457l-1.457,8.622c-0.131,0.67-0.587,1.243-1.384,1.243h-34.578c-1.892,0-1.892-3.271,0-3.271
	h2.309c1.01,0,2.812-0.597,2.812-2.492v-34.529c0-1.888-1.802-2.496-2.812-2.496h-2.309c-1.892,0-1.892-3.268,0-3.268h22.221
	c1.89,0,1.89,3.268,0,3.268h-2.304c-1.013,0-2.816,0.608-2.816,2.496v32.689C195.797,209.662,198.268,210.72,201.569,210.72"/>
<path id="path32" inkscape:connector-curvature="0" d="M373.236,210.72c1.818,0,7.554-0.03,11.421-8.027
	c0.655-1.804,3.446-1.399,3.127,0.457l-1.453,8.622c-0.133,0.67-0.586,1.243-1.388,1.243H350.37c-1.894,0-1.894-3.271,0-3.271h2.301
	c1.019,0,2.816-0.597,2.816-2.492v-34.529c0-1.888-1.8-2.496-2.816-2.496h-2.301c-1.894,0-1.894-3.268,0-3.268h22.219
	c1.888,0,1.888,3.268,0,3.268h-2.303c-1.019,0-2.812,0.608-2.812,2.496v32.689C367.475,209.662,369.943,210.72,373.236,210.72"/>
<polygon id="polygon34" fill="#00537B" points="97.302,4.354 160.176,67.228 223.059,4.354 160.176,-58.514 "/>
<path id="path36" inkscape:connector-curvature="0" fill="#00537B" d="M173.14,99.285c9.853,7.111,20.894,12.795,32.688,16.611
	c41.407-23.929,82.306-74.42,82.306-111.087c0-37.18-42.173-88.678-84.174-112.173c-11.573,3.972-22.384,9.648-32.005,16.81
	c29.817,11.962,88.415,72.794,88.415,95.136C260.367,26.652,203.289,86.295,173.14,99.285"/>
<path id="path38" inkscape:connector-curvature="0" fill="#00537B" d="M251.467-113.36c60.691,4.683,108.286,55.373,108.286,117.271
	c0,60.671-46.005,110.646-104.987,116.993c35.741-29.588,61.126-73.26,61.126-115.88C315.892-38.775,288.794-83.766,251.467-113.36"
	/>
</svg>
