<svg enable-background="new -20.982 -204.858 512 512" height="512" viewBox="-20.982 -204.858 512 512" width="512" xmlns="http://www.w3.org/2000/svg"><path d="m407.25 207.253c0 1.896 1.795 2.492 2.811 2.492h2.306c1.891 0 1.891 3.271 0 3.271h-22.226c-1.889 0-1.889-3.271 0-3.271h2.303c1.021 0 2.813-.597 2.813-2.492v-34.529c0-1.888-1.793-2.496-2.813-2.496h-2.303c-1.889 0-1.889-3.268 0-3.268h22.226c1.891 0 1.891 3.268 0 3.268h-2.306c-1.016 0-2.811.608-2.811 2.496z"/><path d="m327.633 207.253c1.014 2.492-.688 2.492-1.705 2.492h-2.307c-1.889 0-1.889 3.271 0 3.271h22.229c1.888 0 1.888-3.271 0-3.271h-1.567c-1.017 0-2.261 0-3.367-2.492 0 0-17.381-39.79-17.754-40.665-.363-.872-.871-.731-1.244-.731h-2.442c-.875 0-1.15.731-1.33 1.013-.189.275-17.711 40.385-17.711 40.385-1.291 2.492-2.074 2.492-3.09 2.492h-2.306c-1.892 0-1.892 3.271 0 3.271h16.045c1.89 0 1.89-3.271 0-3.271h-4.146c-1.018 0-3.002.366-1.895-2.492l11.344-27.479z"/><path d="m323.533 197.208-1.363-3.282h-11.617l-1.358 3.282z"/><path d="m276.063 172.723c-1.016-2.496.685-2.496 1.703-2.496h2.306c1.887 0 1.887-3.268 0-3.268h-22.226c-1.893 0-1.893 3.268 0 3.268h1.566c1.016 0 2.26 0 3.363 2.496 0 0 17.383 39.421 17.75 40.292.371.877.879.739 1.248.739h1.707c.547 0 .672.168 1.213-.73.176-.275 17.828-40.301 17.828-40.301 1.291-2.496 2.074-2.496 3.092-2.496h2.303c1.891 0 1.891-3.268 0-3.268h-13.828c-1.893 0-1.893 3.268 0 3.268h1.932c1.015 0 2.998-.362 1.892 2.496l-11.338 26.375z"/><path d="m251.096 207.253c1.014 2.492-.686 2.492-1.703 2.492h-2.313c-1.881 0-1.881 3.271 0 3.271h22.23c1.891 0 1.891-3.271 0-3.271h-1.568c-1.012 0-2.26 0-3.367-2.492 0 0-17.381-39.79-17.744-40.665-.373-.872-.881-.731-1.25-.731h-2.447c-.381 0-.713-.044-1.248.842-.174.288-17.792 40.556-17.792 40.556-1.292 2.492-2.075 2.492-3.083 2.492h-2.312c-1.892 0-1.892 3.271 0 3.271h16.045c1.892 0 1.892-3.271 0-3.271h-4.147c-1.015 0-2.994.366-1.892-2.492l11.347-27.479z"/><path d="m246.994 197.208-1.357-3.282h-11.622l-1.359 3.282z"/><path d="m149.82 183.604h12.778v12.78h-12.778z" transform="matrix(-.7071 -.7071 .7071 -.7071 132.3195 434.7973)"/><path d="m0 201.171c0-1.478 3.227-1.94 3.227 0 0 3.595 1.683 11.201 11.181 11.201s10.396-6.774 10.396-9.083c0-10.326-23.88-7.839-23.88-23.704 0-11.241 10.028-15.068 17.728-15.068 6.729 0 9.748 1.61 10.579 2.255.832.648.921 1.196.921 1.85v8.578c0 1.19-1.845 2.115-2.576 0-.739-2.123-3.231-9.6-8.946-9.6-6.46 0-8.759 4.523-8.759 7.292 0 10.418 23.788 6.358 23.788 23.513 0 9.771-9.039 17.238-19.273 17.238-10.238 0-13.558-4.168-14.385-5.092z"/><path d="m131.865 201.757c.74-1.476 2.487-1.2 2.487.73v6.092c0 .275 0 .829-.455 1.194-.465.368-6 5.168-15.034 5.168-13.369 0-28.586-7.839-28.586-24.717 0-14.844 15.633-24.158 28.91-24.158 3.872 0 10.927 1.563 12.219 2.114 1.291.556 1.472 1.107 1.567 1.805.092.688.643 5.119.827 6.223.188 1.107-1.563 2.498-2.768.369-1.195-2.12-4.055-7.375-11.89-7.375-7.839 0-16.509 5.995-16.509 21.209 0 15.217 9.405 21.392 16.229 21.392 4.522-.001 10.052-2.029 13.003-10.046"/><path d="m435.623 166.96 23.818 29.512v-23.748c0-1.888-1.802-2.496-2.816-2.496h-2.299c-1.896 0-1.896-3.268 0-3.268h14.289c1.893 0 1.893 3.268 0 3.268h-2.305c-1.017 0-2.812.608-2.812 2.496v40.893c0 .368-.139.827-.832.827h-3.596c-.275 0-.509-.091-.783-.362-.281-.28-30.572-38.173-30.572-38.173v31.346c0 1.896 1.801 2.492 2.812 2.492h2.309c1.893 0 1.893 3.271 0 3.271h-14.293c-1.893 0-1.893-3.271 0-3.271h2.305c1.015 0 2.812-.597 2.812-2.492v-33.79c0-2.168-1.703-3.235-3.185-3.235h-1.932c-1.893 0-1.893-3.268 0-3.268z"/><path d="m54.538 166.96 23.81 29.512v-23.748c0-1.888-1.791-2.496-2.812-2.496h-2.304c-1.891 0-1.891-3.268 0-3.268h14.29c1.896 0 1.896 3.268 0 3.268h-2.298c-1.012 0-2.815.608-2.815 2.496v40.893c0 .368-.142.827-.829.827h-3.6c-.275 0-.503-.091-.783-.362-.272-.28-30.566-38.173-30.566-38.173v31.346c0 1.896 1.795 2.492 2.811 2.492h2.308c1.888 0 1.888 3.271 0 3.271h-14.3c-1.892 0-1.892-3.271 0-3.271h2.313c1.012 0 2.812-.597 2.812-2.492v-33.79c0-2.168-1.708-3.235-3.18-3.235h-1.944c-1.892 0-1.892-3.268 0-3.268z"/><path d="m201.569 210.72c1.817 0 7.549-.03 11.412-8.027.661-1.804 3.451-1.399 3.135.457l-1.457 8.622c-.131.67-.587 1.243-1.384 1.243h-34.578c-1.892 0-1.892-3.271 0-3.271h2.309c1.01 0 2.812-.597 2.812-2.492v-34.529c0-1.888-1.802-2.496-2.812-2.496h-2.309c-1.892 0-1.892-3.268 0-3.268h22.221c1.89 0 1.89 3.268 0 3.268h-2.304c-1.013 0-2.816.608-2.816 2.496v32.689c-.001 4.25 2.47 5.308 5.771 5.308"/><path d="m373.236 210.72c1.818 0 7.554-.03 11.421-8.027.655-1.804 3.446-1.399 3.127.457l-1.453 8.622c-.133.67-.586 1.243-1.388 1.243h-34.573c-1.894 0-1.894-3.271 0-3.271h2.301c1.019 0 2.816-.597 2.816-2.492v-34.529c0-1.888-1.8-2.496-2.816-2.496h-2.301c-1.894 0-1.894-3.268 0-3.268h22.219c1.888 0 1.888 3.268 0 3.268h-2.303c-1.019 0-2.812.608-2.812 2.496v32.689c.001 4.25 2.469 5.308 5.762 5.308"/><g fill="#00537b"><path d="m97.302 4.354 62.874 62.874 62.883-62.874-62.883-62.868z"/><path d="m173.14 99.285c9.853 7.111 20.894 12.795 32.688 16.611 41.407-23.929 82.306-74.42 82.306-111.087 0-37.18-42.173-88.678-84.174-112.173-11.573 3.972-22.384 9.648-32.005 16.81 29.817 11.962 88.415 72.794 88.415 95.136-.003 22.07-57.081 81.713-87.23 94.703"/><path d="m251.467-113.36c60.691 4.683 108.286 55.373 108.286 117.271 0 60.671-46.005 110.646-104.987 116.993 35.741-29.588 61.126-73.26 61.126-115.88 0-43.799-27.098-88.79-64.425-118.384"/></g></svg>