<?xml version="1.0" encoding="utf-8"?>
<!-- Generator: Adobe Illustrator 16.0.0, SVG Export Plug-In . SVG Version: 6.00 Build 0)  -->
<!DOCTYPE svg PUBLIC "-//W3C//DTD SVG 1.1//EN" "http://www.w3.org/Graphics/SVG/1.1/DTD/svg11.dtd">
<svg version="1.1"
	 id="svg17686" sodipodi:docname="Spirit AeroSystems logo.svg" inkscape:version="0.92.4 (5da689c313, 2019-01-14)" xmlns:cc="http://creativecommons.org/ns#" xmlns:inkscape="http://www.inkscape.org/namespaces/inkscape" xmlns:svg="http://www.w3.org/2000/svg" xmlns:sodipodi="http://sodipodi.sourceforge.net/DTD/sodipodi-0.dtd" xmlns:rdf="http://www.w3.org/1999/02/22-rdf-syntax-ns#" xmlns:dc="http://purl.org/dc/elements/1.1/"
	 xmlns="http://www.w3.org/2000/svg" xmlns:xlink="http://www.w3.org/1999/xlink" x="0px" y="0px" width="110px" height="110px"
	 viewBox="142.712 -2.593 110 110" enable-background="new 142.712 -2.593 110 110" xml:space="preserve">
<sodipodi:namedview  units="px" inkscape:document-units="mm" inkscape:window-width="1920" fit-margin-right="0.5" inkscape:window-maximized="1" inkscape:window-height="1001" inkscape:pageshadow="2" inkscape:pageopacity="0.0" inkscape:window-y="-9" inkscape:window-x="-9" inkscape:current-layer="layer1" fit-margin-bottom="0.5" fit-margin-left="0.5" inkscape:cx="124.18331" inkscape:zoom="3.959798" fit-margin-top="0.5" pagecolor="#ffffff" inkscape:cy="51.760819" showgrid="false" borderopacity="1.0" bordercolor="#666666" id="base">
	</sodipodi:namedview>
<path fill="#073FB5" d="M193.116,41.154c-0.083,0.115-0.153,0.179-0.331,0.217l-47.34,9.518c-0.682,0.146-0.701,0.887-0.02,1.065
	l37.566,9.734c0.224,0.058,0.332,0.039,0.511-0.127l18.098-19.622c0.522-0.498,1.173-0.02,0.86,0.625l-29.432,60.92
	c-0.32,0.677,0.504,1.161,0.938,0.549l28.067-39.493c0.103-0.141,0.159-0.179,0.331-0.217l47.607-9.881
	c0.689-0.147,0.708-0.887,0.025-1.065L212.662,43.7c-0.408-0.108-0.473-0.351-0.39-0.664l10.423-41.789
	c0.173-0.695-0.555-1.033-0.969-0.446L193.116,41.154z"/>
</svg>
