<svg enable-background="new -11.412 -110.131 300 300" height="300" viewBox="-11.412 -110.131 300 300" width="300" xmlns="http://www.w3.org/2000/svg"><g fill="#231f20"><path d="m237.385 16.625h9.426l3.098-14.589h17.992l-3.109 14.589h11.886l-2.528 11.871h-11.88l-3.936 18.501c-.88 4.158.013 4.744 4.852 4.744 2.2 0 4.008-.082 6.404-.164l-2.384 11.198c-3.757.506-8.583.849-13.847.849-11.709 0-15.935-2.879-13.822-12.811l4.752-22.318h-9.424z"/><path d="m212.961 16.625h17.984l-9.771 45.986h-17.984z"/><path d="m216.386.5h17.987l-2.311 10.861h-17.986z"/><path d="m165.315 16.625-9.777 45.986h17.501l9.778-45.987z"/><path d="m203.518 14.581c-8.031 0-20.814 7.912-24.185 22l-.865 3.174h.302c2.555-6.114 8.955-9.387 17.578-9.387 2.323 0 4.965.318 7.09.796l3.496-16.421c-1.144-.102-2.339-.162-3.416-.162"/><path d="m139.927 16.625h17.981l-9.771 45.986h-17.985z"/><path d="m143.348.5h17.988l-2.305 10.861h-17.989z"/><path d="m95.468 51.406c8.236 0 13.597-4.072 15.215-11.705 1.624-7.646-2.006-11.709-10.232-11.709-8.401 0-13.788 4.576-15.3 11.709-1.516 7.127 1.919 11.705 10.317 11.705m-23.403-34.781h17.476l-1.294 6.106h.168c4.812-4.667 11.734-7.295 19.032-7.295 16.289 0 24.98 8.987 21.59 24.94-2.833 13.322-14.97 24.09-31.848 24.09-7.975 0-13.52-2.629-15.859-6.019h-.167l-4.425 20.789h-17.982z"/><path d="m21.628 48.272c-.103 1.694.287 3.052 1.715 3.907 1.416.934 3.768 1.434 7.671 1.434 3.986 0 8.392-.762 9.096-4.07.522-2.459-1.118-3.142-5.419-3.648l-15.627-1.951c-10.244-1.275-14.797-5.006-13.133-12.815 2.643-12.468 14.167-16.37 31.389-16.37 12.219 0 27.189 2.201 25.432 15.267h-20.188c.243-1.951-.762-3.22-2.398-3.902-1.62-.757-3.938-1.019-6.233-1.019-5.175 0-8.479 1.189-9.149 4.329-.305 1.444.613 2.713 5.085 3.225l15.167 1.695c12.096 1.359 17.392 5.176 15.484 14.168-2.31 10.858-13.74 15.942-32.828 15.942-12.731 0-29.471-2.279-26.935-16.192z"/></g></svg>