<?xml version="1.0" encoding="utf-8"?>
<!-- Generator: Adobe Illustrator 16.0.0, SVG Export Plug-In . SVG Version: 6.00 Build 0)  -->
<!DOCTYPE svg PUBLIC "-//W3C//DTD SVG 1.1//EN" "http://www.w3.org/Graphics/SVG/1.1/DTD/svg11.dtd">
<svg version="1.1"
	 id="svg8" sodipodi:docname="spirit.svg" inkscape:version="0.92.3 (2405546, 2018-03-11)" xmlns:cc="http://creativecommons.org/ns#" xmlns:inkscape="http://www.inkscape.org/namespaces/inkscape" xmlns:svg="http://www.w3.org/2000/svg" xmlns:serif="http://www.serif.com/" xmlns:sodipodi="http://sodipodi.sourceforge.net/DTD/sodipodi-0.dtd" xmlns:rdf="http://www.w3.org/1999/02/22-rdf-syntax-ns#" xmlns:dc="http://purl.org/dc/elements/1.1/"
	 xmlns="http://www.w3.org/2000/svg" xmlns:xlink="http://www.w3.org/1999/xlink" x="0px" y="0px" width="300px" height="300px"
	 viewBox="-11.412 -110.131 300 300" enable-background="new -11.412 -110.131 300 300" xml:space="preserve">
<sodipodi:namedview  units="px" inkscape:document-units="px" inkscape:window-width="1920" fit-margin-right="0.5" inkscape:window-maximized="1" inkscape:window-height="1001" inkscape:pageshadow="2" inkscape:pageopacity="0" inkscape:window-y="-9" inkscape:window-x="-9" inkscape:current-layer="layer1" fit-margin-bottom="0.5" fit-margin-left="0.5" inkscape:cx="132.00376" inkscape:zoom="3.959798" fit-margin-top="0.5" pagecolor="#00ffff" inkscape:cy="37.772239" showgrid="false" borderopacity="1.0" bordercolor="#666666" id="base">
	</sodipodi:namedview>
<path id="path10" inkscape:connector-curvature="0" fill="#231F20" d="M237.385,16.625h9.426l3.098-14.589h17.992l-3.109,14.589
	h11.886l-2.528,11.871H262.27l-3.936,18.501c-0.88,4.158,0.013,4.744,4.852,4.744c2.2,0,4.008-0.082,6.404-0.164l-2.384,11.198
	c-3.757,0.506-8.583,0.849-13.847,0.849c-11.709,0-15.935-2.879-13.822-12.811l4.752-22.318h-9.424L237.385,16.625z"/>
<path id="path14" inkscape:connector-curvature="0" fill="#231F20" d="M212.961,16.625h17.984l-9.771,45.986H203.19L212.961,16.625z
	"/>
<path id="path18" inkscape:connector-curvature="0" fill="#231F20" d="M216.386,0.5h17.987l-2.311,10.861h-17.986L216.386,0.5z"/>
<path id="path22" inkscape:connector-curvature="0" fill="#231F20" d="M165.315,16.625l-9.777,45.986h17.501l9.778-45.987
	L165.315,16.625z"/>
<path id="path26" inkscape:connector-curvature="0" fill="#231F20" d="M203.518,14.581c-8.031,0-20.814,7.912-24.185,22
	l-0.865,3.174h0.302c2.555-6.114,8.955-9.387,17.578-9.387c2.323,0,4.965,0.318,7.09,0.796l3.496-16.421
	C205.79,14.641,204.595,14.581,203.518,14.581"/>
<path id="path30" inkscape:connector-curvature="0" fill="#231F20" d="M139.927,16.625h17.981l-9.771,45.986h-17.985L139.927,16.625
	z"/>
<path id="path34" inkscape:connector-curvature="0" fill="#231F20" d="M143.348,0.5h17.988l-2.305,10.861h-17.989L143.348,0.5z"/>
<path id="path38" inkscape:connector-curvature="0" fill="#231F20" d="M95.468,51.406c8.236,0,13.597-4.072,15.215-11.705
	c1.624-7.646-2.006-11.709-10.232-11.709c-8.401,0-13.788,4.576-15.3,11.709C83.635,46.828,87.07,51.406,95.468,51.406
	 M72.065,16.625h17.476l-1.294,6.106h0.168c4.812-4.667,11.734-7.295,19.032-7.295c16.289,0,24.98,8.987,21.59,24.94
	c-2.833,13.322-14.97,24.09-31.848,24.09c-7.975,0-13.52-2.629-15.859-6.019h-0.167l-4.425,20.789H58.756L72.065,16.625z"/>
<path id="path42" inkscape:connector-curvature="0" fill="#231F20" d="M21.628,48.272c-0.103,1.694,0.287,3.052,1.715,3.907
	c1.416,0.934,3.768,1.434,7.671,1.434c3.986,0,8.392-0.762,9.096-4.07c0.522-2.459-1.118-3.142-5.419-3.648l-15.627-1.951
	C8.82,42.669,4.267,38.938,5.931,31.129c2.643-12.468,14.167-16.37,31.389-16.37c12.219,0,27.189,2.201,25.432,15.267H42.564
	c0.243-1.951-0.762-3.22-2.398-3.902c-1.62-0.757-3.938-1.019-6.233-1.019c-5.175,0-8.479,1.189-9.149,4.329
	c-0.305,1.444,0.613,2.713,5.085,3.225l15.167,1.695c12.096,1.359,17.392,5.176,15.484,14.168
	C58.21,59.38,46.78,64.464,27.692,64.464c-12.731,0-29.471-2.279-26.935-16.192H21.628z"/>
</svg>
