<svg enable-background="new 142.712 -2.593 110 110" height="110" viewBox="142.712 -2.593 110 110" width="110" xmlns="http://www.w3.org/2000/svg"><path d="m193.116 41.154c-.083.115-.153.179-.331.217l-47.34 9.518c-.682.146-.701.887-.02 1.065l37.566 9.734c.224.058.332.039.511-.127l18.098-19.622c.522-.498 1.173-.02.86.625l-29.432 60.92c-.32.677.504 1.161.938.549l28.067-39.493c.103-.141.159-.179.331-.217l47.607-9.881c.689-.147.708-.887.025-1.065l-37.334-9.677c-.408-.108-.473-.351-.39-.664l10.423-41.789c.173-.695-.555-1.033-.969-.446z" fill="#073fb5"/></svg>