<svg enable-background="new 0 0 115 115" height="115" viewBox="0 0 115 115" width="115" xmlns="http://www.w3.org/2000/svg" xmlns:xlink="http://www.w3.org/1999/xlink"><clipPath id="a"><path d="m16.471 4.462c-1.473 3.497-4.356 14.417-4.417 28.468v.92c.122 23.986 8.526 56.626 45.397 76.749 59.205-32.332 45.094-96.689 40.985-106.198h-81.965z"/></clipPath><path d="m57.514 110.599c59.203-32.332 45.092-96.689 40.982-106.198h-82.025c-4.05 9.572-18.159 73.925 41.043 106.198" fill="#ad002c"/><g fill="#fff"><path d="m35.06 12.807v1.288c.858-.676 2.086-1.228 3.066-1.411-.552 2.454-1.718 3.066-3.006 3.252l-.062 2.023c1.043-.857 2.638-2.023 3.864-2.271-.675 3.066-2.209 4.231-3.804 4.479v2.024c1.288-.859 3.374-2.331 4.908-2.577-.859 3.129-2.822 4.355-4.908 4.54v1.841c1.288-.858 3.374-2.209 4.908-2.454-.859 3.006-2.883 4.848-4.908 5.153v1.595c1.288-.857 3.374-2.208 4.908-2.454-.797 3.19-2.822 4.848-4.908 5.031v1.288c1.595-.92 4.172-2.576 6.012-2.822-1.043 3.374-3.497 5.276-6.012 5.46v1.474c.859-.676 2.638-1.411 3.62-1.596-.491 2.331-2.393 3.129-3.62 3.438v2.761c.308 0 .552-.063.859-.123-.063-.98.491-1.9 1.718-2.699.061.736-.368 1.779-.614 2.517.675-.122 1.351-.308 1.963-.613-.367-1.41.123-3.313 1.719-4.907.307 1.043 0 2.822-.123 3.987.675-.431 1.41-.92 2.086-1.474-.736-1.288-.614-3.374.858-5.397.43.98.43 2.944.491 4.109.613-.612 1.228-1.351 1.84-2.146-1.043-1.288-1.104-2.516.185-5.03.43.981.858 2.518.858 3.683.553-.676.92-1.288 1.411-2.146-.246-.613-.123-1.104.185-1.534.429-.552 1.166-1.104 1.778-.675.859.368.43 1.351.123 2.024-.246.49-.614.798-1.227.798-.431.797-1.043 1.655-1.596 2.331 1.289.367 2.147.675 3.007 1.532-1.842.799-2.945.613-3.865-.185-.613.798-1.472 1.656-2.086 2.331 1.227.368 2.023.736 3.006 1.718-2.024.859-3.497.554-4.417-.367-.675.613-1.35 1.229-2.085 1.656 1.227.613 2.085 1.288 2.761 2.271-2.332.552-3.804-.123-4.479-1.411-.676.307-1.351.491-2.024.612.675.554 1.104.98 1.411 1.719-1.595-.063-2.454-.43-2.699-1.411-.307 0-.614.246-.981.246v3.066l-1.964-.858v-2.271c-.184 0-.675-.186-.858-.186-.308.921-.982 1.289-2.517 1.289.308-.736.491-1.289 1.289-1.657-.675-.184-1.35-.489-2.023-.857-.614 1.411-1.963 2.023-4.417 1.474.735-.98 1.595-1.902 2.822-2.332-.614-.367-1.228-.797-1.841-1.351-.858.981-2.393 1.351-4.479.49.859-.857 1.718-1.533 3.006-1.778-.675-.612-1.227-1.41-1.84-2.209-.92.799-2.332 1.104-4.233.309.859-.858 1.841-1.779 3.067-1.779-.368-.553-.675-1.166-1.104-1.778-.43 0-.735 0-1.166-.553-.43-.553-.858-1.841-.123-2.209.431-.367 1.534.186 1.902.858.307.614.185.921.063 1.351.367.613.797 1.165 1.166 1.719-.245-1.719.245-3.129.675-4.11 1.534 2.146 1.227 3.927.368 5.275.613.799 1.166 1.351 1.778 2.023-.184-1.227-.062-3.006.43-3.986 1.41 1.963 1.595 3.986.981 5.275.613.49 1.166.98 1.718 1.351-.307-1.104-.49-3.008-.184-4.051 1.595 1.657 2.086 3.497 1.718 4.908.675.308 1.351.613 2.024.736-.308-.676-.613-1.779-.613-2.518 1.228.799 1.534 1.657 1.472 2.577.185 0 .676.245.859.245l-.062-2.699c-1.166-.307-3.007-.979-3.559-3.313 1.104.244 2.517.552 3.559 1.472v-1.411c-2.394-.184-4.847-1.9-6.013-5.337 2.086.368 4.11 1.351 6.013 2.639v-1.288c-2.086-.186-4.11-2.086-4.97-4.848 1.719.308 3.375 1.104 4.97 2.271v-1.596c-1.964-.245-3.987-1.9-4.97-4.971 1.719.309 3.375 1.104 4.97 2.209v-1.778c-2.024-.122-3.927-1.288-4.97-4.417 1.719.308 3.375 1.228 4.97 2.394v-1.963c-1.596-.187-3.129-1.166-3.927-4.295 1.411.307 2.639.921 3.927 2.086v-2.024c-1.228-.245-2.394-.735-3.007-3.129.859.186 1.841.245 3.007 1.229v-1.231c-.921-1.411-.736-2.023-.613-3.066.123-.98.491-1.719 1.534-1.778 1.104.062 1.473.798 1.533 1.778.246 1.099.431 1.714-.489 3.125"/><path d="m80.029 22.93-2.086-.492-1.102-.614-.185.245 1.166.615 1.105 1.778-.062-1.288z"/><path d="m80.768 38.082c.612-7.792 1.778-9.878 3.682-11.473l.308-.245-.798-5.153-.676.122c-.858.123-1.655.798-2.33 1.534v-3.805l-5.769-3.437v2.883c-.43-.429-.858-.733-.981-.856-.612-.431-1.104-.613-1.655-.613-.308 0-.612.063-.856.122-.432.123-.676.186-1.289-.062-2.639-.554-4.663.062-5.769 1.655-1.043 1.473-1.228 3.805-.431 6.013.491 1.41 1.411 3.066 2.699 4.848.553.735 5.154 5.583 6.137 6.626.675.675 1.41 1.35 2.146 2.023v1.778l-1.165-.798-1.533 3.56.49.308c1.043.675 2.208 2.516 2.943 12.209-2.762 1.165-6.317 4.417-6.44 7.792-.063 1.594.735 3.863 4.724 5.396.799.309 1.597.613 2.395.98.063 1.842.123 3.805.123 5.951-.799.368-2.087 1.165-2.395 2.331-.244 1.044.431 2.087 1.901 3.007.185.123.368.184.554.246v1.84c-.613.307-.981.553-1.474 1.104-.245.307-.489.611-.368.92.063.063.186.244.491.244.185 0 .489-.061 1.043-.307.122-.062.244-.123.367-.123.308.676.92 1.166 1.655 1.166.799 0 1.412-.49 1.596-1.289v-.059-.06c0-.246 0-.491 0-.8.554-.366.859-.92.922-1.655.061-.798-.309-1.532-.922-2.086 0-.857 0-1.718 0-2.576 2.576-.612 5.152-2.271 5.46-4.479.187-1.35-.552-3.373-4.97-5.152-.185-.063-.307-.122-.49-.186 0-3.682 0-7.055 0-10.062 4.54-2.332 7.607-4.479 8.037-7.361.489-3.124-2.025-6.684-7.362-12.021m2.086-15.152.43 2.943c-1.901 1.718-3.066 3.927-3.742 11.043-.92-.92-1.9-1.841-3.006-2.822v-11.532c.123-.063.246-.123.308-.186l.798.431 1.104 1.778.369-.123-.063-1.104.612-.122v1.718l1.229.308c.302-.677 1.163-1.843 1.961-2.332m-3.192-3.13v2.884l-1.596-.43-.857-.43c.121-.554-.246-1.166-.676-1.841v-2.024zm-5.766 11.901c-7.116-6.441-7.423-9.388-6.934-10.552.554-1.352 2.332-1.411 2.698-1.352.246.063.246.122.31.368.121.43.307 1.165 1.654 1.596 1.533.49 2.699.798 3.56.858v10.185c-.368-.305-.796-.735-1.288-1.103m-.797 31.412c-.122-.922.858-2.086 3.129-3.806.123 1.963.185 4.11.308 6.563-1.966-.917-3.314-1.837-3.437-2.757m5.766 15.889c-.246-.123-.492-.307-.676-.489-.063-3.13-.123-5.951-.186-8.526.308.121.554.243.798.366.004 2.698.004 5.583.064 8.649m-.613 5.215c0-.98 0-1.963 0-2.883.308.062.49.185.675.367v2.576c-.122.245-.49.308-.675-.06m4.171-11.227c0 .307-.367.857-2.271 1.473 0-1.166 0-2.332 0-3.498 1.351.736 2.271 1.412 2.271 2.025m-4.539-6.504c-.675-20.308-2.209-23.189-3.683-24.294l.431-1.043 1.901 1.287v-3.066c.246.185.43.43.676.613.675.612 1.351 1.166 1.963 1.778-.307 5.768-.43 13.805-.43 25.152-.246-.182-.553-.304-.858-.427m6.381-16.993c-.245 1.472-1.597 2.761-4.11 3.926.063-4.109.123-7.606.246-10.489 2.453 2.33 4.169 4.599 3.864 6.563"/></g><path d="m72.115 20.045c-.121-.062-.244-.062-.367-.062-.185 0-.368.062-.49.244-.123.246 0 .613.309.799.122.062.244.123.367.123.184 0 .367-.123.489-.245.183-.368 0-.675-.308-.859" fill="#ad002c"/><path d="m73.281 18.021c-.123-.123-.307-.186-.49-.186-.123 0-.245.063-.307.123-.063.062-.123.186-.123.368s.123.368.245.491c.123.121.308.184.49.184.123 0 .245-.063.367-.123.063-.061.123-.245.123-.368-.059-.183-.12-.365-.305-.489" fill="#ad002c"/><g fill="#fff"><path d="m46.165 68.449v-9.631h-17.118v17.115h5.276v9.633h17.117v-17.117zm-5.093-7.484h2.822v7.18h-2.822zm2.884 17.117h-2.208v-2.209h2.208zm-12.393-17.117h7.178v2.822h-7.178zm2.761 12.763h-2.822v-7.179h2.822zm2.147-7.488h2.146v2.209h-2.146zm.244 4.664h7.179v2.821h-7.179zm2.885 12.147h-2.822v-7.178h2.822zm9.264-.061h-7.178v-2.822h7.178zm.06-4.969h-2.821v-7.179h2.821z"/><path clip-path="url(#a)" d="m58.373 111.887h-1.78v-60.676h-44.049v-1.778h44.049v-45.523h1.78z"/></g></svg>