<?xml version="1.0" encoding="utf-8"?>
<!-- Generator: Adobe Illustrator 16.0.0, SVG Export Plug-In . SVG Version: 6.00 Build 0)  -->
<!DOCTYPE svg PUBLIC "-//W3C//DTD SVG 1.1//EN" "http://www.w3.org/Graphics/SVG/1.1/DTD/svg11.dtd">
<svg version="1.1" id="layer" xmlns="http://www.w3.org/2000/svg" xmlns:xlink="http://www.w3.org/1999/xlink" x="0px" y="0px"
	 width="115px" height="115px" viewBox="0 0 115 115" enable-background="new 0 0 115 115" xml:space="preserve">
<g>
	<path fill="#AD002C" d="M57.514,110.599C116.717,78.267,102.606,13.91,98.496,4.401H16.471
		C12.421,13.973-1.688,78.326,57.514,110.599"/>
	<g>
		<path fill="#FFFFFF" d="M35.06,12.807v1.288c0.858-0.676,2.086-1.228,3.066-1.411c-0.552,2.454-1.718,3.066-3.006,3.252
			l-0.062,2.023c1.043-0.857,2.638-2.023,3.864-2.271c-0.675,3.066-2.209,4.231-3.804,4.479v2.024
			c1.288-0.859,3.374-2.331,4.908-2.577c-0.859,3.129-2.822,4.355-4.908,4.54v1.841c1.288-0.858,3.374-2.209,4.908-2.454
			c-0.859,3.006-2.883,4.848-4.908,5.153v1.595c1.288-0.857,3.374-2.208,4.908-2.454c-0.797,3.19-2.822,4.848-4.908,5.031v1.288
			c1.595-0.92,4.172-2.576,6.012-2.822c-1.043,3.374-3.497,5.276-6.012,5.46v1.474c0.859-0.676,2.638-1.411,3.62-1.596
			c-0.491,2.331-2.393,3.129-3.62,3.438v2.761c0.308,0,0.552-0.063,0.859-0.123c-0.063-0.98,0.491-1.9,1.718-2.699
			c0.061,0.736-0.368,1.779-0.614,2.517c0.675-0.122,1.351-0.308,1.963-0.613c-0.367-1.41,0.123-3.313,1.719-4.907
			c0.307,1.043,0,2.822-0.123,3.987c0.675-0.431,1.41-0.92,2.086-1.474c-0.736-1.288-0.614-3.374,0.858-5.397
			c0.43,0.98,0.43,2.944,0.491,4.109c0.613-0.612,1.228-1.351,1.84-2.146c-1.043-1.288-1.104-2.516,0.185-5.03
			c0.43,0.981,0.858,2.518,0.858,3.683c0.553-0.676,0.92-1.288,1.411-2.146c-0.246-0.613-0.123-1.104,0.185-1.534
			c0.429-0.552,1.166-1.104,1.778-0.675c0.859,0.368,0.43,1.351,0.123,2.024c-0.246,0.49-0.614,0.798-1.227,0.798
			c-0.431,0.797-1.043,1.655-1.596,2.331c1.289,0.367,2.147,0.675,3.007,1.532c-1.842,0.799-2.945,0.613-3.865-0.185
			c-0.613,0.798-1.472,1.656-2.086,2.331c1.227,0.368,2.023,0.736,3.006,1.718c-2.024,0.859-3.497,0.554-4.417-0.367
			c-0.675,0.613-1.35,1.229-2.085,1.656c1.227,0.613,2.085,1.288,2.761,2.271c-2.332,0.552-3.804-0.123-4.479-1.411
			c-0.676,0.307-1.351,0.491-2.024,0.612c0.675,0.554,1.104,0.98,1.411,1.719c-1.595-0.063-2.454-0.43-2.699-1.411
			c-0.307,0-0.614,0.246-0.981,0.246v3.066l-1.964-0.858v-2.271c-0.184,0-0.675-0.186-0.858-0.186
			c-0.308,0.921-0.982,1.289-2.517,1.289c0.308-0.736,0.491-1.289,1.289-1.657c-0.675-0.184-1.35-0.489-2.023-0.857
			c-0.614,1.411-1.963,2.023-4.417,1.474c0.735-0.98,1.595-1.902,2.822-2.332c-0.614-0.367-1.228-0.797-1.841-1.351
			c-0.858,0.981-2.393,1.351-4.479,0.49c0.859-0.857,1.718-1.533,3.006-1.778c-0.675-0.612-1.227-1.41-1.84-2.209
			c-0.92,0.799-2.332,1.104-4.233,0.309c0.859-0.858,1.841-1.779,3.067-1.779c-0.368-0.553-0.675-1.166-1.104-1.778
			c-0.43,0-0.735,0-1.166-0.553c-0.43-0.553-0.858-1.841-0.123-2.209c0.431-0.367,1.534,0.186,1.902,0.858
			c0.307,0.614,0.185,0.921,0.063,1.351c0.367,0.613,0.797,1.165,1.166,1.719c-0.245-1.719,0.245-3.129,0.675-4.11
			c1.534,2.146,1.227,3.927,0.368,5.275c0.613,0.799,1.166,1.351,1.778,2.023c-0.184-1.227-0.062-3.006,0.43-3.986
			c1.41,1.963,1.595,3.986,0.981,5.275c0.613,0.49,1.166,0.98,1.718,1.351c-0.307-1.104-0.49-3.008-0.184-4.051
			c1.595,1.657,2.086,3.497,1.718,4.908c0.675,0.308,1.351,0.613,2.024,0.736c-0.308-0.676-0.613-1.779-0.613-2.518
			c1.228,0.799,1.534,1.657,1.472,2.577c0.185,0,0.676,0.245,0.859,0.245l-0.062-2.699c-1.166-0.307-3.007-0.979-3.559-3.313
			c1.104,0.244,2.517,0.552,3.559,1.472v-1.411c-2.394-0.184-4.847-1.9-6.013-5.337c2.086,0.368,4.11,1.351,6.013,2.639v-1.288
			c-2.086-0.186-4.11-2.086-4.97-4.848c1.719,0.308,3.375,1.104,4.97,2.271v-1.596c-1.964-0.245-3.987-1.9-4.97-4.971
			c1.719,0.309,3.375,1.104,4.97,2.209v-1.778c-2.024-0.122-3.927-1.288-4.97-4.417c1.719,0.308,3.375,1.228,4.97,2.394v-1.963
			c-1.596-0.187-3.129-1.166-3.927-4.295c1.411,0.307,2.639,0.921,3.927,2.086v-2.024c-1.228-0.245-2.394-0.735-3.007-3.129
			c0.859,0.186,1.841,0.245,3.007,1.229v-1.231c-0.921-1.411-0.736-2.023-0.613-3.066c0.123-0.98,0.491-1.719,1.534-1.778
			c1.104,0.062,1.473,0.798,1.533,1.778C35.795,10.781,35.98,11.396,35.06,12.807"/>
		<polygon fill="#FFFFFF" points="80.029,22.93 77.943,22.438 76.841,21.824 76.656,22.069 77.822,22.684 78.927,24.462 
			78.865,23.174 		"/>
		<path fill="#FFFFFF" d="M80.768,38.082c0.612-7.792,1.778-9.878,3.682-11.473l0.308-0.245l-0.798-5.153l-0.676,0.122
			c-0.858,0.123-1.655,0.798-2.33,1.534v-3.805l-5.769-3.437v2.883c-0.43-0.429-0.858-0.733-0.981-0.856
			c-0.612-0.431-1.104-0.613-1.655-0.613c-0.308,0-0.612,0.063-0.856,0.122c-0.432,0.123-0.676,0.186-1.289-0.062
			c-2.639-0.554-4.663,0.062-5.769,1.655c-1.043,1.473-1.228,3.805-0.431,6.013c0.491,1.41,1.411,3.066,2.699,4.848
			c0.553,0.735,5.154,5.583,6.137,6.626c0.675,0.675,1.41,1.35,2.146,2.023v1.778l-1.165-0.798l-1.533,3.56l0.49,0.308
			c1.043,0.675,2.208,2.516,2.943,12.209c-2.762,1.165-6.317,4.417-6.44,7.792c-0.063,1.594,0.735,3.863,4.724,5.396
			c0.799,0.309,1.597,0.613,2.395,0.98c0.063,1.842,0.123,3.805,0.123,5.951c-0.799,0.368-2.087,1.165-2.395,2.331
			c-0.244,1.044,0.431,2.087,1.901,3.007c0.185,0.123,0.368,0.184,0.554,0.246c0,0.612,0,1.227,0,1.84
			c-0.613,0.307-0.981,0.553-1.474,1.104c-0.245,0.307-0.489,0.611-0.368,0.92c0.063,0.063,0.186,0.244,0.491,0.244
			c0.185,0,0.489-0.061,1.043-0.307c0.122-0.062,0.244-0.123,0.367-0.123c0.308,0.676,0.92,1.166,1.655,1.166
			c0.799,0,1.412-0.49,1.596-1.289v-0.059V84.46c0-0.246,0-0.491,0-0.8c0.554-0.366,0.859-0.92,0.922-1.655
			c0.061-0.798-0.309-1.532-0.922-2.086c0-0.857,0-1.718,0-2.576c2.576-0.612,5.152-2.271,5.46-4.479
			c0.187-1.35-0.552-3.373-4.97-5.152c-0.185-0.063-0.307-0.122-0.49-0.186c0-3.682,0-7.055,0-10.062
			c4.54-2.332,7.607-4.479,8.037-7.361C88.619,46.979,86.105,43.419,80.768,38.082 M82.854,22.93l0.43,2.943
			c-1.901,1.718-3.066,3.927-3.742,11.043c-0.92-0.92-1.9-1.841-3.006-2.822V22.562c0.123-0.063,0.246-0.123,0.308-0.186
			l0.798,0.431l1.104,1.778l0.369-0.123l-0.063-1.104l0.612-0.122v1.718l1.229,0.308C81.195,24.585,82.056,23.419,82.854,22.93
			 M79.662,19.8v2.884l-1.596-0.43l-0.857-0.43c0.121-0.554-0.246-1.166-0.676-1.841v-2.024L79.662,19.8z M73.896,31.701
			c-7.116-6.441-7.423-9.388-6.934-10.552c0.554-1.352,2.332-1.411,2.698-1.352c0.246,0.063,0.246,0.122,0.31,0.368
			c0.121,0.43,0.307,1.165,1.654,1.596c1.533,0.49,2.699,0.798,3.56,0.858v10.185C74.816,32.499,74.388,32.069,73.896,31.701
			 M73.099,63.113c-0.122-0.922,0.858-2.086,3.129-3.806c0.123,1.963,0.185,4.11,0.308,6.563
			C74.57,64.953,73.222,64.033,73.099,63.113 M78.865,79.002c-0.246-0.123-0.492-0.307-0.676-0.489
			c-0.063-3.13-0.123-5.951-0.186-8.526c0.308,0.121,0.554,0.243,0.798,0.366C78.805,73.051,78.805,75.936,78.865,79.002
			 M78.252,84.217c0-0.98,0-1.963,0-2.883c0.308,0.062,0.49,0.185,0.675,0.367c0,0.858,0,1.719,0,2.576
			C78.805,84.522,78.437,84.585,78.252,84.217 M82.423,72.99c0,0.307-0.367,0.857-2.271,1.473c0-1.166,0-2.332,0-3.498
			C81.503,71.701,82.423,72.377,82.423,72.99 M77.884,66.486c-0.675-20.308-2.209-23.189-3.683-24.294l0.431-1.043l1.901,1.287
			V39.37c0.246,0.185,0.43,0.43,0.676,0.613c0.675,0.612,1.351,1.166,1.963,1.778c-0.307,5.768-0.43,13.805-0.43,25.152
			C78.496,66.731,78.189,66.609,77.884,66.486 M84.265,49.493c-0.245,1.472-1.597,2.761-4.11,3.926
			c0.063-4.109,0.123-7.606,0.246-10.489C82.854,45.26,84.57,47.529,84.265,49.493"/>
		<path fill="#AD002C" d="M72.115,20.045c-0.121-0.062-0.244-0.062-0.367-0.062c-0.185,0-0.368,0.062-0.49,0.244
			c-0.123,0.246,0,0.613,0.309,0.799c0.122,0.062,0.244,0.123,0.367,0.123c0.184,0,0.367-0.123,0.489-0.245
			C72.606,20.536,72.423,20.229,72.115,20.045"/>
		<path fill="#AD002C" d="M73.281,18.021c-0.123-0.123-0.307-0.186-0.49-0.186c-0.123,0-0.245,0.063-0.307,0.123
			c-0.063,0.062-0.123,0.186-0.123,0.368c0,0.182,0.123,0.368,0.245,0.491c0.123,0.121,0.308,0.184,0.49,0.184
			c0.123,0,0.245-0.063,0.367-0.123c0.063-0.061,0.123-0.245,0.123-0.368C73.527,18.327,73.466,18.145,73.281,18.021"/>
		<path fill="#FFFFFF" d="M46.165,68.449v-9.631H29.047v17.115h5.276v9.633H51.44V68.449H46.165z M41.072,60.965h2.822v7.18h-2.822
			V60.965z M43.956,78.082h-2.208v-2.209h2.208V78.082z M31.563,60.965h7.178v2.822h-7.178V60.965z M34.324,73.728h-2.822v-7.179
			h2.822V73.728z M36.471,66.24h2.146v2.209h-2.146V66.24z M36.715,70.904h7.179v2.821h-7.179V70.904z M39.6,83.051h-2.822v-7.178
			H39.6V83.051z M48.864,82.99h-7.178v-2.822h7.178V82.99z M48.924,78.021h-2.821v-7.179h2.821V78.021z"/>
	</g>
	<g>
		<g>
			<g>
				<g>
					<defs>
						<path id="SVGID_1_" d="M16.471,4.462c-1.473,3.497-4.356,14.417-4.417,28.468v0.92c0.122,23.986,8.526,56.626,45.397,76.749
							C116.656,78.267,102.545,13.91,98.436,4.401H16.471V4.462L16.471,4.462z"/>
					</defs>
					<clipPath id="SVGID_2_">
						<use xlink:href="#SVGID_1_"  overflow="visible"/>
					</clipPath>
					<polygon clip-path="url(#SVGID_2_)" fill="#FFFFFF" points="58.373,111.887 56.593,111.887 56.593,51.211 12.544,51.211 
						12.544,49.433 56.593,49.433 56.593,3.91 58.373,3.91 					"/>
				</g>
			</g>
		</g>
	</g>
</g>
</svg>
