<?xml version="1.0" encoding="utf-8"?>
<!-- Generator: Adobe Illustrator 16.0.0, SVG Export Plug-In . SVG Version: 6.00 Build 0)  -->
<!DOCTYPE svg PUBLIC "-//W3C//DTD SVG 1.1//EN" "http://www.w3.org/Graphics/SVG/1.1/DTD/svg11.dtd">
<svg version="1.1" id="layer" xmlns="http://www.w3.org/2000/svg" xmlns:xlink="http://www.w3.org/1999/xlink" x="0px" y="0px"
	 width="115px" height="115px" viewBox="-12.054 -3.512 115 115" enable-background="new -12.054 -3.512 115 115"
	 xml:space="preserve">
<g>
	<path fill="#AD002C" d="M45.46,107.087C104.663,74.755,90.552,10.398,86.442,0.889H4.417C0.367,10.461-13.742,74.815,45.46,107.087
		"/>
	<g>
		<path fill="#FFFFFF" d="M23.006,9.295v1.288c0.858-0.676,2.086-1.228,3.066-1.411c-0.552,2.454-1.718,3.066-3.006,3.252
			l-0.062,2.023c1.043-0.857,2.638-2.023,3.864-2.27c-0.675,3.066-2.209,4.231-3.804,4.479v2.024
			c1.288-0.859,3.374-2.331,4.908-2.577c-0.859,3.129-2.822,4.356-4.908,4.54v1.841c1.288-0.858,3.374-2.209,4.908-2.454
			c-0.859,3.006-2.883,4.848-4.908,5.153v1.595c1.288-0.857,3.374-2.208,4.908-2.454c-0.797,3.19-2.822,4.848-4.908,5.031v1.288
			c1.595-0.92,4.172-2.576,6.012-2.822c-1.043,3.374-3.497,5.276-6.012,5.46v1.474c0.859-0.676,2.638-1.411,3.62-1.596
			c-0.491,2.331-2.393,3.129-3.62,3.437v2.761c0.308,0,0.552-0.062,0.859-0.123c-0.063-0.98,0.491-1.9,1.718-2.699
			c0.061,0.736-0.368,1.779-0.614,2.517c0.675-0.123,1.351-0.308,1.963-0.614c-0.367-1.41,0.123-3.313,1.719-4.907
			c0.307,1.043,0,2.822-0.123,3.987c0.675-0.43,1.41-0.92,2.086-1.473c-0.736-1.288-0.614-3.374,0.858-5.398
			c0.43,0.981,0.43,2.945,0.491,4.11c0.613-0.613,1.228-1.351,1.84-2.147c-1.043-1.288-1.104-2.515,0.185-5.03
			c0.43,0.981,0.858,2.517,0.858,3.682c0.553-0.675,0.92-1.288,1.411-2.146c-0.246-0.613-0.123-1.104,0.185-1.534
			c0.429-0.552,1.166-1.104,1.778-0.675c0.859,0.368,0.43,1.351,0.123,2.024c-0.246,0.491-0.614,0.798-1.227,0.798
			c-0.431,0.797-1.043,1.656-1.596,2.331c1.289,0.368,2.147,0.675,3.007,1.533c-1.842,0.798-2.945,0.613-3.865-0.185
			c-0.613,0.798-1.472,1.656-2.086,2.331c1.227,0.368,2.023,0.736,3.006,1.718c-2.024,0.859-3.497,0.554-4.417-0.367
			c-0.675,0.613-1.35,1.228-2.085,1.656c1.227,0.613,2.085,1.288,2.761,2.271c-2.332,0.552-3.804-0.123-4.479-1.411
			c-0.676,0.307-1.351,0.491-2.024,0.613c0.675,0.553,1.104,0.98,1.411,1.718c-1.595-0.062-2.454-0.429-2.699-1.411
			c-0.307,0-0.614,0.246-0.981,0.246v3.067l-1.964-0.859v-2.27c-0.184,0-0.675-0.186-0.858-0.186
			c-0.308,0.921-0.982,1.289-2.517,1.289c0.308-0.736,0.491-1.289,1.289-1.657c-0.675-0.184-1.35-0.489-2.023-0.857
			c-0.614,1.411-1.963,2.023-4.417,1.473c0.735-0.98,1.595-1.902,2.822-2.332c-0.614-0.367-1.228-0.797-1.841-1.35
			c-0.858,0.981-2.393,1.35-4.479,0.49c0.859-0.858,1.718-1.533,3.006-1.778c-0.675-0.613-1.227-1.411-1.84-2.209
			c-0.92,0.798-2.332,1.104-4.233,0.308c0.859-0.858,1.841-1.779,3.067-1.779c-0.368-0.553-0.675-1.166-1.104-1.778
			c-0.43,0-0.735,0-1.166-0.553c-0.43-0.553-0.858-1.841-0.123-2.209c0.431-0.367,1.534,0.185,1.902,0.858
			c0.307,0.614,0.185,0.921,0.063,1.351c0.367,0.613,0.797,1.165,1.166,1.719c-0.245-1.719,0.245-3.129,0.675-4.111
			c1.534,2.147,1.227,3.927,0.368,5.276c0.613,0.798,1.166,1.35,1.778,2.023c-0.184-1.227-0.062-3.006,0.43-3.986
			c1.41,1.963,1.595,3.986,0.981,5.275c0.613,0.49,1.166,0.981,1.718,1.351c-0.307-1.104-0.49-3.008-0.184-4.051
			c1.595,1.657,2.086,3.497,1.718,4.908c0.675,0.308,1.351,0.613,2.024,0.736c-0.308-0.675-0.613-1.779-0.613-2.517
			c1.228,0.799,1.534,1.657,1.472,2.577c0.185,0,0.676,0.245,0.859,0.245l-0.062-2.699c-1.166-0.307-3.007-0.98-3.559-3.313
			c1.104,0.245,2.517,0.552,3.559,1.472v-1.411c-2.394-0.184-4.847-1.9-6.013-5.337c2.086,0.368,4.11,1.351,6.013,2.639v-1.288
			c-2.086-0.186-4.11-2.086-4.97-4.848c1.719,0.308,3.375,1.104,4.97,2.271v-1.595c-1.964-0.245-3.987-1.901-4.97-4.971
			c1.719,0.309,3.375,1.104,4.97,2.209v-1.778c-2.024-0.122-3.927-1.288-4.97-4.417c1.719,0.307,3.375,1.227,4.97,2.393v-1.963
			c-1.596-0.186-3.129-1.166-3.927-4.295c1.411,0.307,2.639,0.921,3.927,2.086v-2.024c-1.228-0.245-2.394-0.735-3.007-3.129
			c0.859,0.186,1.841,0.245,3.007,1.229V9.235c-0.921-1.411-0.736-2.023-0.613-3.066c0.123-0.981,0.491-1.719,1.534-1.779
			c1.104,0.062,1.473,0.798,1.533,1.779C23.741,7.269,23.926,7.884,23.006,9.295"/>
		<polygon fill="#FFFFFF" points="67.975,19.418 65.889,18.926 64.786,18.312 64.601,18.557 65.767,19.172 66.872,20.95 
			66.81,19.662 		"/>
		<path fill="#FFFFFF" d="M68.713,34.57c0.612-7.792,1.778-9.878,3.682-11.473l0.307-0.245l-0.798-5.153l-0.675,0.122
			c-0.859,0.123-1.656,0.798-2.331,1.534v-3.804l-5.768-3.437v2.883c-0.43-0.429-0.858-0.734-0.981-0.857
			c-0.613-0.43-1.104-0.613-1.656-0.613c-0.307,0-0.612,0.063-0.857,0.122c-0.431,0.123-0.675,0.186-1.289-0.061
			c-2.638-0.554-4.662,0.061-5.768,1.655c-1.043,1.473-1.227,3.805-0.43,6.013c0.491,1.41,1.411,3.066,2.699,4.847
			c0.553,0.736,5.154,5.583,6.136,6.626c0.675,0.675,1.411,1.35,2.146,2.024v1.778l-1.165-0.798l-1.534,3.56l0.491,0.307
			c1.043,0.675,2.208,2.516,2.943,12.209c-2.761,1.165-6.317,4.417-6.44,7.792c-0.063,1.594,0.735,3.864,4.724,5.397
			c0.798,0.308,1.596,0.613,2.394,0.981c0.062,1.841,0.123,3.804,0.123,5.95c-0.799,0.369-2.087,1.166-2.394,2.332
			c-0.245,1.043,0.43,2.086,1.901,3.006c0.185,0.123,0.368,0.184,0.553,0.246c0,0.613,0,1.227,0,1.84
			c-0.613,0.307-0.981,0.553-1.473,1.104c-0.245,0.307-0.49,0.612-0.368,0.92c0.062,0.062,0.185,0.244,0.491,0.244
			c0.184,0,0.489-0.061,1.043-0.307c0.122-0.061,0.244-0.123,0.367-0.123c0.308,0.676,0.92,1.166,1.656,1.166
			c0.798,0,1.411-0.49,1.595-1.288V81.01v-0.062c0-0.246,0-0.491,0-0.799c0.554-0.367,0.859-0.92,0.922-1.656
			c0.061-0.797-0.309-1.532-0.922-2.086c0-0.857,0-1.717,0-2.576c2.577-0.612,5.153-2.27,5.46-4.479
			c0.186-1.35-0.552-3.374-4.969-5.153c-0.185-0.062-0.307-0.122-0.491-0.185c0-3.682,0-7.055,0-10.062
			c4.54-2.332,7.607-4.479,8.037-7.361C76.564,43.467,74.051,39.907,68.713,34.57 M70.799,19.418l0.43,2.943
			c-1.902,1.718-3.067,3.927-3.742,11.043c-0.921-0.92-1.901-1.841-3.006-2.822V19.05c0.122-0.063,0.245-0.123,0.307-0.186
			l0.798,0.431l1.104,1.778l0.368-0.123l-0.063-1.104l0.613-0.122v1.718l1.229,0.308C69.141,21.073,70.001,19.907,70.799,19.418
			 M67.607,16.288v2.884l-1.595-0.43l-0.858-0.43c0.122-0.553-0.246-1.166-0.675-1.841v-2.024L67.607,16.288z M61.842,28.189
			c-7.116-6.441-7.423-9.387-6.934-10.552c0.554-1.351,2.332-1.411,2.699-1.351c0.246,0.063,0.246,0.122,0.309,0.368
			c0.121,0.43,0.307,1.165,1.655,1.596c1.533,0.49,2.699,0.798,3.559,0.858v10.185C62.761,28.987,62.333,28.557,61.842,28.189
			 M61.044,59.601c-0.122-0.921,0.858-2.086,3.129-3.805c0.123,1.963,0.185,4.11,0.308,6.563
			C62.515,61.441,61.167,60.521,61.044,59.601 M66.81,75.49c-0.246-0.123-0.491-0.307-0.675-0.489
			c-0.063-3.13-0.123-5.951-0.186-8.527c0.308,0.122,0.554,0.244,0.798,0.367C66.75,69.539,66.75,72.424,66.81,75.49 M66.197,80.705
			c0-0.98,0-1.963,0-2.883c0.308,0.062,0.49,0.185,0.675,0.367c0,0.859,0,1.719,0,2.577C66.75,81.011,66.382,81.073,66.197,80.705
			 M70.368,69.478c0,0.307-0.367,0.858-2.27,1.473c0-1.166,0-2.332,0-3.498C69.448,68.189,70.368,68.865,70.368,69.478
			 M65.829,62.974c-0.675-20.307-2.209-23.189-3.682-24.294l0.43-1.043l1.902,1.288v-3.067c0.245,0.185,0.429,0.43,0.675,0.613
			c0.675,0.613,1.351,1.166,1.963,1.779c-0.307,5.767-0.43,13.804-0.43,25.152C66.442,63.22,66.135,63.097,65.829,62.974
			 M72.21,45.981c-0.245,1.472-1.596,2.761-4.11,3.926c0.062-4.109,0.123-7.606,0.245-10.489
			C70.799,41.748,72.515,44.017,72.21,45.981"/>
		<path fill="#AD002C" d="M60.061,16.533c-0.122-0.062-0.245-0.062-0.368-0.062c-0.184,0-0.368,0.062-0.49,0.245
			c-0.123,0.246,0,0.613,0.308,0.798c0.123,0.062,0.245,0.123,0.368,0.123c0.184,0,0.367-0.123,0.489-0.245
			C60.552,17.024,60.368,16.717,60.061,16.533"/>
		<path fill="#AD002C" d="M61.227,14.509c-0.123-0.123-0.307-0.186-0.491-0.186c-0.122,0-0.245,0.063-0.307,0.123
			c-0.063,0.062-0.122,0.186-0.122,0.368s0.122,0.368,0.245,0.491c0.123,0.122,0.307,0.184,0.49,0.184
			c0.123,0,0.245-0.062,0.367-0.123c0.063-0.061,0.123-0.245,0.123-0.368C61.472,14.815,61.411,14.633,61.227,14.509"/>
		<path fill="#FFFFFF" d="M34.111,64.938v-9.632H16.993v17.116h5.276v9.632h17.117V64.938H34.111z M29.018,57.453h2.822v7.18h-2.822
			V57.453z M31.902,74.57h-2.208v-2.209h2.208V74.57z M19.509,57.453h7.178v2.822h-7.178V57.453z M22.27,70.216h-2.822v-7.179h2.822
			V70.216z M24.417,62.729h2.146v2.209h-2.146V62.729z M24.661,67.392h7.179v2.822h-7.179V67.392z M27.546,79.539h-2.822v-7.178
			h2.822V79.539z M36.81,79.478h-7.178v-2.822h7.178V79.478z M36.87,74.509h-2.821V67.33h2.821V74.509z"/>
	</g>
	<g>
		<g>
			<g>
				<defs>
					<path id="SVGID_1_" d="M4.417,0.95C2.944,4.447,0.061,15.367,0,29.418v0.92c0.122,23.986,8.526,56.626,45.397,76.749
						C104.601,74.755,90.49,10.398,86.381,0.889H4.417V0.95L4.417,0.95z"/>
				</defs>
				<clipPath id="SVGID_2_">
					<use xlink:href="#SVGID_1_"  overflow="visible"/>
				</clipPath>
				<polygon clip-path="url(#SVGID_2_)" fill="#FFFFFF" points="46.319,108.375 44.539,108.375 44.539,47.699 0.49,47.699 
					0.49,45.921 44.539,45.921 44.539,0.398 46.319,0.398 				"/>
			</g>
		</g>
	</g>
</g>
</svg>
