<?xml version="1.0" encoding="utf-8"?>
<!-- Generator: Adobe Illustrator 16.0.0, SVG Export Plug-In . SVG Version: 6.00 Build 0)  -->
<!DOCTYPE svg PUBLIC "-//W3C//DTD SVG 1.1//EN" "http://www.w3.org/Graphics/SVG/1.1/DTD/svg11.dtd">
<svg version="1.1" id="Layer_1" xmlns="http://www.w3.org/2000/svg" xmlns:xlink="http://www.w3.org/1999/xlink" x="0px" y="0px"
	 width="330px" height="330px" viewBox="35 35 330 330" enable-background="new 35 35 330 330" xml:space="preserve">
<g>
	<path d="M61.996,190.121c-1.411-1.21-3.227-1.613-5.242-1.613c-2.017,0-3.831,1.412-3.831,3.024c0,1.008,0.605,1.613,2.218,2.218
		l2.621,0.807c3.024,1.008,4.638,2.621,4.638,5.242c0,5.04-4.234,9.274-11.291,9.274c-3.226,0-5.645-0.807-7.661-2.016l2.42-3.629
		c2.016,1.209,3.629,1.814,6.048,1.814c3.024,0,4.839-1.613,4.839-3.832c0-1.208-0.807-2.015-2.419-2.418l-2.42-0.806
		c-2.621-0.807-4.233-2.218-4.233-4.839c0-4.637,4.436-8.468,9.879-8.468c2.822,0,5.645,0.807,7.258,2.419L61.996,190.121z"/>
	<path d="M74.496,194.557h-3.024l-1.814,8.668c-0.202,0.605-0.202,1.01-0.202,1.412c0,1.008,0.403,1.209,1.412,1.209
		c0.402,0,1.209-0.201,1.612-0.402v2.621c-1.21,0.402-2.621,0.807-3.83,0.807c-2.621,0-4.032-1.211-4.032-3.025
		c0-0.604,0-1.41,0.201-2.217l2.017-9.274h-1.412l0.605-3.024h1.612c0.403-1.613,0.605-2.823,1.009-4.032l4.637-1.209
		c-0.403,1.613-1.008,3.427-1.411,5.242h4.032L74.496,194.557z"/>
	<path d="M90.625,196.573l-1.411,6.451c-0.403,1.412-0.202,2.42,0.604,3.428l-3.629,2.822c-0.807-0.604-1.21-1.41-1.21-2.016
		c-1.21,1.412-2.621,2.016-4.637,2.016c-3.024,0-4.638-1.814-4.638-5.443c0-4.032,1.613-7.661,3.63-9.878
		c1.814-1.814,4.032-2.621,6.854-2.621c2.016,0,4.233,0.403,5.646,1.21C91.432,193.347,90.826,195.161,90.625,196.573
		 M85.383,194.557c-1.008,0-2.016,0-3.226,1.411c-1.411,1.613-2.017,5.04-2.017,7.257c0,1.613,0.403,2.219,1.411,2.219
		c1.412,0,2.823-1.412,3.227-2.621l1.814-8.064C86.391,194.758,85.786,194.557,85.383,194.557"/>
	<path d="M99.496,190.927c0.201,0.605,0.403,2.016,0.403,2.823c1.411-1.613,3.226-2.621,5.847-2.621c2.218,0,3.427,1.21,3.427,3.428
		c0,0.806,0,1.613-0.201,2.419l-2.42,11.694h-4.435l2.419-11.089c0.201-0.605,0.201-1.209,0.201-1.613
		c0-0.807-0.402-1.008-1.209-1.008c-1.009,0-2.42,0.605-3.831,2.621l-2.419,11.089h-4.436l2.419-11.493
		c0.403-1.814,0.403-3.427,0-4.436L99.496,190.927z"/>
	<path d="M119.052,188.911l-2.62,12.702c-0.403,2.016-0.605,2.822-0.605,3.225c0,0.605,0.202,1.008,0.807,1.008
		c0.202,0,0.403,0,0.403,0l0.201,2.621c-0.806,0.203-1.814,0.404-2.822,0.404c-2.419,0-3.629-1.211-3.629-3.025
		c0-0.604,0.201-1.814,0.403-3.023l2.621-12.701c0.403-2.218,0.807-3.831,0.403-5.041l4.838-1.411
		C119.657,184.476,119.657,186.895,119.052,188.911"/>
	<path d="M133.568,206.652c-2.218,1.613-4.637,2.42-7.057,2.42c-4.032,0-6.451-2.217-6.451-6.25c0-3.629,1.612-7.258,3.83-9.476
		c1.613-1.613,3.629-2.218,5.847-2.218c3.428,0,5.848,1.412,5.848,4.637s-3.024,5.847-8.67,5.847c-1.21,0-2.016-0.203-2.016-0.203
		s-0.202,1.01-0.202,1.613c0,2.018,1.008,2.822,2.822,2.822c1.613,0,3.227-0.604,4.839-1.814L133.568,206.652z M126.915,198.589
		c2.017,0,4.234-0.605,4.234-2.419c0-1.008-0.403-1.814-1.814-1.814c-1.613,0-3.024,1.008-3.63,4.032
		C125.705,198.387,126.311,198.589,126.915,198.589"/>
	<path d="M142.439,191.129l0.807,10.08c0,1.008,0.201,3.629,0.201,3.629s1.21-3.023,2.218-5.04l4.234-8.064h4.838l-9.879,17.338
		c-1.814,3.227-3.023,4.838-4.436,5.645c-1.209,0.807-2.822,1.412-4.436,1.613l-0.806-3.023c1.008-0.201,2.218-0.605,3.023-1.008
		c1.412-0.807,1.814-1.613,3.024-3.428h-1.21c0-1.211-0.201-3.428-0.402-4.84l-1.613-12.096L142.439,191.129z"/>
	<path d="M167.237,185.282c3.428,0,6.049,1.613,6.049,5.041c0,2.218-1.411,4.838-4.839,5.847c2.218,0.403,3.428,2.419,3.428,4.436
		c0,1.41-0.605,3.83-2.218,5.443c-1.613,1.814-3.629,2.418-7.258,2.418h-8.468l5.04-23.185H167.237z M159.375,204.838h3.024
		c1.008,0,1.814-0.201,2.419-0.604c1.008-0.605,1.814-2.219,1.814-3.428c0-1.613-0.807-2.218-3.024-2.218h-2.822L159.375,204.838z
		 M161.593,194.557h2.822c1.21,0,1.814-0.202,2.42-0.605c0.806-0.605,1.411-1.411,1.411-2.621c0-1.411-0.605-2.016-2.621-2.016
		h-2.823L161.593,194.557z"/>
	<path d="M182.561,188.911l-2.823,12.702c-0.402,2.016-0.604,2.822-0.604,3.225c0,0.605,0.201,1.008,0.807,1.008
		c0.201,0,0.403,0,0.403,0l0.201,2.621c-0.807,0.203-1.814,0.404-2.822,0.404c-2.42,0-3.629-1.211-3.629-3.025
		c0-0.604,0.201-1.814,0.403-3.023l2.621-12.701c0.402-2.218,0.806-3.831,0.402-5.041l4.839-1.411
		C182.964,184.476,182.964,186.895,182.561,188.911"/>
	<path d="M198.892,196.573l-1.412,6.451c-0.201,1.412-0.201,2.42,0.605,3.428l-3.629,2.822c-0.807-0.604-1.21-1.41-1.21-2.016
		c-1.21,1.412-2.621,2.016-4.638,2.016c-3.023,0-4.637-1.814-4.637-5.443c0-4.032,1.613-7.661,3.629-9.878
		c1.814-1.814,4.032-2.621,6.855-2.621c2.016,0,4.233,0.403,5.645,1.21C199.698,193.347,199.294,195.161,198.892,196.573
		 M193.851,194.557c-1.008,0-2.016,0-3.226,1.411c-1.411,1.613-2.017,5.04-2.017,7.257c0,1.613,0.403,2.219,1.411,2.219
		c1.412,0,2.823-1.412,3.227-2.621l1.814-8.064C194.858,194.758,194.254,194.557,193.851,194.557"/>
	<path d="M213.206,195.766c-0.807-0.807-1.613-1.209-2.621-1.209c-0.807,0-1.412,0.403-2.017,1.008
		c-1.21,1.411-2.419,5.041-2.419,7.66c0,1.816,0.807,2.621,2.016,2.621c1.21,0,2.42-0.604,3.831-1.611l1.411,2.822
		c-1.814,1.41-3.83,2.217-6.25,2.217c-3.83,0-5.847-2.217-5.847-5.846c0-4.234,2.017-8.065,4.436-10.081
		c1.612-1.209,3.226-2.016,5.646-2.016c1.612,0,3.226,0.605,4.637,2.016L213.206,195.766z"/>
	<path d="M224.698,183.669c0.201,0.806,0.201,2.822-0.605,6.452l-4.032,18.549h-4.436l4.032-18.75
		c0.403-2.419,0.605-3.831,0.403-4.637L224.698,183.669z M233.771,191.532l-7.057,7.459l4.637,9.678h-5.242l-3.629-9.678
		l5.848-7.459H233.771z"/>
	<path d="M253.125,197.177c-0.403,2.218-1.411,4.838-2.621,6.653l3.831,4.84h-5.848l-1.209-1.412
		c-1.613,1.209-3.629,2.016-6.855,2.016c-4.637,0-7.258-2.217-7.258-5.443c0-2.822,2.017-5.241,5.646-6.854
		c-1.411-1.209-1.814-2.419-1.814-3.831c0-3.629,3.427-6.653,7.862-6.653c3.428,0,5.646,1.613,5.646,4.234
		c0,2.621-1.008,4.436-5.241,6.452l-0.404,0.202l3.025,3.629c0.604-1.007,1.008-3.024,1.209-3.629h4.032V197.177z M238.206,203.428
		c0,1.613,1.209,2.418,3.226,2.418c1.612,0,2.822-0.402,3.831-1.209l-4.436-5.242C239.214,200.202,238.206,201.613,238.206,203.428
		 M246.271,191.129c0-1.008-0.605-1.613-1.613-1.613c-1.411,0-2.621,1.209-2.621,2.823c0,0.604,0.201,1.411,1.412,2.621
		C245.061,194.153,246.271,192.541,246.271,191.129"/>
	<path d="M267.036,185.282c3.831,0,6.25,0.403,7.662,2.218c1.008,1.411,1.814,2.823,1.814,5.645c0,3.831-1.412,8.871-4.234,11.896
		c-2.42,2.619-4.839,3.426-9.879,3.426h-5.646l5.04-23.185H267.036z M262.198,204.838h2.217c2.017,0,3.428-1.008,4.436-2.418
		c2.017-3.227,2.42-7.863,2.42-9.073c0-2.218-0.605-4.234-3.629-4.234h-2.017L262.198,204.838z"/>
	<path d="M291.028,206.652c-2.218,1.613-4.637,2.42-6.855,2.42c-4.031,0-6.451-2.217-6.451-6.25c0-3.629,1.613-7.258,3.83-9.476
		c1.613-1.613,3.63-2.218,5.848-2.218c3.428,0,5.847,1.412,5.847,4.637s-3.024,5.847-8.669,5.847c-1.211,0-2.017-0.203-2.017-0.203
		s-0.202,1.01-0.202,1.613c0,2.018,1.008,2.822,2.823,2.822c1.612,0,3.226-0.604,4.839-1.814L291.028,206.652z M284.577,198.589
		c2.016,0,4.233-0.605,4.233-2.419c0-1.008-0.403-1.814-1.814-1.814c-1.612,0-3.024,1.008-3.629,4.032
		C283.165,198.387,283.972,198.589,284.577,198.589"/>
	<path d="M306.553,195.766c-0.807-0.807-1.613-1.209-2.621-1.209c-0.807,0-1.411,0.403-2.017,1.008
		c-1.209,1.411-2.419,5.041-2.419,7.66c0,1.816,0.807,2.621,2.016,2.621c1.21,0,2.42-0.604,3.831-1.611l1.411,2.822
		c-1.814,1.41-3.83,2.217-6.25,2.217c-3.831,0-5.847-2.217-5.847-5.846c0-4.234,2.016-8.065,4.436-10.081
		c1.613-1.209,3.226-2.016,5.646-2.016c1.612,0,3.226,0.605,4.637,2.016L306.553,195.766z"/>
	<path d="M318.044,183.669c0.202,0.806,0.202,2.822-0.604,6.452l-4.032,18.549h-4.436l4.032-18.75
		c0.403-2.419,0.605-3.831,0.403-4.637L318.044,183.669z M327.117,191.532l-7.057,7.459l4.637,9.678h-5.241l-3.63-9.678l5.646-7.459
		H327.117z"/>
	<path d="M340.021,206.652c-2.218,1.613-4.638,2.42-7.057,2.42c-4.032,0-6.452-2.217-6.452-6.25c0-3.629,1.613-7.258,3.831-9.476
		c1.613-1.613,3.629-2.218,5.847-2.218c3.428,0,5.847,1.412,5.847,4.637s-3.024,5.847-8.669,5.847c-1.21,0-2.017-0.203-2.017-0.203
		s-0.201,1.01-0.201,1.613c0,2.018,1.008,2.822,2.822,2.822c1.613,0,3.226-0.604,4.839-1.814L340.021,206.652z M333.367,198.589
		c2.016,0,4.233-0.605,4.233-2.419c0-1.008-0.403-1.814-1.814-1.814c-1.612,0-3.024,1.008-3.629,4.032
		C332.157,198.387,332.762,198.589,333.367,198.589"/>
	<path d="M349.697,190.927c0.202,0.605,0.605,1.814,0.403,2.823c1.411-1.613,3.024-2.621,4.839-2.621c0.604,0,1.008,0,1.613,0.403
		l-2.017,4.032c-0.403-0.202-0.807-0.403-1.21-0.403c-0.806,0-1.814,0.403-3.226,2.419l-2.419,11.291h-4.436l2.419-11.291
		c0.403-2.218,0.403-3.629,0-4.839L349.697,190.927z"/>
</g>
</svg>
