<svg enable-background="new 35 35 330 330" height="330" viewBox="35 35 330 330" width="330" xmlns="http://www.w3.org/2000/svg"><path d="m61.996 190.121c-1.411-1.21-3.227-1.613-5.242-1.613-2.017 0-3.831 1.412-3.831 3.024 0 1.008.605 1.613 2.218 2.218l2.621.807c3.024 1.008 4.638 2.621 4.638 5.242 0 5.04-4.234 9.274-11.291 9.274-3.226 0-5.645-.807-7.661-2.016l2.42-3.629c2.016 1.209 3.629 1.814 6.048 1.814 3.024 0 4.839-1.613 4.839-3.832 0-1.208-.807-2.015-2.419-2.418l-2.42-.806c-2.621-.807-4.233-2.218-4.233-4.839 0-4.637 4.436-8.468 9.879-8.468 2.822 0 5.645.807 7.258 2.419z"/><path d="m74.496 194.557h-3.024l-1.814 8.668c-.202.605-.202 1.01-.202 1.412 0 1.008.403 1.209 1.412 1.209.402 0 1.209-.201 1.612-.402v2.621c-1.21.402-2.621.807-3.83.807-2.621 0-4.032-1.211-4.032-3.025 0-.604 0-1.41.201-2.217l2.017-9.274h-1.412l.605-3.024h1.612c.403-1.613.605-2.823 1.009-4.032l4.637-1.209c-.403 1.613-1.008 3.427-1.411 5.242h4.032z"/><path d="m90.625 196.573-1.411 6.451c-.403 1.412-.202 2.42.604 3.428l-3.629 2.822c-.807-.604-1.21-1.41-1.21-2.016-1.21 1.412-2.621 2.016-4.637 2.016-3.024 0-4.638-1.814-4.638-5.443 0-4.032 1.613-7.661 3.63-9.878 1.814-1.814 4.032-2.621 6.854-2.621 2.016 0 4.233.403 5.646 1.21-.402.805-1.008 2.619-1.209 4.031m-5.242-2.016c-1.008 0-2.016 0-3.226 1.411-1.411 1.613-2.017 5.04-2.017 7.257 0 1.613.403 2.219 1.411 2.219 1.412 0 2.823-1.412 3.227-2.621l1.814-8.064c-.201-.001-.806-.202-1.209-.202"/><path d="m99.496 190.927c.201.605.403 2.016.403 2.823 1.411-1.613 3.226-2.621 5.847-2.621 2.218 0 3.427 1.21 3.427 3.428 0 .806 0 1.613-.201 2.419l-2.42 11.694h-4.435l2.419-11.089c.201-.605.201-1.209.201-1.613 0-.807-.402-1.008-1.209-1.008-1.009 0-2.42.605-3.831 2.621l-2.419 11.089h-4.436l2.419-11.493c.403-1.814.403-3.427 0-4.436z"/><path d="m119.052 188.911-2.62 12.702c-.403 2.016-.605 2.822-.605 3.225 0 .605.202 1.008.807 1.008h.403l.201 2.621c-.806.203-1.814.404-2.822.404-2.419 0-3.629-1.211-3.629-3.025 0-.604.201-1.814.403-3.023l2.621-12.701c.403-2.218.807-3.831.403-5.041l4.838-1.411c.605.806.605 3.225 0 5.241"/><path d="m133.568 206.652c-2.218 1.613-4.637 2.42-7.057 2.42-4.032 0-6.451-2.217-6.451-6.25 0-3.629 1.612-7.258 3.83-9.476 1.613-1.613 3.629-2.218 5.847-2.218 3.428 0 5.848 1.412 5.848 4.637s-3.024 5.847-8.67 5.847c-1.21 0-2.016-.203-2.016-.203s-.202 1.01-.202 1.613c0 2.018 1.008 2.822 2.822 2.822 1.613 0 3.227-.604 4.839-1.814zm-6.653-8.063c2.017 0 4.234-.605 4.234-2.419 0-1.008-.403-1.814-1.814-1.814-1.613 0-3.024 1.008-3.63 4.032 0-.001.606.201 1.21.201"/><path d="m142.439 191.129.807 10.08c0 1.008.201 3.629.201 3.629s1.21-3.023 2.218-5.04l4.234-8.064h4.838l-9.879 17.338c-1.814 3.227-3.023 4.838-4.436 5.645-1.209.807-2.822 1.412-4.436 1.613l-.806-3.023c1.008-.201 2.218-.605 3.023-1.008 1.412-.807 1.814-1.613 3.024-3.428h-1.21c0-1.211-.201-3.428-.402-4.84l-1.613-12.096z"/><path d="m167.237 185.282c3.428 0 6.049 1.613 6.049 5.041 0 2.218-1.411 4.838-4.839 5.847 2.218.403 3.428 2.419 3.428 4.436 0 1.41-.605 3.83-2.218 5.443-1.613 1.814-3.629 2.418-7.258 2.418h-8.468l5.04-23.185zm-7.862 19.556h3.024c1.008 0 1.814-.201 2.419-.604 1.008-.605 1.814-2.219 1.814-3.428 0-1.613-.807-2.218-3.024-2.218h-2.822zm2.218-10.281h2.822c1.21 0 1.814-.202 2.42-.605.806-.605 1.411-1.411 1.411-2.621 0-1.411-.605-2.016-2.621-2.016h-2.823z"/><path d="m182.561 188.911-2.823 12.702c-.402 2.016-.604 2.822-.604 3.225 0 .605.201 1.008.807 1.008h.403l.201 2.621c-.807.203-1.814.404-2.822.404-2.42 0-3.629-1.211-3.629-3.025 0-.604.201-1.814.403-3.023l2.621-12.701c.402-2.218.806-3.831.402-5.041l4.839-1.411c.605.806.605 3.225.202 5.241"/><path d="m198.892 196.573-1.412 6.451c-.201 1.412-.201 2.42.605 3.428l-3.629 2.822c-.807-.604-1.21-1.41-1.21-2.016-1.21 1.412-2.621 2.016-4.638 2.016-3.023 0-4.637-1.814-4.637-5.443 0-4.032 1.613-7.661 3.629-9.878 1.814-1.814 4.032-2.621 6.855-2.621 2.016 0 4.233.403 5.645 1.21-.402.805-.806 2.619-1.208 4.031m-5.041-2.016c-1.008 0-2.016 0-3.226 1.411-1.411 1.613-2.017 5.04-2.017 7.257 0 1.613.403 2.219 1.411 2.219 1.412 0 2.823-1.412 3.227-2.621l1.814-8.064c-.202-.001-.806-.202-1.209-.202"/><path d="m213.206 195.766c-.807-.807-1.613-1.209-2.621-1.209-.807 0-1.412.403-2.017 1.008-1.21 1.411-2.419 5.041-2.419 7.66 0 1.816.807 2.621 2.016 2.621 1.21 0 2.42-.604 3.831-1.611l1.411 2.822c-1.814 1.41-3.83 2.217-6.25 2.217-3.83 0-5.847-2.217-5.847-5.846 0-4.234 2.017-8.065 4.436-10.081 1.612-1.209 3.226-2.016 5.646-2.016 1.612 0 3.226.605 4.637 2.016z"/><path d="m224.698 183.669c.201.806.201 2.822-.605 6.452l-4.032 18.549h-4.436l4.032-18.75c.403-2.419.605-3.831.403-4.637zm9.073 7.863-7.057 7.459 4.637 9.678h-5.242l-3.629-9.678 5.848-7.459z"/><path d="m253.125 197.177c-.403 2.218-1.411 4.838-2.621 6.653l3.831 4.84h-5.848l-1.209-1.412c-1.613 1.209-3.629 2.016-6.855 2.016-4.637 0-7.258-2.217-7.258-5.443 0-2.822 2.017-5.241 5.646-6.854-1.411-1.209-1.814-2.419-1.814-3.831 0-3.629 3.427-6.653 7.862-6.653 3.428 0 5.646 1.613 5.646 4.234s-1.008 4.436-5.241 6.452l-.404.202 3.025 3.629c.604-1.007 1.008-3.024 1.209-3.629h4.032v-.204zm-14.919 6.251c0 1.613 1.209 2.418 3.226 2.418 1.612 0 2.822-.402 3.831-1.209l-4.436-5.242c-1.613.807-2.621 2.218-2.621 4.033m8.065-12.299c0-1.008-.605-1.613-1.613-1.613-1.411 0-2.621 1.209-2.621 2.823 0 .604.201 1.411 1.412 2.621 1.612-.807 2.822-2.419 2.822-3.831"/><path d="m267.036 185.282c3.831 0 6.25.403 7.662 2.218 1.008 1.411 1.814 2.823 1.814 5.645 0 3.831-1.412 8.871-4.234 11.896-2.42 2.619-4.839 3.426-9.879 3.426h-5.646l5.04-23.185zm-4.838 19.556h2.217c2.017 0 3.428-1.008 4.436-2.418 2.017-3.227 2.42-7.863 2.42-9.073 0-2.218-.605-4.234-3.629-4.234h-2.017z"/><path d="m291.028 206.652c-2.218 1.613-4.637 2.42-6.855 2.42-4.031 0-6.451-2.217-6.451-6.25 0-3.629 1.613-7.258 3.83-9.476 1.613-1.613 3.63-2.218 5.848-2.218 3.428 0 5.847 1.412 5.847 4.637s-3.024 5.847-8.669 5.847c-1.211 0-2.017-.203-2.017-.203s-.202 1.01-.202 1.613c0 2.018 1.008 2.822 2.823 2.822 1.612 0 3.226-.604 4.839-1.814zm-6.451-8.063c2.016 0 4.233-.605 4.233-2.419 0-1.008-.403-1.814-1.814-1.814-1.612 0-3.024 1.008-3.629 4.032-.202-.001.605.201 1.21.201"/><path d="m306.553 195.766c-.807-.807-1.613-1.209-2.621-1.209-.807 0-1.411.403-2.017 1.008-1.209 1.411-2.419 5.041-2.419 7.66 0 1.816.807 2.621 2.016 2.621 1.21 0 2.42-.604 3.831-1.611l1.411 2.822c-1.814 1.41-3.83 2.217-6.25 2.217-3.831 0-5.847-2.217-5.847-5.846 0-4.234 2.016-8.065 4.436-10.081 1.613-1.209 3.226-2.016 5.646-2.016 1.612 0 3.226.605 4.637 2.016z"/><path d="m318.044 183.669c.202.806.202 2.822-.604 6.452l-4.032 18.549h-4.436l4.032-18.75c.403-2.419.605-3.831.403-4.637zm9.073 7.863-7.057 7.459 4.637 9.678h-5.241l-3.63-9.678 5.646-7.459z"/><path d="m340.021 206.652c-2.218 1.613-4.638 2.42-7.057 2.42-4.032 0-6.452-2.217-6.452-6.25 0-3.629 1.613-7.258 3.831-9.476 1.613-1.613 3.629-2.218 5.847-2.218 3.428 0 5.847 1.412 5.847 4.637s-3.024 5.847-8.669 5.847c-1.21 0-2.017-.203-2.017-.203s-.201 1.01-.201 1.613c0 2.018 1.008 2.822 2.822 2.822 1.613 0 3.226-.604 4.839-1.814zm-6.654-8.063c2.016 0 4.233-.605 4.233-2.419 0-1.008-.403-1.814-1.814-1.814-1.612 0-3.024 1.008-3.629 4.032 0-.001.605.201 1.21.201"/><path d="m349.697 190.927c.202.605.605 1.814.403 2.823 1.411-1.613 3.024-2.621 4.839-2.621.604 0 1.008 0 1.613.403l-2.017 4.032c-.403-.202-.807-.403-1.21-.403-.806 0-1.814.403-3.226 2.419l-2.419 11.291h-4.436l2.419-11.291c.403-2.218.403-3.629 0-4.839z"/></svg>