<?xml version="1.0" encoding="utf-8"?>
<!-- Generator: Adobe Illustrator 16.0.0, SVG Export Plug-In . SVG Version: 6.00 Build 0)  -->
<!DOCTYPE svg PUBLIC "-//W3C//DTD SVG 1.1//EN" "http://www.w3.org/Graphics/SVG/1.1/DTD/svg11.dtd">
<svg version="1.1"
	 id="svg1591" xmlns:rdf="http://www.w3.org/1999/02/22-rdf-syntax-ns#" xmlns:cc="http://creativecommons.org/ns#" xmlns:dc="http://purl.org/dc/elements/1.1/" xmlns:sodipodi="http://sodipodi.sourceforge.net/DTD/sodipodi-0.dtd" xmlns:svg="http://www.w3.org/2000/svg" xmlns:inkscape="http://www.inkscape.org/namespaces/inkscape" inkscape:version="0.92.0 r15299" sodipodi:docname="steelcase.svg"
	 xmlns="http://www.w3.org/2000/svg" xmlns:xlink="http://www.w3.org/1999/xlink" x="0px" y="0px" width="360px" height="360px"
	 viewBox="-1.254 -145.303 360 360" enable-background="new -1.254 -145.303 360 360" xml:space="preserve">
<sodipodi:namedview  units="px" id="base" pagecolor="#ffffff" bordercolor="#666666" borderopacity="1.0" inkscape:zoom="2.2560312" inkscape:cx="177.74592" inkscape:cy="33.696966" showgrid="false" fit-margin-top="0" fit-margin-left="0" inkscape:pageopacity="0.0" fit-margin-bottom="0" inkscape:current-layer="layer1" inkscape:window-x="-4" inkscape:window-y="-4" inkscape:window-maximized="1" fit-margin-right="0" inkscape:pageshadow="2" inkscape:document-units="mm" inkscape:window-height="744" inkscape:window-width="1280">
	</sodipodi:namedview>
<g>
	<path id="path1593" inkscape:connector-curvature="0" fill="#646766" d="M255.6,48.848v-4.773
		c-2.164,1.896-6.668,1.988-10.638,2.699c-3.965,0.812-7.562,2.164-7.562,6.852c0,4.77,3.685,5.945,7.832,5.945
		C255.241,59.57,255.6,51.641,255.6,48.848z M89.983,38.578h20.816c-1.172-6.492-3.965-9.914-10.184-9.914
		C92.503,28.664,90.163,34.969,89.983,38.578z M135.874,38.578h20.82c-1.176-6.492-3.965-9.914-10.188-9.914
		C138.393,28.664,136.054,34.969,135.874,38.578z M226.585,36.688h-12.524c-0.806-5.231-4.147-8.023-9.461-8.023
		c-8.195,0-10.91,8.297-10.91,15.142c0,6.664,2.621,14.684,10.633,14.684c5.953,0,9.371-3.785,10.19-9.457h10.88
		c2.184-6.312,8.633-8.133,15.065-9.016c7.844-1.168,15.142-0.902,15.142-6.129c0-5.488-3.785-6.306-8.298-6.306
		c-4.858,0-8.016,4.052-8.461,9.095L226.585,36.688z M356.421,46.68H322.81c0.355,8.116,4.324,11.809,11.439,11.809
		c5.133,0,9.281-3.152,10.094-6.031h11.27c-3.613,10.981-11.27,15.676-21.809,15.676c-11.359,0-19.391-6.043-22.434-15.456
		c-0.441,11.651-10.849,15.456-21.25,15.456c-10.216,0-20.191-3.608-21.724-14.409v2.785c0,4.233,0.453,8.469,1.625,10.358h-12.983
		c-0.449-1.438-0.806-2.969-0.898-4.5c-4.047,4.234-10,5.767-15.68,5.767c-8.078,0-14.648-3.703-15.711-11.642
		c-3.547,7.578-10.836,11.642-20.332,11.642c-11.965,0-20.59-7.181-22.898-17.931v16.664h-12.797V46.68h-32.848
		c0.355,8.116,4.324,11.809,11.449,11.809c5.133,0,9.277-3.152,10.086-6.031h11.266c-3.605,10.981-11.266,15.676-21.809,15.676
		c-13.625,0-22.438-8.68-23.648-21.452H89.983c0.355,8.116,4.328,11.809,11.445,11.809c5.133,0,9.281-3.152,10.094-6.031h11.266
		c-3.605,10.981-11.266,15.677-21.812,15.677c-14.687,0-23.789-10.095-23.789-24.517c0-13.961,9.641-24.598,23.789-24.598
		c13.231,0,20.758,9.277,22.363,20.668c1.633-11.977,10.742-20.668,23.527-20.668c12.156,0,19.488,7.828,21.855,17.93V2.539h12.797
		v35.27c2.219-11.125,10.375-18.789,23.172-18.789c10.151,0,19.526,4.922,21.543,15.035c1.582-12.285,11.918-15.035,21.715-15.035
		c9.277,0,20.449,2.074,20.449,13.254v19.461h11.979c0.094,5.582,4.781,7.836,9.832,7.836c3.685,0,8.375-1.438,8.375-5.945
		c0-3.879-5.315-5.23-14.508-7.207c-7.391-1.621-14.777-4.233-14.777-12.438c0-11.891,10.274-14.961,20.271-14.961
		c10.194,0,19.56,3.426,20.552,14.867h-12.164c-0.355-4.949-4.152-6.306-8.734-6.306c-2.891,0-7.125,0.551-7.125,4.328
		c0,4.598,7.203,5.219,14.512,6.938c5.609,1.28,11.129,3.121,13.531,7.633c-0.094-0.938-0.125-1.887-0.125-2.863
		c0-13.961,9.641-24.598,23.789-24.598C349.664,19.019,357.32,32.355,356.421,46.68L356.421,46.68z M322.81,38.578h20.811
		c-1.172-6.492-3.957-9.914-10.176-9.914C325.332,28.664,322.992,34.969,322.81,38.578z M69.925,6.312v13.973h9.367v7.418h-9.367
		V51.91c0,4.32,1.078,5.406,5.402,5.406c1.352,0,2.613-0.095,3.965-0.356v10c-2.164,0.363-4.953,0.445-7.48,0.445
		c-7.84,0-14.684-1.805-14.684-11.082v-28.62h-17.82l-0.004-5.98C38.85,13.98,33.35,12,26.597,12c-4.508,0-9.734,1.888-9.734,7.293
		c0,4.949,3.066,5.591,19.195,9.738c4.684,1.172,19.105,4.141,19.105,18.734c0,11.805-9.281,20.629-26.766,20.629
		c-14.238,0-27.574-7.031-27.395-22.888h13.695c0,8.563,6.668,11.898,14.242,11.898c4.953,0,12.523-1.438,12.523-8.02
		c0-6.941-9.641-8.117-19.102-10.63c-9.555-2.522-19.199-6.219-19.199-18.288C3.163,7.312,15.6,1,27.225,1
		c12.984,0,24.957,5.478,25.734,19.285h4.168V6.312H69.925z"/>
</g>
</svg>
