<svg enable-background="new -1.254 -145.303 360 360" height="360" viewBox="-1.254 -145.303 360 360" width="360" xmlns="http://www.w3.org/2000/svg"><path d="m255.6 48.848v-4.773c-2.164 1.896-6.668 1.988-10.638 2.699-3.965.812-7.562 2.164-7.562 6.852 0 4.77 3.685 5.945 7.832 5.945 10.009-.001 10.368-7.93 10.368-10.723zm-165.617-10.27h20.816c-1.172-6.492-3.965-9.914-10.184-9.914-8.112 0-10.452 6.305-10.632 9.914zm45.891 0h20.82c-1.176-6.492-3.965-9.914-10.188-9.914-8.113 0-10.452 6.305-10.632 9.914zm90.711-1.89h-12.524c-.806-5.231-4.147-8.023-9.461-8.023-8.195 0-10.91 8.297-10.91 15.142 0 6.664 2.621 14.684 10.633 14.684 5.953 0 9.371-3.785 10.19-9.457h10.88c2.184-6.312 8.633-8.133 15.065-9.016 7.844-1.168 15.142-.902 15.142-6.129 0-5.488-3.785-6.306-8.298-6.306-4.858 0-8.016 4.052-8.461 9.095zm129.836 9.992h-33.611c.355 8.116 4.324 11.809 11.439 11.809 5.133 0 9.281-3.152 10.094-6.031h11.27c-3.613 10.981-11.27 15.676-21.809 15.676-11.359 0-19.391-6.043-22.434-15.456-.441 11.651-10.849 15.456-21.25 15.456-10.216 0-20.191-3.608-21.724-14.409v2.785c0 4.233.453 8.469 1.625 10.358h-12.983c-.449-1.438-.806-2.969-.898-4.5-4.047 4.234-10 5.767-15.68 5.767-8.078 0-14.648-3.703-15.711-11.642-3.547 7.578-10.836 11.642-20.332 11.642-11.965 0-20.59-7.181-22.898-17.931v16.664h-12.797v-20.188h-32.848c.355 8.116 4.324 11.809 11.449 11.809 5.133 0 9.277-3.152 10.086-6.031h11.266c-3.605 10.981-11.266 15.676-21.809 15.676-13.625 0-22.438-8.68-23.648-21.452h-33.235c.355 8.116 4.328 11.809 11.445 11.809 5.133 0 9.281-3.152 10.094-6.031h11.266c-3.605 10.981-11.266 15.677-21.812 15.677-14.687 0-23.789-10.095-23.789-24.517 0-13.961 9.641-24.598 23.789-24.598 13.231 0 20.758 9.277 22.363 20.668 1.633-11.977 10.742-20.668 23.527-20.668 12.156 0 19.488 7.828 21.855 17.93v-34.413h12.797v35.27c2.219-11.125 10.375-18.789 23.172-18.789 10.151 0 19.526 4.922 21.543 15.035 1.582-12.285 11.918-15.035 21.715-15.035 9.277 0 20.449 2.074 20.449 13.254v19.461h11.979c.094 5.582 4.781 7.836 9.832 7.836 3.685 0 8.375-1.438 8.375-5.945 0-3.879-5.315-5.23-14.508-7.207-7.391-1.621-14.777-4.233-14.777-12.438 0-11.891 10.274-14.961 20.271-14.961 10.194 0 19.56 3.426 20.552 14.867h-12.164c-.355-4.949-4.152-6.306-8.734-6.306-2.891 0-7.125.551-7.125 4.328 0 4.598 7.203 5.219 14.512 6.938 5.609 1.28 11.129 3.121 13.531 7.633-.094-.938-.125-1.887-.125-2.863 0-13.961 9.641-24.598 23.789-24.598 15.859 0 23.515 13.336 22.616 27.661zm-33.611-8.102h20.811c-1.172-6.492-3.957-9.914-10.176-9.914-8.113 0-10.453 6.305-10.635 9.914zm-252.885-32.266v13.973h9.367v7.418h-9.367v24.207c0 4.32 1.078 5.406 5.402 5.406 1.352 0 2.613-.095 3.965-.356v10c-2.164.363-4.953.445-7.48.445-7.84 0-14.684-1.805-14.684-11.082v-28.62h-17.82l-.004-5.98c-.454-7.743-5.954-9.723-12.707-9.723-4.508 0-9.734 1.888-9.734 7.293 0 4.949 3.066 5.591 19.195 9.738 4.684 1.172 19.105 4.141 19.105 18.734 0 11.805-9.281 20.629-26.766 20.629-14.238 0-27.574-7.031-27.395-22.888h13.695c0 8.563 6.668 11.898 14.242 11.898 4.953 0 12.523-1.438 12.523-8.02 0-6.941-9.641-8.117-19.102-10.63-9.555-2.522-19.199-6.219-19.199-18.288.002-13.154 12.439-19.466 24.064-19.466 12.984 0 24.957 5.478 25.734 19.285h4.168v-13.973z" fill="#646766"/></svg>