<?xml version="1.0" encoding="utf-8"?>
<!-- Generator: Adobe Illustrator 16.0.0, SVG Export Plug-In . SVG Version: 6.00 Build 0)  -->
<!DOCTYPE svg PUBLIC "-//W3C//DTD SVG 1.1//EN" "http://www.w3.org/Graphics/SVG/1.1/DTD/svg11.dtd">
<svg version="1.1" id="Layer_2" xmlns="http://www.w3.org/2000/svg" xmlns:xlink="http://www.w3.org/1999/xlink" x="0px" y="0px"
	 width="200px" height="200px" viewBox="0 0 200 200" enable-background="new 0 0 200 200" xml:space="preserve">
<g>
	
		<linearGradient id="SVGID_1_" gradientUnits="userSpaceOnUse" x1="215.6074" y1="767" x2="408.3926" y2="767" gradientTransform="matrix(1 0 0 1 -212 -667)">
		<stop  offset="0" style="stop-color:#ACB6AA"/>
		<stop  offset="1" style="stop-color:#005493"/>
	</linearGradient>
	<polygon fill="url(#SVGID_1_)" points="135.155,97.144 196.393,97.144 196.393,38 68.706,38 68.706,95.84 3.607,95.84 3.607,162 
		135.155,162 	"/>
	<polygon fill="#B9C0C6" points="133.526,95.515 133.526,162 135.155,162 135.155,97.144 196.393,97.144 196.393,95.515 	"/>
	<path fill="#B9C0C6" d="M70.291,97.469h0.044V38h-1.629v57.761C69.286,96.283,69.823,96.861,70.291,97.469z"/>
	<path fill="#648397" d="M68.706,95.761v0.079H3.607v1.629h66.683C69.823,96.861,69.286,96.283,68.706,95.761z"/>
	<path fill="#005495" d="M25.299,131.346c0.299-0.3,0.498-0.609,0.598-0.931c0.088-0.267,0.216-0.397,0.382-0.397
		c0.088,0,0.188,0.057,0.299,0.166c0.077,0.397,0.188,1.2,0.332,2.406l0.398,3.121c0,0.199-0.122,0.299-0.365,0.299
		c-0.133,0-0.249-0.109-0.349-0.332c-0.587-1.449-1.456-2.656-2.606-3.619c-1.151-0.951-2.407-1.428-3.769-1.428
		c-1.339,0-2.349,0.404-3.03,1.212s-1.021,1.666-1.021,2.573c0,1.105,0.371,1.953,1.112,2.54c0.741,0.587,2.269,1.251,4.582,1.992
		c1.704,0.53,2.98,1.046,3.827,1.544s1.558,1.195,2.133,2.092c0.575,0.896,0.863,1.859,0.863,2.889c0,1.75-0.725,3.314-2.175,4.698
		c-1.45,1.384-3.227,2.075-5.329,2.075c-1.893,0-3.796-0.592-5.711-1.776c-0.376,0.31-0.62,0.675-0.73,1.097
		c-0.089,0.354-0.232,0.531-0.432,0.531c-0.177,0-0.305-0.228-0.382-0.682c-0.078-0.454-0.238-2.602-0.481-6.441
		c0.044-0.133,0.16-0.199,0.349-0.199c0.166,0,0.299,0.123,0.398,0.365c1.704,4.283,4.084,6.426,7.139,6.426
		c1.516,0,2.703-0.457,3.561-1.368c0.857-0.914,1.287-1.964,1.287-3.146c0-0.817-0.23-1.569-0.689-2.258s-1.068-1.237-1.826-1.66
		c-0.758-0.421-1.957-0.891-3.594-1.409c-2.103-0.677-3.534-1.314-4.292-1.918c-0.758-0.604-1.314-1.283-1.668-2.043
		c-0.354-0.759-0.531-1.49-0.531-2.199c0-1.473,0.667-2.777,2-3.918s2.969-1.709,4.906-1.709c0.73,0,1.497,0.114,2.299,0.349
		C23.586,130.516,24.425,130.869,25.299,131.346z"/>
	<g>
		<g>
			<path fill="#FFFFFF" d="M36.173,139.164c-0.155,2.449-0.232,4.854-0.232,7.216c0,1.817,0.217,3.004,0.65,3.558
				c0.434,0.556,1.056,0.832,1.868,0.832c0.589,0,1.239-0.217,1.951-0.646c0.256-0.155,0.411-0.23,0.466-0.23
				c0.144,0,0.216,0.075,0.216,0.23c0,0.268-0.394,0.688-1.182,1.262c-0.788,0.575-1.754,0.863-2.897,0.863
				c-1.132,0-1.981-0.395-2.547-1.182s-0.849-1.961-0.849-3.522c0-1.629,0.1-4.422,0.299-8.378
				c-0.078-0.021-0.604-0.063-1.577-0.116l-0.996-0.065c-0.244-0.01-0.365-0.094-0.365-0.248c0-0.145,0.138-0.26,0.414-0.348
				c0.452-0.166,1.213-0.65,2.283-1.457c1.07-0.807,1.693-1.941,1.869-3.41c0.045-0.388,0.17-0.58,0.375-0.58
				c0.204,0,0.306,0.154,0.306,0.463c0,0.101-0.006,0.205-0.017,0.313c-0.033,0.433-0.05,0.929-0.05,1.489l0.017,2.581l3.636-0.052
				c0.62,0,0.94,0.072,0.963,0.218c-0.011,0.509-0.094,0.83-0.249,0.963C39.947,138.915,38.499,138.998,36.173,139.164z"/>
			<path fill="#FFFFFF" d="M45.404,144.145c-0.045,0.564-0.067,1.015-0.067,1.347c0,1.569,0.463,2.897,1.389,3.983
				c0.926,1.084,2.071,1.627,3.436,1.627c1.331,0,2.568-0.531,3.71-1.595c0.333-0.299,0.543-0.448,0.632-0.448
				c0.178,0,0.272,0.146,0.283,0.434c-0.42,0.773-1.14,1.428-2.159,1.959c-1.019,0.529-2.154,0.797-3.404,0.797
				c-1.838,0-3.394-0.661-4.667-1.982c-1.273-1.322-1.91-2.996-1.91-5.021c0-2.169,0.7-3.979,2.1-5.43
				c1.4-1.449,2.897-2.174,4.491-2.174c1.494,0,2.844,0.565,4.051,1.7c1.206,1.136,1.81,2.466,1.81,3.992
				c0,0.231-0.036,0.403-0.108,0.517c-0.072,0.108-0.496,0.166-1.272,0.166L45.404,144.145z M45.404,143.281
				c1.442,0.066,2.839,0.1,4.193,0.1l0.882-0.05c0.666-0.022,1.176-0.151,1.531-0.392c0.355-0.236,0.533-0.654,0.533-1.252
				c0-0.932-0.319-1.74-0.957-2.435c-0.638-0.69-1.389-1.037-2.254-1.037c-0.799,0-1.595,0.396-2.388,1.188
				C46.15,140.195,45.637,141.488,45.404,143.281z"/>
			<path fill="#FFFFFF" d="M64.819,148.609c1.898-4.426,2.848-7.027,2.848-7.803c0-0.375-0.103-0.757-0.307-1.138
				c-0.205-0.383-0.404-0.637-0.598-0.765c-0.194-0.129-0.484-0.201-0.872-0.225c-0.266-0.012-0.398-0.111-0.398-0.3
				c0-0.243,0.144-0.364,0.432-0.364l2.938-0.065c1.416,0,2.213,0.014,2.391,0.041c0.177,0.026,0.266,0.118,0.266,0.272
				c0,0.146-0.183,0.276-0.548,0.398c-0.664,0.232-0.996,0.554-0.996,0.963c0,0.122,0.103,0.484,0.308,1.087
				c0.205,0.604,0.613,1.625,1.223,3.063l2.014,4.615c0.751-1.895,1.43-3.768,2.037-5.621c0.606-1.854,0.91-2.922,0.91-3.207
				c0-0.567-0.354-0.886-1.063-0.951c-0.41-0.043-0.614-0.172-0.614-0.381c0-0.155,0.177-0.246,0.531-0.274
				c0.354-0.026,1.096-0.041,2.225-0.041c0.741,0,1.218,0.017,1.428,0.05s0.315,0.122,0.315,0.266c0,0.146-0.222,0.315-0.664,0.517
				c-0.554,0.239-0.969,0.56-1.245,0.953s-0.592,1.216-0.945,2.467c-0.287,1.021-0.923,2.822-1.905,5.412l-1.591,4.25
				c-0.089,0.243-0.205,0.364-0.349,0.364c-0.145,0-0.316-0.275-0.516-0.829c-0.144-0.365-0.619-1.496-1.426-3.392
				c-1.106-2.537-1.914-4.511-2.422-5.918l-0.11,0.094c-0.32,0.953-0.796,2.209-1.425,3.771l-1.723,4.231
				c-0.509,1.264-0.805,1.928-0.888,1.992c-0.083,0.066-0.151,0.102-0.208,0.102c-0.144,0-0.31-0.238-0.498-0.715
				c-0.909-2.323-1.746-4.389-2.511-6.191l-1.896-4.383c-0.487-1.107-0.844-1.752-1.071-1.93c-0.227-0.176-0.49-0.272-0.789-0.297
				c-0.376-0.043-0.564-0.147-0.564-0.313c0-0.243,0.249-0.365,0.747-0.365l3.769-0.065l1.561,0.033c0.32,0,0.481,0.084,0.481,0.25
				c0,0.221-0.216,0.363-0.647,0.432c-0.797,0.132-1.195,0.4-1.195,0.806C61.258,140.086,62.446,143.121,64.819,148.609z"/>
			<path fill="#FFFFFF" d="M89.796,149.771c-0.542,0.787-1.19,1.375-1.942,1.769c-0.753,0.394-1.605,0.59-2.557,0.59
				c-1.118,0-1.995-0.299-2.631-0.896c-0.637-0.601-0.955-1.385-0.955-2.358c0-0.729,0.191-1.412,0.572-2.043
				c0.383-0.631,0.819-1.085,1.313-1.36c0.492-0.277,1.357-0.627,2.598-1.048c1.771-0.587,2.833-1.073,3.188-1.461
				c0.354-0.388,0.531-0.892,0.531-1.514c0-0.988-0.232-1.759-0.697-2.308c-0.465-0.551-1.123-0.824-1.976-0.824
				c-0.697,0-1.224,0.154-1.577,0.467c-0.354,0.322-0.625,0.949-0.813,1.884c-0.199,1.022-0.637,1.534-1.312,1.534
				c-0.244,0-0.512-0.122-0.805-0.365c-0.294-0.242-0.44-0.604-0.44-1.079c0-0.829,0.459-1.552,1.378-2.167
				c0.918-0.613,2.18-0.921,3.785-0.921c1.272,0,2.288,0.181,3.047,0.54c0.758,0.359,1.233,0.773,1.428,1.238
				c0.193,0.466,0.29,1.363,0.29,2.693l-0.1,4.387c0,1.695,0.103,2.9,0.308,3.615c0.204,0.715,0.583,1.071,1.137,1.071
				c0.11,0,0.266-0.017,0.465-0.05l0.282-0.033c0.255,0,0.382,0.094,0.382,0.277c0,0.424-1.09,0.636-3.271,0.636
				c-0.631,0-1.054-0.146-1.271-0.438C89.938,151.313,89.819,150.702,89.796,149.771z M89.796,143.298
				c-0.332,0.433-1.085,0.957-2.258,1.577c-1.162,0.598-1.998,1.168-2.507,1.71c-0.51,0.554-0.764,1.218-0.764,1.992
				c0,0.696,0.207,1.289,0.623,1.776c0.414,0.485,0.932,0.729,1.552,0.729c0.642,0,1.245-0.196,1.81-0.589
				c0.564-0.396,0.982-0.896,1.254-1.503c0.271-0.608,0.406-1.512,0.406-2.706C89.914,145.391,89.875,144.395,89.796,143.298z"/>
			<path fill="#FFFFFF" d="M100.836,141.41c0.697-1.241,1.441-2.174,2.233-2.793c0.791-0.62,1.624-0.932,2.498-0.932
				c0.608,0,1.136,0.219,1.577,0.655s0.664,0.933,0.664,1.485c0,1.052-0.448,1.576-1.346,1.576c-0.42,0-0.773-0.293-1.063-0.881
				c-0.354-0.739-0.824-1.11-1.411-1.11c-0.554,0-1.123,0.312-1.71,0.931c-0.587,0.621-0.979,1.301-1.179,2.037
				c-0.2,0.737-0.301,2.28-0.301,4.63c0,2.15,0.091,3.384,0.268,3.699c0.178,0.313,0.631,0.519,1.359,0.604
				c0.199,0.022,0.301,0.102,0.301,0.232c0,0.232-0.262,0.35-0.78,0.35H96.65c-0.376,0-0.564-0.095-0.564-0.281
				c0-0.178,0.249-0.276,0.747-0.301c0.697-0.043,1.129-0.26,1.295-0.646s0.249-1.816,0.249-4.289c0-3.623-0.075-5.801-0.224-6.531
				c-0.15-0.73-0.706-1.119-1.669-1.164c-0.398-0.021-0.598-0.127-0.598-0.314c0-0.1,0.041-0.176,0.124-0.225
				c0.084-0.052,0.59-0.104,1.52-0.158l3.056-0.166C100.666,138.418,100.748,139.614,100.836,141.41z"/>
			<path fill="#FFFFFF" d="M122.734,129.17c0.012,2.368,0.018,5.566,0.018,9.596l-0.133,10.543c0,1.162,0.536,1.836,1.609,2.024
				c0.354,0.065,0.531,0.183,0.531,0.349c0,0.133-0.063,0.217-0.19,0.25c-0.128,0.032-0.86,0.049-2.2,0.049
				c-0.687-0.01-1.367-0.021-2.041-0.031c-0.033-0.676-0.051-1.162-0.051-1.463c0-0.375,0.018-0.911,0.051-1.608
				c-0.599,1.104-1.279,1.938-2.043,2.49s-1.609,0.83-2.539,0.83c-1.318,0-2.654-0.62-4.011-1.859
				c-1.354-1.237-2.032-2.911-2.032-5.014c0-2.05,0.633-3.824,1.899-5.329c1.269-1.505,2.825-2.26,4.674-2.26
				c0.931,0,1.731,0.197,2.407,0.591c0.675,0.396,1.223,0.987,1.645,1.784c0.065-1.305,0.1-2.529,0.1-3.68
				c0-3.523-0.09-5.479-0.266-5.867c-0.178-0.388-0.593-0.619-1.246-0.695c-0.408-0.059-0.613-0.165-0.613-0.324
				c0-0.191,0.261-0.29,0.779-0.29L122.734,129.17z M120.394,144.045c0-1.882-0.318-3.29-0.955-4.227
				c-0.636-0.936-1.597-1.401-2.88-1.401c-1.34,0-2.348,0.545-3.021,1.635c-0.675,1.091-1.013,2.726-1.013,4.906
				c0,2.202,0.401,3.778,1.203,4.731c0.803,0.951,1.675,1.428,2.614,1.428s1.853-0.501,2.729-1.503
				C119.955,148.613,120.394,146.757,120.394,144.045z"/>
		</g>
	</g>
</g>
</svg>
