<svg enable-background="new 0 0 200 200" height="200" viewBox="0 0 200 200" width="200" xmlns="http://www.w3.org/2000/svg" xmlns:xlink="http://www.w3.org/1999/xlink"><linearGradient id="a" gradientUnits="userSpaceOnUse" x1="3.6074" x2="196.3926" y1="100" y2="100"><stop offset="0" stop-color="#acb6aa"/><stop offset="1" stop-color="#005493"/></linearGradient><path d="m135.155 97.144h61.238v-59.144h-127.687v57.84h-65.099v66.16h131.548z" fill="url(#a)"/><path d="m133.526 95.515v66.485h1.629v-64.856h61.238v-1.629z" fill="#b9c0c6"/><path d="m70.291 97.469h.044v-59.469h-1.629v57.761c.58.522 1.117 1.1 1.585 1.708z" fill="#b9c0c6"/><path d="m68.706 95.761v.079h-65.099v1.629h66.683c-.467-.608-1.004-1.186-1.584-1.708z" fill="#648397"/><path d="m25.299 131.346c.299-.3.498-.609.598-.931.088-.267.216-.397.382-.397.088 0 .188.057.299.166.077.397.188 1.2.332 2.406l.398 3.121c0 .199-.122.299-.365.299-.133 0-.249-.109-.349-.332-.587-1.449-1.456-2.656-2.606-3.619-1.151-.951-2.407-1.428-3.769-1.428-1.339 0-2.349.404-3.03 1.212s-1.021 1.666-1.021 2.573c0 1.105.371 1.953 1.112 2.54s2.269 1.251 4.582 1.992c1.704.53 2.98 1.046 3.827 1.544s1.558 1.195 2.133 2.092c.575.896.863 1.859.863 2.889 0 1.75-.725 3.314-2.175 4.698s-3.227 2.075-5.329 2.075c-1.893 0-3.796-.592-5.711-1.776-.376.31-.62.675-.73 1.097-.089.354-.232.531-.432.531-.177 0-.305-.228-.382-.682-.078-.454-.238-2.602-.481-6.441.044-.133.16-.199.349-.199.166 0 .299.123.398.365 1.704 4.283 4.084 6.426 7.139 6.426 1.516 0 2.703-.457 3.561-1.368.857-.914 1.287-1.964 1.287-3.146 0-.817-.23-1.569-.689-2.258s-1.068-1.237-1.826-1.66c-.758-.421-1.957-.891-3.594-1.409-2.103-.677-3.534-1.314-4.292-1.918s-1.314-1.283-1.668-2.043c-.354-.759-.531-1.49-.531-2.199 0-1.473.667-2.777 2-3.918s2.969-1.709 4.906-1.709c.73 0 1.497.114 2.299.349.802.228 1.641.581 2.515 1.058z" fill="#005495"/><g fill="#fff"><path d="m36.173 139.164c-.155 2.449-.232 4.854-.232 7.216 0 1.817.217 3.004.65 3.558.434.556 1.056.832 1.868.832.589 0 1.239-.217 1.951-.646.256-.155.411-.23.466-.23.144 0 .216.075.216.23 0 .268-.394.688-1.182 1.262-.788.575-1.754.863-2.897.863-1.132 0-1.981-.395-2.547-1.182s-.849-1.961-.849-3.522c0-1.629.1-4.422.299-8.378-.078-.021-.604-.063-1.577-.116l-.996-.065c-.244-.01-.365-.094-.365-.248 0-.145.138-.26.414-.348.452-.166 1.213-.65 2.283-1.457s1.693-1.941 1.869-3.41c.045-.388.17-.58.375-.58.204 0 .306.154.306.463 0 .101-.006.205-.017.313-.033.433-.05.929-.05 1.489l.017 2.581 3.636-.052c.62 0 .94.072.963.218-.011.509-.094.83-.249.963-.578-.003-2.026.08-4.352.246z"/><path d="m45.404 144.145c-.045.564-.067 1.015-.067 1.347 0 1.569.463 2.897 1.389 3.983.926 1.084 2.071 1.627 3.436 1.627 1.331 0 2.568-.531 3.71-1.595.333-.299.543-.448.632-.448.178 0 .272.146.283.434-.42.773-1.14 1.428-2.159 1.959-1.019.529-2.154.797-3.404.797-1.838 0-3.394-.661-4.667-1.982-1.273-1.322-1.91-2.996-1.91-5.021 0-2.169.7-3.979 2.1-5.43 1.4-1.449 2.897-2.174 4.491-2.174 1.494 0 2.844.565 4.051 1.7 1.206 1.136 1.81 2.466 1.81 3.992 0 .231-.036.403-.108.517-.072.108-.496.166-1.272.166zm0-.864c1.442.066 2.839.1 4.193.1l.882-.05c.666-.022 1.176-.151 1.531-.392.355-.236.533-.654.533-1.252 0-.932-.319-1.74-.957-2.435-.638-.69-1.389-1.037-2.254-1.037-.799 0-1.595.396-2.388 1.188-.794.792-1.307 2.085-1.54 3.878z"/><path d="m64.819 148.609c1.898-4.426 2.848-7.027 2.848-7.803 0-.375-.103-.757-.307-1.138-.205-.383-.404-.637-.598-.765-.194-.129-.484-.201-.872-.225-.266-.012-.398-.111-.398-.3 0-.243.144-.364.432-.364l2.938-.065c1.416 0 2.213.014 2.391.041.177.026.266.118.266.272 0 .146-.183.276-.548.398-.664.232-.996.554-.996.963 0 .122.103.484.308 1.087.205.604.613 1.625 1.223 3.063l2.014 4.615c.751-1.895 1.43-3.768 2.037-5.621.606-1.854.91-2.922.91-3.207 0-.567-.354-.886-1.063-.951-.41-.043-.614-.172-.614-.381 0-.155.177-.246.531-.274.354-.026 1.096-.041 2.225-.041.741 0 1.218.017 1.428.05s.315.122.315.266c0 .146-.222.315-.664.517-.554.239-.969.56-1.245.953s-.592 1.216-.945 2.467c-.287 1.021-.923 2.822-1.905 5.412l-1.591 4.25c-.089.243-.205.364-.349.364-.145 0-.316-.275-.516-.829-.144-.365-.619-1.496-1.426-3.392-1.106-2.537-1.914-4.511-2.422-5.918l-.11.094c-.32.953-.796 2.209-1.425 3.771l-1.723 4.231c-.509 1.264-.805 1.928-.888 1.992-.083.066-.151.102-.208.102-.144 0-.31-.238-.498-.715-.909-2.323-1.746-4.389-2.511-6.191l-1.896-4.383c-.487-1.107-.844-1.752-1.071-1.93-.227-.176-.49-.272-.789-.297-.376-.043-.564-.147-.564-.313 0-.243.249-.365.747-.365l3.769-.065 1.561.033c.32 0 .481.084.481.25 0 .221-.216.363-.647.432-.797.132-1.195.4-1.195.806-.001.581 1.187 3.616 3.56 9.104z"/><path d="m89.796 149.771c-.542.787-1.19 1.375-1.942 1.769-.753.394-1.605.59-2.557.59-1.118 0-1.995-.299-2.631-.896-.637-.601-.955-1.385-.955-2.358 0-.729.191-1.412.572-2.043.383-.631.819-1.085 1.313-1.36.492-.277 1.357-.627 2.598-1.048 1.771-.587 2.833-1.073 3.188-1.461.354-.388.531-.892.531-1.514 0-.988-.232-1.759-.697-2.308-.465-.551-1.123-.824-1.976-.824-.697 0-1.224.154-1.577.467-.354.322-.625.949-.813 1.884-.199 1.022-.637 1.534-1.312 1.534-.244 0-.512-.122-.805-.365-.294-.242-.44-.604-.44-1.079 0-.829.459-1.552 1.378-2.167.918-.613 2.18-.921 3.785-.921 1.272 0 2.288.181 3.047.54.758.359 1.233.773 1.428 1.238.193.466.29 1.363.29 2.693l-.1 4.387c0 1.695.103 2.9.308 3.615.204.715.583 1.071 1.137 1.071.11 0 .266-.017.465-.05l.282-.033c.255 0 .382.094.382.277 0 .424-1.09.636-3.271.636-.631 0-1.054-.146-1.271-.438-.215-.294-.334-.905-.357-1.836zm0-6.473c-.332.433-1.085.957-2.258 1.577-1.162.598-1.998 1.168-2.507 1.71-.51.554-.764 1.218-.764 1.992 0 .696.207 1.289.623 1.776.414.485.932.729 1.552.729.642 0 1.245-.196 1.81-.589.564-.396.982-.896 1.254-1.503.271-.608.406-1.512.406-2.706.002-.893-.037-1.889-.116-2.986z"/><path d="m100.836 141.41c.697-1.241 1.441-2.174 2.233-2.793.791-.62 1.624-.932 2.498-.932.608 0 1.136.219 1.577.655s.664.933.664 1.485c0 1.052-.448 1.576-1.346 1.576-.42 0-.773-.293-1.063-.881-.354-.739-.824-1.11-1.411-1.11-.554 0-1.123.312-1.71.931-.587.621-.979 1.301-1.179 2.037-.2.737-.301 2.28-.301 4.63 0 2.15.091 3.384.268 3.699.178.313.631.519 1.359.604.199.022.301.102.301.232 0 .232-.262.35-.78.35h-5.296c-.376 0-.564-.095-.564-.281 0-.178.249-.276.747-.301.697-.043 1.129-.26 1.295-.646s.249-1.816.249-4.289c0-3.623-.075-5.801-.224-6.531-.15-.73-.706-1.119-1.669-1.164-.398-.021-.598-.127-.598-.314 0-.1.041-.176.124-.225.084-.052.59-.104 1.52-.158l3.056-.166c.08.6.162 1.796.25 3.592z"/><path d="m122.734 129.17c.012 2.368.018 5.566.018 9.596l-.133 10.543c0 1.162.536 1.836 1.609 2.024.354.065.531.183.531.349 0 .133-.063.217-.19.25-.128.032-.86.049-2.2.049-.687-.01-1.367-.021-2.041-.031-.033-.676-.051-1.162-.051-1.463 0-.375.018-.911.051-1.608-.599 1.104-1.279 1.938-2.043 2.49s-1.609.83-2.539.83c-1.318 0-2.654-.62-4.011-1.859-1.354-1.237-2.032-2.911-2.032-5.014 0-2.05.633-3.824 1.899-5.329 1.269-1.505 2.825-2.26 4.674-2.26.931 0 1.731.197 2.407.591.675.396 1.223.987 1.645 1.784.065-1.305.1-2.529.1-3.68 0-3.523-.09-5.479-.266-5.867-.178-.388-.593-.619-1.246-.695-.408-.059-.613-.165-.613-.324 0-.191.261-.29.779-.29zm-2.34 14.875c0-1.882-.318-3.29-.955-4.227-.636-.936-1.597-1.401-2.88-1.401-1.34 0-2.348.545-3.021 1.635-.675 1.091-1.013 2.726-1.013 4.906 0 2.202.401 3.778 1.203 4.731.803.951 1.675 1.428 2.614 1.428s1.853-.501 2.729-1.503c.884-1.001 1.323-2.857 1.323-5.569z"/></g></svg>