<svg height="39.072" viewBox="0 0 189.56512 39.072222" width="189.56" xmlns="http://www.w3.org/2000/svg"><g transform="matrix(.5 0 0 .5 .71444 .938782)"><path d="m43.842 7.8242c-12.969-.0643-13.718.021-18.016 2.084-.968.4648-2.099 1.0878-2.514 1.3828-1.242.884-3.519 3.122-3.519 3.459 0 .17225-.06783.3125-.15039.3125-.39819 0-2.1903 3.3628-2.1934 4.1152-.0012.28113-.06732.58235-.14648.66992-.52886.58489-.69594 5.6829-.25781 7.8691.14778.73739.33539 1.679.41797 2.0938.15681.78767.83976 2.2118 1.6211 3.3848.25199.37828.5333.80756.625.95508.41478.66717 3.1902 3.2275 4.3633 4.0234 1.635 1.1093 3.6201 2.315 4.1289 2.5098.21451.08212 1.0689.51771 1.8984.9668.82957.44909 1.8469.95747 2.2617 1.1309.41478.17339 1.8111.82245 3.1016 1.4414 6.8979 3.3087 7.4897 3.6497 8.0762 4.6504.60365 1.03.62202 2.1063.05078 2.9453-.23044.33845-.54531.61456-.70117.61524-.15586.00062-.33815.09023-.4043.19726-.12402.19956-14.344.10706-21.393-.13867l-3.1426-.10938v-3.6602c0-3.1422-.03617-3.6621-.25195-3.6621-.13826 0-.25.07579-.25.16797 0 .09217-.08613.16797-.19141.16797-.20798 0-1.9869 1.4495-2.2051 1.7969-.07371.11736-.36292.33195-.64258.47656s-.93794.65786-1.4609 1.1387c-.52301.48081-1.3014 1.115-1.7305 1.4102-.42906.29521-.80484.59596-.83594.66797-.0848.19648-1.734 1.5488-1.8887 1.5488-.073806 0-.3712.25032-.66016.55664-.2899.308-1.3184 1.193-2.2861 1.97s-1.9084 1.564-2.0918 1.748-.6108.523-.9492.754c-.3385.23-1.0405.823-1.5606 1.316l-.9453.899 1.0566.982c.58096.54068 1.11.98574 1.1758.98828.065829.0025.70645.53252 1.4238 1.1777.7174.645 1.3937 1.174 1.504 1.174.11026 0 .29948.13094.41992.29297.12045.16202.63312.63476 1.1387 1.0488.50555.41406 1.0701.87545 1.2559 1.0273.18576.15188.8209.6805 1.4102 1.1738.58928.49333 1.3934 1.1389 1.7871 1.4336.39367.29471.97585.79616 1.2949 1.1152.31907.31907.87335.77058 1.2305 1.002.35712.23137 1.1013.8386 1.6543 1.3516.55304.51296 1.0949.93405 1.2031.93555.10821.0015.37154.22467.58594.49609.75728.95861.79927.79543.84766-3.3008l.04492-3.8125.75391.02148c.41478.01102 4.7694.03472 9.6777.05469 6.2137.02529 8.9238.09172 8.9238.2168 0 .20508 5.2163.06547 7.877-.21094 2.0872-.21683 4.7155-.73229 5.1113-1.002.09217-.0628.62078-.29109 1.1738-.50781.55304-.21674 1.0438-.44016 1.0898-.49609.16213-.19675 1.3619-.8418 1.5664-.8418.11379 0 .46975-.2434.79102-.54297.32125-.29956.87197-.77231 1.2246-1.0488.72633-.56964 2.5459-2.8444 3.082-3.8535.54362-1.0233 1.3674-3.6148 1.6387-5.1562.54321-3.0867.19458-7.16-.82617-9.6621-.2415-.59198-.43945-1.1405-.43945-1.2188 0-.17265-.82838-1.4945-1.084-1.7285-.10067-.09217-.5429-.63742-.98242-1.2129-.43954-.57547-.95331-1.1283-1.1406-1.2285-.32955-.17639-.61551-.40909-1.6855-1.3613-.27853-.24786-.78186-.57846-1.1172-.73633-.33533-.15787-.87084-.50311-1.1914-.76562-.32056-.26253-.64394-.47656-.71875-.47656s-.52876-.26333-1.0078-.58594c-.47905-.32261-.97462-.58789-1.1016-.58789-.26913 0-1.5917-.69419-1.6738-.87891-.03072-.06913-.16239-.125-.29297-.125-.13059 0-.23633-.0758-.23633-.16797 0-.09218-.12383-.16797-.27344-.16797s-.69619-.21359-1.2148-.47461c-2.743-1.3805-4.1405-2.0503-4.2676-2.0449-.07794.0033-.34738-.14014-.59766-.31836-.2503-.17821-.67638-.37772-.94727-.44336-.27082-.06564-1.2657-.54202-2.2109-1.0586s-2.0384-1.1032-2.4297-1.3027c-.39132-.1995-.93458-.59659-1.207-.88281-.45376-.47667-.49609-.62082-.49609-1.7148 0-1.1461.0223-1.2134.55274-1.6562.30402-.25381.791-.49543 1.082-.53906.29094-.04363 5.5064-.04027 11.59.0078l11.061.08789-.03125-7.0234-.0332-7.0215-1.9785-.11523c-1.091-.0631-6.582-.1389-12.204-.1668zm20.521.033203.05664 22.75c.04937 20.244.08486 22.842.32227 23.588.49756 1.5626 1.0191 2.8342 1.498 3.6465.26254.44528.47852.88378.47852.97461 0 .58522 4.3818 5.1836 4.9395 5.1836.06087 0 .42762.20746.81445.46094 1.8867 1.2364 2.6113 1.5886 4.6621 2.2734 2.2504.75154 4.3058 1.2489 6.3418 1.5332 2.1805.30446 7.5522.30769 9.5527.0059 2.9333-.44264 5.0918-.99096 6.6445-1.6895.29045-.13067.65577-.23828.81055-.23828.33382 0 3.04-1.4172 3.5215-1.8438.18435-.16332.61224-.43743.94922-.60938.80257-.40942 3.6159-3.0198 3.9492-3.6641.14306-.27652.42259-.66637.62109-.86719.48214-.48785 1.6322-2.6025 1.8848-3.4668.11133-.3811.39223-1.3716.625-2.2012l.42382-1.5098.006-22.162.006-22.164h-8.7988-8.7988v21.188c0 13.061-.06147 21.352-.16016 21.611-.20714.54472-1.3225 1.7793-1.6074 1.7793-.12097 0-.32142.10071-.44531.22461-.58438.58435-2.0101.86524-4.4062.86524h-2.3457l-1.3301-.64648c-1.397-.676-1.782-1.039-2.405-2.27l-.37695-.74414v-21.004-21.004h-8.7188-8.7188zm53.635.00195v29.662 29.664l15.795-.0059c16.06-.0054 17.585-.05532 19.564-.6543.322-.09744.79119-.17774 1.043-.17774.44345 0 2.0238-.6387 3.3984-1.373.3687-.19695 1.0837-.57864 1.5879-.84766.78548-.41914 1.7448-1.2253 3.2578-2.7363.45599-.45534 1.4802-1.8838 1.998-2.7891.44717-.78147 1.4603-3.6879 1.7988-5.1582.28681-1.2459.43729-4.491.27929-6.0332-.12071-1.1783-.83638-3.9014-1.123-4.2734-.071-.09217-.22547-.4692-.3418-.83789-.31758-1.0069-2.318-3.4262-3.7461-4.5293-.35554-.27464-.8232-.66072-1.0391-.85938-.21587-.19866-.69694-.49543-1.0703-.66016-.37338-.16472-.67969-.3472-.67969-.4043 0-.1033.92969-.83789 1.0606-.83789.12502 0 2.7949-2.6363 2.7949-2.7598 0-.06662.14099-.32174.31445-.56641.49548-.69868 1.4624-2.5844 1.6953-3.3066.11643-.36105.29719-.76321.40039-.89258.12478-.15636.18183-1.308.17383-3.4355-.0115-2.9792-.0421-3.2963-.45508-4.5957-.50931-1.6023-1.6827-4.0495-2.2969-4.791-1.0803-1.304-2.3539-2.5496-3.3086-3.2324-1.3265-.94872-3.6533-2.0836-5.4043-2.6367-2.7-.851-4.52-.9316-20.8-.9316h-14.898zm17.262 12.881 4.7344.05469c5.136.0581 5.0975.05189 6.3125 1.0742 1.3039 1.0972 1.8138 3.627 1.2617 6.2695-.1929.92375-1.3275 2.4592-2.1348 2.8906-.67672.36166-.90265.37837-5.4394.42969l-4.7344.05469v-5.3867-5.3867zm.125 22.113c.0692-.02848 2.5453-.01484 5.502.03125l5.375.08398.70508.4668c.38816.25706.98544.89937 1.3262 1.4258l.61914.95703.002 2.4434c.002 2.2371-.0308 2.5146-.40234 3.3086-.22314.47689-.50741.86719-.63281.86719-.12539 0-.27022.10769-.32032.23828-.14463.37689-1.2516 1.0285-2.1094 1.2422-.50629.12608-2.4613.19531-5.4883.19531h-4.7012v-5.6035c0-3.0825.0559-5.6278.125-5.6562z" fill="#ffcb08"/><path d="m357.46.30469c-.12042.0658-.12982.81859-.13282 3.4883l-.004 3.7285-6.7441.00391c-6.4899.00318-7.3534.051396-10.223.56445-2.3714.424-4.981 1.9931-6.5566 3.9434-1.2857 1.5913-2.072 3.375-2.7051 6.1309-.0635.27652-.16441 3.5939-.22461 7.373-.12046 7.5667-.0687 7.2-1.2402 8.6582-.94956 1.1819-3.2668 1.9825-5.7402 1.9824-1.2092-.00005-3.3205-.48869-4.0391-.93359-.91312-.56548-1.935-1.589-2.1328-2.1367-.13432-.37188-.21724-4.223-.27734-12.85l-.0859-12.316-8.5898-.042969-8.5879-.044922.002 13.115c.002 7.2135.072 13.593.15625 14.176.18471 1.2775.88895 3.6556 1.4238 4.8066 1.0094 2.1723 3.3803 4.8867 5.5586 6.3672.54249.36868 1.1358.80582 1.3184.9707.18253.16488.52165.34306.7539.39648.23226.05343.72927.27202 1.1055.48633.78482.44709 2.9651 1.3394 4.1348 1.6914l.79687.24024v8.5391 8.541h8.7148 8.7148v-8.5078-8.5078l1.3828-.47852c2.0164-.69734 5.9309-2.6515 6.9844-3.4863 1.3345-1.0577 3.4812-3.279 4.0996-4.2422.76457-1.1907 1.8505-3.6648 2.1699-4.9434.45591-1.8252.60828-4.0557.61328-9.0488.003-2.627.0501-4.9457.10547-5.1523.16373-.61109 1.0337-.72492 5.2031-.67578l3.8242.04492.0469 3.6465c.0278 2.2393.10804 3.6445.20898 3.6445.0904 0 .16407-.0758.16407-.16797s.0938-.16763.20898-.16797c.11522-.000318.78798-.52893 1.4941-1.1738.70618-.6449 1.3481-1.1719 1.4277-1.1719s.59527-.4259 1.1445-.94531c.54926-.51941 1.2638-1.1156 1.5879-1.3262.3241-.21052 1.0407-.80345 1.5938-1.3164.55304-.51296 1.0627-.93209 1.1309-.93359s.52511-.361 1.0156-.79883c1.0908-.97386 4.2801-3.6233 5.2148-4.332.37633-.28535 1.0985-.91019 1.6055-1.3887l.92188-.87109-1.1504-1.082c-.63268-.59576-1.25-1.084-1.3711-1.084-.12106 0-.35741-.17156-.5254-.38086-.16798-.20932-.7575-.73611-1.3105-1.1719-.55305-.43576-1.1574-.93314-1.3418-1.1055-.18435-.17233-1.1429-.96776-2.1309-1.7676-.98795-.79985-2.0187-1.6769-2.291-1.9492-.27232-.27233-.56254-.49609-.64454-.49609s-.72163-.52666-1.4219-1.1719c-.7-.6423-1.35-1.1709-1.43-1.1709-.0857 0-.60169-.41875-1.1465-.93164-.5448-.51289-1.2915-1.1262-1.6602-1.3613-.3687-.23509-.80168-.58836-.96094-.78516-.0691-.085387-.12001-.13912-.16015-.11719zm-85.006 5.7832c-1.0377-.016624-2.0708.013323-3.0781.091797-3.2918.25636-6.5626.93073-8.4531 1.7441-.34269.14744-.75093.26953-.90821.26953-.36283 0-2.7535 1.2244-3.6328 1.8613-.36694.26581-.75885.48437-.86914.48437-.11029.000001-.45581.24469-.76953.54492-.31371.30025-1.043.9541-1.6191 1.4512-.57609.49705-1.0469.97585-1.0469 1.0645.00001.08859-.28971.50993-.64453.9375-1.0825 1.3045-1.4892 2.0428-2.1855 3.9629-1.2529 3.454-1.1914 2.0788-1.1914 26.664v22.02h8.6309 8.6289v-8.5469-8.5469h6.6211 6.6191v8.5469 8.5469h8.6309 8.6309v-21.912c-.00047-19.01-.0351-22.108-.25977-23.393-.39986-2.2866-1.7771-5.8357-2.5742-6.6328-.17051-.17049-.61568-.75989-.98829-1.3086-.37261-.5487-.85541-1.1144-1.0742-1.2578-.2188-.14337-.80392-.64568-1.2988-1.1152-.49491-.46955-1.0506-.90064-1.2344-.95898-.18383-.05835-.67883-.35337-1.1016-.6543-.98-.6996-2.7-1.5613-3.68-1.8475-.42-.1227-1.41-.4227-2.19-.666-2.68-.8316-5.84-1.2997-8.95-1.3496zm-29.75 1.7656-8.6777.044922-8.6797.042969-.084 21.283-.084 21.285-.45117.76562c-.5603.95296-.65451 1.0287-1.8945 1.4922-1.979.73976-5.236.38214-6.418-.70508-.22714-.20893-.55249-.68208-.72266-1.0508-.29556-.64019-.3085-1.6132-.3125-21.648-.002-11.537-.0495-21.094-.10547-21.24-.0908-.23693-1.0081-.26562-8.6309-.26562h-8.5293v20.992c0 13.101-.0623 21.206-.16406 21.561-.42869 1.4948-1.7833 2.4423-3.8691 2.707-1.2552.15929-2.9222-.02739-3.7012-.41602-.29137-.14536-.61853-.26367-.72656-.26367-.30542 0-.84084-.6804-1.1914-1.5098-.30684-.72566-.32073-1.5422-.36133-21.703-.0232-11.522-.0431-21.041-.043-21.156.00033-.16488-1.8378-.21094-8.6309-.21094h-8.6308v21.766c0 23.936-.0318 23.078 1.0352 26.332.91789 2.7996 2.0974 4.6719 4.2656 6.7656.72605.70109 1.3722 1.276 1.4355 1.2773.0633.0014.60083.33518 1.1953.74219 1.4468.99065 1.7455 1.134 3.8438 1.8418 2.1217.71577 3.5346 1.065 5.4863 1.3574h.002c2.0409.30587 6.6351.30447 8.3867-.002 2.0979-.36702 5.6733-1.5086 6.8438-2.1855.31161-.18023.91406-.56729 1.3398-.86133 1.5398-1.0634 1.9871-1.2541 2.4062-1.0195.20834.11661.41679.25869.46289.31445.20547.24853 3.3111 2.012 3.6875 2.0938.23044.05006.60746.17029.83789.26758.90532.3822 2.8336.95709 4.1894 1.25 2.0206.43656 7.9637.44045 10.139.0059 1.5996-.31964 3.5244-.84803 4.3574-1.1953.27652-.11528.80513-.30399 1.1738-.41992.36868-.11594.93325-.37995 1.2558-.58594.32256-.20598 1.1124-.70669 1.7539-1.1133.64154-.40657 1.7088-1.2669 2.3711-1.9121 1.3451-1.3102 3.081-3.5204 3.084-3.9258.001-.14537.19093-.59599.42187-1 .48975-.85672 1.1213-2.6289 1.5293-4.293.26282-1.0726.2921-3.0848.3457-23.338l.0586-22.166zm28.447 13.104c.43904-.01663.91884-.01423 1.4551.0059 1.6539.06197 1.9739.1268 3.1016.63476 1.6527.74443 1.9034.99216 2.416 2.375l.43164 1.166v5.6035 5.6055h-6.625-6.625l.0469-5.9082.0488-5.9062.44922-.92773c.53503-1.1045.75992-1.3162 2.0254-1.9043 1.009-.4689 1.9583-.69425 3.2754-.74414z" fill="#009743" stroke="#009743" stroke-width=".16759"/></g></svg>