<svg enable-background="new -0.707 -43.116 250 250" height="250" viewBox="-.707 -43.116 250 250" width="250" xmlns="http://www.w3.org/2000/svg"><g transform="matrix(2.1501372 0 0 2.1509725 -155.7507 -1003.6328)"><path d="m130.945 466.595c-.252-.002-.511.005-.761.008-7.655.081-15.4 1.88-22.537 5.284 0 0 1.11-.285 1.868-.278.108.001.206.002.295.017.735.118 1.432.498 2.024.95.836.639 1.14 1.865 2.04 2.409.731.442 1.653.514 2.507.557 1.833.092 3.631-.563 5.464-.656 1.851-.094 3.728-.165 5.563.099 2.711.389 5.399 1.112 7.922 2.179 2.972 1.258 5.74 3.008 8.348 4.907 2.556 1.862 4.807 4.117 7.087 6.308 3.299 3.171 5.949 7.027 9.52 9.889 1.466 1.175 2.969 2.17 4.818 2.933 2.64 1.09 8.356 1.876 8.356 1.876l2.392.598c1.244.207 2.371.491 3.367.844l.057.016c.911.326 1.711.716 2.392 1.164-1.848-6.1-5.049-11.916-8.578-17.114-8.844-13.027-26.275-21.879-42.144-21.99z" fill="#9e7fba"/><g fill="#682a8f"><path d="m98.806 477.189c-4.731 3.482-8.974 7.786-12.453 12.887-5.336 7.823-9.208 17.387-9.208 26.921v44.305c-.004.978.543 1.474 1.237 1.474h13.436c-1.773-.87-3.034-2.029-3.728-3.424-5.167-10.386 11.359-28.714 37.055-42.782 1.1-.806 2.138-1.654 2.106-1.982-.042-.415-1.704.262-1.704.262-12.26 4.859-23.07 12.516-32.966 20.809 0 0-1.98-8.891-2.819-13.272-.516-2.702-1.2-5.386-1.442-8.127-.222-2.525 0-7.603 0-7.603s.12-5.11.885-7.603c.801-2.611 3.818-7.529 3.818-7.529s2.459-3.459 4.383-5.383c.489-.488.984-1.437.999-2.163.013-.597-.377-.96-.516-1.54-.181-.755-.362-1.665-.336-2.442.02-.595.144-1.094.401-1.63.186-.386.566-.848.852-1.178z"/><path d="m183.32 516.922c-3.994 9.91-17.491 23.395-37.03 33.876-11.3 6.062-21.555 9.917-30.222 11.977h66.057c.802 0 1.221-.389 1.221-1.45-.013-13.236-.023-28.931-.026-44.403z"/><path d="m167.968 515.931c-7.164-.012-21.617 5.035-36.834 13.649-22.358 12.655-32.433 25.272-28.559 27.617 5.164 3.125 21.749 1.703 44.92-11.674 9.509-5.49 27.424-18.77 25.077-27.528-.375-1.4-2.014-2.06-4.604-2.064zm-34.491 15.565s5.03 9.62-2.752 15.533c-10.637 8.082-18.482-.525-18.482-.525 5.236-5.569 12.62-10.91 21.234-15.008z"/></g></g></svg>