<?xml version="1.0" encoding="utf-8"?>
<!-- Generator: Adobe Illustrator 16.0.0, SVG Export Plug-In . SVG Version: 6.00 Build 0)  -->
<!DOCTYPE svg PUBLIC "-//W3C//DTD SVG 1.1//EN" "http://www.w3.org/Graphics/SVG/1.1/DTD/svg11.dtd">
<svg version="1.1"
	 id="svg3063" xmlns:cc="http://creativecommons.org/ns#" xmlns:dc="http://purl.org/dc/elements/1.1/" xmlns:inkscape="http://www.inkscape.org/namespaces/inkscape" xmlns:rdf="http://www.w3.org/1999/02/22-rdf-syntax-ns#" xmlns:sodipodi="http://sodipodi.sourceforge.net/DTD/sodipodi-0.dtd" xmlns:svg="http://www.w3.org/2000/svg" sodipodi:docname="New document 2" inkscape:version="0.48.5 r10040"
	 xmlns="http://www.w3.org/2000/svg" xmlns:xlink="http://www.w3.org/1999/xlink" x="0px" y="0px" width="250px" height="250px"
	 viewBox="-0.707 -43.116 250 250" enable-background="new -0.707 -43.116 250 250" xml:space="preserve">
<sodipodi:namedview  showgrid="false" pagecolor="#ffffff" inkscape:zoom="0.35355339" inkscape:cy="594.55959" inkscape:cx="976.71112" id="base" fit-margin-top="0" fit-margin-left="0" borderopacity="1.0" bordercolor="#666666" inkscape:window-y="-8" inkscape:window-x="-8" inkscape:window-width="1366" inkscape:object-paths="false" inkscape:document-units="px" fit-margin-right="0" inkscape:window-maximized="1" inkscape:window-height="706" fit-margin-bottom="0" inkscape:pageshadow="2" inkscape:current-layer="layer1" inkscape:pageopacity="0.0">
	</sodipodi:namedview>
<g id="text3141" transform="matrix(5.6956046,0,0,5.7603967,-1277.173,570.00134)">
</g>
<g id="text3145" transform="matrix(5.6956046,0,0,5.7603967,-1277.173,570.00134)">
</g>
<g id="g3278" transform="matrix(2.1501372,0,0,2.1509725,-155.7507,-1003.6328)">
	<path id="path3124" inkscape:connector-curvature="0" fill="#9E7FBA" d="M130.945,466.595c-0.252-0.002-0.511,0.005-0.761,0.008
		c-7.655,0.081-15.4,1.88-22.537,5.284c0,0,1.11-0.285,1.868-0.278c0.108,0.001,0.206,0.002,0.295,0.017
		c0.735,0.118,1.432,0.498,2.024,0.95c0.836,0.639,1.14,1.865,2.04,2.409c0.731,0.442,1.653,0.514,2.507,0.557
		c1.833,0.092,3.631-0.563,5.464-0.656c1.851-0.094,3.728-0.165,5.563,0.099c2.711,0.389,5.399,1.112,7.922,2.179
		c2.972,1.258,5.74,3.008,8.348,4.907c2.556,1.862,4.807,4.117,7.087,6.308c3.299,3.171,5.949,7.027,9.52,9.889
		c1.466,1.175,2.969,2.17,4.818,2.933c2.64,1.09,8.356,1.876,8.356,1.876l2.392,0.598c1.244,0.207,2.371,0.491,3.367,0.844
		l0.057,0.016c0.911,0.326,1.711,0.716,2.392,1.164c-1.848-6.1-5.049-11.916-8.578-17.114
		C164.245,475.558,146.814,466.706,130.945,466.595L130.945,466.595z"/>
	<path id="path3122" inkscape:connector-curvature="0" fill="#682A8F" d="M98.806,477.189c-4.731,3.482-8.974,7.786-12.453,12.887
		c-5.336,7.823-9.208,17.387-9.208,26.921v44.305c-0.004,0.978,0.543,1.474,1.237,1.474h13.436c-1.773-0.87-3.034-2.029-3.728-3.424
		c-5.167-10.386,11.359-28.714,37.055-42.782c1.1-0.806,2.138-1.654,2.106-1.982c-0.042-0.415-1.704,0.262-1.704,0.262
		c-12.26,4.859-23.07,12.516-32.966,20.809c0,0-1.98-8.891-2.819-13.272c-0.516-2.702-1.2-5.386-1.442-8.127
		c-0.222-2.525,0-7.603,0-7.603s0.12-5.11,0.885-7.603c0.801-2.611,3.818-7.529,3.818-7.529s2.459-3.459,4.383-5.383
		c0.489-0.488,0.984-1.437,0.999-2.163c0.013-0.597-0.377-0.96-0.516-1.54c-0.181-0.755-0.362-1.665-0.336-2.442
		c0.02-0.595,0.144-1.094,0.401-1.63C98.14,477.981,98.52,477.519,98.806,477.189z"/>
	<path id="path3094" inkscape:connector-curvature="0" fill="#682A8F" d="M183.32,516.922c-3.994,9.91-17.491,23.395-37.03,33.876
		c-11.3,6.062-21.555,9.917-30.222,11.977h66.057c0.802,0,1.221-0.389,1.221-1.45C183.333,548.089,183.323,532.394,183.32,516.922
		L183.32,516.922z"/>
	<path id="path3096" inkscape:connector-curvature="0" fill="#682A8F" d="M167.968,515.931c-7.164-0.012-21.617,5.035-36.834,13.649
		c-22.358,12.655-32.433,25.272-28.559,27.617c5.164,3.125,21.749,1.703,44.92-11.674c9.509-5.49,27.424-18.77,25.077-27.528
		C172.197,516.595,170.558,515.935,167.968,515.931z M133.477,531.496c0,0,5.03,9.62-2.752,15.533
		c-10.637,8.082-18.482-0.525-18.482-0.525C117.479,540.935,124.863,535.594,133.477,531.496z"/>
</g>
</svg>
