<svg enable-background="new 0 0 95 95" height="95" viewBox="0 0 95 95" width="95" xmlns="http://www.w3.org/2000/svg"><path d="m94.662 25.787-41.207 8.204v2.874l.131-.034c27.222-6.617 41.075-10.597 41.187-10.625.154-.04.209-.16.188-.261-.024-.107-.135-.195-.299-.158" fill="#49166d"/><path d="m59.75 27.566v-.004zm1.409-2.564c-2.003.114-5.712 3.081-7.748 4.843-8.106 7.014-14.134 13.461-18.519 20.213-9.137 4.895-20.788 9.927-32.354 13.855l-.278.094-2.226 5.994 1.271-.491c7.358-2.804 19.64-8.07 30.772-13.925-.627 1.672-.943 3.209-.943 4.611 0 1.045.175 2.016.524 2.899.7 1.765 2.08 3.101 3.993 3.86 2.849 1.135 6.735 1.156 11.171-.187 11.33-3.435 24.768-13.979 27.694-16.075l.111-.078c.115-.084.123-.209.075-.293-.063-.099-.198-.123-.312-.057l-.144.087c-3.14 1.886-18.397 10.944-28.315 13.604-5.052 1.354-8.901.615-10.354-1.416-.504-.694-.747-1.572-.747-2.596 0-2 .941-4.545 2.753-7.373 1.668-.949 3.226-1.877 4.63-2.761 9.675-5.438 20.823-16.011 21.3-22.465.002-.044.002-.095.002-.143 0-.558-.24-1.13-.664-1.553-.451-.458-1.049-.689-1.692-.647zm-1.079 3.077c.636-.411.817-.154.631.31-.302.741-1.698 5.199-12.071 13.715-2.707 2.218-4.632 3.462-8.529 5.771 6.382-8.946 15.701-17.024 19.969-19.796z" fill="#6c0"/><path d="m53.32 34.018-43.353 9.318-1.673 4.51 45.161-10.982 1.398-.789-.04-2.053z" fill="#49166d"/></svg>