<?xml version="1.0" encoding="utf-8"?>
<!-- Generator: Adobe Illustrator 16.0.0, SVG Export Plug-In . SVG Version: 6.00 Build 0)  -->
<!DOCTYPE svg PUBLIC "-//W3C//DTD SVG 1.1//EN" "http://www.w3.org/Graphics/SVG/1.1/DTD/svg11.dtd">
<svg version="1.1"
	 id="Layer_1" sodipodi:docname="AJAX.svg" inkscape:version="0.48.1 " xmlns:inkscape="http://www.inkscape.org/namespaces/inkscape" xmlns:sodipodi="http://sodipodi.sourceforge.net/DTD/sodipodi-0.dtd" xmlns:svg="http://www.w3.org/2000/svg" xmlns:rdf="http://www.w3.org/1999/02/22-rdf-syntax-ns#" xmlns:cc="http://creativecommons.org/ns#" xmlns:dc="http://purl.org/dc/elements/1.1/"
	 xmlns="http://www.w3.org/2000/svg" xmlns:xlink="http://www.w3.org/1999/xlink" x="0px" y="0px" width="95px" height="95px"
	 viewBox="0 0 95 95" enable-background="new 0 0 95 95" xml:space="preserve">
<sodipodi:namedview  id="namedview294" inkscape:window-x="-8" fit-margin-bottom="0" inkscape:current-layer="Layer_1" fit-margin-right="0" inkscape:pageshadow="2" inkscape:pageopacity="0" inkscape:window-maximized="1" inkscape:window-y="-8" inkscape:window-width="1280" inkscape:window-height="1004" objecttolerance="10" fit-margin-top="0" borderopacity="1" inkscape:cy="-18.205373" showgrid="false" bordercolor="#666666" inkscape:cx="169.34897" pagecolor="#ffffff" inkscape:zoom="2.4350534" guidetolerance="10" fit-margin-left="0" gridtolerance="10">
	</sodipodi:namedview>
<g>
	<path id="path246" inkscape:connector-curvature="0" fill="#49166D" d="M94.662,25.787l-41.207,8.204v2.874l0.131-0.034
		c27.222-6.617,41.075-10.597,41.187-10.625c0.154-0.04,0.209-0.16,0.188-0.261C94.937,25.838,94.826,25.75,94.662,25.787"/>
	<path id="path248" inkscape:connector-curvature="0" fill="#66CC00" d="M59.75,27.566v-0.004V27.566 M61.159,25.002
		c-2.003,0.114-5.712,3.081-7.748,4.843c-8.106,7.014-14.134,13.461-18.519,20.213c-9.137,4.895-20.788,9.927-32.354,13.855
		l-0.278,0.094l-2.226,5.994l1.271-0.491c7.358-2.804,19.64-8.07,30.772-13.925c-0.627,1.672-0.943,3.209-0.943,4.611
		c0,1.045,0.175,2.016,0.524,2.899c0.7,1.765,2.08,3.101,3.993,3.86c2.849,1.135,6.735,1.156,11.171-0.187
		c11.33-3.435,24.768-13.979,27.694-16.075l0.111-0.078c0.115-0.084,0.123-0.209,0.075-0.293c-0.063-0.099-0.198-0.123-0.312-0.057
		l0,0l0,0l-0.144,0.087c-3.14,1.886-18.397,10.944-28.315,13.604c-5.052,1.354-8.901,0.615-10.354-1.416
		c-0.504-0.694-0.747-1.572-0.747-2.596c0-2,0.941-4.545,2.753-7.373c1.668-0.949,3.226-1.877,4.63-2.761
		c9.675-5.438,20.823-16.011,21.3-22.465c0.002-0.044,0.002-0.095,0.002-0.143c0-0.558-0.24-1.13-0.664-1.553
		C62.4,25.191,61.802,24.96,61.159,25.002L61.159,25.002z M60.08,28.079c0.636-0.411,0.817-0.154,0.631,0.31
		c-0.302,0.741-1.698,5.199-12.071,13.715c-2.707,2.218-4.632,3.462-8.529,5.771C46.493,38.929,55.812,30.851,60.08,28.079z"/>
	<polyline id="polyline250" fill="#49166D" points="53.32,34.018 9.967,43.336 8.294,47.846 53.455,36.864 54.853,36.075 
		54.813,34.022 53.32,34.018 	"/>
</g>
</svg>
