<?xml version="1.0" encoding="utf-8"?>
<!-- Generator: Adobe Illustrator 16.0.0, SVG Export Plug-In . SVG Version: 6.00 Build 0)  -->
<!DOCTYPE svg PUBLIC "-//W3C//DTD SVG 1.1//EN" "http://www.w3.org/Graphics/SVG/1.1/DTD/svg11.dtd">
<svg version="1.1" id="Layer_1" xmlns="http://www.w3.org/2000/svg" xmlns:xlink="http://www.w3.org/1999/xlink" x="0px" y="0px"
	 width="500px" height="500px" viewBox="0 0 500 500" enable-background="new 0 0 500 500" xml:space="preserve">
<g id="TESLA">
	<g>
		<polyline fill="#FFFFFF" points="343.672,403.28 343.672,425.192 350.698,425.192 350.698,410.603 376.273,410.603 
			376.273,425.192 383.295,425.192 383.295,403.318 343.672,403.28 		"/>
		<path fill="#FFFFFF" d="M349.916,396.192h27.021c3.753-0.747,6.544-4.06,7.33-7.263h-41.681
			C343.364,392.135,346.196,395.445,349.916,396.192"/>
	</g>
	<g>
		<path fill="#FFFFFF" d="M322.389,425.206c3.543-1.502,5.449-4.1,6.181-7.14h-31.519l0.021-29.119l-7.065,0.021v36.238H322.389"/>
	</g>
	<g>
		<path fill="#FFFFFF" d="M237.468,396.094h24.954c3.763-1.093,6.921-3.959,7.691-7.136h-39.642v21.415h32.444v7.515l-25.449,0.021
			c-3.986,1.11-7.37,3.79-9.057,7.327l2.062-0.038h39.415v-21.944h-32.42L237.468,396.094"/>
	</g>
	<g>
		<path fill="#FFFFFF" d="M175.865,396.163h27.011c3.758-0.749,6.551-4.058,7.334-7.265h-41.679
			C169.311,392.105,172.143,395.414,175.865,396.163"/>
		<path fill="#FFFFFF" d="M175.865,410.485h27.011c3.758-0.741,6.551-4.055,7.334-7.264h-41.679
			C169.311,406.433,172.143,409.744,175.865,410.485"/>
		<path fill="#FFFFFF" d="M175.865,425.202h27.011c3.758-0.747,6.551-4.06,7.334-7.263h-41.679
			C169.311,421.145,172.143,424.455,175.865,425.202"/>
	</g>
	<g>
		<path fill="#FFFFFF" d="M105.594,388.986c0.813,3.166,3.556,6.402,7.316,7.215h11.37l0.58,0.229v28.691h7.1V396.43l0.646-0.229
			h11.38c3.804-0.98,6.485-4.049,7.285-7.215v-0.07h-45.678V388.986"/>
	</g>
</g>
<g id="T">
	<path fill="#FFFFFF" d="M250.216,317.299l35.478-199.519c33.813,0,44.48,3.708,46.021,18.843c0,0,22.685-8.458,34.125-25.636
		c-44.646-20.688-89.506-21.621-89.506-21.621l-26.176,31.882l0.059-0.004L224.04,89.361c0,0-44.86,0.934-89.5,21.622
		c11.431,17.178,34.124,25.636,34.124,25.636c1.549-15.136,12.202-18.844,45.79-18.868L250.216,317.299"/>
	<path fill="#FFFFFF" d="M250.202,80.157c36.09-0.276,77.399,5.583,119.687,24.014c5.652-10.173,7.105-14.669,7.105-14.669
		c-46.227-18.289-89.519-24.548-126.797-24.705c-37.277,0.157-80.566,6.417-126.787,24.705c0,0,2.062,5.538,7.1,14.669
		c42.28-18.431,83.598-24.29,119.688-24.014H250.202"/>
</g>
</svg>
