<svg enable-background="new 0 0 500 500" height="500" viewBox="0 0 500 500" width="500" xmlns="http://www.w3.org/2000/svg"><g fill="#fff"><path d="m343.672 403.28v21.912h7.026v-14.589h25.575v14.589h7.022v-21.874z"/><path d="m349.916 396.192h27.021c3.753-.747 6.544-4.06 7.33-7.263h-41.681c.778 3.206 3.61 6.516 7.33 7.263"/><path d="m322.389 425.206c3.543-1.502 5.449-4.1 6.181-7.14h-31.519l.021-29.119-7.065.021v36.238z"/><path d="m237.468 396.094h24.954c3.763-1.093 6.921-3.959 7.691-7.136h-39.642v21.415h32.444v7.515l-25.449.021c-3.986 1.11-7.37 3.79-9.057 7.327l2.062-.038h39.415v-21.944h-32.42z"/><path d="m175.865 396.163h27.011c3.758-.749 6.551-4.058 7.334-7.265h-41.679c.78 3.207 3.612 6.516 7.334 7.265"/><path d="m175.865 410.485h27.011c3.758-.741 6.551-4.055 7.334-7.264h-41.679c.78 3.212 3.612 6.523 7.334 7.264"/><path d="m175.865 425.202h27.011c3.758-.747 6.551-4.06 7.334-7.263h-41.679c.78 3.206 3.612 6.516 7.334 7.263"/><path d="m105.594 388.986c.813 3.166 3.556 6.402 7.316 7.215h11.37l.58.229v28.691h7.1v-28.691l.646-.229h11.38c3.804-.98 6.485-4.049 7.285-7.215v-.07h-45.678v.07"/><path d="m250.216 317.299 35.478-199.519c33.813 0 44.48 3.708 46.021 18.843 0 0 22.685-8.458 34.125-25.636-44.646-20.688-89.506-21.621-89.506-21.621l-26.176 31.882.059-.004-26.177-31.883s-44.86.934-89.5 21.622c11.431 17.178 34.124 25.636 34.124 25.636 1.549-15.136 12.202-18.844 45.79-18.868z"/><path d="m250.202 80.157c36.09-.276 77.399 5.583 119.687 24.014 5.652-10.173 7.105-14.669 7.105-14.669-46.227-18.289-89.519-24.548-126.797-24.705-37.277.157-80.566 6.417-126.787 24.705 0 0 2.062 5.538 7.1 14.669 42.28-18.431 83.598-24.29 119.688-24.014z"/></g></svg>