<?xml version="1.0" encoding="utf-8"?>
<!-- Generator: Adobe Illustrator 16.0.0, SVG Export Plug-In . SVG Version: 6.00 Build 0)  -->
<!DOCTYPE svg PUBLIC "-//W3C//DTD SVG 1.1//EN" "http://www.w3.org/Graphics/SVG/1.1/DTD/svg11.dtd">
<svg version="1.1" id="Layer_1" xmlns="http://www.w3.org/2000/svg" xmlns:xlink="http://www.w3.org/1999/xlink" x="0px" y="0px"
	 width="200px" height="200px" viewBox="0 0 200 200" enable-background="new 0 0 200 200" xml:space="preserve">
<g>
	<path fill-rule="evenodd" clip-rule="evenodd" fill="#144270" d="M146.555,49.381c4.71-0.011,9.42,0,14.13-0.005
		c2.53,4.271,5.055,8.547,7.587,12.816c2.508-4.252,4.958-8.542,7.437-12.813c4.718-0.002,9.437-0.005,14.154,0.001
		c-5.02,7.245-10.059,14.477-15.083,21.719c-0.185,0.3-0.511,0.563-0.466,0.949c0.003,5.321,0.002,10.642,0.001,15.961
		c-4.096,0-8.19,0-12.286,0c-0.001-5.321-0.003-10.642,0.001-15.962c-0.005-0.149-0.004-0.309-0.104-0.43
		c-4.82-6.958-9.637-13.919-14.456-20.879C147.164,50.286,146.831,49.852,146.555,49.381L146.555,49.381z"/>
	<path fill-rule="evenodd" clip-rule="evenodd" fill="#144270" d="M28.082,49.485c5.426,0,10.853,0,16.279,0
		c2.553-0.016,5.113,0.172,7.621,0.664c3.19,0.572,6.29,1.958,8.604,4.264c2.273,2.326,3.691,5.406,4.246,8.593
		c0.523,2.947,0.562,5.967,0.305,8.943c-0.346,3.693-1.376,7.459-3.722,10.404c-2.032,2.59-5.016,4.334-8.198,5.097
		c-2.321,0.593-4.731,0.697-7.116,0.669c-6.006,0-12.013,0.001-18.019,0C28.081,75.241,28.08,62.363,28.082,49.485L28.082,49.485
		L28.082,49.485z M40.343,58.539c-0.002,6.896-0.001,13.792-0.001,20.689c1.488,0,2.974-0.001,4.462,0.001
		c1.032,0.013,2.082-0.07,3.062-0.414c1.248-0.424,2.271-1.336,3.072-2.361c1.229-1.638,1.79-3.681,1.957-5.699
		c0.215-1.742,0.105-3.506-0.153-5.236c-0.229-1.452-0.718-2.884-1.547-4.105c-0.85-1.194-2.044-2.214-3.483-2.596
		c-0.699-0.194-1.428-0.278-2.152-0.28C43.819,58.541,42.08,58.539,40.343,58.539L40.343,58.539z"/>
	<path fill-rule="evenodd" clip-rule="evenodd" fill="#144270" d="M78.221,49.484c4.622-0.001,9.243,0.006,13.865-0.003
		c4.835,12.873,9.638,25.758,14.462,38.635c-4.392-0.001-8.782,0.014-13.174-0.007c-0.546-1.787-1.124-3.563-1.683-5.346
		c-4.477,0-8.953,0.001-13.43-0.001c-0.577,1.782-1.124,3.574-1.704,5.355c-4.385-0.001-8.771,0.004-13.155-0.003
		c4.92-12.869,9.843-25.736,14.771-38.603L78.221,49.484L78.221,49.484L78.221,49.484z M80.895,74.091
		c2.756-0.003,5.511-0.001,8.266,0c-1.352-4.509-2.715-9.016-4.073-13.524C83.672,65.069,82.293,69.583,80.895,74.091L80.895,74.091
		z"/>
	<path fill-rule="evenodd" clip-rule="evenodd" fill="#144270" d="M108.905,49.487c4.096-0.004,8.192-0.002,12.287-0.001
		c0.006,12.876,0,25.754,0.002,38.631c-4.096,0.002-8.192,0.001-12.29,0.001C108.904,75.241,108.903,62.364,108.905,49.487
		L108.905,49.487z"/>
	<path fill-rule="evenodd" clip-rule="evenodd" fill="#144270" d="M126.195,49.487c4.088-0.002,8.175-0.005,12.263,0.001
		c-0.002,9.505-0.001,19.011-0.001,28.516c6.062-0.001,12.123,0.002,18.185-0.002c0.01,3.372,0.001,6.742,0.004,10.114
		c-10.15,0.004-20.3,0.003-30.45,0C126.195,75.241,126.193,62.364,126.195,49.487L126.195,49.487z"/>
	<path fill-rule="evenodd" clip-rule="evenodd" fill="#144270" d="M10.709,59.57c-0.004-3.292-0.002-6.583-0.001-9.875
		c0.878,0.202,1.758,0.401,2.636,0.605c0,1.994,0.006,3.989-0.002,5.983c0.014,0.163-0.029,0.347,0.041,0.5
		c0.859,0.229,1.733,0.399,2.6,0.598c0.001-2.083-0.001-4.167,0.001-6.25c0.834,0.185,1.668,0.372,2.501,0.563
		c0.004,2.087-0.015,4.177,0.01,6.265c1.096,0.231,2.185,0.496,3.278,0.738c0-2.485,0.001-4.968,0-7.453
		c0.876,0.202,1.771,0.338,2.631,0.595c0.016,3.617,0.006,7.236,0.004,10.853C19.842,61.653,15.277,60.609,10.709,59.57
		L10.709,59.57z"/>
	<path fill-rule="evenodd" clip-rule="evenodd" fill="#144270" d="M10.709,62.593c4.566,1.041,9.133,2.073,13.701,3.107
		c0.001,1.155,0.004,2.31-0.001,3.464c-2.021-0.458-4.04-0.919-6.061-1.373c-0.003,1.683,0.002,3.368-0.003,5.051
		c2.021,0.475,4.048,0.915,6.069,1.389c-0.006,1.139-0.003,2.278-0.002,3.417c-4.567-1.039-9.132-2.086-13.7-3.12
		c-0.012-1.142-0.002-2.284-0.006-3.426c1.66,0.369,3.317,0.746,4.975,1.121c0.002-1.681,0.004-3.361,0-5.042
		c-1.659-0.376-3.319-0.746-4.977-1.126C10.71,64.901,10.704,63.747,10.709,62.593L10.709,62.593z"/>
	<path fill-rule="evenodd" clip-rule="evenodd" fill="#144270" d="M10.709,87.654c-0.005-3.588-0.001-7.176-0.002-10.765
		c0.888,0.233,1.778,0.455,2.667,0.683c0.006,1.173-0.018,2.346,0.009,3.517c0.229,0.125,0.506,0.134,0.757,0.201
		c3.425,0.773,6.852,1.534,10.275,2.316c-0.006,1.15-0.003,2.302-0.002,3.454c-3.682-0.82-7.36-1.655-11.04-2.48
		c0,1.251,0,2.503,0,3.756C12.485,88.111,11.596,87.89,10.709,87.654L10.709,87.654z"/>
</g>
<g>
	<path fill-rule="evenodd" clip-rule="evenodd" fill="#647385" d="M111.297,92.344c2.962-0.134,5.974,0.095,8.815,0.976
		c3.479,1.1,6.712,3.139,8.98,6.022c2.35,2.909,3.679,6.538,4.168,10.219c0.541,4.193,0.014,8.539-1.622,12.443
		c-1.423,3.348-3.828,6.281-6.887,8.258c-1.678,1.086-3.504,1.963-5.433,2.5c-2.76,0.77-5.655,0.947-8.507,0.791
		c-3.813-0.217-7.626-1.33-10.786-3.516c-2.863-1.951-5.074-4.797-6.354-8.01c-1.401-3.416-1.805-7.174-1.563-10.838
		c0.248-3.068,0.992-6.135,2.425-8.873c1.446-2.754,3.595-5.144,6.233-6.802c1.631-1.029,3.393-1.867,5.257-2.37
		C107.742,92.668,109.519,92.43,111.297,92.344L111.297,92.344L111.297,92.344z M111.397,102.124
		c-2.314,0.32-4.361,1.838-5.507,3.852c-1.037,1.814-1.424,3.92-1.536,5.986c-0.123,2.506,0.057,5.109,1.102,7.424
		c0.775,1.75,2.187,3.256,3.997,3.936c2.019,0.754,4.318,0.795,6.344,0.035c1.532-0.561,2.78-1.74,3.609-3.129
		c1.136-1.902,1.632-4.117,1.741-6.314c0.136-2.545,0.009-5.217-1.153-7.535c-0.75-1.584-2.033-2.934-3.64-3.654
		C114.803,102.061,113.063,101.86,111.397,102.124L111.397,102.124z"/>
	<path fill-rule="evenodd" clip-rule="evenodd" fill="#647385" d="M27.953,92.592c2.754-0.26,5.544-0.086,8.261,0.425
		c2.13,0.422,4.236,1.037,6.194,1.986c2.126,1.037,4.05,2.504,5.565,4.325c-2.582,2.134-5.153,4.28-7.738,6.411
		c-0.899-1.377-2.36-2.248-3.848-2.861c-1.242-0.502-2.558-0.822-3.891-0.951c-1.298-0.129-2.614-0.209-3.911-0.021
		c-0.854,0.141-1.73,0.428-2.338,1.074c-0.462,0.465-0.562,1.18-0.433,1.801c0.144,0.625,0.658,1.096,1.218,1.369
		c0.64,0.303,1.328,0.484,2.011,0.662c2.406,0.604,4.885,0.846,7.298,1.414c2.188,0.447,4.351,1.102,6.325,2.162
		c1.676,0.877,3.137,2.17,4.181,3.75c0.99,1.539,1.334,3.408,1.327,5.213c0.029,2.121-0.347,4.281-1.324,6.182
		c-0.964,1.832-2.357,3.449-4.071,4.621c-2.537,1.775-5.577,2.678-8.62,3.088c-2.419,0.332-4.876,0.311-7.307,0.115
		c-3.595-0.283-7.194-1.125-10.372-2.873c-2.461-1.32-4.622-3.197-6.241-5.475c3.129-2.01,6.255-4.023,9.385-6.031
		c0.891,1.836,2.611,3.113,4.445,3.908c1.734,0.762,3.632,1.063,5.512,1.164c1.401,0.039,2.827,0.014,4.182-0.387
		c0.718-0.219,1.435-0.555,1.923-1.143c0.72-0.836,0.656-2.27-0.231-2.965c-0.796-0.619-1.793-0.887-2.75-1.152
		c-2.071-0.514-4.185-0.826-6.282-1.203c-2.124-0.41-4.226-0.986-6.208-1.861c-1.918-0.867-3.744-2.086-4.982-3.818
		c-1.096-1.506-1.659-3.354-1.733-5.205c-0.098-2.287,0.215-4.666,1.348-6.688c0.882-1.521,2.083-2.861,3.516-3.882
		c1.028-0.726,2.162-1.296,3.327-1.767C23.687,93.183,25.825,92.813,27.953,92.592L27.953,92.592z"/>
	<path fill-rule="evenodd" clip-rule="evenodd" fill="#647385" d="M52.141,93.746c4.096-0.002,8.191-0.002,12.288,0
		c0.003,4.676,0,9.353,0.001,14.028c3.852-0.004,7.704,0.002,11.555-0.004c-0.006-4.674,0.002-9.346-0.004-14.019
		c4.097-0.015,8.193-0.002,12.291-0.006c0.001,12.869,0,25.738,0,38.607c-4.097-0.004-8.194,0.006-12.291-0.006
		c0.005-4.955-0.001-9.908,0.003-14.865c-3.852-0.004-7.703,0-11.553-0.002c-0.002,4.959,0,9.914-0.002,14.871
		c-4.097,0.002-8.192,0.002-12.288,0C52.139,119.483,52.138,106.614,52.141,93.746L52.141,93.746z"/>
	<path fill-rule="evenodd" clip-rule="evenodd" fill="#647385" d="M132.993,93.743c3.983,0.003,7.967,0.004,11.95-0.001
		c1.832,8.359,3.616,16.728,5.46,25.085c1.978-8.357,3.923-16.721,5.888-25.08c3.457-0.006,6.915,0.001,10.372-0.003
		c2.05,8.37,4.099,16.743,6.161,25.11c1.604-7.604,3.202-15.209,4.804-22.813c0.187-0.758,0.272-1.551,0.519-2.287
		c3.951-0.024,7.903,0,11.854-0.012c-3.18,12.875-6.412,25.74-9.618,38.609c-4.365,0-8.73-0.002-13.095,0
		c-1.946-7.998-3.892-15.996-5.838-23.994c-1.893,7.998-3.782,15.996-5.676,23.992c-4.383,0.004-8.766,0.002-13.149,0
		C139.412,119.481,136.205,106.612,132.993,93.743L132.993,93.743z"/>
	<path fill-rule="evenodd" clip-rule="evenodd" fill="#647385" d="M99.668,137.168c1.77-0.207,3.694,0.029,5.16,1.113
		c1.034,0.748,1.711,1.945,1.872,3.207c0.314,2.842-0.806,5.879-3.105,7.633c-1.224,0.965-2.78,1.416-4.321,1.488
		c-1.452,0.072-2.981-0.115-4.239-0.893c-0.788-0.473-1.405-1.207-1.77-2.047c-0.662-1.563-0.601-3.361-0.099-4.961
		c0.523-1.635,1.489-3.17,2.896-4.182C97.116,137.766,98.38,137.317,99.668,137.168L99.668,137.168L99.668,137.168z M99.65,140.286
		c-0.733,0.162-1.315,0.709-1.717,1.32c-0.569,0.85-0.885,1.848-1.016,2.857c-0.088,0.82-0.051,1.746,0.51,2.406
		c0.498,0.623,1.373,0.824,2.132,0.689c0.799-0.137,1.467-0.672,1.954-1.297c0.782-1.037,1.125-2.352,1.143-3.637
		c0.004-0.66-0.181-1.359-0.674-1.826C101.377,140.206,100.444,140.122,99.65,140.286L99.65,140.286z"/>
	<path fill-rule="evenodd" clip-rule="evenodd" fill="#647385" d="M144.912,137.163c1.907-0.221,4.011,0.107,5.479,1.432
		c0.916,0.828,1.455,2.035,1.525,3.264c0.125,2.199-0.536,4.475-1.983,6.158c-1.113,1.34-2.728,2.244-4.453,2.484
		c-1.711,0.248-3.563,0.172-5.105-0.686c-1.129-0.617-1.926-1.748-2.219-2.992c-0.529-2.203,0.055-4.574,1.306-6.432
		C140.653,138.54,142.736,137.366,144.912,137.163L144.912,137.163L144.912,137.163z M144.686,140.323
		c-0.816,0.24-1.396,0.939-1.802,1.654c-0.521,0.959-0.807,2.051-0.827,3.145c-0.008,0.758,0.233,1.578,0.862,2.051
		c0.825,0.609,2.019,0.535,2.847-0.031c1.391-0.945,1.999-2.682,2.064-4.303c0.041-0.76-0.141-1.605-0.747-2.115
		C146.428,140.168,145.485,140.116,144.686,140.323L144.686,140.323z"/>
	<path fill-rule="evenodd" clip-rule="evenodd" fill="#647385" d="M10.005,137.456c0.662,0.004,1.325-0.004,1.985,0.006
		c-0.075,1.914-0.099,3.828-0.161,5.742c0.906-1.914,1.809-3.828,2.707-5.744c0.65-0.006,1.301,0.002,1.951-0.004
		c-0.07,1.916-0.159,3.83-0.235,5.746c0.968-1.902,1.89-3.826,2.825-5.744c0.672,0.002,1.344-0.006,2.017,0.006
		c-1.411,2.703-2.834,5.398-4.247,8.1c-0.778-0.002-1.555,0-2.334,0c0.094-1.711,0.199-3.422,0.258-5.135
		c-0.769,1.725-1.607,3.418-2.398,5.133c-0.773,0.002-1.547,0.002-2.32,0c-0.051-1.922-0.018-3.846-0.03-5.768
		C9.991,139.014,10,138.235,10.005,137.456L10.005,137.456z"/>
	<path fill-rule="evenodd" clip-rule="evenodd" fill="#647385" d="M22.313,137.754c0.049-0.104,0.033-0.33,0.204-0.295
		c0.644-0.01,1.288,0,1.931,0c-0.679,2.701-1.347,5.406-2.029,8.107c-0.685-0.008-1.37-0.004-2.054-0.004
		C21.013,142.959,21.669,140.358,22.313,137.754L22.313,137.754z"/>
	<path fill-rule="evenodd" clip-rule="evenodd" fill="#647385" d="M25.62,137.458c2.127,0.004,4.254-0.008,6.381,0.004
		c-0.153,0.535-0.303,1.07-0.453,1.607c-0.698-0.002-1.395,0-2.092-0.002c-0.556,2.162-1.086,4.33-1.632,6.496
		c-0.688-0.002-1.375,0-2.062,0c0.541-2.166,1.075-4.332,1.628-6.496c-0.735,0-1.472,0.002-2.208-0.002
		C25.324,138.528,25.473,137.993,25.62,137.458L25.62,137.458z"/>
	<path fill-rule="evenodd" clip-rule="evenodd" fill="#647385" d="M33.388,137.456c0.68,0.004,1.358,0.002,2.037,0.002
		c-0.244,0.979-0.5,1.955-0.742,2.938c0.985-0.002,1.971-0.002,2.958-0.002c0.253-0.977,0.498-1.957,0.744-2.936
		c0.683,0,1.366,0,2.048,0c-0.676,2.703-1.362,5.404-2.047,8.105c-0.683,0-1.367-0.002-2.05,0c0.293-1.184,0.601-2.367,0.898-3.553
		c-0.991-0.016-1.98-0.002-2.971-0.008c-0.297,1.186-0.6,2.373-0.899,3.559c-0.681,0.002-1.362,0.002-2.044,0
		C32.015,142.86,32.685,140.155,33.388,137.456L33.388,137.456z"/>
	<path fill-rule="evenodd" clip-rule="evenodd" fill="#647385" d="M44.875,137.459c3.53-0.004,7.061,0,10.592-0.002
		c-0.253,0.955-0.522,1.908-0.782,2.861c-1.044-0.002-2.089,0.002-3.133,0c-0.847,3.324-1.668,6.654-2.514,9.98
		c-1.365-0.008-2.729,0.004-4.095-0.008c0.835-3.324,1.687-6.646,2.518-9.973c-1.124,0-2.246-0.002-3.369,0.002
		C44.351,139.366,44.615,138.413,44.875,137.459L44.875,137.459z"/>
	<path fill-rule="evenodd" clip-rule="evenodd" fill="#647385" d="M56.995,137.456c1.918,0.01,3.837-0.01,5.755,0.01
		c1.007,0.053,2.093-0.002,2.992,0.535c0.842,0.48,1.388,1.383,1.528,2.332c0.174,1.271-0.085,2.686-1.006,3.633
		c-0.563,0.615-1.343,0.963-2.12,1.23c0.7,1.705,1.449,3.393,2.152,5.098c-1.452,0.008-2.904,0.002-4.355,0.004
		c-0.525-1.533-1.053-3.064-1.578-4.596c-0.472,0-0.944,0-1.415-0.002c-0.388,1.533-0.78,3.064-1.164,4.598
		c-1.336,0-2.672,0.002-4.008,0C54.845,146.014,55.912,141.733,56.995,137.456L56.995,137.456L56.995,137.456z M59.613,143.061
		c0.955-0.053,1.947,0.135,2.872-0.164c0.948-0.289,1.331-1.76,0.523-2.385c-0.812-0.455-1.789-0.256-2.677-0.303
		C60.081,141.157,59.852,142.11,59.613,143.061L59.613,143.061z"/>
	<path fill-rule="evenodd" clip-rule="evenodd" fill="#647385" d="M70.788,137.456c3.267,0.006,6.532,0,9.799,0.002
		c-0.21,0.959-0.471,1.906-0.7,2.861c-1.925-0.004-3.849,0.008-5.772-0.006c-0.182,0.648-0.343,1.305-0.506,1.959
		c1.854-0.002,3.708-0.002,5.563,0c-0.233,0.943-0.473,1.887-0.706,2.83c-1.856,0.002-3.712,0.002-5.568,0
		c-0.194,0.771-0.393,1.541-0.593,2.309c2.231,0,4.464,0,6.695,0c-0.239,0.963-0.458,1.93-0.705,2.889
		c-3.582-0.004-7.165-0.002-10.748,0C68.627,146.018,69.703,141.735,70.788,137.456L70.788,137.456z"/>
	<path fill-rule="evenodd" clip-rule="evenodd" fill="#647385" d="M81.598,137.461c1.335-0.008,2.671-0.004,4.006-0.002
		c0.147,2.541,0.264,5.084,0.422,7.623c1.264-2.551,2.575-5.078,3.848-7.625c1.517,0,3.034-0.002,4.552,0.002
		c-2.41,4.291-4.866,8.555-7.294,12.834c-1.467,0.006-2.934,0.004-4.401,0.004C82.354,146.018,81.978,141.739,81.598,137.461
		L81.598,137.461z"/>
	<path fill-rule="evenodd" clip-rule="evenodd" fill="#647385" d="M109.462,137.463c1.826-0.016,3.653-0.002,5.48-0.006
		c0.829,0.031,1.671,0.021,2.483,0.215c1.126,0.27,2.016,1.244,2.262,2.365c0.327,1.463-0.034,3.168-1.206,4.174
		c-0.528,0.484-1.208,0.748-1.871,0.988c0.724,1.697,1.451,3.393,2.161,5.098c-1.449,0.002-2.898-0.004-4.349,0.002
		c-0.535-1.531-1.062-3.063-1.58-4.598c-0.475-0.002-0.949,0-1.422,0c-0.386,1.533-0.776,3.064-1.164,4.598
		c-1.336-0.008-2.673,0.004-4.009-0.008C107.323,146.018,108.39,141.741,109.462,137.463L109.462,137.463L109.462,137.463z
		 M112.801,140.209c-0.235,0.951-0.476,1.9-0.714,2.852c0.962-0.051,1.963,0.139,2.895-0.172c0.925-0.293,1.295-1.717,0.53-2.355
		C114.697,140.049,113.701,140.256,112.801,140.209L112.801,140.209z"/>
	<path fill-rule="evenodd" clip-rule="evenodd" fill="#647385" d="M126.853,137.459c1.377-0.004,2.754-0.004,4.131,0
		c0.602,2.16,1.194,4.32,1.807,6.477c0.538-2.16,1.076-4.32,1.611-6.48c1.287,0.006,2.574-0.002,3.862,0.004
		c-1.072,4.279-2.154,8.559-3.234,12.836c-1.377,0.002-2.752,0.002-4.129,0c-0.618-2.215-1.228-4.43-1.856-6.641
		c-0.557,2.213-1.112,4.426-1.663,6.643c-1.26-0.004-2.519,0.006-3.777-0.006C124.688,146.014,125.775,141.739,126.853,137.459
		L126.853,137.459z"/>
	<path fill-rule="evenodd" clip-rule="evenodd" fill="#647385" d="M158.147,137.456c1.5,0.002,2.999,0.002,4.499,0
		c0.367,4.279,0.726,8.559,1.077,12.842c-1.391,0-2.78,0-4.171,0c-0.005-0.617-0.004-1.232-0.001-1.85
		c-1.242-0.002-2.483,0.002-3.725,0c-0.381,0.615-0.756,1.232-1.137,1.848c-1.545,0.002-3.091,0.004-4.635,0
		C152.752,146.014,155.453,141.737,158.147,137.456L158.147,137.456L158.147,137.456z M159.577,141.293
		c-0.779,1.438-1.546,2.881-2.32,4.32c0.765,0,1.53,0,2.295,0C159.558,144.172,159.593,142.735,159.577,141.293L159.577,141.293z"/>
	<path fill-rule="evenodd" clip-rule="evenodd" fill="#647385" d="M167.818,137.459c1.348,0,2.695-0.01,4.044,0.004
		c-0.357,1.486-0.741,2.967-1.096,4.455c1.284-0.006,2.568,0,3.854-0.002c0.381-1.486,0.749-2.975,1.122-4.461
		c1.368,0.004,2.735,0,4.104,0.004c-1.068,4.279-2.15,8.555-3.218,12.836c-1.366,0.002-2.733,0.006-4.099-0.002
		c0.445-1.746,0.868-3.5,1.322-5.244c-1.301-0.004-2.602,0-3.902,0c-0.444,1.748-0.871,3.502-1.322,5.248
		c-1.348-0.002-2.693,0-4.039,0C165.657,146.016,166.744,141.739,167.818,137.459L167.818,137.459z"/>
</g>
</svg>
