<?xml version="1.0" encoding="utf-8"?>
<!-- Generator: Adobe Illustrator 16.0.0, SVG Export Plug-In . SVG Version: 6.00 Build 0)  -->
<!DOCTYPE svg PUBLIC "-//W3C//DTD SVG 1.1//EN" "http://www.w3.org/Graphics/SVG/1.1/DTD/svg11.dtd">
<svg version="1.1" id="Layer_1" xmlns="http://www.w3.org/2000/svg" xmlns:xlink="http://www.w3.org/1999/xlink" x="0px" y="0px"
	 width="431.445px" height="431.445px" viewBox="25.222 25.223 431.445 431.445"
	 enable-background="new 25.222 25.223 431.445 431.445" xml:space="preserve">
<g>
	<polygon id="_54807176" fill="#FFFFFF" points="190.502,208.759 179.492,208.759 179.492,165.376 163.554,165.376 163.554,156.056 
		206.44,156.056 206.44,165.376 190.502,165.376 	"/>
	<polygon id="_54806200" fill="#FFFFFF" points="220.309,185.118 220.309,208.759 209.299,208.759 209.299,156.056 220.309,156.056 
		220.309,176.031 240.85,176.031 240.85,156.056 251.869,156.056 251.869,208.759 240.85,208.759 240.85,185.118 	"/>
	<polygon id="_54805224" fill="#FFFFFF" points="295.925,165.376 268.228,165.376 268.228,176.464 292.617,176.464 292.617,185.784 
		268.228,185.784 268.228,199.439 295.988,199.439 295.988,208.759 257.972,208.759 257.972,156.056 295.925,156.056 	"/>
	<polygon id="_54804504" fill="#FFFFFF" points="88.981,213.966 99.275,213.966 99.275,266.666 88.256,266.666 66.752,229.088 
		66.596,229.088 66.596,266.666 56.321,266.666 56.321,213.966 67.909,213.966 88.834,250.664 88.981,250.664 	"/>
	<path id="_54803152" fill="#FFFFFF" d="M130.001,258.74c5.941,0,14.298-3.67,14.298-18.424c0-14.746-8.358-18.43-14.298-18.43
		c-5.942,0-14.327,3.685-14.327,18.43C115.676,255.07,124.059,258.742,130.001,258.74L130.001,258.74z M130.001,212.567
		c6.968,0,25.307,3.014,25.307,27.749c0.001,24.731-18.34,27.745-25.307,27.745c-6.986,0-25.336-3.014-25.336-27.745
		C104.666,215.581,123.015,212.567,130.001,212.567z"/>
	<polygon id="_54865864" fill="#FFFFFF" points="233.466,266.666 222.447,266.666 222.447,223.281 206.518,223.281 206.518,213.966 
		249.376,213.966 249.376,223.281 233.466,223.281 	"/>
	<polygon id="_54865008" fill="#FFFFFF" points="264.339,243.041 264.339,266.666 253.337,266.666 253.337,213.966 264.339,213.966 
		264.339,233.923 284.888,233.923 284.888,213.966 295.925,213.966 295.925,266.666 284.888,266.666 284.888,243.041 	"/>
	<polygon id="_54864288" fill="#FFFFFF" points="138.77,324.57 127.76,324.57 127.76,271.867 165.261,271.867 165.261,281.197 
		138.77,281.197 138.77,293.085 161.973,293.085 161.973,302.414 138.77,302.414 	"/>
	<path id="_54863304" fill="#FFFFFF" d="M176.884,304.609H190.3l-6.527-20.85h-0.14L176.884,304.609z M170.266,324.57h-11.597
		l18.802-52.703h12.699l18.56,52.703h-11.973l-3.375-10.865h-19.438L170.266,324.57z"/>
	<path id="_54862224" fill="#FFFFFF" d="M242.548,289.119c-0.865-3.154-2.573-9.1-11.683-9.1c-5.279,0-13.066,3.521-13.066,18.416
		c0,9.477,3.746,17.996,13.066,17.996c6.108,0,10.359-3.457,11.683-9.91h11c-2.195,11.445-9.672,19.445-22.894,19.445
		c-14.02,0-24.085-9.457-24.085-27.672c0-18.422,10.643-27.82,24.241-27.82c15.778,0,22.149,10.871,22.735,18.645H242.548z"/>
	<polygon id="_55197680" fill="#FFFFFF" points="295.925,281.197 268.228,281.197 268.228,292.269 292.617,292.269 292.617,301.595 
		268.228,301.595 268.228,315.25 295.988,315.25 295.988,324.57 257.972,324.57 257.972,271.867 295.925,271.867 	"/>
	<path id="_55197592" fill="#FFFFFF" d="M184.377,237.087c5.713,0,8.495-1.983,8.495-7.185c0-2.774-1.25-6.874-7.693-6.874h-13.694
		v14.059H184.377L184.377,237.087z M160.708,213.94h26.599c13.985,0,16.538,10.322,16.538,14.877
		c0.001,5.775-2.93,10.759-8.128,12.518c4.325,1.905,6.676,3.509,6.676,13.323c0.001,7.693,0,9.596,2.34,10.48l0.001,1.383h-12.176
		c-0.726-2.486-1.156-5.203-1.156-10.615c0-7.176-0.431-9.963-8.576-9.963h-11.341v20.578h-10.776V213.94L160.708,213.94z"/>
	<g>
		<polygon fill="#FFFFFF" points="329.929,324.552 329.921,287.664 329.916,287.664 329.896,286.763 329.83,285.878 
			329.716,285.007 329.566,284.154 329.373,283.308 329.136,282.486 328.861,281.677 328.552,280.884 328.203,280.117 
			327.82,279.365 327.4,278.632 326.943,277.929 326.457,277.246 325.943,276.583 325.394,275.955 324.816,275.351 324.21,274.771 
			323.582,274.224 322.921,273.708 322.238,273.222 321.533,272.767 320.8,272.345 320.048,271.962 319.281,271.613 
			318.486,271.302 317.681,271.029 316.853,270.792 316.009,270.597 315.152,270.449 314.281,270.335 313.394,270.267 
			312.492,270.244 303.13,270.273 303.13,324.552 329.929,324.554 		"/>
		<polygon fill="#FFFFFF" points="303.13,212.36 303.13,268.042 312.492,268.013 313.5,268.037 314.5,268.113 315.484,268.236 
			316.455,268.412 317.404,268.632 318.337,268.894 319.255,269.203 320.146,269.558 321.021,269.951 321.869,270.386 
			322.689,270.859 323.488,271.369 324.259,271.916 325,272.501 325.716,273.119 326.398,273.767 327.048,274.451 327.666,275.167 
			328.25,275.908 328.798,276.677 329.306,277.478 329.779,278.298 330.214,279.144 330.607,280.019 330.96,280.908 
			331.269,281.822 331.533,282.757 331.753,283.707 331.929,284.675 332.05,285.66 332.126,286.658 332.156,287.664 
			332.152,287.664 332.16,324.552 332.16,324.554 373.177,324.558 373.177,276.925 373.091,273.597 372.841,270.32 372.429,267.089 
			371.865,263.914 371.144,260.789 370.273,257.724 369.259,254.726 368.105,251.796 366.812,248.939 365.388,246.156 
			363.833,243.45 362.154,240.833 360.353,238.302 358.439,235.861 356.412,233.522 354.273,231.276 352.033,229.141 
			349.693,227.112 347.253,225.192 344.722,223.397 342.107,221.714 339.402,220.16 336.619,218.735 333.763,217.442 
			330.832,216.288 327.833,215.273 324.775,214.401 321.65,213.681 318.474,213.117 315.246,212.704 311.968,212.454 
			308.642,212.373 308.642,212.369 		"/>
		<path fill="#FFFFFF" d="M303.189,155.926l-0.059-0.001v54.205l5.512,0.009v-0.004l3.432,0.09l3.391,0.258l3.342,0.422l3.291,0.591
			l3.229,0.746l3.172,0.898l3.104,1.05l3.029,1.198l2.961,1.337l2.879,1.477l2.793,1.608l2.711,1.734l2.617,1.866l2.52,1.98
			l2.426,2.099l2.32,2.214l2.207,2.315l2.1,2.427l1.982,2.521l1.861,2.618l1.734,2.713l1.607,2.794l1.475,2.879l1.338,2.963
			l1.197,3.033l1.049,3.104l0.898,3.17l0.746,3.229l0.59,3.291l0.422,3.344l0.258,3.393l0.086,3.432v47.633l50.16,0.004v-45.904
			C425.568,210.881,370.945,155.926,303.189,155.926z"/>
	</g>
</g>
</svg>
