<svg enable-background="new 0 0 400 300" viewBox="0 0 400 300" xmlns="http://www.w3.org/2000/svg"><path d="m99.1 66.3c.9-1.9 1.9-3.9 4-7.1.3 0 1.3-.7 2 .8 10.1.1 15.1.1 19 0 .7 0 1.5-.5 1.8-.8.3-.2 1.2-.4 1.5.5.2.9-2.8 6.3-3 7.4-1.5 2.6-1.9-.5-2.8-2.4s-4.5-1.5-4.8.3c-.3 1.9-.1 15.9.3 18 .1.7.3 1.8 1.6 2.4 1.6.7 1.6 2.5-.2 2.5-1.1 0-3.1.1-4.8.1s-3.5 0-5.1 0c-1.1 0-1.6-1.8-.3-2.5.9-.4 1.4-1.4 1.4-2.4.2-6.2.1-14.9-.5-18.4-.4-1.9-3-1.4-4.9-.2-1.7 1.1-3 2.8-3.4 3.2-.6.7-3.2 1.6-1.8-1.4zm29.8.2c.2 2.1 0 16.1 0 17.5 0 1.3-1.4 1.4-1.6 2.1-.3.9-.1 1.6 1.3 1.6h7.5c1.7 0 1.1-1.7-.4-2.6-.4-.2-.8-1.1-.8-1.9 0-3.3 0-7.7.1-8.3 1-1.8 2.5-2 3.7-.8 1.9 2.1 3.9 7 3.9 11.7 0 2.7.3 4.6-1.5 7-.6.7-2.5 2.7.8 1.6 4.2-2.2 4.4-5.7 4.9-9.1.6-4.1-.1-8.2-1.8-11.6-1.4-2.7-2.2-4.2-4.9-4.6-1.8-.3-3.1 1.2-5.2 2.3 0-5-.1-9-.1-10.4 0-1.7-.6-1.7-1.7-.9-.9.6-3 1.7-5.6 3.5-1.2 2.2 1.2 1.8 1.4 2.9zm18.7 13.4c-.5-5.4 3.4-11.3 11.4-10.3 5.4.7 6.8 6.4 7 7.1-6.3 2.7-11 3.9-11.7 4.1.1.6 1.2 3.8 3.9 4.7 1.5.5 4.2.4 6.9-1.8 1.1-.9 2.6-.6 1 1.5 0 0-2.9 3.1-7.5 3.2-7 .2-10.6-3.9-11-8.5zm6.2-1.7c2.6-.1 4.1-1.2 6.4-2.1-1.1-3.4-2.7-4.6-5-4.2-2.3.5-2.9 5.4-1.4 6.3zm159.8 2.3c1.2.6 3.9.7 4.1 2.8 0 27.4-.1 40-.1 42.3 0 3-4.4 2.9-4.4 4.9 0 1.6.3 3 2.4 3 2.2 0 12.8.1 15.2.1 1.3 0 2.7-1.5 2.3-2.8-.3-1.1-2.3-2.1-2.9-2.3-1.2-.4-1.7-2.5-1.8-3.6-.1-1 0-4.2 0-5.4s2.9-4.4 4.5-4.4c.3 0 1.2.8 1.8 1.9 2.5 4.4 7.3 16.7 8.5 16.7h10.8c2.2 0 4-2.7 1.1-4.5-.7-.4-2.1-1-3.2-2-1.2-1.1-2.1-2.8-3.4-5.6-3.1-6.2-5.1-9.6-6.1-11.9-.6-1.3-1-2.3-1-3 .2-1.4 3.9-4.3 6.4-4.6 4.1-.6 2.9-4.6 0-4.6-6.9.1-9.7-.1-12.1 0-4.3.1-2.7 3.3-2.8 3 .2.5 3 1.1 2.9 2.3-.1 1.5-1.5 3.3-2.3 4.1-1 1-1.7 2.2-3.4 3.6-.7.6-1.2 0-1.2-.5-.3-16.7.2-33.8.2-38.2 0-3.3-2.8-1.6-4.2-.9-1.9 1-9.9 5.3-11.5 6.3-1.2.6-.9 2.7.2 3.3zm-149.1 16.3c-3 .1-8.3.7-10.6 6.3-1.3 3.2-.3 6.4.1 7.6 2.4 5.9 11 7.1 15.5 8.7 5.8 2.1 8.2 2.8 7.8 5.4-.3 2.3-3.1 4.7-12 2.9-3.6-.7-7.9-3.8-10.7-6.6-1-1-2.9-.2-2.3 2s6 11 6.5 11.9c.6 1 2.2 1.5 2.8.3.6-1 .9-2.1 2.2-2.3 1.5-.3 4.3.3 8.1.8 5 .5 9.9-.2 13-2.6s4.4-6.5 3.9-10c-.8-6.1-5.5-8.9-12.3-10.6-4.6-1.2-9.4-2.4-11.1-3.5-1.7-1.2-2.1-2.9-.7-4.5 1.9-2 6.4-1.3 8.6-.7 3 .7 5.6 2 8.9 4.8 1.9 1.6 2.9 1.4 3.4 1 1.5-1.3-1.3-3.7-3.1-7.1-2.2-4.1-2.9-5.5-4.3-5.1-1.2.4-2.5 2.6-3.5 2.5-2.6-.2-4-1.3-10.2-1.2zm84.2 37.8c13.3-.7 16.3-7.8 17.6-10.1.8-1.5-1.8-3.6-3.5-1.3-4.1 5.6-9.8 6.4-13.1 5.3-5.7-1.7-7.8-6.2-8.6-13.2-.7-6.2 1.4-14.2 8.2-14 7.3.2 7.6 8.5 8.5 10.1.9 1.7 2.3 1.6 3.3-.5.9-2 1.8-4.9 3.1-7.1 1.2-2.1.1-3.1-1.5-4-3.4-1.8-6.8-3.2-13.2-3.2-8.3.1-20.2 5-20.5 19.1-.4 14.3 11 18.6 19.7 18.9zm-159-14.3c.9 2.6 3.9 6.3 7.6 7.4 5.2 1.5 10.4-1.3 13.7-3.8 1.7-1.4 3.6-.1 2.2 2.6-1 1.8-6.4 6.8-16.5 7.4-14.9.7-21.8-11-20.4-21.2 1-7.4 7.4-15 16.1-15.8 8.7-.7 12 1.7 14.5 3.8 2.9 2.5 6.5 9 5.2 10.5-1.4 1.5-15.2 4.9-20.5 7.1-1.1.3-2.4.6-1.9 2zm10.5-9.7c.9-1.5-1.8-10.1-8.3-9.2-2.3.3-4 2.2-4.7 4.9-.8 3.5.1 8.2 1.2 8.8 1.1.3 11.1-3.3 11.8-4.5zm167.6 12.6c.7-5.6 3.4-8.3 8.4-10.5 3.1-1.4 9.7-1.8 12.1-1.8 1.1 0 .3-1.8.2-2.3-1.5-6.3-6.4-6.6-10.5-5.2-2.4.9-4.6 2.6-5.2 3-1.8.9-3.4-1.2-1.8-3.2 5.2-6.3 9.7-6.4 14.6-6.5 2.9-.1 9.6.6 12.5 8.1 2.9 7.4 6 18.2 7.3 20.5s3.3 3.3 4.5 2.2c1.1-1 1.8.5 1.8 1.8 0 1.6-1.3 3.7-4.9 4.6-3.4.8-8-.5-9.2-1.5-1.1-.9-1.7-2.2-2.6-2.2-2.5.2-5 3.7-13 4.1-10 .5-14.9-5.8-14.2-11.1zm11.6-.2c1 3.4 3.2 6.5 9.4 5.2s3.2-8.6 2.5-10.1c-.6-1.5-1.3-2.4-2.7-2.6-1.5-.1-3.6-.2-5.7.7-2 .9-4.3 3.7-3.5 6.8zm-115.1 62.1c-.8-2.5-1.8-5.9-2.3-8-1.5-6.4-2.2-10.4-8.3-5.1 0 0-.4.7-1.1.7s-13.3.3-14.1-.5-.6-7.7-.4-11.1-1.8-8.4 9.7-8.9c7.7-.4 17.6-1.2 25.6-.5 7.5.6 13.5 1.8 17.5 3.7 4.1 1.9 6.9.3 8.1-.4.4-.2 2-1.8 1.5-4.3s-.7-5.7-2.9-8c-1.8-1.9-6.9-2.3-10.3-2.8-10.8-1.5-29.1.5-43.8 2.9 4.5-.7-20.8 4.7-31.3 3.4-5.2-.6-8.6-1.4-10.8-2.1-.4-.8-1.4-1.3-2.3-.9-1.1-.6-1.6-1.1-1.8-1.4-.3-.5-1.7-3-4.4-2.9-4.4.2-8.4 3.6-6.9 10.1.4 1.7 1.3 3.2 2.6 4.3-4.3 3.3-10.1 6.4-17.8 7.6-13.6 2-26.8-4.5-33.6-13-9.5-11.8-10.2-25.7-10.6-31.2-.3-29 13.7-47.9 30.6-48.3 7.2-.3 13.3 2.5 18.6 6.2 12.2 8.7 13 18.8 17.6 20.6 2.1.9 6.6-.3 6.6-2.9 0-6.2-3.9-11.2-7.9-20.3-3.1-7-5.7-13.8-6.8-14.8-.5-.2-2.7-.2-3.2.1-.9.6-2.1 2.3-3.6 3.7-1.4 1.2-1.3 2-2.3 2.3s-2.6-.3-3.9-.7c-4.7-1.5-10-2.6-15.5-2.6-13.3 0-30.1 5.9-41.9 26-5 8.6-7.2 14.9-8.2 25-.7 8.1.1 18 3.1 25.9 5.6 15 20.5 32.1 42.5 34.1 9.3.8 22.3-.8 29.6-4.8 5.1-2.9 9.3-6.8 12.5-10.4 2.3.5 5 .6 8.2.4 2.7-.2 7.7-.1 11.1-.8 4.3-.9 7.1-1.3 8.3-.5.8.5 1.1 2.9 1.1 6.7.3 15.7.1 57.3-.4 62.2-.3 2.7-3.1 8.3-5.8 13.7-1.7 3.4 1.5 7 4.6 4.9 2.4-1.6 13.3-9.9 19-13.1 1.8-1 2.2-3.7.4-5.4s-2.8-3.6-2.8-7.7c-.1-20.3-.1-26.5-.1-29.7 0-2.5 0-3 1.8-3.1s13.2-.3 14.7 0 3.8 2.3 5.9 3.7c1.5.9 4.8.5 3.9-2zm102.9 18.4c-1.9 1.1-3.9 2.7-6 2.2-1.8-.4-2.5-2-2.7-4.3-.3-2.4-.2-16.5-.2-17.8s0-2.1 1-2.3c.9-.1 8.7-.1 10-.1.4 0 1.2-4.1 1.3-4.6s0-1-1-1.1c-.9-.1-8.8.3-11.1-.4-.6-5.1-.3-10.3-.3-12 0-1.4-1.3-2.4-2.8-1-1.7 1.7-5.6 8-13 15.3-1.4 1.4-1.7 4 1 4 .1 0 2.5-.1 3.1-.1s1.2.3 1.2.9c0 .3.2 7.4.2 12.1 0 8.1-1.3 9.6-.7 11.5 1.1 3.9 5.7 5.8 10.4 6 5.4 0 10-2.2 11.9-4.1 2.8-2.8 1.3-6.3-2.3-4.2zm119.9-24.1c.9-.5 1.4-3.6-.7-3.9-2.2-.2-14.8-.4-16.3.2-1.6.6-1 3.1.6 4 .8.4 2.2.9 2.6 1.8s.2 2.7-.4 4.4c-2 6.4-5.4 12.2-5.7 12.3s-2.1-3.6-4-7.6c-1.7-3.8-3.1-7.5-3.2-8.2-.3-1.4.8-2.7 2.4-2.9s1.7-3.8-.9-4c-1.3-.1-4.4 0-7.1.1-3.4.2-7.5-.2-9-.1-1.8.2-2.6 3.5 0 4.6 2.7 1.2 3.4 3 3.8 4 1.5 3.3 9.3 21.6 11.1 24.7l.3.7c-9.6 12.9-16.1 17.8-21.9 20.1-3.6 1.4-6.8 1.1-9.1.1-3.2-1.3-3.6-6.1-3.2-6.9 1.1-2.3-2.2-3.7-5.8-2.7-3.5.9-6.8 4.8-4.6 9.8 2.5 6 10.4 9 20.4 6.8 8.7-2 17.7-7 26.2-16.4 6.3-6.7 9.5-12 13.3-18.9 4.3-7.8 7.4-17.2 7.8-18.2.6-1.7 2.5-3.3 3.4-3.8zm-58.7 28.1c-2-1.1-3.4-1.9-3.6-3.6-.8-5.4-.4-10.2.2-13.5.3-1.4 1.6-3.8 3.8-4.6 1.5-.6 3.2-.8 5.3 1.5 0 0 1 1.6 1.7 2.4.7.7 2.7.3 3-1.6.4-1.9 1.7-6.1 2.7-8.7.9-2.2 1-4.5-5-3.9-6.4.7-8.9 4.7-10.4 6.6-.8 1-1.4.7-1.4.2 0-.4 0-3.2-.1-4.5-.2-4.1-3.7-1.6-7.2.4-3 1.7-7 4.2-7.6 4.7-.6.4-.7 2.3.8 3 1 .4 2 0 2.9.8.4.4.6 1.9.6 3.3-.1 3.8.2 12.6-.3 14.4s-2.8 1.7-4.3 3.2-.7 4 1.5 3.9c2.2 0 14 .1 15.7.1 2.8.2 3.4-3.1 1.7-4.1zm-28.2 3.2c-15.9 4.2-30.4-1.8-30.4-16.9-.2-10 6.4-18.4 17.4-19.3 8.2-.7 15 2.9 19.2 8 7.7 9.3 7.5 23.9-6.2 28.2zm-2.9-22.5c-2.4-5.5-6.8-10.7-12.3-9.3-4.4 1.1-6.5 7.3-2.6 17.5 2.6 6.6 7.5 13 14.1 9.9 4-1.9 4.6-9.1.8-18.1zm-242.8-35.1c-1.8 1.2-.2 3 1.2 2.5 3.9-1.2 6.9-3.7 9.3-6.5 1.3-1.5 5.9-6.1 8.4-13.7s1.9-12.7 1.9-15.8c0-8.6-5.6-21.9-13.6-22.3-2.4-.1-6.1.8-8.2 3.6-.5.6-1.6.7-1.6-.1s0-20.5 0-21.5c0-1.1-1.7-.8-2.3-.4-.7.4-10.9 7.1-11.9 7.8-.9.7-1 2.4.1 2.9s3.7 1.2 3.7 2.6c-.1-1.3.3 26.7-.3 33.5-.3 3.1-3 3.8-4 4.6-1 .7-.3 3.5 1.4 3.5s14 .2 15.3.2 3.1-1.6 2-3.5c-.8-1.2-2.9-1.2-3.7-3.9-1-3.3-.4-13.9.1-17.3.2-1.6.9-2.6 2.4-3.4 1.5-.7 2.6-.4 3.4.3 1.4 1.1 2.5 3.7 3.1 4.9 1.5 3.3 3.5 11.4 3.5 17.8 0 18.1-8.4 23-10.2 24.2zm136.2-40.1c1-7.4 7.4-15 16.1-15.8 8.7-.7 12 1.7 14.5 3.8 2.9 2.5 6.5 9 5.2 10.5s-15.1 4.9-20.5 7.1c-1 .4-2.3.7-1.8 2.1.9 2.6 3.9 6.3 7.6 7.4 5.2 1.5 10.4-1.3 13.7-3.9 1.7-1.4 3.6-.1 2.2 2.6-1 1.8-6.5 6.8-16.5 7.4-15 .6-21.9-11.1-20.5-21.2zm12.1 2.3c1.1.5 11.2-3.2 11.9-4.4.9-1.5-1.8-10.1-8.3-9.3-2.3.3-4.1 2.2-4.7 4.9-.9 3.6 0 8.3 1.1 8.8zm148.9-2.3c1-7.4 7.4-15 16.1-15.8 8.6-.7 12 1.7 14.5 3.8 2.9 2.5 6.5 9 5.2 10.5-1.4 1.5-15.1 4.9-20.5 7.1-1 .4-2.3.7-1.8 2.1.9 2.6 3.9 6.3 7.6 7.4 5.2 1.5 10.4-1.3 13.7-3.9 1.7-1.4 4.3-.6 2.8 2.1-1 1.8-6.8 7.5-17.1 7.8-15 .4-21.8-11-20.5-21.1zm12.2 2.3c1.1.5 11.2-3.2 11.9-4.4.9-1.5-1.8-10.1-8.3-9.3-2.3.3-4.1 2.2-4.7 4.9-1 3.6 0 8.3 1.1 8.8zm-157.5 91.7c0 1.6-1.3 4-4.9 4.8-3.4.8-8.4-.3-9.5-1.8-.8-1.1-1.5-2.2-2.4-2.2-2.6.2-5 3.7-13 4.1-10.1.6-15-5.7-14.3-11 .7-5.6 3.4-8.3 8.4-10.5 3.1-1.4 9.7-1.8 12.1-1.8 1.1 0 .3-1.8.2-2.3-1.5-6.3-6.4-6.6-10.5-5.2-2.4.9-4.6 2.6-5.2 3-1.8.9-3.4-1.2-1.7-3.2 5.2-6.3 9.7-6.4 14.6-6.5 2.9-.1 9.6.6 12.5 8.1 2.9 7.4 6 18.2 7.3 20.5s3.3 3.3 4.5 2.2c1.2-.9 1.9.5 1.9 1.8zm-20.5-11.2c-.6-1.5-1.3-2.4-2.7-2.6-1.5-.1-3.6-.2-5.7.7-2 .9-4.4 3.7-3.5 6.8 1 3.4 3.2 6.5 9.4 5.2 6.2-1.2 3.2-8.6 2.5-10.1zm52.4 5.4c-4.1 5.6-9.7 6.3-13.1 5.3-5.7-1.7-7.8-6.1-8.6-13.2-.7-6.2 1.4-14.2 8.2-14.1 7.3.2 7.6 8.5 8.5 10.2s2.3 1.5 3.3-.5c.9-2 1.8-4.9 3.1-7.1 1.2-2.1.1-3.1-1.5-4-3.3-1.8-6.8-3.2-13.1-3.2-8.3.1-20.2 5.1-20.5 19.2s11.1 18.5 19.8 18.7c13.4-.7 16.3-7.8 17.6-10.1.6-1.5-2-3.6-3.7-1.2zm-110.8-80.5c.9 2.6 3.9 6.3 7.6 7.4 5.2 1.6 10.5-1.3 13.7-3.9 1.7-1.4 3.6-.1 2.2 2.6-1 1.8-6.5 6.8-16.5 7.4-14.9.7-21.8-11-20.4-21.2 1-7.4 7.4-15 16.1-15.7s12 1.7 14.5 3.8c2.9 2.5 6.6 9 5.2 10.5s-15.2 4.9-20.5 7.1c-1.1.3-2.4.6-1.9 2zm10.5-9.7c.9-1.5-1.8-10.1-8.4-9.3-2.3.3-4 2.2-4.7 4.9-.9 3.5.1 8.2 1.2 8.8 1.2.4 11.2-3.2 11.9-4.4zm255.5 95.1c0 2.8-2.3 4.9-4.9 4.9-2.7 0-4.9-2.1-4.9-4.9s2.3-4.8 4.9-4.8c2.7 0 4.9 2 4.9 4.8zm-.9 0c0-2.3-1.7-4-3.9-4s-4 1.7-4 4 1.8 4.1 4 4.1c2.1 0 3.9-1.7 3.9-4.1zm-3.2.3 1.6 2.5h-.9l-1.5-2.4h-1v2.4h-.8v-5.6h2.1c1.3 0 2 .5 2 1.6 0 1-.7 1.4-1.5 1.5zm-.8-.6c.7 0 1.4-.1 1.4-.9 0-.7-.6-.8-1.2-.8h-1.2v1.7z" fill="#a18d44"/></svg>