<svg enable-background="new 25.222 25.223 431.445 431.445" height="431.445" viewBox="25.222 25.223 431.445 431.445" width="431.445" xmlns="http://www.w3.org/2000/svg"><g fill="#fff"><path d="m190.502 208.759h-11.01v-43.383h-15.938v-9.32h42.886v9.32h-15.938z"/><path d="m220.309 185.118v23.641h-11.01v-52.703h11.01v19.975h20.541v-19.975h11.019v52.703h-11.019v-23.641z"/><path d="m295.925 165.376h-27.697v11.088h24.389v9.32h-24.389v13.655h27.76v9.32h-38.016v-52.703h37.953z"/><path d="m88.981 213.966h10.294v52.7h-11.019l-21.504-37.578h-.156v37.578h-10.275v-52.7h11.588l20.925 36.698h.147z"/><path d="m130.001 258.74c5.941 0 14.298-3.67 14.298-18.424 0-14.746-8.358-18.43-14.298-18.43-5.942 0-14.327 3.685-14.327 18.43.002 14.754 8.385 18.426 14.327 18.424zm0-46.173c6.968 0 25.307 3.014 25.307 27.749.001 24.731-18.34 27.745-25.307 27.745-6.986 0-25.336-3.014-25.336-27.745.001-24.735 18.35-27.749 25.336-27.749z"/><path d="m233.466 266.666h-11.019v-43.385h-15.929v-9.315h42.858v9.315h-15.91z"/><path d="m264.339 243.041v23.625h-11.002v-52.7h11.002v19.957h20.549v-19.957h11.037v52.7h-11.037v-23.625z"/><path d="m138.77 324.57h-11.01v-52.703h37.501v9.33h-26.491v11.888h23.203v9.329h-23.203z"/><path d="m176.884 304.609h13.416l-6.527-20.85h-.14zm-6.618 19.961h-11.597l18.802-52.703h12.699l18.56 52.703h-11.973l-3.375-10.865h-19.438z"/><path d="m242.548 289.119c-.865-3.154-2.573-9.1-11.683-9.1-5.279 0-13.066 3.521-13.066 18.416 0 9.477 3.746 17.996 13.066 17.996 6.108 0 10.359-3.457 11.683-9.91h11c-2.195 11.445-9.672 19.445-22.894 19.445-14.02 0-24.085-9.457-24.085-27.672 0-18.422 10.643-27.82 24.241-27.82 15.778 0 22.149 10.871 22.735 18.645z"/><path d="m295.925 281.197h-27.697v11.072h24.389v9.326h-24.389v13.655h27.76v9.32h-38.016v-52.703h37.953z"/><path d="m184.377 237.087c5.713 0 8.495-1.983 8.495-7.185 0-2.774-1.25-6.874-7.693-6.874h-13.694v14.059zm-23.669-23.147h26.599c13.985 0 16.538 10.322 16.538 14.877.001 5.775-2.93 10.759-8.128 12.518 4.325 1.905 6.676 3.509 6.676 13.323.001 7.693 0 9.596 2.34 10.48l.001 1.383h-12.176c-.726-2.486-1.156-5.203-1.156-10.615 0-7.176-.431-9.963-8.576-9.963h-11.341v20.578h-10.776v-52.581z"/><path d="m329.929 324.552-.008-36.888h-.005l-.02-.901-.066-.885-.114-.871-.15-.853-.193-.846-.237-.822-.275-.809-.309-.793-.349-.767-.383-.752-.42-.733-.457-.703-.486-.683-.514-.663-.549-.628-.578-.604-.606-.58-.628-.547-.661-.516-.683-.486-.705-.455-.733-.422-.752-.383-.767-.349-.795-.311-.805-.273-.828-.237-.844-.195-.857-.148-.871-.114-.887-.068-.902-.023-9.362.029v54.279l26.799.002z"/><path d="m303.13 212.36v55.682l9.362-.029 1.008.024 1 .076.984.123.971.176.949.22.933.262.918.309.891.355.875.393.848.435.82.473.799.51.771.547.741.585.716.618.682.648.65.684.618.716.584.741.548.769.508.801.473.82.435.846.393.875.353.889.309.914.264.935.22.95.176.968.121.985.076.998.03 1.006h-.004l.008 36.888v.002l41.017.004v-47.633l-.086-3.328-.25-3.277-.412-3.231-.564-3.175-.721-3.125-.871-3.065-1.014-2.998-1.154-2.93-1.293-2.857-1.424-2.783-1.555-2.706-1.679-2.617-1.801-2.531-1.914-2.441-2.027-2.339-2.139-2.246-2.24-2.135-2.34-2.029-2.44-1.92-2.531-1.795-2.615-1.683-2.705-1.554-2.783-1.425-2.856-1.293-2.931-1.154-2.999-1.015-3.058-.872-3.125-.72-3.176-.564-3.228-.413-3.278-.25-3.326-.081v-.004z"/><path d="m303.189 155.926-.059-.001v54.205l5.512.009v-.004l3.432.09 3.391.258 3.342.422 3.291.591 3.229.746 3.172.898 3.104 1.05 3.029 1.198 2.961 1.337 2.879 1.477 2.793 1.608 2.711 1.734 2.617 1.866 2.52 1.98 2.426 2.099 2.32 2.214 2.207 2.315 2.1 2.427 1.982 2.521 1.861 2.618 1.734 2.713 1.607 2.794 1.475 2.879 1.338 2.963 1.197 3.033 1.049 3.104.898 3.17.746 3.229.59 3.291.422 3.344.258 3.393.086 3.432v47.633l50.16.004v-45.904c-.001-67.781-54.624-122.736-122.38-122.736z"/></g></svg>