<svg enable-background="new 0 0 400 400" height="400" viewBox="0 0 400 400" width="400" xmlns="http://www.w3.org/2000/svg"><path d="m122.331 162.425s-9.72-7.593-9.72-17.617 12.501-36.534 82.923-40.095c54.067-2.734 89.987 30.476 89.987 49.814 0 5.468-6.76 10.935-6.76 10.935s17.495 12.46 15.795 61.357c-1.57 45.152-4.288 45.913-8.845 51.077s-8.84 6.263-17.718 7.131c-11.522 1.127-50.355-7.67-69.68-7.585-28.299.124-52.297 10.739-67.782 10.733-18.228-.007-28.55-18.527-28.552-48.6-.002-53.782 20.352-77.15 20.352-77.15zm-46.17 94.467c0 39.971 11.918 62.26 36.146 62.268 20.582.008 48.405-10.164 86.02-10.327 25.687-.114 68.827 8.516 84.141 7.019 11.801-1.153 22.434-2.583 28.49-9.448 6.057-6.862 5.203-7.72 7.29-67.736 2.262-64.994-14.58-69.862-14.58-69.862s8.266-2.906 10.689-17.604c4.859-29.464-36.508-74.256-121.094-74.257-65.77 0-112.243 35.971-109.615 58.608 1.628 14.027 14.382 25.658 14.382 25.658s-21.869 18.225-21.869 95.681z" fill="#fff"/></svg>