<?xml version="1.0" encoding="utf-8"?>
<!-- Generator: Adobe Illustrator 16.0.0, SVG Export Plug-In . SVG Version: 6.00 Build 0)  -->
<!DOCTYPE svg PUBLIC "-//W3C//DTD SVG 1.1//EN" "http://www.w3.org/Graphics/SVG/1.1/DTD/svg11.dtd">
<svg version="1.1" id="Layer_2" xmlns="http://www.w3.org/2000/svg" xmlns:xlink="http://www.w3.org/1999/xlink" x="0px" y="0px"
	 width="400px" height="400px" viewBox="0 0 400 400" enable-background="new 0 0 400 400" xml:space="preserve">
<path fill="#FFFFFF" d="M122.331,162.425c0,0-9.72-7.593-9.72-17.617s12.501-36.534,82.923-40.095
	c54.067-2.734,89.987,30.476,89.987,49.814c0,5.468-6.76,10.935-6.76,10.935s17.495,12.46,15.795,61.357
	c-1.57,45.152-4.288,45.913-8.845,51.077s-8.84,6.263-17.718,7.131c-11.522,1.127-50.355-7.67-69.68-7.585
	c-28.299,0.124-52.297,10.739-67.782,10.733c-18.228-0.007-28.55-18.527-28.552-48.6
	C101.977,185.793,122.331,162.425,122.331,162.425z M76.161,256.892c0,39.971,11.918,62.26,36.146,62.268
	c20.582,0.008,48.405-10.164,86.02-10.327c25.687-0.114,68.827,8.516,84.141,7.019c11.801-1.153,22.434-2.583,28.49-9.448
	c6.057-6.862,5.203-7.72,7.29-67.736c2.262-64.994-14.58-69.862-14.58-69.862s8.266-2.906,10.689-17.604
	c4.859-29.464-36.508-74.256-121.094-74.257c-65.77,0-112.243,35.971-109.615,58.608c1.628,14.027,14.382,25.658,14.382,25.658
	S76.161,179.436,76.161,256.892z"/>
</svg>
