<svg enable-background="new 0 0 518.4 518.4" height="518.4" viewBox="0 0 518.4 518.4" width="518.4" xmlns="http://www.w3.org/2000/svg"><path d="m20.82 269.967c0-131.655 106.725-238.38 238.379-238.38 131.657 0 238.38 106.725 238.38 238.38s-106.723 238.379-238.38 238.379c-131.654 0-238.379-106.724-238.379-238.379z" fill="#fff"/><path d="m20.82 269.967c0-131.655 106.725-238.38 238.379-238.38 131.657 0 238.38 106.725 238.38 238.38s-106.723 238.379-238.38 238.379c-131.654 0-238.379-106.724-238.379-238.379z" fill="none" stroke="#e31837" stroke-miterlimit="3.8637" stroke-width="13.0071"/><circle cx="259.211" cy="269.994" fill="#fff" r="221.361"/><circle cx="259.211" cy="269.994" fill="none" r="221.361" stroke="#e31837" stroke-miterlimit="3.8637" stroke-width="2.4388"/><g clip-rule="evenodd"><path d="m259.924 338.827c-.251 0-.501 0-.752 0" fill="none"/><path d="m259.924 338.827c-.251 0-.501 0-.752 0" fill="none" stroke="#e31837" stroke-miterlimit="3.8637" stroke-width=".6054"/><path d="m140.073 361.908h45.18c0 1.006-17.57 7.531-16.314 37.65.627 17.318-4.644 24.848-16.314 31.375-5.773 3.137-14.181 2.885-20.08-1.256-3.389-2.384-6.024-6.526-8.786-11.295-3.764-6.275-13.804-8.784-13.804-8.784 3.765-1.507 26.354-13.806 30.119-15.059-15.059 13.803 5.397 20.958 10.041 15.059 15.058-18.825-2.511-42.668-10.042-47.69zm180.718 26.358 2.509-10.041s-16.314-11.295-5.019-20.08c2.51-1.883 10.04-2.51 15.06 3.764 6.777 8.534-12.55 26.357-12.55 26.357zm64.004-25.102c2.511 2.512 11.295-2.262 13.804-1.256l-13.804 26.357c.376-4.896-2.511-10.041-3.765-11.296-.753-.754-2.51-3.767-8.785-3.767-4.77 0-8.534.88-10.04 3.767-2.51 5.021 0 12.046 8.785 13.804 6.274 1.256 16.315 8.785 16.315 21.334 0 16.692-8.785 20.082-22.59 20.082-15.06 0-12.55-1.256-21.333-2.512-2.513 1.256-7.533 4.015-11.299 2.512l10.041-28.864c1.632.124 3.013 15.058 11.295 15.058 3.764 0 10.291-5.145 6.275-10.04-6.275-7.529-7.529-3.764-15.061-11.293-2.258-2.261-5.018-6.276-5.396-14.934-.25-6.904 4.644-14.183 10.418-17.696 12.048-7.279 33.507-1.256 35.14-1.256zm-86.593 69.025h-48.945c0-1.885 7.529-16.567 7.529-32.631 0-17.193-7.529-35.892-7.529-37.65h48.945l5.018 22.591c-4.642-.125-26.855-13.178-31.374-8.784-8.281 7.904-6.902 17.443 12.549 12.551v13.802c-1.253 0-13.426-4.768-15.059-1.254-1.629 3.64-3.263 18.7 5.021 17.569 8.785-1.255 22.714-11.044 28.863-11.294zm-102.909-33.885c0-8.317 6.742-15.061 15.06-15.061s15.059 6.743 15.059 15.061c0 8.316-6.741 15.061-15.059 15.061-8.318-.001-15.06-6.745-15.06-15.061zm-11.295-.627c0-19.754 13.485-35.769 30.119-35.769 16.636 0 30.12 16.015 30.12 35.769s-13.483 35.767-30.12 35.767c-16.634-.001-30.119-16.013-30.119-35.767zm-36.394-116.087s15.06-1.254 13.805 11.295c-.502 5.271-11.295 10.043-13.805 10.043 0 0 1.255-5.146 1.255-10.043 0-4.394-1.255-11.295-1.255-11.295zm-23.846-10.039h47.69c5.02 1.254 8.534 9.288 7.529 16.313-1.129 8.535-11.295 16.313-11.295 16.313.25 1.761 3.389 12.802 7.53 20.082 5.02 8.783 11.044 14.056 11.295 17.57h-25.099c0-2.134 3.765-8.787-1.255-21.336-2.007-5.271-6.275-8.783-6.275-8.783-2.51-3.766-6.274-1.257-6.274-1.257-5.02 2.511-1.255 23.846 5.02 31.376h-28.866c6.275-6.274 10.04-31.376 10.04-31.376 2.511-30.117-10.04-35.389-10.04-38.902zm252.252 70.279h-48.943c0-1.884 7.529-16.565 7.529-32.629 0-17.194-7.529-35.894-7.529-37.65h48.943l5.021 22.589c-4.645-.125-26.857-13.175-31.374-8.785-8.284 7.909-6.902 17.446 12.549 12.55v13.807c-1.256 0-13.428-4.77-15.06-1.257-1.632 3.641-3.264 18.699 5.021 17.572 8.783-1.258 22.713-11.047 28.864-11.298zm37.647-60.24s15.062-1.254 13.808 11.295c-.504 5.271-11.295 10.043-13.808 10.043 0 0 1.257-5.146 1.257-10.043 0-4.394-1.257-11.295-1.257-11.295zm-23.842-10.039h47.688c5.02 1.254 8.535 9.288 7.528 16.313-1.128 8.535-11.292 16.313-11.292 16.313.249 1.761 3.388 12.802 7.529 20.082 5.019 8.783 11.043 14.056 11.295 17.57h-25.1c0-2.134 3.765-8.787-1.258-21.336-2.007-5.271-6.274-8.783-6.274-8.783-2.509-3.766-6.275-1.257-6.275-1.257-5.019 2.511-1.253 23.846 5.022 31.376h-28.864c6.274-6.274 10.04-31.376 10.04-31.376 2.511-30.117-10.039-35.389-10.039-38.902zm-168.168 17.569c5.021 18.825 11.295 20.081 8.786 20.081h-16.316s3.52-5.929 5.021-10.041c1.383-3.792 2.509-10.04 2.509-10.04zm65.259-5.019s18.324 5.522 18.825 18.827c.502 14.304-11.296 17.566-15.062 18.822 0 0 0 5.019-3.764-11.296-2.384-10.415.001-26.353.001-26.353zm-212.091-12.55h37.649l11.294 31.377c-4.893-3.516-10.039-10.043-12.549-12.552-2.635-2.638-6.275-1.256-6.275-1.256-8.785 5.02-2.51 27.608 6.275 52.71h-36.394c10.039-22.589 12.55-41.414 11.294-46.436 0 0-1.103-5.244-3.765-6.274-2.328-.899-6.275 1.256-6.275 1.256-5.019 3.764-7.529 7.528-13.804 12.552zm190.755 69.901s5.521-12.048 7.53-30.12c2.511-22.589-8.532-32.252-8.783-40.158h35.138c11.296 3.767 23.721 18.449 23.845 33.885.251 18.699-11.295 35.14-25.098 36.394-8.533.753-24.598-.001-32.632-.001zm-6.274.378h-23.844c0-1.129-3.137-15.188-7.53-21.336-2.76-3.89-7.907-3.013-10.04-2.509-10.041 2.509-5.271 19.829-5.021 23.845h-23.844c0-2.26 11.546-31.878 16.315-47.69 5.02-16.313 2.509-20.958 2.509-22.589h28.865c.502 1.379-1.38 11.293 2.511 22.589 7.028 20.708 20.079 47.69 20.079 47.69z" fill="#e31837" fill-rule="evenodd"/><path d="m140.073 361.908h45.18c0 1.006-17.57 7.531-16.314 37.65.627 17.318-4.644 24.848-16.314 31.375-5.773 3.137-14.181 2.885-20.08-1.256-3.389-2.384-6.024-6.526-8.786-11.295-3.764-6.275-13.804-8.784-13.804-8.784 3.765-1.507 26.354-13.806 30.119-15.059-15.059 13.803 5.397 20.958 10.041 15.059 15.058-18.825-2.511-42.668-10.042-47.69zm180.718 26.358 2.509-10.041s-16.314-11.295-5.019-20.08c2.51-1.883 10.04-2.51 15.06 3.764 6.777 8.534-12.55 26.357-12.55 26.357zm64.004-25.102c2.511 2.512 11.295-2.262 13.804-1.256l-13.804 26.357c.376-4.896-2.511-10.041-3.765-11.296-.753-.754-2.51-3.767-8.785-3.767-4.77 0-8.534.88-10.04 3.767-2.51 5.021 0 12.046 8.785 13.804 6.274 1.256 16.315 8.785 16.315 21.334 0 16.692-8.785 20.082-22.59 20.082-15.06 0-12.55-1.256-21.333-2.512-2.513 1.256-7.533 4.015-11.299 2.512l10.041-28.864c1.632.124 3.013 15.058 11.295 15.058 3.764 0 10.291-5.145 6.275-10.04-6.275-7.529-7.529-3.764-15.061-11.293-2.258-2.261-5.018-6.276-5.396-14.934-.25-6.904 4.644-14.183 10.418-17.696 12.048-7.279 33.507-1.256 35.14-1.256zm-86.593 69.025h-48.945c0-1.885 7.529-16.567 7.529-32.631 0-17.193-7.529-35.892-7.529-37.65h48.945l5.018 22.591c-4.642-.125-26.855-13.178-31.374-8.784-8.281 7.904-6.902 17.443 12.549 12.551v13.802c-1.253 0-13.426-4.768-15.059-1.254-1.629 3.64-3.263 18.7 5.021 17.569 8.785-1.255 22.714-11.044 28.863-11.294zm-102.909-33.885c0-8.317 6.742-15.061 15.06-15.061s15.059 6.743 15.059 15.061c0 8.316-6.741 15.061-15.059 15.061-8.318-.001-15.06-6.745-15.06-15.061zm-11.295-.627c0-19.754 13.485-35.769 30.119-35.769 16.636 0 30.12 16.015 30.12 35.769s-13.483 35.767-30.12 35.767c-16.634-.001-30.119-16.013-30.119-35.767zm-36.394-116.087s15.06-1.254 13.805 11.295c-.502 5.271-11.295 10.043-13.805 10.043 0 0 1.255-5.146 1.255-10.043 0-4.394-1.255-11.295-1.255-11.295zm-23.846-10.039h47.69c5.02 1.254 8.534 9.288 7.529 16.313-1.129 8.535-11.295 16.313-11.295 16.313.25 1.761 3.389 12.802 7.53 20.082 5.02 8.783 11.044 14.056 11.295 17.57h-25.099c0-2.134 3.765-8.787-1.255-21.336-2.007-5.271-6.275-8.783-6.275-8.783-2.51-3.766-6.274-1.257-6.274-1.257-5.02 2.511-1.255 23.846 5.02 31.376h-28.866c6.275-6.274 10.04-31.376 10.04-31.376 2.511-30.117-10.04-35.389-10.04-38.902zm252.252 70.279h-48.943c0-1.884 7.529-16.565 7.529-32.629 0-17.194-7.529-35.894-7.529-37.65h48.943l5.021 22.589c-4.645-.125-26.857-13.175-31.374-8.785-8.284 7.909-6.902 17.446 12.549 12.55v13.807c-1.256 0-13.428-4.77-15.06-1.257-1.632 3.641-3.264 18.699 5.021 17.572 8.783-1.258 22.713-11.047 28.864-11.298zm37.647-60.24s15.062-1.254 13.808 11.295c-.504 5.271-11.295 10.043-13.808 10.043 0 0 1.257-5.146 1.257-10.043 0-4.394-1.257-11.295-1.257-11.295zm-23.842-10.039h47.688c5.02 1.254 8.535 9.288 7.528 16.313-1.128 8.535-11.292 16.313-11.292 16.313.249 1.761 3.388 12.802 7.529 20.082 5.019 8.783 11.043 14.056 11.295 17.57h-25.1c0-2.134 3.765-8.787-1.258-21.336-2.007-5.271-6.274-8.783-6.274-8.783-2.509-3.766-6.275-1.257-6.275-1.257-5.019 2.511-1.253 23.846 5.022 31.376h-28.864c6.274-6.274 10.04-31.376 10.04-31.376 2.511-30.117-10.039-35.389-10.039-38.902zm-168.168 17.569c5.021 18.825 11.295 20.081 8.786 20.081h-16.316s3.52-5.929 5.021-10.041c1.383-3.792 2.509-10.04 2.509-10.04zm65.259-5.019s18.324 5.522 18.825 18.827c.502 14.304-11.296 17.566-15.062 18.822 0 0 0 5.019-3.764-11.296-2.384-10.415.001-26.353.001-26.353zm-212.091-12.55h37.649l11.294 31.377c-4.893-3.516-10.039-10.043-12.549-12.552-2.635-2.638-6.275-1.256-6.275-1.256-8.785 5.02-2.51 27.608 6.275 52.71h-36.394c10.039-22.589 12.55-41.414 11.294-46.436 0 0-1.103-5.244-3.765-6.274-2.328-.899-6.275 1.256-6.275 1.256-5.019 3.764-7.529 7.528-13.804 12.552zm190.755 69.901s5.521-12.048 7.53-30.12c2.511-22.589-8.532-32.252-8.783-40.158h35.138c11.296 3.767 23.721 18.449 23.845 33.885.251 18.699-11.295 35.14-25.098 36.394-8.533.753-24.598-.001-32.632-.001zm-6.274.378h-23.844c0-1.129-3.137-15.188-7.53-21.336-2.76-3.89-7.907-3.013-10.04-2.509-10.041 2.509-5.271 19.829-5.021 23.845h-23.844c0-2.26 11.546-31.878 16.315-47.69 5.02-16.313 2.509-20.958 2.509-22.589h28.865c.502 1.379-1.38 11.293 2.511 22.589 7.028 20.708 20.079 47.69 20.079 47.69z" fill="none" stroke="#e31837" stroke-miterlimit="3.8637" stroke-width=".6054"/></g><path d="m259.988 26.801c.062 1.473.521 2.604.824 3.353l.151.386.292 1.012.276.275s.237.279.409.48c-.264 3.791-.41 7.549-.506 11.096-.31 11.506-1.471 22.085-3.507 32.266h43.599l-.306-1.222c-2.174-8.198-3.941-17.797-5.406-29.346l-.319-2.439c-.414-3.116-.826-6.326-.999-9.708 1.262-1.296 1.75-2.733 1.937-3.686.187-.951.238-1.895.238-2.796 0-.603-.022-1.186-.045-1.74-.02-.466-.039-.962-.039-1.412 0-.463.021-.878.087-1.159.135-.579.184-1.127.184-1.63 0-.793-.12-1.475-.212-1.995 0 0-.014-.085-.025-.159.001-.058.016-.12.016-.178 0-1.762-.702-3.28-1.658-4.46-.394-3.366-2.349-6.199-5.568-7.808-2.964-1.479-6.65-2.258-10.96-2.315l-5.042-.067s.018.563.022.755c-2.636.538-5.018 1.405-7.055 2.671-2.599 1.614-4.048 4.033-4.266 6.702-1.161 1.368-1.921 2.94-2.102 4.658l-.026.255.001 8.107zm17.904-23.081h.006c-.003 0-.007.001-.011.001.002 0 .004 0 .005-.001z" fill="#fff"/><path d="m214.212 193.435c-.001.162.076.346.232.436.281.161.478-.217.407-.429-.089-.268-.638-.373-.639-.007zm-77.462-3.388c.305-.157.67.126.711.412.035.234-.186.516-.465.517-.2.002-.448-.094-.522-.276-.101-.248.046-.536.276-.653zm34.69 19.694c-.021.035-.003.181.006.223.129.561.512 1.123 1.094 1.326.096-.536-.335-1.068-.569-1.533-.093-.182-.429-.19-.531-.016zm-38.716-21.906c.14-.131.488-.204.472.094-.027.525-.341 1.132-.736 1.576-.141.158-.462.157-.482-.063-.047-.533.295-1.187.746-1.607zm204.364 63.003c-.505.182-.808.451-.99.789-.142.263-.296.733.011.844.223.079.896.028 1.119.02.356-.018.602-.378.443-.705-.172-.351-.234-1.074-.583-.948zm-147.798-51.867c.224-.04.523-.064.657.202.122.245.363.523.256.738-.109.225-.284.566-.581.438-.603-.262-1.443.389-1.739-.326-.15-.363.1-.854.573-.818.271.021.522-.178.834-.234zm-4.151 5.696c.364-.238 1.082-.081 1.118.492.019.32-.017.778-.169.807-.784.146-1.759.704-1.917-.047-.125-.597.559-.985.968-1.252zm-3.406-12.73c.265-.098 1.036-.09 1.118.544.056.433-.243 1.052-.981.966-.301-.036-1.295.12-1.262-.58.02-.431.524-.71 1.125-.93zm-3.845-10.251c.538-.102 1.082.462 1.001.906-.069.376-.445.77-.832.622-.417-.16-.881-.034-1.275-.294-.233-.156-.263-.426-.186-.645.191-.55.834-.504 1.292-.589zm32.38 9.005c-.034.017-.207.065-.219.191-.057.586.169 1.464.073 2.074-.058.367 1.032.233 1.355-.05l-.598-2.004c-.111-.324-.415-.306-.611-.211zm-99.902 18.188c.485-.158 1.186.126 1.265.707.059.433-.287.74-.547.965-.412.354-1.091.138-1.446-.23-.29-.299-.28-.838.066-1.178.038-.039.505-.212.662-.264zm43.538-3.513c.766-.18 1.514.162 1.574.782.036.364-.248.759-.669.826-.79.127-1.761-.041-1.778-.741-.013-.488.451-.767.873-.867zm2.085 11.627c.543-.066 1.103.204 1.384.661.194.316.205.918-.173 1.07-.663.268-1.469.189-1.74-.084-.578-.581-.195-1.558.529-1.647zm-24.318-12.807c1.674.992 4.239 1.656 5.906 2.805-.331.419-.784.323-.99.253-1.927-.664-3.394-1.79-4.847-2.873-.024-.018-.067-.115-.069-.185zm-.074 16.526c.836-.357 1.795-.218 2.131.435.162.313-.115.689-.382.867-.758.504-1.827.337-2.223-.335-.162-.274.105-.811.474-.967zm-13.958-9.298c.466-.01.964-.271 1.424.005.41.246.818.84.458 1.304-.25.323-.616.503-1.047.438-.582-.086-1.252-.365-1.376-.843-.107-.415.107-.894.541-.904zm40.45 2.87c.675-.238 1.341.252 1.645.764.129.22.267.598.023.78-.575.436-1.496.293-2.123.068-.438-.157-.356-1.111.088-1.459.064-.048.294-.127.367-.153zm-31.785 3.07c.584-.221 1.266.087 1.495.653.123.304-.076.705-.393.832-.825.329-1.848.494-2.379-.229-.183-.248.141-.8.503-.992.24-.13.527-.171.774-.264zm33.723-28.722c.368-.244.594.211.808.404.806.726 1.448 1.656 2.489 1.896.426.1.325.606.18.839-.224.36-.753.269-1.031.042-.943-.773-1.801-1.645-2.522-2.737-.039-.059-.112-.32.076-.444zm99.486 15.725c.412.013 1.103.08 1.46.35.299.226.138.507-.065.574-1.235.413-2.924.175-4.37.236-.227.009.181-.514.368-.546.782-.13 1.471-.648 2.607-.614zm-62.625-19.96c.452-.107 1.111-.188 1.244.302.188.69.131 1.412-.172 1.962-.673.319-1.67.021-1.815-.621-.141-.627.138-1.498.743-1.643zm-37.809 41.338c.534-.135 1.114.159 1.331.563.245.458.479 1.081.104 1.396-.493.414-1.289.479-1.947.181-.417-.187-.218-1.083-.11-1.618.048-.245.33-.448.622-.522zm-28.464-.261c.554-.271 1.324-.095 1.617.449.273.506-.076 1.146-.557 1.346-.573.236-1.389 1.007-1.692.309-.333-.769-.012-1.548.356-2.06.03-.044.23-.022.276-.044zm148.69-142.534c-.111.112-.377.307-.365.365.133.624.084 1.475.195 2.112.404 0 1.273.048 1.551-.003.39-.072.975.093 1.076-.344.139-.597.048-1.202-.171-1.782-.818-.076-1.653-.118-2.286-.348zm2.992 22.24c-.828-.019-.703 1.372-.415 1.469.86.294 2.408.443 3.596.312l-.184-1.684c-.796-.235-1.983-.074-2.997-.097zm35.612 77.895c-.066.078-.153.154-.152.178.06 2.894-.131 5.646-.104 8.42.587.17.574-.301.616-.496.433-2.038.426-4.651.244-6.818-.039-.476-.197-1.116-.604-1.284zm-42.097-170.456c-1.653.399-3.56.691-5.03 1.205-.279.098.082.517.271.469 2.25-.56 4.91-.637 7.238-.688.381-.008.367-.755.06-.915-.642-.336-1.656-.284-2.539-.071zm-88.941 142.859c2.633 1.097 4.946 2.791 7.02 4.33.492.365 1.007.571 1.32 1.035-.207.156-.729.136-.805.103-3.113-1.352-5.323-3.415-7.535-5.468zm-102.816 85.138c1.028-.15 1.755.531 2.207 1.074.306.367.032.963-.268 1.045-.854.229-2.396.875-3.134.156-.362-.352-.776-.963-.499-1.525.132-.27.394-.454.667-.528.203-.057.82-.192 1.027-.222zm144.79-95.658c2.782 3.373 6.15 6.41 8.713 10.017.176.249.267.636.011.805-.353.233-.611-.127-.672-.207l-7.79-9.992c-.081-.102-.243-.469-.262-.623zm110.839 29.338c-.127.15-.236.238-.227.268l2.122 7.915c.165.61.746.503 1.109.367.461-.175.355-.686.252-.965-.538-1.429-1.084-3.006-1.742-4.33-.503-1.016-.927-2.269-1.514-3.255zm-19.549 8.429c.578 1.039.923 2.464.993 3.938.596.419 1.055.972 1.363 1.58.326-.007.626-.167.626-.468.008-1.363-.328-2.771-.544-4.036-.072-.419-.161-1.036-.641-1.075-.557-.048-1.097.126-1.797.061zm-110.194-34.581c.015-.337.504.147.677.305l7.035 6.483c.233.229.471.838.025 1.08-.365.198-.765-.126-1.025-.403l-6.341-6.649c-.206-.215-.377-.654-.371-.816zm27.617 38.707c-.297.154-.904.246-.842.614.516 3.058 1.598 5.614 2.73 8.079.097.211.084.771.49.651-.071-.26-.254-.554-.273-.749-.294-2.931-1.008-5.471-1.526-8.188-.042-.224-.314-.545-.579-.407zm-47.942-2.768c.523-.229 1.411-.165 1.541.438.239 1.097.755 2.107 1.445 2.692-.271.894-1.237 1.395-2.263 1.214-.293-.052-.507-.318-.5-.555.008-.27.196-.507.575-.816-.833-.392-1.937-1.417-1.344-2.558.118-.229.341-.326.546-.415zm68.401 5.878c1.546-.206 3.243-.089 5.031-.152.319-.012.534.409.445.673-.098.29-.413.32-.68.294-.362-.037-2.313.483-3.078.26-2.138.017-3.872.213-5.641.583-.194.04-.551-.18-.319-.49.168-.227.451-.61.788-.658zm5.735 7.894c.303-.084.71.115.775.46.052.282-.225.565-.447.584-2.857.249-5.889.583-8.6.729-.401.021-.975.187-1.211-.312-.132-.282.188-.532.374-.587.489-.144.965-.28 1.392-.267 2.457.082 7.561-.565 7.717-.607zm-7.721-78.996c.327-.123.53.279.874.701.408.498.509 1.649-.106 2.396-.066 1-.458 2.066-1.168 2.26-.692-.416-1.438-.925-1.401-1.823.063-1.548.579-2.532 1.396-3.317.045-.04.312-.181.405-.217zm-49.627 40.058c.017-.273.51.045.665.201 2.232 2.223 4.381 4.517 6.767 6.579.307.265.346 1.006-.021 1.086-1.032.224-1.886-.503-2.111-1.208-1.939-1.856-3.536-4.045-5.082-6.212-.048-.071-.227-.302-.218-.446zm128.002 86.278c-.098.005-.266.2-.322.312-1.172 2.236-2.282 4.608-3.777 6.732.705.306 1.442-.05 2.108.111.477.114.461-.64.572-.863.823-1.649 1.526-3.455 1.848-5.476.042-.269-.14-.833-.429-.816zm-268.282-4.479c2.442-.24 4.571.382 6.146 1.171.016.608-.492 1.202-1.186 1.162-1.55-.091-3.05-.264-4.677-.245-.644-.201-1.235-.704-1.404-1.347.362-.261.696-.699 1.121-.741zm206.696-211.187c-.803.144-1.557.332-2.395.655-.106.813-.074 2.083-.163 2.966 1.402-.743 2.921-1.292 4.45-1.727.492-.141 1.234.089 1.378-.372.134-.431.342-1.101-.192-1.244-.891-.239-1.996-.473-3.078-.278zm9.285 79.371c-.136 0-.339.254-.353.39-.098.946-.285 1.981.012 2.784 1.476.05 2.888.273 4.248.224.015-.885-.081-1.554-.185-2.193-.066-.4.182-1.176-.446-1.222-1-.075-2.12.011-3.276.017zm81.571 127.36c1.591-.574 3.661-.095 4.046 1.275.104.375-.433.378-.737.426-1.708.269-2.693 1.626-3.365 2.77-.777-.057-.961-.555-1.093-.938-.44-1.271-.094-2.759.748-3.43.059-.05.317-.073.401-.103zm-81.41-122.398c-.229.01-.575.017-.619.268-.067.372.055 1.471-.008 1.823-.055.313.095.696.445.743 1.139.152 2.492.217 3.325.112.561-.07 1.492.16 1.42-.206l-.398-2.377c-.038-.232-.218-.472-.456-.47zm-10.692-78.973c-.244.055-1.141.157-1.241.353-.39.767-.189 1.743-.349 2.728-.045.278.449.337.742.27 1.979-.444 3.744-1.399 5.464-2.002.435-.152-.17-1.115-.654-1.22-1.171-.251-2.761-.402-3.962-.129zm-12.125 158.704c.891-.123 5.008.199 6.022.17.34-.01.533.432.468.733-.062.288-.298.62-.574.566-3.221-.646-7.204-.131-10.593.293-.517.346-1.458.438-2.269.122.041-.591.698-1.06 1.211-1.131zm70.325-15.652c-.03-.006-.18.142-.174.187.096.892.395 1.722.511 2.588.063.467.819.568.899.86.457 1.726 1.235 3.444 1.894 4.958.1.228.81.032.885-.268.231-.932.032-2.211-.559-2.873-.507-1.729-.8-3.658-1.146-5.488-.918.147-1.617.147-2.31.036zm69.506 53.919c1.53-.312 2.841.369 3.642 1.336.129.156.084.531-.169.576-.281.051-1.247-.076-1.501.024-1.483.583-2.696 1.871-2.514 3.942.013.158-.313.523-.51.35-1.264-1.119-1.756-3.656-.495-5.184.347-.419.835-.899 1.547-1.044zm-127.6-192.256c-.609.145-1.491.254-1.663.793-.253.791-.344 1.712-.179 2.595.036.191.279.45.542.36 1.813-.622 3.683-1.438 5.567-1.819.472-.095.476-.904.297-1.021-1.145-.745-2.969-1.285-4.564-.908zm-1.097 15.568c-.204.023-.957.146-1.095.381-.422.711-.547 2.099-.369 3.254l2.896-.586c1.395-.733 2.812-1.412 4.081-1.88.261-.097.081-.712-.298-.763-.507-.068-1.156-.223-1.727-.291-1.066-.126-2.398-.239-3.488-.115zm11.348 88.033c-.018.188-.116.851-.102 1.071.032.561-.187 1.582.218 1.572 2.231-.045 4.762-.012 6.63.357.218-1.033-.067-1.939-.247-2.592-2.22-.179-4.27-.344-6.499-.408zm.165 6.355c-.071-.001-.157.16-.164.199-.125.753-.174 1.713-.029 2.498 2.427-.237 4.531-.105 6.942.107.167-1.015.146-1.982-.157-2.606-2.22-.133-4.446-.17-6.592-.198zm-10.627-104.945c-.499.071-1.307.138-1.532.616-.283.599-.189 1.836-.2 2.784-.001.165.11.532.34.486 2.126-.422 3.798-1.386 5.685-2.149.442-.179.317-.609.287-.891-.061-.545-.613-.785-1.129-.836-1.078-.105-2.36-.166-3.451-.01zm10.288 74.43c-.28.025-.354.221-.354.278.021.984-.092 2.158.04 3.018l6.11-.013c.017-.687-.007-1.218-.178-1.693-.176-.484-.197-1.232-.844-1.26-1.754-.077-3.124-.48-4.774-.33zm-10.667-69.372c-.265-.002-.533.254-.633.286-.697.228-1.213 1.174-1.037 2.094.094.484-.297 1.35.115 1.842.985-.28 2.041-.386 2.713-1.067 1.188-.37 2.483-.677 3.644-1.536.132-.098-.014-.711-.082-1.217-.021-.159-.3-.374-.618-.375zm-197.352 171.673c-.243-.148.54-.105.682-.015l6.347 4.365c2.566 1.555 5.473 2.583 8.277 3.705.472.189.961.474 1.284.916-6.633-.501-10.403-3.885-14.436-6.901-.788-.591-1.261-1.528-2.154-2.07zm210.002-66.273c-.594.034-1.269-.199-1.903.113-.437.216-.245 1.114-.164 1.822.022.191.289.332.522.353l6.961.659c.251.027.572-.183.542-.34l-.509-2.157c-1.857-.27-3.705-.552-5.449-.45zm-2.019-24.284c-.09-.002-.254.211-.27.272-.065.252.136.501.152.759.043.77-.175 1.69.209 2.272 2.118-.013 4.183-.124 6.019.264.262.056.602-.009.651-.313.116-.71.129-1.562-.252-2.11-2.042-.516-4.07-1.1-6.509-1.144zm.332 5.798c-.14.163-.255.243-.253.295.053 1.016.23 2.008.191 3.174-.013.314.635-.166.93-.096 1.577.375 3.676.474 5.657.293-.047-.935-.211-1.764-.168-2.637.009-.164-.286-.254-.452-.257-2.145-.036-4.187-.411-5.905-.772zm148.031 88.691c1.784-.655 3.158.763 3.921 1.893.126.189.29.376.25.697-.038.29-.383.897-.663.636-.952-.879-2.899-.198-3.528.785-.369.582-.688 1.187-1.11 1.736-1.117-.546-2.021-2.313-1.266-3.872.472-.985 1.367-1.497 2.396-1.875zm-235.348 13.169c-1.11.649-2.127 2.258-1.368 3.925.578 1.268 2.369 2.143 3.563 2.113 1.194-.027 2.234-.176 2.742-.851.086-.111.283-.386.075-.578-.822-.761-2.001-1.062-3.028-1.599-.721-.375-.958-1.478-.413-2.286.216-.319-.007-.734-.326-.814-.393-.099-.867-.13-1.245.09zm78.384-168.866c-1.099.128-2.247.279-3.482.286-.661.604-1.386 1.27-2.358 1.565-.41.124-.326.965-.459 1.484-.092.356-.198 1.324.223 1.128 2.314-1.074 4.898-1.987 8.056-2.094.611-.021.374-.91.259-1.195-.334-.82-1.305-.963-2.239-1.174zm-.776-4.942c-1.422.427-2.94.642-4.288 1.102-.37.917-.653 2.259-.506 3.316.908-.062 1.516-.376 2.204-.792 2.164-.397 4.209-1.224 6.117-2.006l-.038-1.45c-1.059-.24-2.375-.504-3.489-.17zm-.874-4.914c-.65.075-1.215.479-1.84.568-.921.131-1.531 1.116-1.427 2.23.048.508-.193 1.512.217 1.455.615-.085 1.266-.263 1.983-.163 1.748-.844 3.604-1.701 5.587-2.238-.054-.44.148-.857.033-1.198-.096-.287-.556-.527-.873-.49-1.367.159-2.535-.296-3.68-.164zm46.384 109.619c-.119.141-.209.219-.209.245l.009 5.546c.284 1.725.903 3.381 1.483 4.97.124.342.32 1.112.504.908.639-.703 1.43-1.282 1.839-2.177-.858-3.483-2.031-6.705-3.626-9.492zm65.262 48.624c.969-.261 1.817.193 2.542.421.671.447 1.097 1.167 1.581 1.954.193.314-.684.208-1.03.16-2.559-.351-4.252 1.202-4.729 3.261-.093.405.128 1.048-.161 1.269-.27.205-.59.147-.789-.076-1.303-1.474-1.204-4.776.376-5.909.63-.452 1.355-.852 2.21-1.08zm-218.716-11.742c-.181.332-.485.59-.847.714-.323.111-1.09.455-.868.647l2.069 1.9c2.826 2.329 4.544 5.802 4.868 10.653.056.845-.129 3.071.342 3.157-.142-.666.334-1.205.326-1.756l-.035-3.161c-.464-3.36-1.05-6.571-2.611-8.937-.751-1.138-1.785-2.116-2.631-2.969-.254-.256-.484-.488-.613-.248zm117.165-81.82c-.088-.005-.16.188-.159.185-.119.724-.274 1.47-.074 2.238.104.404-.229 1.513.236 1.488 2.047-.107 4.279-.054 6.441-.026-.056-1.386-.069-2.731-.285-3.763-2.198.06-4.279-.003-6.159-.122zm-201.899 95.306c-.08-.072.559.038.677.104 4.326 2.444 8.616 4.89 13.33 6.977l4.179 2.543c.229.14.39.373.493.793-1.61.039-2.964-.573-3.992-1.171-1.768-1.029-4.042-1.651-5.747-2.62-3.226-1.831-6.08-4.007-8.94-6.626zm109.464-8.811c-.063.027-.261.098-.328.124-.617.239-1.288.6-1.48 1.262-.092.316-.333.736-.014.993l3.777 2.941c1.075-.755 2.377-1.162 4.162-1.167.329-.002.782.031.974-.452-1.288-1.332-2.437-3.184-4.881-3.517-.725-.098-1.442-.525-2.21-.184zm153.648 3.875c2.518-.372 4.469.847 5.161 2.33.227.486.626.944.078 1.275-1.012-1.666-4.855-1.532-5.94.091-1.36.86-1.616 3.421-.515 4.929-.75.165-1.161-.156-1.382-.536-.489-.841-.941-1.712-1.151-2.713-.576-2.747.997-4.401 2.854-5.087.294-.108.589-.243.895-.289zm-83.953-.832c5.332.037 10.785.048 16.056.229.307.012.688.099 1 .756-1.705.226-3.998.092-5.741.143l-18.441.558c-.387.009-.878-.131-1.009-.596-.076-.266.067-.763.606-.825 2.33-.272 5.009.084 7.529-.265zm73.863 22.477c-.107.107-.275.271-.279.28-1.118 1.947-2.091 3.968-3.109 5.901-1.457 2.767-3.322 5.074-4.421 8.099-.172.474-.814 1.345-.53 1.393.924.158 1.921.493 2.802.156.291-.111.161-.539.248-.784.773-2.195 1.542-4.508 2.574-6.49.401-.769 1.08-1.539 1.056-2.479.683-1.735 1.27-3.504 2.082-4.874.204-.349-.029-1.082-.423-1.202zm101.925-.488c2.8-.148 4.945.775 6.141 2.317.252.325-.493.253-.702.192-.611-.18-1.205-.466-1.833-.552-1.693-.23-2.691.473-3.668 1.058-1.834 1.1-3.165 4.163-1.877 6.722.231.464.398.991.816 1.313-.14.237-.45.146-.653.062-2.237-.938-3.607-4.443-2.478-7.357.521-1.343 1.488-2.189 2.57-2.894.555-.361 1.204-.616 1.684-.861zm-170.342-18.337c3.98-.314 8.039-.232 12.248-.18.239.003.135.62.267 1.096-2.12.17-4.138.288-6.313.336-6.64.146-13.539.375-20.245.112-.294-.012-.902-.418-.469-.719.533-.368 1.23-.486 2.123-.465 4.049.096 8.479.129 12.389-.18zm140.445 24.811c3.72-.469 5.751 1.935 6.729 4.716.079.221.293.562-.187.8-1.01-2.282-5.213-3.104-7.436-1.328-1.189.949-2.062 2.369-2.392 4.528.027-.176.045.261-.373-.051-.308-.228-.608-.782-.659-1.263-.378-3.592.849-6.229 3.425-7.188.173-.063.713-.191.893-.214zm-169.73-2.394c-.66.312-1.326.669-2.378.93-.513-.058-1.287.267-1.335.92-.075 1.012.027 1.965.373 2.756.213 2.316 1.895 3.277 4.007 3.563 2.482.337 4.719-.988 6.012-2.489.542-.629 1.032-1.965.36-3.087-1.516 1.479-3.633 2.438-5.952 2.905-1.083.218-2.051-.289-2.422-1.028-.215-.428-.45-1.003-.019-1.646 1.655.233 2.508-.769 2.839-2.036.094-.361-.469-.686-.854-.923-.146-.09-.417.034-.631.135zm-12.454-.219c-1.105.293-1.964.93-2.968 1.342-1.8.739-3.377 2.451-2.832 5.084.906 1.776 3.304 3.117 5.93 2.179 2.063-.736 3.993-1.932 5.186-3.643.24-.345.447-.789.344-1.186-.102-.393-.733-.26-.896-.096-1.445 1.456-3.401 2.496-5.949 2.854-1.287.181-2.179-.196-2.663-1.04-.091-.156-.221-.431-.18-.712.057-.385.444-.537.761-.615 2.303-.563 4.004-1.926 4.724-4.126-.49-.364-1.03-.153-1.457-.041zm-141.679-23.301c5.546 2.085 10.275 4.834 15.361 7.109 2.691 1.205 5.962 1.737 8.038 3.514l3.863 2.716c.531.365-.176.421-.134.431-6.467-1.541-11.465-4.247-16.353-7.089-3.516-2.044-6.967-4.275-10.598-6.324.013.006-.058-.118-.177-.357zm250.313 12.766c-.054.029-.204.163-.24.216l-5.549 8.131c-2.317 4.399-4.734 8.734-6.32 13.811.767.334 1.605.597 2.336.463.914-2.794 3.303-8.517 3.315-8.54l7.003-13.662c.063-.126-.206-.605-.545-.419zm-67.191-57.134c3.567.154 7.104.356 10.722.351 3.595-.007 6.555-.051 9.219.901.321.115.165.809-.244.803-1.194-.017-2.69-.166-3.729-.47-.279-.08-.579.251-.875.264-1.499.061-2.675-.281-3.806-.137-1.683.215-3.329-.093-4.866-.226-4.609-.398-8.995.28-13.337.572-2.981.199-5.775.353-8.376.711-.145.02-.549-.104-.413-.416.225-.518.803-.795 1.369-.854zm-3.93 5.595 23.857.056c.414-.001.361.557.313.835-.109.646-.908.584-1.398.588-.956.006-1.897-.251-2.755-.209-5.71.285-11.269.052-16.977.084-5.112.029-9.542 1.064-14.827 1.091-.282.002.053-.476.255-.574.197-.095.754-.457.902-.453 2.414.066 4.406-.62 6.458-.805 1.514-.137 2.743-.302 4.172-.613zm-52.377 60.838c-.918.137-1.699.477-2.293.948-.774.614-1.536 1.231-2.211 2.073-.254.315-.324.86-.46 1.348-.386 1.381.048 2.684.894 3.315 1.221.912 3.167 1.212 5.202.864 1.033-.176 1.914-.721 2.638-1.335 1.235-1.049 2.927-2.152 2.313-4.609-.066-.264-.616-.461-.691-.271-.907 2.284-3.036 3.692-5.92 4.143-.652.102-1.117-.551-1.66-.888-.311-.193-.343-.76-.086-.919 1.255-.779 2.467-1.78 3.083-3.174.196-.446.584-1.023.311-1.385-.326-.424-.795-.158-1.12-.11zm-12.911-20.484c.07-.011-.149.08-.226.108-1.844.657-3.38 2.24-3.096 4.666.247 2.119 1.509 3.673 3.353 4.22.41-.439.692-.79.842-1.466-.862-.506-1.937-1.354-1.943-2.732-.001-.375.565-.693.96-.631 1.354.216 2.968.262 4.438.411 1.076-.515 2.312-.871 3.365-1.313.325-.137.243-.506.071-.679-1.702-1.714-4.102-3.142-7.764-2.584zm20.609-14.319c-.383.09-.745.262-1.101.432-1.63.786-2.769 2.806-2.001 5.269.221.709.44 1.657.883 2.187 1.412.157 2.648.376 3.655.658.411.115.449-.559.24-.701-.802-.549-1.694-2.039-1.048-3.708.437-.531 1.396-.813 2.402-.616 1.015.2 1.758.908 2.443 1.425l2.188-.98c-.027-.524-.539-.796-.819-1.139-1.418-1.752-3.496-3.611-6.842-2.827zm111.948-43.289c.012.192.238.56.314.667 1.438 2.071 2.594 4.447 4.044 6.528 1.626 3.749 2.505 8.038 3.763 12.109.172.553.712 1.037.854 1.487l1.11 3.557c.851.126 1.288-.431 1.789-.892-.382-1.168-.794-2.51-1.138-3.815-1.304-4.949-2.524-9.92-5.384-13.562-.386-.254-.707-.965-.541-1.872l-4.223-3.994c-.144-.134-.605-.516-.588-.213zm-123.911 64.273c-.262.032-1.046.162-1.292.247-1.603.547-2.788 1.479-4.036 2.354-1.423.997-1.458 4.261-.163 5.423 2.873 2.574 8.873 1.323 10.589-1.395.287-.455.701-1.192.259-1.888-1.191 1.717-3.261 2.697-5.887 2.892-.962.071-1.827.188-2.721-.21-.327-.462-.851-1.018-.945-1.814-.033-.272.074-.804.586-.793 2.247.047 4.194-.622 5.673-1.668.355-.25.622-1.114.222-1.171-.778-.11-1.673-.871-1.756-1.664-.027-.253-.349-.334-.529-.313zm-2.438-17.091c-.125.003-.467.244-.589.292-1.401.563-2.685 1.815-2.418 3.662.391 2.702 2.017 4.47 4.244 5.523.507.24.715-.654.836-1.029.102-.314.151-.658-.131-.796-.713-.345-1.593-.942-1.633-2.052-.012-.335-.033-1.407.487-1.21 1.101.42 2.279.952 3.686 1.303.883-.838 2.196-1.343 3.692-1.677-1.939-2.28-4.139-4.125-8.174-4.016zm117.207-53.895c-.033.103.165.361.191.44 1.438 4.424 3.935 7.864 6.257 11.723.156.261 1.152-.274 1.624.221.693.728 1.096 2.415.375 3.26 1.006 1.929 1.786 3.941 2.279 6.253.051.235.3.717.563.438.571-.598 1.342-1.122 1.763-1.809-.675-3.049-1.669-5.789-3.14-7.975-.907-1.349-1.513-2.968-2.977-3.766-1.678-2.297-3.057-4.89-4.462-7.445-.28-.51-.819-.813-1.348-1.063-.322-.151-1.005-.633-1.125-.277zm39.706 68.96c3.256-.39 5.104 1.353 5.962 3.581.225.587.516 1.451.098 2.146-.827-.424-1.479-1.318-1.961-1.842-.781-.27-1.52-.424-2.336-.368-3.059.21-4.988 2.059-5.451 4.905-.135.83.02 1.685-.007 2.593-.016.431-.519-.144-.704-.325-1.672-1.643-2.551-6.056-.753-8.125 1.204-1.382 2.893-2.297 5.152-2.565zm-147.478-8.316c-.07.01-.268.106-.333.129-1.982.671-3.599 1.871-4.274 3.815-.001.869-.102 1.643.129 2.32.886 2.602 3.411 4.048 7.108 3.593.323-.041.73-.52 1.195-.841.25-.172.775-.479.572-.789l-2.76.236c-1.253-.245-2.513-.601-3.591-1.208-.665-.374-1.193-1.159-1.14-2.15.022-.402.195-.764.442-.771.724-.021 1.411-.144 1.991.11 2.536 1.112 5.687.065 6.712-2.027.055-.113.034-.928.019-1.194-.031-.563-.654-.655-1.047-.751-1.513-.368-3.29-.708-5.023-.472zm11.247-26.414c-.048.011-.184.076-.213.105-.388.373-.775.751-1.129 1.138-.797.876-1.72 1.891-1.872 3.322-.498 4.708 1.596 8.21 4.313 10.311.221.171 1.025.214.82-.06-.572-.763-1.02-1.823-1.561-2.739-1.369-2.321-1.506-6.369.524-8.106.472-.405 1.209-.688 1.626-.529 1.592.601 2.791 1.646 3.499 3.038.636.002 1.222-.285 1.595-.81.318-.445.281-1.263.028-1.975-.956-2.701-3.887-4.533-7.63-3.695zm-137.834 26.241c-.327-.158.362-.18.487-.129 4.12 1.661 7.982 3.69 12.039 5.327 1.729.696 4.041.814 5.934 1.306 4.913 1.277 8.684 3.791 11.712 6.972.15.156-.295.349-.328.343-2.419-.458-4.218-1.471-5.879-2.298-.42-.208-.619.518-.92.644-.158.067-.671 0-.84 0-.032-.386.304-.988.077-1.169-.692-.551-1.812-.662-2.67-1.065-1.955-.917-4.632-1.149-6.463-2.186-2.461-1.395-4.984-2.726-7.307-4.143-.486-.297-1.041-.803-1.609-1.047-1.543-.662-2.727-1.828-4.233-2.555zm139.741-3.495c-.03.004-.107.076-.139.089-1.41.493-2.667 1.294-3.419 2.454-1.232 1.9-.292 5.07 1.03 6.317 1.909.899 4.794 1.478 7.61.935.557-.311 1.12-.75 1.591-1.164.499-.439-.279-1.682-.568-1.509-1.444.866-3.54.571-5.473.45-.563-.034-1.166-.3-1.409-.73-.313-.554-.633-1.098-.76-1.713-.099-.48.325-.931.729-.927 1.347.019 2.619.259 4.04.23.671-.405 1.603-.593 2.32-.831.08-1.069.423-2.12.125-3.024-1.683-.542-3.617-.874-5.677-.577zm163.163 23.491c2.488-.402 6.369 2.229 6.564 2.754.223.606.847.961.831 1.821l-2.642-1.188c-5.161.414-8.33 2.925-8.679 7.996-.021.321-.007 1.292-.007 1.684-1.215-.568-2.649-2.678-2.401-6.74.286-3.708 2.631-5.354 5.6-6.133.153-.04.585-.17.734-.194zm-56.248-13.884c-.518.654-.838 1.369-1.287 1.988-5.62 7.764-10.428 16.286-14.655 25.525-.461 1.009-1.121 2.092-1.314 3.383 1.048.278 2.308.368 3.091.041 2.427-7.228 5.344-13.808 8.783-19.814 1.927-3.363 3.564-7.002 5.887-10.138.036-.049.018-.709-.006-.92-.03-.244-.396-.197-.499-.065zm-148.745 19.474c-.144-.032-.523.246-.629.316-.898.602-1.569 1.47-2.183 2.336-1.999 1.402-2.153 5.659-.33 7.413 1.646 1.583 5.055.921 7.225.237 1.789-1.215 3.505-2.486 5.008-4.016.435-.444.293-1.12-.101-1.502-.327-.317-.757.016-.949.324-1.598 2.573-4.895 4.415-8.822 3.794-.592-.314-1.418-.554-1.386-1.438.016-.411.402-.655.759-.754 2.87-.793 5.019-2.49 5.46-5.692.045-.331-.322-.5-.543-.502-1.353-.012-2.43-.268-3.509-.516zm50.17-43.086c-.094.007-.354.144-.445.16-1.602.284-2.566 1.353-3.443 2.406-.38.455-.788 1.05-.764 1.547.049 1.022-.25 2.026.062 2.852.679 1.795 1.864 3.188 3.27 4.281.609-.184 1.277-.826 1.388-1.437-.603-1.224-1.191-2.297-1.145-3.912.02-.675.491-1.183 1.093-1.562.2-.129 1.287-.399 1.639-.515.479-.158.953-.16 1.428.006 2.026.704 3.606 2.17 4.298 4.15.654-.084 1.271-.09 1.444-.416.207-.393.091-.859-.068-1.26-.449-1.129-1.184-1.987-1.861-2.904-1.428-1.935-3.43-3.667-6.896-3.396zm41.81-179.534c-.186.018-.728.178-.915.209-1.816.292-3.382.981-4.524 1.926-.431 1.743-.345 3.831-.099 5.655.048.354.361.655.795.664.195.004.36-.291.626-.355 2.503-.616 5.146-1.036 7.947-1.43.412-.526.231-1.477.115-2.16-2.655-.302-5.349-.218-7.279.651-.352-.438-.079-.953.235-1.093 8.914-3.976 16.15-1.593 17.904-1.279.391.071.557-.723.265-.819-4.313-1.415-9.362-2.497-15.07-1.969zm-98.257 208.737c-2.466.498-4.249 1.62-5.569 3.2-.757.906-1.7 2.186-1.101 3.88.432 1.221 1.271 2.063 2.177 3.043 1.298.475 2.648 1.079 4.764.896.57-.052 1.248.074 1.672-.413.247-.284.106-.644.046-1.017-.083-.514.048-1.809-.318-1.625-1.022.513-2.694.899-3.961.315-.798-.368-1.656-1.048-1.419-2.376.065-.363.496-.626.694-.529.837.413 2.346.184 3.141-.228.527-.273 1.172-.655 1.9-.264.54-.502.708-1.609 1.103-2.341.291-.541.979-1.138.935-1.824-1.093-.613-2.578-1.018-4.064-.717zm33.644-29.67c-.683.345-1.358.49-2 .765-2.586 1.105-3.775 5.217-2.239 8.4l3.831 1.959c.165-1.64.507-3.058 1.222-3.954.353-.442-.266-1.218-.344-1.847-.06-.476-.127-1.033.252-1.415.405-.406 1.081-.336 1.572-.157.799.29 1.693.727 2.412 1.021.837-.439 2.005-.412 3.084-.491-.926-2.095-2.411-3.79-4.688-4.187-1.006-.176-2.184-.249-3.102-.094zm-123.152 14.76c2.104.791 4.075 1.754 5.941 2.354 3.214 1.034 6.338 2.161 8.764 3.474 6.533.72 11.149 2.991 15.773 5.233 1.48.718 2.443 1.936 3.319 3.215.344.504.762.98 1.325 1.61-2.469-.747-4.427-1.894-6.448-2.868-3.064-.803-5.36-2.514-8.142-3.678-4.457-1.051-8.168-2.813-11.844-4.531-1.145-.12-1.98-.554-2.811-.976-1.979-1.005-3.749-2.232-5.652-3.382-.002-.002-.067-.136-.225-.451zm231.896-52.452c-.101.118-.19.196-.19.221l.003 5.684c3.69 5.098 6.407 11.185 7.721 18.646.097.549.976.086 1.106.365.512 1.086 1.032 2.183 1.398 3.46-.644.202-1.382.731-1.264 1.59.07.511.825.246 1.239.205.341-.033.87-.217.786-.646l-2.348-12.626c-1.955-6.414-5.685-11.202-8.451-16.899zm-76.659 48.615c-.461-.016-1.303.319-1.845.259-2.52-.282-4.584.786-5.819 2.505-1.429.965-2.778 3.898-1.548 6.076 1.178 2.088 3.562 4.007 7.144 3.069.961.159 1.916-.119 2.489-.682-.01-.812-.04-1.643-.205-2.586-1.15 1.416-3.7 2.311-5.65 1.36-.441-.214-.751-.665-.907-1.163-.152-.482-.537-1.49.26-1.517.946-.031 2.348.029 3.17-.532 1.682-1.146 2.194-3.425 3-5.437.152-.376.361-1.337-.089-1.352zm-71.769 30.956c-.109.036-.473.027-.57.076-2.822 1.402-5.077 3.563-6.179 6.616-1.055 2.921 1.016 4.801 3.154 5.342 2.951.747 6.365-.382 8.541-1.479.56-.282.857-.831.603-1.682-.116-.384-.022-1.077-.437-1.205-1.005 1.638-3.028 2.473-5.31 2.465-2.165.516-3.95-.543-4.444-2.207-.127-.426 1.056-.547 1.649-.708 2.811-.776 5.207-2.105 5.84-5.067.083-.387.274-.945-.054-1.223-.518-.438-1.218-.577-1.787-.973-.307-.213-.699-.055-1.006.045zm17.448-11.639c-1.44.395-2.455 1.138-3.55 1.846-1.92 1.239-3.603 3.104-3.239 6.188.175 1.485 1.738 2.048 2.978 2.585l2.632.201c1.765-.069 3.06-.879 4.539-1.462 1.611-.634 2.698-1.964 3.804-3.196.236-.264.114-.584.021-.854-.104-.302-.434-.676-.593-.524-2.313 2.193-5.468 3.553-9.417 3.924-.872-.211-1.747-.783-1.757-1.697-.003-.339.048-.875.53-1.043.077-.027.629-.051.813-.063 3.5-.259 5.626-2.026 7.466-3.706-.442-1.734-2.085-2.784-4.227-2.199zm31.371-1.951c-.082.009-.318.079-.397.104-3.317 1.082-6.333 3.588-5.762 7.79.326 2.394 2.279 3.429 4.8 3.538 1.306.057 2.525-.199 3.671-.51 3.012-.821 5.364-2.708 5.392-6.638-1.444 2.442-3.743 3.828-6.786 4.353-1.309-.126-2.957.045-3.934-.187-.726-.735-1.332-1.75-.875-2.782.993-.337 2.359-.207 3.488-.354 2.158-.97 3.594-2.678 4.888-4.452.247-.337-.273-.494-.521-.597-1.071-.446-2.656-.399-3.964-.265zm16.021-1.465c-.845.459-1.644.764-2.37 1.356-2.212 1.804-3.545 5.148-2.993 9.096.233 1.668 1.436 3.032 3.237 3.263.969.123 1.93-.176 2.887-.293 2.578-1.775 4.984-3.916 5.589-7.654.091-.563-.495-.967-.904-1.057-.196.292-.216.631-.376.902-.921 1.568-1.852 3.216-3.019 4.57-.978 1.133-3.109 1.932-4.772 1.097-.373-.188-.192-1.017.173-1.277 1.576-1.128 2.653-2.862 3.118-5.042.25-1.173 1.219-1.762 2.37-2.026.302-.07.676-.17.752-.548.283-1.408-.81-2.001-1.794-2.339-.346-.119-1.603-.206-1.898-.048zm-57.56-9.786c-2.26.389-4.037 1.847-3.704 4.746.37 3.221 2.691 4.776 5.55 5.734 1.523.511 3.385 1.252 5.086.577.231-.092 1.031-.438.583-.598-1.117-.4-2.207-.697-3.633-.758-.979-.436-1.974-.935-2.881-1.545-1.099-.739-2.36-1.657-2.364-3.497 0-.453.561-.765.859-.52 2.191 1.81 5.872 2.995 10.085 2.254.962-.169 1.856-.892 1.841-1.885-.403-.76-1.216-1.145-1.958-1.602-2.495-1.533-5.48-3.592-9.464-2.906zm225.926-9.772c1.304.038 3.323-.139 4.602.413 2.495 1.076 4.443 2.982 5.108 5.813.073.314-.371.276-.492.107-1.29-1.776-4.685-2.834-6.635-1.284-3.937.931-6.149 3.463-7.544 6.635-.199 2.215.462 4.093 1.177 5.535-3.532-1.624-5.185-8.159-2.782-12.22 1.252-2.117 2.994-3.872 5.696-4.565.138-.036.532-.444.87-.434zm-286.014-6.886c.669-.023 1.375.455 1.881.705 2.406 1.188 4.393 2.643 6.189 4.396 1.753 1.108 2.862 2.99 4.824 3.894 3.484 1.604 6.972 3.162 10.016 5.192.589.394.949 1.031 1.475 1.726.354-.52 1.215-1.16 1.972-.664.358.234.658.584.723.989.156.98-.334 1.699-.809 2.153 1.717 2.27 2.704 5.182 3.59 8.068.124.399.918.152 1.367.22.308.045.327-.39.293-.672-.07-.577.01-1.2-.259-1.712-1.407-2.667-2.092-6.021-3.616-8.561-.956-1.596-2.518-2.929-4.149-3.867 1.084.305 2.39.531 3.293 1.188 2.576 1.87 4.123 4.734 4.927 8.325 1.1 1.334 1.698 3.636 1.35 5.661.159 1.352.484 2.511.087 3.342-.198.414-1.07.461-1.273-.055-.172-.436-.103-1.065-.491-1.26-.494-.247-1.121.271-1.799.375.222.914.682 1.84.603 3.023-.024.348-.331.657-.667.72-.387.072-.954-.192-1.038-.728l-.885-5.462c-1.266-4.805-3.461-8.938-6.438-12.18-.757-1.624-2.701-2.082-4.23-2.89-2.187-1.152-4.676-1.919-6.415-3.449-2.09-1.84-4.165-3.611-5.837-5.479zm214.798 12.019c-.136.029-.294.106-.352.188-2.569 3.589-5.021 7.401-7.856 10.807-4.792 7.436-8.856 15.642-12.584 24.255-.985 2.279-2.627 4.202-3.14 7.021.817.636 2.4.65 3.271.364.454-.149.42-1.086.611-1.651 1.324-3.898 3.194-7.404 4.634-11.155 1.344-3.502 2.789-7.026 4.556-10.02 2.919-4.942 5.403-10.134 8.878-14.511.975-1.229 2.402-2.215 2.207-4.553-.019-.237.144-.826-.225-.745zm28.466-13.381c3.613-.504 6.416 1.404 7.045 4.414.3.084.574-.031.618-.17.394-1.236 1.93-1.894 3.243-1.714 1.766.243 2.586 1.813 3.136 3.312.043.118.061.711-.347.475-1.16-.675-3.714-.728-4.338.516-.253.502-.135 1.183-.508 1.363-.461.225-.838-.233-1.109-.442-.5-.385-.764-1.169-.768-2.019-.65-.725-1.868-.778-2.943-.678-4.816.449-8.096 2.691-8.175 7.652-.011.646.608 1.387.49 2.062-.669-.823-1.419-1.674-2.212-2.249-.321-.772-.907-1.336-1.138-2.129-1.184-4.079 1.183-7.708 3.68-9.445.867-.603 2.104-.779 3.326-.948zm-24.106 2.603c-.081.041-.224.098-.246.124-.482.573-1.091.961-1.629 1.473-4.35 4.142-8.871 8.221-11.876 13.691-3.325 4.904-6.304 10.145-9.41 15.3-.548.91-7.062 14.58-7.17 14.92l-1.108 3.431c.254.729.959 1.26 1.439 1.898.271.361 1.05 1.368 1.201.762.353-1.423.669-2.908 1.018-4.247.289-1.103.779-2.011 1.178-2.888 2.383-5.268 4.131-11.019 6.923-15.779 5.746-9.797 11.686-19.243 18.976-27.455.297-.334.937-.929.704-1.23zm-60.077-122.155c-.096.003-.402.236-.608.239-1.66.024-3.289.21-4.927.804-2.11-.055-3.63 1.084-4.59 2.58-.816 2.299-1.59 4.688-2.512 6.865-.111.268-.544 1.127-.074 1.009l4.459-1.015 8.554-.663c0-.403-.007-1.352-.012-1.667-.005-.367-.224-.907-.549-.888l-2.306.113c-.234.005-.781-.224-.614-.309 1.37-.689 3.415-.82 4.823-1.36.253-.098.787.428 1.356.397l3.072-.153c.188-.009.497-.356.488-.497-.048-.785.004-1.601-.432-2.07-2.511-.012-4.621.293-7.192.097-.316.172-1.367.234-2.113-.02 3.07-1.027 6.047-1.731 9.811-1.565.152-.989-.08-1.904-.535-1.916-2.119-.056-4.221-.053-6.099.019zm64.458 112.398c-.725.144-1.404.442-2.193.59-.488.947-1.451 1.532-2.566 2.305-.627 1.021-1.89 1.825-3.068 2.699-4.613 3.422-8.122 7.983-11.777 12.345-2.942 3.508-5.413 7.448-7.513 11.778-.961 1.177-5.344 10.292-6.624 13.531l-4.5 10.004c.553 1.498.919 2.925 1.585 4 .096.154.478.467.563.065.705-3.368 1.396-6.88 2.629-9.907l5.832-12.683 5.805-10.167c5.373-7.911 12.106-14.648 19.29-20.838 1.283-1.103 2.777-2.058 3.483-3.697-.35-.332-.65-.083-.946-.025zm-10.152 3.815c-1.459.4-2.744 1.012-3.978 1.651-6.397 5.394-11.377 12.243-15.614 19.778l-8.973 16.761c-.073.139-.545.216-.443-.054l1.74-4.783c2.874-8.26 6.922-15.437 11.593-21.922 1.545-2.145 3.632-3.869 5.082-6.376-1.005.211-1.735.794-2.86.982-.774.432-1.313 1.583-2.284 2.256-3.808 4.344-6.899 9.473-9.629 14.83-.41.802-.798 1.935-1.675 2.573.804-2.822 1.835-5.252 2.93-7.353 1.657-3.176 3.861-5.78 5.527-8.907-1.591.676-2.997 1.661-3.929 2.987-3.031 4.315-4.928 9.876-6.352 15.651-.89 3.601-1.017 8.146-.783 12.622.139 2.641.515 5.103 1.231 7.538.53-1.029.963-2.121 1.198-3.191 1.377-6.273 3.489-11.838 6.358-16.704 3.827-6.496 7.074-13.369 11.861-18.816 2.984-3.396 6.234-6.601 9.619-9.604-.248-.052-.432.03-.619.081zm-50.652-103.231c.103.011-.199.132-.344.132-3.025.01-6.354-.125-9.274.462-3.009.606-6.819.798-8.968 2.033-.545 1.122-.791 2.002-1.035 2.957-.043.169-.367.8.143.669 3.179-.818 6.635-1.521 10.216-2.061.559-.084 1.266-.035 1.798-.079 2.453-.204 5.185-.09 7.944-.309.826.358 2.482.331 3.354.673.488.191.448.709.241.929-.248.263-.624.058-1.006.034-7.437-.468-15.071.374-21.521 1.76-1.278-.195-2.561.531-2.546 1.739.006.356-.223.806.123.725 2.772-.655 5.792-.998 8.401-1.856 5.305-.496 11.759-.153 16.911-.282.429-.01.589.57.391.97-.082.168-.295.407-.539.562-.082.052-.464-.045-.582-.055-9.255-.732-18.313.344-25.574 2.485-.473.957-.644 2.313-1.128 3.327-.112.235.186.447.356.407 5.848-1.371 12.163-2.425 18.958-2.427 3.71 0 6.871.75 10.668.642 2.136-1.687 4.482-3.224 6.581-5.058.244-.213.812-.639.322-.963-1.285-.851-2.281-1.98-3.359-3.039-1.345-1.322-2.644-2.754-4.252-3.824-1.706-.604-4.077-.298-6.279-.553zm-19.76 95.263c-1.788.24-2.408.55-3.503.927-2.216.763-3.304 2.525-4.414 4.398-1.103 1.859-1.587 4.225-1.869 6.84-.088 2.878.07 3.483.3 5.187.125.938.133 2.062.481 2.972.494 1.293 1.385 5.796 6.138 7.063 5.573.293 8.367-2.293 10.311-5.411 2.592-4.158 2.876-11.197.99-16.715-1.913-2.65-4.634-5.265-8.434-5.261zm-14.485 44.258c-.098-.002-.21.194-.208.26.026 3.491.517 7.079.351 10.732.648 2.059 2.174 3.743 4.273 4.602 14.624 2.26 31.104 2.357 47.933 2.133.806-.01 1.535-.242 2.077-.729-.64-1.048-1.093-2.444-1.435-3.725-3.938.051-7.284-.064-10.858.399-3.023-.118-5.818.11-8.563.023-8.007-.252-14.94-.201-21.817-1.475-2.341-.128-4.88-.686-5.938-2.375-.208-.333-.922-3.235-.947-4.027-.008-.237.045-.717.153-.611.668.66.677 1.648 1.256 2.237.342.349 1.286.762 1.882.85 7.26 1.073 14.932 1.245 23.101 1.096 3.835-.54 7.772-1.148 11.245-1.968.315-.075-.153-.422-.294-.419-2.436.072-4.797-.13-6.981-.206-6.305-.222-12.368-.811-18.495-1.335-2.677-.229-5.464-.236-7.781-.638 6.962-.75 14.679-.875 22.271-.95 3.064-.031 5.984-.211 8.64-.481 1.299-.134 2.183-.502 2.807-1.233.065-.076.056-.505.017-.627-.058-.184-.313-.215-.358-.215l-18.195-.146-21.452-.76c-.924-.003-1.867-.394-2.684-.412zm44.705-151.29c.235 1.567.298 3.046.675 4.309.847.19 1.646.226 2.115.817.22.273 1.121.629.715 1.173-.435.583-1.515.137-2.278-.301-.089 1.051.444 2.058.672 2.821 1.083.511 1.919 1.343 2.785 2.066.172.141-.145.389-.31.41-.574.073-1.199-.128-2.025-.353l.738 3.351c1.23.308 2.33.562 3.146.919.353.154.416.623.177.867-.312.318-.736.209-1.095.102-.2-.062-.432.142-.281.318.821.964 1.386 2.201 2.578 2.947.268 1.089-.557 2.027-1.231 2.456.026.371-.135.736.193.971 1.353.964 2.813 1.796 4.298 2.516.009.482-.173.979-.587.945-.797-.064-1.636-.249-2.681-.303.256 1.148.722 2.312 1.077 3.326 1.612.35 2.78 1.006 3.867 1.774.232.163.193.514-.084.697-.969.639-2.139-.229-3.115-.566.095.729.097 1.618.533 2.046 1.121 1.099 2.651 1.916 3.882 2.977.271.233.858.758.481.964-.587.324-1.322.127-1.944-.022-.479-.115-.992-.67-1.505-.259.498.933.85 2.108 1.007 3.277.05.376.701.643 1.161.845 1.285.565 2.862.972 3.311 2.186.135.369-.473.505-.758.451-.894-.169-1.792-.807-2.804-.702.268 1.289.379 2.544.765 3.893 1.333 1.087 3.545 1.594 4.407 3.24.135.257.302.87.016.778l-3.66-1.163c.321 1.157.396 2.593.71 3.689 1.846.646 3.404 1.556 4.613 2.438.328.238.058.934-.353.857-1.048-.197-2.277-.719-3.654-.643.043 1.481.524 2.25.814 3.375 1.812.973 3.279 2.287 4.618 3.746.177.191.055.474-.325.611-.594-.505-1.76-.869-3.021-.858-.27.516-.177 1.445-.006 1.972.154.474.347.87.285 1.267 1.404 1.116 2.467 2.583 4.11 3.569.208.124-.509.548-.916.326-.653-.359-1.446-.876-2.636-.914-.271-.008-.68.096-.621.354.179.779-.046 1.742-.036 2.522 1.697 1.173 2.938 2.734 4.177 3.735.396.322-.09.997-.577.817-.918-.34-2.56-.573-3.998-.715.162.944.051 1.708.088 2.51 1.691.766 3.102 1.53 4.395 2.449.275.194-.006.899-.393.785-1.002-.297-2.664-.571-3.911-.597l.016 3.625 3.777 1.731c.505.227.569 1.02-.016 1.338-.343.187-1.051-.076-1.903-.067-.398-.268-1.236-.721-1.987-.435v2.648c1.415.393 2.723 1.202 3.723 2.096.313.281.802.464.909.942.058.263-.156.661-.359.586-1.117-.416-2.87-.49-4.272-.59v2.355c.467.565 1.237.787 1.979 1.106 1.336.576 2.897.98 3.353 2.43.068.22-.218.339-.368.481-1.423-.467-3.272-.566-4.963-.775v3.018c0 .272.438.483.758.582 1.603.497 3.24 1.217 4.548 2.162.239.174.292.662.017.703-1.709.256-3.771.068-5.322-.232v3.725c1.349.265 2.639.715 3.958 1.142.379.122.941.17 1.039.738.041.235-.195.45-.352.46-1.591.086-3.142.491-4.644.683l.017 2.533c1.311.252 2.482.717 3.913.794.234.013.408.248.484.465.124.36-.206.658-.483.721-1.351.313-2.738.603-3.814 1.162.031 1.322-.105 3.013.108 4.176.729-.867 1.544-1.294 2.094-1.951.949-1.135 2.704-1.654 3.84-2.353l.356-39.295c.023-2.477.163-4.88.471-6.915l-1.853-12.571-4.029-15.45c-.714-2.29-1.867-4.318-2.646-6.784-2.908-9.193-6.608-17.511-9.775-26.46-.568-1.605-1.202-3.171-1.507-4.971-.444-2.598-2.223-4.037-4.671-4.621zm-30.484 105.613c2.176-.074 3.729.724 5.245 1.481 4.021 2.007 6.669 6.003 6.075 12.423.015 4.986-1.094 9.089-3.001 12.257-1.823 1.911-4.068 3.482-7.165 4.054-1.185.219-2.383.117-3.876-.009-3.192-.538-5.327-2.271-6.387-4.978-1.231-3.139-2.113-7.638-1.924-11.589.716-3.32 1.213-6.508 2.98-8.808 1.834-2.388 3.999-4.693 8.053-4.831zm-127.199-16.006c-2.393 1.099-4.717 1.921-7.036 2.61l-2.428 2.017c6.321 1.76 10.892 4.995 15.421 8.361 6.441 4.787 11.441 11.05 15.209 18.518 2.088 3.174 4.513 6.054 7.773 8.075.159.099.502.232.498.037-.03-.974.625-1.733.784-2.445-.717-.67-1.317-1.315-2.066-1.757-1.547-1.631-3.258-3.106-5.206-4.344l-4.708-8.751c-.363-.571-1.16-1.197-1.208-2.213 1.772 1.638 3.41 3.252 4.274 5.486 1.412 3.648 3.666 6.365 7.034 7.9 3.83 1.745 6.343 4.871 9.167 7.573.244.234.688-.408.579-.72-1.215-3.47-3.814-5.586-6.235-7.85-2.839-2.655-6.075-4.966-8.252-8.274-2.618-3.978-4.971-8.278-8.444-11.479-.318-.293.356-.128.258-.211 3.045 2.6 5.371 5.552 7.531 8.706l4.64 5.374c3.251 2.74 7.126 4.855 10.128 7.837 1.694 1.684 2.917 3.931 4.028 5.876.254.446.556-.089.475-.268-1.906-4.23-4.798-7.444-7.903-10.473-.709-.689-1.597-1.342-2.021-2.304.347-1.745 10.301 6.815 12.675 12.272.509.627.575 1.492.828 2.436.106.397.32 1.048 1.189 1.244-1.576-4.11-2.841-8.408-4.981-11.742-2.434-2.301-4.666-4.823-7.263-6.967-3.802-3.14-7.339-6.541-10.85-9.985-4.387-5.374-9.852-9.732-17.13-12.191-2.268-.764-4.082-2.144-6.76-2.348zm-35.385 17.947c-.102-.008-.336.138-.369.17-2.08 2.116-4.333 4.027-6.486 5.96-.135.119-.055.492.159.475.96-.083 1.917-.407 2.879-.366 4.875.207 8.963 1.282 12.704 2.723 7.213 3.954 13.624 8.73 20.146 13.369 2.68 1.906 6.401 2.69 9.069 4.582 2.748 1.948 4.412 4.98 6.027 8.07 1.591 3.045 3.36 7.622 1.965 11.981-.095.299.169.726.453.6 2.217-.967 4.468-1.819 6.549-2.882 1.095-.56 2.024-1.778 1.549-3.214.508-1.095-.017-1.968-.083-2.872-.311-4.172-1.585-7.537-3.269-10.415-1.682-2.033-3.657-3.755-5.485-5.864-5.058-2.227-9.589-5.127-13.505-8.654-2.227-2.007-4.044-4.385-6.766-5.938-7.059-4.024-15.326-6.936-25.537-7.725zm-19.747 52.47c-3.199-.063-6.334.49-9.469.508-1.916.419-4.013 1.322-4.191 3.032-.552 5.3 3.229 5.74 3.596 6.18 3.946.189 8.16-.039 12.173.199 5.594.334 11.896.307 17.824.4 10.302.165 20.421-.007 31.265-.25 3.706-.083 28.149-.207 31.284.305.689.113.595-2.282.194-2.447-1.59-.648-4.324-.776-6.567-.559-5.478-.743-46.254-.434-46.735-.431-3.421.021-7.715-.336-11.253-.565-1-.064-1.914-.205-2.372-.784-.295-.373.361-.547.612-.565 8.836-.633 34.914-.686 38.807-.604 8.107.165 28.168-.865 29.021-1.206.282-.112 2.188-2.183 1.914-2.185l-7.093-.121-60.509-.459c-6.095 0-12.288-.329-18.501-.448zm14.46-43.437c-.207.004-.822.206-1.031.225-.618.056-1.249.189-1.843-.01-.439-.147-.67.433-.591.789.955 4.299 2.904 7.767 4.429 11.659.363.926.821 1.938 1.347 2.812 1.901.427 3.463 1.11 5.063 1.787 3.755 1.592 8.443 2.189 12.303 3.688 6.087 2.361 11.365 5.485 15.678 9.598 1.512 1.439 1.53 5.064-.313 6.29 1.109.496 2.317.659 3.158.82 2.421 1.253 5.344 1.927 8.349 1.761.606-.034 1.598.006 1.693-.612.316-2.05.634-4.437.379-6.712-1.175-3.97-2.997-7.264-4.987-10.377-2.516-2.739-6.506-3.959-10-5.73-3.774-3.029-7.826-5.788-12.136-8.266-5.404-4.302-12.001-7.914-21.498-7.722zm28.701-19.558c-.575.08-1.197.215-1.645.584-1.417 1.17-2.509 2.629-3.975 3.709-.704 1.868-.887 4.302-1.316 6.303-.064.298.444.565.761.644 5.424 1.352 9.476 4.145 13.327 7.079 3.141 3.498 6.798 6.498 11.092 8.892 5.049 2.814 9.628 6.135 12.677 10.986 2.672 4.255 3.745 10.38 4.198 16.716.034.484-.579.801-.934 1.126-.357.328-1.131.441-.944 1.041.106.337.498.606.848.777 1.077.525 2.362.883 3.676 1.044l4.832.273c1.015-.597 2.009-1.19 2.743-1.99 1.697-4.815 1.876-12.085-.451-16.433-1.707-3.187-4.367-5.476-7.128-7.622-2.469-1.92-4.602-4.187-6.399-6.728-1.99-2.812-3.234-6.321-5.336-9.001l-5.367-6.089c-3.415-3.784-7.862-6.515-12.358-9.272-2.176-1.332-4.613-2.55-8.301-2.039zm-45.642 31.374c-1.804.146-3.64.462-5.288.574-1.096.076-1.994.469-2.459 1.2-.21.33-.784 1.413-.828 1.751-.321 2.479.151 4.439.429 6.609.39 3.046 1.586 5.276 3.188 7.121 2.669 3.076 6.228 5.348 10.588 6.695 2.907.899 5.229 2.285 8.804 2.592 1.556.133 3.373.302 4.979.108 2.911-.353 5.497.144 8.546.251 1.756.06 3.219-.354 5.067-.43 2.489-.101 4.168-1.121 6.392-1.605 4.43-.256 7.829-1.445 10.633-3.149.332-.201-.036-.784-.193-1.09-.864-1.685-2.729-2.392-3.907-3.745-2.497-1.607-5.473-2.677-8.352-3.954-5.004-2.222-11.348-3.113-16.257-5.431l-9.972-4.938c-3.155-1.446-6.749-2.932-11.37-2.559zm197.518-100.296c-1.533.136-3.188.251-4.887.222l-11.152 2.437c-.305.188-.844.717-1.534.883l-5.061 13.766c-.11.303-.104.751-.169.943-.721 2.159-1.087 4.322-1.825 6.303-1.262 6.186-2.25 12.741-2.406 20.004-.413 3.571-.614 7.265-.252 10.999l4.338-1.286c.471-6.111 2.963-24.797 3.331-27.068.251-1.563.865-2.87 2.066-3.353.56-.225 1.424.295 1.294 1.058-.854 5.045-.677 11-1.178 16.672-.252 2.854.163 5.282.269 8.159.04 1.053-.077 2.331.228 3.211 6.356-.727 13.03-1.075 19.698-1.028.141-1.011.1-2.252-.158-2.991-3.697.142-7.498-.028-11.091.016-.696.008-1.726.159-2.094-.459 4.154-.975 8.861-.963 13.207-1.42.564-1.023.15-2.015.095-3.271-.012-.242-.211-.459-.444-.472-4.541-.216-8.704-.051-13.113-.03-.198.001-.201-.389-.004-.441 1.58-.425 3.538-.491 5.072-.981 2.647-.139 5.628-.096 8.403-.111.259-1.162.385-2.258.399-3.411.007-.443-.263-.889-.762-.961-2.523-.372-5.446-.266-8.261-.386-1.539-.066-3.161-.188-4.485.175-.321.088-.312-.584-.038-.625l12.499-1.653c.319-.042.914-.042.917-.277.021-1.146.157-2.285-.051-3.18-.089-.379-.422-.578-.759-.574-4.123.055-7.867-.134-11.438-.198 3.089-.613 5.83-1.608 9.411-1.515.806-.332 1.897-.087 2.667-.339.042-1.311.032-2.578-.165-3.677l-10.179.171c-.303-.001-.837-.078-.869-.426.661-.357 1.482-.345 2.279-.289 2.428-.502 4.876-.892 7.558-.943.481-.009 1.425.141 1.365-.336-.154-1.257.13-2.501.226-3.376.042-.395-.246-.797-.675-.845-2.923-.331-5.976.293-8.95.181-.176-.007-.632-.202-.404-.272 2.822-.863 5.918-1.406 9.52-1.381.219.001.499-.099.52-.286.139-1.292.055-2.622-.063-3.896-.398 0-1.285-.033-1.572.01-2.142.322-4.433.474-6.615.097-.271-.047.188-.377.369-.395 1.751-.171 3.362-.638 5.176-.754 1.295-.083 2.244-.358 2.872-1.222-.106-.836-.15-1.671-.126-2.363-2.051.246-3.646-.169-5.646-.045-.709.044-1.533-.001-2.202-.496 2.487-.397 4.833-.769 7.454-.81.229-.003.493-.161.551-.402.079-.319-.031-1.399.04-1.807.07-.398.14-.938-.182-1.333-.521.148-1.078.209-1.603.205-1.863-.014-3.96-.008-5.612-.087-.211-.519.125-.593.27-.608 2.365-.241 4.547-.706 6.734-.898.423-.399.487-1.201.448-1.931-.012-.21-.36-.607-.571-.607zm-100.961 52.632c-1.25.322-2.668.463-3.876.738-.795.181-1.461.491-1.923.948-2.023 1.996-2.934 5.084-3.317 8.793.783 3.499 1.139 7.285 1.467 11.278.141 1.727.475 3.08.231 4.814.835.981 1.752 1.733 2.75 2.461 4.033 2.943 7.263 6.755 10.775 10.268 2.171 3.726 3.634 8.119 4.956 12.662-.084.961.982 1.617 1.845 1.566.71-2.3 2.987-3.188 5.726-3.467l3.943.737c.542.3 1.179 1.054 1.959 1.249.205-2.996 2.488-4.232 4.969-4.822.315-.075.608-.375.543-.662-.794-3.459.588-7.01 2.656-8.671.841-.674 1.722-1.332 2.792-1.807.375-.167.298-.811.142-1.144-1.085-2.309-2.05-4.755-2.913-7.195-1.469-4.146-4.115-7.064-6.241-10.494-3.666-5.909-9.235-10.003-15.254-13.61-3.037-1.819-6.63-3.618-11.23-3.642zm64.511-21.613c-9.325.525-18.739.923-26.703 2.778-7.804 1.818-15.447 3.783-21.825 7.04-5.593 2.258-11.016 4.707-15.494 8.351 4.207.399 7.502 1.658 10.347 3.147 5.042 2.641 9.364 5.946 13.325 9.632 3.169 2.951 5.406 6.833 8.019 10.399 2.367 3.229 3.995 7.255 5.583 11.274.598-.149 1.472-.396 1.333-.829-1.099-3.408-2.44-6.656-3.817-9.774-1.665-3.768-3.252-7.332-5.911-9.994-.868-1.366-2.287-2.56-2.722-4.271 5.524 5.055 10.427 10.689 14.261 17.451 1.418 2.5 2.022 6.025 3.403 8.832.485-.603.857-1.136.753-1.733-.554-3.223-1.668-5.967-2.458-9.345-1.779-2.82-3.681-5.951-5.211-9.458l-5.235-6.809c-3.173-2.31-5.871-4.801-8.222-7.609 1.482.693 2.634 1.859 3.767 2.923 2.297 2.157 5.067 3.8 7.328 6.031.344.86.954 1.662 1.857 2.041 3.648 3.96 6.585 8.767 9.157 13.83.204.399.626.561 1.009.745.661.318.682 1.276.179 1.8l.948 2.69c.424.08.842-.244.74-.634l-.794-3.603c-.262-.901-.401-1.886.192-2.576l-2.384-4.228c-.249-1.717-.8-3.344-1.244-4.798-.157-.517.592-.303.708-.159 3.649 4.574 6.59 9.788 8.792 15.536.237.622 1.216.657 1.674.396-.431-3.838-1.751-6.81-3.177-9.651-1.038-3.332-2.278-6.543-4.489-8.712-4.1-5.201-8.55-9.96-12.93-14.916 2.223 1.346 3.902 3.241 5.591 5.115 2.611 2.895 5.577 5.412 7.946 8.54 1.632 2.151 3.614 3.963 4.873 6.616.778.222 1.379.974 1.783 1.699 2 3.592 3.563 7.586 4.947 11.922.358 1.122.989 2.326 1.768 3.242-.583-4.229-1.287-8.513-2.416-12.404-.476-.554-1.455-.08-2.108-.516-.929-.621-.486-2.278.056-2.884.19-.214.03-.639-.082-.878-1.624-3.464-3.34-6.894-5.25-10.054l-2.445-3.399c-.124-.199.203-.661.463-.46.669.518 1.135 1.209 1.706 1.838.683.754 1.133 1.727 2.243 2.296l3.895 5.778c3.123 4.632 4.861 10.805 6.759 16.558.146.438 1.123.623 1.569.41.013-.968.003-1.834-.179-2.633-1.305-5.741-3.179-10.989-5.041-16.22-3.415-5.175-6.997-10.146-11.105-14.593.311.16 1.068.792 1.318 1.004 4.204 3.574 7.536 8.053 11.107 12.268 2.487 4.981 4.233 10.563 6.299 15.986.058.153.458.762.464.433l.125-5.936c-.704-1.918-1.71-3.702-1.938-6.514-1.418-2.48-2.615-5.43-3.726-8.399-1.959-2.771-4.245-5.219-6.12-8.291.538.072.602.523.826.721 4.413 3.894 7.492 9.084 10.455 14.439.078.142.491.586.491.293v-5.768c-.521-1.825-1.351-3.292-2.066-4.771-.143-.296-.01-.77.379-.823.428-.059.462.611 1.12.885.061.024.579.709.582.35.015-1.906.236-3.758.197-5.438-1.43-1.998-2.889-3.611-4.284-5.439-.042-.054-.336-.691.21-.412 1.053.536 1.636 1.614 2.438 2.414.597.596 1.119 1.543 1.819 2.087l1.521-14.876c-2.318.18-4.644-.113-6.949.017zm34.612 24.31-2.83.209c-7.061.113-13.613.913-19.166 2.405-1.31.352-2.69.733-3.318 1.537l-.047 60.1c-.001.688.71 1.134 1.296 1.164 12.146.628 25.415.137 38.172.352 1.928-.339 4.146-.214 6.033-.529.866-.144 1.636-.32 2.196-.687l-.294-62.817c-6.775-1.286-14.282-1.838-22.042-1.734zm80.534 24.936c-2.023-.046-3.39.631-4.319 1.65-4.766 5.247-7.933 12.078-10.497 19.484-2.06 8.37-1.433 19.215.269 27.366 1.139 5.459 2.302 10.868 4.396 15.373.611 1.315 1.754 2.222 2.737 3.195.935.112 1.889.127 2.861.053 9.354-.711 19.515-.329 28.801-.413l58.048-.188c2.893-.061 5.94-.36 8.967-.444 1.824-.05 3.434-.2 4.94-.513.369-8.1.525-16.609.355-24.573-.009-.382-.092-.865-.594-1.005-4.738-1.314-8.091-4.216-8.329-10.17 1.157-4.267 4.144-7.597 9.585-7.38.005-.791.302-1.478.146-1.986-.202-.673-.089-1.51-.273-2.195-7.769-1.064-15.059-2.498-22.251-4.088-15.379-3.402-30.821-6.934-46.617-9.992-8.549-2.242-17.877-3.935-28.225-4.174zm-72.327-176.813c3.462.046 6.515.638 8.844 1.8 1.588.793 2.9 2.174 3.003 4.362.025.558.063 1.377.446 1.618.544.34 1.24 1.227 1.045 2.318.085.848.378 1.705.201 2.463-.528 2.274.146 5.118-.276 7.272-.227 1.156-1.182 1.767-2.119 2.12.051 5.585.848 10.532 1.448 15.268 1.324 10.444 3.05 20.625 5.53 29.982.869 3.276 1.562 6.876 2.729 9.961 2.266 5.979 4.36 12.05 6.89 17.666.911 3.768 2.221 7.179 3.584 10.503 2.101 7.88 5.11 15.049 6.717 23.496.688 3.636 1.137 7.56 1.279 11.801.009.23-.077.463-.047.874 2.998 1.332 5.4 3.418 8.01 5.273 3.89 2.765 7.413 5.855 10.545 9.405 3.746 4.247 7.33 8.764 9.074 14.891.272.958.576 2.024 1.265 2.422 3.088-.665 6.299-.269 9.413-.181 4.17.116 7.138 1.153 10.745 1.784l30.637 6.52 40.535 8.772c3.781.721 7.445 1.332 11.037 2.187.188.046.319.274.317.445l-.109 8.228c-.011.579-.486.763-.882.913-2.822 1.074-5.621 2.207-6.752 4.936-1.069 2.582-.003 5.851 1.997 6.729 1.387.608 2.771 1.358 4.161 1.967.256.111.76-.071.788.231.319 3.558-.021 7.177.35 10.521-.46 4.69.09 9.684.199 14.386-.336 1.461.022 3.53-.886 4.653l-16.054.603c-12.913.3-25.978-.323-38.099.594l-48.091-.013c-12.933.072-25.712.321-38.063-.537-1.155-.08-1.78-.928-2.393-1.595-.472-.515-1.006-1.012-1.514-1.516-14.77-.146-30.281.566-43.711-.938-3.473-.39-6.89-.726-9.778-1.791-1.54-.569-3.103-1.168-3.888-2.396-.192-.3-.758-.554-.935-.324-2.143 2.793-4.808 5.297-9.714 5.192-2.748-.058-4.905-1.201-5.912-3.253-.124-.25-.469-.387-.72-.185-1.927 1.539-3.694 3.514-6.686 3.808-2.859.281-5.58-.202-7.032-1.729-.37-.39-.554-.915-1.121-1.339-1.401.687-2.809 1.608-4.554 1.904-2.857.483-6.688.287-8.075-.86-1.386-1.147-1.254-1.075-1.771-1.906-1.772.404-4.268.253-5.919-.261-2.165 3.006-5.364 5.132-9.581 5.991-3.364.687-6.654-.505-8.474-2.287-1.494.463-2.813 1.177-4.36 1.522-3.635.813-7.222-.262-9.783-1.869l-37.997-.384c-12.626.15-25.028.174-37.695-.11-6.955-.154-15.184.395-20.661-.98-3.416-.856-6.16-3.045-5.697-7.604.29-2.858 1.478-4.86 3.189-6.253 2.403-1.271 5.878-1.172 9.354-1.252 3.938-.089 7.862.171 11.903.126.321-.004.177-.476-.038-.547-3.407-1.131-7.049-1.889-9.721-3.729-2.832-1.95-5.961-3.57-7.81-6.514-1.092-1.739-3.66-8.04-3.65-9.495.011-1.638-.703-2.887-.447-4.581.4-2.647 1.532-4.773 3.28-5.935 5.811-1.307 13.313-1.904 17.986.539 1.512.791 3.302 1.313 4.897 2.026.407-.54-.152-1.063-.332-1.529-1.252-3.263-3.04-6.072-3.505-9.927-.372-3.079 1.584-4.627 3.375-5.955l6.491-5.629c.681-.486 1.625-.81 2.523-.911 4.433-.498 7.715.872 11.469 1.529.527.094 1.516.283 1.58-.185.509-3.743 1.411-7.062 2.975-9.776 2.155-1.502 4.382-3.065 6.525-4.477 2.13-1.401 4.078-2.942 6.643-3.877 1.652-.602 3.35-1.45 5.412-1.479 1.204-.016 7.36 2.473 9.812 2.907 4.12 1.747 7.473 4.235 10.95 6.596 2.245 2.042 4.119 4.479 6.458 6.441.248.208.533.357.886.261.232-5.177-.944-9.07-1.599-13.38.61-3.873 1.873-6.985 3.775-9.49 3.102-2.756 7.152-4.528 10.567-6.989 4.338-3.126 9.846-5.096 15.051-7.392 5.982-3.171 13.367-4.892 20.923-6.423 10.338-2.089 21.896-2.875 33.796-2.835.342 0 .625-.353.669-.693.466-3.633 1.476-6.763 2.377-10.075 1.603-5.894 3.975-11.229 5.895-16.752 3.259-9.377 7.33-17.768 10.709-26.959 2.361-10.95 3.765-22.688 4.114-35.669.117-4.361.255-8.534.612-12.766-.179-.598-.902-.966-1.26-1.536-.235-.857-.762-1.658-.803-2.638l-.001-7.749c.147-1.405 1.134-2.466 2.263-3.193-.75-2.292.546-3.739 1.827-4.535 2.428-1.508 5.581-2.356 9.179-2.527.131-.005.438-.094.261-.096z" fill="#e31837"/></svg>