<?xml version="1.0" encoding="utf-8"?>
<!-- Generator: Adobe Illustrator 16.0.0, SVG Export Plug-In . SVG Version: 6.00 Build 0)  -->
<!DOCTYPE svg PUBLIC "-//W3C//DTD SVG 1.1//EN" "http://www.w3.org/Graphics/SVG/1.1/DTD/svg11.dtd">
<svg version="1.1" id="Layer_1" xmlns="http://www.w3.org/2000/svg" xmlns:xlink="http://www.w3.org/1999/xlink" x="0px" y="0px"
	 width="518.4px" height="518.4px" viewBox="0 0 518.4 518.4" enable-background="new 0 0 518.4 518.4" xml:space="preserve">
<g>
	<path fill="#FFFFFF" d="M20.82,269.967c0-131.655,106.725-238.38,238.379-238.38c131.657,0,238.38,106.725,238.38,238.38
		s-106.723,238.379-238.38,238.379C127.545,508.346,20.82,401.622,20.82,269.967z"/>
</g>
<g>
	<path fill="none" stroke="#E31837" stroke-width="13.0071" stroke-miterlimit="3.8637" d="M20.82,269.967
		c0-131.655,106.725-238.38,238.379-238.38c131.657,0,238.38,106.725,238.38,238.38s-106.723,238.379-238.38,238.379
		C127.545,508.346,20.82,401.622,20.82,269.967z"/>
</g>
<g>
	<circle fill="#FFFFFF" cx="259.211" cy="269.994" r="221.361"/>
</g>
<g>
	<circle fill="none" stroke="#E31837" stroke-width="2.4388" stroke-miterlimit="3.8637" cx="259.211" cy="269.994" r="221.361"/>
</g>
<g>
	<path fill-rule="evenodd" clip-rule="evenodd" fill="none" d="M259.924,338.827c-0.251,0-0.501,0-0.752,0"/>
	<path fill-rule="evenodd" clip-rule="evenodd" fill="none" stroke="#E31837" stroke-width="0.6054" stroke-miterlimit="3.8637" d="
		M259.924,338.827c-0.251,0-0.501,0-0.752,0"/>
</g>
<g>
	<path fill-rule="evenodd" clip-rule="evenodd" fill="#E31837" d="M140.073,361.908h45.18c0,1.006-17.57,7.531-16.314,37.65
		c0.627,17.318-4.644,24.848-16.314,31.375c-5.773,3.137-14.181,2.885-20.08-1.256c-3.389-2.384-6.024-6.526-8.786-11.295
		c-3.764-6.275-13.804-8.784-13.804-8.784c3.765-1.507,26.354-13.806,30.119-15.059c-15.059,13.803,5.397,20.958,10.041,15.059
		C165.173,390.773,147.604,366.93,140.073,361.908z M320.791,388.266l2.509-10.041c0,0-16.314-11.295-5.019-20.08
		c2.51-1.883,10.04-2.51,15.06,3.764C340.118,370.443,320.791,388.266,320.791,388.266z M384.795,363.164
		c2.511,2.512,11.295-2.262,13.804-1.256l-13.804,26.357c0.376-4.896-2.511-10.041-3.765-11.296
		c-0.753-0.754-2.51-3.767-8.785-3.767c-4.77,0-8.534,0.88-10.04,3.767c-2.51,5.021,0,12.046,8.785,13.804
		c6.274,1.256,16.315,8.785,16.315,21.334c0,16.692-8.785,20.082-22.59,20.082c-15.06,0-12.55-1.256-21.333-2.512
		c-2.513,1.256-7.533,4.015-11.299,2.512l10.041-28.864c1.632,0.124,3.013,15.058,11.295,15.058c3.764,0,10.291-5.145,6.275-10.04
		c-6.275-7.529-7.529-3.764-15.061-11.293c-2.258-2.261-5.018-6.276-5.396-14.934c-0.25-6.904,4.644-14.183,10.418-17.696
		C361.703,357.141,383.162,363.164,384.795,363.164z M298.202,432.189h-48.945c0-1.885,7.529-16.567,7.529-32.631
		c0-17.193-7.529-35.892-7.529-37.65h48.945l5.018,22.591c-4.642-0.125-26.855-13.178-31.374-8.784
		c-8.281,7.904-6.902,17.443,12.549,12.551v13.802c-1.253,0-13.426-4.768-15.059-1.254c-1.629,3.64-3.263,18.7,5.021,17.569
		c8.785-1.255,22.714-11.044,28.863-11.294L298.202,432.189z M195.293,398.304c0-8.317,6.742-15.061,15.06-15.061
		c8.318,0,15.059,6.743,15.059,15.061c0,8.316-6.741,15.061-15.059,15.061C202.035,413.364,195.293,406.62,195.293,398.304z
		 M183.998,397.677c0-19.754,13.485-35.769,30.119-35.769c16.636,0,30.12,16.015,30.12,35.769s-13.483,35.767-30.12,35.767
		C197.483,433.443,183.998,417.431,183.998,397.677z M147.604,281.59c0,0,15.06-1.254,13.805,11.295
		c-0.502,5.271-11.295,10.043-13.805,10.043c0,0,1.255-5.146,1.255-10.043C148.859,288.491,147.604,281.59,147.604,281.59z
		 M123.758,271.551h47.69c5.02,1.254,8.534,9.288,7.529,16.313c-1.129,8.535-11.295,16.313-11.295,16.313
		c0.25,1.761,3.389,12.802,7.53,20.082c5.02,8.783,11.044,14.056,11.295,17.57h-25.099c0-2.134,3.765-8.787-1.255-21.336
		c-2.007-5.271-6.275-8.783-6.275-8.783c-2.51-3.766-6.274-1.257-6.274-1.257c-5.02,2.511-1.255,23.846,5.02,31.376h-28.866
		c6.275-6.274,10.04-31.376,10.04-31.376C136.309,280.336,123.758,275.064,123.758,271.551z M376.01,341.83h-48.943
		c0-1.884,7.529-16.565,7.529-32.629c0-17.194-7.529-35.894-7.529-37.65h48.943l5.021,22.589
		c-4.645-0.125-26.857-13.175-31.374-8.785c-8.284,7.909-6.902,17.446,12.549,12.55v13.807c-1.256,0-13.428-4.77-15.06-1.257
		c-1.632,3.641-3.264,18.699,5.021,17.572c8.783-1.258,22.713-11.047,28.864-11.298L376.01,341.83z M413.657,281.59
		c0,0,15.062-1.254,13.808,11.295c-0.504,5.271-11.295,10.043-13.808,10.043c0,0,1.257-5.146,1.257-10.043
		C414.914,288.491,413.657,281.59,413.657,281.59z M389.815,271.551h47.688c5.02,1.254,8.535,9.288,7.528,16.313
		c-1.128,8.535-11.292,16.313-11.292,16.313c0.249,1.761,3.388,12.802,7.529,20.082c5.019,8.783,11.043,14.056,11.295,17.57h-25.1
		c0-2.134,3.765-8.787-1.258-21.336c-2.007-5.271-6.274-8.783-6.274-8.783c-2.509-3.766-6.275-1.257-6.275-1.257
		c-5.019,2.511-1.253,23.846,5.022,31.376h-28.864c6.274-6.274,10.04-31.376,10.04-31.376
		C402.365,280.336,389.815,275.064,389.815,271.551z M221.647,289.12c5.021,18.825,11.295,20.081,8.786,20.081h-16.316
		c0,0,3.52-5.929,5.021-10.041C220.521,295.368,221.647,289.12,221.647,289.12z M286.906,284.101c0,0,18.324,5.522,18.825,18.827
		c0.502,14.304-11.296,17.566-15.062,18.822c0,0,0,5.019-3.764-11.296C284.521,300.039,286.906,284.101,286.906,284.101z
		 M74.815,271.551h37.649l11.294,31.377c-4.893-3.516-10.039-10.043-12.549-12.552c-2.635-2.638-6.275-1.256-6.275-1.256
		c-8.785,5.02-2.51,27.608,6.275,52.71H74.815c10.039-22.589,12.55-41.414,11.294-46.436c0,0-1.103-5.244-3.765-6.274
		c-2.328-0.899-6.275,1.256-6.275,1.256c-5.019,3.764-7.529,7.528-13.804,12.552L74.815,271.551z M265.57,341.452
		c0,0,5.521-12.048,7.53-30.12c2.511-22.589-8.532-32.252-8.783-40.158h35.138c11.296,3.767,23.721,18.449,23.845,33.885
		c0.251,18.699-11.295,35.14-25.098,36.394C289.669,342.206,273.604,341.452,265.57,341.452z M259.296,341.83h-23.844
		c0-1.129-3.137-15.188-7.53-21.336c-2.76-3.89-7.907-3.013-10.04-2.509c-10.041,2.509-5.271,19.829-5.021,23.845h-23.844
		c0-2.26,11.546-31.878,16.315-47.69c5.02-16.313,2.509-20.958,2.509-22.589h28.865c0.502,1.379-1.38,11.293,2.511,22.589
		C246.245,314.848,259.296,341.83,259.296,341.83z"/>
	<path fill-rule="evenodd" clip-rule="evenodd" fill="none" stroke="#E31837" stroke-width="0.6054" stroke-miterlimit="3.8637" d="
		M140.073,361.908h45.18c0,1.006-17.57,7.531-16.314,37.65c0.627,17.318-4.644,24.848-16.314,31.375
		c-5.773,3.137-14.181,2.885-20.08-1.256c-3.389-2.384-6.024-6.526-8.786-11.295c-3.764-6.275-13.804-8.784-13.804-8.784
		c3.765-1.507,26.354-13.806,30.119-15.059c-15.059,13.803,5.397,20.958,10.041,15.059
		C165.173,390.773,147.604,366.93,140.073,361.908z M320.791,388.266l2.509-10.041c0,0-16.314-11.295-5.019-20.08
		c2.51-1.883,10.04-2.51,15.06,3.764C340.118,370.443,320.791,388.266,320.791,388.266z M384.795,363.164
		c2.511,2.512,11.295-2.262,13.804-1.256l-13.804,26.357c0.376-4.896-2.511-10.041-3.765-11.296
		c-0.753-0.754-2.51-3.767-8.785-3.767c-4.77,0-8.534,0.88-10.04,3.767c-2.51,5.021,0,12.046,8.785,13.804
		c6.274,1.256,16.315,8.785,16.315,21.334c0,16.692-8.785,20.082-22.59,20.082c-15.06,0-12.55-1.256-21.333-2.512
		c-2.513,1.256-7.533,4.015-11.299,2.512l10.041-28.864c1.632,0.124,3.013,15.058,11.295,15.058c3.764,0,10.291-5.145,6.275-10.04
		c-6.275-7.529-7.529-3.764-15.061-11.293c-2.258-2.261-5.018-6.276-5.396-14.934c-0.25-6.904,4.644-14.183,10.418-17.696
		C361.703,357.141,383.162,363.164,384.795,363.164z M298.202,432.189h-48.945c0-1.885,7.529-16.567,7.529-32.631
		c0-17.193-7.529-35.892-7.529-37.65h48.945l5.018,22.591c-4.642-0.125-26.855-13.178-31.374-8.784
		c-8.281,7.904-6.902,17.443,12.549,12.551v13.802c-1.253,0-13.426-4.768-15.059-1.254c-1.629,3.64-3.263,18.7,5.021,17.569
		c8.785-1.255,22.714-11.044,28.863-11.294L298.202,432.189z M195.293,398.304c0-8.317,6.742-15.061,15.06-15.061
		c8.318,0,15.059,6.743,15.059,15.061c0,8.316-6.741,15.061-15.059,15.061C202.035,413.364,195.293,406.62,195.293,398.304z
		 M183.998,397.677c0-19.754,13.485-35.769,30.119-35.769c16.636,0,30.12,16.015,30.12,35.769s-13.483,35.767-30.12,35.767
		C197.483,433.443,183.998,417.431,183.998,397.677z M147.604,281.59c0,0,15.06-1.254,13.805,11.295
		c-0.502,5.271-11.295,10.043-13.805,10.043c0,0,1.255-5.146,1.255-10.043C148.859,288.491,147.604,281.59,147.604,281.59z
		 M123.758,271.551h47.69c5.02,1.254,8.534,9.288,7.529,16.313c-1.129,8.535-11.295,16.313-11.295,16.313
		c0.25,1.761,3.389,12.802,7.53,20.082c5.02,8.783,11.044,14.056,11.295,17.57h-25.099c0-2.134,3.765-8.787-1.255-21.336
		c-2.007-5.271-6.275-8.783-6.275-8.783c-2.51-3.766-6.274-1.257-6.274-1.257c-5.02,2.511-1.255,23.846,5.02,31.376h-28.866
		c6.275-6.274,10.04-31.376,10.04-31.376C136.309,280.336,123.758,275.064,123.758,271.551z M376.01,341.83h-48.943
		c0-1.884,7.529-16.565,7.529-32.629c0-17.194-7.529-35.894-7.529-37.65h48.943l5.021,22.589
		c-4.645-0.125-26.857-13.175-31.374-8.785c-8.284,7.909-6.902,17.446,12.549,12.55v13.807c-1.256,0-13.428-4.77-15.06-1.257
		c-1.632,3.641-3.264,18.699,5.021,17.572c8.783-1.258,22.713-11.047,28.864-11.298L376.01,341.83z M413.657,281.59
		c0,0,15.062-1.254,13.808,11.295c-0.504,5.271-11.295,10.043-13.808,10.043c0,0,1.257-5.146,1.257-10.043
		C414.914,288.491,413.657,281.59,413.657,281.59z M389.815,271.551h47.688c5.02,1.254,8.535,9.288,7.528,16.313
		c-1.128,8.535-11.292,16.313-11.292,16.313c0.249,1.761,3.388,12.802,7.529,20.082c5.019,8.783,11.043,14.056,11.295,17.57h-25.1
		c0-2.134,3.765-8.787-1.258-21.336c-2.007-5.271-6.274-8.783-6.274-8.783c-2.509-3.766-6.275-1.257-6.275-1.257
		c-5.019,2.511-1.253,23.846,5.022,31.376h-28.864c6.274-6.274,10.04-31.376,10.04-31.376
		C402.365,280.336,389.815,275.064,389.815,271.551z M221.647,289.12c5.021,18.825,11.295,20.081,8.786,20.081h-16.316
		c0,0,3.52-5.929,5.021-10.041C220.521,295.368,221.647,289.12,221.647,289.12z M286.906,284.101c0,0,18.324,5.522,18.825,18.827
		c0.502,14.304-11.296,17.566-15.062,18.822c0,0,0,5.019-3.764-11.296C284.521,300.039,286.906,284.101,286.906,284.101z
		 M74.815,271.551h37.649l11.294,31.377c-4.893-3.516-10.039-10.043-12.549-12.552c-2.635-2.638-6.275-1.256-6.275-1.256
		c-8.785,5.02-2.51,27.608,6.275,52.71H74.815c10.039-22.589,12.55-41.414,11.294-46.436c0,0-1.103-5.244-3.765-6.274
		c-2.328-0.899-6.275,1.256-6.275,1.256c-5.019,3.764-7.529,7.528-13.804,12.552L74.815,271.551z M265.57,341.452
		c0,0,5.521-12.048,7.53-30.12c2.511-22.589-8.532-32.252-8.783-40.158h35.138c11.296,3.767,23.721,18.449,23.845,33.885
		c0.251,18.699-11.295,35.14-25.098,36.394C289.669,342.206,273.604,341.452,265.57,341.452z M259.296,341.83h-23.844
		c0-1.129-3.137-15.188-7.53-21.336c-2.76-3.89-7.907-3.013-10.04-2.509c-10.041,2.509-5.271,19.829-5.021,23.845h-23.844
		c0-2.26,11.546-31.878,16.315-47.69c5.02-16.313,2.509-20.958,2.509-22.589h28.865c0.502,1.379-1.38,11.293,2.511,22.589
		C246.245,314.848,259.296,341.83,259.296,341.83z"/>
</g>
<path fill="#FFFFFF" d="M259.988,26.801c0.062,1.473,0.521,2.604,0.824,3.353l0.151,0.386l0.292,1.012l0.276,0.275
	c0,0,0.237,0.279,0.409,0.48c-0.264,3.791-0.41,7.549-0.506,11.096c-0.31,11.506-1.471,22.085-3.507,32.266h43.599l-0.306-1.222
	c-2.174-8.198-3.941-17.797-5.406-29.346l-0.319-2.439c-0.414-3.116-0.826-6.326-0.999-9.708c1.262-1.296,1.75-2.733,1.937-3.686
	c0.187-0.951,0.238-1.895,0.238-2.796c0-0.603-0.022-1.186-0.045-1.74c-0.02-0.466-0.039-0.962-0.039-1.412
	c0-0.463,0.021-0.878,0.087-1.159c0.135-0.579,0.184-1.127,0.184-1.63c0-0.793-0.12-1.475-0.212-1.995c0,0-0.014-0.085-0.025-0.159
	c0.001-0.058,0.016-0.12,0.016-0.178c0-1.762-0.702-3.28-1.658-4.46c-0.394-3.366-2.349-6.199-5.568-7.808
	c-2.964-1.479-6.65-2.258-10.96-2.315l-5.042-0.067c0,0,0.018,0.563,0.022,0.755c-2.636,0.538-5.018,1.405-7.055,2.671
	c-2.599,1.614-4.048,4.033-4.266,6.702c-1.161,1.368-1.921,2.94-2.102,4.658l-0.026,0.255l0.001,8.107L259.988,26.801z
	 M277.892,3.72h0.006c-0.003,0-0.007,0.001-0.011,0.001C277.889,3.721,277.891,3.721,277.892,3.72z"/>
<path fill="#E31837" d="M214.212,193.435c-0.001,0.162,0.076,0.346,0.232,0.436c0.281,0.161,0.478-0.217,0.407-0.429
	C214.762,193.174,214.213,193.069,214.212,193.435z M136.75,190.047c0.305-0.157,0.67,0.126,0.711,0.412
	c0.035,0.234-0.186,0.516-0.465,0.517c-0.2,0.002-0.448-0.094-0.522-0.276C136.373,190.452,136.52,190.164,136.75,190.047z
	 M171.44,209.741c-0.021,0.035-0.003,0.181,0.006,0.223c0.129,0.561,0.512,1.123,1.094,1.326c0.096-0.536-0.335-1.068-0.569-1.533
	C171.878,209.575,171.542,209.567,171.44,209.741z M132.724,187.835c0.14-0.131,0.488-0.204,0.472,0.094
	c-0.027,0.525-0.341,1.132-0.736,1.576c-0.141,0.158-0.462,0.157-0.482-0.063C131.931,188.909,132.273,188.255,132.724,187.835z
	 M337.088,250.838c-0.505,0.182-0.808,0.451-0.99,0.789c-0.142,0.263-0.296,0.733,0.011,0.844c0.223,0.079,0.896,0.028,1.119,0.02
	c0.356-0.018,0.602-0.378,0.443-0.705C337.499,251.435,337.437,250.712,337.088,250.838z M189.29,198.971
	c0.224-0.04,0.523-0.064,0.657,0.202c0.122,0.245,0.363,0.523,0.256,0.738c-0.109,0.225-0.284,0.566-0.581,0.438
	c-0.603-0.262-1.443,0.389-1.739-0.326c-0.15-0.363,0.1-0.854,0.573-0.818C188.727,199.226,188.978,199.027,189.29,198.971z
	 M185.139,204.667c0.364-0.238,1.082-0.081,1.118,0.492c0.019,0.32-0.017,0.778-0.169,0.807c-0.784,0.146-1.759,0.704-1.917-0.047
	C184.046,205.322,184.73,204.934,185.139,204.667z M181.733,191.937c0.265-0.098,1.036-0.09,1.118,0.544
	c0.056,0.433-0.243,1.052-0.981,0.966c-0.301-0.036-1.295,0.12-1.262-0.58C180.628,192.436,181.132,192.157,181.733,191.937z
	 M177.888,181.686c0.538-0.102,1.082,0.462,1.001,0.906c-0.069,0.376-0.445,0.77-0.832,0.622c-0.417-0.16-0.881-0.034-1.275-0.294
	c-0.233-0.156-0.263-0.426-0.186-0.645C176.787,181.725,177.43,181.771,177.888,181.686z M210.268,190.691
	c-0.034,0.017-0.207,0.065-0.219,0.191c-0.057,0.586,0.169,1.464,0.073,2.074c-0.058,0.367,1.032,0.233,1.355-0.05l-0.598-2.004
	C210.768,190.578,210.464,190.596,210.268,190.691z M110.366,208.879c0.485-0.158,1.186,0.126,1.265,0.707
	c0.059,0.433-0.287,0.74-0.547,0.965c-0.412,0.354-1.091,0.138-1.446-0.23c-0.29-0.299-0.28-0.838,0.066-1.178
	C109.742,209.104,110.209,208.931,110.366,208.879z M153.904,205.366c0.766-0.18,1.514,0.162,1.574,0.782
	c0.036,0.364-0.248,0.759-0.669,0.826c-0.79,0.127-1.761-0.041-1.778-0.741C153.018,205.745,153.482,205.466,153.904,205.366z
	 M155.989,216.993c0.543-0.066,1.103,0.204,1.384,0.661c0.194,0.316,0.205,0.918-0.173,1.07c-0.663,0.268-1.469,0.189-1.74-0.084
	C154.882,218.059,155.265,217.082,155.989,216.993z M131.671,204.186c1.674,0.992,4.239,1.656,5.906,2.805
	c-0.331,0.419-0.784,0.323-0.99,0.253c-1.927-0.664-3.394-1.79-4.847-2.873C131.716,204.353,131.673,204.256,131.671,204.186z
	 M131.597,220.712c0.836-0.357,1.795-0.218,2.131,0.435c0.162,0.313-0.115,0.689-0.382,0.867c-0.758,0.504-1.827,0.337-2.223-0.335
	C130.961,221.405,131.228,220.868,131.597,220.712z M117.639,211.414c0.466-0.01,0.964-0.271,1.424,0.005
	c0.41,0.246,0.818,0.84,0.458,1.304c-0.25,0.323-0.616,0.503-1.047,0.438c-0.582-0.086-1.252-0.365-1.376-0.843
	C116.991,211.903,117.205,211.424,117.639,211.414z M158.089,214.284c0.675-0.238,1.341,0.252,1.645,0.764
	c0.129,0.22,0.267,0.598,0.023,0.78c-0.575,0.436-1.496,0.293-2.123,0.068c-0.438-0.157-0.356-1.111,0.088-1.459
	C157.786,214.389,158.016,214.31,158.089,214.284z M126.304,217.354c0.584-0.221,1.266,0.087,1.495,0.653
	c0.123,0.304-0.076,0.705-0.393,0.832c-0.825,0.329-1.848,0.494-2.379-0.229c-0.183-0.248,0.141-0.8,0.503-0.992
	C125.77,217.488,126.057,217.447,126.304,217.354z M160.027,188.632c0.368-0.244,0.594,0.211,0.808,0.404
	c0.806,0.726,1.448,1.656,2.489,1.896c0.426,0.1,0.325,0.606,0.18,0.839c-0.224,0.36-0.753,0.269-1.031,0.042
	c-0.943-0.773-1.801-1.645-2.522-2.737C159.912,189.017,159.839,188.756,160.027,188.632z M259.513,204.357
	c0.412,0.013,1.103,0.08,1.46,0.35c0.299,0.226,0.138,0.507-0.065,0.574c-1.235,0.413-2.924,0.175-4.37,0.236
	c-0.227,0.009,0.181-0.514,0.368-0.546C257.688,204.841,258.377,204.323,259.513,204.357z M196.888,184.397
	c0.452-0.107,1.111-0.188,1.244,0.302c0.188,0.69,0.131,1.412-0.172,1.962c-0.673,0.319-1.67,0.021-1.815-0.621
	C196.004,185.413,196.283,184.542,196.888,184.397z M159.079,225.735c0.534-0.135,1.114,0.159,1.331,0.563
	c0.245,0.458,0.479,1.081,0.104,1.396c-0.493,0.414-1.289,0.479-1.947,0.181c-0.417-0.187-0.218-1.083-0.11-1.618
	C158.505,226.012,158.787,225.809,159.079,225.735z M130.615,225.474c0.554-0.271,1.324-0.095,1.617,0.449
	c0.273,0.506-0.076,1.146-0.557,1.346c-0.573,0.236-1.389,1.007-1.692,0.309c-0.333-0.769-0.012-1.548,0.356-2.06
	C130.369,225.474,130.569,225.496,130.615,225.474z M279.305,82.94c-0.111,0.112-0.377,0.307-0.365,0.365
	c0.133,0.624,0.084,1.475,0.195,2.112c0.404,0,1.273,0.048,1.551-0.003c0.39-0.072,0.975,0.093,1.076-0.344
	c0.139-0.597,0.048-1.202-0.171-1.782C280.773,83.212,279.938,83.17,279.305,82.94z M282.297,105.18
	c-0.828-0.019-0.703,1.372-0.415,1.469c0.86,0.294,2.408,0.443,3.596,0.312l-0.184-1.684
	C284.498,105.042,283.311,105.203,282.297,105.18z M317.909,183.075c-0.066,0.078-0.153,0.154-0.152,0.178
	c0.06,2.894-0.131,5.646-0.104,8.42c0.587,0.17,0.574-0.301,0.616-0.496c0.433-2.038,0.426-4.651,0.244-6.818
	C318.474,183.883,318.316,183.243,317.909,183.075z M275.812,12.619c-1.653,0.399-3.56,0.691-5.03,1.205
	c-0.279,0.098,0.082,0.517,0.271,0.469c2.25-0.56,4.91-0.637,7.238-0.688c0.381-0.008,0.367-0.755,0.06-0.915
	C277.709,12.354,276.695,12.406,275.812,12.619z M186.871,155.478c2.633,1.097,4.946,2.791,7.02,4.33
	c0.492,0.365,1.007,0.571,1.32,1.035c-0.207,0.156-0.729,0.136-0.805,0.103C191.293,159.594,189.083,157.531,186.871,155.478z
	 M84.055,240.616c1.028-0.15,1.755,0.531,2.207,1.074c0.306,0.367,0.032,0.963-0.268,1.045c-0.854,0.229-2.396,0.875-3.134,0.156
	c-0.362-0.352-0.776-0.963-0.499-1.525c0.132-0.27,0.394-0.454,0.667-0.528C83.231,240.781,83.848,240.646,84.055,240.616z
	 M228.845,144.958c2.782,3.373,6.15,6.41,8.713,10.017c0.176,0.249,0.267,0.636,0.011,0.805c-0.353,0.233-0.611-0.127-0.672-0.207
	l-7.79-9.992C229.026,145.479,228.864,145.112,228.845,144.958z M339.684,174.296c-0.127,0.15-0.236,0.238-0.227,0.268l2.122,7.915
	c0.165,0.61,0.746,0.503,1.109,0.367c0.461-0.175,0.355-0.686,0.252-0.965c-0.538-1.429-1.084-3.006-1.742-4.33
	C340.695,176.535,340.271,175.282,339.684,174.296z M320.135,182.725c0.578,1.039,0.923,2.464,0.993,3.938
	c0.596,0.419,1.055,0.972,1.363,1.58c0.326-0.007,0.626-0.167,0.626-0.468c0.008-1.363-0.328-2.771-0.544-4.036
	c-0.072-0.419-0.161-1.036-0.641-1.075C321.375,182.616,320.835,182.79,320.135,182.725z M209.941,148.144
	c0.015-0.337,0.504,0.147,0.677,0.305l7.035,6.483c0.233,0.229,0.471,0.838,0.025,1.08c-0.365,0.198-0.765-0.126-1.025-0.403
	l-6.341-6.649C210.106,148.745,209.935,148.306,209.941,148.144z M237.558,186.851c-0.297,0.154-0.904,0.246-0.842,0.614
	c0.516,3.058,1.598,5.614,2.73,8.079c0.097,0.211,0.084,0.771,0.49,0.651c-0.071-0.26-0.254-0.554-0.273-0.749
	c-0.294-2.931-1.008-5.471-1.526-8.188C238.095,187.034,237.823,186.713,237.558,186.851z M189.616,184.083
	c0.523-0.229,1.411-0.165,1.541,0.438c0.239,1.097,0.755,2.107,1.445,2.692c-0.271,0.894-1.237,1.395-2.263,1.214
	c-0.293-0.052-0.507-0.318-0.5-0.555c0.008-0.27,0.196-0.507,0.575-0.816c-0.833-0.392-1.937-1.417-1.344-2.558
	C189.188,184.269,189.411,184.172,189.616,184.083z M258.017,189.961c1.546-0.206,3.243-0.089,5.031-0.152
	c0.319-0.012,0.534,0.409,0.445,0.673c-0.098,0.29-0.413,0.32-0.68,0.294c-0.362-0.037-2.313,0.483-3.078,0.26
	c-2.138,0.017-3.872,0.213-5.641,0.583c-0.194,0.04-0.551-0.18-0.319-0.49c0.168-0.227,0.451-0.61,0.788-0.658L258.017,189.961z
	 M263.752,197.855c0.303-0.084,0.71,0.115,0.775,0.46c0.052,0.282-0.225,0.565-0.447,0.584c-2.857,0.249-5.889,0.583-8.6,0.729
	c-0.401,0.021-0.975,0.187-1.211-0.312c-0.132-0.282,0.188-0.532,0.374-0.587c0.489-0.144,0.965-0.28,1.392-0.267
	C258.492,198.544,263.596,197.897,263.752,197.855z M256.031,118.859c0.327-0.123,0.53,0.279,0.874,0.701
	c0.408,0.498,0.509,1.649-0.106,2.396c-0.066,1-0.458,2.066-1.168,2.26c-0.692-0.416-1.438-0.925-1.401-1.823
	c0.063-1.548,0.579-2.532,1.396-3.317C255.671,119.036,255.938,118.895,256.031,118.859z M206.404,158.917
	c0.017-0.273,0.51,0.045,0.665,0.201c2.232,2.223,4.381,4.517,6.767,6.579c0.307,0.265,0.346,1.006-0.021,1.086
	c-1.032,0.224-1.886-0.503-2.111-1.208c-1.939-1.856-3.536-4.045-5.082-6.212C206.574,159.292,206.395,159.061,206.404,158.917z
	 M334.406,245.195c-0.098,0.005-0.266,0.2-0.322,0.312c-1.172,2.236-2.282,4.608-3.777,6.732c0.705,0.306,1.442-0.05,2.108,0.111
	c0.477,0.114,0.461-0.64,0.572-0.863c0.823-1.649,1.526-3.455,1.848-5.476C334.877,245.742,334.695,245.178,334.406,245.195z
	 M66.124,240.716c2.442-0.24,4.571,0.382,6.146,1.171c0.016,0.608-0.492,1.202-1.186,1.162c-1.55-0.091-3.05-0.264-4.677-0.245
	c-0.644-0.201-1.235-0.704-1.404-1.347C65.365,241.196,65.699,240.758,66.124,240.716z M272.82,29.529
	c-0.803,0.144-1.557,0.332-2.395,0.655c-0.106,0.813-0.074,2.083-0.163,2.966c1.402-0.743,2.921-1.292,4.45-1.727
	c0.492-0.141,1.234,0.089,1.378-0.372c0.134-0.431,0.342-1.101-0.192-1.244C275.007,29.568,273.902,29.334,272.82,29.529z
	 M282.105,108.9c-0.136,0-0.339,0.254-0.353,0.39c-0.098,0.946-0.285,1.981,0.012,2.784c1.476,0.05,2.888,0.273,4.248,0.224
	c0.015-0.885-0.081-1.554-0.185-2.193c-0.066-0.4,0.182-1.176-0.446-1.222C284.381,108.808,283.261,108.894,282.105,108.9z
	 M363.676,236.26c1.591-0.574,3.661-0.095,4.046,1.275c0.104,0.375-0.433,0.378-0.737,0.426c-1.708,0.269-2.693,1.626-3.365,2.77
	c-0.777-0.057-0.961-0.555-1.093-0.938c-0.44-1.271-0.094-2.759,0.748-3.43C363.334,236.313,363.592,236.29,363.676,236.26z
	 M282.266,113.862c-0.229,0.01-0.575,0.017-0.619,0.268c-0.067,0.372,0.055,1.471-0.008,1.823c-0.055,0.313,0.095,0.696,0.445,0.743
	c1.139,0.152,2.492,0.217,3.325,0.112c0.561-0.07,1.492,0.16,1.42-0.206l-0.398-2.377c-0.038-0.232-0.218-0.472-0.456-0.47
	L282.266,113.862z M271.574,34.889c-0.244,0.055-1.141,0.157-1.241,0.353c-0.39,0.767-0.189,1.743-0.349,2.728
	c-0.045,0.278,0.449,0.337,0.742,0.27c1.979-0.444,3.744-1.399,5.464-2.002c0.435-0.152-0.17-1.115-0.654-1.22
	C274.365,34.767,272.775,34.616,271.574,34.889z M259.449,193.593c0.891-0.123,5.008,0.199,6.022,0.17
	c0.34-0.01,0.533,0.432,0.468,0.733c-0.062,0.288-0.298,0.62-0.574,0.566c-3.221-0.646-7.204-0.131-10.593,0.293
	c-0.517,0.346-1.458,0.438-2.269,0.122c0.041-0.591,0.698-1.06,1.211-1.131L259.449,193.593z M329.774,177.941
	c-0.03-0.006-0.18,0.142-0.174,0.187c0.096,0.892,0.395,1.722,0.511,2.588c0.063,0.467,0.819,0.568,0.899,0.86
	c0.457,1.726,1.235,3.444,1.894,4.958c0.1,0.228,0.81,0.032,0.885-0.268c0.231-0.932,0.032-2.211-0.559-2.873
	c-0.507-1.729-0.8-3.658-1.146-5.488C331.166,178.052,330.467,178.052,329.774,177.941z M399.28,231.86
	c1.53-0.312,2.841,0.369,3.642,1.336c0.129,0.156,0.084,0.531-0.169,0.576c-0.281,0.051-1.247-0.076-1.501,0.024
	c-1.483,0.583-2.696,1.871-2.514,3.942c0.013,0.158-0.313,0.523-0.51,0.35c-1.264-1.119-1.756-3.656-0.495-5.184
	C398.08,232.485,398.568,232.005,399.28,231.86z M271.68,39.604c-0.609,0.145-1.491,0.254-1.663,0.793
	c-0.253,0.791-0.344,1.712-0.179,2.595c0.036,0.191,0.279,0.45,0.542,0.36c1.813-0.622,3.683-1.438,5.567-1.819
	c0.472-0.095,0.476-0.904,0.297-1.021C275.099,39.767,273.275,39.227,271.68,39.604z M270.583,55.172
	c-0.204,0.023-0.957,0.146-1.095,0.381c-0.422,0.711-0.547,2.099-0.369,3.254l2.896-0.586c1.395-0.733,2.812-1.412,4.081-1.88
	c0.261-0.097,0.081-0.712-0.298-0.763c-0.507-0.068-1.156-0.223-1.727-0.291C273.005,55.161,271.673,55.048,270.583,55.172z
	 M281.931,143.205c-0.018,0.188-0.116,0.851-0.102,1.071c0.032,0.561-0.187,1.582,0.218,1.572c2.231-0.045,4.762-0.012,6.63,0.357
	c0.218-1.033-0.067-1.939-0.247-2.592C286.21,143.434,284.16,143.269,281.931,143.205z M282.096,149.56
	c-0.071-0.001-0.157,0.16-0.164,0.199c-0.125,0.753-0.174,1.713-0.029,2.498c2.427-0.237,4.531-0.105,6.942,0.107
	c0.167-1.015,0.146-1.982-0.157-2.606C286.468,149.625,284.242,149.588,282.096,149.56z M271.469,44.615
	c-0.499,0.071-1.307,0.138-1.532,0.616c-0.283,0.599-0.189,1.836-0.2,2.784c-0.001,0.165,0.11,0.532,0.34,0.486
	c2.126-0.422,3.798-1.386,5.685-2.149c0.442-0.179,0.317-0.609,0.287-0.891c-0.061-0.545-0.613-0.785-1.129-0.836
	C273.842,44.52,272.56,44.459,271.469,44.615z M281.757,119.045c-0.28,0.025-0.354,0.221-0.354,0.278
	c0.021,0.984-0.092,2.158,0.04,3.018l6.11-0.013c0.017-0.687-0.007-1.218-0.178-1.693c-0.176-0.484-0.197-1.232-0.844-1.26
	C284.777,119.298,283.407,118.895,281.757,119.045z M271.09,49.673c-0.265-0.002-0.533,0.254-0.633,0.286
	c-0.697,0.228-1.213,1.174-1.037,2.094c0.094,0.484-0.297,1.35,0.115,1.842c0.985-0.28,2.041-0.386,2.713-1.067
	c1.188-0.37,2.483-0.677,3.644-1.536c0.132-0.098-0.014-0.711-0.082-1.217c-0.021-0.159-0.3-0.374-0.618-0.375L271.09,49.673z
	 M73.738,221.346c-0.243-0.148,0.54-0.105,0.682-0.015l6.347,4.365c2.566,1.555,5.473,2.583,8.277,3.705
	c0.472,0.189,0.961,0.474,1.284,0.916c-6.633-0.501-10.403-3.885-14.436-6.901C75.104,222.825,74.631,221.888,73.738,221.346z
	 M283.74,155.073c-0.594,0.034-1.269-0.199-1.903,0.113c-0.437,0.216-0.245,1.114-0.164,1.822c0.022,0.191,0.289,0.332,0.522,0.353
	l6.961,0.659c0.251,0.027,0.572-0.183,0.542-0.34l-0.509-2.157C287.332,155.253,285.484,154.971,283.74,155.073z M281.721,130.789
	c-0.09-0.002-0.254,0.211-0.27,0.272c-0.065,0.252,0.136,0.501,0.152,0.759c0.043,0.77-0.175,1.69,0.209,2.272
	c2.118-0.013,4.183-0.124,6.019,0.264c0.262,0.056,0.602-0.009,0.651-0.313c0.116-0.71,0.129-1.562-0.252-2.11
	C286.188,131.417,284.16,130.833,281.721,130.789z M282.053,136.587c-0.14,0.163-0.255,0.243-0.253,0.295
	c0.053,1.016,0.23,2.008,0.191,3.174c-0.013,0.314,0.635-0.166,0.93-0.096c1.577,0.375,3.676,0.474,5.657,0.293
	c-0.047-0.935-0.211-1.764-0.168-2.637c0.009-0.164-0.286-0.254-0.452-0.257C285.813,137.323,283.771,136.948,282.053,136.587z
	 M430.084,225.278c1.784-0.655,3.158,0.763,3.921,1.893c0.126,0.189,0.29,0.376,0.25,0.697c-0.038,0.29-0.383,0.897-0.663,0.636
	c-0.952-0.879-2.899-0.198-3.528,0.785c-0.369,0.582-0.688,1.187-1.11,1.736c-1.117-0.546-2.021-2.313-1.266-3.872
	C428.16,226.168,429.055,225.656,430.084,225.278z M194.736,238.447c-1.11,0.649-2.127,2.258-1.368,3.925
	c0.578,1.268,2.369,2.143,3.563,2.113c1.194-0.027,2.234-0.176,2.742-0.851c0.086-0.111,0.283-0.386,0.075-0.578
	c-0.822-0.761-2.001-1.062-3.028-1.599c-0.721-0.375-0.958-1.478-0.413-2.286c0.216-0.319-0.007-0.734-0.326-0.814
	C195.588,238.258,195.114,238.227,194.736,238.447z M273.12,69.581c-1.099,0.128-2.247,0.279-3.482,0.286
	c-0.661,0.604-1.386,1.27-2.358,1.565c-0.41,0.124-0.326,0.965-0.459,1.484c-0.092,0.356-0.198,1.324,0.223,1.128
	c2.314-1.074,4.898-1.987,8.056-2.094c0.611-0.021,0.374-0.91,0.259-1.195C275.025,69.935,274.054,69.792,273.12,69.581z
	 M272.344,64.639c-1.422,0.427-2.94,0.642-4.288,1.102c-0.37,0.917-0.653,2.259-0.506,3.316c0.908-0.062,1.516-0.376,2.204-0.792
	c2.164-0.397,4.209-1.224,6.117-2.006l-0.038-1.45C274.774,64.569,273.458,64.305,272.344,64.639z M271.47,59.725
	c-0.65,0.075-1.215,0.479-1.84,0.568c-0.921,0.131-1.531,1.116-1.427,2.23c0.048,0.508-0.193,1.512,0.217,1.455
	c0.615-0.085,1.266-0.263,1.983-0.163c1.748-0.844,3.604-1.701,5.587-2.238c-0.054-0.44,0.148-0.857,0.033-1.198
	c-0.096-0.287-0.556-0.527-0.873-0.49C273.783,60.048,272.615,59.593,271.47,59.725z M317.854,169.344
	c-0.119,0.141-0.209,0.219-0.209,0.245l0.009,5.546c0.284,1.725,0.903,3.381,1.483,4.97c0.124,0.342,0.32,1.112,0.504,0.908
	c0.639-0.703,1.43-1.282,1.839-2.177C320.622,175.353,319.449,172.131,317.854,169.344z M383.116,217.968
	c0.969-0.261,1.817,0.193,2.542,0.421c0.671,0.447,1.097,1.167,1.581,1.954c0.193,0.314-0.684,0.208-1.03,0.16
	c-2.559-0.351-4.252,1.202-4.729,3.261c-0.093,0.405,0.128,1.048-0.161,1.269c-0.27,0.205-0.59,0.147-0.789-0.076
	c-1.303-1.474-1.204-4.776,0.376-5.909C381.536,218.596,382.261,218.196,383.116,217.968z M164.4,206.226
	c-0.181,0.332-0.485,0.59-0.847,0.714c-0.323,0.111-1.09,0.455-0.868,0.647l2.069,1.9c2.826,2.329,4.544,5.802,4.868,10.653
	c0.056,0.845-0.129,3.071,0.342,3.157c-0.142-0.666,0.334-1.205,0.326-1.756l-0.035-3.161c-0.464-3.36-1.05-6.571-2.611-8.937
	c-0.751-1.138-1.785-2.116-2.631-2.969C164.759,206.218,164.529,205.986,164.4,206.226z M281.565,124.406
	c-0.088-0.005-0.16,0.188-0.159,0.185c-0.119,0.724-0.274,1.47-0.074,2.238c0.104,0.404-0.229,1.513,0.236,1.488
	c2.047-0.107,4.279-0.054,6.441-0.026c-0.056-1.386-0.069-2.731-0.285-3.763C285.526,124.588,283.445,124.525,281.565,124.406z
	 M79.666,219.712c-0.08-0.072,0.559,0.038,0.677,0.104c4.326,2.444,8.616,4.89,13.33,6.977l4.179,2.543
	c0.229,0.14,0.39,0.373,0.493,0.793c-1.61,0.039-2.964-0.573-3.992-1.171c-1.768-1.029-4.042-1.651-5.747-2.62
	C85.38,224.507,82.526,222.331,79.666,219.712z M189.13,210.901c-0.063,0.027-0.261,0.098-0.328,0.124
	c-0.617,0.239-1.288,0.6-1.48,1.262c-0.092,0.316-0.333,0.736-0.014,0.993l3.777,2.941c1.075-0.755,2.377-1.162,4.162-1.167
	c0.329-0.002,0.782,0.031,0.974-0.452c-1.288-1.332-2.437-3.184-4.881-3.517C190.615,210.987,189.898,210.56,189.13,210.901z
	 M342.778,214.776c2.518-0.372,4.469,0.847,5.161,2.33c0.227,0.486,0.626,0.944,0.078,1.275c-1.012-1.666-4.855-1.532-5.94,0.091
	c-1.36,0.86-1.616,3.421-0.515,4.929c-0.75,0.165-1.161-0.156-1.382-0.536c-0.489-0.841-0.941-1.712-1.151-2.713
	c-0.576-2.747,0.997-4.401,2.854-5.087C342.177,214.957,342.472,214.822,342.778,214.776z M258.825,213.944
	c5.332,0.037,10.785,0.048,16.056,0.229c0.307,0.012,0.688,0.099,1,0.756c-1.705,0.226-3.998,0.092-5.741,0.143l-18.441,0.558
	c-0.387,0.009-0.878-0.131-1.009-0.596c-0.076-0.266,0.067-0.763,0.606-0.825C253.626,213.937,256.305,214.293,258.825,213.944z
	 M332.688,236.421c-0.107,0.107-0.275,0.271-0.279,0.28c-1.118,1.947-2.091,3.968-3.109,5.901c-1.457,2.767-3.322,5.074-4.421,8.099
	c-0.172,0.474-0.814,1.345-0.53,1.393c0.924,0.158,1.921,0.493,2.802,0.156c0.291-0.111,0.161-0.539,0.248-0.784
	c0.773-2.195,1.542-4.508,2.574-6.49c0.401-0.769,1.08-1.539,1.056-2.479c0.683-1.735,1.27-3.504,2.082-4.874
	C333.315,237.274,333.082,236.541,332.688,236.421z M434.613,235.933c2.8-0.148,4.945,0.775,6.141,2.317
	c0.252,0.325-0.493,0.253-0.702,0.192c-0.611-0.18-1.205-0.466-1.833-0.552c-1.693-0.23-2.691,0.473-3.668,1.058
	c-1.834,1.1-3.165,4.163-1.877,6.722c0.231,0.464,0.398,0.991,0.816,1.313c-0.14,0.237-0.45,0.146-0.653,0.062
	c-2.237-0.938-3.607-4.443-2.478-7.357c0.521-1.343,1.488-2.189,2.57-2.894C433.484,236.433,434.133,236.178,434.613,235.933z
	 M264.271,217.596c3.98-0.314,8.039-0.232,12.248-0.18c0.239,0.003,0.135,0.62,0.267,1.096c-2.12,0.17-4.138,0.288-6.313,0.336
	c-6.64,0.146-13.539,0.375-20.245,0.112c-0.294-0.012-0.902-0.418-0.469-0.719c0.533-0.368,1.23-0.486,2.123-0.465
	C255.931,217.872,260.361,217.905,264.271,217.596z M404.716,242.407c3.72-0.469,5.751,1.935,6.729,4.716
	c0.079,0.221,0.293,0.562-0.187,0.8c-1.01-2.282-5.213-3.104-7.436-1.328c-1.189,0.949-2.062,2.369-2.392,4.528
	c0.027-0.176,0.045,0.261-0.373-0.051c-0.308-0.228-0.608-0.782-0.659-1.263c-0.378-3.592,0.849-6.229,3.425-7.188
	C403.996,242.558,404.536,242.43,404.716,242.407z M234.986,240.013c-0.66,0.312-1.326,0.669-2.378,0.93
	c-0.513-0.058-1.287,0.267-1.335,0.92c-0.075,1.012,0.027,1.965,0.373,2.756c0.213,2.316,1.895,3.277,4.007,3.563
	c2.482,0.337,4.719-0.988,6.012-2.489c0.542-0.629,1.032-1.965,0.36-3.087c-1.516,1.479-3.633,2.438-5.952,2.905
	c-1.083,0.218-2.051-0.289-2.422-1.028c-0.215-0.428-0.45-1.003-0.019-1.646c1.655,0.233,2.508-0.769,2.839-2.036
	c0.094-0.361-0.469-0.686-0.854-0.923C235.471,239.788,235.2,239.912,234.986,240.013z M222.532,239.794
	c-1.105,0.293-1.964,0.93-2.968,1.342c-1.8,0.739-3.377,2.451-2.832,5.084c0.906,1.776,3.304,3.117,5.93,2.179
	c2.063-0.736,3.993-1.932,5.186-3.643c0.24-0.345,0.447-0.789,0.344-1.186c-0.102-0.393-0.733-0.26-0.896-0.096
	c-1.445,1.456-3.401,2.496-5.949,2.854c-1.287,0.181-2.179-0.196-2.663-1.04c-0.091-0.156-0.221-0.431-0.18-0.712
	c0.057-0.385,0.444-0.537,0.761-0.615c2.303-0.563,4.004-1.926,4.724-4.126C223.499,239.471,222.959,239.682,222.532,239.794z
	 M80.853,216.493c5.546,2.085,10.275,4.834,15.361,7.109c2.691,1.205,5.962,1.737,8.038,3.514l3.863,2.716
	c0.531,0.365-0.176,0.421-0.134,0.431c-6.467-1.541-11.465-4.247-16.353-7.089c-3.516-2.044-6.967-4.275-10.598-6.324
	C81.043,216.856,80.972,216.732,80.853,216.493z M331.166,229.259c-0.054,0.029-0.204,0.163-0.24,0.216l-5.549,8.131
	c-2.317,4.399-4.734,8.734-6.32,13.811c0.767,0.334,1.605,0.597,2.336,0.463c0.914-2.794,3.303-8.517,3.315-8.54l7.003-13.662
	C331.774,229.552,331.505,229.073,331.166,229.259z M263.975,172.125c3.567,0.154,7.104,0.356,10.722,0.351
	c3.595-0.007,6.555-0.051,9.219,0.901c0.321,0.115,0.165,0.809-0.244,0.803c-1.194-0.017-2.69-0.166-3.729-0.47
	c-0.279-0.08-0.579,0.251-0.875,0.264c-1.499,0.061-2.675-0.281-3.806-0.137c-1.683,0.215-3.329-0.093-4.866-0.226
	c-4.609-0.398-8.995,0.28-13.337,0.572c-2.981,0.199-5.775,0.353-8.376,0.711c-0.145,0.02-0.549-0.104-0.413-0.416
	c0.225-0.518,0.803-0.795,1.369-0.854L263.975,172.125z M260.045,177.72l23.857,0.056c0.414-0.001,0.361,0.557,0.313,0.835
	c-0.109,0.646-0.908,0.584-1.398,0.588c-0.956,0.006-1.897-0.251-2.755-0.209c-5.71,0.285-11.269,0.052-16.977,0.084
	c-5.112,0.029-9.542,1.064-14.827,1.091c-0.282,0.002,0.053-0.476,0.255-0.574c0.197-0.095,0.754-0.457,0.902-0.453
	c2.414,0.066,4.406-0.62,6.458-0.805C257.387,178.196,258.616,178.031,260.045,177.72z M207.668,238.558
	c-0.918,0.137-1.699,0.477-2.293,0.948c-0.774,0.614-1.536,1.231-2.211,2.073c-0.254,0.315-0.324,0.86-0.46,1.348
	c-0.386,1.381,0.048,2.684,0.894,3.315c1.221,0.912,3.167,1.212,5.202,0.864c1.033-0.176,1.914-0.721,2.638-1.335
	c1.235-1.049,2.927-2.152,2.313-4.609c-0.066-0.264-0.616-0.461-0.691-0.271c-0.907,2.284-3.036,3.692-5.92,4.143
	c-0.652,0.102-1.117-0.551-1.66-0.888c-0.311-0.193-0.343-0.76-0.086-0.919c1.255-0.779,2.467-1.78,3.083-3.174
	c0.196-0.446,0.584-1.023,0.311-1.385C208.462,238.244,207.993,238.51,207.668,238.558z M194.757,218.074
	c0.07-0.011-0.149,0.08-0.226,0.108c-1.844,0.657-3.38,2.24-3.096,4.666c0.247,2.119,1.509,3.673,3.353,4.22
	c0.41-0.439,0.692-0.79,0.842-1.466c-0.862-0.506-1.937-1.354-1.943-2.732c-0.001-0.375,0.565-0.693,0.96-0.631
	c1.354,0.216,2.968,0.262,4.438,0.411c1.076-0.515,2.312-0.871,3.365-1.313c0.325-0.137,0.243-0.506,0.071-0.679
	C200.819,218.944,198.419,217.516,194.757,218.074z M215.366,203.755c-0.383,0.09-0.745,0.262-1.101,0.432
	c-1.63,0.786-2.769,2.806-2.001,5.269c0.221,0.709,0.44,1.657,0.883,2.187c1.412,0.157,2.648,0.376,3.655,0.658
	c0.411,0.115,0.449-0.559,0.24-0.701c-0.802-0.549-1.694-2.039-1.048-3.708c0.437-0.531,1.396-0.813,2.402-0.616
	c1.015,0.2,1.758,0.908,2.443,1.425l2.188-0.98c-0.027-0.524-0.539-0.796-0.819-1.139
	C220.79,204.83,218.712,202.971,215.366,203.755z M327.314,160.466c0.012,0.192,0.238,0.56,0.314,0.667
	c1.438,2.071,2.594,4.447,4.044,6.528c1.626,3.749,2.505,8.038,3.763,12.109c0.172,0.553,0.712,1.037,0.854,1.487l1.11,3.557
	c0.851,0.126,1.288-0.431,1.789-0.892c-0.382-1.168-0.794-2.51-1.138-3.815c-1.304-4.949-2.524-9.92-5.384-13.562
	c-0.386-0.254-0.707-0.965-0.541-1.872l-4.223-3.994C327.758,160.545,327.297,160.163,327.314,160.466z M203.403,224.739
	c-0.262,0.032-1.046,0.162-1.292,0.247c-1.603,0.547-2.788,1.479-4.036,2.354c-1.423,0.997-1.458,4.261-0.163,5.423
	c2.873,2.574,8.873,1.323,10.589-1.395c0.287-0.455,0.701-1.192,0.259-1.888c-1.191,1.717-3.261,2.697-5.887,2.892
	c-0.962,0.071-1.827,0.188-2.721-0.21c-0.327-0.462-0.851-1.018-0.945-1.814c-0.033-0.272,0.074-0.804,0.586-0.793
	c2.247,0.047,4.194-0.622,5.673-1.668c0.355-0.25,0.622-1.114,0.222-1.171c-0.778-0.11-1.673-0.871-1.756-1.664
	C203.905,224.799,203.583,224.718,203.403,224.739z M200.965,207.648c-0.125,0.003-0.467,0.244-0.589,0.292
	c-1.401,0.563-2.685,1.815-2.418,3.662c0.391,2.702,2.017,4.47,4.244,5.523c0.507,0.24,0.715-0.654,0.836-1.029
	c0.102-0.314,0.151-0.658-0.131-0.796c-0.713-0.345-1.593-0.942-1.633-2.052c-0.012-0.335-0.033-1.407,0.487-1.21
	c1.101,0.42,2.279,0.952,3.686,1.303c0.883-0.838,2.196-1.343,3.692-1.677C207.2,209.384,205,207.539,200.965,207.648z
	 M318.172,153.753c-0.033,0.103,0.165,0.361,0.191,0.44c1.438,4.424,3.935,7.864,6.257,11.723c0.156,0.261,1.152-0.274,1.624,0.221
	c0.693,0.728,1.096,2.415,0.375,3.26c1.006,1.929,1.786,3.941,2.279,6.253c0.051,0.235,0.3,0.717,0.563,0.438
	c0.571-0.598,1.342-1.122,1.763-1.809c-0.675-3.049-1.669-5.789-3.14-7.975c-0.907-1.349-1.513-2.968-2.977-3.766
	c-1.678-2.297-3.057-4.89-4.462-7.445c-0.28-0.51-0.819-0.813-1.348-1.063C318.975,153.879,318.292,153.397,318.172,153.753z
	 M357.878,222.713c3.256-0.39,5.104,1.353,5.962,3.581c0.225,0.587,0.516,1.451,0.098,2.146c-0.827-0.424-1.479-1.318-1.961-1.842
	c-0.781-0.27-1.52-0.424-2.336-0.368c-3.059,0.21-4.988,2.059-5.451,4.905c-0.135,0.83,0.02,1.685-0.007,2.593
	c-0.016,0.431-0.519-0.144-0.704-0.325c-1.672-1.643-2.551-6.056-0.753-8.125C353.93,223.896,355.619,222.981,357.878,222.713z
	 M210.4,214.397c-0.07,0.01-0.268,0.106-0.333,0.129c-1.982,0.671-3.599,1.871-4.274,3.815c-0.001,0.869-0.102,1.643,0.129,2.32
	c0.886,2.602,3.411,4.048,7.108,3.593c0.323-0.041,0.73-0.52,1.195-0.841c0.25-0.172,0.775-0.479,0.572-0.789l-2.76,0.236
	c-1.253-0.245-2.513-0.601-3.591-1.208c-0.665-0.374-1.193-1.159-1.14-2.15c0.022-0.402,0.195-0.764,0.442-0.771
	c0.724-0.021,1.411-0.144,1.991,0.11c2.536,1.112,5.687,0.065,6.712-2.027c0.055-0.113,0.034-0.928,0.019-1.194
	c-0.031-0.563-0.654-0.655-1.047-0.751C213.91,214.501,212.133,214.161,210.4,214.397z M221.647,187.983
	c-0.048,0.011-0.184,0.076-0.213,0.105c-0.388,0.373-0.775,0.751-1.129,1.138c-0.797,0.876-1.72,1.891-1.872,3.322
	c-0.498,4.708,1.596,8.21,4.313,10.311c0.221,0.171,1.025,0.214,0.82-0.06c-0.572-0.763-1.02-1.823-1.561-2.739
	c-1.369-2.321-1.506-6.369,0.524-8.106c0.472-0.405,1.209-0.688,1.626-0.529c1.592,0.601,2.791,1.646,3.499,3.038
	c0.636,0.002,1.222-0.285,1.595-0.81c0.318-0.445,0.281-1.263,0.028-1.975C228.321,188.977,225.39,187.145,221.647,187.983z
	 M83.813,214.224c-0.327-0.158,0.362-0.18,0.487-0.129c4.12,1.661,7.982,3.69,12.039,5.327c1.729,0.696,4.041,0.814,5.934,1.306
	c4.913,1.277,8.684,3.791,11.712,6.972c0.15,0.156-0.295,0.349-0.328,0.343c-2.419-0.458-4.218-1.471-5.879-2.298
	c-0.42-0.208-0.619,0.518-0.92,0.644c-0.158,0.067-0.671,0-0.84,0c-0.032-0.386,0.304-0.988,0.077-1.169
	c-0.692-0.551-1.812-0.662-2.67-1.065c-1.955-0.917-4.632-1.149-6.463-2.186c-2.461-1.395-4.984-2.726-7.307-4.143
	c-0.486-0.297-1.041-0.803-1.609-1.047C86.503,216.117,85.319,214.951,83.813,214.224z M223.554,210.729
	c-0.03,0.004-0.107,0.076-0.139,0.089c-1.41,0.493-2.667,1.294-3.419,2.454c-1.232,1.9-0.292,5.07,1.03,6.317
	c1.909,0.899,4.794,1.478,7.61,0.935c0.557-0.311,1.12-0.75,1.591-1.164c0.499-0.439-0.279-1.682-0.568-1.509
	c-1.444,0.866-3.54,0.571-5.473,0.45c-0.563-0.034-1.166-0.3-1.409-0.73c-0.313-0.554-0.633-1.098-0.76-1.713
	c-0.099-0.48,0.325-0.931,0.729-0.927c1.347,0.019,2.619,0.259,4.04,0.23c0.671-0.405,1.603-0.593,2.32-0.831
	c0.08-1.069,0.423-2.12,0.125-3.024C227.548,210.764,225.614,210.432,223.554,210.729z M386.717,234.22
	c2.488-0.402,6.369,2.229,6.564,2.754c0.223,0.606,0.847,0.961,0.831,1.821l-2.642-1.188c-5.161,0.414-8.33,2.925-8.679,7.996
	c-0.021,0.321-0.007,1.292-0.007,1.684c-1.215-0.568-2.649-2.678-2.401-6.74c0.286-3.708,2.631-5.354,5.6-6.133
	C386.136,234.374,386.568,234.244,386.717,234.22z M330.469,220.336c-0.518,0.654-0.838,1.369-1.287,1.988
	c-5.62,7.764-10.428,16.286-14.655,25.525c-0.461,1.009-1.121,2.092-1.314,3.383c1.048,0.278,2.308,0.368,3.091,0.041
	c2.427-7.228,5.344-13.808,8.783-19.814c1.927-3.363,3.564-7.002,5.887-10.138c0.036-0.049,0.018-0.709-0.006-0.92
	C330.938,220.157,330.572,220.204,330.469,220.336z M181.724,239.81c-0.144-0.032-0.523,0.246-0.629,0.316
	c-0.898,0.602-1.569,1.47-2.183,2.336c-1.999,1.402-2.153,5.659-0.33,7.413c1.646,1.583,5.055,0.921,7.225,0.237
	c1.789-1.215,3.505-2.486,5.008-4.016c0.435-0.444,0.293-1.12-0.101-1.502c-0.327-0.317-0.757,0.016-0.949,0.324
	c-1.598,2.573-4.895,4.415-8.822,3.794c-0.592-0.314-1.418-0.554-1.386-1.438c0.016-0.411,0.402-0.655,0.759-0.754
	c2.87-0.793,5.019-2.49,5.46-5.692c0.045-0.331-0.322-0.5-0.543-0.502C183.88,240.314,182.803,240.058,181.724,239.81z
	 M231.894,196.724c-0.094,0.007-0.354,0.144-0.445,0.16c-1.602,0.284-2.566,1.353-3.443,2.406c-0.38,0.455-0.788,1.05-0.764,1.547
	c0.049,1.022-0.25,2.026,0.062,2.852c0.679,1.795,1.864,3.188,3.27,4.281c0.609-0.184,1.277-0.826,1.388-1.437
	c-0.603-1.224-1.191-2.297-1.145-3.912c0.02-0.675,0.491-1.183,1.093-1.562c0.2-0.129,1.287-0.399,1.639-0.515
	c0.479-0.158,0.953-0.16,1.428,0.006c2.026,0.704,3.606,2.17,4.298,4.15c0.654-0.084,1.271-0.09,1.444-0.416
	c0.207-0.393,0.091-0.859-0.068-1.26c-0.449-1.129-1.184-1.987-1.861-2.904C237.362,198.185,235.36,196.453,231.894,196.724z
	 M273.704,17.19c-0.186,0.018-0.728,0.178-0.915,0.209c-1.816,0.292-3.382,0.981-4.524,1.926c-0.431,1.743-0.345,3.831-0.099,5.655
	c0.048,0.354,0.361,0.655,0.795,0.664c0.195,0.004,0.36-0.291,0.626-0.355c2.503-0.616,5.146-1.036,7.947-1.43
	c0.412-0.526,0.231-1.477,0.115-2.16c-2.655-0.302-5.349-0.218-7.279,0.651c-0.352-0.438-0.079-0.953,0.235-1.093
	c8.914-3.976,16.15-1.593,17.904-1.279c0.391,0.071,0.557-0.723,0.265-0.819C284.461,17.744,279.412,16.662,273.704,17.19z
	 M175.447,225.927c-2.466,0.498-4.249,1.62-5.569,3.2c-0.757,0.906-1.7,2.186-1.101,3.88c0.432,1.221,1.271,2.063,2.177,3.043
	c1.298,0.475,2.648,1.079,4.764,0.896c0.57-0.052,1.248,0.074,1.672-0.413c0.247-0.284,0.106-0.644,0.046-1.017
	c-0.083-0.514,0.048-1.809-0.318-1.625c-1.022,0.513-2.694,0.899-3.961,0.315c-0.798-0.368-1.656-1.048-1.419-2.376
	c0.065-0.363,0.496-0.626,0.694-0.529c0.837,0.413,2.346,0.184,3.141-0.228c0.527-0.273,1.172-0.655,1.9-0.264
	c0.54-0.502,0.708-1.609,1.103-2.341c0.291-0.541,0.979-1.138,0.935-1.824C178.418,226.031,176.933,225.626,175.447,225.927z
	 M209.091,196.257c-0.683,0.345-1.358,0.49-2,0.765c-2.586,1.105-3.775,5.217-2.239,8.4l3.831,1.959
	c0.165-1.64,0.507-3.058,1.222-3.954c0.353-0.442-0.266-1.218-0.344-1.847c-0.06-0.476-0.127-1.033,0.252-1.415
	c0.405-0.406,1.081-0.336,1.572-0.157c0.799,0.29,1.693,0.727,2.412,1.021c0.837-0.439,2.005-0.412,3.084-0.491
	c-0.926-2.095-2.411-3.79-4.688-4.187C211.187,196.175,210.009,196.102,209.091,196.257z M85.939,211.017
	c2.104,0.791,4.075,1.754,5.941,2.354c3.214,1.034,6.338,2.161,8.764,3.474c6.533,0.72,11.149,2.991,15.773,5.233
	c1.48,0.718,2.443,1.936,3.319,3.215c0.344,0.504,0.762,0.98,1.325,1.61c-2.469-0.747-4.427-1.894-6.448-2.868
	c-3.064-0.803-5.36-2.514-8.142-3.678c-4.457-1.051-8.168-2.813-11.844-4.531c-1.145-0.12-1.98-0.554-2.811-0.976
	c-1.979-1.005-3.749-2.232-5.652-3.382C86.162,211.466,86.097,211.332,85.939,211.017z M317.835,158.565
	c-0.101,0.118-0.19,0.196-0.19,0.221l0.003,5.684c3.69,5.098,6.407,11.185,7.721,18.646c0.097,0.549,0.976,0.086,1.106,0.365
	c0.512,1.086,1.032,2.183,1.398,3.46c-0.644,0.202-1.382,0.731-1.264,1.59c0.07,0.511,0.825,0.246,1.239,0.205
	c0.341-0.033,0.87-0.217,0.786-0.646l-2.348-12.626C324.331,169.05,320.601,164.262,317.835,158.565z M241.176,207.18
	c-0.461-0.016-1.303,0.319-1.845,0.259c-2.52-0.282-4.584,0.786-5.819,2.505c-1.429,0.965-2.778,3.898-1.548,6.076
	c1.178,2.088,3.562,4.007,7.144,3.069c0.961,0.159,1.916-0.119,2.489-0.682c-0.01-0.812-0.04-1.643-0.205-2.586
	c-1.15,1.416-3.7,2.311-5.65,1.36c-0.441-0.214-0.751-0.665-0.907-1.163c-0.152-0.482-0.537-1.49,0.26-1.517
	c0.946-0.031,2.348,0.029,3.17-0.532c1.682-1.146,2.194-3.425,3-5.437C241.417,208.156,241.626,207.195,241.176,207.18z
	 M169.407,238.136c-0.109,0.036-0.473,0.027-0.57,0.076c-2.822,1.402-5.077,3.563-6.179,6.616c-1.055,2.921,1.016,4.801,3.154,5.342
	c2.951,0.747,6.365-0.382,8.541-1.479c0.56-0.282,0.857-0.831,0.603-1.682c-0.116-0.384-0.022-1.077-0.437-1.205
	c-1.005,1.638-3.028,2.473-5.31,2.465c-2.165,0.516-3.95-0.543-4.444-2.207c-0.127-0.426,1.056-0.547,1.649-0.708
	c2.811-0.776,5.207-2.105,5.84-5.067c0.083-0.387,0.274-0.945-0.054-1.223c-0.518-0.438-1.218-0.577-1.787-0.973
	C170.106,237.878,169.714,238.036,169.407,238.136z M186.855,226.497c-1.44,0.395-2.455,1.138-3.55,1.846
	c-1.92,1.239-3.603,3.104-3.239,6.188c0.175,1.485,1.738,2.048,2.978,2.585l2.632,0.201c1.765-0.069,3.06-0.879,4.539-1.462
	c1.611-0.634,2.698-1.964,3.804-3.196c0.236-0.264,0.114-0.584,0.021-0.854c-0.104-0.302-0.434-0.676-0.593-0.524
	c-2.313,2.193-5.468,3.553-9.417,3.924c-0.872-0.211-1.747-0.783-1.757-1.697c-0.003-0.339,0.048-0.875,0.53-1.043
	c0.077-0.027,0.629-0.051,0.813-0.063c3.5-0.259,5.626-2.026,7.466-3.706C190.64,226.962,188.997,225.912,186.855,226.497z
	 M218.226,224.546c-0.082,0.009-0.318,0.079-0.397,0.104c-3.317,1.082-6.333,3.588-5.762,7.79c0.326,2.394,2.279,3.429,4.8,3.538
	c1.306,0.057,2.525-0.199,3.671-0.51c3.012-0.821,5.364-2.708,5.392-6.638c-1.444,2.442-3.743,3.828-6.786,4.353
	c-1.309-0.126-2.957,0.045-3.934-0.187c-0.726-0.735-1.332-1.75-0.875-2.782c0.993-0.337,2.359-0.207,3.488-0.354
	c2.158-0.97,3.594-2.678,4.888-4.452c0.247-0.337-0.273-0.494-0.521-0.597C221.119,224.365,219.534,224.412,218.226,224.546z
	 M234.247,223.081c-0.845,0.459-1.644,0.764-2.37,1.356c-2.212,1.804-3.545,5.148-2.993,9.096c0.233,1.668,1.436,3.032,3.237,3.263
	c0.969,0.123,1.93-0.176,2.887-0.293c2.578-1.775,4.984-3.916,5.589-7.654c0.091-0.563-0.495-0.967-0.904-1.057
	c-0.196,0.292-0.216,0.631-0.376,0.902c-0.921,1.568-1.852,3.216-3.019,4.57c-0.978,1.133-3.109,1.932-4.772,1.097
	c-0.373-0.188-0.192-1.017,0.173-1.277c1.576-1.128,2.653-2.862,3.118-5.042c0.25-1.173,1.219-1.762,2.37-2.026
	c0.302-0.07,0.676-0.17,0.752-0.548c0.283-1.408-0.81-2.001-1.794-2.339C235.799,223.01,234.542,222.923,234.247,223.081z
	 M176.687,213.295c-2.26,0.389-4.037,1.847-3.704,4.746c0.37,3.221,2.691,4.776,5.55,5.734c1.523,0.511,3.385,1.252,5.086,0.577
	c0.231-0.092,1.031-0.438,0.583-0.598c-1.117-0.4-2.207-0.697-3.633-0.758c-0.979-0.436-1.974-0.935-2.881-1.545
	c-1.099-0.739-2.36-1.657-2.364-3.497c0-0.453,0.561-0.765,0.859-0.52c2.191,1.81,5.872,2.995,10.085,2.254
	c0.962-0.169,1.856-0.892,1.841-1.885c-0.403-0.76-1.216-1.145-1.958-1.602C183.656,214.668,180.671,212.609,176.687,213.295z
	 M402.613,203.523c1.304,0.038,3.323-0.139,4.602,0.413c2.495,1.076,4.443,2.982,5.108,5.813c0.073,0.314-0.371,0.276-0.492,0.107
	c-1.29-1.776-4.685-2.834-6.635-1.284c-3.937,0.931-6.149,3.463-7.544,6.635c-0.199,2.215,0.462,4.093,1.177,5.535
	c-3.532-1.624-5.185-8.159-2.782-12.22c1.252-2.117,2.994-3.872,5.696-4.565C401.881,203.921,402.275,203.513,402.613,203.523z
	 M116.599,196.637c0.669-0.023,1.375,0.455,1.881,0.705c2.406,1.188,4.393,2.643,6.189,4.396c1.753,1.108,2.862,2.99,4.824,3.894
	c3.484,1.604,6.972,3.162,10.016,5.192c0.589,0.394,0.949,1.031,1.475,1.726c0.354-0.52,1.215-1.16,1.972-0.664
	c0.358,0.234,0.658,0.584,0.723,0.989c0.156,0.98-0.334,1.699-0.809,2.153c1.717,2.27,2.704,5.182,3.59,8.068
	c0.124,0.399,0.918,0.152,1.367,0.22c0.308,0.045,0.327-0.39,0.293-0.672c-0.07-0.577,0.01-1.2-0.259-1.712
	c-1.407-2.667-2.092-6.021-3.616-8.561c-0.956-1.596-2.518-2.929-4.149-3.867c1.084,0.305,2.39,0.531,3.293,1.188
	c2.576,1.87,4.123,4.734,4.927,8.325c1.1,1.334,1.698,3.636,1.35,5.661c0.159,1.352,0.484,2.511,0.087,3.342
	c-0.198,0.414-1.07,0.461-1.273-0.055c-0.172-0.436-0.103-1.065-0.491-1.26c-0.494-0.247-1.121,0.271-1.799,0.375
	c0.222,0.914,0.682,1.84,0.603,3.023c-0.024,0.348-0.331,0.657-0.667,0.72c-0.387,0.072-0.954-0.192-1.038-0.728l-0.885-5.462
	c-1.266-4.805-3.461-8.938-6.438-12.18c-0.757-1.624-2.701-2.082-4.23-2.89c-2.187-1.152-4.676-1.919-6.415-3.449
	c-2.09-1.84-4.165-3.611-5.837-5.479L116.599,196.637z M331.397,208.656c-0.136,0.029-0.294,0.106-0.352,0.188
	c-2.569,3.589-5.021,7.401-7.856,10.807c-4.792,7.436-8.856,15.642-12.584,24.255c-0.985,2.279-2.627,4.202-3.14,7.021
	c0.817,0.636,2.4,0.65,3.271,0.364c0.454-0.149,0.42-1.086,0.611-1.651c1.324-3.898,3.194-7.404,4.634-11.155
	c1.344-3.502,2.789-7.026,4.556-10.02c2.919-4.942,5.403-10.134,8.878-14.511c0.975-1.229,2.402-2.215,2.207-4.553
	C331.603,209.164,331.766,208.575,331.397,208.656z M359.863,195.275c3.613-0.504,6.416,1.404,7.045,4.414
	c0.3,0.084,0.574-0.031,0.618-0.17c0.394-1.236,1.93-1.894,3.243-1.714c1.766,0.243,2.586,1.813,3.136,3.312
	c0.043,0.118,0.061,0.711-0.347,0.475c-1.16-0.675-3.714-0.728-4.338,0.516c-0.253,0.502-0.135,1.183-0.508,1.363
	c-0.461,0.225-0.838-0.233-1.109-0.442c-0.5-0.385-0.764-1.169-0.768-2.019c-0.65-0.725-1.868-0.778-2.943-0.678
	c-4.816,0.449-8.096,2.691-8.175,7.652c-0.011,0.646,0.608,1.387,0.49,2.062c-0.669-0.823-1.419-1.674-2.212-2.249
	c-0.321-0.772-0.907-1.336-1.138-2.129c-1.184-4.079,1.183-7.708,3.68-9.445C357.404,195.62,358.641,195.444,359.863,195.275z
	 M335.757,197.878c-0.081,0.041-0.224,0.098-0.246,0.124c-0.482,0.573-1.091,0.961-1.629,1.473
	c-4.35,4.142-8.871,8.221-11.876,13.691c-3.325,4.904-6.304,10.145-9.41,15.3c-0.548,0.91-7.062,14.58-7.17,14.92l-1.108,3.431
	c0.254,0.729,0.959,1.26,1.439,1.898c0.271,0.361,1.05,1.368,1.201,0.762c0.353-1.423,0.669-2.908,1.018-4.247
	c0.289-1.103,0.779-2.011,1.178-2.888c2.383-5.268,4.131-11.019,6.923-15.779c5.746-9.797,11.686-19.243,18.976-27.455
	C335.35,198.774,335.99,198.179,335.757,197.878z M275.68,75.723c-0.096,0.003-0.402,0.236-0.608,0.239
	c-1.66,0.024-3.289,0.21-4.927,0.804c-2.11-0.055-3.63,1.084-4.59,2.58c-0.816,2.299-1.59,4.688-2.512,6.865
	c-0.111,0.268-0.544,1.127-0.074,1.009l4.459-1.015l8.554-0.663c0-0.403-0.007-1.352-0.012-1.667
	c-0.005-0.367-0.224-0.907-0.549-0.888l-2.306,0.113c-0.234,0.005-0.781-0.224-0.614-0.309c1.37-0.689,3.415-0.82,4.823-1.36
	c0.253-0.098,0.787,0.428,1.356,0.397l3.072-0.153c0.188-0.009,0.497-0.356,0.488-0.497c-0.048-0.785,0.004-1.601-0.432-2.07
	c-2.511-0.012-4.621,0.293-7.192,0.097c-0.316,0.172-1.367,0.234-2.113-0.02c3.07-1.027,6.047-1.731,9.811-1.565
	c0.152-0.989-0.08-1.904-0.535-1.916C279.66,75.648,277.558,75.651,275.68,75.723z M340.138,188.121
	c-0.725,0.144-1.404,0.442-2.193,0.59c-0.488,0.947-1.451,1.532-2.566,2.305c-0.627,1.021-1.89,1.825-3.068,2.699
	c-4.613,3.422-8.122,7.983-11.777,12.345c-2.942,3.508-5.413,7.448-7.513,11.778c-0.961,1.177-5.344,10.292-6.624,13.531
	l-4.5,10.004c0.553,1.498,0.919,2.925,1.585,4c0.096,0.154,0.478,0.467,0.563,0.065c0.705-3.368,1.396-6.88,2.629-9.907
	l5.832-12.683l5.805-10.167c5.373-7.911,12.106-14.648,19.29-20.838c1.283-1.103,2.777-2.058,3.483-3.697
	C340.734,187.814,340.434,188.063,340.138,188.121z M329.986,191.936c-1.459,0.4-2.744,1.012-3.978,1.651
	c-6.397,5.394-11.377,12.243-15.614,19.778l-8.973,16.761c-0.073,0.139-0.545,0.216-0.443-0.054l1.74-4.783
	c2.874-8.26,6.922-15.437,11.593-21.922c1.545-2.145,3.632-3.869,5.082-6.376c-1.005,0.211-1.735,0.794-2.86,0.982
	c-0.774,0.432-1.313,1.583-2.284,2.256c-3.808,4.344-6.899,9.473-9.629,14.83c-0.41,0.802-0.798,1.935-1.675,2.573
	c0.804-2.822,1.835-5.252,2.93-7.353c1.657-3.176,3.861-5.78,5.527-8.907c-1.591,0.676-2.997,1.661-3.929,2.987
	c-3.031,4.315-4.928,9.876-6.352,15.651c-0.89,3.601-1.017,8.146-0.783,12.622c0.139,2.641,0.515,5.103,1.231,7.538
	c0.53-1.029,0.963-2.121,1.198-3.191c1.377-6.273,3.489-11.838,6.358-16.704c3.827-6.496,7.074-13.369,11.861-18.816
	c2.984-3.396,6.234-6.601,9.619-9.604C330.357,191.803,330.173,191.885,329.986,191.936z M279.334,88.705
	c0.103,0.011-0.199,0.132-0.344,0.132c-3.025,0.01-6.354-0.125-9.274,0.462c-3.009,0.606-6.819,0.798-8.968,2.033
	c-0.545,1.122-0.791,2.002-1.035,2.957c-0.043,0.169-0.367,0.8,0.143,0.669c3.179-0.818,6.635-1.521,10.216-2.061
	c0.559-0.084,1.266-0.035,1.798-0.079c2.453-0.204,5.185-0.09,7.944-0.309c0.826,0.358,2.482,0.331,3.354,0.673
	c0.488,0.191,0.448,0.709,0.241,0.929c-0.248,0.263-0.624,0.058-1.006,0.034c-7.437-0.468-15.071,0.374-21.521,1.76
	c-1.278-0.195-2.561,0.531-2.546,1.739c0.006,0.356-0.223,0.806,0.123,0.725c2.772-0.655,5.792-0.998,8.401-1.856
	c5.305-0.496,11.759-0.153,16.911-0.282c0.429-0.01,0.589,0.57,0.391,0.97c-0.082,0.168-0.295,0.407-0.539,0.562
	c-0.082,0.052-0.464-0.045-0.582-0.055c-9.255-0.732-18.313,0.344-25.574,2.485c-0.473,0.957-0.644,2.313-1.128,3.327
	c-0.112,0.235,0.186,0.447,0.356,0.407c5.848-1.371,12.163-2.425,18.958-2.427c3.71,0,6.871,0.75,10.668,0.642
	c2.136-1.687,4.482-3.224,6.581-5.058c0.244-0.213,0.812-0.639,0.322-0.963c-1.285-0.851-2.281-1.98-3.359-3.039
	c-1.345-1.322-2.644-2.754-4.252-3.824C283.907,88.654,281.536,88.96,279.334,88.705z M259.574,183.968
	c-1.788,0.24-2.408,0.55-3.503,0.927c-2.216,0.763-3.304,2.525-4.414,4.398c-1.103,1.859-1.587,4.225-1.869,6.84
	c-0.088,2.878,0.07,3.483,0.3,5.187c0.125,0.938,0.133,2.062,0.481,2.972c0.494,1.293,1.385,5.796,6.138,7.063
	c5.573,0.293,8.367-2.293,10.311-5.411c2.592-4.158,2.876-11.197,0.99-16.715C266.095,186.579,263.374,183.964,259.574,183.968z
	 M245.089,228.226c-0.098-0.002-0.21,0.194-0.208,0.26c0.026,3.491,0.517,7.079,0.351,10.732c0.648,2.059,2.174,3.743,4.273,4.602
	c14.624,2.26,31.104,2.357,47.933,2.133c0.806-0.01,1.535-0.242,2.077-0.729c-0.64-1.048-1.093-2.444-1.435-3.725
	c-3.938,0.051-7.284-0.064-10.858,0.399c-3.023-0.118-5.818,0.11-8.563,0.023c-8.007-0.252-14.94-0.201-21.817-1.475
	c-2.341-0.128-4.88-0.686-5.938-2.375c-0.208-0.333-0.922-3.235-0.947-4.027c-0.008-0.237,0.045-0.717,0.153-0.611
	c0.668,0.66,0.677,1.648,1.256,2.237c0.342,0.349,1.286,0.762,1.882,0.85c7.26,1.073,14.932,1.245,23.101,1.096
	c3.835-0.54,7.772-1.148,11.245-1.968c0.315-0.075-0.153-0.422-0.294-0.419c-2.436,0.072-4.797-0.13-6.981-0.206
	c-6.305-0.222-12.368-0.811-18.495-1.335c-2.677-0.229-5.464-0.236-7.781-0.638c6.962-0.75,14.679-0.875,22.271-0.95
	c3.064-0.031,5.984-0.211,8.64-0.481c1.299-0.134,2.183-0.502,2.807-1.233c0.065-0.076,0.056-0.505,0.017-0.627
	c-0.058-0.184-0.313-0.215-0.358-0.215l-18.195-0.146l-21.452-0.76C246.849,228.635,245.906,228.244,245.089,228.226z
	 M289.794,76.936c0.235,1.567,0.298,3.046,0.675,4.309c0.847,0.19,1.646,0.226,2.115,0.817c0.22,0.273,1.121,0.629,0.715,1.173
	c-0.435,0.583-1.515,0.137-2.278-0.301c-0.089,1.051,0.444,2.058,0.672,2.821c1.083,0.511,1.919,1.343,2.785,2.066
	c0.172,0.141-0.145,0.389-0.31,0.41c-0.574,0.073-1.199-0.128-2.025-0.353l0.738,3.351c1.23,0.308,2.33,0.562,3.146,0.919
	c0.353,0.154,0.416,0.623,0.177,0.867c-0.312,0.318-0.736,0.209-1.095,0.102c-0.2-0.062-0.432,0.142-0.281,0.318
	c0.821,0.964,1.386,2.201,2.578,2.947c0.268,1.089-0.557,2.027-1.231,2.456c0.026,0.371-0.135,0.736,0.193,0.971
	c1.353,0.964,2.813,1.796,4.298,2.516c0.009,0.482-0.173,0.979-0.587,0.945c-0.797-0.064-1.636-0.249-2.681-0.303
	c0.256,1.148,0.722,2.312,1.077,3.326c1.612,0.35,2.78,1.006,3.867,1.774c0.232,0.163,0.193,0.514-0.084,0.697
	c-0.969,0.639-2.139-0.229-3.115-0.566c0.095,0.729,0.097,1.618,0.533,2.046c1.121,1.099,2.651,1.916,3.882,2.977
	c0.271,0.233,0.858,0.758,0.481,0.964c-0.587,0.324-1.322,0.127-1.944-0.022c-0.479-0.115-0.992-0.67-1.505-0.259
	c0.498,0.933,0.85,2.108,1.007,3.277c0.05,0.376,0.701,0.643,1.161,0.845c1.285,0.565,2.862,0.972,3.311,2.186
	c0.135,0.369-0.473,0.505-0.758,0.451c-0.894-0.169-1.792-0.807-2.804-0.702c0.268,1.289,0.379,2.544,0.765,3.893
	c1.333,1.087,3.545,1.594,4.407,3.24c0.135,0.257,0.302,0.87,0.016,0.778l-3.66-1.163c0.321,1.157,0.396,2.593,0.71,3.689
	c1.846,0.646,3.404,1.556,4.613,2.438c0.328,0.238,0.058,0.934-0.353,0.857c-1.048-0.197-2.277-0.719-3.654-0.643
	c0.043,1.481,0.524,2.25,0.814,3.375c1.812,0.973,3.279,2.287,4.618,3.746c0.177,0.191,0.055,0.474-0.325,0.611
	c-0.594-0.505-1.76-0.869-3.021-0.858c-0.27,0.516-0.177,1.445-0.006,1.972c0.154,0.474,0.347,0.87,0.285,1.267
	c1.404,1.116,2.467,2.583,4.11,3.569c0.208,0.124-0.509,0.548-0.916,0.326c-0.653-0.359-1.446-0.876-2.636-0.914
	c-0.271-0.008-0.68,0.096-0.621,0.354c0.179,0.779-0.046,1.742-0.036,2.522c1.697,1.173,2.938,2.734,4.177,3.735
	c0.396,0.322-0.09,0.997-0.577,0.817c-0.918-0.34-2.56-0.573-3.998-0.715c0.162,0.944,0.051,1.708,0.088,2.51
	c1.691,0.766,3.102,1.53,4.395,2.449c0.275,0.194-0.006,0.899-0.393,0.785c-1.002-0.297-2.664-0.571-3.911-0.597l0.016,3.625
	l3.777,1.731c0.505,0.227,0.569,1.02-0.016,1.338c-0.343,0.187-1.051-0.076-1.903-0.067c-0.398-0.268-1.236-0.721-1.987-0.435v2.648
	c1.415,0.393,2.723,1.202,3.723,2.096c0.313,0.281,0.802,0.464,0.909,0.942c0.058,0.263-0.156,0.661-0.359,0.586
	c-1.117-0.416-2.87-0.49-4.272-0.59v2.355c0.467,0.565,1.237,0.787,1.979,1.106c1.336,0.576,2.897,0.98,3.353,2.43
	c0.068,0.22-0.218,0.339-0.368,0.481c-1.423-0.467-3.272-0.566-4.963-0.775v3.018c0,0.272,0.438,0.483,0.758,0.582
	c1.603,0.497,3.24,1.217,4.548,2.162c0.239,0.174,0.292,0.662,0.017,0.703c-1.709,0.256-3.771,0.068-5.322-0.232v3.725
	c1.349,0.265,2.639,0.715,3.958,1.142c0.379,0.122,0.941,0.17,1.039,0.738c0.041,0.235-0.195,0.45-0.352,0.46
	c-1.591,0.086-3.142,0.491-4.644,0.683l0.017,2.533c1.311,0.252,2.482,0.717,3.913,0.794c0.234,0.013,0.408,0.248,0.484,0.465
	c0.124,0.36-0.206,0.658-0.483,0.721c-1.351,0.313-2.738,0.603-3.814,1.162c0.031,1.322-0.105,3.013,0.108,4.176
	c0.729-0.867,1.544-1.294,2.094-1.951c0.949-1.135,2.704-1.654,3.84-2.353l0.356-39.295c0.023-2.477,0.163-4.88,0.471-6.915
	l-1.853-12.571l-4.029-15.45c-0.714-2.29-1.867-4.318-2.646-6.784c-2.908-9.193-6.608-17.511-9.775-26.46
	c-0.568-1.605-1.202-3.171-1.507-4.971C294.021,78.959,292.242,77.52,289.794,76.936z M259.31,182.549
	c2.176-0.074,3.729,0.724,5.245,1.481c4.021,2.007,6.669,6.003,6.075,12.423c0.015,4.986-1.094,9.089-3.001,12.257
	c-1.823,1.911-4.068,3.482-7.165,4.054c-1.185,0.219-2.383,0.117-3.876-0.009c-3.192-0.538-5.327-2.271-6.387-4.978
	c-1.231-3.139-2.113-7.638-1.924-11.589c0.716-3.32,1.213-6.508,2.98-8.808C253.091,184.992,255.256,182.687,259.31,182.549z
	 M132.111,166.543c-2.393,1.099-4.717,1.921-7.036,2.61l-2.428,2.017c6.321,1.76,10.892,4.995,15.421,8.361
	c6.441,4.787,11.441,11.05,15.209,18.518c2.088,3.174,4.513,6.054,7.773,8.075c0.159,0.099,0.502,0.232,0.498,0.037
	c-0.03-0.974,0.625-1.733,0.784-2.445c-0.717-0.67-1.317-1.315-2.066-1.757c-1.547-1.631-3.258-3.106-5.206-4.344l-4.708-8.751
	c-0.363-0.571-1.16-1.197-1.208-2.213c1.772,1.638,3.41,3.252,4.274,5.486c1.412,3.648,3.666,6.365,7.034,7.9
	c3.83,1.745,6.343,4.871,9.167,7.573c0.244,0.234,0.688-0.408,0.579-0.72c-1.215-3.47-3.814-5.586-6.235-7.85
	c-2.839-2.655-6.075-4.966-8.252-8.274c-2.618-3.978-4.971-8.278-8.444-11.479c-0.318-0.293,0.356-0.128,0.258-0.211
	c3.045,2.6,5.371,5.552,7.531,8.706l4.64,5.374c3.251,2.74,7.126,4.855,10.128,7.837c1.694,1.684,2.917,3.931,4.028,5.876
	c0.254,0.446,0.556-0.089,0.475-0.268c-1.906-4.23-4.798-7.444-7.903-10.473c-0.709-0.689-1.597-1.342-2.021-2.304
	c0.347-1.745,10.301,6.815,12.675,12.272c0.509,0.627,0.575,1.492,0.828,2.436c0.106,0.397,0.32,1.048,1.189,1.244
	c-1.576-4.11-2.841-8.408-4.981-11.742c-2.434-2.301-4.666-4.823-7.263-6.967c-3.802-3.14-7.339-6.541-10.85-9.985
	c-4.387-5.374-9.852-9.732-17.13-12.191C136.603,168.127,134.789,166.747,132.111,166.543z M96.726,184.49
	c-0.102-0.008-0.336,0.138-0.369,0.17c-2.08,2.116-4.333,4.027-6.486,5.96c-0.135,0.119-0.055,0.492,0.159,0.475
	c0.96-0.083,1.917-0.407,2.879-0.366c4.875,0.207,8.963,1.282,12.704,2.723c7.213,3.954,13.624,8.73,20.146,13.369
	c2.68,1.906,6.401,2.69,9.069,4.582c2.748,1.948,4.412,4.98,6.027,8.07c1.591,3.045,3.36,7.622,1.965,11.981
	c-0.095,0.299,0.169,0.726,0.453,0.6c2.217-0.967,4.468-1.819,6.549-2.882c1.095-0.56,2.024-1.778,1.549-3.214
	c0.508-1.095-0.017-1.968-0.083-2.872c-0.311-4.172-1.585-7.537-3.269-10.415c-1.682-2.033-3.657-3.755-5.485-5.864
	c-5.058-2.227-9.589-5.127-13.505-8.654c-2.227-2.007-4.044-4.385-6.766-5.938C115.204,188.191,106.937,185.279,96.726,184.49z
	 M76.979,236.96c-3.199-0.063-6.334,0.49-9.469,0.508c-1.916,0.419-4.013,1.322-4.191,3.032c-0.552,5.3,3.229,5.74,3.596,6.18
	c3.946,0.189,8.16-0.039,12.173,0.199c5.594,0.334,11.896,0.307,17.824,0.4c10.302,0.165,20.421-0.007,31.265-0.25
	c3.706-0.083,28.149-0.207,31.284,0.305c0.689,0.113,0.595-2.282,0.194-2.447c-1.59-0.648-4.324-0.776-6.567-0.559
	c-5.478-0.743-46.254-0.434-46.735-0.431c-3.421,0.021-7.715-0.336-11.253-0.565c-1-0.064-1.914-0.205-2.372-0.784
	c-0.295-0.373,0.361-0.547,0.612-0.565c8.836-0.633,34.914-0.686,38.807-0.604c8.107,0.165,28.168-0.865,29.021-1.206
	c0.282-0.112,2.188-2.183,1.914-2.185l-7.093-0.121l-60.509-0.459C89.385,237.408,83.192,237.079,76.979,236.96z M91.439,193.523
	c-0.207,0.004-0.822,0.206-1.031,0.225c-0.618,0.056-1.249,0.189-1.843-0.01c-0.439-0.147-0.67,0.433-0.591,0.789
	c0.955,4.299,2.904,7.767,4.429,11.659c0.363,0.926,0.821,1.938,1.347,2.812c1.901,0.427,3.463,1.11,5.063,1.787
	c3.755,1.592,8.443,2.189,12.303,3.688c6.087,2.361,11.365,5.485,15.678,9.598c1.512,1.439,1.53,5.064-0.313,6.29
	c1.109,0.496,2.317,0.659,3.158,0.82c2.421,1.253,5.344,1.927,8.349,1.761c0.606-0.034,1.598,0.006,1.693-0.612
	c0.316-2.05,0.634-4.437,0.379-6.712c-1.175-3.97-2.997-7.264-4.987-10.377c-2.516-2.739-6.506-3.959-10-5.73
	c-3.774-3.029-7.826-5.788-12.136-8.266C107.533,196.943,100.936,193.331,91.439,193.523z M120.14,173.965
	c-0.575,0.08-1.197,0.215-1.645,0.584c-1.417,1.17-2.509,2.629-3.975,3.709c-0.704,1.868-0.887,4.302-1.316,6.303
	c-0.064,0.298,0.444,0.565,0.761,0.644c5.424,1.352,9.476,4.145,13.327,7.079c3.141,3.498,6.798,6.498,11.092,8.892
	c5.049,2.814,9.628,6.135,12.677,10.986c2.672,4.255,3.745,10.38,4.198,16.716c0.034,0.484-0.579,0.801-0.934,1.126
	c-0.357,0.328-1.131,0.441-0.944,1.041c0.106,0.337,0.498,0.606,0.848,0.777c1.077,0.525,2.362,0.883,3.676,1.044l4.832,0.273
	c1.015-0.597,2.009-1.19,2.743-1.99c1.697-4.815,1.876-12.085-0.451-16.433c-1.707-3.187-4.367-5.476-7.128-7.622
	c-2.469-1.92-4.602-4.187-6.399-6.728c-1.99-2.812-3.234-6.321-5.336-9.001l-5.367-6.089c-3.415-3.784-7.862-6.515-12.358-9.272
	C126.265,174.672,123.828,173.454,120.14,173.965z M74.498,205.339c-1.804,0.146-3.64,0.462-5.288,0.574
	c-1.096,0.076-1.994,0.469-2.459,1.2c-0.21,0.33-0.784,1.413-0.828,1.751c-0.321,2.479,0.151,4.439,0.429,6.609
	c0.39,3.046,1.586,5.276,3.188,7.121c2.669,3.076,6.228,5.348,10.588,6.695c2.907,0.899,5.229,2.285,8.804,2.592
	c1.556,0.133,3.373,0.302,4.979,0.108c2.911-0.353,5.497,0.144,8.546,0.251c1.756,0.06,3.219-0.354,5.067-0.43
	c2.489-0.101,4.168-1.121,6.392-1.605c4.43-0.256,7.829-1.445,10.633-3.149c0.332-0.201-0.036-0.784-0.193-1.09
	c-0.864-1.685-2.729-2.392-3.907-3.745c-2.497-1.607-5.473-2.677-8.352-3.954c-5.004-2.222-11.348-3.113-16.257-5.431l-9.972-4.938
	C82.713,206.452,79.119,204.966,74.498,205.339z M272.016,105.043c-1.533,0.136-3.188,0.251-4.887,0.222l-11.152,2.437
	c-0.305,0.188-0.844,0.717-1.534,0.883l-5.061,13.766c-0.11,0.303-0.104,0.751-0.169,0.943c-0.721,2.159-1.087,4.322-1.825,6.303
	c-1.262,6.186-2.25,12.741-2.406,20.004c-0.413,3.571-0.614,7.265-0.252,10.999l4.338-1.286c0.471-6.111,2.963-24.797,3.331-27.068
	c0.251-1.563,0.865-2.87,2.066-3.353c0.56-0.225,1.424,0.295,1.294,1.058c-0.854,5.045-0.677,11-1.178,16.672
	c-0.252,2.854,0.163,5.282,0.269,8.159c0.04,1.053-0.077,2.331,0.228,3.211c6.356-0.727,13.03-1.075,19.698-1.028
	c0.141-1.011,0.1-2.252-0.158-2.991c-3.697,0.142-7.498-0.028-11.091,0.016c-0.696,0.008-1.726,0.159-2.094-0.459
	c4.154-0.975,8.861-0.963,13.207-1.42c0.564-1.023,0.15-2.015,0.095-3.271c-0.012-0.242-0.211-0.459-0.444-0.472
	c-4.541-0.216-8.704-0.051-13.113-0.03c-0.198,0.001-0.201-0.389-0.004-0.441c1.58-0.425,3.538-0.491,5.072-0.981
	c2.647-0.139,5.628-0.096,8.403-0.111c0.259-1.162,0.385-2.258,0.399-3.411c0.007-0.443-0.263-0.889-0.762-0.961
	c-2.523-0.372-5.446-0.266-8.261-0.386c-1.539-0.066-3.161-0.188-4.485,0.175c-0.321,0.088-0.312-0.584-0.038-0.625l12.499-1.653
	c0.319-0.042,0.914-0.042,0.917-0.277c0.021-1.146,0.157-2.285-0.051-3.18c-0.089-0.379-0.422-0.578-0.759-0.574
	c-4.123,0.055-7.867-0.134-11.438-0.198c3.089-0.613,5.83-1.608,9.411-1.515c0.806-0.332,1.897-0.087,2.667-0.339
	c0.042-1.311,0.032-2.578-0.165-3.677l-10.179,0.171c-0.303-0.001-0.837-0.078-0.869-0.426c0.661-0.357,1.482-0.345,2.279-0.289
	c2.428-0.502,4.876-0.892,7.558-0.943c0.481-0.009,1.425,0.141,1.365-0.336c-0.154-1.257,0.13-2.501,0.226-3.376
	c0.042-0.395-0.246-0.797-0.675-0.845c-2.923-0.331-5.976,0.293-8.95,0.181c-0.176-0.007-0.632-0.202-0.404-0.272
	c2.822-0.863,5.918-1.406,9.52-1.381c0.219,0.001,0.499-0.099,0.52-0.286c0.139-1.292,0.055-2.622-0.063-3.896
	c-0.398,0-1.285-0.033-1.572,0.01c-2.142,0.322-4.433,0.474-6.615,0.097c-0.271-0.047,0.188-0.377,0.369-0.395
	c1.751-0.171,3.362-0.638,5.176-0.754c1.295-0.083,2.244-0.358,2.872-1.222c-0.106-0.836-0.15-1.671-0.126-2.363
	c-2.051,0.246-3.646-0.169-5.646-0.045c-0.709,0.044-1.533-0.001-2.202-0.496c2.487-0.397,4.833-0.769,7.454-0.81
	c0.229-0.003,0.493-0.161,0.551-0.402c0.079-0.319-0.031-1.399,0.04-1.807c0.07-0.398,0.14-0.938-0.182-1.333
	c-0.521,0.148-1.078,0.209-1.603,0.205c-1.863-0.014-3.96-0.008-5.612-0.087c-0.211-0.519,0.125-0.593,0.27-0.608
	c2.365-0.241,4.547-0.706,6.734-0.898c0.423-0.399,0.487-1.201,0.448-1.931c-0.012-0.21-0.36-0.607-0.571-0.607L272.016,105.043z
	 M171.055,157.675c-1.25,0.322-2.668,0.463-3.876,0.738c-0.795,0.181-1.461,0.491-1.923,0.948c-2.023,1.996-2.934,5.084-3.317,8.793
	c0.783,3.499,1.139,7.285,1.467,11.278c0.141,1.727,0.475,3.08,0.231,4.814c0.835,0.981,1.752,1.733,2.75,2.461
	c4.033,2.943,7.263,6.755,10.775,10.268c2.171,3.726,3.634,8.119,4.956,12.662c-0.084,0.961,0.982,1.617,1.845,1.566
	c0.71-2.3,2.987-3.188,5.726-3.467l3.943,0.737c0.542,0.3,1.179,1.054,1.959,1.249c0.205-2.996,2.488-4.232,4.969-4.822
	c0.315-0.075,0.608-0.375,0.543-0.662c-0.794-3.459,0.588-7.01,2.656-8.671c0.841-0.674,1.722-1.332,2.792-1.807
	c0.375-0.167,0.298-0.811,0.142-1.144c-1.085-2.309-2.05-4.755-2.913-7.195c-1.469-4.146-4.115-7.064-6.241-10.494
	c-3.666-5.909-9.235-10.003-15.254-13.61C179.248,159.498,175.655,157.699,171.055,157.675z M235.566,136.062
	c-9.325,0.525-18.739,0.923-26.703,2.778c-7.804,1.818-15.447,3.783-21.825,7.04c-5.593,2.258-11.016,4.707-15.494,8.351
	c4.207,0.399,7.502,1.658,10.347,3.147c5.042,2.641,9.364,5.946,13.325,9.632c3.169,2.951,5.406,6.833,8.019,10.399
	c2.367,3.229,3.995,7.255,5.583,11.274c0.598-0.149,1.472-0.396,1.333-0.829c-1.099-3.408-2.44-6.656-3.817-9.774
	c-1.665-3.768-3.252-7.332-5.911-9.994c-0.868-1.366-2.287-2.56-2.722-4.271c5.524,5.055,10.427,10.689,14.261,17.451
	c1.418,2.5,2.022,6.025,3.403,8.832c0.485-0.603,0.857-1.136,0.753-1.733c-0.554-3.223-1.668-5.967-2.458-9.345
	c-1.779-2.82-3.681-5.951-5.211-9.458l-5.235-6.809c-3.173-2.31-5.871-4.801-8.222-7.609c1.482,0.693,2.634,1.859,3.767,2.923
	c2.297,2.157,5.067,3.8,7.328,6.031c0.344,0.86,0.954,1.662,1.857,2.041c3.648,3.96,6.585,8.767,9.157,13.83
	c0.204,0.399,0.626,0.561,1.009,0.745c0.661,0.318,0.682,1.276,0.179,1.8l0.948,2.69c0.424,0.08,0.842-0.244,0.74-0.634
	l-0.794-3.603c-0.262-0.901-0.401-1.886,0.192-2.576l-2.384-4.228c-0.249-1.717-0.8-3.344-1.244-4.798
	c-0.157-0.517,0.592-0.303,0.708-0.159c3.649,4.574,6.59,9.788,8.792,15.536c0.237,0.622,1.216,0.657,1.674,0.396
	c-0.431-3.838-1.751-6.81-3.177-9.651c-1.038-3.332-2.278-6.543-4.489-8.712c-4.1-5.201-8.55-9.96-12.93-14.916
	c2.223,1.346,3.902,3.241,5.591,5.115c2.611,2.895,5.577,5.412,7.946,8.54c1.632,2.151,3.614,3.963,4.873,6.616
	c0.778,0.222,1.379,0.974,1.783,1.699c2,3.592,3.563,7.586,4.947,11.922c0.358,1.122,0.989,2.326,1.768,3.242
	c-0.583-4.229-1.287-8.513-2.416-12.404c-0.476-0.554-1.455-0.08-2.108-0.516c-0.929-0.621-0.486-2.278,0.056-2.884
	c0.19-0.214,0.03-0.639-0.082-0.878c-1.624-3.464-3.34-6.894-5.25-10.054l-2.445-3.399c-0.124-0.199,0.203-0.661,0.463-0.46
	c0.669,0.518,1.135,1.209,1.706,1.838c0.683,0.754,1.133,1.727,2.243,2.296l3.895,5.778c3.123,4.632,4.861,10.805,6.759,16.558
	c0.146,0.438,1.123,0.623,1.569,0.41c0.013-0.968,0.003-1.834-0.179-2.633c-1.305-5.741-3.179-10.989-5.041-16.22
	c-3.415-5.175-6.997-10.146-11.105-14.593c0.311,0.16,1.068,0.792,1.318,1.004c4.204,3.574,7.536,8.053,11.107,12.268
	c2.487,4.981,4.233,10.563,6.299,15.986c0.058,0.153,0.458,0.762,0.464,0.433l0.125-5.936c-0.704-1.918-1.71-3.702-1.938-6.514
	c-1.418-2.48-2.615-5.43-3.726-8.399c-1.959-2.771-4.245-5.219-6.12-8.291c0.538,0.072,0.602,0.523,0.826,0.721
	c4.413,3.894,7.492,9.084,10.455,14.439c0.078,0.142,0.491,0.586,0.491,0.293v-5.768c-0.521-1.825-1.351-3.292-2.066-4.771
	c-0.143-0.296-0.01-0.77,0.379-0.823c0.428-0.059,0.462,0.611,1.12,0.885c0.061,0.024,0.579,0.709,0.582,0.35
	c0.015-1.906,0.236-3.758,0.197-5.438c-1.43-1.998-2.889-3.611-4.284-5.439c-0.042-0.054-0.336-0.691,0.21-0.412
	c1.053,0.536,1.636,1.614,2.438,2.414c0.597,0.596,1.119,1.543,1.819,2.087l1.521-14.876
	C240.197,136.225,237.871,135.932,235.566,136.062z M270.178,160.372l-2.83,0.209c-7.061,0.113-13.613,0.913-19.166,2.405
	c-1.31,0.352-2.69,0.733-3.318,1.537l-0.047,60.1c-0.001,0.688,0.71,1.134,1.296,1.164c12.146,0.628,25.415,0.137,38.172,0.352
	c1.928-0.339,4.146-0.214,6.033-0.529c0.866-0.144,1.636-0.32,2.196-0.687l-0.294-62.817
	C285.445,160.82,277.938,160.268,270.178,160.372z M350.712,185.308c-2.023-0.046-3.39,0.631-4.319,1.65
	c-4.766,5.247-7.933,12.078-10.497,19.484c-2.06,8.37-1.433,19.215,0.269,27.366c1.139,5.459,2.302,10.868,4.396,15.373
	c0.611,1.315,1.754,2.222,2.737,3.195c0.935,0.112,1.889,0.127,2.861,0.053c9.354-0.711,19.515-0.329,28.801-0.413l58.048-0.188
	c2.893-0.061,5.94-0.36,8.967-0.444c1.824-0.05,3.434-0.2,4.94-0.513c0.369-8.1,0.525-16.609,0.355-24.573
	c-0.009-0.382-0.092-0.865-0.594-1.005c-4.738-1.314-8.091-4.216-8.329-10.17c1.157-4.267,4.144-7.597,9.585-7.38
	c0.005-0.791,0.302-1.478,0.146-1.986c-0.202-0.673-0.089-1.51-0.273-2.195c-7.769-1.064-15.059-2.498-22.251-4.088
	c-15.379-3.402-30.821-6.934-46.617-9.992C370.388,187.24,361.06,185.547,350.712,185.308z M278.385,8.495
	c3.462,0.046,6.515,0.638,8.844,1.8c1.588,0.793,2.9,2.174,3.003,4.362c0.025,0.558,0.063,1.377,0.446,1.618
	c0.544,0.34,1.24,1.227,1.045,2.318c0.085,0.848,0.378,1.705,0.201,2.463c-0.528,2.274,0.146,5.118-0.276,7.272
	c-0.227,1.156-1.182,1.767-2.119,2.12c0.051,5.585,0.848,10.532,1.448,15.268c1.324,10.444,3.05,20.625,5.53,29.982
	c0.869,3.276,1.562,6.876,2.729,9.961c2.266,5.979,4.36,12.05,6.89,17.666c0.911,3.768,2.221,7.179,3.584,10.503
	c2.101,7.88,5.11,15.049,6.717,23.496c0.688,3.636,1.137,7.56,1.279,11.801c0.009,0.23-0.077,0.463-0.047,0.874
	c2.998,1.332,5.4,3.418,8.01,5.273c3.89,2.765,7.413,5.855,10.545,9.405c3.746,4.247,7.33,8.764,9.074,14.891
	c0.272,0.958,0.576,2.024,1.265,2.422c3.088-0.665,6.299-0.269,9.413-0.181c4.17,0.116,7.138,1.153,10.745,1.784l30.637,6.52
	l40.535,8.772c3.781,0.721,7.445,1.332,11.037,2.187c0.188,0.046,0.319,0.274,0.317,0.445l-0.109,8.228
	c-0.011,0.579-0.486,0.763-0.882,0.913c-2.822,1.074-5.621,2.207-6.752,4.936c-1.069,2.582-0.003,5.851,1.997,6.729
	c1.387,0.608,2.771,1.358,4.161,1.967c0.256,0.111,0.76-0.071,0.788,0.231c0.319,3.558-0.021,7.177,0.35,10.521
	c-0.46,4.69,0.09,9.684,0.199,14.386c-0.336,1.461,0.022,3.53-0.886,4.653l-16.054,0.603c-12.913,0.3-25.978-0.323-38.099,0.594
	l-48.091-0.013c-12.933,0.072-25.712,0.321-38.063-0.537c-1.155-0.08-1.78-0.928-2.393-1.595c-0.472-0.515-1.006-1.012-1.514-1.516
	c-14.77-0.146-30.281,0.566-43.711-0.938c-3.473-0.39-6.89-0.726-9.778-1.791c-1.54-0.569-3.103-1.168-3.888-2.396
	c-0.192-0.3-0.758-0.554-0.935-0.324c-2.143,2.793-4.808,5.297-9.714,5.192c-2.748-0.058-4.905-1.201-5.912-3.253
	c-0.124-0.25-0.469-0.387-0.72-0.185c-1.927,1.539-3.694,3.514-6.686,3.808c-2.859,0.281-5.58-0.202-7.032-1.729
	c-0.37-0.39-0.554-0.915-1.121-1.339c-1.401,0.687-2.809,1.608-4.554,1.904c-2.857,0.483-6.688,0.287-8.075-0.86
	c-1.386-1.147-1.254-1.075-1.771-1.906c-1.772,0.404-4.268,0.253-5.919-0.261c-2.165,3.006-5.364,5.132-9.581,5.991
	c-3.364,0.687-6.654-0.505-8.474-2.287c-1.494,0.463-2.813,1.177-4.36,1.522c-3.635,0.813-7.222-0.262-9.783-1.869l-37.997-0.384
	c-12.626,0.15-25.028,0.174-37.695-0.11c-6.955-0.154-15.184,0.395-20.661-0.98c-3.416-0.856-6.16-3.045-5.697-7.604
	c0.29-2.858,1.478-4.86,3.189-6.253c2.403-1.271,5.878-1.172,9.354-1.252c3.938-0.089,7.862,0.171,11.903,0.126
	c0.321-0.004,0.177-0.476-0.038-0.547c-3.407-1.131-7.049-1.889-9.721-3.729c-2.832-1.95-5.961-3.57-7.81-6.514
	c-1.092-1.739-3.66-8.04-3.65-9.495c0.011-1.638-0.703-2.887-0.447-4.581c0.4-2.647,1.532-4.773,3.28-5.935
	c5.811-1.307,13.313-1.904,17.986,0.539c1.512,0.791,3.302,1.313,4.897,2.026c0.407-0.54-0.152-1.063-0.332-1.529
	c-1.252-3.263-3.04-6.072-3.505-9.927c-0.372-3.079,1.584-4.627,3.375-5.955l6.491-5.629c0.681-0.486,1.625-0.81,2.523-0.911
	c4.433-0.498,7.715,0.872,11.469,1.529c0.527,0.094,1.516,0.283,1.58-0.185c0.509-3.743,1.411-7.062,2.975-9.776
	c2.155-1.502,4.382-3.065,6.525-4.477c2.13-1.401,4.078-2.942,6.643-3.877c1.652-0.602,3.35-1.45,5.412-1.479
	c1.204-0.016,7.36,2.473,9.812,2.907c4.12,1.747,7.473,4.235,10.95,6.596c2.245,2.042,4.119,4.479,6.458,6.441
	c0.248,0.208,0.533,0.357,0.886,0.261c0.232-5.177-0.944-9.07-1.599-13.38c0.61-3.873,1.873-6.985,3.775-9.49
	c3.102-2.756,7.152-4.528,10.567-6.989c4.338-3.126,9.846-5.096,15.051-7.392c5.982-3.171,13.367-4.892,20.923-6.423
	c10.338-2.089,21.896-2.875,33.796-2.835c0.342,0,0.625-0.353,0.669-0.693c0.466-3.633,1.476-6.763,2.377-10.075
	c1.603-5.894,3.975-11.229,5.895-16.752c3.259-9.377,7.33-17.768,10.709-26.959c2.361-10.95,3.765-22.688,4.114-35.669
	c0.117-4.361,0.255-8.534,0.612-12.766c-0.179-0.598-0.902-0.966-1.26-1.536c-0.235-0.857-0.762-1.658-0.803-2.638l-0.001-7.749
	c0.147-1.405,1.134-2.466,2.263-3.193c-0.75-2.292,0.546-3.739,1.827-4.535c2.428-1.508,5.581-2.356,9.179-2.527
	C278.255,8.586,278.562,8.497,278.385,8.495z"/>
</svg>
