<?xml version="1.0" encoding="utf-8"?>
<!-- Generator: Adobe Illustrator 16.0.0, SVG Export Plug-In . SVG Version: 6.00 Build 0)  -->
<!DOCTYPE svg PUBLIC "-//W3C//DTD SVG 1.1//EN" "http://www.w3.org/Graphics/SVG/1.1/DTD/svg11.dtd">
<svg version="1.1" id="Layer_1" xmlns="http://www.w3.org/2000/svg" xmlns:xlink="http://www.w3.org/1999/xlink" x="0px" y="0px"
	 width="400px" height="400px" viewBox="0 0 400 400" enable-background="new 0 0 400 400" xml:space="preserve">
<g id="Layer_1_1_">
	<g>
		<path fill="#FFFFFF" d="M328,120.605c-9.419,4.177-19.541,7-30.166,8.27c10.846-6.5,19.172-16.793,23.094-29.057
			c-10.148,6.018-21.389,10.389-33.352,12.745c-9.581-10.208-23.23-16.586-38.338-16.586c-29.006,0-52.522,23.515-52.522,52.52
			c0,4.116,0.466,8.125,1.361,11.969c-43.651-2.19-82.351-23.1-108.255-54.875c-4.522,7.757-7.112,16.779-7.112,26.404
			c0,18.221,9.273,34.297,23.366,43.715c-8.61-0.272-16.708-2.635-23.79-6.569c-0.003,0.219-0.003,0.439-0.003,0.66
			c0,25.448,18.104,46.675,42.131,51.5c-4.408,1.201-9.047,1.842-13.838,1.842c-3.384,0-6.675-0.328-9.881-0.941
			c6.683,20.867,26.08,36.052,49.062,36.476c-17.975,14.086-40.622,22.483-65.228,22.483c-4.239,0-8.42-0.25-12.529-0.733
			c23.243,14.901,50.851,23.597,80.511,23.597c96.606,0,149.432-80.031,149.432-149.436c0-2.277-0.049-4.542-0.149-6.794
			C312.053,140.388,320.959,131.137,328,120.605"/>
	</g>
</g>
</svg>
