<svg enable-background="new -0.904 -0.908 135 135" height="135" viewBox="-.904 -.908 135 135" width="135" xmlns="http://www.w3.org/2000/svg"><path d="m57.37 69.161h-7.3c-1.792 0-3.261-1.463-3.261-3.271h-4.555c0 1.516.432 2.915 1.186 4.116h-.746c-2.27 0-4.115-1.848-4.115-4.116h-4.554c0 2.254.945 4.284 2.477 5.7-1.531 1.423-2.477 3.453-2.477 5.707h4.554c0-2.27 1.846-4.115 4.115-4.115h.746c-.753 1.178-1.186 2.601-1.186 4.115h4.554c0-1.808 1.469-3.27 3.261-3.27h7.3zm28.193 34.485v-6.423h-14.047v-55.277h8.438c10.201 0 12.369 1.123 14.162 11.115h5.063v-17.562h-65.154v17.562h5.054c1.792-9.992 3.969-11.115 14.162-11.115h8.438v55.277h-14.048v6.423zm7.623-38.385h-3.494v3.9h-13.875v4.868h13.877v3.899h3.492c.869-2.477 3.23-4.23 5.992-4.23v-4.207c-2.762 0-5.125-1.753-5.992-4.23zm-26.594-58.077c-32.8 0-59.392 26.6-59.392 59.408s26.592 59.408 59.392 59.408c32.814 0 59.4-26.602 59.4-59.408 0-32.808-26.584-59.408-59.4-59.408zm66.6 59.408c0 36.777-29.822 66.592-66.6 66.592-36.769 0-66.592-29.814-66.592-66.592 0-36.777 29.823-66.592 66.592-66.592 36.777 0 66.6 29.815 66.6 66.592z" fill="#00205b"/></svg>