<svg enable-background="new -36.547 -339.112 1000 1000" height="1000" viewBox="-36.547 -339.112 1000 1000" width="1000" xmlns="http://www.w3.org/2000/svg"><g fill="#010202"><path d="m53.328 229.809c3.917 10.395 9.34 19.282 16.27 26.664s15.14 13.03 24.63 16.947c9.491 3.917 19.81 5.875 30.958 5.875 10.847 0 21.015-2.033 30.506-6.102 9.491-4.068 17.776-9.792 24.856-17.173 7.08-7.382 12.579-16.194 16.496-26.438s5.875-21.691 5.875-34.347v-195.235h47.453v316.354h-47.001v-29.376c-10.545 11.146-22.974 19.733-37.285 25.761-14.312 6.025-29.752 9.038-46.323 9.038-16.873 0-32.615-2.938-47.228-8.813-14.612-5.875-27.267-14.234-37.962-25.082-10.695-10.847-19.132-23.876-25.308-39.092-6.177-15.215-9.265-32.162-9.265-50.843v-197.947h47.453v195.236c0 12.655 1.958 24.178 5.875 34.573z"/><path d="m332.168 0v115.243c10.545-10.545 22.748-18.905 36.607-25.082 13.858-6.177 28.924-9.265 45.192-9.265 16.873 0 32.689 3.163 47.453 9.489 14.763 6.327 27.567 14.914 38.414 25.762 10.847 10.847 19.434 23.65 25.761 38.414s9.49 30.431 9.49 47.002c0 16.569-3.163 32.162-9.49 46.773-6.327 14.613-14.914 27.344-25.761 38.188-10.847 10.847-23.651 19.434-38.414 25.761-14.764 6.327-30.581 9.49-47.453 9.49-16.27 0-31.409-3.088-45.419-9.266-14.01-6.176-26.288-14.536-36.833-25.082v28.925h-45.193v-316.352zm5.197 232.746c4.066 9.643 9.717 18.078 16.947 25.31 7.231 7.23 15.668 12.955 25.309 17.174 9.642 4.218 20.036 6.327 31.184 6.327 10.848 0 21.09-2.109 30.731-6.327s18.001-9.942 25.083-17.174c7.08-7.23 12.729-15.667 16.947-25.31 4.218-9.641 6.326-20.035 6.326-31.183s-2.108-21.618-6.326-31.41c-4.219-9.792-9.867-18.303-16.947-25.534-7.081-7.229-15.441-12.88-25.083-16.947-9.643-4.066-19.885-6.102-30.731-6.102s-21.09 2.034-30.73 6.102c-9.642 4.068-18.077 9.718-25.31 16.947-7.229 7.231-12.955 15.742-17.173 25.534s-6.327 20.262-6.327 31.41c-.001 11.148 2.033 21.542 6.1 31.183z"/><path d="m560.842 155.014c6.025-14.463 14.313-27.191 24.856-38.188s23.049-19.659 37.511-25.986c14.462-6.326 30.129-9.489 47.001-9.489 16.571 0 31.937 3.013 46.098 9.038 14.16 6.025 26.362 14.387 36.606 25.083 10.244 10.694 18.229 23.35 23.952 37.962 5.725 14.612 8.587 30.506 8.587 47.68v14.914h-187.552c1.507 9.34 4.52 18.002 9.039 25.985s10.168 14.913 16.946 20.788c6.779 5.876 14.462 10.472 23.049 13.784 8.588 3.314 17.7 4.973 27.343 4.973 27.418 0 49.563-11.3 66.435-33.896l32.991 24.404c-11.449 15.366-25.609 27.418-42.481 36.155-16.873 8.736-35.854 13.105-56.943 13.105-17.174 0-33.217-3.014-48.131-9.039-14.914-6.024-27.869-14.462-38.866-25.309-10.997-10.848-19.659-23.576-25.986-38.188s-9.491-30.506-9.491-47.679c-.003-16.269 3.011-31.635 9.036-46.097zm63.497-17.852c-12.805 10.696-21.315 24.932-25.534 42.708h140.553c-3.917-17.776-12.278-32.012-25.083-42.708-12.806-10.695-27.794-16.043-44.968-16.043s-32.163 5.348-44.968 16.043z"/><path d="m870.866 142.359c-9.642 10.545-14.462 24.855-14.462 42.934v131.063h-45.646v-230.488h45.193v28.472c5.725-9.34 13.182-16.722 22.371-22.145 9.188-5.424 20.11-8.136 32.766-8.136h15.817v42.481h-18.981c-15.064.002-27.417 5.274-37.058 15.819z"/></g></svg>