<?xml version="1.0" encoding="utf-8"?>
<!-- Generator: Adobe Illustrator 16.0.0, SVG Export Plug-In . SVG Version: 6.00 Build 0)  -->
<!DOCTYPE svg PUBLIC "-//W3C//DTD SVG 1.1//EN" "http://www.w3.org/Graphics/SVG/1.1/DTD/svg11.dtd">
<svg version="1.1" id="Capa_1" xmlns="http://www.w3.org/2000/svg" xmlns:xlink="http://www.w3.org/1999/xlink" x="0px" y="0px"
	 width="1000px" height="1000px" viewBox="-36.547 -339.112 1000 1000" enable-background="new -36.547 -339.112 1000 1000"
	 xml:space="preserve">
<g>
	<path fill="#010202" d="M53.328,229.809c3.917,10.395,9.34,19.282,16.27,26.664c6.93,7.382,15.14,13.03,24.63,16.947
		c9.491,3.917,19.81,5.875,30.958,5.875c10.847,0,21.015-2.033,30.506-6.102c9.491-4.068,17.776-9.792,24.856-17.173
		c7.08-7.382,12.579-16.194,16.496-26.438s5.875-21.691,5.875-34.347V0h47.453v316.354h-47.001v-29.376
		c-10.545,11.146-22.974,19.733-37.285,25.761c-14.312,6.025-29.752,9.038-46.323,9.038c-16.873,0-32.615-2.938-47.228-8.813
		c-14.612-5.875-27.267-14.234-37.962-25.082c-10.695-10.847-19.132-23.876-25.308-39.092C3.088,233.575,0,216.628,0,197.947V0
		h47.453v195.236C47.453,207.891,49.411,219.414,53.328,229.809z"/>
	<path fill="#010202" d="M332.168,0v115.243c10.545-10.545,22.748-18.905,36.607-25.082c13.858-6.177,28.924-9.265,45.192-9.265
		c16.873,0,32.689,3.163,47.453,9.489c14.763,6.327,27.567,14.914,38.414,25.762c10.847,10.847,19.434,23.65,25.761,38.414
		s9.49,30.431,9.49,47.002c0,16.569-3.163,32.162-9.49,46.773c-6.327,14.613-14.914,27.344-25.761,38.188
		c-10.847,10.847-23.651,19.434-38.414,25.761c-14.764,6.327-30.581,9.49-47.453,9.49c-16.27,0-31.409-3.088-45.419-9.266
		c-14.01-6.176-26.288-14.536-36.833-25.082v28.925h-45.193V0H332.168z M337.365,232.746c4.066,9.643,9.717,18.078,16.947,25.31
		c7.231,7.23,15.668,12.955,25.309,17.174c9.642,4.218,20.036,6.327,31.184,6.327c10.848,0,21.09-2.109,30.731-6.327
		c9.641-4.218,18.001-9.942,25.083-17.174c7.08-7.23,12.729-15.667,16.947-25.31c4.218-9.641,6.326-20.035,6.326-31.183
		c0-11.148-2.108-21.618-6.326-31.41c-4.219-9.792-9.867-18.303-16.947-25.534c-7.081-7.229-15.441-12.88-25.083-16.947
		c-9.643-4.066-19.885-6.102-30.731-6.102c-10.846,0-21.09,2.034-30.73,6.102c-9.642,4.068-18.077,9.718-25.31,16.947
		c-7.229,7.231-12.955,15.742-17.173,25.534s-6.327,20.262-6.327,31.41C331.264,212.711,333.298,223.105,337.365,232.746z"/>
	<path fill="#010202" d="M560.842,155.014c6.025-14.463,14.313-27.191,24.856-38.188s23.049-19.659,37.511-25.986
		c14.462-6.326,30.129-9.489,47.001-9.489c16.571,0,31.937,3.013,46.098,9.038c14.16,6.025,26.362,14.387,36.606,25.083
		c10.244,10.694,18.229,23.35,23.952,37.962c5.725,14.612,8.587,30.506,8.587,47.68v14.914H597.901
		c1.507,9.34,4.52,18.002,9.039,25.985s10.168,14.913,16.946,20.788c6.779,5.876,14.462,10.472,23.049,13.784
		c8.588,3.314,17.7,4.973,27.343,4.973c27.418,0,49.563-11.3,66.435-33.896l32.991,24.404
		c-11.449,15.366-25.609,27.418-42.481,36.155c-16.873,8.736-35.854,13.105-56.943,13.105c-17.174,0-33.217-3.014-48.131-9.039
		c-14.914-6.024-27.869-14.462-38.866-25.309c-10.997-10.848-19.659-23.576-25.986-38.188s-9.491-30.506-9.491-47.679
		C551.803,184.842,554.817,169.476,560.842,155.014z M624.339,137.162c-12.805,10.696-21.315,24.932-25.534,42.708h140.553
		c-3.917-17.776-12.278-32.012-25.083-42.708c-12.806-10.695-27.794-16.043-44.968-16.043S637.144,126.467,624.339,137.162z"/>
	<path fill="#010202" d="M870.866,142.359c-9.642,10.545-14.462,24.855-14.462,42.934v131.063h-45.646V85.868h45.193v28.472
		c5.725-9.34,13.182-16.722,22.371-22.145c9.188-5.424,20.11-8.136,32.766-8.136h15.817v42.481h-18.981
		C892.86,126.542,880.507,131.814,870.866,142.359z"/>
</g>
</svg>
