<svg height="250" viewBox="0 0 250 250.00159" width="250" xmlns="http://www.w3.org/2000/svg"><g transform="matrix(1.25 0 0 -1.25 -328.15 830.6)"><path d="m362.44 663.6c-54.787 0-99.2-44.413-99.2-99.199 0-54.788 44.413-99.202 99.2-99.202s99.2 44.414 99.2 99.202c0 54.786-44.413 99.199-99.2 99.199z" fill="#0064a4"/><path d="m124.91 3.1289c-67.361 0-121.97 54.604-121.97 121.96.0034 67.36 54.609 121.97 121.97 121.97 67.36 0 121.96-54.61 121.96-121.97 0-67.357-54.6-121.96-121.96-121.96zm5.9 7.0231-7.12 10.26.28 6.086-4.16.195-.28-5.998-8.07-9.648 5.14-.236 5.01 6.41.07-.002 4.38-6.848zm-21.39 1.127.54 2.782-6.19 1.181 2.48 12.949-4.19.797-2.47-12.947-6.186 1.184-.531-2.782zm38.53.897c1.36-.023 2.81.17 4.28.586l.02.006c5.96 1.673 9.56 6.097 8.17 11.046-1.36 4.819-6.65 6.885-12.75 5.17-6-1.687-9.52-6.206-8.17-11.025 1.04-3.713 4.36-5.716 8.45-5.783zm.84 3.48c-2.38.074-4.17 1.352-4.79 3.543-.85 3.009 1.19 5.631 4.59 6.586 3.49.98 6.53-.21 7.37-3.197.86-3.053-.97-5.571-4.61-6.594-.9-.253-1.76-.362-2.56-.338zm-61.071 1.055 5.117 15.199-4.078 1.371-5.117-15.197zm82.161 2.049 12.36 6.511-1.31 2.506-8.6-4.527-2.11 4.006 7.53 3.971-1.32 2.503-7.53-3.968-2.73 5.172-3.76-1.987zm-94.878 4.08.086 3.207.031.01v.002c-.966-.08-2.827.037-4.736 1.025-2.023 1.071-2.586 2.085-2.151 2.957.648 1.221 2.375.562 4.825-.328 2.812-1.031 5.877-1.294 7.435 1.598 1.559 2.94-.327 6.197-4.5 8.384-2.442 1.295-5.404 1.992-7.078 1.881l-.154-3.431c2.05.143 4.047-.248 5.799-1.151 1.941-1.029 3.015-2.291 2.421-3.412-.828-1.561-3.3-.327-5.431.395-2.666.873-5.308.914-6.74-1.838-1.401-2.641.487-5.847 3.99-7.703 2.281-1.21 4.734-1.612 6.203-1.596zm49.898 10.937c50.44 0 91.32 40.885 91.32 91.323 0 50.43-40.88 91.32-91.32 91.32-50.431 0-91.314-40.89-91.314-91.32 0-50.438 40.883-91.323 91.314-91.323zm-68.443 1.161c1.402-.006 2.583.594 3.406 1.56 1.75 2.051 1.283 4.473-.23 6.328l.056.102 7.582 1.838-3.773 3.22-6.885-1.929-2.258 1.923 3.852 4.518-3.242 2.762-10.389-12.186 7.151-6.066c1.705-1.455 3.328-2.065 4.73-2.07zm137.56.357c2.68.033 5.58 1.342 8.09 3.717 1.93 1.844 3.05 4.046 3.49 5.525l-3.2 1.258c0 .007.01.013.01.019l-.02-.015.01-.004c-.46-1.472-1.04-2.989-2.55-4.422-2.55-2.471-5.99-2.712-8.08-.547-2.18 2.277-1.45 5.719.96 8.051 1.39 1.328 3.07 2.091 5.18 2.408l-1.19 3.377c-1.87-.438-4.16-1.439-6.26-3.439-4.54-4.33-5.49-9.965-2.04-13.586 1.55-1.62 3.51-2.368 5.6-2.342zm-139.15 3.307c-.674.065-1.41.44-2.168 1.087l-3.139 2.672 3.045 3.569 3.086-2.631c1.585-1.352 1.999-2.717.969-3.924-.507-.594-1.119-.838-1.793-.773zm-17.051 11.734 2.209 1.771-6.261 7.811 2.793 2.24 5.509-6.875 2.209 1.772-5.509 6.873 3.076 2.465 6.586-8.219 2.211 1.771-9.252 11.541-12.496-10.015zm177.3 4.254 2.69 3.672-8.09 16.092-2.75-3.749 1.67-3.097-5.44-7.418-3.52.556-2.55-3.49zm-1.73 3.683-7.21 1.206 3.93 5.355 3.36-6.449zm-186.95 7.631 10.426 14.602-2.176 4.15-17.834-.476 2.252-4.293 12.918.535.063-.121-7.699-10.483zm199.67 3.375 1.86 3.951-11.91 5.633 3.82 7.565-2.58 1.218-5.69-11.515zm7.19 16.334 1.27 4.114-15.32 4.734-1.27-4.109zm-217.08 2.787 15.129 5.317-1.428 4.058-15.129-5.314zm221.05 9.346 2.14 13.814-2.8.43-1.49-9.6-4.47.69 1.3 8.41-2.8.44-1.3-8.42-5.78.89-.65-4.2zm-224.78 3.974 15.85 2.28-.709 4.91-13.024 8.26-.021.16 11.588 1.67-.539 3.74-15.848-2.28.736-5.11 12.682-8.13.02-.13-11.276-1.63zm220.07 14.27c5.14.2 8.25 5.04 8.01 11.18v.02c-.25 6.18-3.72 10.71-8.86 10.5-5-.2-8.24-4.87-7.98-11.2.25-6.23 3.83-10.71 8.83-10.5zm-.16 4.66c-3.13-.13-5.2 2.47-5.35 6-.14 3.62 1.72 6.3 4.83 6.42 3.16.13 5.18-2.24 5.33-6.02.16-3.73-1.78-6.28-4.81-6.4zm-211.58 8.24c3.345.1 6.003 2.82 6.397 8.37.425 5.72-2.096 9.04-5.778 9.32l-9.937.74-.311-4.16 9.35-.7c1.896-.14 3.79-1.26 3.535-4.99-.258-3.75-2.472-4.49-4.232-4.36l-9.352.7-.308-4.15 9.935-.75h.023c.229-.02.455-.02.678-.02zm202.75 11.73 15.44 4.24-2.5 9.04c-1.19 4.32-4 5.67-6.45 4.99-2.6-.71-3.57-2.97-3.36-5.36l-.11-.05-7.3 2.74 1.31-4.78 6.78-2.28.78-2.86-5.72-1.57zm7.19 6.4-1.07 3.9c-.55 2.01-.13 3.38 1.4 3.79 1.51.42 2.58-.56 3.11-2.48l1.09-3.97zm-198.84 8.67 4.951 13.93-15.092 5.36-4.775-13.44 2.668-.95 3.351 9.43 3.371-1.2-2.949-8.3 2.668-.94 2.949 8.3 3.715-1.32-3.525-9.93zm185.79 4.2 14.49 6.81-2.19 4.68-14.5 4.07-.06.13 10.31 4.84-1.6 3.42-14.5-6.8 2.11-4.49 14.86-4.11.07-.15-10.6-4.97zm-178.16 14.04 2.191 3.55-5.762 3.56 5.133 8.3 5.762-3.56 2.191 3.55-13.64 8.43-2.194-3.55 5.414-3.34-5.13-8.31-5.414 3.35-2.192-3.54zm166.86 8.04 12.58 9.95-2.68 3.37-12.57-9.95zm-2.98 5.39 4.78 17.54-3.31 3.13-16.97-6.03 3.38-3.19 3.28 1.26 6.68-6.31-.99-3.43zm-148.98 7.05 2.953 3.07-9.498 9.14 4.369 4.54-2.039 1.96-11.687-12.14 2.039-1.96 4.367 4.53zm147.8 2.23-4.83 4.56 6.82 2.53.1-.09zm-139.54 11.71 1.437 2.92 3.217.47-2.326 2.26.547 3.21-2.875-1.51-2.879 1.51.549-3.21-2.326-2.26 3.216-.47zm123.17.52 1.41 2.93 3.22.49-2.35 2.25.52 3.21-2.86-1.54-2.89 1.49.58-3.2-2.31-2.29 3.22-.44zm-14.08 3.86 1.23 2.55-9.01 4.37 1.57 3.22 7.92-3.84 1.24 2.54-7.93 3.85 1.72 3.54 9.48-4.59 1.23 2.55-13.31 6.45-6.98-14.41zm-92.784.03 3.804 2.02-7.494 14.17-3.805-2.01zm7.98 4.54 9.002 2.62c4.312 1.25 5.612 4.07 4.912 6.51-.75 2.59-3.023 3.54-5.402 3.3l-.055.1 2.645 7.34-4.766-1.38-2.186-6.8-2.851-.82-1.645 5.7-4.091-1.18zm66.834 3.03 3.11 15.71-4.87.96-12.11-9.54-.16.03 2.28 11.49-3.71.73-3.11-15.71 5.06-1 11.88 9.26.13-.02-2.21-11.18zm-63.49.74-1.297 4.51 3.895 1.12c2.003.58 3.367.17 3.806-1.35.435-1.51-.528-2.58-2.443-3.13zm13.02 1.21 4.82.49 4.29 12.2.14.01 6.88-11.04 4.39.46-9.69 15.09-4.66-.48zm22.42 1.88h4.3l-.02 16.04-4.3-.01z" fill="#ffd200" transform="matrix(.8 0 0 -.8 262.52 664.48)"/><path d="m124.9 33.785-6.37 12.922-14.27 2.074 10.32 10.061-2.43 14.203 12.75-6.707 12.76 6.707-2.44-14.203 10.32-10.061-14.26-2.074zm-.01 5.383v16.303l4.81-6.578 10.7 1.554-15.51 5.024 7.74 2.545 1.83 10.652-9.57-13.197v8.15l-9.6 5.031 9.6-13.181-7.76 2.494-7.74-7.547 15.5 5.053-4.77-6.61zm-21.84 14.273-18.882 1.809.088 1.469 20.904-1.242zm43.69 0-2.11 2.036 20.9 1.242.09-1.469zm-37.82 5.5-52.57 17.448.425 1.584 52.825-16.246.3-1.733zm31.94 0-.98 1.053.3 1.733 52.83 16.246.43-1.584zm-31.94 7.164s-5.71 4.589-13.893 11.198c-6.381.151-13.742.428-19.781.679v3.1c-1.495.063-6.525.221-7.769.277v2.709c-2.528.115-6.537.271-7.815.297v21.805l-21.678 18.2 1.057 1.62 20.621-16.77-.019 28.26c1.533-.52 3.338-.84 5.525-.97v-48.785l2.295-.075v48.82c1.79.03 3.624.26 5.5.68v-52.552l2.285-.057v53.179c3.252.97 6.18 2.28 8.832 3.78v-.74h12.568v2.02h-10.453c5.095 3.27 9 7.23 12.01 10.86h4.535v2.02h-2.896c.676.87 1.296 1.71 1.866 2.5.41.57.95 1.28 1.41 1.92h5.8v2.02h-4.32c3.34 4.56 6.9 9.37 6.9 9.37 3.18.93 6.65 2.55 9.03 7.21-2.17-1.79-4.25-2.86-5.79-3.44 7.55 8.06 14.37 9.66 25.82 9.66-2.01.67-4.99 1.23-9.74 1.23-8.93 0-15.94-5.56-22.23-14.08-2.7-3.66-9.735-13.16-9.735-13.16-7.172-9.68-18.884-19.94-33.376-19.94-6.95 0-9.867 3.12-11.561 9.28-1.151 4.2-2.63 9.9-3.051 11.64.903-.71 2.89-2.77 8.6-2.77 12.439 0 17.792 5.25 23.873 14.35 1.13 1.69 4.727 7.08 6.463 9.59 8.068 11.67 22.497 24.59 41.787 24.59 17.46 0 32.17-10.56 38.76-20.75h19.98v-13.85c-1.66.32-3.48.57-5.49.72v8.55h-53.85c2.37-2.37 5.75-2.44 12.51-2.44h39.03v-5.98c-.86.04-1.69.03-2.6.03-.98 0-1.99 0-2.92-.05v2.09h-34.22c-5.73 0-10.84 2.04-13.45 4.87 2.56-6.12 8.62-7.29 15.67-7.29h28.21c-14.99-1.82-24.29-9.25-32.32-9.25-4.99 0-9.27 1.2-13.36 5.54 3.21-8.46 5.7-12.4 9.1-15.75-1.9-.84-6.09-1.75-7.25-1.83 1.12-2.33 3.19-4.97 6.47-6.92-1.38.35-2.79.79-3.6 1.13v-1.26c1.2-1.07 4.24-2.17 6.28-2.57v1.39c2.43-.96 5.35-1.57 8.84-1.57 2.61 0 5.73.78 8.2 1.55v-1.23h10.29v2.02h-7.95c.54.19 1.1.39 1.41.5 1.72.63 10.31 3.97 15.39 5.04v-63.779l2.29.057v64.072c1.21.17 2.41.33 3.57.33.68 0 1.33-.01 1.95-.02v-61.33l2.27.075v61.185c10.28-.45 12.15-2.63 12.15-5.25 0-1.5-1.2-3.13-4.22-3.13-.68 0-1.58.17-2.41.68v-31.83l20.43 16.61 1.05-1.62-21.48-18.04-.01-21.965c-1.28-.026-5.29-.182-7.78-.297v-2.707c-1.28-.056-6.32-.216-7.81-.279v-3.1c-6.09-.253-13.53-.533-19.95-.683-8.19-6.607-13.89-11.194-13.89-11.194l.83 4.821 7.99 6.279c-.98-.011-1.92-.016-2.79-.016-12.3 0-20.85 1.525-20.85 6.006v93.395c-.21.48-.92 2.03-1.14 3.67-.2-1.65-.76-2.9-1.14-3.67v-93.51c0-4.366-8.62-5.891-20.73-5.891-.92 0-1.91.007-2.95.02l7.99-6.283.83-4.821zm49 76.675c-.68-.25-1.4-.5-2.34-.79v.79zm-19.38-.77c-.97.39-1.86.82-2.68 1.31 1-.25 1.98-.47 2.68-.56zm-33.94 20.09c-.52-.7-1-1.36-1.48-2.02h-1.03v2.02zm-4.756-6.44c-.503-.65-1.072-1.34-1.639-2.02h-.238v2.02zm-13.649-12.88c-.683-.44-1.39-.87-2.115-1.28v1.28zm.963-57.446h3.227l3.472 12.225h-2.91l-.715-2.932h-2.986l-.717 2.932h-2.597zm1.61 2.734-1.207 4.762h2.353zm7.513.877h3.639v2.018h-3.639zm5.629 0h5.64v2.018h-5.64zm7.63 0c4.71-.132 7.1 1.788 8.5 3.012v1.266c-1.83-.952-4.64-1.928-8.5-2.26zm31.23 0v2.018c-3.87.332-6.66 1.208-8.51 2.26v-1.266c1.41-1.116 3.85-3.012 8.51-3.012zm1.98 0h5.65v2.018h-5.65zm7.24 0h3.63v2.018h-3.63zm5.19 0h3.64v2.018h-3.64zm5.48 0h5.21v2.018h-5.21zm-56.86 6.569h4.66v.002c5.35-.071 8.11 1.839 9.58 3.007v1.268c-1.83-.968-5.83-2.258-9.72-2.258h-4.52zm38.05 0h4.66v2.019h-4.52c-3.9 0-7.85 1.216-9.73 2.258v-1.268c1.56-1.129 4.26-2.972 9.59-3.009zm6.64 0h9.65v2.017h-9.65zm12.03 0h5.35v2.017h-5.35zm-64.122.002h5.412v2.017h-5.412zm-12.328 6.434h12.918v2.02h-12.918zm15.096 0h8.384v2.02h-8.384zm10.374 0c4.19.44 6.95 1.95 8.5 3.01v1.27c-1.83-1.03-4.64-1.93-8.5-2.26zm31.23 0v2.02c-3.87.33-6.63 1.23-8.51 2.26v-1.27c1.61-1.11 4.32-2.57 8.51-3.01zm1.98 0h8.33v2.02h-8.33zm10.56 0h12.56v2.02h-12.56zm-69.24 6.26h10.034v2.01h-10.034zm12.211 0h3.639v2.01h-3.639zm5.629 0h5.64v2.01h-5.64zm7.63 0c4.19.44 6.95 1.91 8.5 3.01v1.26c-1.88-.98-4.64-1.92-8.5-2.26zm31.23 0v2.01c-3.87.34-6.68 1.23-8.51 2.26v-1.26c1.58-1.17 4.32-2.57 8.51-3.01zm1.98 0h5.65v2.01h-5.65zm7.63 0h3.64v2.01h-3.64zm5.82 0h9.67v2.01h-9.67zm-72.13 6.57h6.817v2.01h-6.817zm8.994 0h8.746v2.01h-8.746zm10.736 0h4.66c5.15-.04 8.01 1.93 9.58 3.01v1.26c-1.85-.94-5.83-2.26-9.72-2.26h-4.52zm38.05 0h4.66v2.01h-4.52c-3.9 0-7.88 1.24-9.73 2.26v-1.26c1.66-1.16 4.42-2.98 9.59-3.01zm6.64 0h8.75v2.01h-8.75zm10.93 0h6.45v2.01h-6.45zm-75.35 6.44h12.918v2.01h-12.918zm15.096 0h8.384v2.01h-8.384zm10.374 0c4.19.44 6.93 1.96 8.5 3v1.27c-1.85-.98-4.64-1.93-8.5-2.26zm31.23 0v2.01c-3.87.33-6.66 1.23-8.51 2.26v-1.27c1.56-1.14 4.32-2.56 8.51-3zm1.98 0h8.39v2.01h-8.39zm10.56 0h12.56v2.01h-12.56zm-69.238 6.53h10.032v2.02h-10.032zm12.209 0h3.639v2.02h-3.639zm5.619 0 7.75.01c4.97 0 6.99 1.97 8.39 3v1.27c-1.8-.97-5.37-2.26-9.33-2.26h-6.81zm45.97 0v2.02h-6.27c-3.96 0-6.54.79-9.34 2.26v-1.27c1.59-1.39 3.75-3 9.34-3zm1.99 0h3.64v2.02h-3.64zm5.81 0h6.78v2.02h-6.78zm8.67 0h1.53v2.02h-1.53zm-80.27 6.57h6.817v2.02h-6.817zm8.994 0h8.746v2.02h-8.746zm10.736 0h3.75v2.02h-3.75zm5.74 0c4.59 0 6.99 1.9 8.5 3.01v1.27c-1.84-.83-4.64-1.93-8.5-2.26zm31.23 0v2.02c-3.87.33-6.66 1.43-8.51 2.26v-1.27c1.46-1.21 3.85-3.01 8.51-3.01zm1.98 0h3.76v2.02h-3.76zm5.74 0h8.75v2.02h-8.75zm10.72 0h6.66v2.02h-6.66zm-60.044 6.44h10.424v2.02h-10.424zm12.494.17c3.15.52 5.06 1.85 6.38 2.84v1.27c-1.5-.8-3.6-1.52-6.38-1.99zm35.22 1.7c-8.14 0-12.27 3.83-14.04 6.24 2.96.6 5.28 1.59 7.22 2.76-2.95 2.61-5.45 6.24-6.74 9.64.83-.91 4.47-1.71 6.6-1.71 11.14 0 21.35 9.69 40.4 9.69 18.6 0 21.85-6.41 21.85-12.89 0-1.62-.76-4.73-1.31-6.56-.38-1.24-1.63-5.7-1.63-5.7-.2 3.61-2.94 7.29-18.45 7.29-13.05 0-24.58-8.76-33.9-8.76zm-85.722.02 1.965.09-1.699 9.1 5.875.26-.322 1.73-7.84-.34zm11.811 1 7.537 3.21-.68 1.6-5.752-2.45-1.123 2.64 4.358 1.82-.678 1.6-4.36-1.82-1.16 2.73 5.823 2.48-.68 1.6-7.609-3.24zm73.771 2.07 1.9.4-2.37 9 5.67 1.2-.45 1.71-7.56-1.59zm-52.459 1.35h5.221v2.02h-5.221zm7.619 0h7.74v.02c4.91.22 6.98 1.92 8.4 2.99v1.27c-2.03-1.13-5.37-2.26-9.33-2.26h-6.81zm55.41 1.62 1.82.67-3.82 10.37-1.82-.67zm-73.751.12 6.783 5.86-1.176 1.36-2.652-2.29-6.045 7-1.483-1.28 6.047-7-2.652-2.29zm82.411 3.39c.58.02 1.17.12 1.76.32 1.82.62 2.77 1.51 3.54 2.78l-1.64 1c-.58-.96-1.22-1.67-2.55-2.12-1.93-.65-3.96.53-4.65 2.56-.73 2.17.15 4.23 2.29 4.96.98.33 1.99.32 2.79.06l.66-1.96-2.67-.9.54-1.6 4.46 1.51-1.49 4.39c-1.33.53-3.07.78-4.92.15-3.27-1.11-4.64-4.17-3.6-7.23.81-2.4 3-3.98 5.48-3.92zm28.88.78.27 1.77-3.44.75 1.36 9.11-1.92.42-1.37-9.11-3.44.75-.27-1.77zm-91.05.66h3.75v2.02h-3.75zm5.74 0c4.65 0 6.95 1.87 8.5 3.01v1.27c-1.9-1.05-4.64-1.93-8.5-2.26zm65.23.87 1.94.15-.35 4.58 5.26.39.34-4.58 1.94.15-.83 11.01-1.94-.14.35-4.64-5.25-.4-.35 4.64-1.94-.14zm-81.502 4.52 5.086 7.39-1.483 1.02-1.988-2.89-7.615 5.25-1.112-1.61 7.617-5.25-1.988-2.89zm-33.354.49c-5.236 0-8.57 1.97-8.57 3.74 0 2.75 2.206 4.89 8.318 5.06v16.56h29.52c-.821-1.05-2.406-3.25-3.291-4.58h-20.703v-20.29c-.523-.08-2.442-.49-5.274-.49zm51.066.63c3.55.4 5.64 1.89 7.06 2.94v1.27c-1.7-.84-3.94-1.65-7.06-2.1zm-43.509.44v17.27h16.752c-.75-1.14-1.826-2.75-2.577-3.91h-8.671v-10.44c-1.779-1.42-3.652-2.36-5.504-2.92zm7.777 4.85v6.07h4.824c-1.906-3.06-3.533-4.78-4.824-6.07zm24.533 2.67 1.129 1.58-3.748 2.66 3.048 4.3 3.75-2.66 1.12 1.58-9.002 6.4-1.125-1.58 3.797-2.7-3.055-4.3-3.795 2.7-1.125-1.58zm6.599 9.71 6.19 5.37-1.14 1.31-4.72-4.1-1.89 2.17 3.68 3.21-1.14 1.31-3.67-3.21-1.95 2.24 4.78 4.15-1.14 1.31-6.245-5.42zm42.76 7.06h2.99l-3.69 2.63 1.66 2.34 4.15-2.93 1 1.41-4.14 2.93 1.72 2.42 5.16-3.67 1 1.42-6.74 4.79-6.4-9.01zm-34.99.07 4.4 2.22c2.27 1.14 3.06 3.04 2.08 4.97-.82 1.64-2.29 2.14-3.86 1.82l.78 5.08-2.04-1.03-.7-4.66-2.17-1.1-1.73 3.44-1.73-.87zm.94 2.45-1.67 3.31 2.54 1.28c1.24.63 2.35.38 2.86-.64.55-1.08.07-2.03-1.21-2.67zm27.05 1.24c1.39-.06 2.44.58 2.85 1.81.44 1.29-.06 2.19-.7 2.85 1.37.01 2.45.43 2.94 1.86.63 1.89-.57 3.41-2.91 4.19l-4.84 1.63-3.52-10.47 4.69-1.58c.53-.18 1.03-.27 1.49-.29zm-18.64.63 8.13.9-.19 1.73-6.21-.69-.32 2.85 4.77.57-.19 1.73-4.77-.57-.33 2.94 6.29.71-.19 1.72-8.22-.91zm18.28 1.2c-.25.02-.52.07-.82.17l-2.65.89.94 2.78 2.51-.84c1.18-.4 1.82-1.13 1.5-2.1-.22-.64-.74-.95-1.48-.9zm2.3 4.19c-.38-.03-.85.05-1.39.23l-2.92.98.97 2.87 3.05-1.02c1.26-.43 1.85-1.17 1.53-2.13-.19-.56-.6-.89-1.24-.93z" fill="#fff" transform="matrix(.8 0 0 -.8 262.52 664.48)"/><path d="m406.46 526.95c16.971 0 19.706 6.933 19.706 11.278 0 2.9537-.70694 4.8688-1.2307 6.6328-.29948 1.0099-1.338 4.2001-1.6218 5.1245-.96407 3.1464-3.1506 4.1508-6.2711 4.1296-.60644-.003-1.431-.11348-2.2686-.41568v-2.1852c.71788.42594 1.3866.54353 1.9295.54353 2.4122 0 3.3762-1.31 3.3762-2.5093 0-1.8666-.86148-4.2384-12.67-4.2384-9.3834 0-19.773 6.8202-26.988 6.8202-8.2088 0-12.441-3.9786-14.391-7.8423 2.311-.36309 4.2056-.83073 5.798-1.468-2.8983-2.9619-4.6554-5.811-7.2789-12.594 3.2716 3.4706 6.6916 4.4339 10.685 4.4339 6.9617 0 16.223-7.7097 31.226-7.7097zm15.438 22.252s1.0064-3.5677 1.3039-4.5618c.44099-1.4686 1.0461-3.9505 1.0461-5.2517 0-5.1888-2.5879-10.308-17.473-10.308-15.257 0-23.409 7.7494-32.326 7.7494-1.7018 0-4.6151-.63586-5.2763-1.3661 1.2895 3.139 2.9386 5.4834 5.3898 7.7124-1.4639.95446-3.6292 1.7517-5.7822 2.2214.95717 1.2991 4.1925 4.974 11.238 4.974 7.6926 0 16.679-7.0006 27.124-7.0006 12.416 0 14.597 2.9359 14.755 5.8315zm-70.48-21.44c-1.2252 1.5165-5.9744 8.0092-7.5319 10.199-6.9582 9.7875-16.886 17.355-27.804 17.355-9.4688 0-11.058-4.6596-12.025-8.0105-.47586-1.6525-2.8587-10.142-2.8587-12.583 0-2.3746 1.0974-6.7121 9.0498-6.9323v2.0409c-4.8804.13468-6.6547 1.8495-6.6547 4.0463 0 1.4166 2.672 2.9913 6.8557 2.9913 8.0467 0 12.429-3.9006 16.217-9.7253 1.5049-2.3137 3.3181-5.143 5.3098-7.9982 7.7938-11.171 20.616-21.385 35.4-21.41 16.292-.028 28.595 9.6316 34.291 18.85h-2.804c-5.2769-8.1582-17.05-16.612-31.036-16.612-15.437 0-27.866 11.014-33.874 20.287-1.6908 2.605-4.0155 5.9634-5.5648 8.3079-5.8602 8.8658-11.93 10.233-18.298 10.233-4.1899 0-5.9525-1.3968-6.8796-2.2125.33504 1.3893 1.4392 5.7282 2.4409 9.3082 1.3798 4.9317 3.5615 7.4253 9.2494 7.4253 11.603 0 20.96-8.2012 26.701-15.953 0 0 5.6229-7.5934 7.789-10.526 5.0316-6.816 10.636-11.262 17.782-11.262 3.8371 0 6.2971.47859 7.7938.97977-12.985-.0308-17.083 3.1985-23.55 11.2" fill="#0064a4"/></g></svg>