<svg height="177.12" viewBox="0 0 302 177.11797" width="302" xmlns="http://www.w3.org/2000/svg"><path d="m0 0c4.553 2.003 7.526 5.011 7.688 8.348 0 0-1.202.926-5.083 2.354-3.408 1.254-6.008 1.541-6.008 1.541l.012-7.435c0-1.111-.446-2.245-1.288-3.249-2.576.622-5.423.971-8.409.972h-.002c-2.988-.001-5.838-.351-8.417-.974-.842 1.004-1.289 2.139-1.289 3.251l.011 7.435s-2.598-.287-6.008-1.541c-3.881-1.428-5.081-2.354-5.081-2.354.161-3.338 3.135-6.347 7.693-8.35-4.554-2.003-7.527-5.011-7.688-8.347 0 0 1.201-.927 5.082-2.354 3.409-1.254 6.008-1.541 6.008-1.541l-.012 7.435c0 1.111.446 2.246 1.289 3.249 2.576-.623 5.422-.971 8.408-.971h.001c2.989 0 5.84.349 8.418.974.842-1.004 1.288-2.141 1.288-3.252l-.01-7.435s2.599.287 6.008 1.541c3.881 1.427 5.082 2.354 5.082 2.354-.162 3.338-3.136 6.347-7.693 8.349m-13.092-1.673h-.003l-.085.002c-2.696 0-4.894.66-6.506 1.669 1.612 1.011 3.811 1.672 6.512 1.672l.083.001h.004l.085-.001c2.697 0 4.894-.66 6.506-1.669-1.612-1.01-3.811-1.672-6.511-1.672" transform="matrix(5.3483 0 0 -5.3483 221.15 66.479)"/><path d="m0 0c-1.306 0-1.329.996-1.329 1.38v1.812c0 .11-.009.256.224.256h.675c.219 0 .205-.156.205-.256v-1.812c0-.129.024-.475.499-.475h1.132c.466 0 .493.346.493.475v1.812c0 .1-.013.256.205.256h.68c.247 0 .225-.156.225-.256v-1.812c0-.384-.023-1.38-1.334-1.38" transform="matrix(5.3483 0 0 -5.3483 8.1081 176.02)"/><path d="m0 0c-.461.621-1.119 1.403-1.79 2.229v-2.206c0-.096.024-.242-.205-.242h-.63c-.228 0-.201.146-.201.242v2.95c0 .1-.01.256.201.256h1.228c.347 0 .841-.699 1.165-1.16.25-.352.712-.881 1.022-1.278v2.182c0 .1-.014.256.215.256h.684c.22 0 .206-.156.206-.256v-3.192h-1.26c-.27 0-.389-.018-.635.219" transform="matrix(5.3483 0 0 -5.3483 41.561 174.85)"/><path d="m0 0c.552 0 .512.53.512.772 0 .813-.229.845-.594.845h-1.735v-1.617h1.817zm-2.882-.908v3.443h3.043c.186 0 1.432.022 1.432-1.287 0-1.339.146-2.156-1.405-2.156h-1.64l-.356.721v-.721" transform="matrix(5.3483 0 0 -5.3483 69.324 171.17)"/><path d="m0 0h2.803c.238 0 .206-.155.206-.443 0-.268.036-.419-.206-.419h-2.215c-.059 0-.259.032-.259-.178s-.041-.293.182-.293h1.959s.283-.539.315-.63c.046-.082.041-.16-.132-.16h-2.028l-.315.612v-.904c0-.21.188-.169.242-.169h2.301c.229 0 .21-.159.21-.419 0-.28.019-.434-.21-.434h-2.913c-.242 0-.716.073-.716.83v1.9c0 .196.105.707.776.707" transform="matrix(5.3483 0 0 -5.3483 84.219 157.73)"/><path d="m0 0h-1.365c-.227 0-.219-.078-.219-.147v-.616h1.406c.681 0 .681.17.681.348 0 .356-.027.415-.503.415m-2.442.909h3.068c.411 0 1.008.004 1.008-1.105 0-.726-.154-.762-.483-.986.553-.096.48-.803.48-1.169 0-.187-.068-.183-.124-.183h-.899c-.188 0-.142.297-.142.452 0 .425-.237.406-.329.406h-1.324c-.127.22-.374.713-.374.713v-1.429c0-.124-.124-.142-.169-.142h-.903c.049 0-.093-.009-.093.115v3.031c0 .215.151.297.284.297" transform="matrix(5.3483 0 0 -5.3483 117.42 162.47)"/><path d="m0 0-.566-1.032.05-.05h1.055l.055.05c-.037.078-.493.945-.539 1.037l-.055-.005m.365.953c.224 0 .442-.1.68-.561.161-.328 1.275-2.341 1.507-2.762v-.114h-1.16l-.334.603h-1.41s-.237.543-.305.693c-.087-.141-.553-1.027-.714-1.296h-1.163v.073c.237.447 1.858 3.364 1.858 3.364" transform="matrix(5.3483 0 0 -5.3483 152.46 162.83)"/><path d="m0 0h-1.365c-.228 0-.219-.078-.219-.147v-.616h1.406c.681 0 .681.17.681.348 0 .356-.027.415-.503.415m-2.442.909h3.068c.411 0 1.009.004 1.009-1.105 0-.726-.154-.762-.484-.986.552-.096.479-.803.479-1.169 0-.187-.068-.183-.123-.183h-.899c-.188 0-.142.297-.142.452 0 .425-.237.406-.329.406h-1.324c-.128.22-.375.713-.375.713v-1.429c0-.124-.122-.142-.168-.142h-.904c.05 0-.091-.009-.091.115v3.031c0 .215.151.297.283.297" transform="matrix(5.3483 0 0 -5.3483 182.38 162.47)"/><path d="m0 0c-.229.429-.864 1.612-1.293 2.387v-2.145c0-.096.013-.242-.204-.242h-.622c-.233 0-.215.146-.215.242v2.95c0 .1-.013.251.215.251h1.073c.16 0 .387.037.644-.475.192-.41.599-1.261.877-1.712.287.451.703 1.302.895 1.712.251.512.474.475.652.475h1.068c.22 0 .197-.151.197-.251v-2.95c0-.096.031-.242-.197-.242h-.625c-.228 0-.21.146-.21.242v2.145c-.433-.775-1.064-1.958-1.302-2.387" transform="matrix(5.3483 0 0 -5.3483 205.46 176.02)"/><path d="m0 0c.517 0 .498.533.498.89 0 .32.073.822-.598.822h-1.138c-.666 0-.588-.502-.588-.822 0-.357-.032-.89.484-.89zm-2.045-.886c-1.018 0-.973 1.092-.973 1.798 0 .649-.073 1.662 1.201 1.672h2.261c1.278 0 1.195-1.027 1.195-1.672 0-.706.051-1.798-.982-1.798" transform="matrix(5.3483 0 0 -5.3483 241.35 171.33)"/><path d="m0 0c-1.307 0-1.329.996-1.329 1.38v1.812c0 .11-.009.256.224.256h.676c.218 0 .205-.156.205-.256v-1.812c0-.129.023-.475.498-.475h1.132c.466 0 .493.346.493.475v1.812c0 .1-.014.256.205.256h.68c.247 0 .225-.156.225-.256v-1.812c0-.384-.023-1.38-1.334-1.38" transform="matrix(5.3483 0 0 -5.3483 259.22 176.02)"/><path d="m0 0h-1.365c-.228 0-.219-.078-.219-.147v-.616h1.406c.681 0 .681.17.681.348 0 .356-.027.415-.503.415m-2.443.909h3.069c.411 0 1.01.004 1.01-1.105 0-.726-.156-.762-.485-.986.553-.096.48-.803.48-1.169 0-.187-.068-.183-.124-.183h-.899c-.187 0-.142.297-.142.452 0 .425-.237.406-.328.406h-1.325c-.127.22-.374.713-.374.713v-1.429c0-.124-.124-.142-.169-.142h-.903c.049 0-.092-.009-.092.115v3.031c0 .215.151.297.282.297" transform="matrix(5.3483 0 0 -5.3483 292.25 162.47)"/></svg>