<svg enable-background="new 0 0 500 500" height="500" viewBox="0 0 500 500" width="500" xmlns="http://www.w3.org/2000/svg"><g fill="#039" transform="translate(-2374 -3)"><path d="m2373.01 0h506.941c.021 151.173.025 302.35.011 453.531-.187 17.827.349 35.664-.272 53.469h-106.67c5.72-16.747 11.123-33.658 14.42-51.071 6.925-35.236 8.25-71.344 3.931-106.993-6.878-55.715-28.865-109.305-62.347-154.334-31.19-42.371-72.077-76.675-119.247-100.048-72.685-35.872-158.7-43.711-236.724-21.708-.109-24.283-.011-48.565-.043-72.846z"/><path d="m2413.283 70.035c23.106-5.112 47.022-5.369 70.233-.756 31.735 6.435 60.96 27.221 74.938 56.776 7.465 14.8 9.975 31.474 10.545 47.885 0 38.49-13.878 75.72-33.401 108.444-18.788 30.589-42.149 58.121-69.27 81.641-24.94 22.11-52.75 40.755-82.676 55.428-3.387 1.837-6.936 3.359-10.6 4.55 0-9.209.004-18.41.011-27.604 2.96 4.856 4.955 10.228 7.937 15.085 4.3-1.906 8.49-4.052 12.552-6.425-6.314-13.583-13.309-26.825-19.853-40.288-.998-1.71-.625-3.749-.658-5.612.099-5.196-.132-10.404.132-15.589 12.299-5.777 23.305-13.901 33.981-22.222 1.074-1.305 2.203.625 2.828 1.37 11.203 15.393 23.021 30.313 34.859 45.222.521.655 1.113 1.251 1.765 1.775 5.645-4.001 11.247-8.354 15.632-13.747-12.563-15.085-25.553-29.83-39.255-43.884-.581-.833-2.225-1.602-1.666-2.752 8.949-6.727 17.145-14.402 24.445-22.891 2.203-2.225 3.814-5.162 6.424-6.938 16.027 12.685 32.042 25.423 47.696 38.578 5.13-6.336 10.125-12.779 14.985-19.327-16.323-12.092-32.93-23.844-50.393-34.259 6.818-10.162 14.086-20.095 19.666-31.046 16.574 6.907 32.448 15.381 48.178 24.008 1.787.921 3.476 2.225 5.492 2.741 4.407-6.83 7.049-14.646 10.162-22.112-17.634-8.963-35.884-16.657-54.613-23.022 3.623-7.824 6.376-16.022 8.211-24.447 18.976 3.146 37.425 9.066 55.676 15.063 2.108-8.716 3.331-17.623 3.65-26.585-18.09-4.541-36.469-7.845-55.008-9.888.616-5.603.93-11.235.943-16.872 17.755 1.285 35.419 3.606 52.903 6.95-.673-8.039-2.546-15.932-5.558-23.416-16.388-3.081-33.544-1.82-50.075-2.5-1.202-4.334-2.655-8.595-4.352-12.761 15.303-1.655 30.76-1.425 46.139-.899-3.531-6.893-8.446-12.983-14.438-17.891-13.516-.055-26.967 1.984-40.297 3.99-2.291-3.596-5.339-6.567-8.09-9.757 10.874-2.465 21.89-4.255 32.985-5.361-.778-1.787-2.708-2.478-4.231-3.387-5.644-3.209-11.496-6.036-17.517-8.463-2.883-1.348-5.876.406-8.737.855-5.909 1.239-11.587 3.563-17.441 4.802-4.122-1.831-7.969-4.254-12.278-5.646 4.922-2.478 10.25-3.969 15.446-5.766-11.816-2.675-24.138-2.269-36.186-1.853-7.241 1.456-14.607-.342-21.821-1.197z"/><path d="m2492.178 66c19.551 2.023 39.254 4.92 57.771 11.841 14.938 5.46 28.641 13.856 40.31 24.698 23.341 20.239 38.686 48.21 43.249 78.84 5.008 33.346-3.188 67.119-15.621 97.939-13.389 32.374-33.115 61.719-55.409 88.538-39.156 47.997-88.621 87.838-144.901 113.717-14.456 6.705-29.302 12.524-44.458 17.428-.229-23.758.011-47.527-.12-71.296 4.648-1.76 9.068-4.089 13.683-5.948 8.262 17.788 17.124 35.325 27.019 52.261 4.944-1.992 9.711-4.403 14.25-7.204-8.665-16.356-17.544-32.604-26.637-48.74-.664-1.235-2.526-3.575-.337-4.275 18.654-9.882 36.233-21.684 52.458-35.216 12.453 15.854 24.855 31.754 37.208 47.702 6.912-4.352 12.802-10.103 18.985-15.416-10.722-13.831-22.327-26.961-33.67-40.278-1.524-2.088-4.191-3.619-5.018-6.035 5.541-5.39 11.593-10.266 16.808-16.017 6.934-7.806 14.271-15.307 20.454-23.747 15.874 12.834 30.967 26.612 45.198 41.262 6.368-7.139 12.802-14.398 17.591-22.729-12.072-10.638-24.399-20.975-36.979-31.007-3.309-2.68-6.967-4.965-9.754-8.211 9.481-11.557 16.982-24.676 23.448-38.157 12.855 6.669 24.907 14.804 37.099 22.632 4.986 3.138 9.547 6.954 14.761 9.742 4.594-8.528 9.177-17.133 12.247-26.36-16.492-10.31-33.44-19.829-50.848-28.558-1.023-.514-2.917-1.301-1.992-2.777 3.751-10.276 6.831-20.787 9.22-31.466 15.349 4.832 29.969 11.731 44.479 18.652 3.603 1.585 6.913 3.881 10.755 4.953 2.2-10.492 3.341-21.181 3.407-31.903-17.727-7.953-36.022-14.557-54.734-19.756.143-6.702-.555-13.382-.719-20.073 16.786 3.214 33.071 8.539 49.204 14.115 1.078.033 3.168 1.618 3.745.131-2.164-10.432-5.525-20.576-10.015-30.23-15.864-4.036-31.948-7.146-48.17-9.315-1.622-5.467-4.757-10.452-5.934-15.995 11.147 1.531 22.425 2.373 33.496 4.57 2.78.61 5.6 1.023 8.437 1.235-6.022-8.672-13.327-16.37-21.663-22.829-1.568-1.235-3.288-2.569-5.356-2.449-9.634-.295-19.279-.612-28.902-.394-3.081-2.69-5.628-5.926-8.741-8.572-.882-1.028-2.58-1.706-2.482-3.236 6.825-.437 13.684-.328 20.531-.47-2.624-2.821-6.64-3.597-9.982-5.259-11.625-4.905-23.866-8.183-36.38-9.742-5.507-2.66-11.494-4.049-16.991-6.596z"/><path d="m2390.024 76.318c22.955-3.789 47.245-3.472 69.143 5.016 16.501 6.406 31.511 17.752 40.001 33.324 11.227 20.303 11.761 44.736 6.977 66.923-7.177 31.452-23.689 60.188-44.052 85.167-22.281 26.755-48.926 49.678-78.845 67.832-1.581.994-3.272 1.806-5.041 2.42.089-20.906-.033-41.813.056-62.717 9.604 10.896 18.07 22.767 27.383 33.927 4.707-1.84 8.323-6.034 12.195-9.254-12.896-13.349-25.646-26.83-38.41-40.289-.894-.629-1.411-1.653-1.379-2.735.032-1.08.607-2.074 1.535-2.653 6.811-5.454 12.762-11.827 18.649-18.223 17.146 10.787 33.57 22.625 49.67 34.879 3.171-3.701 6.42-7.338 9.469-11.148.49-.898 2.403-2.365.957-3.242-16.976-10.681-34.51-20.477-52.53-29.349 5.33-6.615 9.979-13.735 13.875-21.256 17.245 5.081 34.208 11.051 50.817 17.883 2.981 1.216 5.808 2.88 9.035 3.461 2.804-5.432 5.664-10.842 8.256-16.372-20.178-7.207-40.937-12.731-62.055-16.514 2.058-5.147 4.351-10.272 5.296-15.77 21.877 1.067 43.624 3.961 65.003 8.651 1.591-6.461 3.416-12.966 3.761-19.646-21.859-1.973-43.818-2.66-65.76-2.059.579-4.271.779-8.564 1.191-12.857 21.848-1.785 43.786-2.268 65.693-1.446-.501-5.651-.901-11.444-2.86-16.81-21.486.066-42.783 3.745-63.935 7.206-.682-3.327-1.54-6.617-2.57-9.856 20.173-5.278 40.891-8.224 61.621-10.426-2.354-4.626-5.235-8.973-8.59-12.955-19.25 3.395-38.01 9.089-56.625 14.905-1.491-2.904-3.321-5.628-5.452-8.115 16.568-7.217 34.193-11.827 51.796-15.912-4.517-3.929-9.669-7.086-15.244-9.341-15.133 4.041-29.386 10.907-43.417 17.73-2.032-1.743-4.201-3.325-6.487-4.731.011-1.358 1.535-1.654 2.481-2.344 10.446-6.148 21.427-11.371 32.813-15.605-7.625-2.2-15.503-3.44-23.444-3.691-8.701 3.91-16.546 9.615-24.346 15.047-2.991-1.093-6.055-1.986-9.168-2.672 4.206-4.709 9.836-7.863 14.899-11.597-8.167-.241-16.134 1.873-24.168 2.869-.011-.865-.022-2.574-.033-3.428-1.758-.055-3.494-.142-5.185-.263 5.363-2.266 11.338-2.693 17.024-3.964z"/><path d="m2577.246 87c4.76.578 9.219 2.455 13.785 3.873 16.851 5.575 32.892 14.216 45.813 26.6 11.89 11.642 21.86 25.131 29.535 39.954 17.435 33.212 22.432 72.457 15.804 109.302-7.6 40.946-25.875 79.198-48.857 113.513-34.134 50.156-78.674 92.641-128.396 126.758h-52.054c-5.916-10.092-11.972-20.086-17.876-30.178 22.076-12.209 43.558-25.597 63.496-41.145 10.741 13.89 21.094 28.095 32.169 41.7 6.812-5.663 13.764-11.14 20.284-17.151-10.284-14.315-21.356-28.038-33.162-41.1 15.966-13.584 30.312-29 43.903-44.984 12.641 12.078 24.343 25.149 36.368 37.839 7.837-6.732 13.526-15.7 19.69-23.959-11.939-13.006-25.153-24.745-37.761-37.053 2.321-3.6 5.236-6.774 7.675-10.3 8.074-10.834 14.519-22.759 21.05-34.554 3.422 1.406 5.991 4.232 8.97 6.372 10.514 7.954 20.469 16.628 30.647 25.007 4.565-9.743 10.071-19.257 12.942-29.666-12.479-10.714-25.668-20.553-39.477-29.447 5.063-12.568 9.575-25.476 11.854-38.885 14.281 6.71 27.192 16.018 40.222 24.876 2.397-12.425 3.487-25.072 3.249-37.729-12.598-7.594-25.411-14.893-38.862-20.839.021-8.217-.389-16.43-1.231-24.603 12.404 5.062 24.56 10.736 36.467 16.911-1.36-11.882-5.797-23.163-10.611-34.008-1.209-2.16-1.965-5.172-4.631-5.87-10.051-3.524-20.122-6.972-30.291-10.049-2.676-6.477-5.833-12.739-9.446-18.733 9.693 1.89 19.185 4.711 28.348 8.423-10.021-13.499-22.638-24.814-37.092-33.266-4.577-2.815-10.514-.906-15.038-3.59-5.178-5.445-11.06-10.16-17.486-14.019z"/><path d="m2373.088 96c19.465 2.3 38.629 12.792 47.698 29.691 8.964 18.378 7.462 39.844.381 58.55-7.861 20.076-20.117 38.347-35.961 53.61-4.066 3.713-7.59 8.028-12.187 11.149.162-8.718-.266-17.458.231-26.175 3.2 1.741 6.076 4.129 9.6 5.323 2.657-1.895 4.482-4.633 6.7-6.976-5.298-2.995-10.81-5.638-16.496-7.907.011-6.363.011-12.726-.035-19.1 10.327 1.029 20.181 4.414 30.011 7.404 1.978-3.177 3.685-6.499 5.105-9.934-11.621-1.785-23.127-4.687-34.944-4.841-.173-3.636-.162-7.261-.035-10.886 13.76-.354 27.529.048 41.24 1.205 1.302-3.629 2.303-7.35 2.992-11.127-14.833-.307-29.55 1.665-44.278 2.782.058-2.782.069-5.575.046-8.356 14.887-3.095 29.965-5.297 45.145-6.593-.035-3.165-.219-6.319-.381-9.474-15.237 1.971-30.139 6.308-44.671 11.029-.069-2.65-.092-5.301-.104-7.951 13.712-5.213 27.701-9.912 42.153-12.902-.692-2.471-1.604-4.882-2.726-7.206-13.816 3.428-26.615 9.693-39.542 15.311-.035-2.957-.011-5.925.139-8.882 10.813-5.027 21.647-10.021 32.715-14.533-1.938-2.098-4.094-4.006-6.435-5.695-8.825 4.775-17.639 9.583-26.246 14.698-.058-2.913-.05-5.826.023-8.74 4.771-2.837 9.461-5.816 14.417-8.378 1.028-.821 2.923-1.095 3.304-2.508-3.191-1.898-6.705-3.261-10.385-4.03-2.749.997-4.794 3.187-7.52 4.217-.024-4.265-.012-8.515.046-12.775z"/><path d="m2672.196 141c5.995 2.696 13.836 3.081 17.605 9.133 19.369 22.173 32.925 48.721 39.472 77.302 7.196 30.558 5.828 62.667-1.757 93.027-12.522 51.41-41.663 97.109-75.319 137.527-15.215 17.199-31.131 33.87-48.48 48.989-3.937-.11-7.886.23-11.767-.221-9.287-11.773-18.118-23.933-27.95-35.267 17.606-14.979 33.907-31.4 48.726-49.088 9.91 10.96 19.567 22.14 28.974 33.54 4.104-3.081 6.961-7.517 10.532-11.169 3.515-4.59 7.652-8.825 10.488-13.854-.167-2.74-2.881-4.391-4.404-6.426-8.097-9.375-16.405-18.564-25.08-27.422 8.486-10.686 15.771-22.25 23.134-33.716 3.203-5.228 6.362-10.498 9.031-16.022 4.46 2.179 7.553 6.272 11.289 9.43 6.773 6.592 13.45 13.289 20.031 20.094 6.173-9.849 10.155-20.842 14.37-31.604-9.099-9.852-18.904-19.042-29.34-27.499-1.535-.748-1.123-2.201-.591-3.433 5.45-13.414 10.199-27.246 12.436-41.563 3.036.639 5.148 3.081 7.674 4.721 7.796 5.602 14.926 12.039 22.088 18.399 2.314-14.29 3.034-28.789 2.146-43.234-8.596-7.099-17.549-13.761-26.826-19.961-.79-9.342-.678-18.74-2.213-28.016 7.963 4.303 15.493 9.408 23.468 13.678-4.088-14.943-10.142-29.29-18.007-42.673-1.279-2.047-2.213-4.391-4.015-6.03-4.071-2.465-8.664-3.939-12.879-6.096-1.357-.517-1.735-2.036-2.336-3.147-3.026-6.711-7.03-12.918-10.5-19.399z"/><path d="m2706.163 175c4.193.499 6.504 4.796 9.353 7.52 20.748 22.938 34.381 52.008 39.916 82.487 6.344 33.073 3.859 67.416-4.525 99.893-13.201 53.049-41.765 101.15-77.199 142.101h-63.708c2.999-3.581 6.698-6.467 9.966-9.798 7.45-7.379 14.363-15.268 21.179-23.242 2.235-2.354 3.901-5.534 6.793-7.129 7.967 9.863 15.438 20.161 22.985 30.371 7.568-8.171 13.997-17.308 20.771-26.129-7.153-10.505-14.851-20.621-23.061-30.307 12.413-16.94 23.621-34.749 33.542-53.288 7.806 8.725 14.632 18.295 21.544 27.734 6.182-10.254 10.363-21.646 14.008-33.04-6.382-9.475-13.306-18.564-20.737-27.225 5.602-15.132 9.721-30.781 12.299-46.724 7.504 6.175 13.417 13.987 20.007 21.083 2.268-16.11 2.721-32.43 1.354-48.644-5.559-5.577-10.934-11.404-17.362-15.994-.677-10.959-2.215-21.81-3.666-32.682 4.15 3.092 8.181 6.348 12.417 9.342-6.815-21.951-18.426-42.123-32.552-60.091-1.357-1.93-3.464-3.656-3.324-6.238z"/><path d="m2756.912 250c4.063 1.971 5.322 6.484 7.056 10.232 6.604 15.024 12.035 30.707 14.156 46.992 2.076 17.567.121 35.285-2.286 52.724-4.479 28.5-13.022 56.249-25.385 82.438-9.132 20.12-20.691 39.066-32.948 57.484-1.977.064-3.931.097-5.852.129-4.66-8.013-10.181-15.553-14.652-23.653 12.179-17.255 23.971-34.864 33.622-53.628.275.043.806.108 1.082.141 3.986 5.481 7.298 11.405 10.777 17.212 2.352-3.07 3.4-6.861 5.111-10.286 3.571-7.937 6.557-16.11 8.934-24.46-3.544-5.73-6.912-11.558-10.27-17.384 5.112-15.855 10.357-31.893 12.931-48.426.011-2.003 1.778-.161 2.219.539 2.462 3.092 4.892 6.215 7.586 9.145 3.156-15.924 4.331-32.162 3.5-48.361-2.776-4.216-5.837-8.246-9.165-12.063-1.391-1.454-1.148-3.588-1.413-5.396-.936-11.219-2.608-22.368-5.003-33.379z"/><path d="m2787.219 351.146c.553-1.813-.299-7.426 2.79-5.881 3.333 28.156-2.258 56.401-9.089 83.624-7.617 26.945-17.182 53.533-30.667 78.11h-25.253c1.196-3.824 3.908-6.881 5.9-10.315 8.183-12.86 15.068-26.478 22.298-39.872 2.284 3.768 4.332 7.673 6.133 11.694 5.159-10.349 8.358-21.576 12.057-32.514 2.613-6.325-5.259-11.861-2.602-18.108 6.211-16.396 10.107-33.558 13.164-50.799 1.229.311 2.114 1.434 3.122 2.223.874-6.035 1.449-12.104 2.147-18.162z"/><path d="m2792.243 411.426 1.757-.426c-2.604 32.665-8.291 65.409-19.914 95.968-4.703.045-9.405.034-14.086.022 2.796-6.478 5.881-12.809 8.719-19.264.021-1.03 1.607-2.835 1.95-.873.621.56.524 3.384 1.726 2.757 7.947-25.662 14.364-51.85 19.848-78.184z"/><path d="m2373.081 502.499c16.579-4.305 32.812-9.482 48.6-15.499 4.467 6.651 9.166 13.205 13.319 20h-62c.023-1.513.035-3.007.081-4.501z"/><path d="m2524.554 502.364c7.727-4.602 14.427-10.522 21.983-15.364 4.394 6.724 9.765 12.909 13.463 20h-42c2.068-1.686 4.258-3.235 6.554-4.636z"/></g></svg>