<?xml version="1.0" encoding="utf-8"?>
<!-- Generator: Adobe Illustrator 16.0.0, SVG Export Plug-In . SVG Version: 6.00 Build 0)  -->
<!DOCTYPE svg PUBLIC "-//W3C//DTD SVG 1.1//EN" "http://www.w3.org/Graphics/SVG/1.1/DTD/svg11.dtd">
<svg version="1.1" id="Layer_1" xmlns="http://www.w3.org/2000/svg" xmlns:xlink="http://www.w3.org/1999/xlink" x="0px" y="0px"
	 width="90px" height="90px" viewBox="0 0 90 90" enable-background="new 0 0 90 90" xml:space="preserve">
<g>
	<path fill="#FFFFFF" d="M63.313,32.556l18.058-0.011l3.217-7.863c-0.142-0.274-0.275-0.552-0.422-0.823H66.818L63.313,32.556z"/>
	<path fill="#FFFFFF" d="M11.669,30.297l20.348,50.344h6.621l10.848-26.507l22.18-0.008l3.563-8.69H53.045l8.831-21.58h-3.569
		c-9.934,0-10.156,4.234-12.104,8.914l-9.49,24.311l-1.253,3.551l-1.085-3.405L23.631,26.834c-0.544-1.735-2.141-2.978-4.758-2.978
		H5.836c-0.266,0.492-0.518,0.993-0.766,1.496C8.611,26.181,10.411,27.351,11.669,30.297z"/>
</g>
</svg>
