<svg enable-background="new 0 0 90 90" height="90" viewBox="0 0 90 90" width="90" xmlns="http://www.w3.org/2000/svg"><g fill="#fff"><path d="m63.313 32.556 18.058-.011 3.217-7.863c-.142-.274-.275-.552-.422-.823h-17.348z"/><path d="m11.669 30.297 20.348 50.344h6.621l10.848-26.507 22.18-.008 3.563-8.69h-22.184l8.831-21.58h-3.569c-9.934 0-10.156 4.234-12.104 8.914l-9.49 24.311-1.253 3.551-1.085-3.405-10.744-30.393c-.544-1.735-2.141-2.978-4.758-2.978h-13.037c-.266.492-.518.993-.766 1.496 3.541.829 5.341 1.999 6.599 4.945z"/></g></svg>