<svg enable-background="new 0 0 400 400" height="400" viewBox="0 0 400 400" width="400" xmlns="http://www.w3.org/2000/svg"><g clip-rule="evenodd" fill-rule="evenodd" stroke="#000" stroke-miterlimit="10" stroke-width="2"><path d="m323.18 214.387c-3.883 8.823-7.365 16.738-10.848 24.652-.59-.26-1.178-.52-1.768-.778 3.938-9.239 7.873-18.479 11.811-27.718.453-.091.904-.182 1.357-.272 3.523 8.023 7.045 16.047 11.107 25.296 3.943-9.096 7.439-17.159 10.938-25.222.475-.013.951-.026 1.426-.039 3.963 9.293 7.926 18.586 11.889 27.879-.6.285-1.201.57-1.803.854-3.473-7.959-6.945-15.919-10.848-24.863-3.883 8.928-7.35 16.9-10.816 24.872-.506.081-1.012.163-1.516.244-3.507-7.989-7.013-15.979-10.929-24.905z"/><path d="m40.911 210.524c5.152-.555 10.389-1.64 13.279 2.646 1.73 2.564.949 6.823.168 10.359 1.127 2.316 2.809 4.528 3.264 6.97.934 5.014-2.793 8.336-9.016 8.623-7.684.355-7.689.355-7.695-7.149-.006-7.077 0-14.154 0-21.449zm2.086 14.613c0 2.255-.002 4.02 0 5.784.002 6.304.373 6.532 6.777 6.031 3.596-.281 6.123-2.281 5.568-5.478-.406-2.329-2.865-4.839-5.072-6.143-1.672-.985-4.393-.194-7.273-.194zm-.487-3.058c.58.614 1.162 1.229 1.744 1.843 2.971-1.192 6.283-1.939 8.729-3.816.877-.672.406-5.219-.762-5.975-2.105-1.364-7.119-2.255-7.533-1.497-1.488 2.732-1.566 6.234-2.178 9.445z"/><path d="m235.596 210.634v27.894c-.459.043-.918.086-1.377.129-.191-4.212-.381-8.425-.596-13.124-4.064 0-7.865-.224-11.605.151-.975.098-2.383 1.99-2.514 3.177-.352 3.191-.121 6.447-.121 9.677-.531-.009-1.061-.018-1.592-.026 0-9.251 0-18.503 0-27.754.357-.053.717-.104 1.076-.157.172 2.043.414 4.083.498 6.13.086 2.102.02 4.21.02 6.608h14.633c0-4.392 0-8.547 0-12.702.525-.002 1.052-.002 1.578-.003z"/><path d="m150.426 230.98c-3.258 6.439-8.943 8.97-15.477 7.798-6.627-1.188-11.434-6.553-12.039-13.437-.572-6.48 3.252-12.597 9.361-14.973 6.805-2.647 13.076-.633 17.428 6.472-1.031-.633-2.152-1.154-3.078-1.916-5.887-4.855-13.078-4.804-17.93.189-4.725 4.864-4.914 12.642-.426 17.658 4.754 5.313 12.361 5.654 18.316.853.918-.737 1.943-1.342 3.845-2.644z"/><path d="m175.434 239.548c0-10.354 0-19.34 0-28.327.402-.036.805-.071 1.207-.106v15.005c.484.146.969.292 1.453.438 4.348-5.531 8.695-11.063 13.043-16.594.447.345.895.688 1.342 1.033-2.254 3.075-4.322 6.312-6.813 9.181-2.559 2.946-3.16 5.319-.182 8.5 2.641 2.818 4.592 6.28 6.848 9.458-.453.369-.908.738-1.361 1.107-3.186-4.11-6.369-8.221-10.621-13.709-1.767 5.038-3.109 8.862-4.916 14.014z"/><path d="m82.217 238.496c0-8.659-.051-17.275.086-25.888.014-.81 1.195-2.259 1.887-2.29 4.543-.208 9.102-.107 13.654-.107.016.558.031 1.116.047 1.674-4.346 0-8.689 0-13.311 0v11.758h12.932c.023.509.045 1.017.068 1.525-4.232.196-8.465.394-13.01.604v11.27h13.25c-.008.484-.014.969-.02 1.454-4.975 0-9.954 0-15.583 0z"/><path d="m273.254 214.229c-3.984 9.051-7.461 16.948-10.938 24.847-.584-.266-1.166-.531-1.75-.797 3.961-9.269 7.922-18.537 11.883-27.806.488-.028.975-.057 1.461-.085 3.973 9.282 7.947 18.563 11.92 27.846-.635.297-1.27.595-1.904.892-3.399-7.929-6.797-15.857-10.672-24.897z"/><path d="m225.201 190.302c-8.299-.034-14.857-6.606-14.842-14.875.014-8.489 6.799-15.124 15.311-14.972 8.234.147 14.756 6.916 14.615 15.169-.14 8.291-6.74 14.713-15.084 14.678zm.01-2.113c7.184.025 12.795-5.354 12.959-12.423.17-7.276-5.539-13.187-12.75-13.198-7.217-.011-13.154 5.912-13.014 12.984.143 7.1 5.727 12.613 12.805 12.637z"/><path d="m271.051 178.507c8.432-1.593 11.355-4.536 10.17-9.563-1.156-4.9-5.908-6.591-14.424-4.739v25.478c-.404.044-.809.088-1.213.133-.252-.932-.715-1.86-.725-2.793-.074-7.319.014-14.641-.113-21.959-.047-2.749.873-4.046 3.742-3.781 2.148.199 4.316.165 6.471.32 4.803.346 7.781 2.854 8.316 7.692.535 4.83-1.209 8.472-6.168 10.047-.457.146-.859.456-1.744.939 1.998 3.091 3.959 6.128 5.922 9.165-.504.356-1.01.712-1.514 1.067-2.765-3.806-5.531-7.615-8.72-12.006z"/><path d="m143.714 168.202c-7.733-6.201-15.546-9.182-22.751-.053-3.451 4.372-2.94 11.732.907 15.734 7.29 7.582 14.515 4.557 22.131-1.857-3.125 6.657-8.928 9.236-15.661 7.924-6.728-1.311-11.411-7.047-11.641-14.256-.216-6.805 4.09-12.762 10.563-14.615 6.6-1.89 12.973.648 16.452 7.123z"/><path d="m52.837 186.444c4-9.221 7.453-17.18 10.905-25.139.596.26 1.19.52 1.785.779-3.965 9.342-7.93 18.684-11.894 28.026-.499.05-.998.1-1.497.149-4.004-9.363-8.008-18.727-12.012-28.09.609-.279 1.219-.559 1.829-.838 3.478 8.023 6.955 16.047 10.884 25.113z"/><path d="m347.242 165.484c-3.953 9.111-7.375 17.002-10.799 24.894-.607-.28-1.215-.561-1.824-.841 3.959-9.274 7.918-18.548 11.877-27.822.488-.023.979-.046 1.467-.069 3.971 9.252 7.941 18.505 11.912 27.757-.604.278-1.205.556-1.807.834-3.427-7.837-6.855-15.673-10.826-24.753z"/><path d="m176.748 163.886c-3.288-.375-5.357-.612-7.426-.848.011-.347.021-.693.032-1.04h15.994c.035.343.069.687.104 1.031-2.148.222-4.296.444-7.131.737v26.029c-.525.014-1.05.027-1.574.042.001-8.537.001-17.073.001-25.951z"/><path d="m308.457 189.553c0-9.159 0-18.319 0-27.478.301-.01.602-.02.902-.029v27.431c-.3.025-.601.051-.902.076z"/><path d="m90.527 189.327c0-8.986 0-17.973 0-26.96.281-.003.563-.006.843-.01v26.957c-.28.004-.561.009-.843.013z"/></g></svg>