<?xml version="1.0" encoding="utf-8"?>
<!-- Generator: Adobe Illustrator 16.0.0, SVG Export Plug-In . SVG Version: 6.00 Build 0)  -->
<!DOCTYPE svg PUBLIC "-//W3C//DTD SVG 1.1//EN" "http://www.w3.org/Graphics/SVG/1.1/DTD/svg11.dtd">
<svg version="1.1" id="Layer_1" xmlns="http://www.w3.org/2000/svg" xmlns:xlink="http://www.w3.org/1999/xlink" x="0px" y="0px"
	 width="400px" height="400px" viewBox="0 0 400 400" enable-background="new 0 0 400 400" xml:space="preserve">
<g>
	<g>
		<path fill-rule="evenodd" clip-rule="evenodd" stroke="#000000" stroke-width="2" stroke-miterlimit="10" d="M323.18,214.387
			c-3.883,8.823-7.365,16.738-10.848,24.652c-0.59-0.26-1.178-0.52-1.768-0.778c3.938-9.239,7.873-18.479,11.811-27.718
			c0.453-0.091,0.904-0.182,1.357-0.272c3.523,8.023,7.045,16.047,11.107,25.296c3.943-9.096,7.439-17.159,10.938-25.222
			c0.475-0.013,0.951-0.026,1.426-0.039c3.963,9.293,7.926,18.586,11.889,27.879c-0.6,0.285-1.201,0.57-1.803,0.854
			c-3.473-7.959-6.945-15.919-10.848-24.863c-3.883,8.928-7.35,16.9-10.816,24.872c-0.506,0.081-1.012,0.163-1.516,0.244
			C330.602,231.303,327.096,223.313,323.18,214.387z"/>
		<path fill-rule="evenodd" clip-rule="evenodd" stroke="#000000" stroke-width="2" stroke-miterlimit="10" d="M40.911,210.524
			c5.152-0.555,10.389-1.64,13.279,2.646c1.73,2.564,0.949,6.823,0.168,10.359c1.127,2.316,2.809,4.528,3.264,6.97
			c0.934,5.014-2.793,8.336-9.016,8.623c-7.684,0.355-7.689,0.355-7.695-7.149C40.905,224.896,40.911,217.819,40.911,210.524z
			 M42.997,225.137c0,2.255-0.002,4.02,0,5.784c0.002,6.304,0.373,6.532,6.777,6.031c3.596-0.281,6.123-2.281,5.568-5.478
			c-0.406-2.329-2.865-4.839-5.072-6.143C48.598,224.346,45.877,225.137,42.997,225.137z M42.51,222.079
			c0.58,0.614,1.162,1.229,1.744,1.843c2.971-1.192,6.283-1.939,8.729-3.816c0.877-0.672,0.406-5.219-0.762-5.975
			c-2.105-1.364-7.119-2.255-7.533-1.497C43.2,215.366,43.122,218.868,42.51,222.079z"/>
		<path fill-rule="evenodd" clip-rule="evenodd" stroke="#000000" stroke-width="2" stroke-miterlimit="10" d="M235.596,210.634
			c0,9.298,0,18.596,0,27.894c-0.459,0.043-0.918,0.086-1.377,0.129c-0.191-4.212-0.381-8.425-0.596-13.124
			c-4.064,0-7.865-0.224-11.605,0.151c-0.975,0.098-2.383,1.99-2.514,3.177c-0.352,3.191-0.121,6.447-0.121,9.677
			c-0.531-0.009-1.061-0.018-1.592-0.026c0-9.251,0-18.503,0-27.754c0.357-0.053,0.717-0.104,1.076-0.157
			c0.172,2.043,0.414,4.083,0.498,6.13c0.086,2.102,0.02,4.21,0.02,6.608c5.109,0,9.508,0,14.633,0c0-4.392,0-8.547,0-12.702
			C234.543,210.635,235.07,210.635,235.596,210.634z"/>
		<path fill-rule="evenodd" clip-rule="evenodd" stroke="#000000" stroke-width="2" stroke-miterlimit="10" d="M150.426,230.98
			c-3.258,6.439-8.943,8.97-15.477,7.798c-6.627-1.188-11.434-6.553-12.039-13.437c-0.572-6.48,3.252-12.597,9.361-14.973
			c6.805-2.647,13.076-0.633,17.428,6.472c-1.031-0.633-2.152-1.154-3.078-1.916c-5.887-4.855-13.078-4.804-17.93,0.189
			c-4.725,4.864-4.914,12.642-0.426,17.658c4.754,5.313,12.361,5.654,18.316,0.853C147.499,232.887,148.524,232.282,150.426,230.98z
			"/>
		<path fill-rule="evenodd" clip-rule="evenodd" stroke="#000000" stroke-width="2" stroke-miterlimit="10" d="M175.434,239.548
			c0-10.354,0-19.34,0-28.327c0.402-0.036,0.805-0.071,1.207-0.106c0,5.002,0,10.003,0,15.005c0.484,0.146,0.969,0.292,1.453,0.438
			c4.348-5.531,8.695-11.063,13.043-16.594c0.447,0.345,0.895,0.688,1.342,1.033c-2.254,3.075-4.322,6.312-6.813,9.181
			c-2.559,2.946-3.16,5.319-0.182,8.5c2.641,2.818,4.592,6.28,6.848,9.458c-0.453,0.369-0.908,0.738-1.361,1.107
			c-3.186-4.11-6.369-8.221-10.621-13.709C178.583,230.572,177.241,234.396,175.434,239.548z"/>
		<path fill-rule="evenodd" clip-rule="evenodd" stroke="#000000" stroke-width="2" stroke-miterlimit="10" d="M82.217,238.496
			c0-8.659-0.051-17.275,0.086-25.888c0.014-0.81,1.195-2.259,1.887-2.29c4.543-0.208,9.102-0.107,13.654-0.107
			c0.016,0.558,0.031,1.116,0.047,1.674c-4.346,0-8.689,0-13.311,0c0,4.379,0,7.772,0,11.758c4.518,0,8.725,0,12.932,0
			c0.023,0.509,0.045,1.017,0.068,1.525c-4.232,0.196-8.465,0.394-13.01,0.604c0,3.663,0,7.081,0,11.27c4.553,0,8.9,0,13.25,0
			c-0.008,0.484-0.014,0.969-0.02,1.454C92.825,238.496,87.846,238.496,82.217,238.496z"/>
		<path fill-rule="evenodd" clip-rule="evenodd" stroke="#000000" stroke-width="2" stroke-miterlimit="10" d="M273.254,214.229
			c-3.984,9.051-7.461,16.948-10.938,24.847c-0.584-0.266-1.166-0.531-1.75-0.797c3.961-9.269,7.922-18.537,11.883-27.806
			c0.488-0.028,0.975-0.057,1.461-0.085c3.973,9.282,7.947,18.563,11.92,27.846c-0.635,0.297-1.27,0.595-1.904,0.892
			C280.527,231.197,277.129,223.269,273.254,214.229z"/>
	</g>
	<g>
		<path fill-rule="evenodd" clip-rule="evenodd" stroke="#000000" stroke-width="2" stroke-miterlimit="10" d="M225.201,190.302
			c-8.299-0.034-14.857-6.606-14.842-14.875c0.014-8.489,6.799-15.124,15.311-14.972c8.234,0.147,14.756,6.916,14.615,15.169
			C240.145,183.915,233.545,190.337,225.201,190.302z M225.211,188.189c7.184,0.025,12.795-5.354,12.959-12.423
			c0.17-7.276-5.539-13.187-12.75-13.198c-7.217-0.011-13.154,5.912-13.014,12.984C212.549,182.652,218.133,188.165,225.211,188.189
			z"/>
		<path fill-rule="evenodd" clip-rule="evenodd" stroke="#000000" stroke-width="2" stroke-miterlimit="10" d="M271.051,178.507
			c8.432-1.593,11.355-4.536,10.17-9.563c-1.156-4.9-5.908-6.591-14.424-4.739c0,8.379,0,16.928,0,25.478
			c-0.404,0.044-0.809,0.088-1.213,0.133c-0.252-0.932-0.715-1.86-0.725-2.793c-0.074-7.319,0.014-14.641-0.113-21.959
			c-0.047-2.749,0.873-4.046,3.742-3.781c2.148,0.199,4.316,0.165,6.471,0.32c4.803,0.346,7.781,2.854,8.316,7.692
			c0.535,4.83-1.209,8.472-6.168,10.047c-0.457,0.146-0.859,0.456-1.744,0.939c1.998,3.091,3.959,6.128,5.922,9.165
			c-0.504,0.356-1.01,0.712-1.514,1.067C277.006,186.707,274.24,182.898,271.051,178.507z"/>
		<path fill-rule="evenodd" clip-rule="evenodd" stroke="#000000" stroke-width="2" stroke-miterlimit="10" d="M143.714,168.202
			c-7.733-6.201-15.546-9.182-22.751-0.053c-3.451,4.372-2.94,11.732,0.907,15.734c7.29,7.582,14.515,4.557,22.131-1.857
			c-3.125,6.657-8.928,9.236-15.661,7.924c-6.728-1.311-11.411-7.047-11.641-14.256c-0.216-6.805,4.09-12.762,10.563-14.615
			C133.862,159.189,140.235,161.727,143.714,168.202z"/>
		<path fill-rule="evenodd" clip-rule="evenodd" stroke="#000000" stroke-width="2" stroke-miterlimit="10" d="M52.837,186.444
			c4-9.221,7.453-17.18,10.905-25.139c0.596,0.26,1.19,0.52,1.785,0.779c-3.965,9.342-7.93,18.684-11.894,28.026
			c-0.499,0.05-0.998,0.1-1.497,0.149c-4.004-9.363-8.008-18.727-12.012-28.09c0.609-0.279,1.219-0.559,1.829-0.838
			C45.431,169.354,48.908,177.378,52.837,186.444z"/>
		<path fill-rule="evenodd" clip-rule="evenodd" stroke="#000000" stroke-width="2" stroke-miterlimit="10" d="M347.242,165.484
			c-3.953,9.111-7.375,17.002-10.799,24.894c-0.607-0.28-1.215-0.561-1.824-0.841c3.959-9.274,7.918-18.548,11.877-27.822
			c0.488-0.023,0.979-0.046,1.467-0.069c3.971,9.252,7.941,18.505,11.912,27.757c-0.604,0.278-1.205,0.556-1.807,0.834
			C354.641,182.4,351.213,174.564,347.242,165.484z"/>
		<path fill-rule="evenodd" clip-rule="evenodd" stroke="#000000" stroke-width="2" stroke-miterlimit="10" d="M176.748,163.886
			c-3.288-0.375-5.357-0.612-7.426-0.848c0.011-0.347,0.021-0.693,0.032-1.04c5.331,0,10.663,0,15.994,0
			c0.035,0.343,0.069,0.687,0.104,1.031c-2.148,0.222-4.296,0.444-7.131,0.737c0,8.723,0,17.375,0,26.029
			c-0.525,0.014-1.05,0.027-1.574,0.042C176.748,181.3,176.748,172.764,176.748,163.886z"/>
		<path fill-rule="evenodd" clip-rule="evenodd" stroke="#000000" stroke-width="2" stroke-miterlimit="10" d="M308.457,189.553
			c0-9.159,0-18.319,0-27.478c0.301-0.01,0.602-0.02,0.902-0.029c0,9.144,0,18.288,0,27.431
			C309.059,189.502,308.758,189.528,308.457,189.553z"/>
		<path fill-rule="evenodd" clip-rule="evenodd" stroke="#000000" stroke-width="2" stroke-miterlimit="10" d="M90.527,189.327
			c0-8.986,0-17.973,0-26.96c0.281-0.003,0.563-0.006,0.843-0.01c0,8.985,0,17.972,0,26.957
			C91.09,189.318,90.809,189.323,90.527,189.327z"/>
	</g>
</g>
</svg>
