<svg enable-background="new 0 -7.5 120 120" height="120" viewBox="0 -7.5 120 120" width="120" xmlns="http://www.w3.org/2000/svg"><g clip-rule="evenodd" fill="#fb0a15" fill-rule="evenodd"><path d="m59.023 98.527c-.137-1.342-.23-2.689-.42-4.023-.224-1.575-.275-3.137.135-4.683.722-2.723.69-5.488.607-8.274-.069-2.278.04-4.562.081-6.843.01-.54.08-1.078.097-1.619.031-.941-.612-1.493-1.526-1.229-.556.161-1.08.459-1.588.748-3.635 2.065-6.658 4.951-9.979 7.438-1.417 1.062-2.801 2.134-3.982 3.485-.729.834-1.696 1.496-2.646 2.092-1.76 1.104-3.374 2.362-4.826 3.853-.75.77-1.609 1.442-2.472 2.089-2.083 1.562-4.209 3.065-6.293 4.625-.871.652-1.819 1.005-2.887 1.198-1.92.349-2.647-1.52-2.078-2.785.203-.45.566-.865.944-1.195 1.926-1.682 3.891-3.317 5.821-4.994 1.377-1.197 2.973-1.998 4.646-2.665 1.112-.443 2.102-1.048 2.94-1.91 2.528-2.602 5.451-4.646 8.732-6.191.456-.215.926-.515 1.238-.899 1.223-1.509 2.771-2.576 4.495-3.393 1.247-.59 2.26-1.432 3.226-2.402 1.871-1.881 3.776-3.733 6.233-4.885 1.03-.482 1.529-1.354 1.5-2.501-.02-.829-.516-1.102-1.22-.677-.125.076-.239.173-.354.266-1.9 1.523-4.224.749-4.804-1.66-.257-1.068-.324-2.185-.456-3.281-.222-1.845.062-3.612.74-5.344.842-2.148 1.626-4.321 2.417-6.489.834-2.288 2.207-4.219 3.943-5.892.685-.66 1.537-1.028 2.49-.528.934.49 1.383 1.278 1.309 2.359-.065.936-.411 1.771-1.133 2.322-3.173 2.425-3.868 6.09-4.873 9.597-.136.477-.318 1.189.348 1.426.659.233.984-.37 1.278-.859.102-.168.201-.343.265-.526 1.281-3.702 3.623-6.855 5.352-10.327.247-.497.684-1.013 1.166-1.257 1.421-.717 3.009.17 3.121 1.793.067.979-.096 2.015-.363 2.966-.702 2.505-1.563 4.966-2.271 7.47-.366 1.296-.541 2.646-.801 3.973-.023.12-.061.248-.041.364.095.565.206 1.127.312 1.69.504-.128 1.024-.211 1.509-.392 2.549-.946 4.854-2.36 7.162-3.769.44-.269.895-.521 1.364-.73 2.672-1.191 5.322-2.409 7.733-4.103.672-.473 1.501-.723 2.262-1.066.739-.334 1.498-.627 2.221-.99 1.596-.802 1.7-1.065 1.006-2.692-.45-1.055-.481-2.082-.066-3.149.348-.893.656-1.801.958-2.71.115-.347.213-.715.225-1.076.006-.205-.13-.487-.293-.6-.109-.075-.44.025-.571.152-.688.664-1.454 1.286-1.989 2.063-.872 1.267-1.651 2.609-2.349 3.981-.588 1.157-.988 2.408-1.499 3.606-.522 1.229-1.572 1.769-2.709 1.431-1.403-.417-2.176-1.477-1.878-2.821.292-1.315.766-2.589 1.125-3.891.268-.969.524-1.945.711-2.932.422-2.232 1.432-4.236 2.464-6.21.352-.671 1.117-1.151 1.756-1.637.537-.41 1.077-.108 1.56.224 1.02.704 1.512.698 2.49-.088.612-.493 1.162-1.074 1.811-1.509.663-.445 1.376-.883 2.132-1.104 1.462-.427 2.801.619 2.713 2.127-.082 1.416-.322 2.824-.539 4.229-.25 1.625-.615 3.234-.811 4.865-.196 1.64 1.913 3.326 3.497 2.896 3.069-.834 6.043-1.898 8.818-3.484.785-.448 1.649-.763 2.496-1.095 2.292-.897 4.145.186 4.244 2.641.122 2.983-1.699 5.691-5.383 4.635-1.123-.322-2.212-.112-3.253.269-2.399.878-4.811 1.74-7.15 2.759-4.753 2.07-9.46 4.244-14.19 6.366-.986.441-1.987.851-2.989 1.258-2.819 1.147-5.385 2.716-7.827 4.528-1.334.989-2.803 1.8-4.217 2.682-1.313.817-2.654 1.59-3.942 2.443-1.336.884-1.907 2.174-1.883 3.779.014.878-.009 1.784-.207 2.633-.779 3.32-.742 6.677-.625 10.049.037 1.047-.011 2.113-.168 3.147-.405 2.675-.111 5.294.519 7.886.295 1.215.745 2.392 1.109 3.591.56 1.841-.264 3.272-2.154 3.612-.71.128-1.47.109-2.189.021-1-.123-1.476-.641-1.561-1.662-.071-.853-.015-1.717-.015-2.575.045-.004.097-.007.149-.011z"/><path d="m15.5 59.783c0-3.785.004-7.569-.003-11.354-.001-.629.123-1.413-.644-1.644-.732-.22-.994.551-1.268 1.012-1.468 2.47-2.88 4.975-4.31 7.468-.281.49-.506 1.022-.846 1.467-.305.397-.689.771-1.116 1.028-.599.36-1.241.275-1.778-.196-.518-.453-.675-1.048-.405-1.673.71-1.645 1.417-3.294 2.206-4.901 2.48-5.049 5.003-10.078 7.493-15.123.281-.57.46-1.19.676-1.791.278-.772.741-1.102 1.566-1.04.414.031.834.094 1.232.209 1.054.305 1.698 1.167 1.483 2.232-.482 2.397-.254 4.795-.22 7.202.074 5.186.052 10.374.107 15.56.021 1.988.142 3.977.226 5.964.008.193.048.395.12.573.276.69.822.795 1.277.211.298-.383.569-.813.74-1.265 1.353-3.586 2.688-7.179 4.009-10.776 1.838-5.004 3.662-10.015 5.49-15.023.118-.323.266-.646.311-.982.313-2.333 1.479-4.25 2.932-6.019.778-.948 1.229-2.039 1.686-3.164.811-2 1.743-3.954 2.671-5.904 2.64-5.545 5.305-11.079 7.958-16.617.78-1.628 2.146-2.551 3.822-2.981 1.908-.49 3.521.799 3.93 3.013.372 2.016-.647 4.34-2.434 5.33-1.278.708-2.327 1.622-3.132 2.837-.855 1.291-1.723 2.573-2.613 3.839-.973 1.386-1.942 2.776-2.979 4.114-.851 1.099-1.561 2.247-2.033 3.564-.235.654-.625 1.29-1.081 1.817-.604.697-.987 1.429-1.081 2.352-.1.989-.375 1.915-1.164 2.628-1.433 1.298-2.309 2.877-2.876 4.769-.958 3.193-2.402 6.243-3.299 9.449-1.43 5.108-3.769 9.867-5.406 14.884-.835 2.56-1.391 5.211-2.053 7.825-.427 1.687-.687 3.428-1.253 5.063-1.102 3.183-1.588 6.486-2.189 9.771-.174.953-.532 1.775-1.3 2.403-1.124.919-2.496.558-2.914-.839-.18-.602-.205-1.258-.249-1.893-.544-7.792-1.434-15.568-1.289-23.399z"/><path d="m50.524 52.228c-.962-.005-1.352.198-1.531 1.13-.357 1.854-.609 3.73-.904 5.597-.038.243-.073.486-.115.729-.326 1.858-1.975 2.736-3.702 1.971-.919-.407-1.319-1.222-1.195-2.197.239-1.875.384-3.764.648-5.635.188-1.332.49-2.649.787-3.963.059-.261.283-.542.51-.7 1.528-1.061 2.444-2.597 3.311-4.175.071-.129.15-.254.228-.379.807-1.298 2.305-1.502 3.135-.219.882 1.364 1.44 2.939 2.11 4.435.091.203.041.491-.005.728-.227 1.19-2.066 2.683-3.277 2.678z"/><path d="m32.783 64.064c.23-.983.379-2.013.712-2.978 1.015-2.946 2.076-5.877 3.174-8.792.318-.844.782-1.641 1.251-2.416.718-1.187 2.085-1.246 2.936-.153.708.909.974 1.961.636 3.055-.242.783-.583 1.584-1.07 2.234-1.428 1.904-2.065 4.046-2.197 6.378-.071 1.251-.124 2.503-.216 3.752-.03.408-.082.851-.264 1.205-.442.857-1.046 1.595-2.144 1.523-1.14-.075-1.936-.723-2.343-1.754-.247-.627-.314-1.325-.475-2.054z"/><path d="m74.657 53.519c-1.429-.008-2.563-1.409-2.281-2.899.313-1.659.546-3.355 1.086-4.943.638-1.871 1.56-3.646 2.376-5.455.182-.401.45-.76.654-1.151.593-1.136 1.896-1.53 3.075-.917 1.025.533 1.304 1.7.744 2.866-.771 1.606-1.634 3.188-2.203 4.866-.459 1.352-.544 2.83-.788 4.253-.079.459-.115.926-.206 1.383-.247 1.235-1.203 2.003-2.457 1.997z"/><path d="m40.494 44.06c-1.431 0-2.518-1.549-2.067-2.976.147-.466.362-.912.566-1.358.292-.635.861-.868 1.499-.895.647-.027 1.211.204 1.54.814.209.389.407.785.587 1.188.649 1.446-.527 3.228-2.125 3.227z"/><path d="m83.419 25.144c.455.162.942.266 1.359.498.865.481 1.108 1.268.732 2.123-.591 1.344-1.794 2.258-2.652 2.015-1.016-.288-1.727-1.439-1.566-2.537.17-1.166 1.046-2.006 2.127-2.099z"/></g></svg>