<svg enable-background="new 14.648 -111.388 300 300" height="300" viewBox="14.648 -111.388 300 300" width="300" xmlns="http://www.w3.org/2000/svg"><path d="m-267.729-699.604h2.938v-12.664c0-9.945 6.171-15.279 13.244-15.279h.303v-3.101c-6.051-.239-11.075 3.34-13.546 8.796v-8.506h-2.938v30.754zm243.057-7.129c-1.51 1.676-4.949 4.746-10.208 4.746-6.965 0-12.431-5.835-12.431-13.154v-.121c0-7.264 5.285-13.039 12.193-13.039 3.228 0 6.809 1.108 10.404 4.657l1.827-2.004c-1.952-2.308-6.114-5.387-12.171-5.387-9.098 0-15.41 7.38-15.41 15.894v.118c0 8.513 6.323 15.771 15.41 15.771 6.363 0 10.792-3.574 12.279-5.748zm-213.777 2.054c-6.209 0-11.525-4.938-11.525-11.701v-.119c0-7.13 5.259-11.563 11.505-11.563 6.191 0 12.071 4.551 12.071 11.62v.122c.001 6.949-5.863 11.641-12.051 11.641m.39 13.934c4.38 0 8.23-1.437 10.798-4.075 2.397-2.46 3.753-5.795 3.753-11.383v-24.154h-2.854v6.251c-1.602-3.433-6.444-6.776-12.399-6.776-7.186 0-14.306 5.693-14.306 14.503v.124c0 8.748 7.12 14.377 14.306 14.377 5.894 0 10.72-3.48 12.399-7.074v2.819c0 8.379-4.417 12.632-11.639 12.632-4.954 0-8.54-1.802-12.044-4.284l-1.677 2.364c1.975 1.702 7.037 4.676 13.663 4.676m161.738-8.859h2.938v-17.985c0-8.893-4.58-13.298-12.059-13.298-7.824 0-10.906 5.914-11.197 6.659v-6.13h-2.935v30.754h2.935v-14.963c0-9.48 4.87-13.625 10.779-13.625 9.441 0 9.539 8.541 9.539 12.313zm-113.412 0h2.94v-17.985c0-8.893-4.581-13.298-12.06-13.298-7.826 0-10.909 5.914-11.198 6.659v-6.13h-2.931v30.754h2.931v-14.963c0-9.48 4.872-13.625 10.785-13.625 9.437 0 9.532 8.541 9.532 12.313v16.275zm72.374-1.974c5.417 0 11.184-3.045 11.184-10.273v-4.091h-8.781c-7.351 0-11.048 1.888-11.048 7.255v-.006c0 4.15 3.655 7.115 8.645 7.115m11.132-16.997v-.421c0-6.264-3.837-8.926-9.949-8.926-3.227 0-6.255.806-9.473 2.375l-1.061-2.393c3.26-1.658 7.094-2.728 10.94-2.728 3.991 0 7.212.984 9.356 3.128 2.346 2.35 3.009 5.391 3.009 8.503v19.433h-2.823v-4.874c-.602 1.235-4.367 5.536-11.395 5.536-5.911 0-11.387-3.491-11.387-9.584v-.113c0-9.915 10.56-9.937 13.686-9.937h9.097zm-58.382 16.997c5.417 0 11.181-3.045 11.181-10.273v-4.091h-8.783c-7.349 0-11.043 1.888-11.043 7.255v-.006c0 4.15 3.656 7.115 8.645 7.115m11.126-16.997v-.421c0-6.264-3.834-8.926-9.947-8.926-3.221 0-6.252.806-9.471 2.375l-1.061-2.393c3.256-1.658 7.092-2.728 10.938-2.728 3.998 0 7.214.984 9.357 3.128 2.349 2.35 3.01 5.391 3.01 8.503v19.433h-2.826v-4.874c-.602 1.235-4.366 5.536-11.387 5.536-5.916 0-11.391-3.491-11.391-9.584v-.113c0-9.915 10.557-9.937 13.68-9.937h9.098zm86.673 18.976v-28.058h6.14v-2.694h-6.14v-7.674h-2.929v7.676 2.697 28.053zm-77.37 0v-28.058h6.135v-2.701h-6.135v-7.667h-2.939v7.676 2.697 28.053zm86.474 0h2.938v-30.75h-2.938zm-77.976 0h2.936v-38.419h-2.936zm-84.009-.005h2.937v-30.747h-2.937zm0-34.891h2.937v-3.523h-2.937zm-54.967 34.891h2.938v-30.747h-2.938zm-19.717 0h2.712l14.004-30.747h-3.256l-12.03 27.188-12.19-27.188h-3.472zm236.669-34.891h2.938v-3.523h-2.938zm-216.952-3.523h2.938v3.523h-2.938z" fill="#441555" transform="translate(330.3408 752.9973)"/></svg>