<?xml version="1.0" encoding="utf-8"?>
<!-- Generator: Adobe Illustrator 16.0.0, SVG Export Plug-In . SVG Version: 6.00 Build 0)  -->
<!DOCTYPE svg PUBLIC "-//W3C//DTD SVG 1.1//EN" "http://www.w3.org/Graphics/SVG/1.1/DTD/svg11.dtd">
<svg version="1.1"
	 id="svg2" xmlns:dc="http://purl.org/dc/elements/1.1/" xmlns:cc="http://creativecommons.org/ns#" xmlns:rdf="http://www.w3.org/1999/02/22-rdf-syntax-ns#" xmlns:svg="http://www.w3.org/2000/svg" xmlns:sodipodi="http://sodipodi.sourceforge.net/DTD/sodipodi-0.dtd" xmlns:inkscape="http://www.inkscape.org/namespaces/inkscape" inkscape:output_extension="org.inkscape.output.svg.inkscape" sodipodi:docname="Virgin-logo.svg" inkscape:version="0.92.2 (5c3e80d, 2017-08-06)" sodipodi:version="0.32"
	 xmlns="http://www.w3.org/2000/svg" xmlns:xlink="http://www.w3.org/1999/xlink" x="0px" y="0px" width="120px" height="120px"
	 viewBox="0 -7.5 120 120" enable-background="new 0 -7.5 120 120" xml:space="preserve">
<g>
	<path fill-rule="evenodd" clip-rule="evenodd" fill="#FB0A15" d="M59.023,98.527c-0.137-1.342-0.23-2.689-0.42-4.023
		c-0.224-1.575-0.275-3.137,0.135-4.683c0.722-2.723,0.69-5.488,0.607-8.274c-0.069-2.278,0.04-4.562,0.081-6.843
		c0.01-0.54,0.08-1.078,0.097-1.619c0.031-0.941-0.612-1.493-1.526-1.229c-0.556,0.161-1.08,0.459-1.588,0.748
		c-3.635,2.065-6.658,4.951-9.979,7.438c-1.417,1.062-2.801,2.134-3.982,3.485c-0.729,0.834-1.696,1.496-2.646,2.092
		c-1.76,1.104-3.374,2.362-4.826,3.853c-0.75,0.77-1.609,1.442-2.472,2.089c-2.083,1.562-4.209,3.065-6.293,4.625
		c-0.871,0.652-1.819,1.005-2.887,1.198c-1.92,0.349-2.647-1.52-2.078-2.785c0.203-0.45,0.566-0.865,0.944-1.195
		c1.926-1.682,3.891-3.317,5.821-4.994c1.377-1.197,2.973-1.998,4.646-2.665c1.112-0.443,2.102-1.048,2.94-1.91
		c2.528-2.602,5.451-4.646,8.732-6.191c0.456-0.215,0.926-0.515,1.238-0.899c1.223-1.509,2.771-2.576,4.495-3.393
		c1.247-0.59,2.26-1.432,3.226-2.402c1.871-1.881,3.776-3.733,6.233-4.885c1.03-0.482,1.529-1.354,1.5-2.501
		c-0.02-0.829-0.516-1.102-1.22-0.677c-0.125,0.076-0.239,0.173-0.354,0.266c-1.9,1.523-4.224,0.749-4.804-1.66
		c-0.257-1.068-0.324-2.185-0.456-3.281c-0.222-1.845,0.062-3.612,0.74-5.344c0.842-2.148,1.626-4.321,2.417-6.489
		c0.834-2.288,2.207-4.219,3.943-5.892c0.685-0.66,1.537-1.028,2.49-0.528c0.934,0.49,1.383,1.278,1.309,2.359
		c-0.065,0.936-0.411,1.771-1.133,2.322c-3.173,2.425-3.868,6.09-4.873,9.597c-0.136,0.477-0.318,1.189,0.348,1.426
		c0.659,0.233,0.984-0.37,1.278-0.859c0.102-0.168,0.201-0.343,0.265-0.526c1.281-3.702,3.623-6.855,5.352-10.327
		c0.247-0.497,0.684-1.013,1.166-1.257c1.421-0.717,3.009,0.17,3.121,1.793c0.067,0.979-0.096,2.015-0.363,2.966
		c-0.702,2.505-1.563,4.966-2.271,7.47c-0.366,1.296-0.541,2.646-0.801,3.973c-0.023,0.12-0.061,0.248-0.041,0.364
		c0.095,0.565,0.206,1.127,0.312,1.69c0.504-0.128,1.024-0.211,1.509-0.392c2.549-0.946,4.854-2.36,7.162-3.769
		c0.44-0.269,0.895-0.521,1.364-0.73c2.672-1.191,5.322-2.409,7.733-4.103c0.672-0.473,1.501-0.723,2.262-1.066
		c0.739-0.334,1.498-0.627,2.221-0.99c1.596-0.802,1.7-1.065,1.006-2.692c-0.45-1.055-0.481-2.082-0.066-3.149
		c0.348-0.893,0.656-1.801,0.958-2.71c0.115-0.347,0.213-0.715,0.225-1.076c0.006-0.205-0.13-0.487-0.293-0.6
		c-0.109-0.075-0.44,0.025-0.571,0.152c-0.688,0.664-1.454,1.286-1.989,2.063c-0.872,1.267-1.651,2.609-2.349,3.981
		c-0.588,1.157-0.988,2.408-1.499,3.606c-0.522,1.229-1.572,1.769-2.709,1.431c-1.403-0.417-2.176-1.477-1.878-2.821
		c0.292-1.315,0.766-2.589,1.125-3.891c0.268-0.969,0.524-1.945,0.711-2.932c0.422-2.232,1.432-4.236,2.464-6.21
		c0.352-0.671,1.117-1.151,1.756-1.637c0.537-0.41,1.077-0.108,1.56,0.224c1.02,0.704,1.512,0.698,2.49-0.088
		c0.612-0.493,1.162-1.074,1.811-1.509c0.663-0.445,1.376-0.883,2.132-1.104c1.462-0.427,2.801,0.619,2.713,2.127
		c-0.082,1.416-0.322,2.824-0.539,4.229c-0.25,1.625-0.615,3.234-0.811,4.865c-0.196,1.64,1.913,3.326,3.497,2.896
		c3.069-0.834,6.043-1.898,8.818-3.484c0.785-0.448,1.649-0.763,2.496-1.095c2.292-0.897,4.145,0.186,4.244,2.641
		c0.122,2.983-1.699,5.691-5.383,4.635c-1.123-0.322-2.212-0.112-3.253,0.269c-2.399,0.878-4.811,1.74-7.15,2.759
		c-4.753,2.07-9.46,4.244-14.19,6.366c-0.986,0.441-1.987,0.851-2.989,1.258c-2.819,1.147-5.385,2.716-7.827,4.528
		c-1.334,0.989-2.803,1.8-4.217,2.682c-1.313,0.817-2.654,1.59-3.942,2.443c-1.336,0.884-1.907,2.174-1.883,3.779
		c0.014,0.878-0.009,1.784-0.207,2.633c-0.779,3.32-0.742,6.677-0.625,10.049c0.037,1.047-0.011,2.113-0.168,3.147
		c-0.405,2.675-0.111,5.294,0.519,7.886c0.295,1.215,0.745,2.392,1.109,3.591c0.56,1.841-0.264,3.272-2.154,3.612
		c-0.71,0.128-1.47,0.109-2.189,0.021c-1-0.123-1.476-0.641-1.561-1.662c-0.071-0.853-0.015-1.717-0.015-2.575
		C58.919,98.534,58.971,98.531,59.023,98.527z"/>
	<path fill-rule="evenodd" clip-rule="evenodd" fill="#FB0A15" d="M15.5,59.783c0-3.785,0.004-7.569-0.003-11.354
		c-0.001-0.629,0.123-1.413-0.644-1.644c-0.732-0.22-0.994,0.551-1.268,1.012c-1.468,2.47-2.88,4.975-4.31,7.468
		c-0.281,0.49-0.506,1.022-0.846,1.467c-0.305,0.397-0.689,0.771-1.116,1.028c-0.599,0.36-1.241,0.275-1.778-0.196
		c-0.518-0.453-0.675-1.048-0.405-1.673c0.71-1.645,1.417-3.294,2.206-4.901c2.48-5.049,5.003-10.078,7.493-15.123
		c0.281-0.57,0.46-1.19,0.676-1.791c0.278-0.772,0.741-1.102,1.566-1.04c0.414,0.031,0.834,0.094,1.232,0.209
		c1.054,0.305,1.698,1.167,1.483,2.232c-0.482,2.397-0.254,4.795-0.22,7.202c0.074,5.186,0.052,10.374,0.107,15.56
		c0.021,1.988,0.142,3.977,0.226,5.964c0.008,0.193,0.048,0.395,0.12,0.573c0.276,0.69,0.822,0.795,1.277,0.211
		c0.298-0.383,0.569-0.813,0.74-1.265c1.353-3.586,2.688-7.179,4.009-10.776c1.838-5.004,3.662-10.015,5.49-15.023
		c0.118-0.323,0.266-0.646,0.311-0.982c0.313-2.333,1.479-4.25,2.932-6.019c0.778-0.948,1.229-2.039,1.686-3.164
		c0.811-2,1.743-3.954,2.671-5.904c2.64-5.545,5.305-11.079,7.958-16.617c0.78-1.628,2.146-2.551,3.822-2.981
		c1.908-0.49,3.521,0.799,3.93,3.013c0.372,2.016-0.647,4.34-2.434,5.33c-1.278,0.708-2.327,1.622-3.132,2.837
		c-0.855,1.291-1.723,2.573-2.613,3.839c-0.973,1.386-1.942,2.776-2.979,4.114c-0.851,1.099-1.561,2.247-2.033,3.564
		c-0.235,0.654-0.625,1.29-1.081,1.817c-0.604,0.697-0.987,1.429-1.081,2.352c-0.1,0.989-0.375,1.915-1.164,2.628
		c-1.433,1.298-2.309,2.877-2.876,4.769c-0.958,3.193-2.402,6.243-3.299,9.449c-1.43,5.108-3.769,9.867-5.406,14.884
		c-0.835,2.56-1.391,5.211-2.053,7.825c-0.427,1.687-0.687,3.428-1.253,5.063c-1.102,3.183-1.588,6.486-2.189,9.771
		c-0.174,0.953-0.532,1.775-1.3,2.403c-1.124,0.919-2.496,0.558-2.914-0.839c-0.18-0.602-0.205-1.258-0.249-1.893
		C16.245,75.39,15.355,67.614,15.5,59.783z"/>
	<path fill-rule="evenodd" clip-rule="evenodd" fill="#FB0A15" d="M50.524,52.228c-0.962-0.005-1.352,0.198-1.531,1.13
		c-0.357,1.854-0.609,3.73-0.904,5.597c-0.038,0.243-0.073,0.486-0.115,0.729c-0.326,1.858-1.975,2.736-3.702,1.971
		c-0.919-0.407-1.319-1.222-1.195-2.197c0.239-1.875,0.384-3.764,0.648-5.635c0.188-1.332,0.49-2.649,0.787-3.963
		c0.059-0.261,0.283-0.542,0.51-0.7c1.528-1.061,2.444-2.597,3.311-4.175c0.071-0.129,0.15-0.254,0.228-0.379
		c0.807-1.298,2.305-1.502,3.135-0.219c0.882,1.364,1.44,2.939,2.11,4.435c0.091,0.203,0.041,0.491-0.005,0.728
		C53.574,50.74,51.735,52.233,50.524,52.228z"/>
	<path fill-rule="evenodd" clip-rule="evenodd" fill="#FB0A15" d="M32.783,64.064c0.23-0.983,0.379-2.013,0.712-2.978
		c1.015-2.946,2.076-5.877,3.174-8.792c0.318-0.844,0.782-1.641,1.251-2.416c0.718-1.187,2.085-1.246,2.936-0.153
		c0.708,0.909,0.974,1.961,0.636,3.055c-0.242,0.783-0.583,1.584-1.07,2.234c-1.428,1.904-2.065,4.046-2.197,6.378
		c-0.071,1.251-0.124,2.503-0.216,3.752c-0.03,0.408-0.082,0.851-0.264,1.205c-0.442,0.857-1.046,1.595-2.144,1.523
		c-1.14-0.075-1.936-0.723-2.343-1.754C33.011,65.491,32.944,64.793,32.783,64.064z"/>
	<path fill-rule="evenodd" clip-rule="evenodd" fill="#FB0A15" d="M74.657,53.519c-1.429-0.008-2.563-1.409-2.281-2.899
		c0.313-1.659,0.546-3.355,1.086-4.943c0.638-1.871,1.56-3.646,2.376-5.455c0.182-0.401,0.45-0.76,0.654-1.151
		c0.593-1.136,1.896-1.53,3.075-0.917c1.025,0.533,1.304,1.7,0.744,2.866c-0.771,1.606-1.634,3.188-2.203,4.866
		c-0.459,1.352-0.544,2.83-0.788,4.253c-0.079,0.459-0.115,0.926-0.206,1.383C76.867,52.757,75.911,53.525,74.657,53.519z"/>
	<path fill-rule="evenodd" clip-rule="evenodd" fill="#FB0A15" d="M40.494,44.06c-1.431,0-2.518-1.549-2.067-2.976
		c0.147-0.466,0.362-0.912,0.566-1.358c0.292-0.635,0.861-0.868,1.499-0.895c0.647-0.027,1.211,0.204,1.54,0.814
		c0.209,0.389,0.407,0.785,0.587,1.188C43.268,42.279,42.092,44.061,40.494,44.06z"/>
	<path fill-rule="evenodd" clip-rule="evenodd" fill="#FB0A15" d="M83.419,25.144c0.455,0.162,0.942,0.266,1.359,0.498
		c0.865,0.481,1.108,1.268,0.732,2.123c-0.591,1.344-1.794,2.258-2.652,2.015c-1.016-0.288-1.727-1.439-1.566-2.537
		C81.462,26.077,82.338,25.237,83.419,25.144z"/>
</g>
</svg>
