<?xml version="1.0" encoding="utf-8"?>
<!-- Generator: Adobe Illustrator 16.0.0, SVG Export Plug-In . SVG Version: 6.00 Build 0)  -->
<!DOCTYPE svg PUBLIC "-//W3C//DTD SVG 1.1//EN" "http://www.w3.org/Graphics/SVG/1.1/DTD/svg11.dtd">
<svg version="1.1"
	 id="svg5219" xmlns:dc="http://purl.org/dc/elements/1.1/" xmlns:cc="http://creativecommons.org/ns#" xmlns:rdf="http://www.w3.org/1999/02/22-rdf-syntax-ns#" xmlns:svg="http://www.w3.org/2000/svg"
	 xmlns="http://www.w3.org/2000/svg" xmlns:xlink="http://www.w3.org/1999/xlink" x="0px" y="0px" width="300px" height="300px"
	 viewBox="14.648 -111.388 300 300" enable-background="new 14.648 -111.388 300 300" xml:space="preserve">
<g id="g5265">
	<g id="g5271" transform="translate(330.3408,752.9973)">
		<path id="path5273" fill="#441555" d="M-267.729-699.604h2.938v-12.664c0-9.945,6.171-15.279,13.244-15.279h0.303v-3.101
			c-6.051-0.239-11.075,3.34-13.546,8.796v-8.506h-2.938V-699.604z M-24.672-706.733c-1.51,1.676-4.949,4.746-10.208,4.746
			c-6.965,0-12.431-5.835-12.431-13.154v-0.121c0-7.264,5.285-13.039,12.193-13.039c3.228,0,6.809,1.108,10.404,4.657l1.827-2.004
			c-1.952-2.308-6.114-5.387-12.171-5.387c-9.098,0-15.41,7.38-15.41,15.894v0.118c0,8.513,6.323,15.771,15.41,15.771
			c6.363,0,10.792-3.574,12.279-5.748L-24.672-706.733L-24.672-706.733z M-238.449-704.679c-6.209,0-11.525-4.938-11.525-11.701
			v-0.119c0-7.13,5.259-11.563,11.505-11.563c6.191,0,12.071,4.551,12.071,11.62v0.122
			C-226.397-709.371-232.261-704.679-238.449-704.679 M-238.059-690.745c4.38,0,8.23-1.437,10.798-4.075
			c2.397-2.46,3.753-5.795,3.753-11.383v-24.154h-2.854v6.251c-1.602-3.433-6.444-6.776-12.399-6.776
			c-7.186,0-14.306,5.693-14.306,14.503v0.124c0,8.748,7.12,14.377,14.306,14.377c5.894,0,10.72-3.48,12.399-7.074v2.819
			c0,8.379-4.417,12.632-11.639,12.632c-4.954,0-8.54-1.802-12.044-4.284l-1.677,2.364
			C-249.747-693.719-244.685-690.745-238.059-690.745 M-76.321-699.604h2.938v-17.985c0-8.893-4.58-13.298-12.059-13.298
			c-7.824,0-10.906,5.914-11.197,6.659v-6.13h-2.935v30.754h2.935v-14.963c0-9.48,4.87-13.625,10.779-13.625
			c9.441,0,9.539,8.541,9.539,12.313V-699.604z M-189.733-699.604h2.94v-17.985c0-8.893-4.581-13.298-12.06-13.298
			c-7.826,0-10.909,5.914-11.198,6.659v-6.13h-2.931v30.754h2.931v-14.963c0-9.48,4.872-13.625,10.785-13.625
			c9.437,0,9.532,8.541,9.532,12.313V-699.604z M-117.359-701.578c5.417,0,11.184-3.045,11.184-10.273v-4.091h-8.781
			c-7.351,0-11.048,1.888-11.048,7.255v-0.006C-126.004-704.543-122.349-701.578-117.359-701.578 M-106.227-718.575v-0.421
			c0-6.264-3.837-8.926-9.949-8.926c-3.227,0-6.255,0.806-9.473,2.375l-1.061-2.393c3.26-1.658,7.094-2.728,10.94-2.728
			c3.991,0,7.212,0.984,9.356,3.128c2.346,2.35,3.009,5.391,3.009,8.503v19.433h-2.823v-4.874
			c-0.602,1.235-4.367,5.536-11.395,5.536c-5.911,0-11.387-3.491-11.387-9.584v-0.113c0-9.915,10.56-9.937,13.686-9.937H-106.227
			L-106.227-718.575z M-164.609-701.578c5.417,0,11.181-3.045,11.181-10.273v-4.091h-8.783c-7.349,0-11.043,1.888-11.043,7.255
			v-0.006C-173.254-704.543-169.598-701.578-164.609-701.578 M-153.483-718.575v-0.421c0-6.264-3.834-8.926-9.947-8.926
			c-3.221,0-6.252,0.806-9.471,2.375l-1.061-2.393c3.256-1.658,7.092-2.728,10.938-2.728c3.998,0,7.214,0.984,9.357,3.128
			c2.349,2.35,3.01,5.391,3.01,8.503v19.433h-2.826v-4.874c-0.602,1.235-4.366,5.536-11.387,5.536
			c-5.916,0-11.391-3.491-11.391-9.584v-0.113c0-9.915,10.557-9.937,13.68-9.937H-153.483z M-66.81-699.599v-28.058h6.14v-2.694
			h-6.14v-7.674h-2.929v7.676v2.697v28.053H-66.81z M-144.18-699.599v-28.058h6.135v-2.701h-6.135v-7.667h-2.939v7.676v2.697v28.053
			H-144.18z M-57.706-699.599h2.938v-30.75h-2.938V-699.599z M-135.682-699.599h2.936v-38.419h-2.936V-699.599z M-219.691-699.604
			h2.937v-30.747h-2.937V-699.604z M-219.691-734.495h2.937v-3.523h-2.937V-734.495z M-274.658-699.604h2.938v-30.747h-2.938
			V-699.604z M-294.375-699.604h2.712l14.004-30.747h-3.256l-12.03,27.188l-12.19-27.188h-3.472L-294.375-699.604z M-57.706-734.495
			h2.938v-3.523h-2.938V-734.495z M-274.658-738.018h2.938v3.523h-2.938V-738.018z"/>
	</g>
</g>
</svg>
