<?xml version="1.0" encoding="utf-8"?>
<!-- Generator: Adobe Illustrator 16.0.0, SVG Export Plug-In . SVG Version: 6.00 Build 0)  -->
<!DOCTYPE svg PUBLIC "-//W3C//DTD SVG 1.1//EN" "http://www.w3.org/Graphics/SVG/1.1/DTD/svg11.dtd">
<svg version="1.1" id="Layer_1" xmlns="http://www.w3.org/2000/svg" xmlns:xlink="http://www.w3.org/1999/xlink" x="0px" y="0px"
	 width="300px" height="300px" viewBox="50.001 50.001 300 300" enable-background="new 50.001 50.001 300 300"
	 xml:space="preserve">
<g>
	<path fill="#E31836" d="M86.928,215.141c14.381,2.656,24.908-11.275,31.651-23.331c2.699-4.83,6.797-17.477,2.208-22.255
		c-4.204-4.623-7.452,1.443-9.944,3.469l1.923,2.278c3.842,4.85,0.501,14.066-1.777,18.99c-3.417,6.062-9.869,15.236-17.407,13.959
		c-1.637-0.385-2.992-1.97-3.564-3.639c4.061-4.019,8.869-11.078,11.572-15.773c2.261-3.82,6.187-11.202,2.567-14.243
		c-3.004-2.082-9.021,0.916-12.246,3.639c-1.963,1.766-3.286,3.213-4.809,5.271c-4.149,5.625-8.101,15.269-7.688,22.693
		c-1.99,1.443-4.268,2.883-6.971,2.053c-2.68-0.601-3.162-2.881-3.542-4.67c-1.708-10.757,9.075-24.34,15.124-32.144
		c0,0-4.771,1.293-8.254,1.439c-8.006,0.343-13.953-3.383-18.283,1.969c-1.303,1.904-2.056,3.906-2.299,6.285
		c1.774-1.517,4.403-1.153,6.915-1.009c4.346,0.38,6.485,0.904,10.403-0.148c-3.491,4.921-9.304,14.627-10.374,20.684
		c-0.566,4.018-0.517,10.353,2.918,13.197c5.693,3.788,11.347,1.141,16.397-2.35c1.499,1.738,3.35,3.256,5.481,3.637L86.928,215.141
		z M96.586,181.531c1.515-0.742,1.061,1.508,1.061,1.508c-0.216,2.552-2.067,5.591-3.386,7.924
		c-1.354,2.384-6.098,8.008-8.165,9.216c0.089-3.403,3.732-10.832,5.594-13.666C92.643,184.847,95.075,182.273,96.586,181.531
		L96.586,181.531z"/>
	<path fill="#E31836" d="M325.625,188.181c-0.791,1.044-3.491,3.979-4.367,4.896l-0.451,0.43
		c-7.282,7.306-12.848,11.545-16.07,12.229c-2.197,0.482-3.205,0.609-4.233-1.371l-0.043-0.109l-0.105-0.927
		c0-2.635,3.423-8.542,8.001-12.489c1.748-1.526,1.954-2.203,1.979-2.371c-0.652-1.024-1.048-1.506-1.937-1.876
		c-1.272-0.066-3.225,1.286-4.512,2.187c-0.911,0.624-3.495,2.999-6.235,5.502c-2.283,2.096-4.642,4.261-5.959,5.345
		c0,0-1.835,1.501-2.231,1.831c0.017-0.387,0.064-1.162,0.064-1.162c0.048-1.358,1.478-3.623,3.519-6.672
		c0.74-1.124,2.564-4.31,2.783-4.875l0.029-0.056l-0.033-0.055c-0.592-0.971-1.727-1.728-2.634-1.77
		c-0.093,0.035-0.812,0.624-0.812,0.624c-1.537,1.257-4.822,4.214-7.993,7.084c-2.913,2.634-5.661,5.113-6.345,5.609
		c-5.348,3.97-9.98,6.558-14.551,8.167c-0.818,0.238-3.613,0.909-4.996-0.646c0,0-0.314-0.351-0.479-0.552l0.66-0.286
		c3.996-1.7,9.029-4.039,12.682-7.169c0.055-0.048,5.603-4.807,5.603-9.499c0-0.208-0.014-0.406-0.03-0.61
		c-0.344-1.684-1.787-2.2-3.84-2.465c-6.717,0.043-12.751,4.178-15.885,7.701l-0.551,0.604c-1.455,1.582-5.876,6.389-7.672,10.654
		l-0.104,0.225l-0.164,0.056c-3.027,1.28-6.317,2.511-9.974,2.896c-1.974,0.245-4.771,0.413-6.337-1.019
		c0,0-0.383-0.337-0.553-0.496c0.305-0.166,7.635-4.084,7.635-4.084c6.042-3.667,10.09-9.251,10.09-12.159
		c-0.124-3.375-3.282-4.138-5.914-4.174c-3.908,0.023-7.515,1.464-12.068,4.817c-2.64,1.945-8.162,8.256-9.641,14.735l-0.067,0.308
		c-0.118,0.036-0.573,0.142-0.573,0.142c-2.894,0.72-7.754,1.896-8.65-0.927c-1.439-4.585,3.155-9.004,6.839-12.547
		c0-0.004,2.075-2.036,2.075-2.036c0.289-0.326,0.642-1.082,0.543-1.679c-0.038-0.284-0.179-0.496-0.435-0.647
		c-1.972-0.868-3.862-0.198-5.866,0.517c-1.502,0.53-3.059,1.074-4.707,0.958c0,0-0.32-0.039-0.516-0.052l0.048-0.528
		c0.083-0.968,0.647-1.548,1.151-2.057l0.165-0.171c0.087-0.105,0.136-0.307,0.136-0.538c0-0.203-0.033-0.432-0.127-0.631
		c-0.13-0.307-0.328-0.492-0.571-0.511c-1.151-0.144-3.146,0.996-4.955,2.822c-1.739,1.771-2.831,3.681-2.831,4.993l0.018,0.271
		l0.006,0.105c-0.213,2.974-2.805,5.825-6.401,9.778l-1.562,1.724c0.009,0-0.6,0.619-0.6,0.619c-2.156,2.2-3.52,3.849-3.941,4.761
		l-0.126,0.264l0.295-0.078c1.527-0.459,5.921-2.584,13.789-12.485c0,0,0.117-0.141,0.167-0.228l0.29,0.042
		c0.369,0.046,0.82-0.145,1.297-0.33c0.801-0.319,1.717-0.675,2.583-0.104c0,0,0.332,0.212,0.474,0.316
		c-0.151,0.185-1.545,1.964-1.545,1.964c-2.193,2.751-4.449,5.575-4.449,8.964c0,0.648,0.082,1.318,0.272,2.014
		c0.419,1.984,2.45,2.924,4.065,3.134c3.269,0.565,7.367-1.245,10.985-2.83l1.832-0.803c1.022-0.276,1.313,0.349,1.53,0.794
		c0.255,0.544,0.614,1.307,2.189,1.993c5.281,2.391,13.033,1.21,23.045-3.511l0.488-0.23l0.203,0.525
		c0.723,1.939,2.079,3.138,4.293,3.779c8.623,1.148,15.734-3.787,22.607-8.555c0.009-0.004,3.137-2.387,3.652-2.778
		c0.126,0.126,0.686,0.735,0.764,0.833c-0.111,0.167-3.021,4.257-3.021,4.257c-1.016,1.488-1.965,2.886-2.561,4.454l-0.172,0.658
		l0.075,0.346c0.151,0.268,0.517,0.451,1.058,0.53c5.234-0.725,10.277-4.997,13.604-7.813l0.998-0.844
		c1.43-1.248,2.799-2.416,3.342-2.535l0.314-0.088l0.241,0.275l0.018,0.078c0,0.259-0.384,0.863-0.663,1.287l-0.524,0.846
		c-0.447,0.936-1.336,2.77-1.336,4.394c0,0.591,0.12,1.165,0.446,1.654c1.566,2.425,2.934,2.501,4.408,2.584l0.526,0.028
		c6.176-0.396,12.238-5.756,18.11-10.944l4.369-3.782c0,0,3.532-3.09,4.25-3.729c0.098,0.22,0.246,0.639,0.246,0.639
		c0.44,1.129,0.535,2.159,0.535,2.821l-0.11,1.228c-0.065,0.542-1.04,4.348-2.377,5.43l-0.278,0.154l-0.851,0.211
		c-3.229,0.828-6.889,1.757-8.25,4.98c-0.006,0.012-0.122,0.732-0.122,0.732c0,0.434,0.164,1.057,0.895,1.543
		c2.279,0.588,4.642,0.023,6.725-0.477l2.677-0.573c2.186,0.013,4.31,0.272,6.362,0.518c2.86,0.341,5.551,0.67,8.409,0.376
		c3.701-0.965,6.647-5.162,7.56-8.635l0.082-0.285l-0.274,0.139c-4.591,2.27-9.89,2.366-14.187,0.264l-0.436-0.223l0.191-0.471
		c0.033-0.068,2.65-6.463,2.65-14.749c0-0.377-0.004-0.761-0.014-1.144h0.014c-0.054-0.201-0.077-0.389-0.077-0.573
		c0-0.763,0.387-1.39,0.74-1.958c0.354-0.566,0.659-1.061,0.659-1.648l-0.01-0.266l-0.018-0.051l0.021-0.164l0.007-0.035
		c0-0.205-0.321-0.309-0.477-0.352c-3.592-0.906-5.633,1.761-7.979,4.852L325.625,188.181z M231.027,202.48
		c0.23-1.959,3.161-5.754,4.727-7.339c1.422-1.435,3.274-2.597,5.061-3.188c0.946-0.225,1.703-0.043,2.101,0.506
		c0.154,0.231,0.239,0.499,0.239,0.784c0,0.353-0.127,0.728-0.357,1.098c-1.957,3.072-7.004,7.401-11.121,8.702
		c0,0-0.477,0.152-0.752,0.249L231.027,202.48L231.027,202.48z M258.7,201.738c0.415-2.929,4.685-7.285,4.726-7.329
		c1.424-1.431,3.276-2.59,5.07-3.191c0.735-0.317,1.447-0.25,1.883,0.171c0.166,0.175,0.395,0.496,0.395,1.032
		c0,0.301-0.073,0.661-0.258,1.115c-0.454,1.136-3.896,4.472-4.873,5.322c-1.09,1.036-4.072,3.104-6.357,3.478l-0.693,0.106
		L258.7,201.738z"/>
	<path fill="#E31836" d="M174.771,174.505h-0.007c-4.646,0.427-9.02,3.016-14.182,8.384c-2.108,1.996-11.858,14.124-13.464,23.347
		l-0.043,0.252l-0.221,0.115c-1.414,0.76-5.667,2.588-8.361,1.907c-0.807-0.202-1.411-0.619-1.774-1.236
		c-0.416-0.805-0.615-1.623-0.615-2.487c0-2.013,1.112-3.809,2.073-5.417c0.01-0.004,0.517-0.851,0.552-0.909
		c0.017,0.017,0.184-0.035,0.184-0.035c2.494-0.713,6.401-5.473,7.395-8.377l0.029-0.083l-0.075-0.051
		c-2.91-1.781-6.815-1.741-9.569-1.398c-4.543,0.528-9.713,2.529-13.839,5.343c-4.964,3.392-9.253,10.293-10.15,14.613
		c-0.484,2.469-0.804,4.974,0.904,6.135c3.551,2.064,10.528-1.683,15.293-6.242c0,0,0.624-0.594,0.994-0.95
		c-0.037,0.505-0.154,1.862-0.154,1.862c-0.06,0.59-0.115,1.265-0.115,1.934c0,1.26,0.211,2.527,1.042,3.311
		c3.928,3.116,12.016-0.298,16.48-3.35l0.396-0.27l0.304,0.381c1.42,1.755,3.095,3.643,5.002,3.964
		c4.985,0.697,8.886-2.176,12.356-5.383c0,0,0.452-0.415,0.679-0.632c0.07,0.367,0.337,1.605,0.337,1.605
		c0.254,1.283,0.486,2.497,1.481,3.297c2.518,1.948,8.158-0.701,11.333-2.956c0,0,0.733-0.514,1.154-0.821
		c-0.106,0.445-0.35,1.369-0.35,1.369c-0.542,2.098-1.546,4.107-2.519,6.049l-0.871,1.777l-0.145,0.234l-0.258,0.42
		c-1.353,2.164-3.859,6.221-6.302,6.576l-0.169,0.025c-0.629-0.23-1.029-0.583-1.241-1.05l-0.18-0.909
		c0-1.094,0.575-2.339,1.079-3.439l0.106-0.218l-0.236,0.017c-1.135,0.174-2.148,0.654-3.262,1.221
		c-2.258,1.338-4.583,4.36-4.583,7.076c0,0.564,0.092,1.096,0.287,1.59c0.467,1.035,1.695,1.069,2.209,1.042
		c15.476-1.447,24.157-19,30.5-31.823l1.245-2.53c0.383-0.505,0.445-0.812,0.445-0.988l-0.011-0.152
		c-0.025-0.017-0.236-0.288-0.236-0.288c0.016,0.019-0.157-0.921-0.157-0.921c0.259-1.239,3.258-3.846,3.289-3.876
		c0,0.007,0.382-0.283,0.382-0.283c0.307-0.199,0.498-0.404,0.505-0.571c0-0.178-0.201-0.415-0.505-0.608
		c-0.609-0.391-1.268-0.671-3.784-1.372c-4.649-1.302-12.647-0.321-19.901,6.7c-0.76,0.73-2.162,2.498-3.306,3.917l-1.467,1.829
		c-3.535,4.125-7.178,8.402-13.202,7.207c-0.791-0.326-1.625-0.988-1.945-1.802c-0.174-0.468-0.161-0.935,0.036-1.358l0.075-0.15
		c3.339-2.344,6.771-5.384,10.296-9.074c5.918-6.326,13.168-16.968,12.216-19.612C177.523,174.539,175.41,174.474,174.771,174.505
		L174.771,174.505z M125.845,195.292c3.28-1.606,7.38-1.49,10.438,0.296l0.527,0.31c-0.143,0.203-2.251,3.139-2.251,3.139
		c-3.472,4.219-10.168,8.396-13.029,8.136v-0.007c-1.334-0.115-2.268-0.77-2.5-1.765l-0.046-0.839c0-2.854,3.795-7.264,5.784-8.613
		L125.845,195.292L125.845,195.292z M164.669,185.08c1.592-1.952,4.203-3.675,4.983-4.041c0.602-0.284,0.921,0.055,1.007,0.16
		c0.131,0.162,0.176,0.382,0.176,0.602c0,0.259-0.078,0.515-0.169,0.626l0.029,0.005c-1.392,4.855-10.191,15.158-15.254,18.768
		c0,0-0.606,0.427-0.969,0.687l0.155-1.164C155.059,197.268,161.606,188.844,164.669,185.08L164.669,185.08z M174.566,207.123
		l-0.085-0.054c-1.367-0.987-1.797-2.382-1.231-4.021c0.511-1.905,5.802-7.752,9.987-8.567c3.799-0.737,5.316,0.55,6.049,1.162
		l0.59,0.488l-2.057,2.205C185.027,202.274,178.041,208.74,174.566,207.123L174.566,207.123z"/>
</g>
</svg>
