<svg enable-background="new 50.001 50.001 300 300" height="300" viewBox="50.001 50.001 300 300" width="300" xmlns="http://www.w3.org/2000/svg"><g fill="#e31836"><path d="m86.928 215.141c14.381 2.656 24.908-11.275 31.651-23.331 2.699-4.83 6.797-17.477 2.208-22.255-4.204-4.623-7.452 1.443-9.944 3.469l1.923 2.278c3.842 4.85.501 14.066-1.777 18.99-3.417 6.062-9.869 15.236-17.407 13.959-1.637-.385-2.992-1.97-3.564-3.639 4.061-4.019 8.869-11.078 11.572-15.773 2.261-3.82 6.187-11.202 2.567-14.243-3.004-2.082-9.021.916-12.246 3.639-1.963 1.766-3.286 3.213-4.809 5.271-4.149 5.625-8.101 15.269-7.688 22.693-1.99 1.443-4.268 2.883-6.971 2.053-2.68-.601-3.162-2.881-3.542-4.67-1.708-10.757 9.075-24.34 15.124-32.144 0 0-4.771 1.293-8.254 1.439-8.006.343-13.953-3.383-18.283 1.969-1.303 1.904-2.056 3.906-2.299 6.285 1.774-1.517 4.403-1.153 6.915-1.009 4.346.38 6.485.904 10.403-.148-3.491 4.921-9.304 14.627-10.374 20.684-.566 4.018-.517 10.353 2.918 13.197 5.693 3.788 11.347 1.141 16.397-2.35 1.499 1.738 3.35 3.256 5.481 3.637zm9.658-33.61c1.515-.742 1.061 1.508 1.061 1.508-.216 2.552-2.067 5.591-3.386 7.924-1.354 2.384-6.098 8.008-8.165 9.216.089-3.403 3.732-10.832 5.594-13.666.953-1.666 3.385-4.24 4.896-4.982z"/><path d="m325.625 188.181c-.791 1.044-3.491 3.979-4.367 4.896l-.451.43c-7.282 7.306-12.848 11.545-16.07 12.229-2.197.482-3.205.609-4.233-1.371l-.043-.109-.105-.927c0-2.635 3.423-8.542 8.001-12.489 1.748-1.526 1.954-2.203 1.979-2.371-.652-1.024-1.048-1.506-1.937-1.876-1.272-.066-3.225 1.286-4.512 2.187-.911.624-3.495 2.999-6.235 5.502-2.283 2.096-4.642 4.261-5.959 5.345 0 0-1.835 1.501-2.231 1.831.017-.387.064-1.162.064-1.162.048-1.358 1.478-3.623 3.519-6.672.74-1.124 2.564-4.31 2.783-4.875l.029-.056-.033-.055c-.592-.971-1.727-1.728-2.634-1.77-.093.035-.812.624-.812.624-1.537 1.257-4.822 4.214-7.993 7.084-2.913 2.634-5.661 5.113-6.345 5.609-5.348 3.97-9.98 6.558-14.551 8.167-.818.238-3.613.909-4.996-.646 0 0-.314-.351-.479-.552l.66-.286c3.996-1.7 9.029-4.039 12.682-7.169.055-.048 5.603-4.807 5.603-9.499 0-.208-.014-.406-.03-.61-.344-1.684-1.787-2.2-3.84-2.465-6.717.043-12.751 4.178-15.885 7.701l-.551.604c-1.455 1.582-5.876 6.389-7.672 10.654l-.104.225-.164.056c-3.027 1.28-6.317 2.511-9.974 2.896-1.974.245-4.771.413-6.337-1.019 0 0-.383-.337-.553-.496.305-.166 7.635-4.084 7.635-4.084 6.042-3.667 10.09-9.251 10.09-12.159-.124-3.375-3.282-4.138-5.914-4.174-3.908.023-7.515 1.464-12.068 4.817-2.64 1.945-8.162 8.256-9.641 14.735l-.067.308c-.118.036-.573.142-.573.142-2.894.72-7.754 1.896-8.65-.927-1.439-4.585 3.155-9.004 6.839-12.547 0-.004 2.075-2.036 2.075-2.036.289-.326.642-1.082.543-1.679-.038-.284-.179-.496-.435-.647-1.972-.868-3.862-.198-5.866.517-1.502.53-3.059 1.074-4.707.958 0 0-.32-.039-.516-.052l.048-.528c.083-.968.647-1.548 1.151-2.057l.165-.171c.087-.105.136-.307.136-.538 0-.203-.033-.432-.127-.631-.13-.307-.328-.492-.571-.511-1.151-.144-3.146.996-4.955 2.822-1.739 1.771-2.831 3.681-2.831 4.993l.018.271.006.105c-.213 2.974-2.805 5.825-6.401 9.778l-1.562 1.724c.009 0-.6.619-.6.619-2.156 2.2-3.52 3.849-3.941 4.761l-.126.264.295-.078c1.527-.459 5.921-2.584 13.789-12.485 0 0 .117-.141.167-.228l.29.042c.369.046.82-.145 1.297-.33.801-.319 1.717-.675 2.583-.104 0 0 .332.212.474.316-.151.185-1.545 1.964-1.545 1.964-2.193 2.751-4.449 5.575-4.449 8.964 0 .648.082 1.318.272 2.014.419 1.984 2.45 2.924 4.065 3.134 3.269.565 7.367-1.245 10.985-2.83l1.832-.803c1.022-.276 1.313.349 1.53.794.255.544.614 1.307 2.189 1.993 5.281 2.391 13.033 1.21 23.045-3.511l.488-.23.203.525c.723 1.939 2.079 3.138 4.293 3.779 8.623 1.148 15.734-3.787 22.607-8.555.009-.004 3.137-2.387 3.652-2.778.126.126.686.735.764.833-.111.167-3.021 4.257-3.021 4.257-1.016 1.488-1.965 2.886-2.561 4.454l-.172.658.075.346c.151.268.517.451 1.058.53 5.234-.725 10.277-4.997 13.604-7.813l.998-.844c1.43-1.248 2.799-2.416 3.342-2.535l.314-.088.241.275.018.078c0 .259-.384.863-.663 1.287l-.524.846c-.447.936-1.336 2.77-1.336 4.394 0 .591.12 1.165.446 1.654 1.566 2.425 2.934 2.501 4.408 2.584l.526.028c6.176-.396 12.238-5.756 18.11-10.944l4.369-3.782s3.532-3.09 4.25-3.729c.098.22.246.639.246.639.44 1.129.535 2.159.535 2.821l-.11 1.228c-.065.542-1.04 4.348-2.377 5.43l-.278.154-.851.211c-3.229.828-6.889 1.757-8.25 4.98-.006.012-.122.732-.122.732 0 .434.164 1.057.895 1.543 2.279.588 4.642.023 6.725-.477l2.677-.573c2.186.013 4.31.272 6.362.518 2.86.341 5.551.67 8.409.376 3.701-.965 6.647-5.162 7.56-8.635l.082-.285-.274.139c-4.591 2.27-9.89 2.366-14.187.264l-.436-.223.191-.471c.033-.068 2.65-6.463 2.65-14.749 0-.377-.004-.761-.014-1.144h.014c-.054-.201-.077-.389-.077-.573 0-.763.387-1.39.74-1.958.354-.566.659-1.061.659-1.648l-.01-.266-.018-.051.021-.164.007-.035c0-.205-.321-.309-.477-.352-3.592-.906-5.633 1.761-7.979 4.852zm-94.598 14.299c.23-1.959 3.161-5.754 4.727-7.339 1.422-1.435 3.274-2.597 5.061-3.188.946-.225 1.703-.043 2.101.506.154.231.239.499.239.784 0 .353-.127.728-.357 1.098-1.957 3.072-7.004 7.401-11.121 8.702 0 0-.477.152-.752.249zm27.673-.742c.415-2.929 4.685-7.285 4.726-7.329 1.424-1.431 3.276-2.59 5.07-3.191.735-.317 1.447-.25 1.883.171.166.175.395.496.395 1.032 0 .301-.073.661-.258 1.115-.454 1.136-3.896 4.472-4.873 5.322-1.09 1.036-4.072 3.104-6.357 3.478l-.693.106z"/><path d="m174.771 174.505h-.007c-4.646.427-9.02 3.016-14.182 8.384-2.108 1.996-11.858 14.124-13.464 23.347l-.043.252-.221.115c-1.414.76-5.667 2.588-8.361 1.907-.807-.202-1.411-.619-1.774-1.236-.416-.805-.615-1.623-.615-2.487 0-2.013 1.112-3.809 2.073-5.417.01-.004.517-.851.552-.909.017.017.184-.035.184-.035 2.494-.713 6.401-5.473 7.395-8.377l.029-.083-.075-.051c-2.91-1.781-6.815-1.741-9.569-1.398-4.543.528-9.713 2.529-13.839 5.343-4.964 3.392-9.253 10.293-10.15 14.613-.484 2.469-.804 4.974.904 6.135 3.551 2.064 10.528-1.683 15.293-6.242 0 0 .624-.594.994-.95-.037.505-.154 1.862-.154 1.862-.06.59-.115 1.265-.115 1.934 0 1.26.211 2.527 1.042 3.311 3.928 3.116 12.016-.298 16.48-3.35l.396-.27.304.381c1.42 1.755 3.095 3.643 5.002 3.964 4.985.697 8.886-2.176 12.356-5.383 0 0 .452-.415.679-.632.07.367.337 1.605.337 1.605.254 1.283.486 2.497 1.481 3.297 2.518 1.948 8.158-.701 11.333-2.956 0 0 .733-.514 1.154-.821-.106.445-.35 1.369-.35 1.369-.542 2.098-1.546 4.107-2.519 6.049l-.871 1.777-.145.234-.258.42c-1.353 2.164-3.859 6.221-6.302 6.576l-.169.025c-.629-.23-1.029-.583-1.241-1.05l-.18-.909c0-1.094.575-2.339 1.079-3.439l.106-.218-.236.017c-1.135.174-2.148.654-3.262 1.221-2.258 1.338-4.583 4.36-4.583 7.076 0 .564.092 1.096.287 1.59.467 1.035 1.695 1.069 2.209 1.042 15.476-1.447 24.157-19 30.5-31.823l1.245-2.53c.383-.505.445-.812.445-.988l-.011-.152c-.025-.017-.236-.288-.236-.288.016.019-.157-.921-.157-.921.259-1.239 3.258-3.846 3.289-3.876 0 .007.382-.283.382-.283.307-.199.498-.404.505-.571 0-.178-.201-.415-.505-.608-.609-.391-1.268-.671-3.784-1.372-4.649-1.302-12.647-.321-19.901 6.7-.76.73-2.162 2.498-3.306 3.917l-1.467 1.829c-3.535 4.125-7.178 8.402-13.202 7.207-.791-.326-1.625-.988-1.945-1.802-.174-.468-.161-.935.036-1.358l.075-.15c3.339-2.344 6.771-5.384 10.296-9.074 5.918-6.326 13.168-16.968 12.216-19.612-.707-1.844-2.82-1.909-3.459-1.878zm-48.926 20.787c3.28-1.606 7.38-1.49 10.438.296l.527.31c-.143.203-2.251 3.139-2.251 3.139-3.472 4.219-10.168 8.396-13.029 8.136v-.007c-1.334-.115-2.268-.77-2.5-1.765l-.046-.839c0-2.854 3.795-7.264 5.784-8.613zm38.824-10.212c1.592-1.952 4.203-3.675 4.983-4.041.602-.284.921.055 1.007.16.131.162.176.382.176.602 0 .259-.078.515-.169.626l.029.005c-1.392 4.855-10.191 15.158-15.254 18.768 0 0-.606.427-.969.687l.155-1.164c.432-3.455 6.979-11.879 10.042-15.643zm9.897 22.043-.085-.054c-1.367-.987-1.797-2.382-1.231-4.021.511-1.905 5.802-7.752 9.987-8.567 3.799-.737 5.316.55 6.049 1.162l.59.488-2.057 2.205c-2.792 3.938-9.778 10.404-13.253 8.787z"/></g></svg>