<svg height="50" width="47" xmlns="http://www.w3.org/2000/svg"><g fill="#fdbb30"><path d="m23.548721 17.863708c1.023743 0 1.866257-.532471 1.979996-1.219971l1.011261-11.430054c0-1.130005-1.32251-2.057495-2.987503-2.057495-1.662506 0-2.983749.92749-2.983749 2.057495l1.008743 11.430054c.112503.6875.955002 1.219971 1.975006 1.219971h-.003998"/><path d="m17.371231 21.433716c.513748-.88501.473755-1.881226-.066193-2.32251l-9.395004-6.589966c-.976303-.565002-2.441299.116211-3.272552 1.557495-.833755 1.438721-.686249 3.047485.288742 3.612488l10.40126 4.84375c.651245.241272 1.537491-.222534 2.047501-1.107483l-.003998.005981"/><path d="m29.731232 21.42749c.512497.88501 1.395004 1.348755 2.046249 1.107483l10.402496-4.84375c.980011-.565002 1.12001-2.173706.292511-3.612488-.835007-1.441223-2.302505-2.122499-3.27626-1.557495l-9.395004 6.590027c-.537491.441223-.577499 1.4375-.066193 2.322449l-.003998-.005981"/><path d="m23.548721 32.140015c1.023743 0 1.866257.528748 1.979996 1.216248l1.011261 11.428772c0 1.132507-1.32251 2.058716-2.987503 2.058716-1.662506 0-2.983749-.926208-2.983749-2.058716l1.008743-11.428772c.112503-.6875.955002-1.216248 1.975006-1.216248h-.003998"/><path d="m29.731232 28.570007c.512497-.88623 1.395004-1.347473 2.046249-1.102478l10.402496 4.838745c.980011.566223 1.12001 2.176208.292511 3.617493-.835007 1.436218-2.302505 2.118713-3.27626 1.554993l-9.395004-6.58374c-.537491-.446289-.577499-1.442505-.066193-2.326233l-.003998.000977"/><path d="m17.371231 28.568726c.513748.883728.473755 1.880005-.066193 2.326233l-9.395004 6.58374c-.976257.563782-2.441254-.118713-3.272507-1.554993-.833801-1.441223-.686295-3.051208.288696-3.617493l10.40126-4.838745c.651245-.244995 1.53749.216248 2.047502 1.102478l-.003998-.000977"/></g></svg>