<?xml version="1.0" encoding="utf-8"?>
<!-- Generator: Adobe Illustrator 16.0.0, SVG Export Plug-In . SVG Version: 6.00 Build 0)  -->
<!DOCTYPE svg PUBLIC "-//W3C//DTD SVG 1.1//EN" "http://www.w3.org/Graphics/SVG/1.1/DTD/svg11.dtd">
<svg version="1.1"
	 id="svg8" xmlns:inkscape="http://www.inkscape.org/namespaces/inkscape" xmlns:sodipodi="http://sodipodi.sourceforge.net/DTD/sodipodi-0.dtd" xmlns:dc="http://purl.org/dc/elements/1.1/" xmlns:cc="http://creativecommons.org/ns#" xmlns:rdf="http://www.w3.org/1999/02/22-rdf-syntax-ns#" xmlns:svg="http://www.w3.org/2000/svg" inkscape:version="0.92.3 (2405546, 2018-03-11)" sodipodi:docname="wells fargo.svg"
	 xmlns="http://www.w3.org/2000/svg" xmlns:xlink="http://www.w3.org/1999/xlink" x="0px" y="0px" width="226.771px"
	 height="226.771px" viewBox="0 0 226.771 226.771" enable-background="new 0 0 226.771 226.771" xml:space="preserve">
<sodipodi:namedview  inkscape:cx="-631.63455" borderopacity="1.0" inkscape:cy="-304.41189" pagecolor="#00ffff" showgrid="false" fit-margin-left="0" inkscape:zoom="0.70710678" bordercolor="#666666" fit-margin-top="0" id="base" inkscape:window-maximized="1" inkscape:window-y="-9" inkscape:window-x="-9" fit-margin-right="0" inkscape:current-layer="layer1" inkscape:pageopacity="0" inkscape:document-units="mm" inkscape:pageshadow="2" inkscape:window-width="1920" inkscape:window-height="1001" fit-margin-bottom="0">
	</sodipodi:namedview>
<path id="path20" inkscape:connector-curvature="0" fill="#FFCC02" d="M82.741,71.932v11.144h2.549c3.216,0,4.675-1.563,4.675-5.94
	v-0.686h3.744v17.295h-3.744v-0.738c0-4.342-1.459-5.993-4.675-5.993h-2.549v12.462h10.687c4.869,0,6.627-3.217,7.206-9.369h3.885
	v13.341H69.417v-3.972h2.971c1.846,0,2.83-0.51,2.83-3.727V74.955c0-2.32-1.055-3.023-3.533-3.023h-1.09
	c-2.548,0-3.761,0.598-4.657,3.252l-9.685,28.263h-7.365l-5.606-18.42h-0.105l-6.222,18.42h-7.453L19.448,73.83
	c-0.439-1.459-1.195-1.898-3.233-1.898h-0.738v-3.955h15.502v3.955h-2.25c-1.178,0-1.652,0.703-1.652,1.406
	c0,0.527,0.194,1.195,0.475,1.934l6.714,19.791h0.105l6.397-18.613l-0.896-2.531c-0.545-1.582-1.617-1.986-3.181-1.986h-1.265
	v-3.955h16.012v3.955h-2.83c-1.089,0-1.511,0.475-1.511,1.178c0,0.545,0.264,1.301,0.439,1.811l5.871,19.791h0.105l6.819-19.334
	c0.211-0.633,0.404-1.16,0.404-1.828c0-0.844-0.404-1.617-2.285-1.617h-2.583v-3.955h48.652v12.129h-3.99
	c-0.808-5.133-1.265-8.174-8.384-8.174H82.741z M141.042,103.446V90.105h-4.096c-0.545,6.1-1.652,9.369-7.207,9.369h-8.066V74.393
	c0-1.969,0.809-2.461,3.164-2.461h3.006v-3.955h-19.598v3.955h3.093c2.145,0,2.865,0.703,2.865,2.32v22.85
	c0,1.863-1.019,2.373-2.531,2.373h-3.427v3.972H141.042z M177.442,103.446V90.105h-4.113c-0.545,6.1-1.688,9.369-7.17,9.369h-8.086
	V74.393c0-1.969,0.809-2.461,3.164-2.461h2.988v-3.955H144.61v3.955h3.111c2.16,0,2.881,0.703,2.881,2.32v22.85
	c0,1.863-1.035,2.373-2.529,2.373h-3.463v3.972H177.442z M204.44,70.648c-0.334-0.334-3.604-3.727-9.984-3.727
	c-6.695,0-13.463,3.393-13.463,10.67c0,6.591,5.256,9.597,11.301,10.896c2.004,0.422,3.199,0.65,5.027,1.037
	c4.535,0.967,7.559,2.338,7.559,5.484c0,2.391-2.531,4.957-7.541,4.957c-6.994,0-11.143-3.902-12.004-9.861h-4.113v13.341h3.639
	l1.178-3.181c0.861,0.756,4.271,4.235,10.756,4.235c8.262,0,14.502-3.673,14.502-10.933c0-7.03-5.818-10.054-12.92-11.478
	c-1.266-0.315-2.426-0.509-3.727-0.808c-4.41-0.949-7.24-2.039-7.24-5.203c0-2.742,2.9-4.623,7.258-4.623
	c6.557,0,9.088,4.166,10.441,8.648h3.99V67.977h-2.883L204.44,70.648z M41.647,158.742v-3.99h-2.672
	c-2.478,0-3.392-0.738-3.392-2.742v-9.666h2.197c3.322,0,4.763,1.441,4.763,5.202v1.178h3.726v-16.329h-3.726v0.703
	c0,2.76-1.002,5.291-4.447,5.291h-2.514V127.21h6.978c7.856,0,8.683,3.954,9.21,8.155h3.832v-12.109H22.032v3.954h3.55
	c1.6,0,2.496,0.721,2.496,2.003v22.92c0,1.494-0.808,2.619-2.707,2.619h-3.339v3.99H41.647z M190.187,122.184
	c-11.637,0-19.336,8.137-19.336,18.807c0,10.65,7.699,18.859,19.336,18.859c11.6,0,19.316-8.209,19.316-18.859
	C209.503,130.32,201.786,122.184,190.187,122.184 M190.187,126.366c8.4,0,10.914,6.978,10.914,14.624
	c0,7.646-2.514,14.641-10.914,14.641c-8.455,0-10.951-6.995-10.951-14.641C179.235,133.344,181.731,126.366,190.187,126.366
	 M157.458,126.155c-0.773-0.686-4.096-3.972-10.65-3.972c-10.494,0-17.086,7.996-17.086,18.807c0,10.896,6.697,18.859,17.086,18.859
	c6.678,0,10.299-3.059,11.125-3.814l1.986,2.707h3.639v-12.304c0-2.091,0.773-2.653,2.848-2.653h0.984v-3.973h-16.383v3.973h2.426
	c1.758,0,2.83,0.791,2.83,2.513v2.074c0,4.06-2.496,6.89-7.926,6.89c-6.803,0-10.213-6.116-10.213-14.271
	c0-8.033,3.41-14.185,10.002-14.185c6.871,0,9.209,6.397,10,8.56h4.395v-12.109h-3.744L157.458,126.155z M127.948,150.41v0.967
	c0,6.117-2.918,8.473-7.348,8.473c-5.186,0-6.925-2.496-6.925-7.33v-1.846c0-6.098-2.602-8.559-8.542-8.559h-2.813v10.721
	c0,1.424,0.65,1.916,2.197,1.916h3.901v3.99H72.986v-3.99h3.938c1.089,0,1.494-0.264,1.494-0.896c0-0.334-0.105-0.879-0.316-1.459
	c-0.193-0.475-1.863-5.044-1.863-5.044H63.583c0,0-1.564,4.218-1.828,4.921c-0.176,0.527-0.316,0.967-0.316,1.477
	c0,0.756,0.633,1.002,1.688,1.002h3.761v3.99H50.189v-3.99c2.83,0,4.623-0.404,5.625-2.883l11.319-28.613h6.802l11.601,28.613
	c0.967,2.514,2.794,2.883,5.624,2.883h1.441c1.529,0,2.215-0.492,2.215-1.916v-23.692c0-1.424-0.545-1.934-2.215-1.934h-3.726
	v-3.954h23.306c7.734,0,11.373,3.655,11.373,9.191c0,6.873-6.838,8.227-10.037,8.402v0.088c3.744,0.281,6.908,1.828,6.908,7.294
	v2.073c0,3.639,0.773,4.447,2.057,4.447c1.266,0,1.934-1.002,1.934-3.375v-0.967H127.948z M74.779,143.416l-4.781-12.92H69.84
	l-4.781,12.92H74.779z M116.101,132.676c0-3.111-2.232-5.466-7.189-5.466h-6.591v10.95h6.591
	C113.482,138.16,116.101,136.104,116.101,132.676"/>
</svg>
