<svg enable-background="new 0 0 226.771 226.771" height="226.771" viewBox="0 0 226.771 226.771" width="226.771" xmlns="http://www.w3.org/2000/svg"><path d="m82.741 71.932v11.144h2.549c3.216 0 4.675-1.563 4.675-5.94v-.686h3.744v17.295h-3.744v-.738c0-4.342-1.459-5.993-4.675-5.993h-2.549v12.462h10.687c4.869 0 6.627-3.217 7.206-9.369h3.885v13.341h-35.102v-3.972h2.971c1.846 0 2.83-.51 2.83-3.727v-20.794c0-2.32-1.055-3.023-3.533-3.023h-1.09c-2.548 0-3.761.598-4.657 3.252l-9.685 28.263h-7.365l-5.606-18.42h-.105l-6.222 18.42h-7.453l-10.054-29.617c-.439-1.459-1.195-1.898-3.233-1.898h-.738v-3.955h15.502v3.955h-2.25c-1.178 0-1.652.703-1.652 1.406 0 .527.194 1.195.475 1.934l6.714 19.791h.105l6.397-18.613-.896-2.531c-.545-1.582-1.617-1.986-3.181-1.986h-1.265v-3.955h16.012v3.955h-2.83c-1.089 0-1.511.475-1.511 1.178 0 .545.264 1.301.439 1.811l5.871 19.791h.105l6.819-19.334c.211-.633.404-1.16.404-1.828 0-.844-.404-1.617-2.285-1.617h-2.583v-3.955h48.652v12.129h-3.99c-.808-5.133-1.265-8.174-8.384-8.174h-9.404zm58.301 31.514v-13.341h-4.096c-.545 6.1-1.652 9.369-7.207 9.369h-8.066v-25.081c0-1.969.809-2.461 3.164-2.461h3.006v-3.955h-19.598v3.955h3.093c2.145 0 2.865.703 2.865 2.32v22.85c0 1.863-1.019 2.373-2.531 2.373h-3.427v3.972h32.797zm36.4 0v-13.341h-4.113c-.545 6.1-1.688 9.369-7.17 9.369h-8.086v-25.081c0-1.969.809-2.461 3.164-2.461h2.988v-3.955h-19.615v3.955h3.111c2.16 0 2.881.703 2.881 2.32v22.85c0 1.863-1.035 2.373-2.529 2.373h-3.463v3.972h32.832zm26.998-32.798c-.334-.334-3.604-3.727-9.984-3.727-6.695 0-13.463 3.393-13.463 10.67 0 6.591 5.256 9.597 11.301 10.896 2.004.422 3.199.65 5.027 1.037 4.535.967 7.559 2.338 7.559 5.484 0 2.391-2.531 4.957-7.541 4.957-6.994 0-11.143-3.902-12.004-9.861h-4.113v13.341h3.639l1.178-3.181c.861.756 4.271 4.235 10.756 4.235 8.262 0 14.502-3.673 14.502-10.933 0-7.03-5.818-10.054-12.92-11.478-1.266-.315-2.426-.509-3.727-.808-4.41-.949-7.24-2.039-7.24-5.203 0-2.742 2.9-4.623 7.258-4.623 6.557 0 9.088 4.166 10.441 8.648h3.99v-12.125h-2.883zm-162.793 88.094v-3.99h-2.672c-2.478 0-3.392-.738-3.392-2.742v-9.666h2.197c3.322 0 4.763 1.441 4.763 5.202v1.178h3.726v-16.329h-3.726v.703c0 2.76-1.002 5.291-4.447 5.291h-2.514v-11.179h6.978c7.856 0 8.683 3.954 9.21 8.155h3.832v-12.109h-33.57v3.954h3.55c1.6 0 2.496.721 2.496 2.003v22.92c0 1.494-.808 2.619-2.707 2.619h-3.339v3.99zm148.54-36.558c-11.637 0-19.336 8.137-19.336 18.807 0 10.65 7.699 18.859 19.336 18.859 11.6 0 19.316-8.209 19.316-18.859 0-10.671-7.717-18.807-19.316-18.807m0 4.182c8.4 0 10.914 6.978 10.914 14.624s-2.514 14.641-10.914 14.641c-8.455 0-10.951-6.995-10.951-14.641-.001-7.646 2.495-14.624 10.951-14.624m-32.729-.211c-.773-.686-4.096-3.972-10.65-3.972-10.494 0-17.086 7.996-17.086 18.807 0 10.896 6.697 18.859 17.086 18.859 6.678 0 10.299-3.059 11.125-3.814l1.986 2.707h3.639v-12.304c0-2.091.773-2.653 2.848-2.653h.984v-3.973h-16.383v3.973h2.426c1.758 0 2.83.791 2.83 2.513v2.074c0 4.06-2.496 6.89-7.926 6.89-6.803 0-10.213-6.116-10.213-14.271 0-8.033 3.41-14.185 10.002-14.185 6.871 0 9.209 6.397 10 8.56h4.395v-12.109h-3.744zm-29.51 24.255v.967c0 6.117-2.918 8.473-7.348 8.473-5.186 0-6.925-2.496-6.925-7.33v-1.846c0-6.098-2.602-8.559-8.542-8.559h-2.813v10.721c0 1.424.65 1.916 2.197 1.916h3.901v3.99h-35.432v-3.99h3.938c1.089 0 1.494-.264 1.494-.896 0-.334-.105-.879-.316-1.459-.193-.475-1.863-5.044-1.863-5.044h-12.656s-1.564 4.218-1.828 4.921c-.176.527-.316.967-.316 1.477 0 .756.633 1.002 1.688 1.002h3.761v3.99h-16.699v-3.99c2.83 0 4.623-.404 5.625-2.883l11.319-28.613h6.802l11.601 28.613c.967 2.514 2.794 2.883 5.624 2.883h1.441c1.529 0 2.215-.492 2.215-1.916v-23.692c0-1.424-.545-1.934-2.215-1.934h-3.726v-3.954h23.306c7.734 0 11.373 3.655 11.373 9.191 0 6.873-6.838 8.227-10.037 8.402v.088c3.744.281 6.908 1.828 6.908 7.294v2.073c0 3.639.773 4.447 2.057 4.447 1.266 0 1.934-1.002 1.934-3.375v-.967zm-53.169-6.994-4.781-12.92h-.158l-4.781 12.92zm41.322-10.74c0-3.111-2.232-5.466-7.189-5.466h-6.591v10.95h6.591c4.57 0 7.189-2.056 7.189-5.484" fill="#ffcc02"/></svg>