<svg enable-background="new 0 0 768 768" height="768" viewBox="0 0 768 768" width="768" xmlns="http://www.w3.org/2000/svg"><g fill="#fff"><path d="m478.825 548.437h25.28c2.088 0 2.375-1.693 2.375-3.83 0-2.297-.347-3.578-2.273-3.578h-32.334c-1.927 0-2.591 1.161-2.591 2.813v36.313c0 2.214.766 3.105 2.633 3.105h32.232c1.759 0 2.214-1.616 2.214-3.584 0-2.734-.581-3.83-2.238-3.83h-25.028c-1.196 0-2.005-.706-2.005-2.195v-6.188c0-1.346 1.054-2.153 2.214-2.153h14.552c1.634 0 2.053-1.699 2.053-3.645 0-2.231-.461-3.77-2.22-3.77h-14.594c-1.137 0-2.005-.658-2.005-1.86v-5.714c0-1.095.724-1.884 1.735-1.884z"/><path d="m553.827 548.437h10.226c1.676 0 2.315-1.341 2.315-3.764 0-2.734-.993-3.561-2.483-3.561h-33.034c-2.22 0-2.094 2.878-2.094 4.368 0 1.346.479 2.956 2.154 2.956h10.351c1.861 0 2.399.706 2.399 2.195v30.617c0 2.089 1.556 2.321 3.871 2.321 2.399 0 3.932-.251 3.932-2.405l-.06-30.575c0-1.693 1.017-2.152 2.423-2.152z"/><path d="m563.885 441.788c0-18.985-5.605-34.961-15.939-45.336-10.764-10.89-24.364-15.646-46.264-15.646-21.923 0-36.247 1.962-41.381 2.71-5.116.766-7.761 1.304-7.761 5.134 0 2.65 1.76 4.882 4.177 4.882h3.584c1.203 0 2.399.958 2.979 2.298.354 1.269.539 2.339.539 6.917v78.227c0 4.595-.187 5.654-.539 6.917-.58 1.364-1.776 2.297-2.979 2.297h-3.584c-2.417 0-4.177 2.232-4.177 4.883 0 3.854 2.645 4.392 7.761 5.134 5.134.748 19.458 2.717 41.381 2.717 19.171 0 31.88-3.728 42.004-11.926 13.037-10.376 20.199-27.949 20.199-49.208zm-27.683 15.91c-.285 1.638-.617 3.223-.994 4.754-.188.766-.389 1.517-.6 2.255-4.651 16.249-14.762 25.77-29.195 25.78-.658.002-1.325-.017-2.002-.055-8.819-.496-15.072-1.095-15.072-11.135v-73.632c0-9.334 2.256-11.387 9.837-12.606 1.962-.312 5.959-.581 5.959-.581h.018.007.004.002.017.007c20.889 0 33.31 18.178 33.31 49.124-.002 5.799-.441 11.184-1.298 16.096z"/><path d="m517.908 255.938c.497-1.43 2.07-2.297 3.687-2.297h3.829c2.501 0 4.655-2.112 4.655-4.907 0-3.895-2.154-5.158-8.484-5.158h-32.46c-6.043 0-8.18 1.263-8.18 5.158 0 2.794 2.137 4.907 4.781 4.907h3.398c1.16 0 2.584.867 2.938 2.297.521 1.388.683 2.088.683 6.833v79.448c0 4.386-.162 5.235-.683 6.54-.353 1.179-1.777 2.256-2.938 2.256h-3.398c-2.46 0-4.386 2.136-4.386 4.721 0 3.913 1.926 5.074 7.784 5.074h66.116c3.542 0 5.547-1.185 6.253-4.41l2.71-13.642c.934-4.511-.64-6.958-3.847-6.958-1.699 0-3.561 1.035-4.745 3.333-.203.353-.515 1.119-1.508 3.213-2.172 4.553-6.605 6.516-12.876 6.516h-9.896c-7.061 0-9.747-.329-11.549-1.573-2.069-1.197-2.405-2.998-2.405-10.722v-73.793c.001-4.58.001-5.657.521-6.836z"/><path d="m410.597 540.943c-2.734 0-4.122.371-4.122 2.585v37.533c0 1.861 1.221 2.508 3.542 2.508 2.195 0 4.2-.15 4.2-2.489v-12.296c0-1.676 1.095-3.123 2.507-3.123 2.525 0 4.368.245 6.211 1.843l13.517 14.426c.909 1.101 1.885 1.657 5.444 1.657 3.351 0 5.463-1.244 3.165-3.745-1.531-1.658-16.143-17.766-16.143-17.766-1.035-1.137-1.412-2.357.102-3.661 0 0 12.17-11.016 13.247-12.068 1.55-1.532.934-3.022-.454-4.351-1.676-1.609-3.435-1.633-5.176-.144 0 0-13.87 12.732-15.234 13.894-1.221 1.053-1.926 1.759-5.217 1.759-1.137 0-1.969-.892-1.969-2.71v-11.326c0-2.03-1.466-2.526-3.62-2.526z"/><path d="m658.675 356.399 2.71-13.642c.934-4.511-.64-6.935-3.829-6.935-1.718 0-3.578 1.011-4.757 3.309-.209.353-.521 1.143-1.514 3.213-2.172 4.553-6.605 6.516-12.876 6.516l-17.472.043c-5.756 0-8.197-.371-10.453-1.221-2.776-1.077-3.333-3.04-3.333-12.338v-22.27c0-3.955.557-5.654 1.616-6.36.808-.556 2.111-.682 7.144-.682h8.113c7.39 0 8.442.521 8.964 4.039l.185 1.161c.539 2.979 2.112 4.571 4.763 4.571 3.68 0 4.906-2.112 4.906-8.257v-14.761c0-6.169-1.227-8.257-4.906-8.257-2.65 0-4.224 1.406-4.763 4.386l-.126 1.077c-.538 3.518-1.592 4.057-8.963 4.057h-8.173c-5.032 0-6.337-.125-7.145-.682-1.06-.706-1.615-2.423-1.615-6.354v-20.87c0-9.334 1.077-10.597 10.662-10.597h16.556c8.18 0 11.722.556 13.439 5.074.808 2.154 1.531 3.435 1.734 3.788 1.186 2.297 2.818 2.734 4.518 2.734 3.207 0 4.799-2.423 3.848-6.935l-2.483-12.218c-.724-3.225-2.71-4.41-6.252-4.41h-70.155c-5.918 0-8.072 1.262-8.072 5.158 0 2.609 2.154 4.906 4.512 4.906h3.561c1.035 0 2.447 1.053 2.817 2.609.539 1.424.683 2.339.683 6.893v78.58c0 4.739-.144 5.606-.683 7.037-.37 1.179-1.598 2.255-2.817 2.255h-3.561c-2.357 0-4.368 2.136-4.368 4.721 0 3.913 2.011 5.092 7.929 5.092h68.916l4.487-.019c3.542-.001 5.552-1.186 6.253-4.411z"/><path d="m649.34 511.076c5.05 0 9.131-4.099 9.131-9.155 0-5.092-4.081-9.166-9.131-9.166-5.074 0-9.131 4.074-9.131 9.166 0 5.057 4.057 9.155 9.131 9.155zm-.03-16.503c.004 0 .008.001.013.001.004 0 .008-.001.012-.001h.003s.002 0 .003 0c4.141 0 7.18 3.088 7.18 7.348 0 4.267-3.039 7.33-7.18 7.33-.001 0-.002 0-.003 0s-.002 0-.003 0c-.004 0-.008-.001-.012-.001-.005 0-.009.001-.013.001-4.122 0-7.186-3.063-7.186-7.33 0-4.26 3.064-7.348 7.186-7.348z"/><path d="m606.469 490.499c-10.04 0-19.877-5.319-25.962-13.911l-2.524-3.477c-1.077-1.431-2.585-2.363-4.41-2.363-3.123 0-5.547 2.363-5.547 5.486 0 .867.126 2.465.455 3.519l4.434 17.573c1.035 4.206 2.483 5.821 5.421 5.821 1.556 0 2.423-.353 4.081-1.615 1.508-1.388 2.256-1.741 3.745-1.741.993 0 1.28.186 3.806.867 5.014 1.574 11.967 2.489 18.446 2.489h.001c23.203 0 38.359-13.414 38.359-33.722 0-9.029-3.561-17.807-9.502-23.952-5.654-5.773-10.208-9.298-24.077-18.961-3.746-2.608-6.522-4.619-8.694-6.169-3.476-2.65-6.294-5.427-8.071-8.077-1.448-1.945-1.902-4.613-1.902-7.198 0-7.204 5.253-11.823 13.372-11.823 5.751 0 11.8 1.968 16.515 5.654 3.668 2.83 4.41 3.519 8.364 9.501 1.616 2.256 2.776 2.956 4.661 2.956 2.998 0 5.051-1.902 5.051-4.2 0-.557 0-1.615-.312-2.441l-4.2-19.003c-.706-3.147-2.363-4.906-4.948-4.906-1.412 0-1.969.144-3.71 1.406-1.531 1.017-2.872 1.592-4.032 1.592-.683 0-1.598-.186-2.406-.347-2.482-.563-3.913-.891-4.445-1.077-5.115-1.101-10.189-1.573-15.156-1.573-19.355 0-32.315 11.261-32.315 28.295 0 7.019 2.261 13.313 6.688 18.447 5.463 6.288 7.019 7.348 23.659 19.003 10.105 7.019 14.826 10.89 18.632 15.09 3.746 4.225 5.714 8.425 5.714 13.188-.003 9.29-7.787 15.669-19.191 15.669z"/><path d="m340.795 208.843c-1.7 6.294 2.088 9.873 7.97 7.348 19.518-8.383 24.34 3.315 40.92 9.854 7.39 2.98 16.335 2.28 21.199 1.305 4.081-.79 4.099 3.291 1.801 4.081-11.117 3.764-22.461 9.538-29.169 14.552-16.041 10.722-25.315 29.725-25.315 54.401 0 38.359 23.664 63.49 60.014 63.49 37.24 0 60.898-25.13 60.898-64.399 0-22.569-7.18-39.418-21.57-50.015-8.341-6.151-15.939-8.795-23.7-7.886-9.418 1.119-10.662 8.257-3.356 10.968 15.096 5.798 21.115 22.234 21.115 47.658 0 30.844-12.667 50.464-32.849 50.464-20.744 0-33.017-18.896-33.017-50.093 0-20.123 2.872-35.96 17.077-49.89 14.223-13.929 27.487-11.943 40.43-28.63 5.48-7.079 5.421-13.164 1.238-14.342-3.913-1.119-6.414 4.057-10.268 6.558-13.995 9.131-29.809.623-38.294-8.897-8.634-9.687-19.853-9.316-26.476-7.886-2.86.64-4.452-1.64-1.329-4.021 7.145-5.439 21.78-5.792 30.785 2.381 7.7 6.977 18.01 12.523 25.65 11.075 4.529-.867 4.942-6.085-.251-7.928-14.468-5.152-13.062-21.588-32.957-27.26-1.393-.399-2.775-.69-4.149-.894h-9.02c-17.865 2.619-32.63 20.374-37.377 38.006z"/><path d="m645.881 506.995h1.796v-4.326h.023.006 1.005.024.006l3.063 4.326h2.076l-3.1-4.368c1.55-.167 2.729-.993 2.729-3.123 0-2.196-1.137-3.189-3.644-3.189h-3.985v10.68zm1.819-9.005h.024.006 1.621.024.006c1.202 0 2.423.293 2.423 1.514 0 1.406-1.322 1.49-2.836 1.49h-.006-.024-1.208-.006-.024z"/><path d="m287.883 540.716c-1.741 0-2.717.85-3.231 1.969l-18.489 38.354c-1.113 2.363 2.423 2.489 3.5 2.489 1.221 0 3.854-.21 4.392-1.556l2.417-4.613c.623-1.556 1.616-2.382 2.71-2.382h17.412c.891 0 1.615.599 1.968 1.347l2.729 5.648c.604 1.405 2.549 1.615 3.835 1.615 1.281 0 5.091-.353 4.176-2.315-.497-1.102-18.154-38.736-18.154-38.736-.578-1.24-1.53-1.82-3.265-1.82zm6.213 26.486c-.062.554-.619.928-1.18.928h-.054-10.147-.054c-.731 0-1.217-.374-1.212-.99.002-.205.058-.438.178-.692.287-.616 4.553-9.19 5.05-10.411.22-.554.634-.811 1.052-.804.005 0 .01-.001.015-.001s.01.001.015.001c.004 0 .008-.002.012-.002.414.003.833.266 1.072.763.515 1.119 4.84 10.063 5.134 10.603v.001c.105.215.14.42.119.604z"/><path d="m368.324 567.396c2.214-1.879 7.742-4.386 7.742-12.044 0-8.861-6.462-14.391-15.048-14.391h-22.234c-.934 0-1.802.604-1.802 1.616l-.06 38.652c0 1.879.928 2.357 2.609 2.357 1.28 0 5.169.329 5.169-1.676l-.06-10.165c0-1.137 1.077-2.07 2.214-2.07h9.376c1.472 0 2.549.724 3.297 1.86l6.558 10.19c.976 1.447 2.489 1.843 4.745 1.843 4.033 0 5.211-1.287 3.907-3.231-.868-1.286-6.785-9.873-7.12-10.375-.657-.95-.388-1.608.707-2.566zm-7.163-5.074c-.267.019-.538.027-.812.027h-13.002c-1.347 0-2.753-.867-2.753-2.357v-.002-9.481-.003c0-1.675 1.406-2.147 2.753-2.147h.029.024 12.948.029.024c4.367 0 7.928 2.298 7.928 6.994.001 4.421-3.155 6.715-7.168 6.969z"/><path d="m142.044 354.49c2.423 6.666 4.924 8.777 10.016 8.777 2.298 0 4.602-.885 5.983-1.92 1.43-1.43 1.867-2.651 3.56-6.857 0 0 15.569-43.41 15.964-44.792.413-1.37 1.903-1.328 2.399.102.479 1.43 14.946 44.69 14.946 44.69 2.112 6.504 4.781 8.778 10.022 8.778 5.253 0 7.635-2.459 10.16-11.051l28.008-90.176c1.909-6.205 3.728-8.173 6.833-8.61 3.082-.413 7.288.185 7.288 9.148v78.915c0 4.697 0 5.606-.539 7.036-.335 1.221-1.783 2.094-3.021 2.094h-3.482c-2.417 0-4.553 2.298-4.553 4.9 0 3.896 2.136 5.098 8.036 5.098h32.023c5.589 0 7.599-1.203 7.599-4.889 0-2.812-1.801-5.11-4.224-5.11h-3.375c-1.448 0-2.818-.874-3.356-2.094-.329-1.43-.473-2.465-.473-7.037v-26.704c0-8.113.7-8.801 7.204-8.801h23.868c3.494 0 5.302.563 6.187 1.598.809 1.053.809 1.735.809 8.257v25.651c0 4.571 0 5.606-.432 7.037-.622 1.22-2.01 2.094-3.213 2.094h-3.351c-2.423 0-4.553 2.298-4.553 4.9 0 3.896 1.902 5.098 7.903 5.098h31.945c6.188 0 8.113-1.203 8.113-5.098 0-2.603-1.926-4.9-4.535-4.9h-3.578c-1.202 0-2.608-.874-2.985-2.094-.497-1.43-.616-2.465-.616-7.037v-78.913c0-4.386.119-5.606.616-6.911.377-1.161 1.783-2.238 2.985-2.238h3.578c2.399 0 4.535-2.088 4.535-4.966 0-3.854-2.136-5.032-8.113-5.032h-31.945c-6.001 0-8.131 1.179-8.131 5.032 0 2.878 2.13 4.966 4.78 4.966h3.351c1.203 0 2.591.892 3.213 2.238.432 1.304.432 2.339.432 6.911v21.612c0 6.522 0 7.204-.809 8.281-.885 1.017-2.692 1.574-6.187 1.574h-23.868c-6.504 0-7.204-.682-7.204-8.796v-22.671c0-4.386.143-5.606.473-6.911.539-1.161 1.909-2.238 3.356-2.238h3.375c2.423 0 4.344-2.088 4.344-4.966 0-3.854-1.92-5.032-7.718-5.032h-60.905c-4.673 0-6.683 1.388-6.683 4.907 0 2.794 1.777 4.553 5.648 4.906 4.266.539 6.151 1.945 6.151 4.577 0 1.053-.186 2.459-.682 4.218 0 0-16.831 56.537-19.482 65.147-.431 1.406-1.944 1.759-2.459.167-2.692-8.467-19.709-62.311-19.709-62.311-1.448-4.225-1.801-5.798-1.801-7.39 0-3.147 1.263-4.224 5.941-4.763 3.913-.557 5.69-1.927 5.69-4.721 0-3.166-1.945-4.739-5.941-4.739h-34.488c-4.099 0-6.127 1.927-6.127 5.301 0 2.609 1.388 3.806 5.014 4.697 4.057 1.077 5.481 2.01 6.516 4.577.395.724.79 2.13 1.454 4.033 0 0 5.941 17.514 6.33 18.776 1.119 3.584.707 6.857-.245 9.962-.335 1.095-9.609 28.026-13.02 37.815-.539 1.574-2.136 1.64-2.651.228-3.063-8.837-22.461-63.777-22.461-63.777l-1.388-4.015c-.497-1.448-.64-2.71-.64-3.913 0-2.794 1.574-4.039 5.445-4.386 4.553-.395 6.331-1.598 6.331-4.559 0-3.166-1.777-4.739-5.774-4.739h-36.291c-4.033 0-5.899 1.574-5.899 4.554 0 2.836 1.161 4.057 4.906 4.745 5.63 1.221 6.462 2.088 9.089 9.31z"/><path d="m195.966 583.587c1.825 0 4.039-.353 4.308-2.154l2.92-21.797c.102-.868.479-1.532 1.221-1.532.479 0 .934.144 1.346.664l9.316 12.565c.658.969 1.161 1.263 2.316 1.263.808 0 1.49-.438 2.01-1.137l10.124-12.961c.413-.52.724-.808 1.322-.808.748 0 1.095.413 1.286 1.347l2.98 22.539c0 1.412 2.004 2.011 3.082 2.011 1.472 0 4.847 0 4.637-2.154l-4.284-37.671c-.623-2.466-1.699-2.801-3.166-2.801-1.346 0-2.483.479-3.231 1.616l-12.212 16.604c-.664.867-1.448 1.656-2.214 1.676-.766.023-1.472-.725-2.094-1.616l-11.572-16.269c-1.011-1.573-2.316-1.801-3.124-1.801-3.171 0-3.644 1.263-4.099 3.458l-4.284 36.744c.002 1.615 2.15 2.214 3.412 2.214z"/><path d="m166.989 446.342c.808-.557 2.088-.683 7.144-.683h14.468c7.39 0 8.442.539 8.963 4.057l.186 1.161c.539 2.979 2.112 4.571 4.739 4.571 3.71 0 4.931-2.106 4.931-8.257v-14.779c0-6.151-1.221-8.263-4.931-8.263-2.626 0-4.2 1.412-4.739 4.392l-.126 1.095c-.538 3.519-1.591 4.057-8.963 4.057h-14.528c-5.056 0-6.336-.119-7.144-.682-1.077-.725-1.633-2.424-1.633-6.354v-20.888c0-9.316 1.077-10.597 10.68-10.597h22.564c8.173 0 11.715.58 13.433 5.092.832 2.13 1.532 3.435 1.741 3.77 1.179 2.297 2.812 2.752 4.529 2.752 3.189 0 4.787-2.447 3.835-6.935l-2.489-12.218c-.7-3.226-2.71-4.404-6.247-4.404h-76.18c-5.924 0-8.072 1.263-8.072 5.134 0 2.627 2.148 4.9 4.511 4.9h3.561c1.035 0 2.441 1.077 2.812 2.633.563 1.406.706 2.315.706 6.869v78.586c0 4.738-.186 5.588-.557 6.827-.58 1.405-1.765 2.321-2.961 2.321h-3.584c-2.417 0-4.529 2.256-4.529 4.906 0 3.871 2.112 5.092 8.114 5.092h32.334c6.48 0 8.634-1.221 8.634-5.092 0-2.65-1.909-4.906-4.661-4.906h-3.973c-1.406 0-3.003-.916-3.746-2.321-.413-1.239-.413-2.089-.413-6.827h.018l-.06-28.631c-.001-3.955.556-5.655 1.633-6.378z"/><path d="m393.598 380.906c-28.834 0-49.1 15.958-55.537 42.291-.061.024-.061.064-.061.107-.556 2.873-3.123 3.1-3.787.078-6.313-26.326-26.913-42.476-55.873-42.476-35.272 0-57.733 23.892-57.733 61.438 0 36.684 22.623 60.737 57.38 60.737 29.001 0 49.393-15.916 55.975-42.081.042-.108.126-.21.126-.312.622-3.086 3.23-2.877 3.811.02.042.209.102.395.186.58 6.522 25.794 26.806 41.794 55.143 41.794l.019-.001c35.631 0 58.272-24.054 58.272-61.605-.001-36.87-22.81-60.57-57.921-60.57zm-83.624 61.278c0 21.185-6.256 36.842-16.946 43.974-.465.311-.938.604-1.42.882-.962.556-1.958 1.045-2.986 1.468-3.083 1.267-6.451 1.927-10.072 1.927-.015 0-.029-.001-.044-.001-.003 0-.006 0-.009 0-19.853 0-31.586-18.069-31.586-47.921 0-30.533 11.925-48.955 31.233-48.955h.012.012.003s.002 0 .003 0h.012.012c6.088 0 11.475 1.834 16.003 5.266 9.961 7.549 15.773 22.836 15.773 43.36 0-.001 0-.001 0 0zm115.222 0c0 21.185-6.256 36.842-16.94 43.974-.465.311-.938.604-1.419.882-.962.556-1.957 1.045-2.983 1.468-3.081 1.267-6.446 1.927-10.064 1.927-.015 0-.029-.001-.044-.001-.004 0-.007 0-.01 0-19.847 0-31.61-18.069-31.61-47.921 0-30.533 11.949-48.955 31.264-48.955h.012s.008 0 .012 0h.003s.002 0 .003 0h.012.013c6.086 0 11.47 1.834 15.995 5.266 9.953 7.549 15.756 22.836 15.756 43.36 0-.001 0-.001 0 0z"/></g></svg>