<?xml version="1.0" encoding="utf-8"?>
<!-- Generator: Adobe Illustrator 16.0.0, SVG Export Plug-In . SVG Version: 6.00 Build 0)  -->
<!DOCTYPE svg PUBLIC "-//W3C//DTD SVG 1.1//EN" "http://www.w3.org/Graphics/SVG/1.1/DTD/svg11.dtd">
<svg version="1.1" xmlns="http://www.w3.org/2000/svg" xmlns:xlink="http://www.w3.org/1999/xlink" x="0px" y="0px" width="768px"
	 height="768px" viewBox="0 0 768 768" enable-background="new 0 0 768 768" xml:space="preserve">
<g id="Layer_2">
</g>
<g id="svg4686" xmlns:svg="http://www.w3.org/2000/svg">
	<g>
		<path fill="#FFFFFF" d="M478.825,548.437h25.28c2.088,0,2.375-1.693,2.375-3.83c0-2.297-0.347-3.578-2.273-3.578h-32.334
			c-1.927,0-2.591,1.161-2.591,2.813v36.313c0,2.214,0.766,3.105,2.633,3.105h32.232c1.759,0,2.214-1.616,2.214-3.584
			c0-2.734-0.581-3.83-2.238-3.83h-25.028c-1.196,0-2.005-0.706-2.005-2.195v-6.188c0-1.346,1.054-2.153,2.214-2.153h14.552
			c1.634,0,2.053-1.699,2.053-3.645c0-2.231-0.461-3.77-2.22-3.77h-14.594c-1.137,0-2.005-0.658-2.005-1.86v-5.714
			C477.09,549.226,477.814,548.437,478.825,548.437z"/>
		<path fill="#FFFFFF" d="M553.827,548.437h10.226c1.676,0,2.315-1.341,2.315-3.764c0-2.734-0.993-3.561-2.483-3.561h-33.034
			c-2.22,0-2.094,2.878-2.094,4.368c0,1.346,0.479,2.956,2.154,2.956h10.351c1.861,0,2.399,0.706,2.399,2.195v30.617
			c0,2.089,1.556,2.321,3.871,2.321c2.399,0,3.932-0.251,3.932-2.405l-0.06-30.575C551.404,548.896,552.421,548.437,553.827,548.437
			z"/>
		<path fill="#FFFFFF" d="M563.885,441.788c0-18.985-5.605-34.961-15.939-45.336c-10.764-10.89-24.364-15.646-46.264-15.646
			c-21.923,0-36.247,1.962-41.381,2.71c-5.116,0.766-7.761,1.304-7.761,5.134c0,2.65,1.76,4.882,4.177,4.882h3.584
			c1.203,0,2.399,0.958,2.979,2.298c0.354,1.269,0.539,2.339,0.539,6.917v78.227c0,4.595-0.187,5.654-0.539,6.917
			c-0.58,1.364-1.776,2.297-2.979,2.297h-3.584c-2.417,0-4.177,2.232-4.177,4.883c0,3.854,2.645,4.392,7.761,5.134
			c5.134,0.748,19.458,2.717,41.381,2.717c19.171,0,31.88-3.728,42.004-11.926C556.723,480.62,563.885,463.047,563.885,441.788z
			 M536.202,457.698c-0.285,1.638-0.617,3.223-0.994,4.754c-0.188,0.766-0.389,1.517-0.6,2.255
			c-4.651,16.249-14.762,25.77-29.195,25.78c-0.658,0.002-1.325-0.017-2.002-0.055c-8.819-0.496-15.072-1.095-15.072-11.135v-73.632
			c0-9.334,2.256-11.387,9.837-12.606c1.962-0.312,5.959-0.581,5.959-0.581c0.006,0,0.012,0,0.018,0c0.001,0,0.007,0,0.007,0
			c0.001,0,0.003,0,0.004,0h0.002c0.006,0,0.011,0,0.017,0c0.001,0,0.007,0,0.007,0c20.889,0,33.31,18.178,33.31,49.124
			C537.498,447.401,537.059,452.786,536.202,457.698z"/>
		<path fill="#FFFFFF" d="M517.908,255.938c0.497-1.43,2.07-2.297,3.687-2.297h3.829c2.501,0,4.655-2.112,4.655-4.907
			c0-3.895-2.154-5.158-8.484-5.158h-32.46c-6.043,0-8.18,1.263-8.18,5.158c0,2.794,2.137,4.907,4.781,4.907h3.398
			c1.16,0,2.584,0.867,2.938,2.297c0.521,1.388,0.683,2.088,0.683,6.833v79.448c0,4.386-0.162,5.235-0.683,6.54
			c-0.353,1.179-1.777,2.256-2.938,2.256h-3.398c-2.46,0-4.386,2.136-4.386,4.721c0,3.913,1.926,5.074,7.784,5.074h66.116
			c3.542,0,5.547-1.185,6.253-4.41l2.71-13.642c0.934-4.511-0.64-6.958-3.847-6.958c-1.699,0-3.561,1.035-4.745,3.333
			c-0.203,0.353-0.515,1.119-1.508,3.213c-2.172,4.553-6.605,6.516-12.876,6.516h-9.896c-7.061,0-9.747-0.329-11.549-1.573
			c-2.069-1.197-2.405-2.998-2.405-10.722v-73.793C517.388,258.194,517.388,257.117,517.908,255.938z"/>
		<path fill="#FFFFFF" d="M410.597,540.943c-2.734,0-4.122,0.371-4.122,2.585v37.533c0,1.861,1.221,2.508,3.542,2.508
			c2.195,0,4.2-0.15,4.2-2.489v-12.296c0-1.676,1.095-3.123,2.507-3.123c2.525,0,4.368,0.245,6.211,1.843l13.517,14.426
			c0.909,1.101,1.885,1.657,5.444,1.657c3.351,0,5.463-1.244,3.165-3.745c-1.531-1.658-16.143-17.766-16.143-17.766
			c-1.035-1.137-1.412-2.357,0.102-3.661c0,0,12.17-11.016,13.247-12.068c1.55-1.532,0.934-3.022-0.454-4.351
			c-1.676-1.609-3.435-1.633-5.176-0.144c0,0-13.87,12.732-15.234,13.894c-1.221,1.053-1.926,1.759-5.217,1.759
			c-1.137,0-1.969-0.892-1.969-2.71v-11.326C414.217,541.439,412.751,540.943,410.597,540.943z"/>
		<path fill="#FFFFFF" d="M658.675,356.399l2.71-13.642c0.934-4.511-0.64-6.935-3.829-6.935c-1.718,0-3.578,1.011-4.757,3.309
			c-0.209,0.353-0.521,1.143-1.514,3.213c-2.172,4.553-6.605,6.516-12.876,6.516l-17.472,0.043c-5.756,0-8.197-0.371-10.453-1.221
			c-2.776-1.077-3.333-3.04-3.333-12.338v-22.27c0-3.955,0.557-5.654,1.616-6.36c0.808-0.556,2.111-0.682,7.144-0.682h8.113
			c7.39,0,8.442,0.521,8.964,4.039l0.185,1.161c0.539,2.979,2.112,4.571,4.763,4.571c3.68,0,4.906-2.112,4.906-8.257v-14.761
			c0-6.169-1.227-8.257-4.906-8.257c-2.65,0-4.224,1.406-4.763,4.386l-0.126,1.077c-0.538,3.518-1.592,4.057-8.963,4.057h-8.173
			c-5.032,0-6.337-0.125-7.145-0.682c-1.06-0.706-1.615-2.423-1.615-6.354v-20.87c0-9.334,1.077-10.597,10.662-10.597h16.556
			c8.18,0,11.722,0.556,13.439,5.074c0.808,2.154,1.531,3.435,1.734,3.788c1.186,2.297,2.818,2.734,4.518,2.734
			c3.207,0,4.799-2.423,3.848-6.935l-2.483-12.218c-0.724-3.225-2.71-4.41-6.252-4.41h-70.155c-5.918,0-8.072,1.262-8.072,5.158
			c0,2.609,2.154,4.906,4.512,4.906h3.561c1.035,0,2.447,1.053,2.817,2.609c0.539,1.424,0.683,2.339,0.683,6.893v78.58
			c0,4.739-0.144,5.606-0.683,7.037c-0.37,1.179-1.598,2.255-2.817,2.255h-3.561c-2.357,0-4.368,2.136-4.368,4.721
			c0,3.913,2.011,5.092,7.929,5.092h68.916l4.487-0.019C655.964,360.809,657.974,359.624,658.675,356.399L658.675,356.399z"/>
		<path fill="#FFFFFF" d="M649.34,511.076c5.05,0,9.131-4.099,9.131-9.155c0-5.092-4.081-9.166-9.131-9.166
			c-5.074,0-9.131,4.074-9.131,9.166C640.209,506.978,644.266,511.076,649.34,511.076z M649.31,494.573
			c0.004,0,0.008,0.001,0.013,0.001c0.004,0,0.008-0.001,0.012-0.001c0.001,0,0.002,0,0.003,0s0.002,0,0.003,0
			c4.141,0,7.18,3.088,7.18,7.348c0,4.267-3.039,7.33-7.18,7.33c-0.001,0-0.002,0-0.003,0s-0.002,0-0.003,0
			c-0.004,0-0.008-0.001-0.012-0.001c-0.005,0-0.009,0.001-0.013,0.001c-4.122,0-7.186-3.063-7.186-7.33
			C642.124,497.661,645.188,494.573,649.31,494.573z"/>
		<path fill="#FFFFFF" d="M606.469,490.499c-10.04,0-19.877-5.319-25.962-13.911l-2.524-3.477c-1.077-1.431-2.585-2.363-4.41-2.363
			c-3.123,0-5.547,2.363-5.547,5.486c0,0.867,0.126,2.465,0.455,3.519l4.434,17.573c1.035,4.206,2.483,5.821,5.421,5.821
			c1.556,0,2.423-0.353,4.081-1.615c1.508-1.388,2.256-1.741,3.745-1.741c0.993,0,1.28,0.186,3.806,0.867
			c5.014,1.574,11.967,2.489,18.446,2.489h0.001c23.203,0,38.359-13.414,38.359-33.722c0-9.029-3.561-17.807-9.502-23.952
			c-5.654-5.773-10.208-9.298-24.077-18.961c-3.746-2.608-6.522-4.619-8.694-6.169c-3.476-2.65-6.294-5.427-8.071-8.077
			c-1.448-1.945-1.902-4.613-1.902-7.198c0-7.204,5.253-11.823,13.372-11.823c5.751,0,11.8,1.968,16.515,5.654
			c3.668,2.83,4.41,3.519,8.364,9.501c1.616,2.256,2.776,2.956,4.661,2.956c2.998,0,5.051-1.902,5.051-4.2
			c0-0.557,0-1.615-0.312-2.441l-4.2-19.003c-0.706-3.147-2.363-4.906-4.948-4.906c-1.412,0-1.969,0.144-3.71,1.406
			c-1.531,1.017-2.872,1.592-4.032,1.592c-0.683,0-1.598-0.186-2.406-0.347c-2.482-0.563-3.913-0.891-4.445-1.077
			c-5.115-1.101-10.189-1.573-15.156-1.573c-19.355,0-32.315,11.261-32.315,28.295c0,7.019,2.261,13.313,6.688,18.447
			c5.463,6.288,7.019,7.348,23.659,19.003c10.105,7.019,14.826,10.89,18.632,15.09c3.746,4.225,5.714,8.425,5.714,13.188
			C625.657,484.12,617.873,490.499,606.469,490.499z"/>
		<path fill="#FFFFFF" d="M340.795,208.843c-1.7,6.294,2.088,9.873,7.97,7.348c19.518-8.383,24.34,3.315,40.92,9.854
			c7.39,2.98,16.335,2.28,21.199,1.305c4.081-0.79,4.099,3.291,1.801,4.081c-11.117,3.764-22.461,9.538-29.169,14.552
			c-16.041,10.722-25.315,29.725-25.315,54.401c0,38.359,23.664,63.49,60.014,63.49c37.24,0,60.898-25.13,60.898-64.399
			c0-22.569-7.18-39.418-21.57-50.015c-8.341-6.151-15.939-8.795-23.7-7.886c-9.418,1.119-10.662,8.257-3.356,10.968
			c15.096,5.798,21.115,22.234,21.115,47.658c0,30.844-12.667,50.464-32.849,50.464c-20.744,0-33.017-18.896-33.017-50.093
			c0-20.123,2.872-35.96,17.077-49.89c14.223-13.929,27.487-11.943,40.43-28.63c5.48-7.079,5.421-13.164,1.238-14.342
			c-3.913-1.119-6.414,4.057-10.268,6.558c-13.995,9.131-29.809,0.623-38.294-8.897c-8.634-9.687-19.853-9.316-26.476-7.886
			c-2.86,0.64-4.452-1.64-1.329-4.021c7.145-5.439,21.78-5.792,30.785,2.381c7.7,6.977,18.01,12.523,25.65,11.075
			c4.529-0.867,4.942-6.085-0.251-7.928c-14.468-5.152-13.062-21.588-32.957-27.26c-1.393-0.399-2.775-0.69-4.149-0.894h-9.02
			C360.307,173.456,345.542,191.211,340.795,208.843z"/>
		<path fill="#FFFFFF" d="M645.881,506.995h1.796v-4.326h0.023h0.006h1.005h0.024h0.006l3.063,4.326h2.076l-3.1-4.368
			c1.55-0.167,2.729-0.993,2.729-3.123c0-2.196-1.137-3.189-3.644-3.189h-3.985V506.995z M647.7,497.99h0.024h0.006h1.621h0.024
			h0.006c1.202,0,2.423,0.293,2.423,1.514c0,1.406-1.322,1.49-2.836,1.49h-0.006h-0.024h-1.208h-0.006H647.7V497.99z"/>
		<path fill="#FFFFFF" d="M287.883,540.716c-1.741,0-2.717,0.85-3.231,1.969l-18.489,38.354c-1.113,2.363,2.423,2.489,3.5,2.489
			c1.221,0,3.854-0.21,4.392-1.556l2.417-4.613c0.623-1.556,1.616-2.382,2.71-2.382h17.412c0.891,0,1.615,0.599,1.968,1.347
			l2.729,5.648c0.604,1.405,2.549,1.615,3.835,1.615c1.281,0,5.091-0.353,4.176-2.315c-0.497-1.102-18.154-38.736-18.154-38.736
			C290.57,541.296,289.618,540.716,287.883,540.716z M294.096,567.202c-0.062,0.554-0.619,0.928-1.18,0.928h-0.054h-10.147h-0.054
			c-0.731,0-1.217-0.374-1.212-0.99c0.002-0.205,0.058-0.438,0.178-0.692c0.287-0.616,4.553-9.19,5.05-10.411
			c0.22-0.554,0.634-0.811,1.052-0.804c0.005,0,0.01-0.001,0.015-0.001c0.005,0,0.01,0.001,0.015,0.001
			c0.004,0,0.008-0.002,0.012-0.002c0.414,0.003,0.833,0.266,1.072,0.763c0.515,1.119,4.84,10.063,5.134,10.603v0.001
			C294.082,566.813,294.117,567.018,294.096,567.202z"/>
		<path fill="#FFFFFF" d="M368.324,567.396c2.214-1.879,7.742-4.386,7.742-12.044c0-8.861-6.462-14.391-15.048-14.391h-22.234
			c-0.934,0-1.802,0.604-1.802,1.616l-0.06,38.652c0,1.879,0.928,2.357,2.609,2.357c1.28,0,5.169,0.329,5.169-1.676l-0.06-10.165
			c0-1.137,1.077-2.07,2.214-2.07h9.376c1.472,0,2.549,0.724,3.297,1.86l6.558,10.19c0.976,1.447,2.489,1.843,4.745,1.843
			c4.033,0,5.211-1.287,3.907-3.231c-0.868-1.286-6.785-9.873-7.12-10.375C366.96,569.012,367.229,568.354,368.324,567.396z
			 M361.161,562.322c-0.267,0.019-0.538,0.027-0.812,0.027h-13.002c-1.347,0-2.753-0.867-2.753-2.357v-0.002v-9.481v-0.003
			c0-1.675,1.406-2.147,2.753-2.147h0.029h0.024h12.948h0.029h0.024c4.367,0,7.928,2.298,7.928,6.994
			C368.33,559.774,365.174,562.068,361.161,562.322z"/>
		<path fill="#FFFFFF" d="M142.044,354.49c2.423,6.666,4.924,8.777,10.016,8.777c2.298,0,4.602-0.885,5.983-1.92
			c1.43-1.43,1.867-2.651,3.56-6.857c0,0,15.569-43.41,15.964-44.792c0.413-1.37,1.903-1.328,2.399,0.102
			c0.479,1.43,14.946,44.69,14.946,44.69c2.112,6.504,4.781,8.778,10.022,8.778c5.253,0,7.635-2.459,10.16-11.051l28.008-90.176
			c1.909-6.205,3.728-8.173,6.833-8.61c3.082-0.413,7.288,0.185,7.288,9.148v78.915c0,4.697,0,5.606-0.539,7.036
			c-0.335,1.221-1.783,2.094-3.021,2.094h-3.482c-2.417,0-4.553,2.298-4.553,4.9c0,3.896,2.136,5.098,8.036,5.098h32.023
			c5.589,0,7.599-1.203,7.599-4.889c0-2.812-1.801-5.11-4.224-5.11h-3.375c-1.448,0-2.818-0.874-3.356-2.094
			c-0.329-1.43-0.473-2.465-0.473-7.037v-26.704c0-8.113,0.7-8.801,7.204-8.801h23.868c3.494,0,5.302,0.563,6.187,1.598
			c0.809,1.053,0.809,1.735,0.809,8.257v25.651c0,4.571,0,5.606-0.432,7.037c-0.622,1.22-2.01,2.094-3.213,2.094h-3.351
			c-2.423,0-4.553,2.298-4.553,4.9c0,3.896,1.902,5.098,7.903,5.098h31.945c6.188,0,8.113-1.203,8.113-5.098
			c0-2.603-1.926-4.9-4.535-4.9h-3.578c-1.202,0-2.608-0.874-2.985-2.094c-0.497-1.43-0.616-2.465-0.616-7.037V262.58
			c0-4.386,0.119-5.606,0.616-6.911c0.377-1.161,1.783-2.238,2.985-2.238h3.578c2.399,0,4.535-2.088,4.535-4.966
			c0-3.854-2.136-5.032-8.113-5.032H316.28c-6.001,0-8.131,1.179-8.131,5.032c0,2.878,2.13,4.966,4.78,4.966h3.351
			c1.203,0,2.591,0.892,3.213,2.238c0.432,1.304,0.432,2.339,0.432,6.911v21.612c0,6.522,0,7.204-0.809,8.281
			c-0.885,1.017-2.692,1.574-6.187,1.574h-23.868c-6.504,0-7.204-0.682-7.204-8.796V262.58c0-4.386,0.143-5.606,0.473-6.911
			c0.539-1.161,1.909-2.238,3.356-2.238h3.375c2.423,0,4.344-2.088,4.344-4.966c0-3.854-1.92-5.032-7.718-5.032h-60.905
			c-4.673,0-6.683,1.388-6.683,4.907c0,2.794,1.777,4.553,5.648,4.906c4.266,0.539,6.151,1.945,6.151,4.577
			c0,1.053-0.186,2.459-0.682,4.218c0,0-16.831,56.537-19.482,65.147c-0.431,1.406-1.944,1.759-2.459,0.167
			c-2.692-8.467-19.709-62.311-19.709-62.311c-1.448-4.225-1.801-5.798-1.801-7.39c0-3.147,1.263-4.224,5.941-4.763
			c3.913-0.557,5.69-1.927,5.69-4.721c0-3.166-1.945-4.739-5.941-4.739h-34.488c-4.099,0-6.127,1.927-6.127,5.301
			c0,2.609,1.388,3.806,5.014,4.697c4.057,1.077,5.481,2.01,6.516,4.577c0.395,0.724,0.79,2.13,1.454,4.033
			c0,0,5.941,17.514,6.33,18.776c1.119,3.584,0.707,6.857-0.245,9.962c-0.335,1.095-9.609,28.026-13.02,37.815
			c-0.539,1.574-2.136,1.64-2.651,0.228c-3.063-8.837-22.461-63.777-22.461-63.777l-1.388-4.015c-0.497-1.448-0.64-2.71-0.64-3.913
			c0-2.794,1.574-4.039,5.445-4.386c4.553-0.395,6.331-1.598,6.331-4.559c0-3.166-1.777-4.739-5.774-4.739H99.46
			c-4.033,0-5.899,1.574-5.899,4.554c0,2.836,1.161,4.057,4.906,4.745c5.63,1.221,6.462,2.088,9.089,9.31h0L142.044,354.49z"/>
		<path fill="#FFFFFF" d="M195.966,583.587c1.825,0,4.039-0.353,4.308-2.154l2.92-21.797c0.102-0.868,0.479-1.532,1.221-1.532
			c0.479,0,0.934,0.144,1.346,0.664l9.316,12.565c0.658,0.969,1.161,1.263,2.316,1.263c0.808,0,1.49-0.438,2.01-1.137l10.124-12.961
			c0.413-0.52,0.724-0.808,1.322-0.808c0.748,0,1.095,0.413,1.286,1.347l2.98,22.539c0,1.412,2.004,2.011,3.082,2.011
			c1.472,0,4.847,0,4.637-2.154l-4.284-37.671c-0.623-2.466-1.699-2.801-3.166-2.801c-1.346,0-2.483,0.479-3.231,1.616
			l-12.212,16.604c-0.664,0.867-1.448,1.656-2.214,1.676c-0.766,0.023-1.472-0.725-2.094-1.616l-11.572-16.269
			c-1.011-1.573-2.316-1.801-3.124-1.801c-3.171,0-3.644,1.263-4.099,3.458l-4.284,36.744
			C192.556,582.988,194.704,583.587,195.966,583.587z"/>
		<path fill="#FFFFFF" d="M166.989,446.342c0.808-0.557,2.088-0.683,7.144-0.683h14.468c7.39,0,8.442,0.539,8.963,4.057l0.186,1.161
			c0.539,2.979,2.112,4.571,4.739,4.571c3.71,0,4.931-2.106,4.931-8.257v-14.779c0-6.151-1.221-8.263-4.931-8.263
			c-2.626,0-4.2,1.412-4.739,4.392l-0.126,1.095c-0.538,3.519-1.591,4.057-8.963,4.057h-14.528c-5.056,0-6.336-0.119-7.144-0.682
			c-1.077-0.725-1.633-2.424-1.633-6.354v-20.888c0-9.316,1.077-10.597,10.68-10.597H198.6c8.173,0,11.715,0.58,13.433,5.092
			c0.832,2.13,1.532,3.435,1.741,3.77c1.179,2.297,2.812,2.752,4.529,2.752c3.189,0,4.787-2.447,3.835-6.935l-2.489-12.218
			c-0.7-3.226-2.71-4.404-6.247-4.404h-76.18c-5.924,0-8.072,1.263-8.072,5.134c0,2.627,2.148,4.9,4.511,4.9h3.561
			c1.035,0,2.441,1.077,2.812,2.633c0.563,1.406,0.706,2.315,0.706,6.869v78.586c0,4.738-0.186,5.588-0.557,6.827
			c-0.58,1.405-1.765,2.321-2.961,2.321h-3.584c-2.417,0-4.529,2.256-4.529,4.906c0,3.871,2.112,5.092,8.114,5.092h32.334
			c6.48,0,8.634-1.221,8.634-5.092c0-2.65-1.909-4.906-4.661-4.906h-3.973c-1.406,0-3.003-0.916-3.746-2.321
			c-0.413-1.239-0.413-2.089-0.413-6.827h0.018l-0.06-28.631C165.355,448.765,165.912,447.065,166.989,446.342z"/>
		<path fill="#FFFFFF" d="M393.598,380.906c-28.834,0-49.1,15.958-55.537,42.291C338,423.221,338,423.261,338,423.304
			c-0.556,2.873-3.123,3.1-3.787,0.078c-6.313-26.326-26.913-42.476-55.873-42.476c-35.272,0-57.733,23.892-57.733,61.438
			c0,36.684,22.623,60.737,57.38,60.737c29.001,0,49.393-15.916,55.975-42.081c0.042-0.108,0.126-0.21,0.126-0.312
			c0.622-3.086,3.23-2.877,3.811,0.02c0.042,0.209,0.102,0.395,0.186,0.58c6.522,25.794,26.806,41.794,55.143,41.794l0.019-0.001
			c35.631,0,58.272-24.054,58.272-61.605C451.518,404.606,428.709,380.906,393.598,380.906z M309.974,442.184
			c0,21.185-6.256,36.842-16.946,43.974c-0.465,0.311-0.938,0.604-1.42,0.882c-0.962,0.556-1.958,1.045-2.986,1.468
			c-3.083,1.267-6.451,1.927-10.072,1.927c-0.015,0-0.029-0.001-0.044-0.001c-0.003,0-0.006,0-0.009,0
			c-19.853,0-31.586-18.069-31.586-47.921c0-30.533,11.925-48.955,31.233-48.955c0.004,0,0.008,0,0.012,0c0.004,0,0.008,0,0.012,0
			c0.001,0,0.002,0,0.003,0s0.002,0,0.003,0c0.004,0,0.008,0,0.012,0c0.004,0,0.008,0,0.012,0c6.088,0,11.475,1.834,16.003,5.266
			C304.162,406.373,309.974,421.66,309.974,442.184C309.974,442.183,309.974,442.183,309.974,442.184L309.974,442.184z
			 M425.196,442.184c0,21.185-6.256,36.842-16.94,43.974c-0.465,0.311-0.938,0.604-1.419,0.882
			c-0.962,0.556-1.957,1.045-2.983,1.468c-3.081,1.267-6.446,1.927-10.064,1.927c-0.015,0-0.029-0.001-0.044-0.001
			c-0.004,0-0.007,0-0.01,0c-19.847,0-31.61-18.069-31.61-47.921c0-30.533,11.949-48.955,31.264-48.955c0.004,0,0.008,0,0.012,0
			s0.008,0,0.012,0c0.001,0,0.002,0,0.003,0s0.002,0,0.003,0c0.004,0,0.008,0,0.012,0c0.005,0,0.009,0,0.013,0
			c6.086,0,11.47,1.834,15.995,5.266C419.393,406.373,425.196,421.66,425.196,442.184
			C425.196,442.183,425.196,442.183,425.196,442.184L425.196,442.184z"/>
	</g>
</g>
</svg>
