<svg enable-background="new -5 -5 410 410" height="410" viewBox="-5 -5 410 410" width="410" xmlns="http://www.w3.org/2000/svg"><path d="m75.737 139.504c-.735.05-1.46.195-2.157.435-.798.25-1.563.594-2.278 1.026-.812.497-1.525 1.14-2.104 1.896-.625.901-1.095 1.901-1.392 2.957-1.762 5.739-3.814 12.441-6.156 20.104-2.342 7.664-4.864 15.855-7.565 24.574h-3.478l-13.305-40.817-13.878 40.817h-3.287l-7.652-27.166-5.217-18.8c-.226-.734-.58-1.423-1.043-2.035-.484-.629-1.072-1.17-1.739-1.6-.679-.449-1.433-.772-2.226-.957-.74-.209-1.496-.354-2.261-.435v-2.644h21.565v2.644c-1.612.068-3.216.254-4.8.557-1.333.267-2 .725-2 1.374.006.332.041.664.104.991 0 .399.139.73.191.991.568 2.191 1.577 5.809 3.026 10.852 1.449 5.044 3.606 12.58 6.47 22.609l13.183-39.27h3.652l13.322 40.157c1.797-6.203 3.339-11.6 4.626-16.191s2.376-8.545 3.27-11.861c.603-2.319.974-3.907 1.113-4.765.137-.723.212-1.457.226-2.192-.11-.988-.792-1.819-1.739-2.122-1.785-.707-3.68-1.096-5.6-1.147v-2.626h19.13v2.644z"/><path d="m102.92 189.748h-23.826v-2.644l2.904-.243c.914-.036 1.82-.188 2.696-.453.7-.254 1.306-.715 1.739-1.322.394-.704.575-1.508.522-2.313v-38.261c.026-.751-.11-1.498-.4-2.191-.435-.718-1.124-1.246-1.931-1.479-.896-.327-1.814-.589-2.748-.782-.915-.227-1.845-.384-2.783-.47v-2.73h23.826v2.644c-.926.039-1.85.132-2.765.278-.936.141-1.86.35-2.766.626-.804.176-1.498.68-1.913 1.392-.329.695-.495 1.456-.487 2.226v38.261c-.017.765.169 1.521.539 2.191.426.691 1.067 1.224 1.826 1.513.834.284 1.689.505 2.557.661.984.214 1.985.348 2.991.4v2.644z"/><path d="m151.841 174.008-1.113 15.652h-41.339v-2.557l2.609-.243c.818-.052 1.626-.216 2.4-.487.679-.273 1.244-.77 1.6-1.409.371-.744.55-1.569.522-2.4v-37.878c.014-.771-.134-1.534-.435-2.243-.357-.734-.979-1.306-1.739-1.601-.768-.376-1.572-.673-2.4-.887-.834-.248-1.69-.417-2.557-.505v-2.591h22.365v2.644c-.907.057-1.808.185-2.695.383-.812.147-1.613.345-2.4.591-.774.233-1.409.792-1.739 1.53-.314.73-.474 1.519-.47 2.313v35.513c-.025 1.28.056 2.56.244 3.826.116.813.517 1.558 1.13 2.104.759.515 1.641.821 2.557.887 1.577.159 3.163.229 4.748.209h2.87c.95-.044 1.896-.143 2.835-.296.816-.134 1.619-.337 2.4-.609.607-.192 1.157-.533 1.6-.991 1.351-1.623 2.544-3.369 3.565-5.217 1.098-1.801 2.041-3.691 2.817-5.652h2.626v-.086z"/><path d="m198.92 174.008-1.113 15.652h-41.287v-2.557l2.592-.261c.818-.052 1.626-.216 2.4-.487.679-.273 1.243-.77 1.6-1.409.32-.764.445-1.594.365-2.417v-37.844c.014-.771-.134-1.534-.435-2.243-.358-.733-.979-1.304-1.739-1.601-.768-.376-1.572-.673-2.4-.887-.778-.238-1.575-.407-2.383-.505v-2.591h22.331v2.644c-.907.057-1.809.185-2.695.383-.812.147-1.613.345-2.4.591-.774.233-1.409.792-1.739 1.53-.314.73-.474 1.519-.47 2.313v35.513c-.025 1.28.056 2.56.244 3.826.116.813.517 1.558 1.13 2.104.759.515 1.641.821 2.556.887 1.578.159 3.163.228 4.748.209h2.87c.95-.044 1.896-.143 2.835-.296.816-.134 1.619-.337 2.4-.609.608-.191 1.158-.532 1.6-.991 1.32-1.626 2.485-3.373 3.478-5.217 1.098-1.8 2.041-3.691 2.817-5.652h2.661z"/><path d="m227.007 189.748h-23.809v-2.644l2.904-.226c.914-.035 1.819-.188 2.695-.452.7-.255 1.307-.715 1.739-1.322.409-.706.604-1.516.557-2.331v-38.261c.025-.751-.11-1.498-.4-2.191-.435-.718-1.123-1.246-1.93-1.479-.907-.329-1.838-.59-2.783-.782-.913-.238-1.844-.407-2.782-.505v-2.695h23.809v2.644c-.927.039-1.85.132-2.765.278-.947.133-1.884.336-2.801.608-.811.196-1.5.728-1.896 1.461-.308.707-.45 1.474-.417 2.243v38.262c-.017.765.17 1.521.539 2.191.431.694 1.078 1.226 1.844 1.513.834.285 1.688.505 2.556.661.985.214 1.985.348 2.991.4v2.644z"/><path d="m287.146 189.748h-21.983v-2.644c1.622-.078 3.231-.329 4.8-.748 1.275-.371 1.914-.829 1.914-1.374.019-.267.019-.534 0-.8-.045-.292-.12-.577-.227-.852l-4.452-11.965h-18.505c-.695 1.739-1.275 3.252-1.738 4.54-.465 1.287-.858 2.481-1.184 3.583-.271.857-.498 1.728-.678 2.608-.109.527-.174 1.063-.191 1.6.182 1.207 1.139 2.149 2.348 2.313 1.686.569 3.441.896 5.218.974v2.644h-19.792v-2.522c.811-.082 1.613-.228 2.4-.435.848-.185 1.658-.508 2.4-.957.889-.588 1.671-1.323 2.313-2.174.658-.944 1.195-1.966 1.6-3.043 2.668-6.632 5.601-14.099 8.801-22.4 3.199-8.301 6.058-15.658 8.574-22.07h2.99l17.601 45.601c.304.841.731 1.633 1.27 2.348.569.677 1.237 1.264 1.983 1.739.695.396 1.445.689 2.226.87.755.212 1.53.346 2.313.4v2.644.12zm-21.269-21.601-8-20.521-7.896 20.521z"/><path d="m357.303 189.748h-23.392v-2.644c1.094-.018 2.187-.105 3.27-.261.945-.049 1.875-.261 2.748-.626.702-.383 1.3-.932 1.739-1.6.383-.703.568-1.496.539-2.296v-38.505h-.574l-18.069 45.079h-1.826l-17.218-46.035h-.521v31.6c-.066 2.333.126 4.666.574 6.957.209 1.311.816 2.525 1.739 3.479 1.033.751 2.222 1.262 3.478 1.496 1.097.343 2.219.593 3.356.748v2.644h-21.356v-2.678c1.17-.11 2.332-.296 3.479-.557 1.033-.187 2.01-.609 2.852-1.234.93-.836 1.543-1.966 1.74-3.2.395-2.378.557-4.79.486-7.2v-27.096c.043-1.304-.146-2.605-.557-3.843-.33-.919-.879-1.742-1.6-2.4-.797-.696-1.734-1.212-2.748-1.513-1.064-.307-2.162-.487-3.27-.539v-2.661h18.035l15.096 39.722 12.922-33.218c.478-1.249.878-2.527 1.199-3.825.259-.872.45-1.761.574-2.661h17.252v2.626c-.894.048-1.782.158-2.661.33-.812.13-1.613.315-2.399.557-.771.219-1.407.766-1.739 1.496-.305.721-.458 1.496-.452 2.278v38.139c-.018.75.137 1.493.452 2.174.396.704 1.005 1.265 1.739 1.6.762.346 1.57.581 2.399.695.896.178 1.803.294 2.714.348v2.644z"/><path d="m396.711 165.487c1.094 1.202 1.939 2.609 2.487 4.139.568 1.679.84 3.445.8 5.217.095 4.44-1.823 8.685-5.218 11.548-3.558 3.086-8.144 4.725-12.852 4.591-2.401-.005-4.788-.375-7.078-1.096-2.132-.647-4.176-1.553-6.087-2.696l-1.601 2.713h-2.991l-.521-18.243h3.009c.566 2.073 1.299 4.097 2.191 6.052.854 1.83 1.968 3.529 3.304 5.043 1.271 1.438 2.806 2.62 4.522 3.478 1.875.902 3.937 1.35 6.017 1.305 1.529.028 3.052-.201 4.505-.678 2.306-.721 4.124-2.507 4.887-4.8.403-1.234.598-2.528.574-3.826.017-2.1-.588-4.157-1.739-5.913-1.296-1.908-3.157-3.361-5.322-4.156-1.6-.638-3.449-1.351-5.548-2.139-2.099-.789-3.901-1.525-5.408-2.209-2.721-1.127-5.112-2.921-6.957-5.217-1.746-2.487-2.615-5.486-2.469-8.521-.008-1.942.42-3.862 1.252-5.618.836-1.77 2.019-3.354 3.479-4.66 1.492-1.326 3.221-2.358 5.095-3.044 1.959-.729 4.032-1.102 6.122-1.096 2.229-.037 4.447.34 6.539 1.113 1.817.705 3.563 1.578 5.218 2.608l1.53-2.539h2.991l.296 17.565h-2.957c-.514-1.955-1.129-3.882-1.843-5.774-.652-1.773-1.548-3.447-2.661-4.974-1.037-1.43-2.372-2.616-3.913-3.479-1.749-.906-3.701-1.35-5.67-1.286-2.229-.043-4.39.772-6.034 2.278-1.617 1.398-2.528 3.445-2.487 5.583-.078 2.017.482 4.006 1.6 5.687 1.217 1.611 2.828 2.881 4.679 3.687 1.746.843 3.534 1.598 5.356 2.261 1.751.638 3.449 1.316 5.096 2.035 1.461.658 2.878 1.407 4.243 2.244 1.314.766 2.514 1.715 3.564 2.817z"/><path d="m79.702 238.86c1.087 1.188 1.932 2.576 2.487 4.087.569 1.679.839 3.444.8 5.218.095 4.439-1.823 8.684-5.217 11.547-3.565 3.068-8.151 4.688-12.852 4.539-2.401-.006-4.788-.375-7.079-1.096-2.141-.628-4.196-1.516-6.122-2.643l-1.583 2.678h-2.991l-.522-18.104h3.009c.567 2.073 1.299 4.097 2.191 6.052.855 1.831 1.968 3.529 3.304 5.044 1.27 1.439 2.805 2.62 4.522 3.479 1.875.903 3.937 1.351 6.017 1.304 1.529.029 3.052-.2 4.504-.678 1.179-.399 2.246-1.072 3.113-1.965.786-.829 1.38-1.82 1.739-2.904.403-1.234.597-2.527.574-3.826.018-2.1-.587-4.158-1.739-5.913-1.294-1.909-3.156-3.362-5.322-4.157-1.635-.591-3.496-1.275-5.583-2.052s-3.884-1.507-5.391-2.191c-2.721-1.126-5.113-2.921-6.957-5.218-1.753-2.484-2.628-5.483-2.487-8.521-.009-1.936.413-3.849 1.235-5.601.836-1.771 2.019-3.355 3.479-4.661 1.492-1.325 3.221-2.358 5.096-3.043 1.969-.734 4.055-1.105 6.156-1.096 2.23-.037 4.447.341 6.539 1.113 1.817.704 3.564 1.577 5.217 2.608l1.531-2.539h2.991l.295 17.564h-2.936c-.513-1.955-1.128-3.882-1.843-5.773-.652-1.778-1.547-3.458-2.661-4.991-1.037-1.43-2.372-2.616-3.913-3.479-1.748-.907-3.701-1.351-5.669-1.286-2.227-.048-4.387.762-6.035 2.261-1.614 1.388-2.531 3.419-2.504 5.548-.078 2.017.482 4.006 1.6 5.687 1.209 1.615 2.814 2.892 4.661 3.704 1.747.844 3.534 1.598 5.356 2.261 1.751.638 3.449 1.316 5.096 2.035 1.477.639 2.912 1.37 4.296 2.19 1.325.766 2.538 1.714 3.598 2.818z"/><path d="m131.476 216.582c2.387 2.505 4.25 5.461 5.479 8.695 1.357 3.655 2.029 7.528 1.982 11.427.051 3.906-.633 7.789-2.017 11.443-1.251 3.251-3.157 6.211-5.6 8.695-2.282 2.365-5.022 4.24-8.052 5.514-6.403 2.633-13.595 2.589-19.965-.123-3.025-1.307-5.745-3.232-7.982-5.651-2.303-2.561-4.076-5.552-5.217-8.8-1.293-3.537-1.941-7.277-1.913-11.044-.093-3.907.556-7.796 1.913-11.461 1.269-3.23 3.153-6.184 5.548-8.695 2.295-2.411 5.067-4.318 8.139-5.6 6.279-2.605 13.337-2.605 19.617 0 3.05 1.283 5.799 3.191 8.068 5.6zm-5.547 37.478c1.438-2.373 2.467-4.972 3.043-7.687 1.307-6.46 1.271-13.12-.104-19.564-.591-2.743-1.644-5.366-3.113-7.757-1.31-2.047-3.102-3.743-5.217-4.939-2.165-1.194-4.606-1.794-7.078-1.739-2.68-.08-5.324.634-7.6 2.053-2.069 1.403-3.779 3.273-4.991 5.461-1.324 2.4-2.263 4.994-2.783 7.687-.616 3.039-.919 6.134-.904 9.234-.031 3.256.296 6.504.974 9.688.579 2.717 1.614 5.315 3.061 7.687 1.251 2.098 2.994 3.858 5.079 5.131 2.219 1.274 4.746 1.912 7.304 1.843 2.523.039 5.011-.604 7.2-1.86 2.126-1.282 3.892-3.084 5.129-5.238z"/><path d="m195.633 212.912c-1.083.093-2.155.291-3.2.592-1.083.235-2.126.628-3.095 1.165-1.031.917-1.656 2.205-1.739 3.583-.346 2.22-.503 4.466-.47 6.713v38.695h-3.304l-32.052-43.27v27.27c-.064 2.362.128 4.724.574 7.044.214 1.309.82 2.521 1.739 3.478 1.032.761 2.22 1.283 3.479 1.53 1.137.344 2.3.594 3.478.748v2.644h-21.53v-2.608c1.178-.145 2.342-.389 3.478-.73 1.06-.211 2.073-.611 2.991-1.183.929-.837 1.543-1.966 1.739-3.2.399-2.419.563-4.871.487-7.322v-25.999c.002-1.185-.198-2.361-.591-3.479-.309-.999-.858-1.906-1.6-2.644-1.07-.922-2.303-1.636-3.635-2.104-1.181-.5-2.429-.822-3.705-.956v-2.609h15.061l29.739 40.33v-25.164c.066-2.38-.132-4.76-.591-7.096-.183-1.269-.797-2.436-1.739-3.305-1.084-.63-2.256-1.094-3.479-1.374-1.172-.368-2.378-.618-3.6-.748v-2.644h21.583v2.644h-.018z"/><path d="m238.52 216.582c2.387 2.505 4.25 5.461 5.479 8.695 1.357 3.655 2.029 7.528 1.982 11.427.051 3.906-.633 7.789-2.018 11.443-1.251 3.251-3.156 6.211-5.6 8.695-2.283 2.364-5.022 4.24-8.053 5.514-6.361 2.647-13.516 2.647-19.878 0-3.042-1.336-5.767-3.297-8-5.758-2.303-2.56-4.076-5.551-5.217-8.799-1.293-3.537-1.941-7.277-1.913-11.044-.067-3.919.612-7.813 2-11.479 1.269-3.23 3.153-6.184 5.547-8.695 2.296-2.411 5.068-4.318 8.14-5.6 6.28-2.605 13.338-2.605 19.618 0 2.995 1.303 5.689 3.209 7.913 5.601zm-5.479 37.478c1.439-2.373 2.469-4.971 3.044-7.687 1.308-6.46 1.271-13.12-.104-19.564-.592-2.743-1.645-5.366-3.113-7.757-1.311-2.047-3.102-3.743-5.217-4.939-2.164-1.194-4.607-1.794-7.078-1.739-2.681-.08-5.324.634-7.6 2.053-2.11 1.395-3.857 3.272-5.096 5.479-1.324 2.4-2.264 4.994-2.783 7.687-.617 3.039-.92 6.133-.904 9.234-.012 3.251.332 6.494 1.025 9.67.58 2.717 1.615 5.315 3.062 7.687 1.251 2.097 2.994 3.858 5.078 5.131 2.219 1.274 4.747 1.912 7.304 1.843 2.513.033 4.987-.609 7.166-1.86 2.159-1.271 3.956-3.074 5.216-5.238z"/><path d="m311.842 263.173h-23.357v-2.66c1.095-.019 2.188-.105 3.27-.262.939-.051 1.863-.263 2.73-.625.703-.383 1.301-.932 1.74-1.601.383-.702.569-1.496.539-2.296v-38.469h-.557l-18.053 45.043h-1.861l-17.164-46h-.487v31.582c-.048 2.336.161 4.668.626 6.957.209 1.311.816 2.524 1.739 3.479 1.034.75 2.222 1.262 3.478 1.495 1.097.343 2.219.593 3.357.748v2.626h-21.392v-2.66c1.17-.111 2.332-.298 3.478-.557 1.033-.188 2.01-.61 2.854-1.235.928-.837 1.541-1.966 1.738-3.2.395-2.379.557-4.789.487-7.199v-27.078c.042-1.305-.147-2.605-.557-3.844-.33-.918-.88-1.742-1.601-2.4-.822-.701-1.791-1.212-2.834-1.495-1.082-.315-2.197-.503-3.322-.557v-2.696h18l15.148 39.688 12.956-33.2c.478-1.25.878-2.527 1.2-3.826.246-.872.427-1.762.539-2.661h17.252v2.644c-.894.048-1.782.158-2.66.331-.813.129-1.614.315-2.4.557-.771.219-1.407.766-1.739 1.495-.305.721-.458 1.496-.452 2.278v38.121c-.021.756.135 1.506.452 2.191.396.705 1.005 1.266 1.739 1.601.762.348 1.57.582 2.4.695.895.178 1.802.294 2.713.349v2.66-.019z"/><path d="m369.72 263.173h-21.896v-2.66c1.622-.079 3.23-.33 4.8-.748 1.275-.371 1.913-.829 1.913-1.374.019-.267.019-.534 0-.8-.044-.292-.119-.578-.226-.853l-4.383-11.86h-18.678c-.695 1.738-1.275 3.252-1.739 4.539s-.857 2.48-1.183 3.582c-.271.857-.498 1.729-.678 2.609-.11.526-.174 1.062-.191 1.6.182 1.207 1.139 2.148 2.348 2.313 1.685.568 3.441.896 5.218.975v2.643h-19.826v-2.643c.81-.082 1.612-.229 2.399-.436.848-.185 1.658-.508 2.4-.956.883-.567 1.664-1.279 2.313-2.104.656-.944 1.194-1.967 1.6-3.043 2.667-6.633 5.6-14.099 8.8-22.4s6.059-15.669 8.574-22.104h3.061l17.601 45.601c.303.842.73 1.633 1.27 2.348.568.677 1.236 1.264 1.982 1.738.695.402 1.444.701 2.226.888.756.212 1.53.346 2.313.399v2.645zm-21.27-21.6-8-20.521-7.896 20.521z"/></svg>