<?xml version="1.0" encoding="utf-8"?>
<!-- Generator: Adobe Illustrator 16.0.0, SVG Export Plug-In . SVG Version: 6.00 Build 0)  -->
<!DOCTYPE svg PUBLIC "-//W3C//DTD SVG 1.1//EN" "http://www.w3.org/Graphics/SVG/1.1/DTD/svg11.dtd">
<svg version="1.1" id="Layer_1" xmlns="http://www.w3.org/2000/svg" xmlns:xlink="http://www.w3.org/1999/xlink" x="0px" y="0px"
	 width="410px" height="410px" viewBox="-5 -5 410 410" enable-background="new -5 -5 410 410" xml:space="preserve">
<title>logo</title>
<g>
	<path d="M75.737,139.504c-0.735,0.05-1.46,0.195-2.157,0.435c-0.798,0.25-1.563,0.594-2.278,1.026
		c-0.812,0.497-1.525,1.14-2.104,1.896c-0.625,0.901-1.095,1.901-1.392,2.957c-1.762,5.739-3.814,12.441-6.156,20.104
		c-2.342,7.664-4.864,15.855-7.565,24.574h-3.478l-13.305-40.817l-13.878,40.817h-3.287l-7.652-27.166l-5.217-18.8
		c-0.226-0.734-0.58-1.423-1.043-2.035c-0.484-0.629-1.072-1.17-1.739-1.6c-0.679-0.449-1.433-0.772-2.226-0.957
		c-0.74-0.209-1.496-0.354-2.261-0.435v-2.644h21.565v2.644c-1.612,0.068-3.216,0.254-4.8,0.557c-1.333,0.267-2,0.725-2,1.374
		c0.006,0.332,0.041,0.664,0.104,0.991c0,0.399,0.139,0.73,0.191,0.991c0.568,2.191,1.577,5.809,3.026,10.852
		c1.449,5.044,3.606,12.58,6.47,22.609l13.183-39.27h3.652l13.322,40.157c1.797-6.203,3.339-11.6,4.626-16.191
		c1.287-4.591,2.376-8.545,3.27-11.861c0.603-2.319,0.974-3.907,1.113-4.765c0.137-0.723,0.212-1.457,0.226-2.192
		c-0.11-0.988-0.792-1.819-1.739-2.122c-1.785-0.707-3.68-1.096-5.6-1.147v-2.626h19.13V139.504L75.737,139.504z"/>
	<path d="M102.92,189.748H79.094v-2.644l2.904-0.243c0.914-0.036,1.82-0.188,2.696-0.453c0.7-0.254,1.306-0.715,1.739-1.322
		c0.394-0.704,0.575-1.508,0.522-2.313v-38.261c0.026-0.751-0.11-1.498-0.4-2.191c-0.435-0.718-1.124-1.246-1.931-1.479
		c-0.896-0.327-1.814-0.589-2.748-0.782c-0.915-0.227-1.845-0.384-2.783-0.47v-2.73h23.826v2.644
		c-0.926,0.039-1.85,0.132-2.765,0.278c-0.936,0.141-1.86,0.35-2.766,0.626c-0.804,0.176-1.498,0.68-1.913,1.392
		c-0.329,0.695-0.495,1.456-0.487,2.226v38.261c-0.017,0.765,0.169,1.521,0.539,2.191c0.426,0.691,1.067,1.224,1.826,1.513
		c0.834,0.284,1.689,0.505,2.557,0.661c0.984,0.214,1.985,0.348,2.991,0.4v2.644l0,0L102.92,189.748z"/>
	<path d="M151.841,174.008l-1.113,15.652h-41.339v-2.557l2.609-0.243c0.818-0.052,1.626-0.216,2.4-0.487
		c0.679-0.273,1.244-0.77,1.6-1.409c0.371-0.744,0.55-1.569,0.522-2.4v-37.878c0.014-0.771-0.134-1.534-0.435-2.243
		c-0.357-0.734-0.979-1.306-1.739-1.601c-0.768-0.376-1.572-0.673-2.4-0.887c-0.834-0.248-1.69-0.417-2.557-0.505v-2.591h22.365
		v2.644c-0.907,0.057-1.808,0.185-2.695,0.383c-0.812,0.147-1.613,0.345-2.4,0.591c-0.774,0.233-1.409,0.792-1.739,1.53
		c-0.314,0.73-0.474,1.519-0.47,2.313v35.513c-0.025,1.28,0.056,2.56,0.244,3.826c0.116,0.813,0.517,1.558,1.13,2.104
		c0.759,0.515,1.641,0.821,2.557,0.887c1.577,0.159,3.163,0.229,4.748,0.209c0.916,0,1.873,0,2.87,0
		c0.95-0.044,1.896-0.143,2.835-0.296c0.816-0.134,1.619-0.337,2.4-0.609c0.607-0.192,1.157-0.533,1.6-0.991
		c1.351-1.623,2.544-3.369,3.565-5.217c1.098-1.801,2.041-3.691,2.817-5.652h2.626V174.008z"/>
	<path d="M198.92,174.008l-1.113,15.652H156.52v-2.557l2.592-0.261c0.818-0.052,1.626-0.216,2.4-0.487
		c0.679-0.273,1.243-0.77,1.6-1.409c0.32-0.764,0.445-1.594,0.365-2.417v-37.844c0.014-0.771-0.134-1.534-0.435-2.243
		c-0.358-0.733-0.979-1.304-1.739-1.601c-0.768-0.376-1.572-0.673-2.4-0.887c-0.778-0.238-1.575-0.407-2.383-0.505v-2.591h22.331
		v2.644c-0.907,0.057-1.809,0.185-2.695,0.383c-0.812,0.147-1.613,0.345-2.4,0.591c-0.774,0.233-1.409,0.792-1.739,1.53
		c-0.314,0.73-0.474,1.519-0.47,2.313v35.513c-0.025,1.28,0.056,2.56,0.244,3.826c0.116,0.813,0.517,1.558,1.13,2.104
		c0.759,0.515,1.641,0.821,2.556,0.887c1.578,0.159,3.163,0.228,4.748,0.209c0.916,0,1.873,0,2.87,0
		c0.95-0.044,1.896-0.143,2.835-0.296c0.816-0.134,1.619-0.337,2.4-0.609c0.608-0.191,1.158-0.532,1.6-0.991
		c1.32-1.626,2.485-3.373,3.478-5.217c1.098-1.8,2.041-3.691,2.817-5.652h2.661L198.92,174.008z"/>
	<path d="M227.007,189.748h-23.809v-2.644l2.904-0.226c0.914-0.035,1.819-0.188,2.695-0.452c0.7-0.255,1.307-0.715,1.739-1.322
		c0.409-0.706,0.604-1.516,0.557-2.331v-38.261c0.025-0.751-0.11-1.498-0.4-2.191c-0.435-0.718-1.123-1.246-1.93-1.479
		c-0.907-0.329-1.838-0.59-2.783-0.782c-0.913-0.238-1.844-0.407-2.782-0.505v-2.695h23.809v2.644
		c-0.927,0.039-1.85,0.132-2.765,0.278c-0.947,0.133-1.884,0.336-2.801,0.608c-0.811,0.196-1.5,0.728-1.896,1.461
		c-0.308,0.707-0.45,1.474-0.417,2.243v38.262c-0.017,0.765,0.17,1.521,0.539,2.191c0.431,0.694,1.078,1.226,1.844,1.513
		c0.834,0.285,1.688,0.505,2.556,0.661c0.985,0.214,1.985,0.348,2.991,0.4v2.644l0,0L227.007,189.748z"/>
	<path d="M287.146,189.748h-21.983v-2.644c1.622-0.078,3.231-0.329,4.8-0.748c1.275-0.371,1.914-0.829,1.914-1.374
		c0.019-0.267,0.019-0.534,0-0.8c-0.045-0.292-0.12-0.577-0.227-0.852l-4.452-11.965h-18.505c-0.695,1.739-1.275,3.252-1.738,4.54
		c-0.465,1.287-0.858,2.481-1.184,3.583c-0.271,0.857-0.498,1.728-0.678,2.608c-0.109,0.527-0.174,1.063-0.191,1.6
		c0.182,1.207,1.139,2.149,2.348,2.313c1.686,0.569,3.441,0.896,5.218,0.974v2.644h-19.792v-2.522
		c0.811-0.082,1.613-0.228,2.4-0.435c0.848-0.185,1.658-0.508,2.4-0.957c0.889-0.588,1.671-1.323,2.313-2.174
		c0.658-0.944,1.195-1.966,1.6-3.043c2.668-6.632,5.601-14.099,8.801-22.4c3.199-8.301,6.058-15.658,8.574-22.07h2.99l17.601,45.601
		c0.304,0.841,0.731,1.633,1.27,2.348c0.569,0.677,1.237,1.264,1.983,1.739c0.695,0.396,1.445,0.689,2.226,0.87
		c0.755,0.212,1.53,0.346,2.313,0.4v2.644V189.748z M265.877,168.147l-8-20.521l-7.896,20.521H265.877z"/>
	<path d="M357.303,189.748h-23.392v-2.644c1.094-0.018,2.187-0.105,3.27-0.261c0.945-0.049,1.875-0.261,2.748-0.626
		c0.702-0.383,1.3-0.932,1.739-1.6c0.383-0.703,0.568-1.496,0.539-2.296v-38.505h-0.574l-18.069,45.079h-1.826L304.52,142.86h-0.521
		v31.6c-0.066,2.333,0.126,4.666,0.574,6.957c0.209,1.311,0.816,2.525,1.739,3.479c1.033,0.751,2.222,1.262,3.478,1.496
		c1.097,0.343,2.219,0.593,3.356,0.748v2.644h-21.356v-2.678c1.17-0.11,2.332-0.296,3.479-0.557c1.033-0.187,2.01-0.609,2.852-1.234
		c0.93-0.836,1.543-1.966,1.74-3.2c0.395-2.378,0.557-4.79,0.486-7.2v-27.096c0.043-1.304-0.146-2.605-0.557-3.843
		c-0.33-0.919-0.879-1.742-1.6-2.4c-0.797-0.696-1.734-1.212-2.748-1.513c-1.064-0.307-2.162-0.487-3.27-0.539v-2.661h18.035
		l15.096,39.722l12.922-33.218c0.478-1.249,0.878-2.527,1.199-3.825c0.259-0.872,0.45-1.761,0.574-2.661h17.252v2.626
		c-0.894,0.048-1.782,0.158-2.661,0.33c-0.812,0.13-1.613,0.315-2.399,0.557c-0.771,0.219-1.407,0.766-1.739,1.496
		c-0.305,0.721-0.458,1.496-0.452,2.278v38.139c-0.018,0.75,0.137,1.493,0.452,2.174c0.396,0.704,1.005,1.265,1.739,1.6
		c0.762,0.346,1.57,0.581,2.399,0.695c0.896,0.178,1.803,0.294,2.714,0.348v2.644l0,0V189.748z"/>
	<path d="M396.711,165.487c1.094,1.202,1.939,2.609,2.487,4.139c0.568,1.679,0.84,3.445,0.8,5.217
		c0.095,4.44-1.823,8.685-5.218,11.548c-3.558,3.086-8.144,4.725-12.852,4.591c-2.401-0.005-4.788-0.375-7.078-1.096
		c-2.132-0.647-4.176-1.553-6.087-2.696l-1.601,2.713h-2.991l-0.521-18.243h3.009c0.566,2.073,1.299,4.097,2.191,6.052
		c0.854,1.83,1.968,3.529,3.304,5.043c1.271,1.438,2.806,2.62,4.522,3.478c1.875,0.902,3.937,1.35,6.017,1.305
		c1.529,0.028,3.052-0.201,4.505-0.678c2.306-0.721,4.124-2.507,4.887-4.8c0.403-1.234,0.598-2.528,0.574-3.826
		c0.017-2.1-0.588-4.157-1.739-5.913c-1.296-1.908-3.157-3.361-5.322-4.156c-1.6-0.638-3.449-1.351-5.548-2.139
		c-2.099-0.789-3.901-1.525-5.408-2.209c-2.721-1.127-5.112-2.921-6.957-5.217c-1.746-2.487-2.615-5.486-2.469-8.521
		c-0.008-1.942,0.42-3.862,1.252-5.618c0.836-1.77,2.019-3.354,3.479-4.66c1.492-1.326,3.221-2.358,5.095-3.044
		c1.959-0.729,4.032-1.102,6.122-1.096c2.229-0.037,4.447,0.34,6.539,1.113c1.817,0.705,3.563,1.578,5.218,2.608l1.53-2.539h2.991
		l0.296,17.565h-2.957c-0.514-1.955-1.129-3.882-1.843-5.774c-0.652-1.773-1.548-3.447-2.661-4.974
		c-1.037-1.43-2.372-2.616-3.913-3.479c-1.749-0.906-3.701-1.35-5.67-1.286c-2.229-0.043-4.39,0.772-6.034,2.278
		c-1.617,1.398-2.528,3.445-2.487,5.583c-0.078,2.017,0.482,4.006,1.6,5.687c1.217,1.611,2.828,2.881,4.679,3.687
		c1.746,0.843,3.534,1.598,5.356,2.261c1.751,0.638,3.449,1.316,5.096,2.035c1.461,0.658,2.878,1.407,4.243,2.244
		C394.461,163.436,395.661,164.385,396.711,165.487z"/>
	<path d="M79.702,238.86c1.087,1.188,1.932,2.576,2.487,4.087c0.569,1.679,0.839,3.444,0.8,5.218
		c0.095,4.439-1.823,8.684-5.217,11.547c-3.565,3.068-8.151,4.688-12.852,4.539c-2.401-0.006-4.788-0.375-7.079-1.096
		c-2.141-0.628-4.196-1.516-6.122-2.643l-1.583,2.678h-2.991l-0.522-18.104h3.009c0.567,2.073,1.299,4.097,2.191,6.052
		c0.855,1.831,1.968,3.529,3.304,5.044c1.27,1.439,2.805,2.62,4.522,3.479c1.875,0.903,3.937,1.351,6.017,1.304
		c1.529,0.029,3.052-0.2,4.504-0.678c1.179-0.399,2.246-1.072,3.113-1.965c0.786-0.829,1.38-1.82,1.739-2.904
		c0.403-1.234,0.597-2.527,0.574-3.826c0.018-2.1-0.587-4.158-1.739-5.913c-1.294-1.909-3.156-3.362-5.322-4.157
		c-1.635-0.591-3.496-1.275-5.583-2.052s-3.884-1.507-5.391-2.191c-2.721-1.126-5.113-2.921-6.957-5.218
		c-1.753-2.484-2.628-5.483-2.487-8.521c-0.009-1.936,0.413-3.849,1.235-5.601c0.836-1.771,2.019-3.355,3.479-4.661
		c1.492-1.325,3.221-2.358,5.096-3.043c1.969-0.734,4.055-1.105,6.156-1.096c2.23-0.037,4.447,0.341,6.539,1.113
		c1.817,0.704,3.564,1.577,5.217,2.608l1.531-2.539h2.991l0.295,17.564H77.72c-0.513-1.955-1.128-3.882-1.843-5.773
		c-0.652-1.778-1.547-3.458-2.661-4.991c-1.037-1.43-2.372-2.616-3.913-3.479c-1.748-0.907-3.701-1.351-5.669-1.286
		c-2.227-0.048-4.387,0.762-6.035,2.261c-1.614,1.388-2.531,3.419-2.504,5.548c-0.078,2.017,0.482,4.006,1.6,5.687
		c1.209,1.615,2.814,2.892,4.661,3.704c1.747,0.844,3.534,1.598,5.356,2.261c1.751,0.638,3.449,1.316,5.096,2.035
		c1.477,0.639,2.912,1.37,4.296,2.19C77.429,236.808,78.642,237.756,79.702,238.86z"/>
	<path d="M131.476,216.582c2.387,2.505,4.25,5.461,5.479,8.695c1.357,3.655,2.029,7.528,1.982,11.427
		c0.051,3.906-0.633,7.789-2.017,11.443c-1.251,3.251-3.157,6.211-5.6,8.695c-2.282,2.365-5.022,4.24-8.052,5.514
		c-6.403,2.633-13.595,2.589-19.965-0.123c-3.025-1.307-5.745-3.232-7.982-5.651c-2.303-2.561-4.076-5.552-5.217-8.8
		c-1.293-3.537-1.941-7.277-1.913-11.044c-0.093-3.907,0.556-7.796,1.913-11.461c1.269-3.23,3.153-6.184,5.548-8.695
		c2.295-2.411,5.067-4.318,8.139-5.6c6.279-2.605,13.337-2.605,19.617,0C126.458,212.265,129.207,214.173,131.476,216.582z
		 M125.929,254.06c1.438-2.373,2.467-4.972,3.043-7.687c1.307-6.46,1.271-13.12-0.104-19.564c-0.591-2.743-1.644-5.366-3.113-7.757
		c-1.31-2.047-3.102-3.743-5.217-4.939c-2.165-1.194-4.606-1.794-7.078-1.739c-2.68-0.08-5.324,0.634-7.6,2.053
		c-2.069,1.403-3.779,3.273-4.991,5.461c-1.324,2.4-2.263,4.994-2.783,7.687c-0.616,3.039-0.919,6.134-0.904,9.234
		c-0.031,3.256,0.296,6.504,0.974,9.688c0.579,2.717,1.614,5.315,3.061,7.687c1.251,2.098,2.994,3.858,5.079,5.131
		c2.219,1.274,4.746,1.912,7.304,1.843c2.523,0.039,5.011-0.604,7.2-1.86C122.926,258.016,124.692,256.214,125.929,254.06z"/>
	<path d="M195.633,212.912c-1.083,0.093-2.155,0.291-3.2,0.592c-1.083,0.235-2.126,0.628-3.095,1.165
		c-1.031,0.917-1.656,2.205-1.739,3.583c-0.346,2.22-0.503,4.466-0.47,6.713v38.695h-3.304l-32.052-43.27v27.27
		c-0.064,2.362,0.128,4.724,0.574,7.044c0.214,1.309,0.82,2.521,1.739,3.478c1.032,0.761,2.22,1.283,3.479,1.53
		c1.137,0.344,2.3,0.594,3.478,0.748v2.644h-21.53v-2.608c1.178-0.145,2.342-0.389,3.478-0.73c1.06-0.211,2.073-0.611,2.991-1.183
		c0.929-0.837,1.543-1.966,1.739-3.2c0.399-2.419,0.563-4.871,0.487-7.322v-25.999c0.002-1.185-0.198-2.361-0.591-3.479
		c-0.309-0.999-0.858-1.906-1.6-2.644c-1.07-0.922-2.303-1.636-3.635-2.104c-1.181-0.5-2.429-0.822-3.705-0.956v-2.609h15.061
		l29.739,40.33v-25.164c0.066-2.38-0.132-4.76-0.591-7.096c-0.183-1.269-0.797-2.436-1.739-3.305
		c-1.084-0.63-2.256-1.094-3.479-1.374c-1.172-0.368-2.378-0.618-3.6-0.748v-2.644h21.583v2.644l0,0H195.633z"/>
	<path d="M238.52,216.582c2.387,2.505,4.25,5.461,5.479,8.695c1.357,3.655,2.029,7.528,1.982,11.427
		c0.051,3.906-0.633,7.789-2.018,11.443c-1.251,3.251-3.156,6.211-5.6,8.695c-2.283,2.364-5.022,4.24-8.053,5.514
		c-6.361,2.647-13.516,2.647-19.878,0c-3.042-1.336-5.767-3.297-8-5.758c-2.303-2.56-4.076-5.551-5.217-8.799
		c-1.293-3.537-1.941-7.277-1.913-11.044c-0.067-3.919,0.612-7.813,2-11.479c1.269-3.23,3.153-6.184,5.547-8.695
		c2.296-2.411,5.068-4.318,8.14-5.6c6.28-2.605,13.338-2.605,19.618,0C233.602,212.284,236.296,214.19,238.52,216.582z
		 M233.041,254.06c1.439-2.373,2.469-4.971,3.044-7.687c1.308-6.46,1.271-13.12-0.104-19.564c-0.592-2.743-1.645-5.366-3.113-7.757
		c-1.311-2.047-3.102-3.743-5.217-4.939c-2.164-1.194-4.607-1.794-7.078-1.739c-2.681-0.08-5.324,0.634-7.6,2.053
		c-2.11,1.395-3.857,3.272-5.096,5.479c-1.324,2.4-2.264,4.994-2.783,7.687c-0.617,3.039-0.92,6.133-0.904,9.234
		c-0.012,3.251,0.332,6.494,1.025,9.67c0.58,2.717,1.615,5.315,3.062,7.687c1.251,2.097,2.994,3.858,5.078,5.131
		c2.219,1.274,4.747,1.912,7.304,1.843c2.513,0.033,4.987-0.609,7.166-1.86C229.984,258.027,231.781,256.224,233.041,254.06z"/>
	<path d="M311.842,263.173h-23.357v-2.66c1.095-0.019,2.188-0.105,3.27-0.262c0.939-0.051,1.863-0.263,2.73-0.625
		c0.703-0.383,1.301-0.932,1.74-1.601c0.383-0.702,0.569-1.496,0.539-2.296v-38.469h-0.557l-18.053,45.043h-1.861l-17.164-46h-0.487
		v31.582c-0.048,2.336,0.161,4.668,0.626,6.957c0.209,1.311,0.816,2.524,1.739,3.479c1.034,0.75,2.222,1.262,3.478,1.495
		c1.097,0.343,2.219,0.593,3.357,0.748v2.626H246.45v-2.66c1.17-0.111,2.332-0.298,3.478-0.557c1.033-0.188,2.01-0.61,2.854-1.235
		c0.928-0.837,1.541-1.966,1.738-3.2c0.395-2.379,0.557-4.789,0.487-7.199v-27.078c0.042-1.305-0.147-2.605-0.557-3.844
		c-0.33-0.918-0.88-1.742-1.601-2.4c-0.822-0.701-1.791-1.212-2.834-1.495c-1.082-0.315-2.197-0.503-3.322-0.557v-2.696h18
		l15.148,39.688l12.956-33.2c0.478-1.25,0.878-2.527,1.2-3.826c0.246-0.872,0.427-1.762,0.539-2.661h17.252v2.644
		c-0.894,0.048-1.782,0.158-2.66,0.331c-0.813,0.129-1.614,0.315-2.4,0.557c-0.771,0.219-1.407,0.766-1.739,1.495
		c-0.305,0.721-0.458,1.496-0.452,2.278v38.121c-0.021,0.756,0.135,1.506,0.452,2.191c0.396,0.705,1.005,1.266,1.739,1.601
		c0.762,0.348,1.57,0.582,2.4,0.695c0.895,0.178,1.802,0.294,2.713,0.349v2.66l0,0V263.173z"/>
	<path d="M369.72,263.173h-21.896v-2.66c1.622-0.079,3.23-0.33,4.8-0.748c1.275-0.371,1.913-0.829,1.913-1.374
		c0.019-0.267,0.019-0.534,0-0.8c-0.044-0.292-0.119-0.578-0.226-0.853l-4.383-11.86H331.25c-0.695,1.738-1.275,3.252-1.739,4.539
		s-0.857,2.48-1.183,3.582c-0.271,0.857-0.498,1.729-0.678,2.609c-0.11,0.526-0.174,1.062-0.191,1.6
		c0.182,1.207,1.139,2.148,2.348,2.313c1.685,0.568,3.441,0.896,5.218,0.975v2.643h-19.826v-2.643
		c0.81-0.082,1.612-0.229,2.399-0.436c0.848-0.185,1.658-0.508,2.4-0.956c0.883-0.567,1.664-1.279,2.313-2.104
		c0.656-0.944,1.194-1.967,1.6-3.043c2.667-6.633,5.6-14.099,8.8-22.4c3.2-8.301,6.059-15.669,8.574-22.104h3.061l17.601,45.601
		c0.303,0.842,0.73,1.633,1.27,2.348c0.568,0.677,1.236,1.264,1.982,1.738c0.695,0.402,1.444,0.701,2.226,0.888
		c0.756,0.212,1.53,0.346,2.313,0.399v2.645L369.72,263.173z M348.45,241.573l-8-20.521l-7.896,20.521H348.45z"/>
</g>
</svg>
