<?xml version="1.0" encoding="utf-8"?>
<!-- Generator: Adobe Illustrator 16.0.0, SVG Export Plug-In . SVG Version: 6.00 Build 0)  -->
<!DOCTYPE svg PUBLIC "-//W3C//DTD SVG 1.1//EN" "http://www.w3.org/Graphics/SVG/1.1/DTD/svg11.dtd">
<svg version="1.1" id="Logos" xmlns="http://www.w3.org/2000/svg" xmlns:xlink="http://www.w3.org/1999/xlink" x="0px" y="0px"
	 width="219.258px" height="200px" viewBox="0 0 219.258 200" enable-background="new 0 0 219.258 200" xml:space="preserve">
<g display="none">
	<g display="inline">
		<path fill="#D7182A" d="M257.029,523.4l-1.6,3.6c2.898-0.3,5.698-0.5,8.198-0.5l-1.698-3.8
			C260.329,522.9,258.629,523.2,257.029,523.4z M271.829,522.1c-0.601,1.602-1.3,3.102-1.8,4.602c6.1,0.5,9.699,1.398,9.699,1.398
			l2.801-6C278.729,522,275.129,522,271.829,522.1z M235.93,530.5c-1.301,0.9-1.601,1.3-1.701,1.3c-0.1,0.102,2.801-1,7.102-2.2
			c4.102-1.1,6.102-1.398,8.398-1.8c-0.398-0.8-0.699-1.7-1.1-2.7C241.629,527,237.829,529.1,235.93,530.5L235.93,530.5z"/>
		<path d="M259.729,496.3l7.4,19.102l13.6-26.802l-13.5,17.802l-7.5-17l-7.6,17l-13.5-17.802l13.7,26.802L259.729,496.3z"/>
		<path d="M271.829,522.1c1.399-3.698,2.8-7.3,3.5-9.1c2.5-6.6,8.899-24.3,8.899-24.3l-17.399,35.6c-1.899-4.898-7.2-17.8-7.2-17.8
			c-0.4,0.9-5.199,12.9-7.199,17.8l-17.4-35.6c0,0,6.301,17.7,8.9,24.3c1,2.4,2.899,7.5,4.799,12.2c0.4,0.898,0.701,1.8,1.102,2.7
			c1.398,3.698,2.5,6.6,2.5,6.6l3.199-7.3l1.601-3.602l2.601-6l2.301,5.4l1.699,3.8l3.399,7.8c0,0,1.302-3.398,2.899-7.6
			C270.629,525.3,271.229,523.7,271.829,522.1L271.829,522.1z"/>
	</g>
	<path display="inline" d="M271.229,528.9c-0.398,0-0.699-0.302-0.699-0.7c0-0.4,0.301-0.7,0.699-0.7c0.4,0,0.701,0.3,0.701,0.7
		C271.93,528.6,271.629,528.9,271.229,528.9z M271.229,527.7c-0.299,0-0.5,0.2-0.5,0.6c0,0.3,0.201,0.602,0.5,0.602
		c0.301,0,0.5-0.2,0.5-0.602C271.729,527.9,271.529,527.7,271.229,527.7z M271.129,528.6h-0.1V527.9h0.199
		c0.201,0,0.201,0.1,0.201,0.198c0,0.102-0.102,0.2-0.201,0.2l0.201,0.3h-0.102l-0.2-0.3h-0.101
		C271.129,528.4,271.129,528.6,271.129,528.6z M271.229,528.2c0.102,0,0.201,0,0.201-0.102c0-0.1-0.101-0.1-0.101-0.1h-0.101V528.2
		L271.229,528.2z"/>
</g>
<g>
	<path fill="#D7182A" d="M100.53,147.35l-6.2,14.398c11.8-1.199,22.799-1.898,32.7-1.898l-6.7-15.102
		C113.729,145.65,107.03,146.549,100.53,147.35z M159.83,142.25c-2.399,6.199-5,12.5-7.2,18.299c24.301,1.9,38.7,5.801,38.7,5.801
		l11.3-23.801C187.229,142.049,173.13,142.049,159.83,142.25z M16.331,175.65c-5,3.6-6.5,5.299-6.7,5.299
		c-0.2,0.201,11.1-4.1,28.4-8.699c16.3-4.301,24.5-5.801,33.4-7.201c-1.4-3.398-2.6-7-4.3-10.799
		C39.23,161.75,23.831,170.35,16.331,175.65L16.331,175.65z"/>
	<g>
		<polygon fill="#FFFFFF" points="111.33,39.35 140.63,115.549 195.229,8.65 141.13,79.55 111.33,11.45 81.23,79.55 27.23,8.65 
			81.53,115.549 		"/>
	</g>
	<path fill="#FFFFFF" d="M159.83,142.25c5.8-14.701,11.3-29.1,14.2-36.5c10.1-26.2,35.6-97.1,35.6-97.1l-69.5,142.1
		c-7.699-19.5-28.6-71.2-28.6-71.2c-1.4,3.6-20.9,51.7-28.6,71.2L13.23,8.65c0,0,25.2,70.9,35.6,97.1c3.8,9.6,11.8,30,19,48.6
		c1.4,3.602,2.9,7.199,4.3,10.801c5.8,14.699,10.1,26.199,10.1,26.199l13-29.1l6.2-14.4l10.6-24l9.4,21.4l6.698,14.9l13.5,31.199
		c0,0,5.302-13.699,11.802-30.301C154.83,154.949,157.431,148.75,159.83,142.25L159.83,142.25z"/>
</g>
</svg>
