<svg enable-background="new 0 0 219.258 200" height="200" viewBox="0 0 219.258 200" width="219.258" xmlns="http://www.w3.org/2000/svg"><path d="m100.53 147.35-6.2 14.398c11.8-1.199 22.799-1.898 32.7-1.898l-6.7-15.102c-6.601.902-13.3 1.801-19.8 2.602zm59.3-5.1c-2.399 6.199-5 12.5-7.2 18.299 24.301 1.9 38.7 5.801 38.7 5.801l11.3-23.801c-15.401-.5-29.5-.5-42.8-.299zm-143.499 33.4c-5 3.6-6.5 5.299-6.7 5.299-.2.201 11.1-4.1 28.4-8.699 16.3-4.301 24.5-5.801 33.4-7.201-1.4-3.398-2.6-7-4.3-10.799-27.901 7.5-43.3 16.1-50.8 21.4z" fill="#d7182a"/><g fill="#fff"><path d="m111.33 39.35 29.3 76.199 54.599-106.899-54.099 70.9-29.8-68.1-30.1 68.1-54-70.9 54.3 106.899z"/><path d="m159.83 142.25c5.8-14.701 11.3-29.1 14.2-36.5 10.1-26.2 35.6-97.1 35.6-97.1l-69.5 142.1c-7.699-19.5-28.6-71.2-28.6-71.2-1.4 3.6-20.9 51.7-28.6 71.2l-69.7-142.1s25.2 70.9 35.6 97.1c3.8 9.6 11.8 30 19 48.6 1.4 3.602 2.9 7.199 4.3 10.801 5.8 14.699 10.1 26.199 10.1 26.199l13-29.1 6.2-14.4 10.6-24 9.4 21.4 6.698 14.9 13.5 31.199s5.302-13.699 11.802-30.301c1.4-6.099 4.001-12.298 6.4-18.798z"/></g></svg>