<?xml version="1.0" encoding="utf-8"?>
<!-- Generator: Adobe Illustrator 16.0.0, SVG Export Plug-In . SVG Version: 6.00 Build 0)  -->
<!DOCTYPE svg PUBLIC "-//W3C//DTD SVG 1.1//EN" "http://www.w3.org/Graphics/SVG/1.1/DTD/svg11.dtd">
<svg version="1.1" id="svg2403" xmlns:svg="http://www.w3.org/2000/svg"
	 xmlns="http://www.w3.org/2000/svg" xmlns:xlink="http://www.w3.org/1999/xlink" x="0px" y="0px" width="140px" height="140px"
	 viewBox="-10 -20 140 140" enable-background="new -10 -20 140 140" xml:space="preserve">
<path fill="#ED1C24" d="M59.892,0.002C26.792,0.002,0,16.792,0,37.556C0,51.685,12.339,64.021,30.598,70.38L3.967,99.998
	l47.556-25.162c2.826,0.271,5.543,0.436,8.369,0.436C93.044,75.271,120,58.313,120,37.556C120,16.792,93.044,0.002,59.892,0.002z
	 M15.053,55.326l-0.488-3.205l1.413-0.164c1.632,0,2.229-0.272,2.393-0.436c0.489-0.164,0.813-0.978,0.977-2.065
	c0,0,1.088-9.511,1.249-10.163c-0.325-0.652-6.196-12.987-6.196-12.987c-0.76-1.741-1.085-2.065-1.085-2.065
	c-0.164,0-0.652-0.328-2.065-0.491l-0.98-0.161l-0.597-3.153h14.401l0.492,3.314h-1.413c-1.468,0.163-1.904,0.163-1.904,0.327
	c-0.161,0-0.161,0-0.161,0s0,0,0,0.164c0,0,0.161,0.161,0.325,0.652c0.108,0.433,0.108,0.597,0.272,0.761
	c0,0,2.717,5.867,3.966,8.585c1.305-1.901,3.045-4.619,3.045-4.619c0.761-1.412,1.413-2.5,1.901-3.153
	c0.597-1.249,0.597-1.901,0.597-2.064c0-0.161,0-0.325-0.272-0.489c-0.161,0-0.652-0.163-2.065-0.163h-1.141l-0.433-3.314h11.684
	h0.977l0.652,3.153l-1.305,0.161c-0.921,0.163-1.413,0.327-1.574,0.491c-0.164,0.161-0.652,0.652-1.413,1.901
	c0,0-8.1,12.827-8.424,13.315c-0.164,1.413-0.925,8.858-0.925,8.858c-0.164,0.652-0.164,1.305-0.164,1.629c0,0.436,0,0.764,0,0.925
	c0.164,0.488,0.328,0.815,0.491,0.815c0.27,0.164,1.085,0.272,3.151,0.272l0.924,0.164l0.652,3.205H15.053z M60.544,49.292
	c-0.488,1.252-1.088,2.393-1.904,3.317c-1.413,2.227-3.15,3.314-4.891,3.314c-0.977,0-1.901-0.272-2.717-0.925
	c-0.649-0.488-1.249-1.413-1.413-2.554c0-0.488-0.161-1.088-0.161-1.576v-0.161c0-0.492,0-0.925,0.161-1.416
	c-0.488,0.764-0.977,1.577-1.302,2.065c-1.904,2.989-4.078,4.566-6.631,4.566c-0.652,0-1.413-0.164-2.065-0.436
	c-0.816-0.489-1.901-1.467-2.393-3.367c0-0.437,0-0.764,0-1.088v-0.978l0.98-13.424c0-0.164,0-0.492,0-0.492v-0.16
	c0-0.164-0.164-0.328-0.164-0.328c-0.164-0.161-0.652-0.161-1.738-0.161h-1.141l-0.436-2.828l4.563-0.978l3.642-0.76
	c0.328,0,0.816-0.164,1.468,0.436c0.272,0.324,0.436,0.652,0.436,1.141v0.325l-1.416,16.63v0.76v0.328v0.164
	c0.164,0,0.98-0.164,2.229-2.065c0.924-1.577,1.901-3.317,2.665-5.055c0.813-1.577,1.302-3.317,1.793-5.219
	c0.272-1.305,0.597-3.206,1.085-5.868l0.328-1.141h6.032l-0.164,1.466l-1.577,17.118c0,0,0,0.111,0,0.436l0.111-0.164
	c0,0,0.161-0.272,0.652-0.924l1.738-2.715l2.718,1.738L60.544,49.292z M98.26,49.456l-0.161,0.327
	c-0.925,1.738-2.065,3.15-3.153,4.238c-1.249,1.305-2.554,1.902-4.131,1.902c-0.652,0-1.413-0.272-2.065-0.598
	c-0.761-0.652-1.412-1.576-1.737-3.045c0-0.324,0-0.597,0-0.924V50.38l1.141-13.641v-0.6c0,0,0,0,0-0.16
	c-0.652,0.16-1.632,0.76-2.393,2.064c-1.141,1.413-2.065,2.99-2.718,4.563c-0.597,1.633-1.085,3.045-1.249,4.131
	c-0.163,1.141-0.488,3.478-0.816,7.447l-0.16,1.141h-6.144c0,0,1.577-18.423,1.577-18.586v-0.272v-0.164c0-0.164,0-0.164,0-0.324
	c-0.325,0-0.978,0.16-2.393,2.064c-1.086,1.574-2.063,3.15-2.715,4.563c-0.6,1.305-1.088,3.207-1.577,5.436
	c-0.164,1.413-0.437,3.479-0.925,6.143l-0.163,1.141h-6.196l1.902-18.586c0,0,0-0.272,0-0.436V36.14c0-0.16-0.161-0.16-0.161-0.16
	c-0.164-0.164-0.601-0.164-2.065-0.164h-1.088l-0.489-2.989l1.249-0.325c1.633-0.164,4.131-0.816,7.5-1.576l0.601-0.164l1.302,0.924
	c0,0-0.324,2.882-0.488,4.783c0.327-0.488,0.6-0.978,0.924-1.469c2.065-2.825,4.131-4.074,6.196-4.074
	c0.977,0,1.74,0.271,2.554,0.76c1.088,0.652,1.9,1.901,2.229,3.479c0,0.327,0,0.652,0,0.977c0.272-0.324,0.436-0.488,0.597-0.813
	c2.229-2.989,4.295-4.401,6.523-4.401c1.085,0,2.065,0.271,2.989,0.924c0.978,0.813,1.574,1.901,1.901,3.314
	c0,0.163,0,0.488,0,1.141c0,0.436,0,0.925,0,1.74v0.161c0,0-0.864,10.063-1.069,12.152c0.158-0.166,0.315-0.419,0.471-0.574
	l0.163-0.327l1.901-2.879l2.829,1.901L98.26,49.456z M106.359,54.674c-0.652,0.814-1.576,1.25-2.718,1.25
	c-0.924,0-1.904-0.272-2.665-0.925c-0.977-0.652-1.412-1.577-1.737-2.878c-0.164-0.925,0.161-1.905,0.761-2.665
	c0.324-0.652,1.305-1.305,2.718-1.305c0.924,0,1.901,0.327,2.718,0.979c0.924,0.813,1.412,1.577,1.573,2.718
	C107.337,52.934,107.009,53.858,106.359,54.674z M109.838,26.142c-0.164,0.816-0.764,3.314-1.904,7.608
	c-0.161,0.488-0.489,1.74-1.086,5.055l-1.74,7.934l-2.065-0.325l-0.977-0.272l0.163-8.425c0.161-4.783,0.161-6.196,0.161-6.521
	v-4.402c0-2.229,0.164-3.967,0.652-4.947c0.6-1.412,1.741-2.064,2.989-2.064c0.978,0,1.902,0.327,2.555,0.979
	c0.652,0.761,1.088,1.574,1.252,2.391C109.998,24.076,109.998,25.054,109.838,26.142z"/>
</svg>
