<svg enable-background="new -10 -20 140 140" height="140" viewBox="-10 -20 140 140" width="140" xmlns="http://www.w3.org/2000/svg"><path d="m59.892.002c-33.1 0-59.892 16.79-59.892 37.554 0 14.129 12.339 26.465 30.598 32.824l-26.631 29.618 47.556-25.162c2.826.271 5.543.436 8.369.436 33.152-.001 60.108-16.959 60.108-37.716 0-20.764-26.956-37.554-60.108-37.554zm-44.839 55.324-.488-3.205 1.413-.164c1.632 0 2.229-.272 2.393-.436.489-.164.813-.978.977-2.065 0 0 1.088-9.511 1.249-10.163-.325-.652-6.196-12.987-6.196-12.987-.76-1.741-1.085-2.065-1.085-2.065-.164 0-.652-.328-2.065-.491l-.98-.161-.597-3.153h14.401l.492 3.314h-1.413c-1.468.163-1.904.163-1.904.327-.161 0-.161 0-.161 0s0 0 0 .164c0 0 .161.161.325.652.108.433.108.597.272.761 0 0 2.717 5.867 3.966 8.585 1.305-1.901 3.045-4.619 3.045-4.619.761-1.412 1.413-2.5 1.901-3.153.597-1.249.597-1.901.597-2.064 0-.161 0-.325-.272-.489-.161 0-.652-.163-2.065-.163h-1.141l-.433-3.314h11.684.977l.652 3.153-1.305.161c-.921.163-1.413.327-1.574.491-.164.161-.652.652-1.413 1.901 0 0-8.1 12.827-8.424 13.315-.164 1.413-.925 8.858-.925 8.858-.164.652-.164 1.305-.164 1.629v.925c.164.488.328.815.491.815.27.164 1.085.272 3.151.272l.924.164.652 3.205zm45.491-6.034c-.488 1.252-1.088 2.393-1.904 3.317-1.413 2.227-3.15 3.314-4.891 3.314-.977 0-1.901-.272-2.717-.925-.649-.488-1.249-1.413-1.413-2.554 0-.488-.161-1.088-.161-1.576v-.161c0-.492 0-.925.161-1.416-.488.764-.977 1.577-1.302 2.065-1.904 2.989-4.078 4.566-6.631 4.566-.652 0-1.413-.164-2.065-.436-.816-.489-1.901-1.467-2.393-3.367 0-.437 0-.764 0-1.088v-.978l.98-13.424c0-.164 0-.492 0-.492v-.16c0-.164-.164-.328-.164-.328-.164-.161-.652-.161-1.738-.161h-1.141l-.436-2.828 4.563-.978 3.642-.76c.328 0 .816-.164 1.468.436.272.324.436.652.436 1.141v.325l-1.416 16.63v.76.328.164c.164 0 .98-.164 2.229-2.065.924-1.577 1.901-3.317 2.665-5.055.813-1.577 1.302-3.317 1.793-5.219.272-1.305.597-3.206 1.085-5.868l.328-1.141h6.032l-.164 1.466-1.577 17.118v.436l.111-.164s.161-.272.652-.924l1.738-2.715 2.718 1.738zm37.716.164-.161.327c-.925 1.738-2.065 3.15-3.153 4.238-1.249 1.305-2.554 1.902-4.131 1.902-.652 0-1.413-.272-2.065-.598-.761-.652-1.412-1.576-1.737-3.045 0-.324 0-.597 0-.924v-.976l1.141-13.641v-.6s0 0 0-.16c-.652.16-1.632.76-2.393 2.064-1.141 1.413-2.065 2.99-2.718 4.563-.597 1.633-1.085 3.045-1.249 4.131-.163 1.141-.488 3.478-.816 7.447l-.16 1.141h-6.144s1.577-18.423 1.577-18.586v-.272-.164c0-.164 0-.164 0-.324-.325 0-.978.16-2.393 2.064-1.086 1.574-2.063 3.15-2.715 4.563-.6 1.305-1.088 3.207-1.577 5.436-.164 1.413-.437 3.479-.925 6.143l-.163 1.141h-6.196l1.902-18.586s0-.272 0-.436v-.164c0-.16-.161-.16-.161-.16-.164-.164-.601-.164-2.065-.164h-1.088l-.489-2.989 1.249-.325c1.633-.164 4.131-.816 7.5-1.576l.601-.164 1.302.924s-.324 2.882-.488 4.783c.327-.488.6-.978.924-1.469 2.065-2.825 4.131-4.074 6.196-4.074.977 0 1.74.271 2.554.76 1.088.652 1.9 1.901 2.229 3.479v.977c.272-.324.436-.488.597-.813 2.229-2.989 4.295-4.401 6.523-4.401 1.085 0 2.065.271 2.989.924.978.813 1.574 1.901 1.901 3.314v1.141 1.74.161s-.864 10.063-1.069 12.152c.158-.166.315-.419.471-.574l.163-.327 1.901-2.879 2.829 1.901zm8.099 5.218c-.652.814-1.576 1.25-2.718 1.25-.924 0-1.904-.272-2.665-.925-.977-.652-1.412-1.577-1.737-2.878-.164-.925.161-1.905.761-2.665.324-.652 1.305-1.305 2.718-1.305.924 0 1.901.327 2.718.979.924.813 1.412 1.577 1.573 2.718.328 1.086 0 2.01-.65 2.826zm3.479-28.532c-.164.816-.764 3.314-1.904 7.608-.161.488-.489 1.74-1.086 5.055l-1.74 7.934-2.065-.325-.977-.272.163-8.425c.161-4.783.161-6.196.161-6.521v-4.402c0-2.229.164-3.967.652-4.947.6-1.412 1.741-2.064 2.989-2.064.978 0 1.902.327 2.555.979.652.761 1.088 1.574 1.252 2.391.16.923.16 1.901 0 2.989z" fill="#ed1c24"/></svg>