<?xml version="1.0" encoding="utf-8"?>
<!-- Generator: Adobe Illustrator 16.0.0, SVG Export Plug-In . SVG Version: 6.00 Build 0)  -->
<!DOCTYPE svg PUBLIC "-//W3C//DTD SVG 1.1//EN" "http://www.w3.org/Graphics/SVG/1.1/DTD/svg11.dtd">
<svg version="1.1" id="Layer_1" xmlns="http://www.w3.org/2000/svg" xmlns:xlink="http://www.w3.org/1999/xlink" x="0px" y="0px"
	 width="3500px" height="3500px" viewBox="-350 -350 3500 3500" enable-background="new -350 -350 3500 3500" xml:space="preserve">
<g>
	<path fill="#FFFFFF" d="M1800.896,824.141c11.436-2.541,16.52,1.271,23.459,8.896c39.391,43.79,165.283,197.541,199.494,239.474
		c6.355,7.624,1.955,15.933-3.127,20.33c-254.135,198.227-536.908,479.044-694.472,679.812c-3.128,4.495-0.586,4.495,1.955,3.812
		c274.466-118.172,919.283-306.916,1209.681-359.6V1049.05L1401.318,150L262.795,1048.366v402.118
		C615.359,1240.922,1431.131,916.216,1800.896,824.141L1800.896,824.141z"/>
	<path fill="#FFFFFF" d="M875.847,2369.279c-9.48,5.082-17.203,3.812-24.826-3.813l-212.202-252.862
		c-5.67-7.038-6.354-10.851,1.271-21.603c164.016-240.157,498.788-614.419,712.261-772.569c3.813-2.541,2.541-5.767-1.954-3.812
		c-222.367,72.428-854.479,344.352-1088.282,476.502V2650h2275.187v-827.11C2227.256,1875.574,1298.394,2151.994,875.847,2369.279
		L875.847,2369.279z"/>
</g>
</svg>
