<svg enable-background="new -350 -350 3500 3500" height="3500" viewBox="-350 -350 3500 3500" width="3500" xmlns="http://www.w3.org/2000/svg"><g fill="#fff"><path d="m1800.896 824.141c11.436-2.541 16.52 1.271 23.459 8.896 39.391 43.79 165.283 197.541 199.494 239.474 6.355 7.624 1.955 15.933-3.127 20.33-254.135 198.227-536.908 479.044-694.472 679.812-3.128 4.495-.586 4.495 1.955 3.812 274.466-118.172 919.283-306.916 1209.681-359.6v-367.815l-1136.568-899.05-1138.523 898.366v402.118c352.564-209.562 1168.336-534.268 1538.101-626.343z"/><path d="m875.847 2369.279c-9.48 5.082-17.203 3.812-24.826-3.813l-212.202-252.862c-5.67-7.038-6.354-10.851 1.271-21.603 164.016-240.157 498.788-614.419 712.261-772.569 3.813-2.541 2.541-5.767-1.954-3.812-222.367 72.428-854.479 344.352-1088.282 476.502v858.878h2275.187v-827.11c-310.046 52.684-1238.908 329.104-1661.455 546.389z"/></g></svg>