<?xml version="1.0" standalone="no"?>
<!DOCTYPE svg PUBLIC "-//W3C//DTD SVG 20010904//EN"
 "http://www.w3.org/TR/2001/REC-SVG-20010904/DTD/svg10.dtd">
<svg version="1.0" xmlns="http://www.w3.org/2000/svg"
 width="512.000000pt" height="512.000000pt" viewBox="0 0 512.000000 512.000000"
 preserveAspectRatio="xMidYMid meet">
<metadata>
Created by potrace 1.11, written by Peter Selinger 2001-2013
</metadata>
<g transform="translate(0.000000,512.000000) scale(0.100000,-0.100000)"
fill="#000000" stroke="none">
<path d="M2418 4875 c-63 -35 -72 -106 -31 -230 24 -72 27 -95 27 -230 1 -125
-2 -155 -17 -182 -23 -43 -37 -49 -169 -78 -62 -14 -168 -44 -235 -67 -99 -34
-128 -40 -150 -32 -33 11 -78 84 -123 197 -31 77 -33 90 -34 214 l-1 131 -31
39 c-40 49 -81 72 -141 79 -66 8 -127 -10 -173 -52 -49 -44 -63 -87 -58 -174
3 -59 8 -75 34 -107 17 -21 62 -55 100 -76 38 -21 79 -48 91 -60 33 -34 132
-196 144 -238 18 -57 6 -82 -68 -140 -38 -29 -101 -81 -140 -116 -45 -39 -82
-63 -96 -63 -64 0 -291 196 -346 299 -42 80 -70 101 -133 101 -95 0 -136 -48
-130 -152 3 -44 49 -86 126 -114 84 -30 196 -107 288 -195 83 -80 85 -96 27
-194 -23 -39 -63 -113 -90 -166 -70 -141 -100 -158 -236 -139 -162 22 -235 48
-319 111 -47 35 -108 43 -162 20 -42 -18 -62 -57 -62 -121 0 -43 5 -56 28 -80
36 -36 87 -46 159 -31 81 16 155 13 256 -9 110 -24 170 -51 193 -85 15 -23 16
-36 6 -120 -7 -52 -12 -118 -12 -148 0 -80 -17 -158 -41 -183 -29 -31 -100
-48 -199 -49 -73 0 -94 4 -150 29 -115 52 -217 45 -284 -20 -44 -43 -59 -90
-54 -174 3 -58 8 -75 34 -107 43 -54 86 -73 166 -73 90 0 112 10 189 86 54 54
77 69 136 89 175 59 198 48 242 -120 16 -60 41 -141 56 -180 68 -180 67 -176
54 -206 -29 -72 -231 -228 -341 -264 -94 -31 -128 -66 -128 -131 0 -59 23
-102 65 -120 86 -35 144 -7 201 96 33 62 55 87 125 143 94 76 146 107 183 107
25 0 41 -15 151 -140 79 -90 194 -190 300 -262 120 -80 135 -95 135 -134 0
-67 -118 -318 -185 -394 -39 -44 -45 -57 -45 -95 0 -57 25 -85 76 -85 19 0 44
4 54 10 22 12 40 60 40 107 0 75 128 376 173 408 29 20 63 19 133 -6 157 -55
259 -71 484 -76 118 -2 230 -9 248 -15 47 -14 65 -56 70 -161 4 -80 2 -96 -28
-178 -27 -77 -32 -101 -28 -163 3 -61 8 -79 31 -110 40 -52 93 -76 169 -76
127 1 199 65 206 185 6 88 -10 126 -85 206 -67 70 -100 140 -118 246 -12 74
12 100 130 139 44 15 129 49 188 76 79 37 115 48 134 43 32 -8 129 -99 202
-190 57 -72 70 -95 115 -197 28 -65 61 -88 126 -88 59 0 95 22 114 70 20 51
20 65 -3 116 -16 35 -29 46 -87 74 -111 52 -304 257 -304 323 0 13 37 57 98
117 118 116 190 201 250 295 63 99 90 125 126 125 34 0 220 -78 319 -133 34
-20 76 -50 92 -67 39 -41 76 -60 118 -60 93 0 107 146 15 164 -143 28 -250 67
-388 143 -83 45 -120 80 -120 111 0 14 13 66 29 116 16 51 37 134 46 186 30
165 44 202 90 227 80 44 346 70 435 44 19 -6 61 -11 92 -11 49 0 62 4 89 28
60 54 48 171 -21 207 -53 28 -110 20 -179 -25 -78 -51 -147 -69 -281 -77 -158
-9 -189 14 -205 152 -17 146 -50 267 -136 493 l-24 63 21 37 c27 47 179 171
265 217 37 19 97 42 135 50 92 21 117 32 147 63 82 85 74 248 -15 315 -59 45
-169 57 -233 25 -54 -27 -86 -73 -112 -158 -31 -105 -87 -187 -183 -269 -84
-72 -105 -84 -135 -77 -12 3 -57 45 -100 93 -155 176 -303 292 -520 405 -149
78 -152 84 -111 201 44 127 110 260 148 303 19 21 40 49 47 61 32 61 -7 133
-71 133 -65 0 -86 -32 -103 -154 -8 -59 -64 -223 -110 -323 -45 -97 -66 -110
-154 -95 -65 12 -168 26 -284 38 -90 9 -116 37 -128 139 -13 116 3 242 40 322
42 89 43 159 3 204 -24 27 -37 33 -83 36 -36 2 -63 -2 -81 -12z m128 -981 c70
-19 127 -63 155 -121 l24 -48 0 -710 0 -710 -23 -57 c-41 -101 -108 -138 -232
-126 -82 8 -145 66 -169 155 -8 27 -9 268 -5 774 l6 734 23 37 c13 20 39 50
57 67 36 34 58 34 164 5z m129 -2003 c49 -22 135 -114 166 -178 21 -42 24 -62
23 -163 -1 -136 -22 -205 -83 -268 -60 -61 -122 -87 -211 -87 -86 0 -139 23
-227 100 -75 66 -87 99 -79 211 14 209 86 328 231 387 53 21 131 21 180 -2z"/>
</g>
</svg>
